<svg width="80" height="80" viewBox="0 0 80 80" fill="none" xmlns="http://www.w3.org/2000/svg">
<g clip-path="url(#clip0)">
<path d="M51.2785 74.7134H50.3842C48.6275 74.7134 47.2018 73.2724 47.2018 71.497V66.534C47.2018 64.7585 48.6275 63.3175 50.3842 63.3175H51.2785C53.0352 63.3175 54.4609 64.7585 54.4609 66.534V71.497C54.4609 73.2724 53.0352 74.7134 51.2785 74.7134Z" fill="#858891"/>
<path d="M52.7396 74.3532C52.3036 74.5847 51.8039 74.7134 51.2788 74.7134H50.3814C48.6247 74.7134 47.1989 73.2757 47.1989 71.497V66.534C47.1989 64.7585 48.6247 63.3175 50.3814 63.3175H51.2788C51.8039 63.3175 52.3036 63.4462 52.7396 63.6777C51.718 64.2117 51.0179 65.2892 51.0179 66.534V71.497C51.0179 72.7417 51.718 73.8224 52.7396 74.3532Z" fill="#BCC1CB"/>
<path d="M54.1778 22.8289H47.4819V36.0195H54.1778V22.8289Z" fill="#E31837"/>
<path d="M63.5056 18.3613L57.2808 17.9463C56.7779 17.9142 56.3006 17.6729 55.9982 17.2644C54.8239 15.6691 52.9463 14.6366 50.83 14.6366C48.7137 14.6366 46.836 15.6723 45.6617 17.2644C45.3594 17.6729 44.882 17.9109 44.3792 17.9463L38.1544 18.3613C36.6459 18.461 35.4747 19.7282 35.4747 21.2561C35.4747 22.7807 36.6395 24.0447 38.1448 24.1509L44.5542 24.6012C45.0411 24.6365 45.5026 24.8585 45.8081 25.2412C46.9888 26.724 48.7996 27.6761 50.83 27.6761C52.8604 27.6761 54.668 26.724 55.8519 25.2412C56.1574 24.8585 56.6188 24.6365 57.1057 24.6012L63.5183 24.1476C65.0204 24.0415 66.1884 22.7774 66.1884 21.2528C66.1852 19.7282 65.0141 18.461 63.5056 18.3613Z" fill="#E31837"/>
<path d="M50.8299 24.5625C52.6913 24.5625 54.2001 23.0374 54.2001 21.1562C54.2001 19.275 52.6913 17.75 50.8299 17.75C48.9686 17.75 47.4597 19.275 47.4597 21.1562C47.4597 23.0374 48.9686 24.5625 50.8299 24.5625Z" fill="#D9C38E"/>
<path d="M30.1982 22.7773H24.438C23.6042 22.7773 22.9295 22.0955 22.9295 21.2527V20.8571C22.9295 20.0144 23.6042 19.3325 24.438 19.3325H30.1982C31.032 19.3325 31.7066 20.0144 31.7066 20.8571V21.2527C31.7066 22.0955 31.032 22.7773 30.1982 22.7773Z" fill="#BCC1CB"/>
<path d="M77.2221 22.7773H71.4619C70.6281 22.7773 69.9534 22.0955 69.9534 21.2527V20.8571C69.9534 20.0144 70.6281 19.3325 71.4619 19.3325H77.2221C78.0559 19.3325 78.7305 20.0144 78.7305 20.8571V21.2527C78.7274 22.0955 78.0527 22.7773 77.2221 22.7773Z" fill="#BCC1CB"/>
<path d="M54.6264 65.3213H47.0331C42.6382 65.3213 39.0771 61.7221 39.0771 57.2802V39.2327C39.0771 34.7907 42.6382 31.1915 47.0331 31.1915H54.6264C59.0214 31.1915 62.5825 34.7907 62.5825 39.2327V57.2802C62.5825 61.7221 59.0214 65.3213 54.6264 65.3213Z" fill="#EF6B7F"/>
<path d="M30.2938 13.4271C32.2447 13.4271 33.8263 11.8287 33.8263 9.85688C33.8263 7.88508 32.2447 6.28662 30.2938 6.28662C28.3428 6.28662 26.7613 7.88508 26.7613 9.85688C26.7613 11.8287 28.3428 13.4271 30.2938 13.4271Z" fill="#EF6B7F"/>
<path d="M71.2007 13.4271C73.1517 13.4271 74.7332 11.8287 74.7332 9.85688C74.7332 7.88508 73.1517 6.28662 71.2007 6.28662C69.2498 6.28662 67.6682 7.88508 67.6682 9.85688C67.6682 11.8287 69.2498 13.4271 71.2007 13.4271Z" fill="#EF6B7F"/>
<path d="M51.8068 65.3245H47.0331C42.6382 65.3245 39.0771 61.7253 39.0771 57.2834V39.2327C39.0771 34.794 42.6382 31.1915 47.0331 31.1915H51.8068C47.4119 31.1915 43.8507 34.794 43.8507 39.2327V57.2834C43.8507 61.7253 47.4119 65.3245 51.8068 65.3245Z" fill="#F7B5BF"/>
<path d="M45.2956 46.9394L34.1253 42.7226C33.6066 34.0157 26.4588 27.1196 17.7167 27.1196C8.63401 27.1164 1.27304 34.5593 1.27304 43.7358C1.27304 52.9124 8.63401 60.3552 17.7167 60.3552C24.4189 60.3552 30.1823 56.2993 32.7409 50.4872L44.6655 49.979C46.2822 49.8792 46.7405 47.6856 45.2956 46.9394Z" fill="#FDEDEF"/>
<path d="M26.2552 52.5392H9.17508C7.41838 52.5392 5.99265 51.0983 5.99265 49.3228V38.1488C5.99265 36.3733 7.41838 34.9324 9.17508 34.9324H26.2552C28.0119 34.9324 29.4376 36.3733 29.4376 38.1488V49.3228C29.4376 51.1015 28.0119 52.5392 26.2552 52.5392Z" fill="#99DFFF"/>
<path d="M12.9558 34.9902V43.2018L15.3362 41.5582L17.7167 43.2018L20.094 41.5582L22.4744 43.2018V34.9902H12.9558Z" fill="#0AB1FF"/>
<path d="M56.0174 68.6633H45.6458C45.0475 68.6633 44.5606 68.1712 44.5606 67.5665V59.9081C44.5606 56.8107 47.0461 54.2954 50.114 54.2954H51.5524C54.6171 54.2954 57.1058 56.8075 57.1058 59.9081V67.5665C57.1026 68.1744 56.6157 68.6633 56.0174 68.6633Z" fill="#E31837"/>
<path d="M62.5824 39.2327V57.2834C62.5824 61.7253 59.0213 65.3245 54.6263 65.3245H49.8527C54.2476 65.3245 57.8088 61.7253 57.8088 57.2834V39.2327C57.8088 34.794 54.2476 31.1915 49.8527 31.1915H54.6263C59.0213 31.1915 62.5824 34.794 62.5824 39.2327Z" fill="#E31837"/>
<path d="M49.3311 59.9113V67.5697C49.3311 68.1744 49.818 68.6665 50.4163 68.6665H45.6427C45.0444 68.6665 44.5575 68.1744 44.5575 67.5697V59.9113C44.5575 56.8106 47.043 54.2986 50.1108 54.2986H51.5493C52.1317 54.2986 52.6918 54.3886 53.2169 54.5559C50.9637 55.27 49.3311 57.3992 49.3311 59.9113Z" fill="#F7B5BF"/>
<path d="M54.1779 26.7272C54.8176 26.3316 55.384 25.8299 55.8519 25.2412C56.1574 24.8585 56.6188 24.6366 57.1057 24.6044L63.5152 24.1509C65.0204 24.0447 66.1852 22.7807 66.1852 21.2561C66.1852 20.4905 65.8924 19.7958 65.4119 19.2747C64.9282 18.7537 64.2598 18.4127 63.5056 18.3613L57.2808 17.9463C56.7779 17.9109 56.3006 17.6729 55.9983 17.2644C54.8239 15.6723 52.9495 14.6366 50.83 14.6366C48.7105 14.6366 46.836 15.6723 45.6617 17.2644C45.3594 17.6729 44.882 17.9109 44.3792 17.9463L38.1544 18.3613C36.6459 18.4642 35.4747 19.7282 35.4747 21.2561C35.4747 22.0184 35.7643 22.7163 36.2449 23.2342C36.7254 23.7552 37.3906 24.0994 38.1416 24.1509L44.5542 24.6044C45.0411 24.6366 45.5026 24.8585 45.8081 25.2412C46.2759 25.8299 46.8424 26.3316 47.4821 26.7272" stroke="#002A3D" stroke-width="2" stroke-miterlimit="10" stroke-linecap="round" stroke-linejoin="round"/>
<path d="M30.1982 22.7773H24.438C23.6042 22.7773 22.9295 22.0955 22.9295 21.2527V20.8571C22.9295 20.0144 23.6042 19.3325 24.438 19.3325H30.1982C31.032 19.3325 31.7066 20.0144 31.7066 20.8571V21.2527C31.7066 22.0955 31.032 22.7773 30.1982 22.7773Z" stroke="#002A3D" stroke-width="2" stroke-miterlimit="10" stroke-linecap="round" stroke-linejoin="round"/>
<path d="M77.2221 22.7773H71.4619C70.6281 22.7773 69.9534 22.0955 69.9534 21.2527V20.8571C69.9534 20.0144 70.6281 19.3325 71.4619 19.3325H77.2221C78.0559 19.3325 78.7305 20.0144 78.7305 20.8571V21.2527C78.7274 22.0955 78.0527 22.7773 77.2221 22.7773Z" stroke="#002A3D" stroke-width="2" stroke-miterlimit="10" stroke-linecap="round" stroke-linejoin="round"/>
<path d="M54.4613 68.6665V71.497C54.4613 73.2757 53.0355 74.7134 51.2788 74.7134H50.3814C48.6247 74.7134 47.1989 73.2757 47.1989 71.497V68.6665H54.4613Z" stroke="#002A3D" stroke-width="2" stroke-miterlimit="10" stroke-linecap="round" stroke-linejoin="round"/>
<path d="M54.4612 68.6665H56.0174C56.6157 68.6665 57.1026 68.1744 57.1026 67.5697V64.9257V59.9113C57.1026 56.8106 54.6171 54.2986 51.5493 54.2986H50.1108C47.043 54.2986 44.5575 56.8106 44.5575 59.9113V64.9257V67.5697C44.5575 68.1744 45.0444 68.6665 45.6427 68.6665H47.1989" stroke="#002A3D" stroke-width="2" stroke-miterlimit="10" stroke-linecap="round" stroke-linejoin="round"/>
<path d="M39.0771 44.5913V39.2327C39.0771 34.794 42.6382 31.1915 47.0331 31.1915H54.6264C59.0214 31.1915 62.5825 34.794 62.5825 39.2327V57.2834C62.5825 60.8505 60.2848 63.8771 57.1024 64.9257" stroke="#002A3D" stroke-width="2" stroke-miterlimit="10" stroke-linecap="round" stroke-linejoin="round"/>
<path d="M39.0771 50.2169V57.2835C39.0771 60.8505 41.3748 63.8772 44.5572 64.9258" stroke="#002A3D" stroke-width="2" stroke-miterlimit="10" stroke-linecap="round" stroke-linejoin="round"/>
<path d="M54.1778 31.1916V26.7272C53.2008 27.3287 52.0551 27.676 50.8299 27.676C49.6046 27.676 48.4558 27.3287 47.4819 26.7272V31.1916" stroke="#002A3D" stroke-width="2" stroke-miterlimit="10" stroke-linecap="round" stroke-linejoin="round"/>
<path d="M44.9359 38.969H56.7236" stroke="#002A3D" stroke-width="2" stroke-miterlimit="10" stroke-linecap="round" stroke-linejoin="round"/>
<path d="M44.9359 43.2212H56.7236" stroke="#002A3D" stroke-width="2" stroke-miterlimit="10" stroke-linecap="round" stroke-linejoin="round"/>
<path d="M34.052 9.85046H36.2416C36.6998 9.85046 37.1231 10.0981 37.3522 10.5002L39.0898 18.3001" stroke="#002A3D" stroke-width="2" stroke-miterlimit="10" stroke-linecap="round" stroke-linejoin="round"/>
<path d="M30.2938 13.4271C32.2447 13.4271 33.8263 11.8287 33.8263 9.85688C33.8263 7.88508 32.2447 6.28662 30.2938 6.28662C28.3428 6.28662 26.7613 7.88508 26.7613 9.85688C26.7613 11.8287 28.3428 13.4271 30.2938 13.4271Z" stroke="#002A3D" stroke-width="2" stroke-miterlimit="10" stroke-linecap="round" stroke-linejoin="round"/>
<path d="M62.4045 18.3001L64.1421 10.5002C64.3712 10.0981 64.7945 9.85046 65.2528 9.85046H67.4423" stroke="#002A3D" stroke-width="2" stroke-miterlimit="10" stroke-linecap="round" stroke-linejoin="round"/>
<path d="M71.2007 13.4271C73.1517 13.4271 74.7332 11.8287 74.7332 9.85688C74.7332 7.88508 73.1517 6.28662 71.2007 6.28662C69.2498 6.28662 67.6682 7.88508 67.6682 9.85688C67.6682 11.8287 69.2498 13.4271 71.2007 13.4271Z" stroke="#002A3D" stroke-width="2" stroke-miterlimit="10" stroke-linecap="round" stroke-linejoin="round"/>
<path d="M31.7068 21.0565H35.4748" stroke="#002A3D" stroke-width="2" stroke-miterlimit="10" stroke-linecap="round" stroke-linejoin="round"/>
<path d="M66.1406 21.0565H69.9086" stroke="#002A3D" stroke-width="2" stroke-miterlimit="10" stroke-linecap="round" stroke-linejoin="round"/>
<path d="M45.2956 46.9394L34.1253 42.7226C33.6066 34.0157 26.4588 27.1196 17.7167 27.1196C8.63401 27.1164 1.27304 34.5593 1.27304 43.7358C1.27304 52.9124 8.63401 60.3552 17.7167 60.3552C24.4189 60.3552 30.1823 56.2993 32.7409 50.4872L44.6655 49.979C46.2822 49.8792 46.7405 47.6856 45.2956 46.9394Z" stroke="#002A3D" stroke-width="2" stroke-miterlimit="10" stroke-linecap="round" stroke-linejoin="round"/>
<path d="M26.2552 52.5392H9.17508C7.41838 52.5392 5.99265 51.0983 5.99265 49.3228V38.1488C5.99265 36.3733 7.41838 34.9324 9.17508 34.9324H26.2552C28.0119 34.9324 29.4376 36.3733 29.4376 38.1488V49.3228C29.4376 51.1015 28.0119 52.5392 26.2552 52.5392Z" stroke="#002A3D" stroke-width="2" stroke-miterlimit="10"/>
<path d="M22.4744 34.9902V43.2018L20.094 41.5582L17.7167 43.2018L15.3362 41.5582L12.9558 43.2018V34.9902" stroke="#002A3D" stroke-width="2" stroke-miterlimit="10" stroke-linecap="round" stroke-linejoin="round"/>
<path d="M50.8301 23.5975C52.1641 23.5975 53.2455 22.5045 53.2455 21.1563C53.2455 19.808 52.1641 18.715 50.8301 18.715C49.496 18.715 48.4146 19.808 48.4146 21.1563C48.4146 22.5045 49.496 23.5975 50.8301 23.5975Z" stroke="#002A3D" stroke-width="2" stroke-miterlimit="10" stroke-linecap="round" stroke-linejoin="round"/>
</g>
<defs>
<clipPath id="clip0">
<rect width="80" height="80" fill="white"/>
</clipPath>
</defs>
</svg>
