<svg width="25" height="24" viewBox="0 0 25 24" fill="none" xmlns="http://www.w3.org/2000/svg">
<path d="M20.5 12.1835C20.5 11.6398 20.455 11.0931 20.359 10.5581H12.6611V13.6385H17.0694C16.8864 14.632 16.2987 15.5108 15.438 16.0693V18.068H18.068C19.6123 16.6748 20.5 14.6173 20.5 12.1835Z" fill="#F94039"/>
<path d="M12.6612 19.9992C14.8623 19.9992 16.7186 19.2908 18.071 18.068L15.4411 16.0693C14.7094 16.5572 13.7648 16.8335 12.6642 16.8335C10.5351 16.8335 8.72981 15.4256 8.08207 13.5327H5.36816V15.5932C6.75361 18.2944 9.57547 19.9992 12.6612 19.9992Z" fill="#F94039"/>
<path d="M8.07906 13.5329C7.7372 12.5394 7.7372 11.4636 8.07906 10.4701V8.40967H5.36815C4.21062 10.67 4.21062 13.333 5.36815 15.5933L8.07906 13.5329Z" fill="#F94039"/>
<path d="M12.6612 7.16615C13.8248 7.14852 14.9493 7.57765 15.792 8.36538L18.122 6.08156C16.6466 4.7236 14.6884 3.97702 12.6612 4.00054C9.57547 4.00054 6.75361 5.70533 5.36816 8.40947L8.07907 10.4699C8.72381 8.57407 10.5321 7.16615 12.6612 7.16615Z" fill="#F94039"/>
</svg>
