<svg width="25" height="25" viewBox="0 0 25 25" fill="none" xmlns="http://www.w3.org/2000/svg">
<path fill-rule="evenodd" clip-rule="evenodd" d="M3.5 0.677734C1.84315 0.677734 0.5 2.02088 0.5 3.67773V21.6777C0.5 23.3346 1.84315 24.6777 3.5 24.6777H21.5C23.1569 24.6777 24.5 23.3346 24.5 21.6777V3.67773C24.5 2.02088 23.1569 0.677734 21.5 0.677734H3.5ZM4.5 8.64599V4.6778H5.44927L6.42209 6.56989L6.79861 5.84779L7.39676 4.6778H8.34623V8.64599H7.34499V6.80428L7.06953 7.29805L6.75789 7.88001H6.09404L5.51092 6.79945L5.50152 7.65445V8.64599H4.5ZM9.31878 8.64599H12.1755V7.78452H10.3203V7.07675H11.9001V6.21522H10.3203V5.53951H12.1755V4.6778H9.31878V8.64599ZM13.1102 8.64599V4.6778H13.9772L15.3839 6.72157L15.393 5.79456V4.6778H16.3943V8.64599H15.5274L14.1203 6.59737L14.1115 7.5198V8.64599H13.1102ZM17.7997 8.28855C17.9424 8.41127 18.1114 8.50805 18.3019 8.57592C18.4915 8.64347 18.6983 8.67773 18.9169 8.67773C19.1355 8.67773 19.3423 8.64347 19.532 8.57592C19.7224 8.50811 19.8913 8.41133 20.0338 8.28881C20.1776 8.16558 20.2924 8.01461 20.375 7.83989C20.4578 7.66549 20.5 7.46813 20.5 7.25367V4.67773H19.5044V7.22715C19.5044 7.41922 19.4532 7.56265 19.3472 7.66498C19.242 7.76679 19.1012 7.81621 18.9169 7.81621C18.7329 7.81621 18.5935 7.76679 18.4904 7.66549C18.3861 7.56342 18.3354 7.42 18.3354 7.22715V4.67773H17.3339V7.25367C17.3339 7.46813 17.376 7.66549 17.4589 7.83989C17.5414 8.01409 17.656 8.16506 17.7997 8.28855ZM20.5 11.6777H4.5V12.6777H20.5V11.6777ZM4.5 15.6777H20.5V16.6777H4.5V15.6777ZM20.5 19.6777H4.5V20.6777H20.5V19.6777Z" fill="white"/>
</svg>
