<svg width="31" height="25" viewBox="0 0 31 25" fill="none" xmlns="http://www.w3.org/2000/svg">
<path d="M19.3957 4.52832H16.6141C16.199 4.52832 15.8625 4.86485 15.8625 5.27997C15.8625 5.69509 16.199 6.03162 16.6141 6.03162H17.8814L20.5542 12.0967C21.0726 13.2729 20.8126 14.6469 19.9004 15.5525L18.1961 16.9061C17.6655 17.3275 17.0079 17.5569 16.3303 17.5569H14.8435L14.3387 13.047C15.9539 11.0426 15.0117 9.67773 14.3387 9.67773H4.73911C4.18682 9.67773 3.73911 10.1254 3.73911 10.6777V12.5459L1.72453 16.1528C1.57537 16.4199 1.45036 16.7031 1.38904 17.0028C0.899463 19.3953 2.62727 19.6777 3.73911 19.6777H20.6138C21.0819 19.6777 21.4803 19.3489 21.6266 18.9043C22.607 15.9247 24.9616 15.0892 27.2948 15.5525C29.3753 15.9656 29.3976 17.0598 30.006 16.5891C30.3494 16.3234 30.3437 15.8005 30.0484 15.482C28.361 13.6619 25.6724 13.7441 24.4431 14.0492L20.9099 6.03162C22.9289 6.4325 23.4337 5.86459 23.4337 5.53052V3.52393C23.4337 2.97164 22.9861 2.52393 22.4339 2.52393H20.9099C19.6985 2.52393 19.3957 3.86019 19.3957 4.52832Z" fill="white"/>
<circle cx="26.5" cy="20.6777" r="3" stroke="white" stroke-width="2"/>
<rect x="0.5" y="0.677734" width="10" height="8" rx="1" fill="white"/>
<path fill-rule="evenodd" clip-rule="evenodd" d="M3.52759 20.6777C3.77631 22.9277 5.68385 24.6777 8.00012 24.6777C10.3164 24.6777 12.2239 22.9277 12.4727 20.6777H10.4501C10.2185 21.8189 9.2096 22.6777 8.00012 22.6777C6.79064 22.6777 5.78177 21.8189 5.55013 20.6777H3.52759Z" fill="white"/>
</svg>
