<svg width="20" height="20" viewBox="0 0 20 20" fill="none" xmlns="http://www.w3.org/2000/svg">
<path d="M14.9201 6.6105e-05L17.9201 6.59739e-05C18.1986 -0.0010651 18.4743 0.0559837 18.7294 0.167556C18.9846 0.279128 19.2137 0.442767 19.402 0.647988C19.5902 0.85321 19.7336 1.09549 19.8228 1.35932C19.912 1.62314 19.9452 1.90269 19.9201 2.18007C19.5857 5.25723 18.5342 8.21307 16.8501 10.8101C15.3148 13.2262 13.2663 15.2747 10.8501 16.8101C8.2413 18.5001 5.27109 19.5518 2.1801 19.8801C1.90356 19.9051 1.62486 19.8722 1.36172 19.7836C1.09859 19.6949 0.856786 19.5525 0.651718 19.3653C0.44665 19.1781 0.282806 18.9503 0.170619 18.6963C0.0584315 18.4423 0.000358356 18.1677 9.6865e-05 17.8901L9.67339e-05 14.8901C-0.00467973 14.4048 0.167175 13.9343 0.483629 13.5663C0.800083 13.1983 1.23954 12.958 1.7201 12.8901C2.68016 12.7634 3.62282 12.5286 4.5301 12.1901C4.88802 12.0555 5.27701 12.0264 5.65098 12.1062C6.02494 12.1859 6.36821 12.3712 6.6401 12.6401L7.9101 13.9101C10.4136 12.4865 12.4865 10.4136 13.9101 7.91007L12.6401 6.64007C12.3712 6.36818 12.1859 6.02491 12.1062 5.65095C12.0264 5.27698 12.0556 4.88799 12.1901 4.53007C12.5286 3.62279 12.7635 2.68013 12.8901 1.72007C12.9586 1.2343 13.2033 0.790664 13.5776 0.473533C13.9519 0.156402 14.4297 -0.0121028 14.9201 6.6105e-05Z" fill="white"/>
</svg>
