<svg width="17" height="25" viewBox="0 0 17 25" fill="none" xmlns="http://www.w3.org/2000/svg">
<path d="M14.0119 17.5563C13.7384 17.0528 13.0985 16.8817 12.6102 17.1814L10.9532 18.1982C10.4648 18.4978 9.82493 18.3267 9.55141 17.8232L4.52479 8.56964C4.27095 8.10235 4.42724 7.51812 4.8805 7.23998L6.71757 6.11269C7.17083 5.83456 7.32712 5.25033 7.07328 4.78303L5.03797 1.03622C4.76445 0.532707 4.12462 0.36154 3.63623 0.661231L1.42779 2.01641C1.20526 2.15296 1.0435 2.37198 0.985057 2.62643C-1.1549 11.9432 3.97629 21.415 12.6241 24.13C12.8912 24.2138 13.1817 24.1729 13.4204 24.0265L15.6915 22.6328C16.1448 22.3547 16.3011 21.7705 16.0472 21.3032L14.0119 17.5563Z" fill="white"/>
</svg>
