<svg width="40" height="40" viewBox="0 0 40 40" fill="none" xmlns="http://www.w3.org/2000/svg">
<path d="M39 20C39 22.4951 38.5085 24.9658 37.5537 27.271C36.5989 29.5761 35.1994 31.6707 33.435 33.435L20 20H39Z" fill="#F4EFE1"/>
<path d="M33.435 33.435C31.6707 35.1993 29.5762 36.5989 27.271 37.5537C24.9658 38.5085 22.4952 39 20 39L20 20L33.435 33.435Z" fill="#F4EFE1"/>
<path d="M20 39C17.5049 39 15.0343 38.5085 12.7291 37.5536C10.4239 36.5988 8.32935 35.1993 6.56504 33.435L20 20L20 39Z" fill="#F4EFE1"/>
<path d="M6.56504 33.435C4.80073 31.6707 3.40112 29.5761 2.44628 27.2709C1.49145 24.9658 1 22.4951 1 20L20 20L6.56504 33.435Z" fill="#F4EFE1"/>
<path d="M1 20C1 17.5049 1.49154 15.0342 2.44637 12.729C3.40121 10.4239 4.80074 8.32933 6.56505 6.56503L20 20L1 20Z" fill="#F4EFE1"/>
<path d="M6.56505 6.56503C8.32936 4.80072 10.4239 3.40112 12.7291 2.44628C15.0343 1.49145 17.5049 1 20.0001 1L20 20L6.56505 6.56503Z" fill="#F4EFE1"/>
<path d="M20.0001 1C22.4952 1 24.9658 1.49107 27.271 2.44591C29.5762 3.40074 31.6707 4.80027 33.435 6.56457L20 20L20.0001 1Z" fill="#F4EFE1"/>
<path d="M33.435 6.56457C35.1994 8.32888 36.599 10.4236 37.5538 12.7288C38.5086 15.034 39 17.5049 39 20H20L33.435 6.56457Z" fill="#F4EFE1"/>
<path d="M39 20C39 22.4951 38.5086 24.9658 37.5537 27.271C36.5989 29.5761 35.1994 31.6707 33.435 33.435M39 20H20M39 20C39 17.5049 38.5086 15.034 37.5538 12.7288C36.599 10.4236 35.1994 8.32888 33.435 6.56457M33.435 33.435L20 20M33.435 33.435C31.6707 35.1993 29.5762 36.5989 27.271 37.5537C24.9658 38.5086 22.4952 39 20 39M20 20L20 39M20 20L6.56504 33.435M20 20L1 20M20 20L6.56505 6.56503M20 20L20.0001 1M20 20L33.435 6.56457M20 39C17.5049 39 15.0343 38.5085 12.7291 37.5536C10.4239 36.5988 8.32935 35.1993 6.56504 33.435M6.56504 33.435C4.80073 31.6707 3.40112 29.5761 2.44628 27.2709C1.49145 24.9658 1 22.4951 1 20M1 20C1 17.5049 1.49154 15.0342 2.44637 12.729C3.40121 10.4239 4.80074 8.32933 6.56505 6.56503M6.56505 6.56503C8.32936 4.80072 10.4239 3.40112 12.7291 2.44628C15.0343 1.49145 17.5049 1 20.0001 1M20.0001 1C22.4952 1 24.9658 1.49107 27.271 2.44591C29.5762 3.40074 31.6707 4.80027 33.435 6.56457" stroke="#D9C38E"/>
</svg>
