<svg width="25" height="25" viewBox="0 0 25 25" fill="none" xmlns="http://www.w3.org/2000/svg">
<g clip-path="url(#clip0_2642_5658)">
<path d="M23.6533 14.4233L22.7765 13.0759C22.6189 12.8342 22.6189 12.5216 22.7765 12.2793L23.6537 10.9314C24.4522 9.70204 23.9118 8.05528 22.5491 7.5345L21.0483 6.95949C20.7785 6.85618 20.5944 6.60306 20.5796 6.31487L20.497 4.70979C20.4222 3.25034 19.0215 2.23082 17.6065 2.60947L16.0546 3.02689C15.7767 3.10161 15.4778 3.00547 15.2968 2.78085L14.2861 1.5307C13.3662 0.392344 11.6303 0.394219 10.7133 1.53149L9.70254 2.78094C9.52151 3.00561 9.22315 3.10222 8.94523 3.02698L7.3934 2.60985C5.98219 2.22974 4.57735 3.24856 4.5024 4.70988L4.41981 6.31525C4.40504 6.60339 4.22143 6.85632 3.95167 6.95959L2.45083 7.53413C1.08645 8.0566 0.547812 9.7041 1.34674 10.9325L2.22283 12.2788C2.38043 12.5211 2.38043 12.8342 2.22335 13.0759L1.34674 14.4233C0.548187 15.649 1.08561 17.2995 2.45083 17.8212L3.95167 18.3959C4.22143 18.4994 4.40504 18.7524 4.41981 19.0406L4.5024 20.6459C4.57721 22.1051 5.97905 23.1253 7.3934 22.746L8.94523 22.3283C9.22268 22.2538 9.52048 22.3497 9.70306 22.5752L10.7133 23.8246C11.6313 24.9607 13.3645 24.9636 14.2867 23.8251L15.2969 22.5752C15.479 22.3498 15.7763 22.2543 16.0542 22.3283L17.6075 22.7465C19.0162 23.1241 20.422 22.1093 20.497 20.6459L20.5796 19.041C20.5944 18.7524 20.7785 18.4994 21.0483 18.3959L22.5491 17.8217C23.9131 17.2994 24.4522 15.6517 23.6533 14.4233ZM9.33176 8.45662C10.1957 8.45662 10.8984 9.15937 10.8984 10.0232C10.8984 10.8871 10.1956 11.5898 9.33176 11.5898C8.46786 11.5898 7.76516 10.8871 7.76516 10.0232C7.76516 9.15937 8.46791 8.45662 9.33176 8.45662ZM15.076 17.3341C14.2121 17.3341 13.5094 16.6314 13.5094 15.7675C13.5094 14.9036 14.2122 14.2009 15.076 14.2009C15.9399 14.2009 16.6426 14.9037 16.6426 15.7675C16.6427 16.6314 15.9399 17.3341 15.076 17.3341ZM16.4132 9.79377L9.10231 17.1046C8.79631 17.4106 8.30066 17.4106 7.99466 17.1046C7.68871 16.7987 7.68871 16.3029 7.99466 15.997L15.3055 8.68612C15.6115 8.38017 16.1072 8.38017 16.4132 8.68612C16.7192 8.99207 16.7192 9.48777 16.4132 9.79377Z" fill="white"/>
</g>
<defs>
<clipPath id="clip0_2642_5658">
<rect width="24" height="24" fill="white" transform="translate(0.5 0.677734)"/>
</clipPath>
</defs>
</svg>
