<svg width="25" height="25" viewBox="0 0 25 25" fill="none" xmlns="http://www.w3.org/2000/svg">
<path d="M14.4953 7.06894H12.089C11.7299 7.06894 11.4387 7.36007 11.4387 7.71919C11.4387 8.07831 11.7299 8.36943 12.089 8.36943H13.1853L15.6923 14.0582C16.0347 14.8353 15.9575 15.7332 15.4875 16.4404C15.1795 16.9039 14.76 17.2825 14.2674 17.5414L13.3523 18.0225C12.9558 18.2309 12.5146 18.3398 12.0668 18.3398H11.4223L10.9856 14.4384C12.3829 12.7044 11.5678 11.5237 10.9856 11.5237H2.81601C2.26372 11.5237 1.81601 11.9714 1.81601 12.5237V14.0049L0.311573 17.4728C-0.387067 19.9004 0.797157 20.1746 1.81601 20.1746H15.441C15.9091 20.1746 16.3059 19.8456 16.4597 19.4035C17.3276 16.9088 19.3372 16.2104 21.3287 16.6059C23.032 16.9441 23.1407 17.81 23.5935 17.5568C23.9725 17.3448 23.9463 16.7846 23.6431 16.4737C22.1801 14.9726 19.9089 15.0455 18.8618 15.3054L15.8052 8.36943C17.5518 8.71623 17.9885 8.22493 17.9885 7.93594V6.33496C17.9885 5.78268 17.541 5.33496 16.9887 5.33496H15.8052C14.7573 5.33496 14.4953 6.49095 14.4953 7.06894Z" fill="#00B2A9"/>
<circle cx="20.64" cy="21.0397" r="2.46036" stroke="#00B2A9" stroke-width="2"/>
<rect x="0.742188" y="3.73779" width="6.92072" height="6.92072" rx="1" fill="#00B2A9"/>
<path fill-rule="evenodd" clip-rule="evenodd" d="M1.60938 21.0396C1.60938 21.0396 1.60938 21.0396 1.60938 21.0396C1.60938 22.9507 3.15863 24.5 5.06974 24.5C6.98084 24.5 8.5301 22.9507 8.5301 21.0396C8.5301 21.0396 8.5301 21.0396 8.5301 21.0396H6.5301C6.5301 21.0396 6.5301 21.0396 6.5301 21.0396C6.5301 21.8461 5.87627 22.5 5.06974 22.5C4.2632 22.5 3.60938 21.8461 3.60938 21.0396C3.60938 21.0396 3.60938 21.0396 3.60938 21.0396H1.60938Z" fill="#00B2A9"/>
</svg>
