<svg width="20" height="20" viewBox="0 0 20 20" fill="none" xmlns="http://www.w3.org/2000/svg">
<path d="M16.6 17.5H19V19.5H13V13.5H15V16.23C16.83 14.76 18 12.52 18 10C18 5.93005 14.94 2.56005 11 2.07005V0.0500488C16.05 0.550049 20 4.81005 20 10C20 12.99 18.68 15.67 16.6 17.5ZM2 10C2 7.48005 3.17 5.23005 5 3.77005V6.50005H7V0.500049H1V2.50005H3.4C1.32 4.33005 0 7.01005 0 10C0 15.19 3.95 19.4501 9 19.9501V17.93C5.06 17.4401 2 14.07 2 10ZM14.24 6.11005L8.58 11.77L5.75 8.94005L4.34 10.35L8.58 14.59L15.65 7.52005L14.24 6.11005Z" fill="#333333"/>
</svg>
