<svg width="82" height="60" viewBox="0 0 82 60" fill="none" xmlns="http://www.w3.org/2000/svg">
<path d="M37.9983 16.6472C38.06 15.9992 41.1914 11.4462 41.4401 10.8544C41.6146 10.2232 40.8151 9.66347 39.4505 10.3141C38.7482 10.7702 36.0676 14.7625 35.6002 15.689C34.9968 16.8871 34.8133 18.222 34.9904 19.5653C35.0518 20.0308 35.1839 20.4977 35.3164 20.966L35.3176 20.9704C35.5695 21.8604 35.8231 22.7563 35.5997 23.6611C35.3469 24.6848 34.5502 25.1864 33.7428 25.6946C33.2495 26.0052 32.7524 26.3182 32.3726 26.7542C31.1317 28.1798 31.0217 29.9916 30.911 31.8146C30.8419 32.9529 30.7725 34.096 30.4274 35.1531C30.2353 35.7409 29.945 36.2903 29.6553 36.8385C29.3513 37.4115 28.7343 38.7138 28.6987 39.3389C28.619 39.9634 28.6433 40.664 28.7876 41.2787L28.7936 41.3048C29.0418 44.5144 30.3051 42.3474 30.6273 41.4224L30.6354 41.3991C30.9309 40.5463 31.2265 39.6939 31.62 38.8868C31.8401 38.4336 32.0825 38.0005 32.3238 37.5695L32.3281 37.5619C32.7932 36.7315 33.254 35.9084 33.5452 34.9639C33.9691 33.592 33.9712 32.3049 33.9181 30.8819C33.8585 29.2803 34.8171 28.6232 36.0067 27.8081L36.062 27.7701C38.5643 26.0577 39.2845 23.809 38.5498 20.7908L38.508 20.6189C38.1921 19.3213 37.8681 17.99 37.9983 16.6472Z" fill="#BDBDBD"/>
<path d="M12.2802 0.88033C11.8624 2.43003 11.4217 2.98352 11.2711 3.26409C11.0991 3.58444 10.8209 3.79354 10.5034 3.95516C10.0613 4.18001 9.59241 4.29804 9.09809 4.32184C9.03924 4.32448 8.99912 4.31253 8.97399 4.2491C8.93153 4.14255 8.85701 4.12128 8.75714 4.17964C8.64778 4.2432 8.57445 4.34117 8.52646 4.45447L8.51447 4.48269C8.4405 4.65682 8.36625 4.83161 8.30943 5.01157L8.30811 5.0157C8.20336 5.34815 8.09809 5.68225 8.10787 6.03804C8.11547 6.31532 8.02901 6.57615 7.96967 6.84128C7.91922 7.06655 7.86019 7.29032 7.79346 7.51128C7.75807 7.62936 7.67965 7.73578 7.65301 7.85477C7.6063 8.06272 7.58145 8.27579 7.55392 8.48754C7.54355 8.56736 7.59534 8.62318 7.65605 8.67005C7.72503 8.72323 7.78825 8.78453 7.86021 8.83308C7.91661 8.87018 7.9775 8.89985 8.0414 8.92139C8.16321 8.96385 8.26855 9.02479 8.3511 9.12823C8.42005 9.21298 8.4941 9.29342 8.57282 9.36908C8.80212 9.59324 8.95908 9.86777 9.11337 10.1442C9.13355 10.1804 9.15128 10.2178 9.17122 10.2541C9.32831 10.5414 9.38202 10.8467 9.3436 11.1728C9.32507 11.6966 8.97039 12.1481 8.79537 12.3084C8.71862 12.3742 8.65462 12.4548 8.58476 12.5286C8.51819 12.5989 8.45859 12.6786 8.38277 12.7368C8.24396 12.843 8.09883 12.9415 7.95044 13.0336C7.87132 13.0832 7.77946 13.1126 7.69321 13.1512C7.58514 13.1997 7.46781 13.2343 7.37107 13.2995C7.16725 13.4371 6.94676 13.4525 6.71524 13.4276C6.57071 13.4121 6.42619 13.3956 6.28178 13.3797C6.20233 13.3708 6.15214 13.404 6.11222 13.4757C6.02031 13.6413 5.97399 13.8208 5.95575 14.0052C5.91076 14.4585 5.79509 14.8963 5.69352 15.3383C5.55963 15.9203 5.44854 16.5067 5.32633 17.0915L5.32183 17.113C5.29897 17.2228 5.27609 17.3327 5.24469 17.4401C5.1612 17.7257 5.2186 17.8303 5.48879 17.9829C5.57732 18.0329 5.67525 18.0657 5.76578 18.1125C6.11731 18.2943 6.45786 18.4933 6.74649 18.7697C6.94955 18.9642 7.17314 19.1384 7.33487 19.3738C7.43983 19.5264 7.51658 19.6864 7.55862 19.8721C7.57263 19.8871 7.53833 20.0301 7.28901 20.4821C7.14772 20.7677 7.01375 21.0573 6.86309 21.3379C6.69115 21.6582 6.41291 21.8673 6.09542 22.0289C5.65331 22.2538 5.18442 22.3718 4.69009 22.3956C4.63125 22.3983 4.59113 22.3863 4.566 22.3229C4.52354 22.2163 4.44902 22.1951 4.34914 22.2534C4.23979 22.317 4.16646 22.415 4.11846 22.5283L4.10633 22.5568C4.03241 22.7308 3.95823 22.9055 3.90144 23.0854L3.90012 23.0895C3.79537 23.422 3.6901 23.756 3.69987 24.1118C3.70747 24.3891 3.62102 24.6499 3.56167 24.9151C3.51122 25.1403 3.4522 25.3641 3.38547 25.5851C3.35007 25.7032 3.27166 25.8096 3.24502 25.9286C3.19831 26.1365 3.17345 26.3496 3.14592 26.5613C3.13555 26.6411 3.18735 26.697 3.24806 26.7438C3.31704 26.797 3.38026 26.8583 3.45222 26.9069C3.50861 26.944 3.5695 26.9736 3.63341 26.9952C3.75522 27.0376 3.86055 27.0986 3.94311 27.202C4.01206 27.2868 4.0861 27.3672 4.16483 27.4429C4.39413 27.667 4.55108 27.9416 4.70538 28.218C4.72556 28.2542 4.74331 28.2916 4.76326 28.3278C4.92035 28.6151 4.97405 28.9204 4.93564 29.2465C4.91008 29.5757 4.82632 29.8528 4.78764 29.9502C4.64694 30.2466 4.43937 30.476 4.15394 30.6348C4.11783 30.6547 4.08295 30.6768 4.04665 30.6966C3.76935 30.8477 3.49084 30.9957 3.17788 31.0623C3.07111 31.0841 2.96576 31.1124 2.86243 31.1471C2.73768 31.1903 2.61625 31.1854 2.49068 31.156C2.4252 31.1399 2.35797 31.1324 2.29058 31.1335C2.20394 31.136 2.11788 31.1539 2.0313 31.1619C1.95507 31.169 1.88162 31.1884 1.848 31.2615C1.75883 31.4553 1.66669 31.6489 1.59576 31.8498C1.5551 31.9647 1.56491 32.0967 1.53214 32.2156C1.47122 32.4382 1.4023 32.6591 1.32533 32.8767C1.23472 33.1327 1.16929 33.3997 1.0156 33.6301C0.81839 33.9257 0.730044 34.2647 0.64208 34.602L0.640982 34.6062C0.593458 34.7889 0.563421 34.9765 0.533497 35.1635L0.528655 35.1937C0.509074 35.3153 0.519053 35.4375 0.577781 35.5499C0.631256 35.6528 0.705572 35.6747 0.79807 35.6074C0.853007 35.5672 0.893279 35.5786 0.941646 35.6124C1.34706 35.8976 1.68094 36.2489 1.93541 36.6761C2.11808 36.983 3.42073 37.1807 3.61539 38.9489C3.8353 39.7621 4.19407 39.2771 4.34596 38.933C4.51224 38.5631 4.59295 38.1747 4.59936 37.7694C4.60277 37.5591 4.55365 37.3632 4.43095 37.1901L4.41057 37.1614C4.3314 37.0502 4.25188 36.9384 4.1657 36.8325C3.91448 36.5233 3.62746 36.2585 3.25518 36.099C3.18739 36.0698 3.1306 36.0159 3.06673 35.9767C2.99309 35.9315 2.91796 35.8888 2.8429 35.8461L2.82446 35.8356C2.789 35.8154 2.74766 35.8032 2.71711 35.7776C2.68933 35.7543 2.67674 35.7141 2.72801 35.6999C2.80833 35.6781 2.82999 35.6156 2.84067 35.546C2.90929 35.1004 3.05791 34.6829 3.27731 34.2897C3.38436 34.0981 3.46508 33.8928 3.51728 33.6794C3.57479 33.4453 3.64857 33.2156 3.71167 32.9826C3.73936 32.8843 3.76083 32.7842 3.776 32.6831C3.80815 32.4529 3.78994 32.2184 3.72256 31.996C3.71389 31.9671 3.72649 31.9316 3.72977 31.8993C3.76094 31.9044 3.7948 31.9035 3.82298 31.9158C3.98231 31.9851 4.14522 32.0405 4.3211 32.0334C4.47805 32.0272 4.63448 32.0097 4.79147 32.001C5.21842 31.9779 5.6367 31.8708 6.02259 31.6858C6.33724 31.5362 6.58234 31.3125 6.77743 31.0284C6.93999 30.7932 7.24687 30.1504 7.17395 29.4609C7.15988 29.116 7.07136 28.7954 6.88471 28.5002C6.65663 28.1368 6.35979 27.8219 6.01099 27.5734C5.88284 27.4819 5.75984 27.3832 5.6304 27.2938C5.48541 27.1935 5.31819 27.153 5.14664 27.1262C5.1163 27.1214 5.08814 27.1025 5.05903 27.0902C5.07343 27.0611 5.08159 27.0243 5.10427 27.0045C5.27936 26.8526 5.41934 26.664 5.51441 26.4521C5.55528 26.3584 5.59023 26.2623 5.61905 26.1643C5.6894 25.9334 5.74905 25.6996 5.82471 25.4708C5.89389 25.2623 5.93467 25.0454 5.9459 24.8259C5.96914 24.3758 6.06519 23.9429 6.24383 23.5292C6.27175 23.4647 6.28659 23.4003 6.23026 23.3387C6.19445 23.2992 6.22646 23.2719 6.2623 23.2672C6.30174 23.2619 6.34322 23.2737 6.38392 23.2756L6.40517 23.2767C6.4913 23.2808 6.57749 23.285 6.66372 23.2862C6.73857 23.2873 6.81524 23.2722 6.88804 23.2839C7.28758 23.3486 7.67094 23.2786 8.04759 23.1518C8.17666 23.1085 8.30321 23.0566 8.42919 23.005L8.46188 22.9916C8.65756 22.911 8.80316 22.7716 8.91197 22.5919C9.85692 21.5068 9.9093 20.5899 9.81737 20.2671C9.72795 19.7481 9.44084 19.3498 9.05149 19.0177C8.77959 18.786 8.4985 18.5675 8.172 18.4137C8.08175 18.3712 8.01078 18.2895 7.92527 18.2349C7.79918 18.1543 7.66824 18.0815 7.53883 18.0062C7.51382 17.9917 7.48516 17.9835 7.4595 17.9699C7.33016 17.8992 7.29474 17.8283 7.32546 17.6822L7.33292 17.6468C7.36591 17.4896 7.39897 17.332 7.44317 17.1785C7.67771 16.3659 7.85728 15.5423 7.94644 14.7004C7.95345 14.6425 7.96548 14.5853 7.98236 14.5294C8.02712 14.3722 8.12782 14.296 8.29167 14.2971C8.38601 14.2978 8.48202 14.3199 8.57409 14.3077C8.756 14.2837 8.94009 14.2577 9.11551 14.2058C9.70745 14.0308 10.2636 13.7746 10.7886 13.4474C11.1122 13.2456 11.3218 12.9652 11.4388 12.6072C11.4607 12.5402 11.4807 12.4725 11.4994 12.4045C11.5947 12.0583 11.5941 11.582 11.5819 11.3872C11.5678 11.0422 11.4794 10.7216 11.2927 10.4264C11.0646 10.063 10.7678 9.74812 10.419 9.49964C10.2908 9.40811 10.1678 9.30943 10.0384 9.22003C9.8934 9.11974 9.72618 9.07924 9.55463 9.05241C9.52429 9.04767 9.49613 9.02874 9.46702 9.0164C9.48142 8.98728 9.48958 8.95054 9.51226 8.93076C9.68735 8.77879 9.82733 8.59024 9.92241 8.37829C9.96327 8.28465 9.99822 8.18852 10.027 8.09047C10.0974 7.85963 10.157 7.62577 10.2327 7.397C10.3019 7.18853 10.3427 6.97161 10.3539 6.75214C10.3771 6.302 10.4732 5.86915 10.6518 5.45546C10.6797 5.39088 10.6946 5.32648 10.6383 5.26493C10.6024 5.22541 10.6344 5.19816 10.6703 5.1934C10.7097 5.18812 10.7512 5.19992 10.7919 5.20186L10.8131 5.20288C10.8993 5.20702 10.9855 5.21116 11.0717 5.21246C11.1466 5.21354 11.2232 5.1984 11.296 5.21013C11.6956 5.27486 12.0789 5.20478 12.4556 5.07803C12.5847 5.03467 12.7112 4.9828 12.8372 4.93116L12.8699 4.9178C13.0656 4.83723 13.2112 4.69786 13.32 4.51816C13.5298 4.17196 13.6678 3.80019 13.7236 3.39823C13.7376 3.29687 13.7571 3.27863 13.8586 3.3046C14.2715 3.4101 14.69 3.49934 15.0939 3.6325L16.9389 4.29905C21.0177 5.64432 25.1421 6.81445 29.3071 7.85047C31.9884 8.51734 34.6635 9.20961 37.3394 9.89834C38.0316 10.0765 38.724 10.2544 39.4164 10.4316C39.8044 10.5309 40.1924 10.6299 40.5805 10.7287C43.6442 11.508 46.7175 12.2499 49.7745 13.0581C52.2029 13.7017 54.6104 14.4269 57.0283 15.1106C58.9841 15.6636 60.9453 16.1972 62.8971 16.7622C64.4249 17.2044 65.9404 17.6829 67.4643 18.1423C68.9492 18.5892 64.1978 16.8708 65.6827 17.3168C65.7877 17.343 65.888 17.3855 65.98 17.4428C66.4242 17.7535 66.9233 17.9761 67.4506 18.0987C67.7236 18.2892 68.6046 18.5095 69.945 17.8666C71.6205 17.0629 70.8692 18.3282 75.1067 18.6058C78.4967 18.828 79.4226 20.1486 79.4619 20.7812C78.9694 22.9851 78.4732 25.1882 77.9732 27.3906C77.7884 28.2076 77.6337 29.0341 77.3946 29.8348C77.2194 30.417 76.9368 30.9683 76.6821 31.5239C75.8122 33.42 75.2817 35.4107 74.9286 37.4652C74.6952 38.8239 74.3373 40.163 74.0339 41.5082C73.4293 44.1818 72.8477 46.8606 72.204 49.525C71.9874 50.4212 71.6309 51.2864 71.3048 52.1529C70.922 53.1571 70.6425 54.1979 70.4708 55.2592C69.7824 55.309 67.7523 55.2486 65.1393 54.6079C61.8729 53.807 69.272 55.6301 66.1316 54.5858C65.2879 54.2931 64.4551 53.9614 63.5986 53.7123C62.4039 53.3654 61.1895 53.0855 59.9867 52.7654C59.1428 52.5409 58.3157 52.2353 57.461 52.077C56.4131 51.8811 55.3426 51.8055 54.2824 51.675C53.874 51.6245 53.4669 51.5667 53.0574 51.511C52.4069 51.4228 51.7588 51.29 51.1054 51.2556C49.7873 51.1854 48.5353 50.8249 47.2679 50.5166C46.4678 50.3223 45.6557 50.1675 44.8686 49.9292C44.1942 49.7252 43.5564 49.4001 42.886 49.1785C41.89 48.8495 40.8818 48.5555 39.8747 48.2621C36.7762 47.3587 33.6722 46.4741 30.5764 45.5577C29.1041 45.1203 27.5992 44.8581 26.097 44.5639C23.6614 44.0877 21.2382 43.5478 18.8076 43.0455C17.4532 42.7657 16.0849 42.5491 14.7412 42.2261C13.6572 41.9654 12.6066 41.5572 11.5282 41.2712C10.4286 40.9762 9.34731 40.6162 8.28987 40.1932C7.61246 39.9245 6.87294 39.8069 6.15498 39.6542C5.85077 39.6227 5.79772 39.8436 5.75897 39.9219C5.57296 40.2979 6.55861 40.7522 7.07468 40.9324C8.19383 41.534 9.39852 41.8872 10.5943 42.2773C11.5836 42.6001 12.5531 42.9913 13.5557 43.2693C14.7371 43.596 15.9442 43.8283 17.1382 44.1098C19.3269 44.625 21.5147 45.1441 23.7018 45.6669C24.513 45.8602 25.3341 46.0232 26.1287 46.2708C26.7065 46.4523 27.2525 46.7414 27.803 47.0024C29.6818 47.894 31.658 48.4455 33.6992 48.8193C35.0492 49.0664 36.3785 49.4384 37.7144 49.7557C40.3695 50.3879 43.0299 50.9971 45.6754 51.6686C46.5652 51.8945 47.4229 52.2607 48.2822 52.5964C49.278 52.9904 50.3112 53.2808 51.3657 53.4632C52.3883 53.6357 53.3897 53.9379 54.398 54.1922C57.9766 55.0953 61.5495 56.0241 65.1365 56.8926C66.0655 57.1175 68.8266 58.6342 69.7826 58.7047C70.643 58.5954 68.3036 58.3839 69.9958 59.2292L70.0727 59.2676C71.3909 59.9261 72.3978 58.5103 72.2772 58.1732C72.3237 57.7624 72.3775 57.3528 72.4292 56.9408C72.5109 56.2864 72.6371 55.634 72.6652 54.9772C72.7229 53.6521 73.07 52.3908 73.3652 51.1144C73.551 50.3088 73.6976 49.4913 73.9274 48.6982C74.1242 48.0187 74.4418 47.3748 74.6562 46.6992C74.9744 45.6954 75.2576 44.6797 75.5403 43.665C76.4106 40.5433 77.2621 37.4162 78.1455 34.2972C78.5671 32.8138 78.8142 31.2992 79.0929 29.7872C79.5444 27.3355 80.0592 24.8957 80.5366 22.4488C80.8024 21.0854 81.0052 19.7084 81.3143 18.3553C81.5071 17.7967 81.6903 16.6958 80.8807 16.7602C79.8686 16.8409 83.0994 16.8172 75.6209 16.4133C75.4945 16.3963 75.3665 16.3953 75.2399 16.4102C74.4451 16.5476 73.7232 16.3133 73.0205 15.9815C72.1734 15.5818 71.2641 15.3999 70.3513 15.2846C68.8741 15.0984 67.4474 14.7092 66.0135 14.3401C65.3607 14.1718 64.6857 14.1009 64.0251 13.9529C63.6072 13.8533 63.1958 13.7279 62.7931 13.5776C62.2018 13.366 61.6223 13.1219 61.0315 12.9082C60.8459 12.844 60.6519 12.8072 60.4558 12.799C59.4827 12.7499 58.5247 12.6251 57.5789 12.3736C57.2902 12.2972 56.9605 12.3281 56.6567 12.3669C56.4073 12.3995 56.1652 12.41 55.9964 12.2242C55.5895 11.7688 55.0379 11.6098 54.4913 11.4673C53.5822 11.2303 52.6528 11.0665 51.7437 10.8276C50.9184 10.61 50.1121 10.3351 49.2973 10.0858C49.1474 10.0399 48.9985 9.96646 48.8474 9.95789C48.3292 9.92344 47.8193 9.8092 47.3356 9.61919C47.0925 9.52585 46.8708 9.5742 46.628 9.67844C46.4241 9.76406 46.1988 9.78408 45.9829 9.73573C45.1754 9.52199 44.3779 9.27608 43.58 9.03002L43.5283 9.0141C43.3231 8.95088 43.1367 8.82597 42.9322 8.76313C42.6167 8.66823 42.295 8.55762 41.9707 8.53791C41.6287 8.51728 41.3737 8.36886 41.1263 8.17037C40.7255 7.84898 40.2925 7.71884 39.7635 7.73394C39.3716 7.74545 38.9193 7.64871 38.5884 7.44455C36.8699 6.38543 34.927 6.06261 33.0123 5.64527C32.1792 5.46311 31.3266 5.36477 30.4953 5.16948C29.7424 4.99413 29.014 4.72575 28.2662 4.53146C27.7736 4.40478 27.2737 4.309 26.7693 4.24465C24.9567 4.00934 23.1616 3.68872 21.4292 3.09151C20.4274 2.74597 19.4537 2.31904 18.457 1.95644C18.1491 1.84429 17.8099 1.81334 17.4818 1.76458C16.823 1.66668 16.1618 1.58395 15.5021 1.4898C15.4153 1.47682 15.316 1.4558 15.2563 1.40116C15.0768 1.2613 14.6132 0.996336 14.1952 1.05534C13.6726 1.12911 13.9184 0.902089 13.5164 0.855303C13.4949 0.852111 13.4704 0.846931 13.4557 0.833443C13.3654 0.750667 13.2597 0.747119 13.1441 0.74813C13.0689 0.748816 12.9931 0.704581 12.9178 0.681324C12.7954 0.643313 12.6747 0.599789 12.5506 0.568682C12.4576 0.545374 12.4251 0.567863 12.3826 0.653959C12.3643 0.69105 12.3472 0.728785 12.3301 0.766521C12.3131 0.804257 12.2968 0.842364 12.2802 0.88033Z" fill="#BDBDBD"/>
<path fill-rule="evenodd" clip-rule="evenodd" d="M24.643 13.2038C28.7387 14.7122 31.2102 20.0971 29.8201 25.7466C28.4013 31.4867 24.249 34.5555 20.3462 34.0078C19.5048 33.8389 17.8797 33.3196 17.1574 33.0889C16.6157 32.9158 16.1643 32.7715 15.68 32.417C14.9022 31.8796 13.5088 30.0712 12.9093 29.2342C11.801 27.0819 11.2834 24.3192 11.9312 21.3296C12.4068 18.8842 13.6949 16.6985 15.2622 15.2014C15.9593 14.45 16.7973 13.8874 17.1291 13.7001C17.9908 13.1762 18.9757 12.8915 19.9934 12.8171C20.7115 12.7468 23.0465 12.5938 24.643 13.2038ZM20.5634 32.3789C16.8699 31.7983 14.5012 27.3453 15.2718 22.3969C16.0424 17.4485 19.7104 14.0253 23.4039 14.606C27.0974 15.1868 29.466 19.6397 28.6955 24.5881C27.8346 29.5076 24.2568 32.9597 20.5634 32.3789Z" fill="#BDBDBD"/>
<path d="M23.2047 19.1775C22.878 19.2146 22.2748 19.2208 21.863 18.9781C21.3973 18.7036 21.0487 18.2061 21.2294 17.4965C21.3927 16.855 21.9423 16.6755 22.3664 16.8595C22.7456 17.0241 22.8167 17.4811 22.8167 17.4811C22.8167 17.4811 23.1025 17.1013 23.5693 17.2151C24.0756 17.3386 24.2908 17.8281 24.3723 18.0968L26.1296 17.8576L25.512 18.751L26.3632 18.9919L25.4312 19.7278C25.6896 19.9547 25.785 20.3105 25.6164 20.6171C25.5311 20.7723 25.3855 20.8389 25.2627 20.8669C25.4776 21.542 26.0392 23.3563 26.2888 24.6348C26.9159 27.8448 24.4797 29.441 22.6513 29.5768L22.403 30.4195L21.47 30.2826L21.4716 29.4742C21.3001 29.4349 21.1305 29.3857 20.9652 29.3266C19.9285 28.9554 19.0304 28.1881 18.7112 27.3826C18.4605 26.7495 18.362 25.9841 18.575 25.087C18.6123 24.9279 18.6757 24.7456 18.7437 24.5502L18.7514 24.5281C18.9836 23.86 19.2658 23.048 18.8018 22.5071C18.1962 21.8011 17.5029 22.619 17.5029 22.619L16.6521 21.0816C18.5683 19.2019 19.9496 19.4883 20.616 20.3481C21.2436 21.1577 21.0122 21.9332 20.7387 22.8497L20.7364 22.8574C20.7202 22.9118 20.7039 22.9666 20.6875 23.022C20.4873 23.7011 20.7054 24.215 21.1278 24.3546C21.5887 24.507 22.015 24.314 22.3023 23.8618C22.6175 23.3658 22.712 22.6456 22.8061 21.9285C22.8161 21.8518 22.8262 21.7751 22.8365 21.6988C22.8542 21.5668 22.8716 21.442 22.8883 21.3274C22.9301 21.0445 22.9906 20.6327 23.0515 20.2189L23.0546 20.1975L23.0641 20.1334L23.2047 19.1775Z" fill="#BDBDBD"/>
<path d="M35.825 40.6311C32.6739 35.0558 42.3658 37.3105 43.6692 38.3137C44.6705 39.146 47.8886 39.8567 51.6669 40.6907C59.4677 42.4131 69.6592 44.6632 67.6729 49.6083C62.4993 49.2377 58.4768 47.8635 54.4274 46.48L54.4242 46.4789C50.6052 45.1745 46.7623 43.8619 41.907 43.3753C39.6083 43.3849 37.2353 42.5294 35.825 40.6311Z" fill="#BDBDBD"/>
<path d="M47.3782 24.1642C47.5944 24.07 47.8095 23.9762 48.025 23.8927C49.5663 23.2959 53.0021 25.4597 54.0116 26.6362L54.2049 26.7864C56.1647 27.9717 64.1129 29.7243 66.3861 30.2144L66.5485 30.2493C66.7557 30.2942 67.0002 30.33 67.2588 30.3677C67.9815 30.4734 68.817 30.5956 69.2738 30.9796C69.5215 31.1876 69.6736 31.5494 69.5405 31.9062C69.3493 32.4206 68.7375 32.3572 68.2356 32.2975C67.0178 32.1525 65.8266 31.8738 64.7702 31.3263C63.8423 30.8448 57.2639 29.1241 56.1683 29.0342C56.0425 29.0239 55.9192 29.0164 55.799 29.0091L55.7763 29.0078C54.9952 28.9612 54.3386 28.922 53.8437 28.2061C53.5584 27.853 53.0996 27.5101 52.9059 27.3828C52.5287 27.2204 50.7005 25.6884 50.3063 25.6181C49.3037 25.4391 48.3798 25.6316 47.5461 26.198C46.5453 26.8777 45.6193 27.115 44.4601 26.4987C44.0016 26.2548 43.5689 25.9321 43.1617 25.6144C42.9553 25.4533 42.7252 25.32 42.4957 25.1872C42.2336 25.0354 41.9724 24.884 41.7483 24.6925C40.6664 23.7678 42.5177 23.268 43.2686 23.5313C43.6599 23.6687 43.9274 23.916 44.1833 24.1526C44.5596 24.5007 44.9111 24.8256 45.5953 24.7441C46.2177 24.6699 46.8024 24.4151 47.3782 24.1642Z" fill="#BDBDBD"/>
<path d="M48.7752 18.114C48.9914 18.0198 49.2065 17.9261 49.422 17.8425C50.9633 17.2457 54.3991 19.4096 55.4086 20.586L55.6019 20.7362C57.5617 21.9216 65.5099 23.6741 67.7831 24.1642L67.9455 24.1991C68.1527 24.244 68.3972 24.2798 68.6558 24.3176C69.3785 24.4233 70.214 24.5454 70.6708 24.9294C70.9185 25.1374 71.0706 25.4992 70.9375 25.856C70.7463 26.3704 70.1345 26.307 69.6326 26.2473C68.4148 26.1023 67.2236 25.8236 66.1672 25.2761C65.2393 24.7946 58.6609 23.0739 57.5653 22.984C57.4395 22.9737 57.3162 22.9662 57.196 22.959L57.1733 22.9576C56.3922 22.911 55.7356 22.8718 55.2407 22.156C54.9554 21.8029 54.4966 21.46 54.3029 21.3326C53.9257 21.1703 52.0975 19.6382 51.7033 19.5679C50.7007 19.3889 49.7768 19.5814 48.9431 20.1478C47.9423 20.8275 47.0163 21.0648 45.8571 20.4485C45.3986 20.2046 44.9659 19.8819 44.5587 19.5642C44.3523 19.4032 44.1222 19.2699 43.8927 19.137C43.6306 18.9852 43.3694 18.8338 43.1453 18.6423C42.0634 17.7176 43.9147 17.2178 44.6656 17.4811C45.0569 17.6186 45.3244 17.8659 45.5803 18.1025C45.9566 18.4506 46.3081 18.7754 46.9923 18.6939C47.6147 18.6197 48.1994 18.3649 48.7752 18.114Z" fill="#BDBDBD"/>
</svg>
