<svg width="85" height="68" viewBox="0 0 85 68" fill="none" xmlns="http://www.w3.org/2000/svg">
<path d="M7.53106 24.7533C7.04188 24.8028 6.59347 24.4441 6.43041 24.2585C4.63675 21.6197 1.02497 16.3049 0.927137 16.1564C0.804842 15.9709 0.37681 15.3524 1.04943 14.9814C1.72205 14.6103 2.08894 15.0432 3.31189 15.8472C4.53484 16.6512 8.57057 22.2175 8.87631 22.5886C9.18205 22.9597 9.30434 23.0834 8.93746 24.0111C8.57057 24.9389 8.14254 24.6915 7.53106 24.7533Z" fill="#BDBDBD"/>
<path d="M22.8791 12.8785C23.1726 13.6207 23.0014 14.4659 22.8791 14.7958C22.6345 14.9607 21.8518 15.2534 20.6778 15.105C19.2102 14.9195 18.9657 13.6207 18.7822 12.8785C18.5988 12.1364 16.5809 3.66316 16.5198 3.29207C16.4586 2.92098 16.5198 2.92101 16.8866 2.24068C17.1802 1.69642 18.4357 2.30253 19.0268 2.67362C18.9657 3.41579 19.088 3.78688 19.3937 5.33308C19.6994 6.87927 22.5122 11.9508 22.8791 12.8785Z" fill="#BDBDBD"/>
<path d="M38.7163 9.72424C38.7163 9.17998 37.2488 3.60131 36.515 0.880005C32.8461 6.32261 34.8029 9.90979 36.4538 10.8375C38.1048 11.7652 38.7163 10.4046 38.7163 9.72424Z" fill="#BDBDBD"/>
<path d="M51.2515 4.09609L49.784 3.91055C49.3152 5.37428 48.3164 8.5244 48.0719 9.41501L48.0546 9.478C47.7639 10.5355 47.712 10.7245 48.0719 11.2704C48.9279 12.3219 49.5697 11.9974 50.3343 11.456C50.9458 11.023 51.0681 6.32261 51.2515 4.09609Z" fill="#BDBDBD"/>
<path fill-rule="evenodd" clip-rule="evenodd" d="M13.2178 33.5975C12.9732 32.6574 13.1566 31.0617 13.2789 30.3814C13.3605 30.2577 13.5235 29.7011 13.5235 28.4641C13.5235 27.4369 13.8474 26.8465 14.1903 26.2213C14.3635 25.9054 14.5417 25.5806 14.6853 25.1862L14.7071 25.1265C14.887 24.6322 14.9662 24.4148 15.0848 24.2221C15.1779 24.0707 15.2954 23.9345 15.5052 23.6914C15.6253 23.5521 15.7758 23.3777 15.9694 23.1452C16.9478 21.9701 18.7822 20.4858 21.0447 19.6199C21.6886 19.3734 22.3822 19.0719 23.0942 18.7622C24.8837 17.9841 26.7902 17.155 28.3212 17.0223C29.2642 16.9405 30.1478 16.7387 31.0244 16.5385C32.1373 16.2843 33.2388 16.0327 34.436 16.0327C37.87 16.002 38.7667 15.9407 39.3328 15.902C39.9058 15.8628 40.1402 15.8468 42.324 15.909C46.6655 16.0327 53.6363 17.2078 54.0643 17.8882C54.4104 18.4382 55.5958 18.6648 56.4572 18.8295C56.6613 18.8685 56.8472 18.904 56.9994 18.9396C57.2842 19.0061 57.6712 19.2076 58.1152 19.4388C58.9102 19.8528 59.8881 20.3621 60.7905 20.3621C62.2199 20.2698 62.5602 20.4682 63.0076 20.729C63.4598 20.9926 64.0213 21.3199 65.9269 21.4753C68.8722 21.7156 72.4817 24.0462 74.4333 25.3062C74.9937 25.6681 75.4174 25.9417 75.6494 26.0521C76.3495 26.3853 76.5226 26.6344 76.7291 26.9316C76.8292 27.0756 76.9372 27.231 77.1169 27.4127C80.5859 30.6119 81.4587 32.9931 81.7947 33.9099C81.8615 34.092 81.907 34.2163 81.9476 34.2778C82.1921 34.6489 83.5374 36.6899 83.782 38.1124C84.7431 43.7021 84.3929 44.3842 84.0023 45.1449C83.7966 45.5457 83.5796 45.9683 83.5374 47.1422C83.4151 50.5438 82.8648 52.894 81.7641 53.6981C81.2256 54.0914 80.7457 54.8844 80.0809 55.983C79.3868 57.13 78.4911 58.6099 77.1169 60.3158C73.1646 65.2461 71.6092 65.1044 70.4575 64.9995C70.0056 64.9584 69.6158 64.9229 69.1677 65.2017C67.9341 65.9696 67.2895 66.0299 66.1769 66.134C65.8557 66.164 65.4955 66.1977 65.0709 66.2532C60.8495 66.868 60.1532 66.8226 59.3973 66.7733C58.7846 66.7333 58.1326 66.6907 55.5318 66.9953C51.8782 67.4232 49.3373 66.6767 46.5703 65.8638C44.9379 65.3843 43.2268 64.8816 41.1622 64.5833C36.1456 63.8584 35.602 63.3849 34.8267 62.7095C34.742 62.6358 34.6546 62.5596 34.5583 62.4804C33.5799 61.6764 32.1124 60.8724 30.5225 60.2539C28.9327 59.6354 27.4652 58.8314 27.404 57.9656C27.3429 57.0997 24.2855 55.9246 23.6129 55.6772C23.4811 55.6287 23.3095 55.5826 23.1173 55.531C22.3282 55.3192 21.1922 55.0141 21.0447 54.0691C20.8896 53.076 20.0794 52.4804 18.5402 51.349C18.2582 51.1417 17.9518 50.9165 17.6204 50.6675C16.2467 49.6353 15.8303 48.6541 15.498 47.8711C15.3126 47.4342 15.1534 47.059 14.8688 46.7711C14.0739 45.9671 13.3401 43.8643 13.4012 42.8747C13.4276 42.4478 13.2947 41.8138 13.135 41.0521C12.9245 40.0479 12.6675 38.8219 12.6675 37.5558C12.6675 36.4336 12.8849 35.7356 13.0615 35.1689C13.2353 34.6111 13.3694 34.1804 13.2178 33.5975ZM17.6204 27.1035C17.1109 28.3404 15.9694 31.3957 15.4803 33.7212C15.0396 35.8158 15.107 36.0478 15.2248 36.4536C15.2705 36.611 15.3238 36.7945 15.358 37.1228C15.4036 37.5613 15.7387 38.7575 16.1186 40.1138C16.7569 42.3925 17.5219 45.1234 17.2535 45.4723C16.8255 46.0289 22.6345 51.3478 28.9327 55.3061C29.0556 55.389 29.1694 55.478 29.291 55.5733C29.714 55.9044 30.2323 56.3101 31.562 56.7904C32.9317 57.2852 35.6385 58.7283 36.8207 59.3881C36.7596 59.12 37.4811 59.1036 40.8565 61.1816C41.0671 61.3095 41.1617 61.3199 41.6602 61.3747C41.8851 61.3994 42.1924 61.4332 42.6297 61.4909C42.9651 61.5351 43.2796 61.5653 43.5873 61.5948C44.5701 61.6891 45.4839 61.7768 46.7878 62.2949C48.1575 62.8392 50.7012 63.2226 51.8018 63.3463C51.9038 63.0783 52.4989 62.567 54.0643 62.666C54.8736 62.7751 54.9688 62.8843 55.064 62.9934C55.0767 63.008 55.0894 63.0225 55.1038 63.0371C55.2261 63.1608 60.974 63.4082 61.9523 63.2226C62.0111 63.2115 62.087 63.1974 62.1782 63.1805C63.6042 62.9161 68.7902 61.9546 71.4913 60.5013C71.7759 60.3482 72.0635 60.1981 72.3521 60.0475C74.9776 58.6774 77.6842 57.2649 78.9513 53.1414C80.0172 49.6727 79.7133 47.6605 79.4504 45.9202C79.3664 45.3644 79.2867 44.8362 79.2571 44.2972C79.2099 43.4385 79.3265 43.2973 79.498 43.0896C79.7712 42.7588 80.1839 42.2591 80.2966 38.4216C79.4405 37.329 77.5205 34.7974 76.6889 33.412C76.1029 32.4358 75.6335 32.2064 75.1055 31.9484C74.6968 31.7486 74.2529 31.5317 73.6926 30.938C72.4085 29.5774 64.9486 24.3203 58.2835 22.3412C56.4491 21.7227 49.784 20.4858 48.6222 21.4135C48.0399 21.8784 46.1982 21.6288 43.9669 21.3263C41.746 21.0253 39.1393 20.6719 37.0042 20.9187C36.9479 20.9258 36.8893 20.9333 36.8284 20.9411C35.8308 21.069 34.2469 21.272 33.1519 20.9805C31.9901 20.6713 26.8537 21.1661 21.8396 23.5163C21.5321 23.6473 21.1946 23.7696 20.8589 23.8912C19.9262 24.2292 19.007 24.5623 18.7822 25.0625C18.6549 25.3459 18.5063 25.5583 18.3454 25.7884C18.1199 26.1107 17.8702 26.4679 17.6204 27.1035ZM27.7097 29.7629C27.8076 30.0598 27.9136 31.2473 27.9543 31.8039C29.7608 31.9083 30.2167 32.5856 30.6827 33.2777C30.7688 33.4056 30.8553 33.534 30.9506 33.6594C31.4397 34.3026 33.6003 36.9373 34.6194 38.1742H35.1697C35.4347 37.1847 36.0625 34.7974 36.4538 33.1646C36.943 31.1236 37.1876 30.6288 37.7379 29.7629C38.2883 28.8971 39.2666 28.526 40.245 29.3919C41.2233 30.2577 40.0615 34.9582 38.9609 38.2979C38.842 38.6588 38.7323 38.9886 38.6315 39.2918C37.7992 41.7956 37.5677 42.4918 37.6768 43.9261C37.7927 45.4499 37.1398 46.3628 36.8109 46.8227C36.7928 46.8481 36.7756 46.8721 36.7596 46.8948C36.4538 47.3277 36.2704 47.3896 35.9647 47.2659C33.9209 46.6817 32.7165 44.2038 31.9292 42.584C31.633 41.9745 31.3958 41.4865 31.1952 41.2666C30.6081 40.6234 28.7085 37.7825 27.832 36.4425C27.2939 36.4425 27.1594 37.2259 27.1594 37.6176C27.1798 39.473 27.2083 43.3818 27.1594 44.1735C27.0983 45.1631 26.3645 46.4619 25.0804 46.5856C23.7963 46.7092 23.3683 45.2249 23.4906 41.0811C23.5818 37.9889 23.8774 37.1697 24.3264 35.9252C24.4791 35.5019 24.6496 35.0294 24.8358 34.4015C25.0275 33.7553 25.1941 33.1387 25.3477 32.5703C25.7821 30.9627 26.1122 29.7412 26.6091 29.33C27.2817 28.7734 27.5875 29.3919 27.7097 29.7629ZM46.1763 31.8039C45.8339 32.1008 44.1584 33.7006 43.3635 34.4634C41.5291 39.5349 41.1622 41.0811 40.5507 44.359C39.9392 47.637 40.673 50.049 42.5074 51.5334C44.3419 53.0177 46.6655 52.7085 48.0107 52.2137C49.356 51.7189 49.784 51.4097 51.1904 49.5542C52.3155 48.0699 51.6592 45.7197 51.1904 44.7301C51.0069 44.8332 50.4688 45.1259 49.784 45.4723C49.0058 45.8658 48.4405 46.3571 47.8878 46.8374C47.0508 47.5648 46.2431 48.2667 44.7699 48.5647C42.324 49.0595 42.5686 45.4104 43.3635 42.9365C43.9349 41.1581 46.2759 41.2974 48.4102 41.4243C49.2449 41.474 50.048 41.5217 50.7012 41.4522C52.8457 41.2239 52.8027 39.4677 52.7352 36.7186C52.7296 36.4891 52.7238 36.2526 52.7191 36.0096C52.6579 32.8553 51.2515 31.4328 49.7228 30.567C48.3452 29.7867 46.918 31.1159 46.3361 31.6578C46.2722 31.7173 46.2186 31.7672 46.1763 31.8039ZM56.7548 35.824C57.0483 34.9829 57.8147 34.6902 58.1612 34.6489C58.2886 34.9926 58.3275 35.3661 58.4214 36.2668C58.4626 36.6629 58.5145 37.1609 58.5892 37.8032C58.8338 39.906 58.7115 41.0192 58.1612 43.9879C57.7209 46.3629 57.7739 48.1936 57.8555 48.8121C58.0185 48.7915 58.6381 48.441 59.8122 47.204C60.8761 46.0831 62.0042 44.3446 62.7074 43.261C62.9742 42.8499 63.1799 42.533 63.2976 42.3799C63.64 41.9346 64.2556 41.9057 64.5205 41.947C64.9486 42.1944 65.2543 43.0602 65.2543 43.8642C65.3521 45.6455 65.7435 48.7708 65.9269 50.1109L66.3549 49.9253C66.5588 49.3893 67.2233 47.8596 68.2505 46.0289C68.8993 44.8728 69.1422 44.5218 69.413 44.1305C69.6783 43.7472 69.9703 43.3253 70.6964 42.0707C71.7783 40.2012 72.1956 39.8781 72.5361 39.6143C72.6575 39.5203 72.7692 39.4338 72.8977 39.2875C73.3869 38.7309 74.0595 38.6072 74.1207 38.7927C74.4264 39.2875 74.3653 40.8337 74.1207 41.0811C73.555 41.7105 72.9893 43.5574 72.6656 44.614C72.6395 44.6994 72.6149 44.7797 72.592 44.8538C71.5116 48.6128 70.0953 49.777 69.2064 50.5077C68.8375 50.8109 68.5595 51.0395 68.434 51.3478C68.0359 52.3256 67.585 52.7685 67.4254 52.9252C67.4136 52.9369 67.4029 52.9473 67.3945 52.9559C67.3853 52.9651 67.3693 52.9806 67.3475 53.0018C67.0777 53.263 65.9178 54.386 65.8046 55.2442C65.6823 56.172 64.3982 56.2957 64.1536 56.1101C63.4711 55.6498 63.4764 52.781 63.4804 50.5907C63.4807 50.4265 63.481 50.2661 63.481 50.1109C63.481 48.3297 63.2772 47.4308 63.1753 47.204C62.2581 48.1111 60.3013 50.1232 59.8122 50.9149C58.5403 52.894 57.407 53.4713 56.9994 53.5125C56.9179 53.3476 56.6325 52.9188 56.1433 52.5229C55.9651 52.3787 55.7712 52.3711 55.5845 52.3638C55.1307 52.3461 54.7191 52.33 54.6758 50.3583C54.6408 48.7662 54.7859 48.1254 54.928 47.498C55.0342 47.0286 55.1388 46.5667 55.165 45.7197C55.1751 45.3917 55.1819 45.1316 55.1875 44.915C55.1975 44.5323 55.2039 44.2853 55.2191 44.0388C55.2468 43.5899 55.3034 43.1429 55.4633 41.8818L55.4707 41.8233C55.7234 39.8297 55.7255 39.8218 55.8567 39.3204C55.8842 39.2151 55.9174 39.0881 55.9599 38.9164C56.0309 38.6291 56.0968 38.3365 56.1635 38.0402C56.3265 37.3162 56.4945 36.5701 56.7548 35.824ZM47.3992 34.8963C47.2036 35.1932 46.0948 36.7105 45.5648 37.4321C45.8705 37.865 46.482 38.1742 46.9712 38.1742C47.4604 38.1742 48.2553 37.865 48.8056 37.1847C49.356 36.5044 49.1725 34.9582 48.6222 34.5252C48.0719 34.0923 47.6438 34.5252 47.3992 34.8963Z" fill="#BDBDBD"/>
</svg>
