<svg width="82" height="86" viewBox="0 0 82 86" fill="none" xmlns="http://www.w3.org/2000/svg">
<path fill-rule="evenodd" clip-rule="evenodd" d="M27.4647 56.0099L27.4629 56.0108C27.1856 56.1509 26.9081 56.2911 26.6342 56.4331L26.7904 56.68C26.7619 57.6637 25.9869 58.4812 25.603 58.767C24.864 57.8072 24.0609 56.888 23.2577 55.9685L23.2562 55.9668C22.1075 54.652 20.9585 53.3368 19.996 51.9027C19.5804 51.2836 19.2075 50.6387 18.8348 49.9941C18.2948 49.0601 17.755 48.1265 17.0858 47.2729C16.8729 47.0014 16.6472 46.7389 16.4214 46.4765L16.4186 46.4732C16.1006 46.1035 15.7826 45.7336 15.5003 45.3381C15.1706 44.8759 14.9764 44.3695 14.7798 43.8567C14.6869 43.6143 14.5934 43.3704 14.4848 43.1293C14.4396 43.0289 14.393 42.9723 14.3565 42.928C14.2839 42.8398 14.2511 42.7999 14.3483 42.5613C14.4398 42.3369 14.6862 42.1703 14.8984 42.0617C15.3355 41.839 15.8484 41.7485 16.2234 42.0469L16.2262 42.0502C16.3211 42.1623 16.4168 42.2754 16.4997 42.3958C16.5417 42.4561 16.5803 42.5182 16.6175 42.5813C16.6196 42.5849 16.6251 42.5954 16.6326 42.6097L16.6396 42.6231C16.6673 42.6762 16.7107 42.7591 16.7138 42.7581C16.8651 42.7236 17.1379 42.5391 17.3763 42.3778C17.5169 42.2826 17.6456 42.1955 17.7303 42.1521C18.3874 41.8158 19.0216 41.5286 19.7105 41.2595C20.8609 40.8099 21.9057 40.2114 22.952 39.5828C23.0625 39.5164 23.065 39.3712 22.9652 39.2909C22.7521 39.1198 22.5682 38.7926 22.5781 38.6275C22.5957 38.3159 23.1272 38.0454 23.4988 37.8563L23.5043 37.8535C23.6031 37.8032 23.6903 37.7588 23.753 37.7209C24.7303 37.1312 25.7228 36.5656 26.7564 36.0701C27.6915 35.6221 28.6011 35.1358 29.5115 34.6492L29.5135 34.6481L29.6108 34.5961C29.9178 34.4319 30.2263 34.2704 30.5369 34.1127C30.5704 34.0957 30.6017 34.08 30.631 34.0653L30.6332 34.0642L30.6342 34.0637C30.8351 33.9629 30.9367 33.912 30.9625 33.8366C30.9888 33.7598 30.9369 33.6577 30.8323 33.4517L30.7998 33.3876L30.7925 33.373C30.6822 33.1548 30.1002 32.0042 30.5485 31.921C30.9856 31.8402 31.3892 32.7432 31.6118 33.2414L31.6151 33.2488C31.6597 33.3486 31.6969 33.4317 31.7254 33.4864C32.0584 33.2838 32.1376 33.6965 32.1865 33.9514L32.187 33.9536C32.2677 34.374 32.319 34.631 32.5429 35.0625C32.5625 35.1003 32.5813 35.1384 32.5998 35.176C32.6929 35.3652 32.7786 35.5392 32.9341 35.5877C32.975 35.6003 33.0383 35.5701 33.1061 35.5377C33.1774 35.5037 33.2538 35.4673 33.3144 35.4758C33.6231 35.5191 33.7723 35.8257 33.885 36.0573L33.909 36.1064C33.93 36.1486 33.9605 36.1911 33.9918 36.2345C34.0664 36.3379 34.1451 36.4474 34.109 36.5745C34.0797 36.6764 33.9568 36.7448 33.8405 36.8094C33.7466 36.8616 33.657 36.9114 33.6249 36.9744C33.6249 36.9744 33.6914 37.1595 33.7017 37.2161C33.7748 37.6383 34.0614 38.1134 34.3341 38.5654L34.3357 38.5679C34.4984 38.8378 34.6562 39.0994 34.7603 39.3364L34.7806 39.3271C35.1316 39.1664 35.3692 39.0577 35.6901 39.3322C35.8236 39.4464 36.0667 39.8091 36.0994 39.992C36.1557 40.3059 36.0282 40.3641 35.8704 40.4359C35.7582 40.4871 35.6306 40.5452 35.543 40.7074C35.4475 40.8841 35.5995 41.1128 35.7488 41.3377C35.7893 41.3986 35.8296 41.4592 35.8647 41.5184C35.9127 41.4906 35.9682 41.4541 36.0285 41.4145L36.0303 41.4132C36.242 41.2741 36.5109 41.0974 36.7091 41.1227C36.8221 41.137 37.1863 41.4256 37.268 41.4929C37.7295 41.8738 37.6263 41.9536 37.201 42.2023C37.1859 42.2111 37.1486 42.2314 37.0985 42.2586L37.097 42.2595C36.8869 42.3738 36.4543 42.6092 36.4719 42.6458C36.578 42.8458 36.6704 43.0499 36.6704 43.0499L36.7834 43.2791C36.7996 43.3534 37.0767 43.9198 37.1691 43.9421C37.3251 43.98 37.5037 43.8499 37.6869 43.7166C37.9081 43.5555 38.136 43.3897 38.3382 43.5092C38.5861 43.6558 38.7753 44.5276 38.6751 44.7647C38.6121 44.9138 38.4809 44.9547 38.3384 44.9991C38.2463 45.0278 38.1495 45.0579 38.0634 45.1197C37.9231 45.2212 37.9016 45.3715 37.9759 45.5219C38.0395 45.6782 38.104 45.8341 38.17 45.9896C38.2485 46.1658 38.3669 46.318 38.4701 46.4507L38.4712 46.4521C38.5399 46.5403 38.6019 46.6198 38.6409 46.692C38.7124 46.8249 38.7564 47.0013 38.8017 47.1835C38.8448 47.3564 38.8892 47.5345 38.9596 47.6858C39.0568 47.8948 39.1806 48.0994 39.305 48.305L39.3055 48.3058C39.513 48.6485 39.7219 48.9936 39.8114 49.3658C40.4274 49.093 40.7134 49.3602 40.9642 49.9192L40.9836 49.9615C40.9935 49.9829 41.003 50.0029 41.0119 50.0216L41.0125 50.0229L41.0134 50.0247C41.1158 50.24 41.1394 50.2897 40.9222 50.5233C40.8447 50.6065 40.7841 50.6401 40.7398 50.6646C40.6682 50.7044 40.6394 50.7204 40.6508 50.8839C40.6567 50.9678 40.748 51.1081 40.8266 51.2289C40.8665 51.2901 40.9031 51.3464 40.9237 51.3877L40.9504 51.4419L40.9779 51.4981C41.1082 51.7647 41.2173 51.9877 41.4214 52.1356C41.4743 52.174 41.5438 52.2002 41.6176 52.228C41.7151 52.2647 41.82 52.3042 41.903 52.3782C41.1914 53.1706 40.3503 52.9187 40.0187 52.6936C40.1272 52.639 40.2094 52.6034 40.2709 52.5767C40.3637 52.5365 40.4097 52.5166 40.4284 52.4826C40.4466 52.4494 40.439 52.403 40.4241 52.3112C40.4182 52.2744 40.411 52.2301 40.4039 52.1768C40.3707 51.9278 40.1444 51.5906 39.9743 51.337C39.9396 51.2852 39.9072 51.237 39.8793 51.1937C38.9546 51.7795 37.9622 52.28 36.9738 52.7786C36.5563 52.9892 36.1395 53.1994 35.7288 53.4155C35.657 53.4533 35.5633 53.5095 35.4572 53.5731C35.0523 53.8159 34.4678 54.1665 34.2385 54.0104C34.0521 53.8835 33.9926 53.6393 33.9353 53.4042C33.8645 53.1139 33.7971 52.8374 33.4983 52.8133C33.2215 52.7911 32.6519 53.1414 32.2215 53.406C32.049 53.5121 31.8988 53.6045 31.7988 53.6535C31.1451 53.9737 30.4987 54.3091 29.8846 54.6937C29.1138 55.1766 28.2868 55.5945 27.4647 56.0099ZM18.8587 45.8638L18.6813 45.5937C21.187 44.2037 23.7226 42.8091 26.3051 41.5523C26.9162 41.255 27.4941 40.9029 28.0725 40.5503C28.581 40.2404 29.0904 39.9298 29.6245 39.6556C29.8625 39.5333 30.0999 39.4124 30.3368 39.2918L30.3379 39.2912C31.284 38.8094 32.2209 38.3321 33.1497 37.7965C33.2568 38.0597 33.3836 38.3563 33.5051 38.6403L33.5055 38.6412L33.5131 38.6589L33.5137 38.6602C33.6054 38.8747 33.6937 39.0814 33.7677 39.2603C33.7899 39.3093 33.8174 39.3827 33.846 39.4588L33.8671 39.5148C33.8973 39.5945 33.9275 39.6717 33.953 39.7219C33.7853 39.8045 33.6186 39.8875 33.4518 39.9715C33.2123 40.0917 32.9727 40.2132 32.7341 40.3358C31.9293 40.7477 31.1445 41.1899 30.378 41.664C29.5604 42.1698 28.7473 42.6671 27.9015 43.1283C27.875 43.1427 27.8499 43.1562 27.8263 43.1687L27.7821 43.1922C27.4809 43.3518 27.4356 43.3758 27.4649 43.7421C27.4798 43.9291 27.5281 44.1104 27.5763 44.2917L27.5766 44.2927C27.5959 44.3656 27.6153 44.4385 27.6326 44.5118C27.66 44.6282 27.5824 44.6825 27.4903 44.7468C27.461 44.7674 27.4302 44.7889 27.4008 44.8138C26.8383 45.2924 26.0452 45.6808 25.3181 46.0367C25.1042 46.1414 24.8959 46.2433 24.701 46.344C24.2667 46.5684 23.8179 46.7583 23.3695 46.9481C22.8679 47.1604 22.3669 47.3725 21.8872 47.6324C21.8494 47.653 21.7639 47.7052 21.6528 47.7731C21.2807 48.0006 20.6221 48.4033 20.5147 48.3747C20.3982 48.3434 20.2338 48.0444 20.1182 47.8341C20.0775 47.7602 20.0429 47.6972 20.0185 47.6607C19.7241 47.2186 19.4386 46.7714 19.1531 46.3242L19.1495 46.3186L19.1233 46.2775C19.0353 46.1396 18.9472 46.0016 18.8587 45.8638ZM18.253 42.6365C19.0354 42.2374 19.7914 41.8026 20.5476 41.3678C20.928 41.1491 21.3083 40.9304 21.6921 40.7162C22.243 40.4086 22.8188 40.1366 23.3944 39.8647C24.0882 39.537 24.7818 39.2093 25.4314 38.8195C25.5833 38.7283 25.7341 38.6373 25.8844 38.5466L25.9306 38.5187C26.0578 38.442 26.1852 38.365 26.3119 38.2888C27.1986 37.7552 28.0784 37.2379 29.0368 36.7698C29.6572 36.4663 30.2582 36.1225 30.8278 35.7379C30.8849 35.6993 30.9646 35.6335 31.0563 35.5578L31.0609 35.554C31.3143 35.3445 31.657 35.0615 31.8648 35.0615C31.8648 35.0615 32.121 35.6252 32.2672 35.8942C30.709 36.6454 29.2168 37.4624 27.7592 38.3778C27.223 38.7141 26.6708 39.021 26.1172 39.3288L26.1162 39.3293L26.1149 39.33L26.1019 39.3372C25.9938 39.3973 25.8857 39.4574 25.7776 39.5177C25.7514 39.5324 25.727 39.5459 25.7042 39.5585L25.6901 39.5663C25.5406 39.6487 25.4664 39.6895 25.4329 39.7513C25.4 39.8121 25.4065 39.8931 25.4194 40.0538L25.4221 40.0884C25.4407 40.3278 25.5121 40.667 25.6568 40.9254C25.7351 41.0646 25.6715 41.2368 25.5258 41.3123C24.9462 41.6136 24.3889 41.9419 23.8325 42.2697L23.8305 42.2709C23.2637 42.6047 22.6969 42.9385 22.1058 43.2443C21.7021 43.453 21.2939 43.6499 20.8862 43.8465L20.8827 43.8482C20.038 44.2555 19.1957 44.6617 18.4021 45.1688L18.189 44.8446L18.1877 44.8425L18.1206 44.7405C17.7854 44.23 17.4492 43.7202 17.0981 43.2192C17.3278 43.0987 17.5606 42.9828 17.7928 42.8673C17.9463 42.7909 18.1 42.7144 18.253 42.6365ZM27.9577 44.9888C28.7294 44.5565 29.5092 44.1329 30.2899 43.7087L30.2937 43.7067C31.809 42.8834 33.3279 42.0582 34.7969 41.164C34.8137 41.1923 34.8463 41.2395 34.8858 41.2967C35.0172 41.4867 35.2264 41.7891 35.1978 41.8928C35.1894 41.9235 34.6744 42.1727 34.5792 42.2187L34.5765 42.22L34.5661 42.2251L34.5641 42.226C34.2135 42.4181 33.8567 42.5995 33.5 42.7808L33.4875 42.7871L33.4765 42.7927C33.2044 42.9309 32.9322 43.0692 32.6627 43.2124C32.0129 43.5576 31.369 43.9083 30.7363 44.2809C30.0493 44.685 29.3634 45.0919 28.6877 45.5122L28.612 45.5592C27.9314 45.9809 27.5246 46.233 28.1548 47.0145C27.5508 47.278 26.9852 47.6361 26.4198 47.994C25.9906 48.2658 25.5614 48.5376 25.1156 48.7678C24.7486 48.9573 24.3764 49.1349 24.0054 49.312L24.003 49.3131C23.371 49.6146 22.7402 49.9157 22.1346 50.2752C21.8211 49.7898 21.4335 49.3794 21.0379 48.9606C20.9793 48.8987 20.9206 48.8365 20.8619 48.7738C21.5554 48.4059 22.2519 48.0407 22.9479 47.6757L22.9488 47.6752L22.951 47.674C24.6293 46.7939 26.3083 45.9135 27.9577 44.9888ZM38.6027 48.7626C38.6293 48.8665 38.6782 48.9609 38.7273 49.0556C38.7649 49.1284 38.8027 49.2014 38.8306 49.2789C38.6541 49.4588 38.1533 49.6963 37.8178 49.8554L37.812 49.8581C37.7344 49.895 37.6658 49.9275 37.6127 49.9541C37.3261 50.0964 37.0463 50.251 36.767 50.4054L36.7641 50.407L36.7631 50.4075L36.76 50.4092C36.5357 50.5332 36.3113 50.6573 36.0828 50.7752C35.5539 51.0482 35.0346 51.3347 34.5154 51.6212L34.5122 51.6229C33.8877 51.9675 33.2629 52.3122 32.6202 52.6338C32.0875 52.9005 31.5857 53.2028 31.0847 53.5047C30.6224 53.7834 30.1607 54.0616 29.6759 54.311C29.2895 54.5098 28.8974 54.6957 28.5056 54.8814L28.5044 54.882C27.7743 55.2281 27.0456 55.5735 26.3589 56.0003C26.1594 55.6895 25.958 55.3796 25.7541 55.071C25.7259 55.028 25.6752 54.9657 25.6175 54.8947C25.4778 54.7229 25.2968 54.5004 25.2916 54.3778C25.2823 54.1614 25.4805 54.0688 25.7182 53.9578C25.793 53.923 25.8715 53.8863 25.9487 53.8434L25.9939 53.8182C26.1674 53.7218 26.3402 53.6257 26.5193 53.5385C27.3372 53.1408 28.1371 52.696 28.9376 52.2508L28.9386 52.2504L28.9394 52.2499C29.3438 52.025 29.7484 51.8001 30.1554 51.5812C30.3682 51.467 30.6405 51.5491 30.7442 51.7593C30.8688 52.0131 31.0747 52.2729 31.2306 52.3355C31.4502 52.4239 31.5685 52.3673 31.751 52.28L31.7565 52.2774C31.7849 52.2638 31.815 52.2494 31.8472 52.2348C32.3575 52.0026 32.8505 51.7225 33.3395 51.4446L33.3439 51.4421C33.4979 51.3545 33.6516 51.2672 33.8053 51.1817C34.8212 50.6159 35.8006 49.9923 36.7795 49.3692L36.7806 49.3685L36.7835 49.3666C37.3291 49.0192 37.8746 48.6719 38.4262 48.3348C38.4639 48.3121 38.5861 48.6805 38.592 48.7144C38.5949 48.7305 38.5988 48.7468 38.6027 48.7626ZM23.8458 52.6695C24.8569 52.1541 25.8632 51.6117 26.8259 51.0216C27.5498 50.5776 28.3195 50.2081 29.0885 49.839L29.0909 49.8378C29.5924 49.597 30.0937 49.3564 30.5818 49.0952C30.6754 49.045 30.7644 48.9964 30.8507 48.9493C31.2264 48.7442 31.551 48.5669 31.9772 48.4076C32.5488 48.1942 33.1257 47.9107 33.666 47.6366C34.3216 47.3036 34.9601 46.9367 35.5987 46.5698L35.6007 46.5686C36.1057 46.2784 36.6108 45.9882 37.1242 45.7148C37.2205 45.9655 37.3866 46.2828 37.5255 46.5481L37.526 46.5491L37.5268 46.5505C37.561 46.6158 37.5935 46.6779 37.6229 46.7351C37.6639 46.8148 37.6822 46.8502 37.6752 46.88C37.6696 46.9037 37.648 46.9239 37.6092 46.9601C37.5168 47.0459 37.2731 47.1665 37.1092 47.2476C37.0711 47.2665 37.0373 47.2833 37.0107 47.2969C36.4832 47.5669 35.963 47.8437 35.4418 48.1212L35.4394 48.1224C35.2779 48.2084 35.1163 48.2944 34.9543 48.3802C34.4366 48.6552 33.925 48.939 33.4143 49.2226L33.4134 49.2231L33.4123 49.2237C32.5844 49.6832 31.7568 50.1425 30.9011 50.5646C30.2273 50.8964 29.5912 51.2735 28.9557 51.6501L28.9518 51.6525L28.9473 51.6551C28.4004 51.9792 27.8538 52.3031 27.2835 52.5981C26.6914 52.9038 26.0964 53.1757 25.4921 53.4504C25.4465 53.471 25.3821 53.5108 25.3116 53.5544L25.3097 53.5555C25.1749 53.6389 25.0177 53.7361 24.9249 53.7422C24.9099 53.7432 24.8949 53.7245 24.8654 53.6878L24.8647 53.6869C24.8289 53.6423 24.772 53.5715 24.6687 53.4777C24.403 53.2367 24.1309 52.9599 23.8773 52.7016L23.8458 52.6695ZM23.2728 50.3056C24.2099 49.8252 25.1176 49.3036 26.0261 48.7814C26.1704 48.6985 26.3148 48.6156 26.4592 48.5329C27.0811 48.1764 27.7283 47.8639 28.3751 47.5516L28.3781 47.5502L28.3826 47.548C28.9095 47.2936 29.4362 47.0394 29.9487 46.7615C30.3914 46.5215 30.8154 46.26 31.2391 45.9986C31.7336 45.6936 32.2286 45.3883 32.7551 45.1163C33.1169 44.9293 33.4826 44.7536 33.8476 44.5782C34.5815 44.2254 35.3131 43.8738 36.007 43.4344C36.1013 43.7337 36.2255 44.0181 36.4348 44.263C35.8458 44.6051 35.2224 44.8938 34.5981 45.1828C33.988 45.4652 33.3769 45.7481 32.7962 46.0817C32.6991 46.1376 32.6005 46.1934 32.5023 46.249L32.4995 46.2506L32.4882 46.257C32.1275 46.4611 31.7641 46.6667 31.4271 46.9001C31.3977 46.9205 31.3648 46.9411 31.3306 46.9623C31.2161 47.0337 31.0879 47.1136 31.0326 47.224C30.9738 47.3415 31.0077 47.5121 31.0373 47.6606C31.0512 47.7306 31.0642 47.7958 31.0659 47.848C31.0699 47.9608 31.0812 48.027 31.0885 48.0704C31.1023 48.152 31.1026 48.1534 31.0164 48.2317C30.8273 48.4035 30.4983 48.54 30.2033 48.6623L30.2002 48.6636L30.1522 48.6836C30.0415 48.7296 29.9372 48.7737 29.8489 48.8173C29.7216 48.88 29.5938 48.9427 29.4661 49.0053L29.4574 49.0095C29.1584 49.1561 28.859 49.3029 28.5631 49.4524C28.2059 49.6325 27.8788 49.8523 27.5519 50.072C27.2397 50.2819 26.9277 50.4916 26.5897 50.6665C26.1527 50.8928 25.708 51.1005 25.264 51.3077L25.2599 51.3097L25.2589 51.3101C24.9415 51.4583 24.6247 51.6062 24.3113 51.7606C24.2179 51.8064 24.1256 51.8663 24.0346 51.9253C23.8015 52.0766 23.5775 52.222 23.3682 52.1081C23.1277 51.9764 22.8623 51.4848 22.6562 51.1033L22.6542 51.0996C22.5716 50.9466 22.4986 50.8116 22.4407 50.725C22.5427 50.6734 22.6453 50.6221 22.7476 50.571L22.7487 50.5704L22.7562 50.5667C22.9287 50.4804 23.1012 50.3941 23.2728 50.3056Z" fill="#FF7D01"/>
<path fill-rule="evenodd" clip-rule="evenodd" d="M25.2146 16.195C25.1821 16.1966 25.1492 16.2007 25.1162 16.2053C25.0975 16.2079 25.0788 16.2109 25.0601 16.2138C24.9485 16.2312 24.8375 16.2485 24.7329 16.2068C24.6045 16.1561 24.5135 16.0218 24.4736 15.8777C24.4338 15.7332 24.4375 15.5789 24.4491 15.4287C24.4736 15.1088 24.5409 14.774 24.7395 14.5403C25.0995 14.1169 25.498 14.3532 25.7541 14.7397C25.7903 14.7946 25.8306 14.8515 25.8887 14.875C25.9299 14.892 25.9754 14.8899 26.0195 14.8873C26.0526 14.8854 26.0916 14.8806 26.1337 14.8753C26.3368 14.85 26.6148 14.8154 26.6848 15.0519C26.7052 15.1201 26.6973 15.1944 26.6876 15.2651C26.6392 15.6204 26.5126 16.5103 26.0612 16.5154C25.9057 16.5174 25.7803 16.4377 25.6537 16.3573C25.5207 16.2728 25.3864 16.1874 25.2146 16.195ZM16.6286 19.0492C16.1415 19.3368 15.6507 19.6266 15.0781 19.8053C14.9024 19.8599 14.7635 19.6856 14.6501 19.5433C14.6135 19.4973 14.5795 19.4546 14.5478 19.4241C14.4941 19.3726 14.4439 19.3353 14.4021 19.3042C14.2712 19.2072 14.2235 19.1718 14.4187 18.957C14.6031 18.7536 14.9361 18.5845 15.2394 18.4306C15.3471 18.376 15.451 18.3232 15.5431 18.2715C15.9258 18.0568 16.3246 17.8559 16.7217 17.6594C17.3316 17.3581 17.9002 17.0538 18.4929 16.7313C18.8648 16.5287 19.2099 16.4002 19.5207 16.6644C19.6874 16.8061 19.9771 17.1197 19.9217 17.3072C19.8038 17.7065 18.7216 18.0968 18.1277 18.3109C18.0343 18.3446 17.9529 18.3739 17.8893 18.3982C17.4412 18.5694 17.0362 18.8086 16.6286 19.0492ZM12.1884 21.672C11.9771 21.4555 12.0024 21.3009 12.1281 21.19C12.0527 21.1221 12.0139 21.0575 12.0393 21.0036C12.0944 20.8867 12.3402 20.8962 12.6498 20.974C12.7125 20.9597 12.7719 20.9481 12.8233 20.9387C13.1599 20.8767 13.8227 20.929 14.0872 21.225C14.3057 21.4695 14.3256 21.6464 14.2427 21.7694C14.2517 21.7824 14.2588 21.7949 14.2639 21.8069C14.3635 22.0419 14.1379 22.0456 13.8556 21.9769C13.7936 21.9898 13.7296 21.9981 13.6668 22.0025C13.2216 22.0332 12.5479 22.0401 12.1884 21.672ZM13.2849 18.7183C13.4212 18.6821 13.7219 19.0049 13.8835 19.1785C13.9188 19.2163 13.9474 19.2471 13.9663 19.2655C14.0622 19.3587 14.4589 19.7745 14.2033 19.8138C13.9933 19.8463 13.5826 19.4286 13.44 19.2774L13.4222 19.2586C13.3067 19.1377 12.9832 18.799 13.2849 18.7183ZM21.7713 34.3438C21.5907 34.4233 21.4103 34.5028 21.2317 34.586L19.4564 35.7823C18.6146 36.589 17.4219 37.5032 16.2616 37.8175L14.7472 38.7435L14.731 38.7674C14.4839 39.1344 14.2377 39.5001 13.8146 39.594C13.2386 39.7218 13.1029 39.274 12.9666 38.8242C12.9251 38.6871 12.8835 38.5497 12.8292 38.4284C12.6518 38.0315 12.4013 37.68 12.1517 37.3296L12.1508 37.3283C11.92 37.0043 11.6898 36.6812 11.5188 36.3238C11.4132 36.1035 11.3395 35.8578 11.266 35.613L11.2653 35.6105C11.2128 35.4357 11.1605 35.2612 11.0966 35.0969C11.0793 35.0523 11.0623 35.0095 11.0464 34.9695C10.8847 34.5631 10.8077 34.3697 11.104 33.9587C11.4731 33.4471 11.9888 33.2754 12.552 33.0879L12.5538 33.0873C12.6265 33.0631 12.6999 33.0386 12.774 33.0131C13.3588 32.8121 13.8975 32.5113 14.4375 32.2098C14.6871 32.0705 14.9371 31.931 15.1919 31.801C16.5372 31.1155 17.8886 30.4454 19.3257 29.9852C18.8203 29.4885 18.3391 28.9653 17.8582 28.4421C17.1177 27.6367 16.3774 26.8316 15.5486 26.1238C15.1549 25.7875 14.6856 25.4938 14.209 25.1956C13.2486 24.5945 12.2581 23.9746 11.7943 22.9494C11.5917 22.5013 11.9221 22.373 12.3192 22.2187L12.3239 22.2169C12.3716 22.1983 12.4204 22.1794 12.4693 22.1594C12.9545 21.9602 13.1679 21.9283 13.5358 22.3219C13.6376 22.4309 13.7369 22.5393 13.8352 22.6467C14.2431 23.092 14.6347 23.5195 15.1232 23.9071C15.2433 24.0024 15.3649 24.0967 15.4863 24.1908C15.8887 24.5029 16.2918 24.8155 16.6559 25.1757C16.8724 25.3898 17.0759 25.6168 17.2791 25.8434L17.2799 25.8443C17.5653 26.1627 17.8505 26.4808 18.172 26.7639C18.7266 27.2527 19.2923 27.5152 19.9323 27.8123L20.0721 27.8773C20.4641 28.0601 20.7243 28.3143 21.0249 28.632C21.0939 28.7048 21.1493 28.7702 21.1969 28.8264L21.1986 28.8284C21.2408 28.8784 21.2769 28.9211 21.3108 28.9551L23.2316 27.9578L23.3158 27.9142L23.411 27.9099L28.3497 27.6875L28.4245 27.6535L28.4649 27.6348C28.6417 27.5523 28.9634 27.4021 28.9536 27.6603L29.3255 27.6436C29.5592 27.5019 29.8025 27.3831 30.0366 27.2928C30.5914 27.0786 31.5735 27.1246 31.0716 27.8758C31.0456 27.9149 31.0189 27.9517 30.9916 27.9869C31.2007 28.2037 31.3318 28.45 31.0434 28.5639C30.7736 28.6705 30.5861 28.5989 30.4276 28.4762C30.3207 28.5421 30.21 28.6023 30.0968 28.6639L30.0957 28.6645C29.9324 28.7534 29.7639 28.8452 29.594 28.9607C29.3174 29.1488 29.1119 29.2191 28.8517 29.3083C28.8047 29.3243 28.7557 29.3411 28.7045 29.3592L28.0897 29.8381L28.082 29.844L28.0741 29.8497L26.0341 31.2926L25.9569 31.406C25.738 31.7281 25.5165 32.0542 25.2181 32.3218C24.8094 32.6876 24.3123 32.9755 23.8247 33.2578C23.6178 33.3776 23.4125 33.4964 23.2164 33.6199C22.7523 33.9119 22.2637 34.127 21.7774 34.3411L21.7713 34.3438ZM26.4507 28.6609C26.4886 28.6384 26.5266 28.616 26.5646 28.5938L23.6745 28.724C23.4226 28.9315 23.094 29.1204 22.9581 29.1933C22.7607 29.2992 22.5627 29.4048 22.3648 29.5103L22.3579 29.5139C21.7527 29.8366 21.1467 30.1596 20.5518 30.4996C20.2913 30.6485 20.0296 30.7496 19.7633 30.8526L19.7617 30.8532C19.5268 30.9441 19.2882 31.0364 19.0432 31.1644C18.5428 31.4246 18.0473 31.6972 17.5523 31.9696L17.5507 31.9704L17.5498 31.9709C17.3358 32.0887 17.1218 32.2065 16.9074 32.3232C16.6096 32.4855 16.3178 32.6719 16.0269 32.8577C15.6609 33.0917 15.2961 33.3248 14.9223 33.5077C14.7118 33.6108 14.4949 33.7037 14.2773 33.7969L14.2754 33.7977C13.804 33.9995 13.3297 34.2026 12.9095 34.5133C12.752 34.6296 12.662 34.7245 12.6203 34.8214L14.0749 38.1807L14.9492 37.6461C15.1823 37.4429 15.4189 37.2476 15.6994 37.1187C16.1241 36.9233 16.4323 36.6418 16.7521 36.3499C16.9402 36.178 17.1324 36.0026 17.3546 35.839C18.0639 35.3168 18.8339 34.8866 19.6035 34.4693C19.7065 34.4136 19.8124 34.3609 19.9185 34.3082C20.2292 34.1539 20.5421 33.9984 20.7921 33.7591C20.8938 33.662 20.9836 33.559 21.0728 33.4565C21.2133 33.2954 21.3526 33.1356 21.5352 33.002C21.706 32.8768 21.893 32.7976 22.079 32.7189C22.2413 32.6502 22.4027 32.5819 22.5517 32.4838C22.6797 32.399 22.7707 32.2897 22.8631 32.1787C22.9211 32.1091 22.9795 32.0389 23.048 31.9736C23.3032 31.731 23.6362 31.4496 23.9456 31.2876C24.2428 31.1324 24.5405 30.9673 24.8393 30.8015L24.842 30.8L24.8515 30.7948C25.1369 30.6366 25.4233 30.4778 25.7112 30.3266C25.8298 30.2642 25.9545 30.2174 26.0789 30.1708C26.1547 30.1424 26.2303 30.114 26.3043 30.0822L26.8352 29.7067L26.8368 29.7051C26.9415 29.6022 27.046 29.4995 27.1692 29.4283C27.2265 29.3951 27.2848 29.3695 27.3434 29.3473L27.5693 29.1875L28.2142 28.6852L28.216 28.6825C28.2529 28.6256 28.2898 28.5688 28.3284 28.5144L27.8803 28.5345C27.2633 28.9206 26.642 29.2988 26.0194 29.6739C25.7398 29.8424 25.471 29.4656 25.6048 29.2123C25.6895 29.0521 26.008 28.8903 26.2477 28.7686C26.3283 28.7277 26.4 28.6912 26.4507 28.6609ZM1.98016 28.7747C1.87543 28.6766 1.76921 28.5772 1.39304 28.631C0.815667 28.7134 0.678396 29.111 0.781349 29.4032L0.782544 29.4066C0.837558 29.5631 0.845105 29.5845 1.1338 29.6116C1.21731 29.6194 1.30236 29.6051 1.38745 29.5906C1.46109 29.5782 1.53482 29.5657 1.60776 29.5676C1.75853 29.5716 1.82376 29.5939 1.89841 29.6195C1.94981 29.6371 2.00568 29.6562 2.09701 29.672C2.53016 29.7462 2.58488 29.7504 2.78893 29.4903C2.87705 29.3782 3.3037 28.7607 2.6461 28.8941C2.20358 28.9838 2.09272 28.88 1.98016 28.7747ZM6.79216 24.2211C6.14992 24.1245 6.30961 25.3635 7.04867 25.3143C7.9549 25.2541 7.37304 24.3086 6.79216 24.2211ZM19.9493 20.5642C19.8203 20.7533 19.7296 20.965 19.6802 21.1838C19.5593 21.7216 19.6882 22.301 20.1169 22.6863C20.8292 23.3265 21.775 23.0338 22.5118 22.6171C22.5833 22.5768 22.6418 22.5276 22.7002 22.4785C22.7665 22.4229 22.8327 22.3673 22.9178 22.3244C22.9694 22.2984 23.0411 22.3159 23.1087 22.3324C23.1721 22.3478 23.232 22.3624 23.2686 22.3395C23.8622 21.9678 23.3589 20.7573 22.9911 20.4078C22.4229 19.8676 21.221 19.6766 20.4886 20.0618C20.2628 20.181 20.0857 20.3641 19.9493 20.5642ZM20.3059 23.679C19.9857 23.4252 19.7083 23.1294 19.482 22.8053C19.1582 22.3422 18.9382 21.8211 18.8457 21.2814C18.7509 20.7286 18.7927 20.14 19.0898 19.6471C19.6825 18.6637 21.1067 18.6109 22.1952 18.8063C22.3677 18.8372 22.5344 18.9039 22.7013 18.9706C22.8372 19.025 22.9732 19.0794 23.1125 19.1145C24.4433 19.4493 24.6328 21.3739 24.2948 22.3406C24.0093 23.1579 23.2885 23.8609 22.3744 24.1178C21.9866 24.2267 21.562 24.2553 21.1733 24.1493C20.8474 24.0603 20.5607 23.8811 20.3059 23.679ZM10.0073 30.4671C9.42843 31.5375 7.94266 30.9133 8.33119 29.8513C8.75092 28.7037 10.5546 29.4547 10.0073 30.4671ZM10.2959 28.8971C10.1761 28.74 9.97155 28.6425 9.74817 28.6265C9.00092 28.574 8.44129 28.7011 7.93853 29.3238C7.40687 29.9824 7.32201 30.924 8.02614 31.5179C8.9133 32.2659 10.0615 31.8738 10.6358 31.0523C11.179 30.2751 10.8083 29.5705 10.2959 28.8971ZM8.15274 19.331L8.15059 19.4031C8.13883 19.7757 8.17569 20.0149 8.52342 20.1413C9.01386 20.3198 9.20322 19.7862 9.25066 19.2841C9.28983 18.8686 9.17185 18.224 8.67828 18.2275C8.18407 18.2312 8.16493 18.9031 8.15274 19.331ZM9.72617 19.9741C9.51253 21.1751 8.63398 21.0439 7.8499 20.586C7.31987 20.2763 7.51667 18.6276 7.81501 18.2003C8.20548 17.6409 8.95466 17.337 9.41768 17.9658C9.78261 18.4614 9.83202 19.3793 9.72617 19.9741Z" fill="#FF7D01"/>
<path fill-rule="evenodd" clip-rule="evenodd" d="M69.1405 1.16608C68.5738 0.968774 67.9828 0.919227 67.3957 0.876093C67.0015 0.846726 66.7185 1.41476 66.8863 1.91306C67.1759 2.77199 67.6222 3.5254 68.3553 3.5566C69.1333 3.58963 70.1343 1.51204 69.1405 1.16608ZM65.7624 37.8384C65.4925 36.5445 64.394 36.7753 63.0906 37.0656C62.0263 36.5536 63.7976 35.6866 64.4988 35.7435C65.5341 35.8273 66.2748 36.7124 66.6303 37.4047L66.6452 37.4336C66.7627 37.6607 66.9566 38.0357 66.7374 38.2503C66.2736 38.704 65.8289 38.1551 65.7624 37.8384ZM63.4264 34.3911C64.9671 34.2721 63.644 32.7724 62.2696 33.1074C60.3331 33.5797 62.0343 34.4986 63.4264 34.3911ZM75.1674 35.3534C74.6842 34.7048 75.3178 33.8756 75.8017 33.4004C76.3652 32.8479 77.2828 32.9837 77.5676 33.6763C77.935 34.5705 77.5939 35.1432 76.7233 35.5311C76.1745 35.7759 75.5779 35.9038 75.1674 35.3534ZM51.0217 34.4029C50.2267 34.4488 49.2001 34.605 49.1638 35.1539C49.135 35.5755 49.5655 35.8156 50.2401 35.7198C50.6208 35.6655 51.4503 35.3763 51.6952 35.1754C52.0999 34.8427 51.832 34.3565 51.0217 34.4029ZM42.9355 31.145C42.6334 31.2945 42.7256 31.6864 43.0135 31.7651C43.2148 31.82 43.5717 31.6584 43.8615 31.5273C43.9786 31.4744 44.0847 31.4264 44.165 31.3996C44.6177 31.2486 45.0744 31.1906 45.5299 31.1327C45.8842 31.0877 46.2378 31.0427 46.5883 30.9543C46.9255 30.8692 47.2268 30.7032 47.5307 30.5359C47.8406 30.3652 48.1534 30.193 48.5096 30.1037C49.3114 29.9031 50.1733 29.8462 50.9977 29.9174C50.8912 30.4312 50.789 30.9468 50.8163 31.4732C50.197 30.7864 49.0384 30.7738 48.4102 31.4852C48.1569 31.7714 47.9974 32.3301 48.3264 32.6266C48.5313 32.8113 48.8651 32.787 49.194 32.7631C49.4208 32.7467 49.6453 32.7304 49.8236 32.7829C50.1257 32.872 50.3544 33.0528 50.5866 33.2364C50.6825 33.3123 50.7792 33.3889 50.8818 33.4594C51.2725 33.7289 51.7639 33.9312 52.2249 34.0605C52.6228 34.1714 53.0445 34.2329 53.4579 34.1818L53.4781 34.1794C53.9395 34.123 54.1752 34.0942 54.0961 33.6036C53.8874 32.3134 57.6841 31.8445 57.6336 32.9008C56.8526 32.2577 54.9312 32.6347 55.1181 33.8904C55.2077 34.4893 55.5916 34.437 56.0225 34.3784C56.123 34.3647 56.226 34.3506 56.3285 34.3444C56.9356 34.3077 57.33 34.5537 57.7881 34.8394C57.8745 34.8933 57.9631 34.9486 58.0559 35.0037C57.4319 35.5329 57.8179 36.0898 58.5127 35.78C58.5629 35.7579 58.6103 35.7355 58.6558 35.714C58.9157 35.5913 59.1147 35.4973 59.4418 35.6151C59.7369 35.7214 59.8626 35.9214 59.995 36.132C60.0717 36.2542 60.1507 36.3799 60.2662 36.4928C60.6487 36.8675 60.8622 36.6295 60.8449 36.1835C60.8247 35.6536 60.5374 35.1284 60.0931 34.8168C59.8789 34.6669 59.5851 34.5341 59.3145 34.5422C59.2429 34.5443 59.1526 34.5769 59.0582 34.6109C58.9017 34.6675 58.7342 34.7279 58.6239 34.6594C58.3995 34.52 58.5552 33.6265 58.6601 33.025C58.6944 32.8278 58.7234 32.6621 58.7316 32.5646C58.8018 31.7249 58.8547 30.8806 58.8428 30.0381C58.8255 28.8382 58.5204 27.8065 57.6639 26.9065C56.5646 25.7531 55.902 24.6042 55.9186 22.9772C55.936 21.2371 56.0628 19.491 56.1893 17.7464C56.2702 16.6296 56.3512 15.5133 56.4034 14.3997C56.4234 13.9739 56.4431 13.548 56.4626 13.122L56.4627 13.1201L56.4628 13.1187C56.5803 10.568 56.6979 8.01322 56.9001 5.46866C56.914 5.29403 56.9591 5.03989 57.012 4.74197C57.2504 3.40054 57.6464 1.17143 56.0519 1.3158C55.4285 1.32039 54.7915 1.4135 54.183 1.53993C52.8207 1.824 52.9397 3.36913 53.0283 4.5202C53.0429 4.71054 53.0568 4.89012 53.063 5.05142C53.1236 6.66521 53.1974 8.27781 53.2842 9.89046C53.4056 12.1514 53.5518 14.4111 53.7226 16.6692C53.7829 17.4638 53.8737 18.2564 53.9646 19.0488C54.1087 20.3052 54.2527 21.5612 54.2746 22.8244C54.2749 23.013 54.2793 23.2026 54.2838 23.392C54.3115 24.5794 54.3392 25.7588 53.3324 26.6295C53.1445 26.792 52.9387 26.9425 52.7322 27.0934C52.4179 27.3232 52.1018 27.5546 51.8447 27.8307C51.7363 27.9471 51.6688 28.0432 51.6136 28.1217C51.4754 28.3184 51.4148 28.4047 50.9828 28.4232C50.4653 28.445 49.9538 28.5289 49.4506 28.6444C47.2058 29.1611 44.9794 30.1329 42.9355 31.145ZM37.1061 27.2492C36.4592 26.4927 37.7217 26.2618 38.2777 26.385C38.5255 26.44 38.7857 26.6823 38.996 26.8782C39.0549 26.9331 39.1103 26.9846 39.1601 27.0271C39.5636 27.3709 39.9536 27.7313 40.3228 28.1072C40.3409 28.1256 40.3623 28.1472 40.3862 28.1713C40.7082 28.4959 41.4801 29.274 40.5911 28.9642C39.7767 28.6807 38.9927 28.2736 38.2285 27.8766C38.1109 27.8155 37.9939 27.7548 37.8772 27.6947C37.8161 27.6631 37.7467 27.6316 37.6744 27.5989C37.4666 27.5048 37.2347 27.3997 37.1061 27.2492ZM78.7449 27.472C79.8045 27.1323 81.0116 26.2634 81.2313 25.116C81.3549 24.4688 80.8471 23.4353 80.2335 24.1684C80.1272 24.2949 80.0292 24.4219 79.9337 24.5456C79.5111 25.0931 79.1371 25.5774 78.3148 25.6858C78.2133 25.6992 78.1133 25.7117 78.0151 25.7241C77.024 25.8492 76.1858 25.9549 75.3358 26.6126C74.8156 27.0158 74.4365 27.5225 74.0563 28.0309C73.793 28.3827 73.5293 28.7353 73.2178 29.0549C72.8304 29.4527 72.3615 29.7333 71.895 30.0124C71.2969 30.3703 70.7027 30.7257 70.2896 31.3227C69.9831 31.7661 69.7837 32.2769 69.6716 32.7978L69.6634 32.8357L69.6536 32.8802C69.5917 33.1595 69.5158 33.5019 69.668 33.7044C69.794 33.8712 70.1562 33.9856 70.3593 34.0077C70.7466 34.0512 71.0329 33.8903 71.3236 33.665C71.4061 33.6011 71.4875 33.5372 71.5683 33.4738C71.9868 33.1452 72.3911 32.8278 72.8745 32.5702C73.2078 32.392 73.5663 32.2522 73.921 32.1139C74.8906 31.7356 75.8317 31.3686 76.1502 30.2606C76.554 28.8559 77.2704 27.9452 78.7449 27.472ZM73.0426 15.6656C73.4175 15.4944 73.7873 15.9088 73.5706 16.2638C73.5684 16.2678 73.5655 16.2719 73.5627 16.2759C73.3965 16.5491 73.2672 16.8136 73.1913 17.1272C73.0326 17.7769 73.1034 18.452 73.1725 19.11L73.1816 19.1966C73.3421 20.7267 72.8237 21.7802 71.4455 22.4493L71.415 22.4641C70.7597 22.7827 70.2317 23.0395 70.1506 23.8289C70.0786 24.5303 69.9884 25.1613 69.6799 25.8051C69.4679 26.2484 69.1788 26.6206 68.8872 26.9961C68.7349 27.1921 68.5819 27.389 68.4389 27.5974C68.1849 27.9664 67.977 28.3642 67.7691 28.7622L67.7635 28.7731C67.5371 29.2047 66.8974 29.0767 66.8486 28.5904L66.8474 28.5771C66.8174 28.2659 66.8537 27.9207 66.9371 27.6199C67.058 27.1824 67.3247 26.8212 67.592 26.459C67.7758 26.21 67.96 25.9604 68.0975 25.6852C68.3444 25.1904 68.4586 24.6346 68.5723 24.0811C68.7545 23.1946 68.9354 22.314 69.6589 21.6995C69.8803 21.5116 70.1522 21.392 70.422 21.2733C70.8637 21.0792 71.2994 20.8876 71.4976 20.4029C71.6728 19.9744 71.6073 19.5178 71.5422 19.0642C71.5079 18.8248 71.4736 18.5861 71.4749 18.3529C71.479 17.6821 71.6638 17.0401 72.0506 16.4937C72.3501 16.0713 72.6575 15.8414 73.0426 15.6656ZM47.0844 20.6916C47.2251 20.8527 47.3746 21.0104 47.5249 21.1688C47.9253 21.591 48.3313 22.0191 48.5911 22.5357C48.8765 23.1033 48.7012 23.5069 48.5133 23.9391C48.3856 24.233 48.2521 24.5401 48.2538 24.9211C48.2574 25.6517 49.2747 27.1023 49.7482 25.883C49.8462 25.6304 49.8975 25.358 49.9488 25.0846C49.9937 24.8453 50.0387 24.6053 50.1156 24.3774C50.2671 23.9277 50.4152 23.4544 50.486 22.9829C50.6646 21.7908 50.1669 21.0614 49.2575 20.4023C48.4998 19.8533 48.0421 19.112 47.8859 18.189C47.8244 17.8262 47.8491 17.4476 47.8738 17.0714C47.8997 16.6758 47.9254 16.2828 47.8505 15.9138C47.7147 15.2456 47.3344 15.9028 47.1326 16.2517L47.1057 16.2983C46.3886 17.5318 46.0789 19.5391 47.0844 20.6916ZM63.1925 17.3365C63.2049 17.2162 63.2169 17.0994 63.2735 17.0307C63.3019 16.9965 63.3418 16.974 63.398 16.9687C64.0358 16.9131 64.1815 18.166 64.0953 18.7527C64.0579 19.0075 63.9225 19.2439 63.7908 19.4741C63.7174 19.6025 63.6451 19.7289 63.5915 19.8555C63.4172 20.2662 63.2853 20.7041 63.1807 21.1518C63.0265 21.8139 62.9362 22.4953 62.8461 23.1761C62.8148 23.4127 62.7833 23.6499 62.7494 23.8856C62.7318 24.0075 62.7166 24.1548 62.7001 24.3158C62.6251 25.0458 62.5209 26.0601 62.025 26.2905C61.2406 26.6552 61.3775 25.3466 61.4728 24.8311C61.6051 24.117 61.6402 23.4049 61.6754 22.6878C61.6931 22.3293 61.7108 21.9693 61.7407 21.6074C61.7803 21.1271 61.8632 20.6528 62.0441 20.2256C62.1678 19.9337 62.3318 19.7468 62.5004 19.5545C62.6035 19.437 62.7083 19.3176 62.8068 19.1709C63.0248 18.8463 63.0968 18.4362 63.1321 18.0206C63.1376 17.9552 63.1426 17.8896 63.1475 17.824L63.1476 17.8231C63.1582 17.6827 63.1686 17.5423 63.1853 17.4029C63.188 17.3809 63.1902 17.3586 63.1925 17.3365ZM40.6713 17.332C40.5555 16.9861 40.2497 16.8261 39.9656 17.1212C39.7724 17.3218 39.6839 17.7601 39.6554 18.0141C39.576 18.7233 39.9742 19.1016 40.4478 19.5518C40.5249 19.6252 40.6042 19.7005 40.6836 19.7794C41.3343 20.4259 41.6766 21.2199 42.0036 22.0177C42.3762 22.9257 42.9835 23.7403 43.6818 24.4867C43.9697 24.7943 44.3257 25.1635 44.7323 24.9489C45.0147 24.8003 45.1174 24.4948 45.0741 24.2327C44.9943 23.7491 44.5277 23.2229 44.1241 22.7677C43.9796 22.6049 43.8434 22.4512 43.7357 22.3117L43.6512 22.2025C42.4691 20.6737 41.2687 19.1212 40.6713 17.332ZM64.3561 15.5751C64.3466 15.5856 64.3371 15.5937 64.3282 15.6012C64.1327 15.7567 64.1126 15.1335 64.1188 15.0308C64.1427 14.6185 64.214 14.1539 64.3589 13.7707C64.4328 13.5753 64.511 13.3814 64.5895 13.1875C64.8055 12.6521 65.0221 12.1158 65.1489 11.5446C65.2401 11.1335 65.2256 10.7202 65.2111 10.3105C65.1971 9.91504 65.1832 9.52277 65.2648 9.13876C65.3929 8.5373 65.7662 8.0354 66.2141 7.66532C66.4609 7.4613 66.8186 7.64479 66.8314 7.98749C66.8754 9.18484 66.6581 10.366 66.2787 11.4818C65.8943 12.615 65.3612 13.6768 64.814 14.7205C64.7784 14.7885 64.7432 14.8571 64.7081 14.9256C64.6764 14.9873 64.6445 15.0496 64.6123 15.1111C64.5907 15.1523 64.5692 15.1985 64.5471 15.2463C64.4923 15.3644 64.433 15.4918 64.3561 15.5751ZM48.2288 12.9064C48.2801 12.8728 48.2922 12.8207 48.3043 12.7688C48.3101 12.7437 48.316 12.7185 48.3264 12.6956C48.3645 12.6117 48.4119 12.5288 48.4603 12.4459C48.5158 12.3502 48.574 12.2548 48.6321 12.1596C48.6947 12.0571 48.7571 11.9546 48.8164 11.8517L48.8228 11.8407C49.0904 11.3739 49.6443 10.4077 48.2725 10.2769C46.7697 10.1339 46.3122 11.0412 46.474 11.6234C46.5586 11.9277 46.8507 12.2443 47.1463 12.5064C47.3016 12.6436 47.4885 12.7954 47.7489 12.8851C47.8419 12.917 47.9544 12.9461 48.0707 12.9436C48.146 12.9422 48.1952 12.9282 48.2288 12.9064ZM55.1139 37.8563C53.7066 36.8123 55.5284 34.8985 56.5765 36.1525C56.9622 36.6137 57.6672 37.5929 57.1185 38.2159C56.6671 38.7295 55.5262 38.1625 55.1139 37.8563Z" fill="#FF7D01"/>
<path d="M66.124 53.7844C67.2051 52.8383 68.1252 51.7186 68.8224 50.4774C69.3764 49.4913 69.7901 48.4417 70.2041 47.3913C70.4737 46.7071 70.7436 46.0224 71.0524 45.355C71.4408 44.5154 71.8368 43.6551 72.0748 42.7615C72.0838 42.7274 72.0957 42.686 72.1091 42.6391C72.2182 42.2595 72.4317 41.5159 72.088 41.3093C71.4839 40.9456 70.8771 42.3882 70.7471 42.7263C70.2563 44.0016 69.5908 45.2138 68.7724 46.3195C68.1626 47.1447 67.2384 47.9909 66.22 47.7595C65.6161 47.6222 65.2092 47.1568 64.796 46.6843C64.4986 46.3442 64.198 46.0004 63.8182 45.7723C62.5682 45.0214 60.9584 45.7299 59.6985 46.4663C58.4393 47.2032 56.9077 47.9943 55.5835 47.3733C54.9251 47.0645 54.4985 46.4803 54.0677 45.8905C53.8021 45.5268 53.535 45.1609 53.211 44.8562C52.3644 44.0596 51.092 43.7154 49.9431 43.9715C49.6652 44.0336 49.3853 44.128 49.1058 44.2222C48.4119 44.4562 47.72 44.6895 47.0649 44.4278C46.2778 44.1134 46.0149 43.3039 45.7451 42.4733C45.5938 42.0071 45.4403 41.5342 45.1907 41.1386C44.6499 40.2805 43.5527 39.7885 42.5285 39.9436C42.4814 38.3475 42.5699 36.747 42.7941 35.1649C42.8296 34.9149 42.9423 34.5998 43.2021 34.6009C43.3458 34.6014 43.463 34.708 43.5653 34.8062C47.1562 38.2639 52.1495 39.9922 57.1036 40.9807C60.6296 41.6842 64.2907 42.0629 67.8235 41.3925C68.8499 41.1978 69.8908 40.8987 70.6983 40.2527C71.5053 39.6072 72.0299 38.544 71.765 37.5616C71.596 36.9345 71.1408 36.4223 70.6753 35.9571C68.266 33.5504 65.0521 31.5454 61.6567 30.7822C61.4776 30.7419 61.2897 30.6791 61.0976 30.6148C60.6887 30.4781 60.2605 30.3348 59.8577 30.3884C59.6083 30.4208 59.3589 30.5915 59.325 30.8336C59.2767 31.1817 59.656 31.4282 59.9831 31.5794C60.1577 31.66 60.3333 31.7397 60.5097 31.8187C60.1191 32.0138 59.8704 32.6228 60.1752 32.8709C60.4825 33.1213 61.0745 33.0654 61.5731 33.0183L61.5745 33.0182C61.7571 33.0009 61.9271 32.9849 62.0658 32.9857C62.3494 32.987 62.5465 32.8937 62.6559 32.7608C64.9975 33.7957 67.2882 34.9227 68.9505 36.7894C69.8592 37.8097 70.1264 39.0125 68.5126 39.3233C66.1482 39.778 63.7096 39.7578 61.31 39.5325C58.7618 39.2932 56.237 38.8228 53.7783 38.1316L53.5538 38.0686C51.2763 37.4293 48.6232 36.6844 46.6648 35.3958C46.0933 35.0198 45.5576 34.569 45.027 34.1224C44.7893 33.9224 44.5526 33.7233 44.3142 33.532C44.2471 33.4782 44.186 33.4259 44.1286 33.3766L44.1255 33.374C43.8136 33.1067 43.6076 32.9301 43.1211 33.0879L43.0676 33.1052C42.769 33.2018 42.4632 33.3008 42.1687 33.407C41.432 33.673 41.4671 33.979 41.5195 34.4348C41.5421 34.6312 41.5679 34.8552 41.5365 35.1158C41.5123 35.318 41.488 35.5187 41.4638 35.7182L41.458 35.7659L41.4578 35.7672C41.0459 39.1613 40.6773 42.1984 41.4819 45.6562C41.9336 47.5971 42.6389 49.5407 43.9848 51.0414C44.6911 51.5741 46.0222 52.1977 45.6959 50.4305C44.6499 49.0302 43.9239 47.4303 43.4107 45.7801C43.2815 45.3645 43.1653 44.9455 43.0584 44.5238C43.0437 44.4654 43.0155 44.3827 42.9832 44.288C42.8869 44.0053 42.7547 43.617 42.8394 43.4616C43.2699 42.671 44.1613 43.986 44.3222 44.2771C44.4877 44.5772 44.6285 44.9011 44.7696 45.2255L44.7701 45.2267C45.2165 46.2535 45.6654 47.2859 46.9022 47.5859C47.6586 47.7689 48.3373 47.6501 48.9879 47.2501C49.1293 47.1635 49.2673 47.0566 49.4071 46.9484C49.7049 46.7179 50.011 46.4811 50.3759 46.4189C51.7303 46.1884 52.6268 47.2592 53.4326 48.2216C53.6389 48.4681 53.8392 48.7074 54.0397 48.9159C55.0657 49.9831 55.7697 50.6012 57.2749 49.9769C57.5521 49.8619 57.8347 49.7364 58.1218 49.6087C59.2593 49.1028 60.4666 48.566 61.6882 48.5388C62.5003 48.5198 63.2475 48.7731 63.8981 49.24C64.1144 49.3953 64.3216 49.5818 64.5311 49.7703C64.9288 50.1283 65.3347 50.4936 65.8263 50.6665C66.0683 50.7513 66.139 51.0531 65.9637 51.2361C65.3562 51.8692 64.6711 52.4054 63.9355 52.9097C63.4324 53.2541 62.9983 53.6447 62.5622 54.0371C62.2785 54.2924 61.9938 54.5485 61.6888 54.7931C60.38 55.6863 60.6046 56.341 60.8805 56.5567C62.5455 56.6638 62.9831 55.9333 64.343 55.0976C64.9734 54.71 65.57 54.2698 66.124 53.7844Z" fill="#FF7D01"/>
<path fill-rule="evenodd" clip-rule="evenodd" d="M64.4669 57.2989C64.5549 57.2893 64.6429 57.3181 64.7309 57.3469C64.9557 57.4237 65.4739 57.5582 65.6206 57.7598C65.7673 57.9614 65.6695 58.067 65.5815 58.3166C65.2588 59.2286 65.7379 60.1214 66.7645 60.0638C67.1947 60.0446 67.6054 59.843 67.9672 59.6126C68.1138 59.5166 68.28 59.4014 68.456 59.4302C68.6027 59.4398 68.72 59.5358 68.8178 59.6222C69.2969 60.035 69.7368 60.4958 70.0497 61.0527C70.431 61.7439 70.7048 62.7231 70.1768 63.4047C69.8933 63.7695 69.5022 64.0095 69.16 64.3168C68.8178 64.624 68.5147 65.0272 68.5049 65.488C68.5049 65.7472 68.6027 66.0064 68.6222 66.2656C68.6711 66.6976 68.5049 67.1584 68.2018 67.456C67.9574 67.6961 67.6347 67.8401 67.3023 67.8593C67.0579 67.8689 66.7548 67.7633 66.5592 67.9745C66.3832 68.1665 66.3832 68.9537 66.2463 69.1745C65.9041 69.7409 65.4642 69.8465 65.4153 70.2209C65.3175 71.0562 65.3957 71.997 65.4544 72.8418C65.601 75.0883 65.1122 77.642 63.9976 78.506C62.707 79.5044 60.9568 79.418 59.5684 80.1284C58.2192 80.81 56.9872 81.6357 55.5891 82.2309C54.1127 82.8549 52.5874 83.2773 51.0524 83.7093C45.01 85.4086 38.9383 86.407 32.7101 85.063C31.8888 84.8806 31.0675 84.6694 30.2951 84.3141C29.1219 83.7669 28.0952 82.8933 27.3326 81.8085C26.8731 81.1557 26.4722 80.4452 26.3451 79.6388C26.2962 79.3124 26.2864 78.9764 26.1984 78.65C26.1691 78.5444 26.13 78.4292 26.0518 78.362C25.8856 78.2276 25.2598 78.4388 25.0545 78.4484C24.683 78.458 24.3016 78.4388 23.9399 78.3428C23.3239 78.1988 22.7275 77.9492 22.1017 77.882C21.916 77.8628 21.7302 77.8532 21.5738 77.7476C21.1631 77.4595 21.4955 76.6147 21.1436 76.4227C21.0947 76.3939 21.0262 76.4035 20.9773 76.4131C20.1756 76.5187 19.3543 76.6915 18.8361 75.8563C18.5232 75.3475 18.4646 74.7235 18.4646 74.1187C18.4646 73.3506 18.5037 72.5634 18.357 71.8146C18.3081 71.5554 18.4939 71.3154 18.7383 71.3058C19.1099 71.2866 19.4814 71.277 19.8432 71.2482C20.3516 71.2098 20.8502 71.0082 21.212 70.6241C21.4369 70.3745 21.7498 70.3265 21.7791 70.0961C21.7986 69.8945 21.4271 69.4337 21.3489 69.2513C21.1925 68.8673 21.212 68.4929 21.2413 68.0897C21.2511 67.9073 21.4173 67.7633 21.5933 67.8017C21.9257 67.8593 22.2777 67.9265 22.5906 67.8977C22.9817 67.8593 23.3043 67.5809 23.6563 67.3888C23.9594 67.2256 24.3896 67.1296 24.6438 66.9088C24.8687 66.7072 24.9861 66.304 25.1718 66.0352C25.4456 65.6224 25.602 65.344 26.042 65.2C26.4135 65.0752 26.834 64.9888 27.2251 64.9408C27.6064 64.8928 28.0757 64.8352 28.4472 64.912C28.7992 64.9792 29.0632 65.1808 29.4543 65.0944C29.5521 65.0752 29.6401 65.0368 29.6987 64.9504C29.9529 64.5952 29.1219 63.8847 29.7965 63.5295C30.2169 63.3087 30.7644 63.5295 31.2142 63.4335C31.6248 63.3471 32.0062 63.0783 32.407 62.9439C32.7981 62.8191 33.5216 62.5119 33.903 62.6271C34.4114 62.7903 34.6069 63.2223 35.1642 63.2703C35.8682 63.3279 35.966 63.2607 36.3473 63.8751C36.6113 64.2976 36.8068 64.7488 37.0708 65.1616C37.3739 65.6512 37.5401 65.8816 38.0583 66.0064C38.6254 66.1408 38.8992 66.16 39.3978 66.0736C39.5249 66.0544 39.6031 65.92 39.564 65.7952L39.4272 65.2864C39.3978 65.1712 39.4663 65.0464 39.5836 65.0272C39.9356 64.9696 40.2876 64.9024 40.6298 64.8352C40.9231 64.7776 41.7639 64.7392 41.9301 64.528C42.1159 64.2976 42.0377 63.5103 41.9986 63.2031C41.9301 62.6367 41.7346 62.3967 42.1355 61.9359C42.4875 61.5423 42.8394 61.3599 43.3772 61.3983C43.8563 61.4271 44.3451 61.5807 44.8145 61.4751C45.2544 61.3791 45.626 61.0527 46.0757 60.9567C46.7699 60.7934 47.1806 60.8703 47.6205 60.2174C47.7183 60.0734 47.8454 59.9294 48.0214 59.9102C48.1387 59.891 48.2561 59.939 48.3636 59.9774C49.4782 60.3902 50.8862 60.5918 51.7564 61.4655C51.9519 61.6575 52.1279 61.8783 52.3625 62.0031C52.9199 62.3103 53.3989 61.9071 53.9465 61.9455C54.4451 61.9743 54.8362 62.4831 55.3544 62.4063C55.5793 62.3775 55.7651 62.2239 55.9215 62.0511C56.4104 61.5135 56.7135 60.7166 57.3783 60.467C58.1409 60.179 59.0405 60.7262 59.7738 60.371C60.028 60.2462 60.2235 60.035 60.4386 59.8526C61.5337 58.9214 63.1567 58.7678 64.0562 57.635C64.1736 57.491 64.2909 57.3277 64.4669 57.2989ZM62.8145 71.7666C62.3745 72.0066 61.9443 72.237 61.4946 72.4482C61.0546 72.6594 60.6733 72.621 60.1844 72.621C59.676 72.621 59.3338 72.7362 58.8449 72.8898C58.3854 73.0338 58.0334 72.9954 57.5445 72.9666C57.3783 72.957 56.9677 73.0146 56.821 72.9282C56.6646 72.8322 56.6352 72.5442 56.4886 72.4386C56.1757 72.1986 55.7064 72.5922 55.3055 72.7362C54.9242 72.861 54.3767 72.861 54.0442 73.0722C53.6434 73.3218 53.4869 74.0034 53.0861 74.2338C52.7634 74.4258 52.1768 74.205 51.7759 74.1378C50.9253 74.0034 50.0942 74.0514 49.2631 74.3107C48.4223 74.5699 47.2881 74.7427 46.8481 75.5683C46.5646 76.1059 46.5646 76.4515 45.978 76.4323C45.538 76.4227 45.0882 76.4323 44.6482 76.3651C44.1789 76.2883 43.7194 76.1059 43.2501 76.0963C42.8101 76.0867 42.3604 76.1827 41.9106 76.1827C41.3533 76.1731 40.9818 75.9235 40.796 76.5091C40.62 77.0659 40.2289 77.0755 39.7009 77.2963C38.8894 77.642 38.0485 77.4979 37.2175 77.7956C36.7091 77.978 36.4646 78.074 35.9366 78.0068C35.4771 77.9492 35.0274 77.882 34.5678 77.8052C34.1083 77.7284 33.727 77.6804 33.3065 77.4788C32.8666 77.2771 32.4853 77.0659 32.0159 76.9795C31.4391 76.8739 31.1262 76.8835 30.7156 76.4707C30.2365 76.0003 30.2169 76.0579 29.5716 76.2211C28.9459 76.3843 28.8872 76.5091 28.6428 77.1715C28.4668 77.6324 28.3494 77.8532 28.5743 78.2756C29.0241 79.1108 29.6009 79.85 30.08 80.6564C30.3929 81.1844 30.5005 82.0389 31.0284 82.3941C31.2435 82.5381 31.5075 82.5861 31.7617 82.6245C34.6852 83.0565 37.6183 83.4789 40.5711 83.4597C41.6857 83.4501 42.8101 83.3829 43.8954 83.1141C45.1469 82.8165 46.3299 82.2693 47.5521 81.8757C49.1165 81.3765 50.7395 81.1172 52.3332 80.7332C53.6238 80.426 54.9047 80.0324 56.1464 79.562C57.4761 79.0628 58.7667 78.4676 60.0182 77.786C61.1621 77.1715 61.9639 76.7299 62.5505 75.5299C62.8341 74.9539 62.9807 74.3203 63.0198 73.6674C63.0394 73.5042 62.8438 71.7474 62.8145 71.7666ZM37.3348 71.5266C37.7259 72.0066 38.0192 72.6594 38.2441 73.3314C38.3028 73.2354 38.381 73.1586 38.4592 73.0914C38.7819 72.8226 39.2414 72.7458 39.6227 72.8898C39.9356 73.005 40.1898 73.2546 40.4635 73.4562C41.3826 74.1283 42.595 74.3107 43.6607 73.9074C44.5994 73.5618 45.1762 72.6306 46.1051 72.2658C46.4375 72.141 46.7993 72.1026 47.1121 71.9298C47.3468 71.805 47.5521 71.6034 47.7379 71.4114C48.0899 71.0562 48.4516 70.701 48.8036 70.3457C48.8623 70.2785 48.9307 70.2209 48.96 70.1345C49.0089 70.0097 48.9796 69.8753 48.9503 69.7409C48.9307 69.5969 48.8916 69.4625 48.8525 69.3281C47.7379 70.1633 45.4402 72.573 43.6705 72.573H40.6884C40.6884 72.573 42.3408 71.5266 38.909 71.5266H37.3348ZM63.9487 65.7568C63.4305 67.1008 63.6847 67.264 62.9123 67.264C62.443 67.264 62.0714 68.9249 61.6706 70.2497C61.8172 70.2209 61.9639 70.1633 62.1105 70.0577C62.3745 69.8561 62.5701 69.5585 62.8438 69.3569C63.1274 69.1457 63.4794 69.0689 63.802 68.9153C64.1247 68.7617 64.4375 68.5121 64.4864 68.1473C64.5451 67.7441 64.2518 67.2736 64.4962 66.9472C64.5842 66.832 64.7211 66.7744 64.858 66.7168C65.4837 66.4576 66.1583 66.1312 66.6179 65.6416C65.1708 64.8544 64.2811 64.8928 63.9487 65.7568ZM34.5189 64.7872C33.8834 64.4032 33.6292 63.6351 32.7492 63.9903C32.3288 64.1535 32.0159 64.528 31.84 64.9504C31.7715 65.104 31.7226 65.2672 31.6346 65.4016C31.4293 65.7184 31.048 65.8528 30.7058 65.968C29.5618 66.352 28.4081 66.736 27.2642 67.12L28.7796 66.6112H31.6835C32.6808 66.6016 31.576 66.5056 32.231 65.008L32.3093 64.8448C32.7199 64.0191 33.7563 64.48 35.4282 66.2368C35.6531 66.2368 35.878 66.2752 36.0931 66.3136C36.2593 66.3424 36.4255 66.3808 36.582 66.3424C36.7482 66.304 36.8948 66.1696 36.8948 65.9968C36.8948 65.8528 36.7873 65.7376 36.6797 65.6416C36.054 65.0848 35.2034 65.2 34.5189 64.7872ZM50.8568 62.0511C50.2995 62.0319 49.7324 62.1087 49.1947 62.2815C48.8427 62.3967 48.4516 62.5983 48.3832 62.9727C48.3245 63.2991 48.481 63.7311 48.2072 63.8847C48.1094 63.9327 48.0019 63.9231 47.8943 63.9135C46.9753 63.7887 46.0757 63.2511 45.1567 63.0495C44.8047 62.9727 44.3451 62.9535 44.1887 63.2895C44.1007 63.4815 44.1594 63.7023 44.1692 63.9135C44.1985 64.432 43.9247 64.9312 43.5239 65.2384C45.7433 65.1424 50.192 63.0879 50.192 64.48C50.192 64.9888 50.1724 65.6224 50.1333 66.256C50.4266 65.8432 50.8177 65.4208 51.2088 65.0464C51.2382 64.9504 51.2675 64.864 51.3164 64.7776C51.4728 64.4512 51.7368 64.2015 51.9519 63.9135C52.167 63.6255 52.3332 63.2703 52.2648 62.9151C52.1474 62.3103 51.4435 62.0703 50.8568 62.0511ZM49.1654 49.8779C50.2115 49.8299 51.2675 49.7915 52.3039 49.9547C53.2816 50.1083 54.2202 50.4539 55.198 50.646C55.9019 50.7804 56.6352 50.838 57.2708 51.1548C58.3169 51.6828 59.6369 52.95 60.292 53.8716C60.9177 54.7645 61.7292 55.9933 61.7585 57.0877C61.7585 57.3181 61.7194 57.587 61.5141 57.7118C61.2697 57.8654 60.9373 57.7502 60.7515 57.5486C60.5657 57.347 60.4875 57.0781 60.3799 56.8381C59.5978 54.9277 57.349 53.9676 55.2762 53.3052C52.6559 52.47 49.9182 51.798 47.1512 51.9228C45.8215 51.9804 44.5114 52.2204 43.211 52.4796C40.6982 52.9788 38.1854 53.5452 35.8095 54.4381C33.7368 55.2157 31.2729 56.0413 29.425 57.1933C28.0561 58.0478 27.3131 59.2478 26.7362 60.6398C26.4429 61.3407 24.4776 65.296 23.4803 64.1824C22.7764 63.3951 22.9817 61.9839 23.2066 61.0815C23.5292 59.8334 24.2039 58.5758 24.8589 57.6446C26.1593 55.8301 28.2223 54.6205 30.3342 53.6604C34.2452 51.8844 38.4983 50.7708 42.8297 50.2811C44.9318 50.0603 47.0535 49.9739 49.1654 49.8779ZM61.5728 61.8303C61.2012 61.7727 60.8102 61.7439 60.4386 61.7823C60.7026 61.9839 60.8395 62.0799 60.8395 62.0799H62.1399V61.9167C61.9639 61.8975 61.7781 61.8591 61.5728 61.8303ZM64.1442 59.8526C64.0171 59.795 63.8607 59.8526 63.7531 59.9486C63.6456 60.0446 63.5869 60.179 63.5282 60.323C63.4989 60.3902 63.4794 60.467 63.45 60.5438L63.9487 60.3326L64.3691 60.4958C64.3691 60.3998 64.3789 60.2942 64.3691 60.1982C64.3398 60.0542 64.2713 59.9102 64.1442 59.8526Z" fill="#FF7D01"/>
</svg>
