<svg width="70" height="84" viewBox="0 0 70 84" fill="none" xmlns="http://www.w3.org/2000/svg">
<path fill-rule="evenodd" clip-rule="evenodd" d="M39.1498 3.00656C39.2016 2.99922 39.2532 2.9927 39.3042 2.99024C39.5737 2.97813 39.7842 3.11392 39.9928 3.24836C40.1915 3.37634 40.3881 3.50313 40.6319 3.49994C41.3398 3.49179 41.5384 2.07606 41.6142 1.51091C41.6295 1.39836 41.6418 1.28012 41.6098 1.17166C41.5001 0.79547 41.0641 0.850524 40.7456 0.890743C40.6795 0.899088 40.6185 0.906795 40.5665 0.909877C40.4973 0.913955 40.4261 0.917218 40.3613 0.890305C40.2703 0.852791 40.207 0.762271 40.1503 0.675011C39.7487 0.0601153 39.1237 -0.315835 38.5591 0.357777C38.2477 0.72965 38.1422 1.26218 38.1037 1.77106C38.0855 2.01 38.0797 2.25546 38.1422 2.48544C38.2048 2.7146 38.3475 2.92827 38.5489 3.009C38.7129 3.07536 38.8868 3.04779 39.0619 3.02006C39.0912 3.01542 39.1205 3.01077 39.1498 3.00656ZM23.4076 8.73365C24.3055 8.44936 25.0753 7.98837 25.8392 7.53086C26.4784 7.14802 27.1136 6.7676 27.8163 6.49522C27.9161 6.45653 28.0436 6.40988 28.1901 6.3563C29.1215 6.01562 30.8188 5.39483 31.0036 4.75958C31.0905 4.4612 30.6362 3.96238 30.3748 3.73688C29.8873 3.31665 29.3461 3.52107 28.7628 3.84337C27.8333 4.35642 26.9417 4.84045 25.9852 5.3199C25.3624 5.63253 24.7371 5.95198 24.1369 6.29363C23.9924 6.37587 23.8294 6.45979 23.6605 6.54676C23.185 6.79159 22.6627 7.06055 22.3735 7.3841C22.0674 7.72586 22.1421 7.78214 22.3474 7.93655C22.413 7.9859 22.4918 8.04528 22.5759 8.12721C22.6257 8.17577 22.679 8.24367 22.7365 8.31689C22.9143 8.54331 23.1322 8.82056 23.4076 8.73365ZM18.7813 10.9365C18.5841 11.113 18.5444 11.3589 18.8758 11.7034C19.4396 12.2889 20.4961 12.278 21.1943 12.229C21.2928 12.2222 21.3932 12.2089 21.4905 12.1884C21.9331 12.2977 22.2869 12.2917 22.1307 11.918C22.1228 11.8988 22.1116 11.8789 22.0975 11.8582C22.2275 11.6626 22.1963 11.3812 21.8537 10.9923C21.4389 10.5214 20.3994 10.4381 19.8715 10.5367C19.791 10.5518 19.6978 10.5702 19.5995 10.5929C19.114 10.4691 18.7285 10.4541 18.642 10.6401C18.6022 10.7258 18.6631 10.8286 18.7813 10.9365ZM21.5341 7.73648C21.2807 7.46038 20.8092 6.94689 20.5955 7.00446C20.1223 7.13279 20.6296 7.67156 20.8107 7.86392L20.8387 7.89378C21.0623 8.13432 21.7064 8.79885 22.0357 8.74714C22.4366 8.68465 21.8144 8.02327 21.664 7.87491C21.6345 7.84566 21.5895 7.79672 21.5341 7.73648ZM65.1376 73.5619C66.3926 72.9453 68.8331 71.7462 68.796 71.6454C68.7883 71.6193 68.7759 71.5695 68.7589 71.5014C68.6712 71.1486 68.4604 70.3006 68.1358 69.6584C67.6772 69.9045 67.232 70.1584 66.7899 70.4104C65.7109 71.0257 64.6503 71.6303 63.4585 72.0854C62.1685 72.5777 60.9724 73.29 59.7867 73.996C59.5559 74.1334 59.3254 74.2706 59.0948 74.4059C57.4762 75.3559 55.8392 76.2326 54.1499 77.0586C53.3258 77.4618 52.5271 77.9062 51.7299 78.3498C50.9889 78.7622 50.249 79.1739 49.4911 79.5511C49.5726 79.6678 49.6514 79.7901 49.7302 79.9125C50.1166 80.5125 50.5018 81.1105 51.1987 81.0265C51.7068 80.9652 52.217 80.6341 52.7198 80.3078C53.0637 80.0844 53.4043 79.8634 53.7382 79.7326C55.7425 78.9496 57.6556 78.0432 59.5894 77.108C60.0815 76.8701 60.4886 76.5168 60.9014 76.1584C61.1776 75.9188 61.4562 75.677 61.7647 75.4657C62.6412 74.865 63.4961 74.3985 64.4423 73.9062C64.5258 73.8626 64.7795 73.7379 65.1252 73.5681L65.127 73.5672L65.1297 73.5659L65.1329 73.5643L65.1338 73.5638L65.1376 73.5619ZM29.0583 49.7595L29.3366 50.1891C29.489 50.43 29.6408 50.6714 29.7926 50.9126C30.2422 51.627 30.6918 52.3416 31.1554 53.0477C31.1937 53.1058 31.248 53.206 31.3117 53.3236C31.4931 53.6581 31.7509 54.1339 31.9336 54.1837C32.102 54.2292 33.1349 53.5886 33.7185 53.2266C33.8927 53.1186 34.0267 53.0355 34.086 53.0027C34.8383 52.5892 35.6241 52.2518 36.4107 51.9141C37.1138 51.6122 37.8176 51.3101 38.4987 50.9531C38.8044 50.7929 39.1311 50.6307 39.4666 50.4642C40.6068 49.898 41.8507 49.2802 42.7328 48.5188C42.7788 48.4791 42.8271 48.4449 42.8732 48.4122C43.0176 48.3098 43.1392 48.2235 43.0962 48.0383C43.0692 47.9217 43.0388 47.8057 43.0084 47.6897C42.9326 47.4008 42.8567 47.1118 42.8332 46.8138C42.7873 46.2311 42.8583 46.1929 43.3307 45.9391L43.4001 45.9017C43.4371 45.8817 43.4764 45.8603 43.5179 45.8373C44.8445 45.1037 46.1196 44.3125 47.4017 43.5079C48.6039 42.7536 49.8346 42.0501 51.0967 41.3948C51.4709 41.1999 51.8466 41.0066 52.2223 40.8153C52.4838 40.6817 52.7452 40.5497 53.0082 40.4183C52.959 40.3197 52.8984 40.1559 52.8405 39.9997C52.7957 39.8786 52.7525 39.7619 52.7176 39.6838C52.5982 39.3909 52.4549 39.0511 52.3065 38.6991L52.306 38.6979C52.1155 38.2461 51.9164 37.7739 51.7485 37.3552C50.2919 38.2073 48.8226 38.9665 47.3388 39.733L47.3372 39.734C46.9657 39.9258 46.5933 40.1183 46.2201 40.3128C45.3825 40.749 44.5836 41.2431 43.7861 41.7362L43.7852 41.7367C42.8781 42.2975 41.9727 42.8572 41.0144 43.3301C36.9644 45.3295 32.988 47.5482 29.0583 49.7595ZM31.9853 43.0366C30.7992 43.7284 29.6136 44.42 28.3866 45.055C28.1467 45.1789 27.9058 45.3005 27.6649 45.4221L27.664 45.4226C27.2999 45.6063 26.9358 45.7902 26.5755 45.982C27.1636 46.8333 27.7249 47.7004 28.2863 48.5677C28.3976 48.7397 28.509 48.9116 28.6204 49.0834C29.8651 48.2768 31.186 47.6306 32.5107 46.9826C33.1519 46.6689 33.794 46.3549 34.4288 46.0219C35.357 45.5348 36.2468 45.0031 37.1368 44.4714L37.1377 44.4708C38.0103 43.9493 38.8833 43.4277 39.7922 42.9484C40.0207 42.8282 40.1205 42.5543 39.9977 42.3328C39.7708 41.9218 39.6589 41.3822 39.6297 41.0013L39.6254 40.9463C39.6052 40.6906 39.595 40.5618 39.6466 40.465C39.6991 40.3667 39.8154 40.3017 40.0499 40.1706C40.0918 40.1471 40.1375 40.1217 40.1871 40.0935C40.3634 39.9936 40.5399 39.8941 40.7161 39.7947L40.7172 39.7942L40.7181 39.7937C41.5869 39.3039 42.4534 38.8153 43.2949 38.28C45.5806 36.8238 47.9208 35.524 50.3645 34.329C50.1352 33.9009 49.7334 33.0041 49.7334 33.0041C49.4075 33.0041 48.8701 33.4544 48.4727 33.7877C48.3258 33.9107 48.1981 34.0178 48.1071 34.0802C47.2138 34.6921 46.2714 35.239 45.2984 35.7218C43.5804 36.5731 42.0234 37.5266 40.4271 38.5041C40.1675 38.6631 39.9069 38.8227 39.6443 38.9827C38.6254 39.6027 37.5378 40.124 36.4497 40.6454C35.547 41.078 34.644 41.5107 33.78 42C33.1782 42.3408 32.5817 42.6887 31.9853 43.0366ZM47.2636 46.7607C46.0392 47.4354 44.8163 48.1094 43.6062 48.7972C41.0183 50.2689 38.3841 51.6701 35.7509 53.0708L35.75 53.0713L35.7489 53.0718C34.6574 53.6525 33.5658 54.2333 32.4781 54.8185C32.5702 54.9183 32.6622 55.0172 32.7541 55.1158C33.3745 55.782 33.9824 56.4349 34.474 57.207C35.4237 56.6351 36.4131 56.1562 37.4041 55.6765L37.4051 55.6761C37.9883 55.3938 38.5722 55.1111 39.1489 54.8089C39.8481 54.4427 40.5212 54.0104 41.1944 53.5781C42.081 53.0086 42.9681 52.439 43.9152 52.0197C42.9269 50.7765 43.5649 50.3754 44.6322 49.7046L44.7509 49.6298C45.8106 48.9611 46.8863 48.3138 47.9637 47.6709C48.9559 47.0782 49.9657 46.5202 50.9848 45.9711C51.4131 45.7402 51.8458 45.5174 52.2783 45.2945C52.8442 45.0027 53.4104 44.7111 53.9667 44.4019C53.9665 44.402 53.9676 44.4015 53.9697 44.4004L53.986 44.3924C54.1232 44.3251 54.9471 43.9212 54.9604 43.8719C55.0052 43.7069 54.6772 43.2257 54.4712 42.9235C54.4092 42.8325 54.3581 42.7574 54.3317 42.7124C52.026 44.1361 49.642 45.4499 47.2636 46.7607ZM60.4955 55.2669C60.4186 55.1162 60.3419 54.966 60.3002 54.8007C60.2941 54.7756 60.288 54.7497 60.2834 54.724C60.2742 54.6701 60.0825 54.084 60.0234 54.1201C59.1568 54.6575 58.2999 55.211 57.4427 55.7646C55.907 56.7563 54.3704 57.7487 52.7767 58.6492C52.5356 58.7853 52.2946 58.9241 52.0531 59.0634C51.2839 59.5068 50.5086 59.9539 49.7058 60.3246C49.652 60.3493 49.6021 60.3735 49.555 60.3964C49.2687 60.5354 49.0832 60.6254 48.7389 60.4847C48.4943 60.3851 48.1715 59.9718 47.976 59.5681C47.8135 59.2336 47.3863 59.103 47.0527 59.2847C46.4144 59.633 45.7799 59.9908 45.1457 60.3486L45.1446 60.3493L45.1436 60.3498C43.8882 61.058 42.633 61.7658 41.3503 62.3986C41.0695 62.5372 40.7984 62.6901 40.5264 62.8435L40.4555 62.8836C40.3344 62.9518 40.2113 63.0102 40.0941 63.0656C39.7212 63.2421 39.4104 63.3895 39.425 63.7338C39.4331 63.9287 39.717 64.2828 39.936 64.5561C40.0265 64.669 40.106 64.7682 40.1503 64.8366C40.4701 65.3274 40.7859 65.8204 41.0988 66.315C42.1763 65.6356 43.3198 65.0858 44.4654 64.535C45.0797 64.2395 45.6948 63.9437 46.3006 63.6275C47.061 63.2307 47.7851 62.7881 48.5101 62.3448C49.2958 61.8644 50.0828 61.3835 50.9181 60.9593C51.9277 60.4468 52.9092 59.8974 53.8902 59.3483C54.7046 58.8925 55.5189 58.4368 56.3484 58.0025C56.7084 57.814 57.0618 57.6157 57.4152 57.4175L57.4161 57.417L57.4172 57.4165C57.8568 57.17 58.2966 56.9234 58.7476 56.6962C58.833 56.6529 58.9438 56.5996 59.0692 56.5392C59.5953 56.2862 60.3808 55.9083 60.6575 55.6222C60.6139 55.4988 60.5546 55.3826 60.4955 55.2669ZM41.8312 58.3944C40.3214 59.3333 38.7433 60.1961 37.1576 61.0161L37.207 61.0672C37.6048 61.478 38.0314 61.9185 38.4482 62.3019C38.6112 62.452 38.7005 62.5652 38.7567 62.636C38.8028 62.6944 38.8263 62.7242 38.85 62.7227C38.9954 62.7129 39.2419 62.5583 39.4533 62.4256C39.5652 62.3555 39.6672 62.2915 39.7394 62.2584C40.6871 61.8214 41.6202 61.3889 42.5488 60.9025C43.4456 60.4319 44.3051 59.9151 45.165 59.3981C46.1637 58.7976 47.1633 58.1964 48.2221 57.6674C49.5647 56.9957 50.8631 56.2646 52.162 55.5333L52.163 55.5328L52.1639 55.5323C52.9648 55.0811 53.7667 54.6299 54.5786 54.1925C54.8326 54.0558 55.0861 53.9191 55.3394 53.7823C56.1581 53.3402 56.9751 52.8991 57.8036 52.469C57.8453 52.4474 57.8982 52.4207 57.958 52.3907C58.2151 52.2616 58.5972 52.0697 58.7421 51.9332C58.803 51.8756 58.8369 51.8435 58.8456 51.8058C58.8566 51.7584 58.828 51.7021 58.7636 51.5752C58.7175 51.4842 58.6665 51.3855 58.6129 51.2816L58.6117 51.2794L58.6109 51.2778C58.393 50.8557 58.1325 50.3509 57.9815 49.9522C57.1764 50.3871 56.3843 50.8487 55.5923 51.3105C54.5898 51.8948 53.5874 52.4791 52.5581 53.0094C51.7109 53.4455 50.8061 53.8965 49.9097 54.236C49.2414 54.4893 48.7322 54.7714 48.1431 55.0977C48.0077 55.1728 47.8681 55.2501 47.7214 55.3299C46.9547 55.7461 46.1673 56.1294 45.3795 56.5131C44.1734 57.1003 42.9665 57.6882 41.8312 58.3944ZM40.5769 54.8307C39.1521 55.6614 37.7286 56.4912 36.259 57.2554C35.9861 57.3982 35.7115 57.5375 35.4371 57.6767C35.2762 57.7584 35.1147 57.8403 34.954 57.9227C35.0455 58.0614 35.1611 58.2787 35.2921 58.5245C35.6152 59.1314 36.0314 59.9134 36.4086 60.123C36.7368 60.3041 37.0881 60.0728 37.4538 59.8321C37.5964 59.7383 37.7412 59.643 37.8877 59.5702C38.3796 59.3243 38.877 59.0887 39.3753 58.8527C40.0736 58.522 40.7733 58.1907 41.4608 57.8297C41.9908 57.5514 42.4802 57.2178 42.9698 56.8839C43.4824 56.5343 43.9954 56.1847 44.5555 55.8982C45.0241 55.658 45.4982 55.4223 45.9717 55.1868C46.1719 55.0873 46.3724 54.9874 46.572 54.8877C46.7316 54.8079 46.9245 54.7268 47.1278 54.6412C47.5904 54.4466 48.1063 54.2295 48.403 53.9562C48.5381 53.8315 48.5377 53.8293 48.5161 53.6996C48.5045 53.6304 48.4869 53.5252 48.4805 53.3458C48.4778 53.2627 48.4575 53.159 48.4356 53.0476C48.3893 52.8114 48.3361 52.54 48.4284 52.3531C48.5151 52.1774 48.7162 52.0503 48.8957 51.9368C48.9493 51.9029 49.0009 51.8702 49.0471 51.8378C49.5755 51.4665 50.1454 51.1393 50.7111 50.8147L50.7122 50.8141C50.8736 50.7214 51.0346 50.629 51.1941 50.5358C52.1049 50.0051 53.0632 49.555 54.02 49.1057C54.999 48.646 55.9767 48.1867 56.9004 47.6426C56.5722 47.2529 56.3774 46.8005 56.2295 46.3243C55.1413 47.0233 53.994 47.5827 52.843 48.1439C52.2706 48.423 51.6971 48.7025 51.1297 48.9999C50.304 49.4327 49.5277 49.9184 48.7523 50.4037C48.0877 50.8195 47.4228 51.2354 46.7284 51.6172C45.9225 52.0606 45.0941 52.4661 44.2654 52.8719C43.2495 53.3695 42.2328 53.8673 41.2561 54.4353C41.0296 54.5669 40.8032 54.6988 40.5769 54.8307ZM42.833 66.3302L42.8318 66.3308C42.3959 66.5542 41.9609 66.7771 41.5305 67.0035C41.6118 67.1341 41.6934 67.265 41.7754 67.3962C42.5222 68.5923 43.2841 69.8129 43.8369 71.0999C44.8539 70.398 45.9425 69.9237 47.0452 69.443C47.6877 69.163 48.3351 68.8809 48.9758 68.5505C49.791 68.13 50.5566 67.6555 51.323 67.1807C52.1614 66.6612 53.0008 66.1412 53.907 65.6905C55.1012 65.0968 56.2519 64.4533 57.4033 63.8094L57.4042 63.8089C58.1596 63.3864 58.9153 62.9638 59.6837 62.555C59.9482 62.4145 60.2112 62.2738 60.4738 62.1332C61.1533 61.7695 61.83 61.4074 62.5208 61.0545C62.6911 60.9676 62.8199 60.9109 62.9164 60.8685C63.0619 60.8044 63.134 60.7728 63.1633 60.7187C63.1918 60.666 63.18 60.5921 63.1567 60.4461C63.1474 60.3876 63.1361 60.317 63.125 60.2322C63.0728 59.8362 62.718 59.2996 62.4513 58.8962C62.3967 58.8139 62.3461 58.7371 62.3023 58.6682C60.8521 59.6002 59.2957 60.3965 57.7456 61.1897C57.0909 61.5246 56.4373 61.859 55.7932 62.2029C55.6807 62.263 55.5336 62.3524 55.3672 62.4536C54.7323 62.8399 53.8157 63.3977 53.4561 63.1492C53.1637 62.9474 53.0705 62.5589 52.9805 62.1849C52.8696 61.7231 52.7638 61.2832 52.2951 61.2449C51.8611 61.2096 50.9678 61.7668 50.2928 62.1878C50.0223 62.3566 49.7867 62.5035 49.6299 62.5816C48.6047 63.0908 47.5911 63.6245 46.628 64.2364C45.4192 65.0046 44.1222 65.6693 42.833 66.3302ZM57.7469 68.3974C59.9272 67.0766 62.1797 65.7121 64.5067 64.7222C64.5227 64.7154 64.5464 64.7058 64.5756 64.6939C64.7872 64.6078 65.2929 64.402 65.3332 64.2742C65.3647 64.1738 65.028 63.581 64.8442 63.2574C64.7906 63.1629 64.7498 63.0911 64.7352 63.0615C63.115 64.0577 61.4501 64.9414 59.7773 65.8295C59.1425 66.1664 58.5062 66.5041 57.8711 66.8486C57.3735 67.1186 56.8726 67.3845 56.3717 67.6504L56.3697 67.6515L56.3684 67.6521C55.6269 68.0459 54.8853 68.4395 54.1538 68.8466C54.0411 68.9093 53.9445 68.969 53.8595 69.0216C53.4591 69.269 53.3137 69.3588 52.9546 68.8548C52.7722 68.5991 52.7204 68.3132 52.6689 68.029C52.6318 67.8235 52.5945 67.6184 52.5084 67.4265C51.1078 68.2336 49.6252 68.9023 48.1461 69.5693C47.9588 69.6538 47.7713 69.7384 47.5842 69.8231C46.6978 70.2246 45.8321 70.7206 45.0094 71.2337C44.8771 71.3161 44.759 71.382 44.6563 71.4394L44.6554 71.44C44.2075 71.69 44.0518 71.7769 44.2856 72.3607C44.5685 73.0655 45.1811 74.0229 45.6596 74.6142C45.7036 74.6688 45.7452 74.7207 45.7845 74.77C46.292 75.4065 46.4345 75.585 47.2031 75.0171C47.3622 74.8998 47.5203 74.7765 47.6794 74.6525C48.1539 74.2828 48.6379 73.9057 49.1867 73.6531C49.4982 73.5099 49.8192 73.4144 50.1413 73.3186C50.5046 73.2106 50.8696 73.1019 51.224 72.9239C51.3923 72.8395 51.5627 72.7617 51.7328 72.6839L51.7342 72.6832L51.7353 72.6827C52.0109 72.5568 52.2861 72.4308 52.5504 72.2788L52.5623 72.272C52.6693 72.2102 52.7738 72.1498 52.884 72.0935C52.8903 72.0904 52.901 72.0855 52.9145 72.0793C52.9764 72.0516 53.0953 71.9981 53.0973 71.9599C53.0999 71.8986 53.0991 71.8353 53.0985 71.7717C53.0971 71.6549 53.0958 71.5365 53.1156 71.4256C53.1614 71.1656 53.4385 71.0176 53.6848 70.8864C53.7642 70.844 53.8405 70.8034 53.9046 70.7613C54.7689 70.191 55.6598 69.6554 56.5494 69.1206L56.9272 68.8931C57.1993 68.7292 57.4725 68.5637 57.7469 68.3974ZM48.1654 77.4619C48.6239 77.918 48.9912 78.4804 49.2672 79.0642C50.1004 78.5423 51.0802 78.0667 52.0299 77.6056C52.5162 77.3695 52.9947 77.1373 53.4415 76.9046C53.9695 76.6291 54.4896 76.2797 55.0131 75.928C55.8055 75.3956 56.6056 74.8579 57.4525 74.5642C56.7943 73.4005 57.0949 73.2074 58.0627 72.586L58.1498 72.5299L58.2299 72.4782C59.0972 71.918 59.9735 71.3652 60.8645 70.8405C61.6571 70.3744 62.4748 69.9532 63.2927 69.5319C63.7584 69.2921 64.2242 69.0523 64.6854 68.804C64.8236 68.7298 64.9681 68.6549 65.1149 68.5789C65.5301 68.3638 65.9648 68.1385 66.3324 67.8888C66.3754 67.8596 66.4148 67.8337 66.4508 67.8102L66.5239 67.7626C66.6755 67.6646 66.7504 67.6162 66.7727 67.5504C66.7944 67.4862 66.7663 67.4056 66.711 67.2466L66.6935 67.1964C66.5639 66.8215 66.3976 66.4332 66.2258 66.0842C65.1074 66.7587 63.9806 67.4205 62.8537 68.0822C61.7342 68.7398 60.6144 69.3974 59.5027 70.0677C58.6163 70.6028 57.7024 71.0834 56.7861 71.5651C56.6141 71.6555 56.4419 71.7461 56.2701 71.8369C56.105 71.9241 55.93 72.0272 55.7482 72.1343C55.1407 72.4924 54.4591 72.8941 53.8287 72.8878C53.7184 72.8867 53.6514 72.7714 53.6 72.6833L53.5886 72.6638L53.5764 72.6436C53.5727 72.6377 53.5651 72.6231 53.5551 72.6039C53.5212 72.5394 53.4607 72.424 53.4376 72.4229C53.1072 72.4886 52.596 72.7755 52.1439 73.0293C51.89 73.1717 51.6549 73.3038 51.4808 73.3801C50.4948 73.8128 49.5524 74.3116 48.6446 74.883C48.4813 74.9855 48.308 75.0729 48.1347 75.1603C48.0599 75.1981 47.9849 75.2359 47.9109 75.2749C47.6647 75.404 47.4263 75.5421 47.2077 75.7118L47.1806 75.7325C47.0653 75.8205 46.9123 75.9373 46.9293 76.0876C46.959 76.3415 47.198 76.5618 47.3918 76.7404C47.4175 76.764 47.4424 76.7871 47.4661 76.8093C47.5589 76.8977 47.6538 76.984 47.7487 77.0705C47.8895 77.1987 48.0308 77.3275 48.1654 77.4619ZM69.1691 70.2594C69.4613 70.7651 69.7528 71.2699 69.9285 71.8145C70.1198 72.4088 67.2147 73.9684 65.8798 74.6852C65.6098 74.8301 65.404 74.9406 65.3011 75.0016C64.4395 75.513 63.5278 75.9735 62.6146 76.4349C61.1961 77.1514 59.7738 77.8698 58.5297 78.7836C57.5337 79.5149 56.4399 80.0942 55.3457 80.6736C54.4158 81.166 53.4858 81.6585 52.6157 82.2445L52.5615 82.2811C52.1119 82.585 51.7248 82.8465 51.2294 83.0823C51.0128 83.1852 50.8029 83.3267 50.5935 83.4678C49.9858 83.8775 49.3831 84.2839 48.64 83.731C48.2666 83.4535 48.0312 83.0416 47.8035 82.6431C45.4411 78.5112 42.8034 74.5248 39.9134 70.7163C38.7538 69.1886 37.4934 67.7252 36.233 66.2617C34.4316 64.1699 32.6296 62.0777 31.1201 59.7962C30.4683 58.8113 29.8835 57.7853 29.299 56.7598C28.4522 55.274 27.6056 53.7889 26.5563 52.4308C26.2223 51.9989 25.8684 51.5814 25.5142 51.1639C25.0141 50.5739 24.5137 49.9839 24.0698 49.3529C23.5527 48.6176 23.2481 47.812 22.9397 46.9961C22.7941 46.6105 22.6474 46.2226 22.4772 45.8389C22.4063 45.6792 22.3332 45.5891 22.2759 45.5187C22.1622 45.3784 22.1107 45.315 22.2631 44.9354C22.4066 44.5783 22.793 44.3133 23.1258 44.1405C23.8113 43.7863 24.6157 43.6423 25.2037 44.1169L25.2081 44.1222C25.357 44.3005 25.5071 44.4805 25.637 44.672C25.7029 44.7679 25.7634 44.8667 25.8218 44.9672C25.8259 44.9745 25.8392 45.0004 25.8565 45.0337C25.8998 45.1181 25.9679 45.25 25.9728 45.2484C26.2101 45.1936 26.6379 44.9 27.0118 44.6434C27.2323 44.4919 27.434 44.3534 27.567 44.2844C28.5975 43.7493 29.592 43.2924 30.6724 42.8644C32.4765 42.1491 34.1151 41.197 35.756 40.1969C35.9293 40.0914 35.9331 39.8603 35.7767 39.7326C35.4424 39.4603 35.1541 38.9399 35.1695 38.6771C35.1972 38.1815 36.0306 37.7512 36.6134 37.4503C36.7719 37.3684 36.9119 37.2963 37.012 37.235C38.5448 36.2968 40.1012 35.3971 41.7222 34.6088C43.1897 33.8954 44.6172 33.1213 46.046 32.3466L46.1986 32.2639C46.6801 32.0025 47.1639 31.7457 47.6509 31.4947C47.7035 31.4677 47.7526 31.4428 47.7985 31.4194L47.802 31.4176C48.1181 31.2568 48.2779 31.1757 48.3183 31.0556C48.3596 30.9334 48.2783 30.7709 48.1143 30.4432L48.0633 30.3412L48.0518 30.318C47.8798 29.973 46.9656 28.1405 47.6692 28.0081C48.3547 27.8796 48.9875 29.3161 49.3366 30.1086C49.409 30.2725 49.4691 30.4092 49.5148 30.4984C50.0371 30.1761 50.1613 30.8326 50.238 31.2381L50.2387 31.2417C50.3653 31.9104 50.4457 32.3193 50.7969 33.0057C50.8277 33.0659 50.8572 33.1266 50.8861 33.1863C51.0322 33.4872 51.1666 33.7642 51.4103 33.8412C51.4746 33.8613 51.5738 33.8133 51.6801 33.7618C51.792 33.7076 51.9118 33.6497 52.0068 33.6633C52.4909 33.7322 52.7249 34.2199 52.9017 34.5883L52.9392 34.6664C52.9721 34.7336 53.02 34.8012 53.0691 34.8702C53.186 35.0348 53.3096 35.209 53.2529 35.4111C53.207 35.5732 53.0142 35.682 52.8319 35.7848C52.6846 35.8679 52.5441 35.9471 52.4938 36.0474C52.4938 36.0474 52.5981 36.3418 52.6141 36.4318C52.7288 37.1034 53.1783 37.8593 53.606 38.5784C53.8621 39.0092 54.1105 39.4267 54.2742 39.805L54.3061 39.7901C54.8566 39.5346 55.2292 39.3616 55.7325 39.7983C55.9419 39.9799 56.323 40.557 56.3744 40.8479C56.4626 41.3473 56.2626 41.4398 56.0153 41.5541C55.8392 41.6355 55.6391 41.728 55.5018 41.9861C55.3521 42.2671 55.5904 42.6309 55.8246 42.9887C55.8881 43.0856 55.9512 43.182 56.0063 43.2763C56.0823 43.2315 56.1704 43.1727 56.2661 43.1089C56.5981 42.8876 57.0198 42.6065 57.3305 42.6467C57.5077 42.6695 58.0789 43.1286 58.207 43.2356C58.9308 43.8416 58.7689 43.9686 58.1019 44.3642C58.0783 44.3782 58.0198 44.4105 57.9412 44.4538L57.9389 44.4552C57.6093 44.6371 56.9309 45.0115 56.9586 45.0698C57.125 45.3879 57.2699 45.7127 57.2699 45.7127L57.4471 46.0773C57.4724 46.1954 57.9071 47.0966 58.052 47.132C58.2966 47.1922 58.5767 46.9853 58.8639 46.7733C59.2109 46.517 59.5683 46.2531 59.8854 46.4433C60.2742 46.6766 60.5709 48.0635 60.4137 48.4407C60.3149 48.6779 60.1091 48.743 59.8857 48.8136C59.7413 48.8591 59.5895 48.9071 59.4544 49.0053C59.2344 49.1669 59.2007 49.406 59.3172 49.6452C59.4169 49.8939 59.5181 50.1419 59.6216 50.3892C59.7452 50.6706 59.9317 50.9134 60.094 51.125C60.2017 51.2653 60.2989 51.3918 60.36 51.5067C60.4722 51.7181 60.5412 51.9987 60.6123 52.2887C60.6798 52.5636 60.7495 52.847 60.8599 53.0877C61.0125 53.4206 61.207 53.7466 61.4023 54.0741C61.7277 54.6191 62.0553 55.1683 62.1957 55.7604C63.1618 55.3263 63.6103 55.7514 64.0036 56.6408C64.0141 56.6643 64.0242 56.6866 64.034 56.708C64.0496 56.7421 64.0644 56.7739 64.0784 56.8037L64.0794 56.8056L64.0807 56.8085C64.2413 57.1511 64.2783 57.2301 63.9377 57.6018C63.8162 57.7341 63.7211 57.7875 63.6517 57.8266C63.5395 57.8899 63.4942 57.9154 63.5122 58.1754C63.5213 58.309 63.6646 58.5321 63.7879 58.7243C63.8504 58.8216 63.9078 58.9112 63.9401 58.9769L63.982 59.0631L64.0251 59.1525C64.2295 59.5767 64.4005 59.9314 64.7206 60.1667C64.8035 60.2277 64.9126 60.2695 65.0283 60.3137C65.1813 60.3721 65.3457 60.435 65.4759 60.5527C66.1047 61.1173 66.4267 61.9492 65.6638 62.4651C65.9497 62.8666 66.1821 63.2054 66.4053 63.6498C66.9042 63.3655 66.9331 63.3839 67.188 63.5452C67.2509 63.585 67.3275 63.6334 67.428 63.6881L67.4698 63.7104L67.5217 63.7376C67.8423 63.9053 68.4634 64.2303 68.451 64.5901C68.441 64.8646 68.1743 64.9648 67.8975 65.0686C67.6802 65.1501 67.4567 65.234 67.3468 65.4064C67.1672 65.6897 67.3482 66.0649 67.5273 66.4365L67.5278 66.4374C67.5871 66.5603 67.6462 66.6829 67.6918 66.8014C67.8362 67.176 67.9823 67.5709 68.126 67.9593L68.1264 67.9604C68.2469 68.2858 68.3655 68.6066 68.48 68.9072C68.6593 69.3768 68.9145 69.8185 69.1691 70.2594ZM33.0581 32.2477C33.3412 32.1138 33.6273 31.9861 33.9138 31.8582C34.6765 31.5176 35.4427 31.1753 36.1705 30.7108C36.4781 30.5143 36.8 30.3253 37.1246 30.1347C37.8893 29.6856 38.6688 29.2277 39.3097 28.6457C39.7777 28.2201 40.1251 27.7012 40.4683 27.1888C40.5086 27.1286 40.5491 27.0682 40.5894 27.0084L43.7886 24.7129L43.8011 24.7039L43.813 24.6944L44.7773 23.9326C44.7772 23.9326 44.7775 23.9326 44.7773 23.9326C44.8576 23.9038 44.9344 23.8771 45.0081 23.8517C45.4162 23.7098 45.7384 23.5978 46.1723 23.2987C46.4393 23.1144 46.7042 22.9682 46.9608 22.8265C47.1383 22.7286 47.3119 22.6327 47.4796 22.5279C47.7281 22.723 48.0222 22.837 48.4453 22.6674C48.8976 22.4863 48.692 22.0944 48.364 21.7494C48.4069 21.6935 48.4487 21.6348 48.4895 21.5728C49.2767 20.3776 47.7365 20.3045 46.8664 20.6452C46.4993 20.7889 46.1176 20.9779 45.7511 21.2033L45.168 21.2299C45.1834 20.8191 44.6789 21.058 44.4015 21.1894C44.3787 21.2002 44.3575 21.2101 44.3381 21.2191C44.2991 21.237 44.2601 21.2551 44.2209 21.2731L36.4757 21.627L36.3264 21.6338L36.1944 21.7032L33.1821 23.2898C33.1289 23.2356 33.0723 23.1677 33.0061 23.0882C32.9308 22.998 32.8432 22.8929 32.7338 22.7757C32.2623 22.2704 31.8543 21.8659 31.2395 21.5751L31.0203 21.4717C30.0165 20.9991 29.1294 20.5814 28.2596 19.8038C27.7554 19.3535 27.3081 18.8474 26.8605 18.3409C26.5415 17.9799 26.222 17.6183 25.8821 17.2772C25.311 16.7042 24.6788 16.2069 24.0477 15.7104C23.8574 15.5607 23.6668 15.4107 23.4783 15.2591C22.7122 14.6425 22.0981 13.9624 21.4584 13.2539C21.3043 13.0831 21.1485 12.9107 20.9889 12.7372C20.412 12.1111 20.0773 12.1619 19.3163 12.4787C19.2371 12.5115 19.1581 12.5426 19.0809 12.5731C18.4582 12.8185 17.94 13.0226 18.2578 13.7354C18.9851 15.3665 20.5385 16.3526 22.0446 17.3089C22.7921 17.7833 23.5281 18.2506 24.1455 18.7855C25.4452 19.9115 26.6062 21.1924 27.7675 22.4737C28.5217 23.3059 29.2763 24.1383 30.0689 24.9284C27.8151 25.6607 25.6959 26.7267 23.5861 27.8172C23.1864 28.024 22.7945 28.2459 22.403 28.4676C21.5562 28.9472 20.7113 29.4257 19.7943 29.7454C19.6771 29.7864 19.561 29.8256 19.4461 29.8645C18.5628 30.1628 17.754 30.4359 17.1752 31.2498C16.7105 31.9036 16.8313 32.2114 17.0848 32.8578L17.0854 32.859C17.1103 32.9226 17.1364 32.9895 17.1637 33.0604C17.2642 33.3232 17.3466 33.6021 17.4293 33.8815C17.5445 34.2709 17.6601 34.6618 17.8257 35.0124C18.0942 35.5816 18.4558 36.0962 18.8183 36.6124C19.2098 37.1699 19.6025 37.7291 19.8808 38.3604C19.9658 38.5534 20.0311 38.772 20.0963 38.9902C20.3101 39.7057 20.5229 40.418 21.4261 40.2147C22.0896 40.0654 22.4757 39.4837 22.8633 38.8997C22.8718 38.887 22.8802 38.8743 22.8887 38.8617L25.2637 37.3885C27.0833 36.8886 28.9538 35.4342 30.2739 34.1508L33.0581 32.2477ZM41.4214 22.7149C41.3618 22.7502 41.3022 22.7859 41.2428 22.8217C41.1632 22.8699 41.0508 22.9279 40.9243 22.993C40.5485 23.1866 40.049 23.444 39.9161 23.6989C39.7064 24.102 40.1279 24.7014 40.5663 24.4332C41.5428 23.8366 42.5172 23.2348 43.4848 22.6207L44.1875 22.5886C44.1269 22.6753 44.069 22.7656 44.0112 22.856C44.0102 22.8574 44.0093 22.8589 44.0084 22.8603L42.997 23.6594L42.6427 23.9136C42.5509 23.949 42.4595 23.9897 42.3696 24.0425C42.1763 24.1558 42.0124 24.3192 41.8483 24.4828C41.8475 24.4838 41.8465 24.4845 41.8457 24.4855L41.0132 25.0828C40.8971 25.1335 40.7785 25.1786 40.6596 25.2237C40.4646 25.2979 40.269 25.3723 40.0831 25.4715C39.6265 25.7148 39.1724 25.9703 38.7199 26.2248C38.2499 26.4893 37.7817 26.7528 37.3142 27.0005C36.8289 27.2581 36.3066 27.7058 35.9064 28.0918C35.7991 28.1956 35.7074 28.3073 35.6165 28.4181C35.4716 28.5946 35.3288 28.7685 35.1281 28.9033C34.8945 29.0595 34.6414 29.1682 34.3868 29.2774C34.0952 29.4026 33.8018 29.5286 33.534 29.7279C33.2477 29.9403 33.0291 30.1946 32.8089 30.4509C32.6689 30.6139 32.5281 30.7777 32.3686 30.9322C31.9765 31.313 31.4858 31.5602 30.9986 31.8058C30.8322 31.8897 30.6662 31.9734 30.5047 32.0621C29.2977 32.7259 28.0901 33.4103 26.9777 34.241C26.6293 34.5014 26.3279 34.7805 26.0328 35.0538C25.5314 35.5182 25.048 35.966 24.382 36.2768C23.9421 36.482 23.571 36.7926 23.2054 37.1159L21.8343 37.9664L19.5532 32.6222C19.6186 32.4681 19.7596 32.3172 20.0067 32.1321C20.6657 31.6378 21.4095 31.3147 22.1488 30.9936C22.491 30.8449 22.8321 30.6967 23.1633 30.5323C23.7496 30.2413 24.3216 29.8705 24.8956 29.4983C25.3518 29.2026 25.8094 28.9061 26.2764 28.6479C26.6127 28.4622 26.9482 28.2749 27.2838 28.0875L27.2848 28.0871L27.2857 28.0866C28.0629 27.6528 28.8403 27.2187 29.6258 26.8044C30.0109 26.6004 30.386 26.4533 30.7552 26.3084C31.1729 26.1446 31.5832 25.9837 31.9918 25.7468C32.9283 25.2039 33.8824 24.6881 34.835 24.173C35.1455 24.0052 35.4558 23.8372 35.7654 23.6687C35.9786 23.5527 36.4939 23.2522 36.8889 22.922L41.4214 22.7149ZM2.8667 23.0027C3.04323 23.1703 3.21709 23.3355 3.91107 23.1927C4.94235 22.9806 4.27325 23.9628 4.13507 24.1412C3.81507 24.5549 3.72924 24.5483 3.04996 24.4302C2.90672 24.4051 2.8191 24.3747 2.73849 24.3467C2.62143 24.306 2.51914 24.2705 2.28268 24.2642C2.16831 24.2612 2.05268 24.281 1.93718 24.3008C1.80374 24.3238 1.67036 24.3466 1.5394 24.3341C1.08665 24.2911 1.07481 24.257 0.988537 24.008L0.986664 24.0026C0.825207 23.5377 1.04048 22.9052 1.94595 22.7741C2.53589 22.6885 2.70245 22.8467 2.8667 23.0027ZM10.4132 15.7585C9.40595 15.605 9.65638 17.5761 10.8154 17.4977C12.2366 17.402 11.3241 15.8978 10.4132 15.7585ZM30.6249 10.9267C30.7024 10.5786 30.8446 10.2418 31.0469 9.94106C31.2609 9.62262 31.5385 9.33135 31.8926 9.14181C33.0412 8.52894 34.9261 8.83285 35.8173 9.69213C36.394 10.2481 37.1833 12.1739 36.2524 12.7653C36.195 12.8017 36.1011 12.7785 36.0017 12.7539C35.8956 12.7277 35.7832 12.6999 35.7022 12.7413C35.5689 12.8094 35.465 12.8979 35.3611 12.9864C35.2694 13.0645 35.1777 13.1427 35.0656 13.2069C33.9101 13.8697 32.4269 14.3354 31.3097 13.3169C30.6375 12.704 30.4353 11.7822 30.6249 10.9267ZM30.314 13.5063C30.6689 14.0218 31.104 14.4925 31.6061 14.8962C32.0057 15.2178 32.4554 15.5027 32.9665 15.6443C33.5761 15.813 34.242 15.7675 34.8501 15.5943C36.2837 15.1856 37.4141 14.0672 37.8618 12.767C38.3918 11.2291 38.0947 8.16734 36.0076 7.63473C35.7891 7.57886 35.5759 7.49231 35.3627 7.40582C35.101 7.29964 34.8396 7.19353 34.569 7.14443C32.862 6.83358 30.6285 6.91761 29.699 8.482C29.2331 9.26609 29.1675 10.2024 29.3161 11.0819C29.4612 11.9406 29.8063 12.7695 30.314 13.5063ZM15.4554 25.6952C14.5475 27.398 12.2174 26.405 12.8267 24.7154C13.485 22.8897 16.3136 24.0845 15.4554 25.6952ZM15.0489 22.767C15.3992 22.7925 15.7201 22.9475 15.9078 23.1975C16.7114 24.2688 17.2928 25.3897 16.441 26.6262C15.5403 27.933 13.7396 28.5567 12.3484 27.3668C11.2441 26.4221 11.3772 24.924 12.2109 23.8763C12.9994 22.8857 13.877 22.6834 15.0489 22.767ZM12.5435 8.09379L12.5469 7.97913C12.566 7.29847 12.596 6.22953 13.3711 6.22361C14.1451 6.21805 14.3301 7.24358 14.2687 7.90456C14.1943 8.70328 13.8973 9.5521 13.1282 9.26823C12.5829 9.06715 12.5251 8.68658 12.5435 8.09379ZM12.072 9.97563C13.3016 10.7041 14.6794 10.9128 15.0144 9.00228C15.1804 8.05604 15.1029 6.59567 14.5306 5.80736C13.8045 4.80687 12.6296 5.29042 12.0172 6.1803C11.5494 6.86004 11.2407 9.48303 12.072 9.97563Z" fill="#BDBDBD"/>
</svg>
