<svg width="160" height="66" viewBox="0 0 160 66" fill="none" xmlns="http://www.w3.org/2000/svg">
<path d="M158.485 62.8457C157.653 62.8457 156.951 63.4928 156.951 64.3618C156.951 65.2308 157.653 65.878 158.485 65.878C159.316 65.878 160 65.2308 160 64.3618C160.018 63.4928 159.316 62.8457 158.485 62.8457ZM158.485 65.6561C157.764 65.6561 157.228 65.1014 157.228 64.3618C157.228 63.6408 157.764 63.0861 158.485 63.0861C159.187 63.0861 159.723 63.6408 159.723 64.3618C159.741 65.1014 159.187 65.6561 158.485 65.6561Z" fill="#FF7D00"/>
<path d="M159.223 64.0103C159.223 63.622 158.964 63.4741 158.521 63.4741H157.855V65.2676H158.207V64.5095H158.428L158.872 65.2676H159.241L158.761 64.491C159.02 64.4726 159.223 64.3431 159.223 64.0103ZM158.207 64.2322V63.77H158.502C158.669 63.77 158.872 63.8069 158.872 63.9918C158.872 64.2137 158.724 64.2322 158.521 64.2322H158.207Z" fill="#FF7D00"/>
<path d="M101.455 65.6933H109.18V59.1665L118.235 42.0083H110.012L105.355 52.0481L100.901 42.0083H92.8438L101.455 59.148V65.6933Z" fill="#FF7D00"/>
<path d="M9.51718 40.8247C6.74519 40.6953 2.01432 40.9541 0 41.102L0.16632 47.1111L2.08824 46.9817V65.6746H9.51718V61.0152C20.3649 60.4975 22.9152 54.7103 22.9152 50.6241C22.9152 44.8184 18.1843 41.2315 9.51718 40.8247ZM9.51718 55.1725V47.0002C14.2481 47.2221 15.3938 49.2559 15.3938 50.9015C15.3938 53.2496 13.823 55.0986 9.51718 55.1725Z" fill="#FF7D00"/>
<path d="M127.382 41.1206C120.212 41.1206 115.241 46.3346 115.241 53.4901C115.241 60.664 120.027 65.9889 128.066 65.9889C131.411 65.9889 134.331 65.2679 136.77 63.6038L134.09 58.1124C132.335 59.2403 130.505 59.8504 128.38 59.8504C125.423 59.8504 123.557 58.4267 122.836 55.9861H138.636C138.766 55.2835 138.895 53.8783 138.877 52.658C138.858 47.5549 136.16 41.1206 127.382 41.1206ZM122.781 50.9755C123.353 48.5904 124.887 46.9633 127.419 46.9633C129.84 46.9633 131.595 48.4055 131.78 50.9755H122.781Z" fill="#FF7D00"/>
<path d="M57.7129 41.084C54.9594 40.9545 50.284 41.2134 48.3066 41.3613L48.473 47.2964L50.3764 47.1855V65.6935H57.7314V61.0711C68.4868 60.5534 70.9816 54.8217 70.9816 50.7725C70.9816 45.0222 66.3061 41.4723 57.7129 41.084ZM57.7129 55.2839V47.204C62.4068 47.4259 63.5156 49.4227 63.5156 51.0683C63.5341 53.3795 61.9818 55.1915 57.7129 55.2839Z" fill="#FF7D00"/>
<path d="M151.869 51.6044C150.539 51.0682 148.95 50.4765 147.915 50.0143C146.898 49.552 146.547 49.0898 146.547 48.3872C146.547 47.4627 147.508 46.945 148.728 46.945C150.594 46.945 152.054 47.814 153.366 49.2192L157.487 44.9297C155.713 42.5445 152.682 41.0469 148.82 41.0469C143.572 41.0469 139.488 43.5799 139.488 48.5721C139.488 52.5104 141.391 54.4148 145.069 56.0049C146.122 56.4671 147.508 56.8554 148.561 57.2991C149.485 57.6874 150.058 58.0942 150.058 58.8523C150.058 59.5549 149.448 60.1095 147.674 60.1095C146.048 60.1095 143.701 59.4624 141.983 58.3346L139.488 63.4561C141.872 65.1757 144.755 65.8968 147.693 65.8968C152.257 65.8968 157.155 63.9184 157.155 58.5934C157.155 54.5997 154.586 52.6953 151.869 51.6044Z" fill="#FF7D00"/>
<path d="M36.055 41.2686C29.2358 41.2686 23.5625 46.3347 23.5625 53.5271C23.5625 60.7195 29.2358 65.7856 36.055 65.7856C42.8741 65.7856 48.5474 60.7195 48.5474 53.5271C48.5474 46.3532 42.8741 41.2686 36.055 41.2686ZM36.1104 59.2218C32.8025 59.2218 30.6958 56.6703 30.6958 53.4901C30.6958 50.3099 32.8025 47.7584 36.1104 47.7584C39.4183 47.7584 41.525 50.3099 41.525 53.4901C41.525 56.6703 39.4183 59.2218 36.1104 59.2218Z" fill="#FF7D00"/>
<path d="M83.7151 41.1206C76.5448 41.1206 71.5737 46.3346 71.5737 53.4901C71.5737 60.664 76.2492 65.9889 84.4728 65.9889C88.1503 65.9889 91.3658 65.1014 93.9345 63.0861L91.0331 57.7796C89.1482 59.0924 87.0969 59.8319 84.7684 59.8319C81.6823 59.8319 79.8528 58.4083 79.1505 55.9677H94.9694C95.0987 55.2651 95.2281 53.8599 95.2096 52.6395C95.1727 47.5549 92.4931 41.1206 83.7151 41.1206ZM79.1136 50.9755C79.6864 48.5904 81.2203 46.9633 83.752 46.9633C86.1729 46.9633 87.91 48.3685 88.1133 50.9755H79.1136Z" fill="#FF7D00"/>
<path d="M94.2467 20.5234C94.2467 14.7917 89.5713 11.2417 80.9781 10.835C78.2246 10.7055 73.5491 10.9644 71.5718 11.1123L71.7381 17.0474L73.6415 16.9365V35.4444H80.9966V30.3783C81.8097 30.3413 82.5674 30.2674 83.2881 30.1749L84.2305 35.426H92.3433L89.1277 28.5294C93.1009 26.5325 94.2467 23.2414 94.2467 20.5234ZM80.9781 16.9735C85.672 17.1953 86.7808 19.1922 86.7808 20.8378C86.7808 23.1674 85.2285 24.5356 80.9781 24.6281V16.9735Z" fill="#FF7D00"/>
<path d="M133.702 11.7778V22.3538L128.213 11.7778H119.324V35.4444H126.753V24.8684L132.242 35.4444H141.131V11.7778H133.702Z" fill="#FF7D00"/>
<path d="M58.1189 7.67313L55.9383 9.8364L45.3862 5.06612L50.4497 0L58.1189 7.67313Z" fill="#FF7D00"/>
<path d="M99.9019 7.67313L102.082 9.8364L112.635 5.06612L107.571 0L99.9019 7.67313Z" fill="#FF7D00"/>
<path d="M56.806 35.4444H64.8632L55.9189 11.7778H48.4161L39.4902 35.4628H47.5475L48.7672 31.5431H55.5863L56.806 35.4444ZM50.3195 26.5139L52.1675 20.5418L54.0155 26.5139H50.3195Z" fill="#FF7D00"/>
<path d="M41.7269 21.0043H29.5671L30.2139 26.0334H34.4827C34.4088 26.9394 33.836 29.8977 30.0845 29.8977C25.9265 29.8977 25.1688 26.0519 25.1319 23.1861C25.0949 20.3387 26.6103 16.6963 30.565 16.7147C33.7251 16.7332 34.3719 18.952 34.5012 19.1369L40.23 16.0306C38.5853 12.758 35.7394 10.5947 30.4541 10.5947C23.8383 10.5947 17.7769 13.9783 17.7769 23.26C17.7769 32.5417 24.6699 35.7959 30.066 35.7959C35.0187 35.7959 41.4497 33.6141 41.7269 24.1105C41.7454 22.8717 41.7269 21.0043 41.7269 21.0043Z" fill="#FF7D00"/>
<path d="M110.454 35.4444H118.511L109.567 11.7778H102.064L93.1382 35.4444H101.195L102.415 31.5246H109.234L110.454 35.4444ZM103.967 26.5139L105.815 20.5418L107.663 26.5139H103.967Z" fill="#FF7D00"/>
</svg>
