<svg width="91" height="66" viewBox="0 0 91 66" fill="none" xmlns="http://www.w3.org/2000/svg">
<path fill-rule="evenodd" clip-rule="evenodd" d="M75.49 12.6871C77.804 13.1688 80.2158 15.2548 80.4006 17.9697C80.4827 19.1828 80.3476 20.3835 80.2123 21.5847C80.1048 22.5408 79.9971 23.4973 79.9989 24.4605C80.0008 25.7892 80.2956 27.0823 80.7266 28.3149C80.9412 28.9315 81.1876 29.5328 81.4416 30.1306C81.4967 30.2606 81.5459 30.3961 81.5954 30.5325C81.7225 30.8826 81.8512 31.2371 82.0842 31.5106C82.4098 31.8931 82.8916 31.9634 83.3076 31.7287C83.6037 31.5625 83.8357 31.2815 84.0241 30.9782C84.9673 29.4639 85.7482 27.8093 86.2813 26.0649C86.5466 25.197 86.8097 24.3044 86.8315 23.3794C86.8489 22.6706 86.7106 21.941 86.3458 21.357C86.206 21.1323 85.857 20.709 85.6108 20.9982C85.4524 21.1858 85.5436 21.6543 85.5949 21.9183C85.6001 21.9446 85.6048 21.9689 85.6089 21.9908C85.8419 23.2538 85.5447 24.4164 85.1114 25.5793C84.6516 26.811 83.8451 28.2668 82.7801 28.9672C82.731 29.0074 82.6796 29.0467 82.6201 29.059C82.5276 29.0769 82.4334 29.024 82.3696 28.9471C81.5142 27.9052 81.3228 26.0002 81.3164 24.6648C81.3097 23.3542 81.4974 22.0557 81.6848 20.7603C81.7083 20.5981 81.7317 20.4361 81.7548 20.274C82.1517 17.4785 81.4641 14.5043 79.3781 12.7222C78.347 11.841 77.0865 11.3127 75.7951 11.1323C75.1071 11.0365 74.3993 11.0387 73.7321 11.2503C73.067 11.4607 72.4427 11.8979 72.063 12.5398C71.7694 13.0362 72.2451 12.9568 72.5701 12.9028C72.6446 12.8902 72.7112 12.8792 72.7588 12.8766C73.0857 12.8596 73.3897 12.7988 73.6909 12.7386C74.1527 12.6462 74.6081 12.555 75.129 12.6252C75.2499 12.641 75.3704 12.6623 75.49 12.6871ZM72.9582 36.9554C72.6585 37.4452 72.3801 37.046 72.3064 36.7121C72.2867 36.6214 72.3398 36.5305 72.424 36.512C72.7156 36.4489 73.2527 36.4749 72.9582 36.9554ZM71.1276 22.7489C71.0693 22.6884 71.01 22.6284 70.9469 22.5745L70.9334 22.563C70.9038 22.5382 70.8739 22.5129 70.8537 22.4795C70.8306 22.4403 70.8213 22.3871 70.8455 22.3486C70.8949 22.2708 71.0202 22.273 71.1183 22.2745H71.1184C71.1462 22.275 71.1717 22.2754 71.1927 22.274C71.3281 22.2645 71.4653 22.258 71.6011 22.276C71.8783 22.3128 72.1169 22.4693 72.3424 22.6418C72.3945 22.6828 72.4466 22.7239 72.4984 22.7657C72.5614 22.8169 72.5514 22.9233 72.4793 22.9566C72.2281 23.0736 71.9497 23.1849 71.6715 23.1274C71.451 23.0828 71.2976 22.9244 71.1429 22.7647L71.1276 22.7489ZM70.1507 34.333C69.659 35.3673 68.6784 34.3928 69.0055 33.5155C69.4746 32.2617 70.635 33.3135 70.1507 34.333ZM69.9071 38.9895C69.7113 39.1041 69.3007 39.0101 69.3761 38.6961C69.5043 38.1624 70.3822 38.7134 69.9071 38.9895ZM68.212 23.0383C67.9671 23.458 67.2815 22.9647 67.6147 22.6323C67.8093 22.4394 68.4073 22.7042 68.212 23.0383ZM66.2602 21.0324C66.3321 20.9982 66.4153 20.9947 66.4964 20.9914C66.5353 20.9898 66.5735 20.9883 66.6098 20.9834C66.76 20.9628 66.9121 20.9446 67.0641 20.9413C67.323 20.9356 67.5675 20.99 67.8009 21.1158C67.9155 21.1769 68.0261 21.249 68.1333 21.3249C68.1413 21.3307 68.1518 21.3379 68.1642 21.3465C68.2729 21.4211 68.5251 21.5945 68.3582 21.6997C68.3241 21.7204 68.2846 21.7256 68.2457 21.7271C68.1086 21.7372 67.9697 21.729 67.833 21.7187C67.6012 21.699 67.3695 21.6597 67.142 21.6029C66.9504 21.5562 66.7607 21.4976 66.5745 21.431C66.5555 21.4241 66.5306 21.4168 66.5026 21.4084C66.3633 21.3675 66.1459 21.3035 66.1627 21.1493C66.1679 21.1046 66.2002 21.0665 66.237 21.0446C66.2446 21.0396 66.2521 21.0354 66.2602 21.0324ZM66.5 27.5446C66.156 27.9581 65.6417 27.2414 66.0485 26.9233C66.4443 26.6136 66.8064 27.1745 66.5 27.5446ZM66.3194 45.7518C66.3286 45.7614 66.3356 45.7739 66.3405 45.7886C66.3712 45.8757 66.2934 46.0161 66.2346 46.1221C66.215 46.1574 66.1976 46.1889 66.187 46.2132C66.0855 46.4462 65.8148 46.9742 65.6685 46.4641C65.5878 46.1869 65.6865 45.9328 65.9107 45.787C65.9913 45.7338 66.234 45.6509 66.3194 45.7518ZM65.0229 40.3974C64.9585 40.6691 64.1052 40.6675 64.1201 40.3645C64.1378 40.0124 65.1138 40.0106 65.0229 40.3974ZM62.626 37.2205C62.2288 37.5874 61.9407 36.4565 62.4925 36.1375C62.8304 35.9419 63.6476 36.0849 64.0689 36.1585L64.1433 36.1714C64.4673 36.2282 64.6359 36.29 64.8112 36.4921C64.8977 36.5915 64.872 36.753 64.7606 36.8156C64.4899 36.9669 64.1679 36.9511 63.8382 36.9349C63.4165 36.9142 62.982 36.8928 62.626 37.2205ZM62.5259 44.176L62.5233 43.9471C62.5216 43.809 62.647 43.7131 62.7661 43.762L62.9491 43.8357C63.0823 43.8904 63.1115 44.0813 63.0009 44.176L62.8198 44.331C62.7022 44.4317 62.5274 44.3399 62.5259 44.176ZM61.813 32.2514C61.787 31.8394 62.8439 31.6708 62.8774 32.1871C62.9054 32.6122 61.8425 32.7568 61.813 32.2514ZM61.6391 42.3508C61.1371 42.9906 60.3219 42.728 60.0187 41.9959C59.9683 41.8744 60.0703 41.7304 60.1861 41.7749C60.3908 41.8552 60.6433 41.9279 60.8804 41.9962C61.3204 42.1231 61.7076 42.2348 61.6391 42.3508ZM58.5128 40.2991C57.882 40.4496 58.0788 39.5921 58.2334 39.1953C58.2575 39.1354 58.3332 39.1297 58.3663 39.1859L58.3828 39.2142C58.5865 39.5639 58.9534 40.1937 58.5128 40.2991ZM63.0126 29.1303C63.2978 28.6178 63.9992 28.9138 63.7766 29.544C63.5414 30.208 62.615 29.7599 63.0126 29.1303ZM60.5602 57.5062C59.8539 58.6916 58.2546 59.2943 57.1162 58.4325C56.9911 58.3375 56.8697 58.2197 56.8172 58.0638C56.7716 57.9244 56.785 57.7709 56.81 57.6268C57.0376 56.3081 58.4356 55.0139 59.7111 55.6083C60.3862 55.9228 61.0363 56.7091 60.5602 57.5062ZM90.9653 29.0299C90.9613 27.9633 90.8498 26.8474 90.4874 25.844C90.2421 25.1671 89.8542 24.4914 89.312 24.0475C88.8999 23.709 88.1827 23.6108 88.488 24.4173C88.5396 24.5525 88.5918 24.6858 88.6436 24.8178L88.6438 24.8181V24.8182C88.8713 25.3978 89.091 25.9571 89.2042 26.5938C89.3568 27.4503 89.3777 28.3289 89.3282 29.1968C89.194 31.5155 88.4591 33.7479 87.6612 35.8793C87.3493 36.7139 86.91 37.4893 86.3363 38.1359C82.7194 42.2039 76.3882 41.2546 74.3411 35.8269C73.6615 34.0228 73.5954 32.0208 73.6934 30.0819C73.7268 29.4178 73.8127 28.7472 73.899 28.0741C74.0683 26.7531 74.2388 25.4228 74.0151 24.1132C73.7792 22.733 72.8063 21.2145 71.3469 21.4973C71.0382 21.5566 70.7363 21.6596 70.4467 21.7872C70.1163 21.933 69.9263 22.1051 69.669 22.366C69.595 22.4406 69.4903 22.5208 69.4005 22.4657C69.3393 22.4283 69.3192 22.3394 69.3296 22.264C69.3373 22.2132 69.3554 22.1659 69.3738 22.1184C69.3827 22.0951 69.3917 22.0718 69.3995 22.0481C69.5586 21.5585 69.2279 20.9121 68.8738 20.6249C67.8927 19.8306 66.2827 19.91 65.3157 20.6397C64.0606 21.5876 63.3247 23.3951 62.645 25.0646V25.0647L62.6448 25.0649C62.3761 25.7248 62.1162 26.3634 61.8364 26.9187C60.9807 28.6159 59.9382 30.2527 58.4875 31.3697C57.2056 32.3577 55.6233 32.8961 54.0467 32.816C50.512 32.6357 48.0386 29.4288 47.5338 25.7881C47.2303 23.5943 47.5596 21.3545 48.1466 19.2375C48.7779 16.9631 50.0486 14.9109 51.8731 13.6122C52.1635 13.4053 51.8437 13.3034 51.6164 13.2309L51.5643 13.2141C51.1356 13.0725 50.5488 13.2281 50.1533 13.4082C48.4117 14.2007 47.2742 16.6457 46.5754 18.4414C45.8856 20.2157 45.4489 22.1409 45.554 24.071C45.7184 27.0867 46.854 30.5193 49.1461 32.3528C51.174 33.9766 53.9718 34.8554 56.4417 34.1995C56.5175 34.1788 56.5931 34.2502 56.5747 34.3321C56.5511 34.4407 56.5052 34.5288 56.4602 34.615C56.3742 34.7805 56.2915 34.9392 56.376 35.2228C56.5044 35.6545 56.7952 36.016 57.0838 36.375C57.2842 36.6242 57.4838 36.8722 57.627 37.1414C57.9228 37.6992 58.0227 38.4665 57.6259 38.9366C57.5931 38.9754 57.5575 39.0115 57.5219 39.0476C57.4485 39.1222 57.3753 39.1965 57.3283 39.2929C57.2341 39.4861 57.2693 39.7223 57.3074 39.9388C57.3613 40.2521 57.416 40.5656 57.4708 40.8789L57.4717 40.8847C57.4966 41.0292 57.5234 41.1788 57.6016 41.3007C57.8042 41.6178 58.2291 41.5977 58.5821 41.5773C58.6493 41.5727 58.7237 41.5728 58.7763 41.6185C58.8228 41.6594 58.8403 41.7238 58.8576 41.7869C58.8617 41.8017 58.8657 41.8165 58.8701 41.831C58.9518 42.0967 59.1342 42.2775 59.3074 42.4491C59.592 42.731 59.8512 42.9879 59.5955 43.5553C59.5538 43.6479 59.5048 43.7376 59.4559 43.8271L59.4558 43.8273C59.3501 44.021 59.2446 44.2144 59.213 44.4352C59.1662 44.7624 59.2875 45.0726 59.4098 45.3857C59.4778 45.5597 59.5463 45.7347 59.5863 45.9138C59.6166 46.0504 59.6309 46.1915 59.6451 46.3321V46.3322L59.6453 46.3324C59.6696 46.5727 59.6938 46.8118 59.7974 47.0235C60.1627 47.7738 61.1502 47.7867 61.7839 47.5535C61.9327 47.4989 62.114 47.3838 62.3085 47.2603C62.72 46.999 63.1901 46.7005 63.5336 46.8599C63.8651 47.0138 63.7986 47.1518 63.6923 47.3726C63.6557 47.4486 63.6142 47.5347 63.5827 47.6346C63.2478 48.7031 63.1895 49.8357 63.1318 50.9574V50.9575L63.1317 50.9578C63.1238 51.1124 63.1159 51.2668 63.1072 51.4207C63.0713 52.0608 63.0262 52.7018 62.9158 53.331C62.9013 53.4144 62.8829 53.4992 62.8643 53.5844C62.767 54.0338 62.6674 54.4934 63.1174 54.788C63.2989 54.9074 63.505 54.9627 63.7117 55.0183H63.7118H63.7119H63.712C63.8209 55.0477 63.93 55.077 64.0357 55.1157C64.3415 55.2286 64.6539 55.4759 64.6748 55.8271C64.6941 56.1521 64.4553 56.4216 64.2151 56.6135C63.7854 56.9574 63.2921 57.1983 62.7768 57.3444L62.7122 57.3628C62.3472 57.4673 61.5079 57.7079 61.2729 57.3626C61.1932 57.2446 61.2182 57.082 61.2446 56.9391C61.3215 56.528 61.3799 56.0932 61.2547 55.6935C61.1136 55.2407 60.7487 54.8992 60.3419 54.7192L60.3149 54.7073L60.2858 54.6948C60.1251 54.6262 59.9688 54.5593 59.9544 54.3367C59.9461 54.2207 59.9789 54.1072 60.0111 53.9971C60.1195 53.6219 60.2451 53.2406 60.3718 52.8555C60.6529 52.0016 60.9399 51.1293 61.0609 50.2651C61.156 49.5944 60.9029 48.3337 60.2553 49.3737C59.7612 50.1676 59.4204 51.058 59.0833 51.9398C59.0311 52.0769 58.9769 52.2487 58.9175 52.4366C58.7111 53.0899 58.4436 53.9369 57.9906 54.1895C57.8594 54.2629 57.7153 54.3004 57.5715 54.3381C57.543 54.3456 57.5144 54.3529 57.486 54.3607C56.8714 54.5264 56.274 54.83 55.8458 55.3349C54.5431 56.8739 55.81 59.074 57.2934 59.8163C57.7933 60.0665 58.3522 60.0755 58.8887 60.0027L58.9747 59.9911C59.3164 59.9455 59.7711 59.8848 60.0477 59.6885C60.1965 59.5827 60.2992 59.4297 60.3988 59.2815C60.52 59.101 60.6368 58.9272 60.8266 58.8534C61.0636 58.7609 61.3185 58.757 61.5712 58.7531L61.5713 58.7532C61.6731 58.7517 61.7747 58.7501 61.8745 58.7428C62.0858 58.7277 62.2969 58.6907 62.5085 58.6538H62.5087V58.6536H62.5088H62.5089H62.509C62.6369 58.6312 62.7648 58.6089 62.8931 58.5912C63.0088 58.575 63.1238 58.5612 63.238 58.5475H63.2382C63.6732 58.4954 64.0979 58.4443 64.5172 58.2671C65.076 58.03 65.5833 57.6721 66.0789 57.3111C66.5169 56.9927 66.8836 56.6306 66.6928 55.904C66.6449 55.7211 66.5622 55.5499 66.4639 55.3912C66.1617 54.9019 65.7381 54.5016 65.2521 54.2409C65.1619 54.1925 65.0646 54.1497 64.966 54.106C64.706 53.9912 64.4366 53.8722 64.2622 53.6386C64.0383 53.3379 64.0921 52.9048 64.1403 52.5164C64.1517 52.4252 64.1626 52.3365 64.1697 52.2527C64.2428 51.3779 64.3633 50.5072 64.5301 49.6486C64.5463 49.5658 64.5617 49.4631 64.5788 49.3491C64.6578 48.8223 64.7734 48.0529 65.1633 47.8826C65.3226 47.8133 65.4923 47.8018 65.6615 47.7903C65.8168 47.7798 65.9716 47.7693 66.1179 47.7143C66.4526 47.5893 66.6716 47.2591 66.8095 46.9182C66.8568 46.8014 66.8982 46.6813 66.9396 46.5612C67.0362 46.2803 67.1326 46.0005 67.3033 45.7689C67.3832 45.6605 67.4857 45.561 67.6123 45.5472C67.7392 45.5326 67.8821 45.6422 67.8702 45.7792C67.8671 45.8175 67.8541 45.858 67.8415 45.8978C67.8167 45.9762 67.793 46.0514 67.8474 46.0988C67.8771 46.1241 67.9177 46.1245 67.9564 46.1248L67.9609 46.125C68.2106 46.1308 68.4578 46.2641 68.6141 46.4787C68.6358 46.5089 68.657 46.5414 68.6784 46.5742C68.7625 46.7033 68.8493 46.8364 68.9874 46.8519C69.0927 46.8633 69.1917 46.7974 69.2701 46.7215C69.5358 46.4672 69.6852 46.0718 69.6411 45.6822C69.6149 45.4457 69.6104 45.2039 69.6752 44.9777C69.8496 44.3736 70.2636 44.3747 70.6906 44.3757C70.9228 44.3762 71.1587 44.3768 71.3619 44.2801C71.5578 44.1869 71.7075 44.009 71.8495 43.8352C72.2775 43.3098 72.7125 42.7171 72.7448 42.013C72.7476 41.95 72.7472 41.8863 72.7468 41.8227V41.8225C72.7457 41.6482 72.7446 41.4736 72.8082 41.3157C72.9311 41.0106 73.1436 41.0625 73.364 41.1163C73.4691 41.1419 73.576 41.168 73.6758 41.1561C73.9849 41.1199 74.1004 40.8641 74.1224 40.5479C74.132 40.4086 74.0917 40.2753 74.0501 40.1381C74.0023 39.9799 73.9528 39.8165 73.9759 39.6319C74.0002 39.4397 74.0844 39.2179 74.1805 39.027C74.2174 38.9537 74.311 38.9485 74.358 39.0157C76.8399 42.5232 82.0238 43.3595 85.4008 41.1156C88.1339 39.2991 89.9064 36.1247 90.5886 32.7581C90.7863 31.7801 90.9705 30.4148 90.9653 29.0299ZM50.2465 25.3521C50.2913 25.6997 50.3628 26.0556 50.4603 26.4082C50.8804 27.933 51.7852 29.3884 53.1596 29.7104C54.9596 30.1319 56.775 28.5282 57.9319 27.0509C59.0605 25.6091 59.7445 23.8449 60.4284 22.081C61.155 20.207 61.8814 18.3335 63.1406 16.8481C63.9639 15.8764 65.0568 15.1329 66.2201 14.9523C67.6201 14.737 68.4503 15.615 69.4071 16.6542C69.4473 16.6976 69.4909 16.7554 69.5367 16.8161C69.6261 16.9344 69.7237 17.0635 69.8192 17.1178C70.0355 17.2403 70.1038 17.2072 70.302 17.111L70.3022 17.1109L70.3027 17.1106C70.3491 17.0882 70.4025 17.0623 70.4665 17.0341C72.7537 16.0299 75.1465 16.9582 76.2244 19.5092C77.2042 21.8322 76.9648 24.3874 76.7302 26.8932C76.7024 27.1885 76.6748 27.4833 76.6493 27.7769C76.6139 28.1844 76.5605 28.5879 76.5074 28.9898C76.3883 29.8911 76.2703 30.7844 76.3584 31.6978C76.5179 33.3502 76.787 35.0252 77.7115 36.3791C78.1406 37.0088 78.7089 37.505 79.3704 37.7501C81.1871 38.4264 82.5035 36.9999 83.6018 35.7068C84.5465 34.5939 85.2536 33.2156 85.7034 31.7538C85.9556 30.9326 86.0531 30.0641 86.1495 29.2063C86.1612 29.1022 86.1729 28.9984 86.1848 28.8948C86.2016 28.7492 86.2165 28.604 86.2314 28.4591L86.2316 28.4582L86.2317 28.4572V28.4562L86.2318 28.4551C86.2711 28.0734 86.31 27.6943 86.3835 27.3148C86.4259 27.0936 86.544 26.8511 86.737 26.8215C86.914 26.795 87.0721 26.9714 87.1187 27.1705C87.1542 27.3212 87.1683 27.4784 87.1825 27.637C87.196 27.7873 87.2096 27.9387 87.2416 28.0871C87.3164 28.4315 87.3344 28.8041 87.3384 29.1596C87.3468 29.8647 87.2691 30.5806 87.1115 31.2665C86.7676 32.7644 86.0763 34.1451 85.2893 35.3933C84.5792 36.5206 83.7836 37.6042 82.7851 38.3774C81.5441 39.3378 80.0503 39.6809 78.6552 39.1174C77.7582 38.7539 77.1172 37.8708 76.595 36.9776C75.0266 34.2938 74.7851 31.1012 75.0445 27.8926C75.0784 27.4733 75.1309 27.0046 75.1869 26.5054V26.5051C75.513 23.5927 75.9565 19.6343 73.5209 18.3116C72.5733 17.7964 71.387 18.1693 70.4489 18.6089C70.1449 18.7511 69.9067 19.0357 69.7235 19.3471C69.6793 19.4218 69.645 19.537 69.6091 19.6571C69.5521 19.8479 69.4915 20.051 69.382 20.1245C69.2305 20.2272 69.1406 19.7488 69.1058 19.5641L69.0983 19.5245L69.0952 19.5094C69.0798 19.4372 69.0672 19.3622 69.0545 19.2865C69.0293 19.1358 69.0036 18.9828 68.9553 18.8461C68.3596 17.1601 67.4194 16.1226 65.7607 16.6923C65.1025 16.9181 64.4639 17.282 63.9676 17.8419C63.1987 18.7108 62.7681 19.9865 62.3541 21.2128V21.2129H62.3539V21.2131V21.2132L62.3538 21.2134C62.1733 21.7483 61.9959 22.2738 61.7949 22.7522C60.6251 25.5372 59.0167 28.3537 56.7422 30.0691C55.357 31.1137 53.5803 31.7081 52.0909 30.981C51.2402 30.5672 50.5681 29.7576 50.1124 28.8255C48.7797 26.097 48.7085 22.2583 49.2631 19.3557C49.4064 18.6093 49.7444 17.9206 50.2438 17.4161C51.3767 16.2734 50.8396 18.556 50.7102 19.1056L50.7035 19.1343C50.2286 21.1422 49.9803 23.3015 50.2465 25.3521ZM52.3944 21.2668C52.4208 21.6574 52.4575 22.0579 52.6228 22.4085C53.4407 24.1378 55.7658 21.8118 56.4602 21.1152C58.1617 19.4099 59.3497 17.2308 60.3478 14.9883C60.4151 14.8372 60.4827 14.6802 60.5518 14.5198C61.025 13.4211 61.5652 12.1668 62.5306 11.5821C63.6796 10.8862 65.0305 10.569 66.3558 10.6981C67.9576 10.8543 69.5069 11.6633 70.6238 12.9247C70.7548 13.0734 70.9784 13.2324 71.1035 13.0826C71.1605 13.0156 71.1595 12.912 71.1525 12.8201C71.0308 11.2968 69.9573 10.2867 68.7155 9.71467C67.3503 9.08433 65.5557 8.61671 64.0927 8.93612C61.5122 9.50149 60.1362 11.4308 59.195 13.9129C58.2242 16.4742 57.0781 19.1767 54.8058 20.6773C53.7722 21.3601 53.8117 17.6715 53.8432 17.1576C53.8916 16.4011 54.0159 15.6501 54.2144 14.9234C54.2951 14.6296 54.421 14.3565 54.5469 14.0834C54.6219 13.9204 54.6969 13.7573 54.7625 13.59C54.9323 13.1558 55.0674 12.4798 54.4647 13.0147C53.5016 13.869 52.944 15.1513 52.6538 16.4391C52.3009 18.0056 52.2842 19.6587 52.3944 21.2668ZM49.0706 58.7581C49.1179 59.9646 47.6342 58.7586 48.5249 58.3188C48.776 58.1949 49.0555 58.3717 49.0706 58.7581ZM45.3013 48.0942C45.1527 48.4254 44.5679 48.2582 44.6513 47.8799C44.7508 47.4292 45.4554 47.7454 45.3013 48.0942ZM44.1333 53.5341C43.5692 54.775 42.667 53.1276 43.2465 52.318C43.9994 51.2663 44.4977 52.7317 44.1333 53.5341ZM42.9968 38.7417C43.1252 38.3374 43.7877 39.4167 43.4616 39.8092C43.006 40.3574 42.9321 38.9501 42.9968 38.7417ZM40.7364 45.0333C40.4993 45.1384 39.8916 44.838 40.0754 44.5668C40.3259 44.1954 41.1867 44.8349 40.7364 45.0333ZM39.6079 48.7678C39.6486 48.7461 39.6889 48.7189 39.7185 48.6815C39.731 48.6659 39.7415 48.6478 39.749 48.6289C39.8526 48.3646 39.3425 48.2451 39.1141 48.1917C39.0807 48.1839 39.0532 48.1774 39.0347 48.1721C38.6724 48.0692 38.4026 47.9325 38.0982 47.6951C38.0444 47.6532 38.0075 47.5995 37.9723 47.5487C37.9101 47.4587 37.8536 47.3769 37.7197 47.3823C37.2136 47.4012 37.3971 48.2812 37.6684 48.5023C37.9679 48.7472 38.4203 48.7984 38.8007 48.8414L38.8018 48.8415L38.8052 48.842C38.8534 48.8474 38.9003 48.8528 38.9455 48.8582C39.1699 48.8857 39.4047 48.8776 39.6079 48.7678ZM39.6695 63.8733C39.5219 64.0842 39.0028 64.0849 38.9695 63.7582C38.9019 63.1061 39.9926 63.4106 39.6695 63.8733ZM38.8465 59.1547C38.4557 59.1069 38.3686 58.4323 38.7547 58.3164C39.3112 58.1492 39.3611 59.2177 38.8465 59.1547ZM40.1751 40.5023L39.9801 40.192C39.8877 40.0451 39.6837 40.0863 39.6399 40.2594L39.5566 40.594C39.5223 40.7323 39.617 40.8689 39.7459 40.8644C39.8435 40.8613 39.9468 40.8515 40.0459 40.838C40.1875 40.8168 40.2574 40.6327 40.1751 40.5023ZM36.9288 56.0559C36.6162 56.4785 36.1087 55.9641 36.1623 55.5301C36.2701 54.6548 37.4888 55.2966 36.9288 56.0559ZM35.8283 52.3983C35.5183 51.9613 36.9261 51.8233 36.8459 52.5394C36.7794 53.1322 35.9984 52.638 35.8283 52.3983ZM34.4716 43.7801C34.5891 43.6575 34.7267 43.5137 34.7371 43.4105C34.7716 43.0468 34.3705 42.9176 34.1523 43.1273C34.0042 43.2704 34.008 43.5444 34.0112 43.7732C34.012 43.8337 34.0128 43.8912 34.0107 43.9423C33.9992 44.2474 34.199 44.1339 34.3251 43.9461C34.3545 43.9023 34.4103 43.8441 34.4716 43.7801ZM32.5081 50.1573C32.4755 50.4977 31.8916 50.5004 31.8447 50.1873C31.7695 49.6774 32.5545 49.7257 32.5081 50.1573ZM50.1567 53.9036C50.2916 54.1371 50.3761 54.3959 50.4324 54.6669C50.5033 55.004 50.5295 55.3589 50.5528 55.7047V55.7049C50.5576 55.7847 50.5628 55.8701 50.5282 55.9406C50.4841 56.0316 50.3886 56.0726 50.2997 56.1019C50.2614 56.1141 50.1954 56.1298 50.1122 56.1496C49.6336 56.2638 48.5856 56.5138 48.9628 57.0123C49.0782 57.1655 49.278 57.1934 49.4576 57.1956L49.4978 57.1959C49.6657 57.1964 49.8409 57.1972 49.9798 57.2972C50.2119 57.4644 50.2404 57.8337 50.1901 58.1373C50.11 58.6206 49.8898 59.0752 49.571 59.4131C49.4443 59.5485 49.3023 59.6662 49.1606 59.7836C48.9337 59.9718 48.7079 60.1591 48.5472 60.4164C48.5094 60.4762 48.4749 60.5424 48.4715 60.6154C48.463 60.7946 48.6382 60.9142 48.7956 60.9459C48.8384 60.9548 48.8826 60.9605 48.9266 60.9663C49.0444 60.9817 49.1624 60.997 49.2577 61.0719C49.4322 61.2086 49.4574 61.503 49.3657 61.7185C49.2731 61.9347 49.0934 62.0858 48.9105 62.2103C48.572 62.4414 48.2007 62.6144 47.815 62.7212L47.7618 62.7355C47.5632 62.7889 47.3539 62.8452 47.2264 63.02C47.0787 63.2234 47.0807 63.5496 47.0826 63.8743C47.0857 64.4133 47.0889 64.9483 46.4079 64.9114C46.2924 64.9047 46.178 64.8804 46.0639 64.8563C45.8909 64.8196 45.7187 64.783 45.5446 64.8086C45.2751 64.848 45.0384 65.0353 44.8486 65.2529C44.8287 65.2756 44.809 65.2989 44.7893 65.3223C44.6578 65.478 44.5215 65.6397 44.3367 65.6742C44.1176 65.7139 43.9095 65.5561 43.7525 65.3813C43.7373 65.3645 43.7224 65.3473 43.7075 65.3299C43.6886 65.3081 43.6699 65.286 43.6511 65.2638C43.5309 65.1217 43.41 64.9786 43.2511 64.9004C43.0067 64.7802 42.7986 64.8577 42.5869 64.9365C42.453 64.9864 42.3178 65.0367 42.1711 65.0378C41.9943 65.039 41.8278 64.9791 41.6609 64.919C41.4543 64.8445 41.2471 64.7699 41.0195 64.8114C40.8037 64.8507 40.5984 64.9346 40.3932 65.0186C40.1389 65.1225 39.8847 65.2266 39.6104 65.2456C39.342 65.2635 39.0729 65.1993 38.8056 65.1356C38.4482 65.0504 38.0939 64.966 37.7487 65.0793C37.6525 65.1109 37.5548 65.1573 37.4572 65.2036C37.2039 65.3239 36.9511 65.4439 36.7226 65.3064C36.4811 65.1609 36.4499 64.8457 36.4177 64.5203C36.3913 64.2533 36.3641 63.9793 36.2193 63.7867C36.0736 63.593 35.8504 63.5321 35.6237 63.4701C35.4809 63.4312 35.3365 63.3916 35.2094 63.3185C34.8169 63.0931 34.6331 62.5011 34.8154 62.0489C34.8327 62.0062 34.853 61.9626 34.8733 61.9186C34.9553 61.7418 35.0408 61.5575 34.961 61.3929C34.903 61.2748 34.7791 61.2204 34.6629 61.1828C34.235 61.0425 33.7847 60.9873 33.3381 61.0208C33.3123 61.0228 33.2864 61.0251 33.2604 61.0275L33.1958 61.0337L33.195 61.0338C32.9866 61.0542 32.7766 61.0748 32.5756 61.0169C32.3292 60.946 32.0952 60.7116 32.1054 60.4271C32.1121 60.2419 32.2146 60.0832 32.316 59.9262C32.4283 59.7524 32.5392 59.5808 32.5172 59.3776C32.4896 59.12 32.2587 58.9585 32.047 58.8524L32.0286 58.8431C31.8211 58.7387 31.5933 58.624 31.51 58.3891C31.425 58.1476 31.6704 57.8058 31.8608 57.956C31.6735 57.6908 31.6267 57.3083 31.7421 56.9945L31.7529 56.9657L31.7706 56.9213L31.7707 56.9212C31.8124 56.8176 31.855 56.7117 31.8304 56.6046C31.8076 56.5059 31.7347 56.4394 31.6625 56.3736H31.6624C31.6406 56.3538 31.6188 56.3339 31.5986 56.3132C31.4081 56.1202 31.3252 55.8044 31.393 55.5246C31.3985 55.5012 31.4052 55.4776 31.4119 55.4539C31.4351 55.3711 31.4585 55.2879 31.4404 55.2048C31.3808 54.9325 31.0977 55.0249 30.7837 55.1274C30.3967 55.2538 29.963 55.3952 29.8441 54.8874C29.7731 54.5838 29.8921 54.2704 30.0029 53.979L30.0165 53.9432C30.3356 53.099 30.5349 52.198 30.6041 51.2846C30.6136 51.1631 30.6255 51.0304 30.7019 50.9439C30.7543 50.8855 30.8263 50.8605 30.8986 50.8354C30.9702 50.8105 31.042 50.7855 31.0951 50.7278C31.2414 50.5709 31.1476 50.3401 31.0559 50.1146C31.0264 50.042 30.9971 49.9701 30.9761 49.9013C30.8962 49.6409 30.9507 49.3549 31.0058 49.0846C31.1469 48.391 31.3019 47.6655 31.7204 47.1299C31.9118 46.8835 32.1483 46.6915 32.3851 46.4993C32.5526 46.3633 32.7202 46.2273 32.8722 46.0716C33.3427 45.5914 33.6612 44.8447 33.4766 44.1658C33.4522 44.0768 33.4194 43.988 33.3868 43.8993C33.3032 43.6723 33.2196 43.4457 33.2756 43.2152C33.3067 43.0872 33.3772 42.9794 33.4479 42.8712C33.4972 42.7956 33.5467 42.7198 33.5831 42.6369C33.6387 42.5094 33.6686 42.3589 33.6982 42.2108C33.7541 41.9288 33.8087 41.6551 34.0356 41.5623C34.1705 41.5073 34.3125 41.5485 34.4544 41.5898C34.5088 41.6057 34.5632 41.6216 34.6171 41.6319C35.1527 41.7353 35.6434 41.3026 36.0517 40.8999C36.546 40.4122 36.4312 39.9404 36.3174 39.4726C36.2182 39.0651 36.1198 38.6607 36.426 38.2518C36.5982 38.0215 36.8057 37.9035 37.0367 37.8618C35.4912 36.8266 34.1312 34.727 34.7073 32.6066C35.1637 30.9256 36.2234 29.4173 37.6834 28.7487C38.15 28.5354 38.6509 28.4249 39.1509 28.4007C39.3538 28.3914 39.5586 28.397 39.7602 28.4201C42.0655 28.6846 45.7809 32.3196 43.4281 34.9582C42.5482 35.9439 41.2407 35.9785 40.3083 35.0955C39.3879 34.2225 38.9293 32.7664 39.729 31.5632C39.8628 31.3617 40.0122 31.3771 40.0844 31.6076C40.1264 31.7403 40.0635 31.9289 40.0037 32.1086C39.9649 32.2245 39.9276 32.3367 39.9203 32.4279C39.8965 32.7252 39.9945 33.0255 40.1578 33.2563C40.8769 34.2775 41.9426 33.798 42.0884 32.6083C42.1909 31.773 41.9954 30.484 41.2993 30.0211C40.8808 29.7428 40.3514 29.781 39.8806 29.9307C39.0233 30.2042 38.1774 31.0725 37.6393 31.8595C36.4081 33.6608 37.4356 35.2222 38.7356 36.4675C39.7908 37.477 40.8563 37.614 42.1887 37.4084C42.232 37.4018 42.2851 37.3897 42.3437 37.3763C42.5863 37.3208 42.9232 37.2438 43.0521 37.4538C43.119 37.5631 43.1337 37.6625 43.1087 37.7532C43.3128 37.7472 43.5197 37.8023 43.7041 37.9217C44.1707 38.2246 44.1846 38.6304 44.1999 39.0799C44.2066 39.2747 44.2135 39.478 44.2578 39.6844C44.4187 40.4346 45.021 40.0944 45.5501 39.7954C45.824 39.6405 46.0782 39.4968 46.2414 39.5214C46.4438 39.5527 46.5937 39.763 46.6416 39.9842C46.704 40.2699 46.64 40.5887 46.5759 40.9076C46.4854 41.3586 46.3948 41.8094 46.6623 42.1652C46.8209 42.3765 47.0607 42.4547 47.3039 42.5339C47.4634 42.586 47.6245 42.6384 47.7648 42.7293C47.9894 42.8753 48.1525 43.1176 48.2834 43.369C48.7212 44.2155 48.8494 45.2583 48.6323 46.2092L48.6294 46.2226C48.6104 46.3064 48.5904 46.3951 48.6128 46.4774C48.6655 46.6742 48.8547 46.6711 49.0579 46.6676C49.2149 46.6649 49.3804 46.6622 49.4978 46.7516C49.7619 46.9524 49.5963 47.401 49.4736 47.7332L49.4712 47.7396C49.222 48.4133 49.2862 49.1901 49.51 49.8725C49.6014 50.1518 49.7738 50.4362 49.9469 50.7219C50.1744 51.0974 50.4033 51.4752 50.452 51.8466C50.494 52.165 50.3356 52.4081 50.1798 52.6473C50.0302 52.8769 49.883 53.1029 49.9174 53.3885C49.9365 53.5425 50.0165 53.673 50.0963 53.8029L50.1257 53.8511C50.1362 53.8685 50.1466 53.886 50.1567 53.9036ZM42.1574 38.4033L42.1971 38.3372C41.8487 38.4432 41.4845 38.5121 41.267 38.5531C41.2087 38.5641 41.1609 38.5732 41.127 38.5804L41.0786 38.5903C41.1248 38.5976 41.1701 38.6111 41.2144 38.6327C41.2685 38.6594 41.3182 38.6975 41.3678 38.7355C41.4449 38.7943 41.5214 38.8526 41.6121 38.8677C41.8547 38.9083 42.0105 38.6481 42.1574 38.4033ZM40.4123 38.7111C40.4574 38.7 40.503 38.6869 40.5489 38.6734C40.3294 38.6983 40.1096 38.7112 39.8908 38.7113C40.0767 38.7454 40.2523 38.7504 40.4123 38.7111ZM23.5551 29.0743C25.0097 29.1075 26.3093 28.5262 27.3629 27.4446C28.5683 26.2081 29.3431 24.4833 29.4721 22.6701C29.5066 22.1864 29.4426 21.7258 29.3787 21.2664C29.3278 20.9 29.277 20.5344 29.2763 20.1587C29.2754 19.8419 29.3764 19.5763 29.4808 19.3019V19.3018C29.5149 19.2124 29.5492 19.122 29.5806 19.0285C29.9534 17.9192 29.3138 16.3819 28.2201 16.2158C26.4966 15.953 24.482 16.2714 22.8223 16.7584C21.288 17.2079 19.7556 17.8909 18.4377 18.8695C18.1399 19.0915 17.8796 19.3626 17.6246 19.6396L17.5305 19.7427C17.4335 19.8493 17.3364 19.956 17.2355 20.0591C17.2065 20.0884 17.1768 20.123 17.1462 20.1585C17.0775 20.2383 17.0044 20.3233 16.926 20.3654C16.7695 20.4503 16.567 20.4388 16.3685 20.4275C16.2303 20.4196 16.0942 20.4118 15.9768 20.4368C15.633 20.5078 15.2892 20.6483 14.9789 20.8198C14.9435 20.8393 14.912 20.8573 14.8835 20.8734L14.883 20.8737L14.8829 20.8738C14.6603 21 14.6198 21.023 14.3773 20.9568C14.2476 20.9217 14.1242 20.8659 14.0025 20.8061C12.2627 19.9566 10.3092 20.0211 8.46184 20.2801C7.06179 20.4769 5.69896 20.871 4.41046 21.4986C4.26097 21.5715 4.08925 21.6443 3.90853 21.721H3.90846H3.9084C3.24606 22.0018 2.4628 22.3339 2.2088 22.9056C2.0105 23.3481 1.89969 24.0243 1.96809 24.5153C2.04026 25.0383 2.31489 25.3133 2.60835 25.6071H2.60838C2.75579 25.7546 2.90794 25.907 3.04156 26.0979C3.25349 26.3999 3.33491 26.7505 3.41754 27.1063C3.45287 27.2583 3.48844 27.4114 3.53452 27.5621C3.74963 28.2653 4.06784 28.9238 4.47089 29.5201C6.11052 31.9409 9.15313 33.25 11.7349 31.9807C13.0554 31.3314 14.0947 30.1526 14.7705 28.7615C15.1466 27.9869 15.1072 27.1652 15.0673 26.3353C15.0423 25.8147 15.0171 25.2908 15.0943 24.7733C15.1992 24.0764 15.3575 23.6284 15.9761 23.3607C16.4864 23.1389 17.2544 23.1635 17.6952 23.5842C18.1292 23.9974 18.3375 24.7078 18.5477 25.425C18.732 26.0534 18.9178 26.6869 19.2582 27.1303C20.2077 28.3661 22.1498 29.0414 23.5551 29.0743ZM24.5707 35.7113C24.3576 36.0622 24.0966 36.5677 24.4817 36.6941C25.0244 36.8705 24.9644 36.2065 24.8501 35.7587C24.8139 35.6187 24.6443 35.5889 24.5707 35.7113ZM21.5403 44.3281C21.5965 44.2687 21.6377 44.1915 21.6627 44.0657C21.7248 43.7489 21.0346 43.6392 21.1602 44.2013C21.2016 44.3877 21.414 44.4619 21.5403 44.3281ZM15.3552 44.0824C15.4087 44.1704 15.8156 44.6801 15.8713 44.2415C15.9528 43.6078 15.8362 43.1367 15.4275 43.0056C15.2931 42.9622 15.1606 43.0789 15.1665 43.2323C15.1783 43.528 15.215 43.8523 15.3552 44.0824ZM17.2369 36.8859C17.2216 36.9945 17.3402 37.0678 17.419 36.9994C17.5133 36.9168 17.6363 36.8187 17.7705 36.7119C18.2334 36.3433 18.8279 35.87 18.8275 35.5592C18.8266 35.1238 17.3723 35.9464 17.2369 36.8859ZM20.3079 32.5787C20.3981 33.1633 20.5481 33.8223 20.877 33.4475C21.6473 32.5636 20.5311 31.5336 19.7959 31.6571C19.4776 31.764 19.6684 31.845 19.7508 31.8799L19.7598 31.8836C19.7657 31.8862 19.7708 31.8885 19.7747 31.8904C20.0452 32.0212 20.2586 32.259 20.3079 32.5787ZM10.0748 2.12654C9.01624 2.83048 8.07608 3.8984 7.51877 5.11726C6.96011 6.33856 6.63807 7.71295 6.61877 9.08519C6.60539 10.061 6.63598 12.1386 7.78572 12.4141C8.357 12.5514 8.89325 12.02 9.13527 11.4378C9.1509 11.4006 9.16606 11.3626 9.18127 11.3245H9.1813C9.261 11.125 9.34239 10.9212 9.50187 10.7962C9.73956 10.6109 10.0441 10.8627 10.3695 11.1313C10.6701 11.3797 10.9885 11.6428 11.2882 11.5892C11.4357 11.5631 12.293 11.3001 12.216 11.0676C12.2036 11.0307 12.1739 11.0054 12.1452 10.983C11.9553 10.8276 11.771 10.6764 11.5966 10.5027C11.3666 10.2729 11.1454 10.0293 10.9427 9.76929C10.5269 9.23713 10.1891 8.63281 9.98455 7.96681C9.56766 6.60751 9.71545 5.13623 10.4664 3.95734C10.8469 3.3602 11.3775 2.95267 11.9802 2.66086C12.167 2.57015 12.3641 2.50158 12.5615 2.43301C12.866 2.32707 13.171 2.22113 13.4391 2.03339C13.5222 1.97517 13.6098 1.89366 13.6069 1.78542C13.6042 1.67646 13.5113 1.5984 13.4233 1.54694C13.1708 1.39859 12.887 1.33807 12.6036 1.32024C12.0841 1.28934 11.561 1.42188 11.0754 1.61062C10.7277 1.74646 10.3896 1.91666 10.0748 2.12654ZM15.7972 3.87468C15.7085 3.80324 15.6158 3.73956 15.519 3.68306C15.0877 3.43193 14.5832 3.33476 14.1022 3.41569C13.4171 3.53141 12.8287 3.97904 12.2573 4.41374L12.1613 4.48677C11.6811 4.84945 11.1576 5.24721 10.9891 5.86145C10.855 6.35523 10.9859 6.90148 11.2335 7.34279C11.4345 7.7003 11.7053 7.99226 11.9765 8.28464C12.1667 8.48963 12.357 8.69476 12.5234 8.92289C12.8685 9.39569 13.2269 9.86489 13.6223 10.2894C13.9769 10.669 14.303 10.6068 14.7302 10.4432C15.1615 10.2785 15.4688 10.3157 15.8964 10.3674L15.9933 10.3792C16.2573 10.4107 16.5279 10.3762 16.7783 10.2803C16.9025 10.2332 17.021 10.1714 17.1396 10.1096C17.2756 10.0387 17.4117 9.96781 17.5555 9.91937C17.8247 9.82852 18.1478 9.83125 18.3557 10.0423C18.5314 10.221 18.5798 10.4957 18.6257 10.7566L18.6401 10.8368C18.6923 11.1211 18.7973 11.4382 19.0441 11.5426C19.172 11.5968 19.3098 11.581 19.4479 11.5652C19.5087 11.5581 19.5696 11.5512 19.6297 11.5502C20.0604 11.5429 20.4666 11.8611 20.6561 12.2864C20.8446 12.7123 20.8319 13.2233 20.6808 13.6645C20.6311 13.8087 20.5711 13.9881 20.6651 14.1044C20.6962 14.1439 20.74 14.1665 20.783 14.1886L20.7895 14.192C21.0899 14.3437 21.4587 14.4918 21.7304 14.2871C21.8571 14.192 21.9336 14.0354 21.9895 13.8775C22.339 12.8944 22.0063 11.729 21.3598 10.94C20.7205 10.1564 19.843 9.53455 18.8916 9.35098C18.4599 9.26761 18.025 9.28184 17.6041 9.41366C17.4941 9.44773 17.3848 9.48711 17.2753 9.5265L17.2751 9.52664C16.9814 9.63244 16.6866 9.73867 16.3738 9.74227C15.7171 9.75032 15.1138 9.2827 14.738 8.68959C14.4435 8.22254 14.2618 7.66767 14.2431 7.10187C14.2196 6.37852 14.5333 5.19517 15.2939 5.02914C15.3395 5.02008 15.3877 5.01447 15.4318 5.03115C15.5337 5.06838 15.5319 5.15722 15.4739 5.2324C15.0846 5.74401 14.8528 6.31354 15.1276 6.96732C15.2441 7.24792 15.4395 7.49603 15.6943 7.62699C15.9485 7.75679 16.2639 7.75737 16.4995 7.59234C16.7512 7.41381 16.8794 7.07456 16.8975 6.74465C16.927 6.22916 16.7827 5.61334 16.6178 5.13077C16.4502 4.64116 16.1847 4.18763 15.7972 3.87468ZM15.8204 12.3769C15.8938 12.2221 15.8113 12.0324 15.6554 11.9928L15.6487 11.9911C15.3823 11.9245 15.094 11.8525 15.0216 12.2291C14.9917 12.3878 15.1471 12.5835 15.2673 12.6384C15.4753 12.732 15.722 12.5835 15.8204 12.3769ZM22.9244 57.2611C22.1558 56.8842 21.1203 57.5222 20.7131 58.2311C19.2482 60.7798 24.4545 60.2609 24.356 58.7088C24.3341 58.3597 24.1164 58.2447 23.8872 58.1235C23.7986 58.0766 23.7081 58.0289 23.6266 57.9664C23.5175 57.8827 23.4259 57.767 23.3339 57.6508C23.2117 57.4966 23.0891 57.3418 22.9244 57.2611ZM24.8601 61.0472C24.8838 61.0186 24.9536 60.9098 24.928 60.881C24.9214 60.8737 24.9087 60.8711 24.8877 60.877C24.8462 60.8886 24.8063 60.9127 24.7669 60.9364H24.7668V60.9365C24.7445 60.9499 24.7223 60.9633 24.7002 60.9742C24.6337 61.0064 24.5663 61.0347 24.4979 61.0609C24.3644 61.1123 24.2288 61.1552 24.0925 61.197C23.7913 61.2906 23.485 61.3639 23.177 61.4223C22.8208 61.4898 22.4493 61.5594 22.0879 61.5434C22.0683 61.5426 22.045 61.5442 22.038 61.564C22.0328 61.5761 22.0383 61.592 22.0468 61.6017C22.1277 61.6906 22.2444 61.7415 22.3505 61.7877L22.3727 61.7974C22.7213 61.9507 23.1095 61.9904 23.478 61.9153C24.0141 61.8064 24.4948 61.4852 24.8601 61.0472ZM30.7096 19.41C30.6156 20.204 30.5186 21.0241 30.644 21.8647C30.9334 23.8134 30.2632 25.7766 29.2706 27.3564C29.0286 27.7409 28.7223 28.0687 28.4185 28.3937L28.4179 28.3943C28.3695 28.446 28.3213 28.4976 28.2735 28.5494C28.0416 28.8009 27.8249 29.067 27.6081 29.3334C27.554 29.3999 27.4998 29.4665 27.4454 29.5328C27.3942 29.5953 27.3412 29.6629 27.329 29.7461C27.321 29.8052 27.335 29.8641 27.3489 29.9226C27.3526 29.9383 27.3564 29.9538 27.3596 29.9695C27.4173 30.2588 27.3114 30.5537 27.1934 30.819C26.9649 31.3335 26.6836 31.8191 26.3572 32.2633C26.2691 32.3835 26.1775 32.5011 26.0859 32.6185L26.0857 32.6188C25.8437 32.9291 25.6016 33.2395 25.4255 33.598C25.1826 34.0924 25.081 34.717 25.3241 35.2148C25.3652 35.2996 25.4156 35.3796 25.4658 35.4593C25.5559 35.602 25.6453 35.7441 25.6806 35.912C25.714 36.0656 25.6962 36.2259 25.6789 36.3835L25.6786 36.3862L25.5821 37.2334C25.5183 37.7954 25.2923 38.1192 24.752 37.9581C24.5226 37.8901 24.2318 37.8358 24.0904 38.0432C24.0325 38.1284 24.0182 38.2361 24.0038 38.3439C23.9898 38.4496 23.9757 38.5555 23.9206 38.6408C23.8619 38.7318 23.7637 38.7871 23.6678 38.8413C23.5407 38.9129 23.4179 38.9823 23.3966 39.1286C23.3881 39.1863 23.3992 39.2445 23.4102 39.3024C23.422 39.3641 23.4337 39.4255 23.4218 39.4859C23.4083 39.558 23.3649 39.6148 23.3211 39.6722C23.2981 39.7022 23.2751 39.7324 23.2562 39.765C23.113 40.017 23.2474 40.3468 23.4053 40.589L23.444 40.6487C23.5918 40.8756 23.7506 41.1199 23.718 41.3897C23.6961 41.5674 23.5958 41.713 23.4951 41.8589C23.3986 41.999 23.3018 42.1393 23.2742 42.3087C23.2529 42.4385 23.2756 42.5696 23.2984 42.7013C23.3186 42.8183 23.339 42.9357 23.3285 43.0532C23.3101 43.264 23.1972 43.4424 23.0855 43.619C23.0576 43.6631 23.0298 43.7069 23.0035 43.7514C22.8017 44.0935 22.7561 44.4425 22.7097 44.7984C22.6808 45.0198 22.6516 45.2439 22.5842 45.4706C22.2381 46.637 20.9962 46.7123 20.1419 46.2144C19.9462 46.0997 19.7447 45.9119 19.5365 45.718C19.1794 45.3854 18.8028 45.0346 18.4034 45.004C17.9852 44.9732 17.9356 45.1535 18.0128 45.5432C18.1134 46.0486 18.1969 46.5565 18.2595 47.0694C18.3813 48.0519 18.4316 49.0454 18.4115 50.0364C18.4025 50.4701 18.3584 50.9203 18.314 51.3754C18.2213 52.323 18.1266 53.2922 18.341 54.1796L18.3658 54.281C18.5025 54.8371 18.6012 55.2394 18.0416 55.6477C17.8292 55.8025 17.5739 55.8485 17.3207 55.8941C17.041 55.9445 16.7638 55.9944 16.5499 56.1902C16.0715 56.6293 16.1691 57.1845 16.5306 57.6465C16.9141 58.1353 17.3639 58.5603 17.8784 58.8733C18.2822 59.1172 18.7072 59.2542 19.1382 59.3931H19.1383C19.2454 59.4276 19.3528 59.4622 19.4603 59.4986C19.8945 59.6455 19.9326 58.6506 19.9558 58.0471C19.9622 57.8784 19.9675 57.7401 19.9801 57.6662C20.0709 57.119 20.2873 56.5632 20.7106 56.2586C20.8046 56.191 20.9016 56.1356 20.9944 56.0827C21.3143 55.9 21.5825 55.7467 21.4885 55.2279C21.4274 55.0666 21.4081 54.857 21.3899 54.6582C21.3803 54.5539 21.3708 54.4525 21.3559 54.3625C21.2945 53.9944 21.236 53.6244 21.1783 53.2545C21.0675 52.5378 20.9638 51.8193 20.8687 51.0989C20.8579 51.0188 20.8379 50.9055 20.8138 50.7695L20.8136 50.7694C20.6659 49.9372 20.3674 48.2555 21.1488 48.1295C21.6329 48.3509 21.7945 48.9861 21.9389 49.554V49.5541L21.9391 49.555C21.9704 49.678 22.0009 49.798 22.0337 49.9099C22.2764 50.7362 22.5136 51.5646 22.7451 52.396C22.9111 52.9917 23.0741 53.5893 23.2343 54.1889C23.2642 54.3002 23.2902 54.4226 23.3173 54.5493C23.4018 54.9455 23.4951 55.3832 23.74 55.6513C23.8763 55.8015 24.0571 55.8729 24.2371 55.9439V55.9441C24.3385 55.9842 24.4399 56.0242 24.5329 56.0782C25.6649 56.737 26.4878 57.917 26.6064 59.3393C26.8449 62.1956 23.3198 64.7929 21.1612 62.8083C20.9685 62.6322 20.8066 62.4068 20.7089 62.1524C20.684 62.088 20.665 62.0257 20.6466 61.9655C20.5967 61.8019 20.5518 61.6547 20.4065 61.5262C20.2142 61.356 19.9329 61.3153 19.6765 61.2782C19.6004 61.2673 19.5265 61.2566 19.4579 61.243C19.0681 61.1668 18.6795 61.089 18.2939 60.9942C17.5272 60.8064 16.7641 60.5547 16.0754 60.1304C15.7386 59.9231 15.4802 59.6166 15.2216 59.31C15.1368 59.2094 15.052 59.1087 14.9644 59.0116C14.8387 58.8724 14.6827 58.7522 14.5259 58.6316C14.2907 58.4505 14.0537 58.2681 13.9143 58.0178C13.7378 57.7 13.7627 57.2961 13.8464 56.9383C14.0352 56.1275 14.5111 55.4132 15.1348 54.9403C15.3403 54.7842 15.6051 54.6782 15.8741 54.5707C16.3499 54.3804 16.8385 54.1849 17.0341 53.698C17.2172 53.2088 17.1769 52.6331 17.1389 52.0913C17.129 51.9488 17.1191 51.8088 17.1135 51.6734C17.0824 50.9065 17.0333 50.1392 16.9654 49.3747C16.9249 48.9098 16.8528 48.4435 16.7809 47.9778C16.6967 47.4331 16.6127 46.8893 16.5794 46.3501C16.5718 46.2333 16.5424 46.1224 16.4246 46.0969C16.3804 46.0874 16.3361 46.0906 16.2915 46.0938L16.2771 46.0948C16.267 46.0955 16.2569 46.0961 16.2468 46.0965C15.8521 46.1192 15.4112 45.8708 15.112 45.6003C14.6842 45.213 14.5759 44.6649 14.512 44.0919C14.5088 44.0632 14.5054 44.0279 14.5015 43.9877C14.4656 43.6148 14.3881 42.8099 14.0466 42.7652C13.9981 42.7591 13.9528 42.7808 13.9073 42.8026C13.8672 42.8219 13.8268 42.8411 13.7839 42.8416C13.7108 42.8423 13.6488 42.7907 13.5894 42.7412L13.5607 42.7175C13.4913 42.663 13.3935 42.6216 13.3251 42.6767C13.263 42.727 13.2687 42.8137 13.2746 42.9041C13.2791 42.9719 13.2836 43.042 13.2597 43.1C13.2177 43.2024 13.0992 43.2421 12.9862 43.28C12.9219 43.3016 12.8594 43.3225 12.8138 43.354C12.7018 43.4322 12.6134 43.5444 12.5253 43.6562C12.4611 43.7377 12.3971 43.8189 12.3242 43.8868C12.0328 44.1609 11.7144 43.8986 11.5994 43.5418C11.4959 43.2209 11.5342 42.882 11.5728 42.5401C11.5992 42.3064 11.6257 42.0712 11.6072 41.8395C11.575 41.4442 11.4047 41.0622 11.1394 40.7911L11.1067 40.758C11.0388 40.6902 10.9695 40.6208 10.9412 40.5259C10.9034 40.3997 10.95 40.2745 10.9974 40.1474C11.0231 40.0784 11.0491 40.0088 11.0617 39.9382C11.1222 39.6014 10.8881 39.3184 10.6677 39.0519C10.6252 39.0006 10.5832 38.9498 10.544 38.8994C10.2226 38.4855 10.0406 37.9431 10.0437 37.4015C10.0442 37.3576 10.0457 37.3137 10.0473 37.2697C10.0518 37.1402 10.0564 37.0106 10.033 36.8849C9.96258 36.4944 9.73635 36.5232 9.4982 36.5537C9.29482 36.5795 9.08275 36.6067 8.95166 36.3745C8.89439 36.2738 8.89205 36.1486 8.89072 36.03C8.89001 35.9421 8.88988 35.8559 8.88976 35.7711C8.88861 34.948 8.88765 34.2633 8.34756 33.5795C8.05917 33.2155 7.56023 33.1006 7.07559 32.9891H7.07552C6.86142 32.9398 6.65012 32.8912 6.46099 32.822C5.84197 32.5966 5.23921 32.3099 4.68018 31.9386C3.72553 31.3043 2.92854 30.4196 2.42124 29.3232C2.15149 28.7385 1.98374 28.1216 1.85485 27.4855C1.69349 26.6862 1.46464 26.2347 1.00955 25.5988C0.47528 24.8534 0.173949 24.1417 0.252617 23.1687C0.29067 22.7061 0.397553 21.6514 0.70663 21.3208C0.922509 21.0896 1.37691 21.0235 1.73 20.9722H1.73003C1.80983 20.9607 1.88446 20.9497 1.94998 20.9379C2.53194 20.8339 3.05606 20.6411 3.59463 20.4429H3.59485L3.59503 20.4427C3.79574 20.369 3.99845 20.2944 4.20691 20.2234C4.75355 20.0378 5.17961 19.4615 5.54793 18.9368C5.78165 18.6043 6.02524 18.2058 5.66546 17.941C5.55829 17.8624 5.4111 17.8643 5.26435 17.8663C5.14102 17.8679 5.01801 17.8695 4.91933 17.8232C4.31082 17.5396 4.5559 17.182 4.83557 16.7741H4.83559C4.86672 16.7287 4.89827 16.6827 4.92914 16.6361C4.95917 16.5908 4.98883 16.5457 5.01834 16.5008L5.01895 16.5L5.01908 16.4997C5.31079 16.0558 5.58717 15.6353 6.06032 15.3925C6.15603 15.3435 6.24646 15.3057 6.32999 15.2707H6.33C6.64141 15.1408 6.85696 15.0508 6.89314 14.5603C6.93717 13.9687 6.70357 13.0508 6.44882 12.6157C6.38687 12.5097 6.3248 12.4052 6.26315 12.3016L6.26301 12.3013C5.95701 11.7865 5.66118 11.2889 5.44073 10.7019C4.54056 8.30434 5.16116 5.66035 6.55825 3.6661C8.04348 1.54737 10.4934 -0.0660799 12.9954 0.10412C15.4925 0.274751 18.1778 2.34547 18.268 5.25023C18.281 5.6809 18.2435 6.1087 18.206 6.53621H18.2059V6.53636C18.1903 6.71461 18.1747 6.89271 18.1627 7.07096C18.1583 7.13709 18.152 7.19962 18.146 7.25899C18.1187 7.53024 18.0983 7.73221 18.3019 7.88847C18.401 7.96537 18.6243 7.97299 18.8054 7.97932C18.8793 7.98176 18.946 7.98406 18.9946 7.99082C20.2355 8.158 21.1185 8.60894 21.9337 9.69109C22.6019 10.5775 23.0624 11.6725 23.2509 12.8026C23.27 12.9183 23.2737 13.0462 23.2774 13.1769C23.2856 13.4605 23.294 13.7569 23.4626 13.9679C23.4978 14.0114 23.5408 14.043 23.584 14.0746C23.6182 14.0998 23.6525 14.1249 23.683 14.1561L23.7291 14.2035C23.7861 14.2619 23.8438 14.321 23.8972 14.3834C24.0178 14.525 24.0655 14.6791 24.0502 14.8716C24.045 14.9388 24.0334 15.0051 24.0203 15.0709C23.9905 15.2144 24.137 15.3469 24.2749 15.2281C24.6763 14.8823 25.1625 14.6909 25.6631 14.8059C26.3978 14.9759 27.0289 14.8924 27.598 14.8172C28.3909 14.7124 29.063 14.6234 29.7258 15.2588C31.0506 16.5286 30.8855 17.9238 30.7096 19.41ZM13.6427 21.3019C12.9293 20.6868 11.332 20.8491 10.3409 20.9497C10.2339 20.9607 10.134 20.9707 10.043 20.9791C8.8658 21.0892 7.65726 21.5026 6.76067 22.4176C4.6927 24.5291 5.30901 28.5909 7.77648 29.9133C9.80595 31.0016 13.3916 30.7624 14.419 28.0878C15.1594 26.1572 15.2689 22.7026 13.6427 21.3019ZM22.5216 19.0541C23.6939 18.4229 25.0033 18.0211 26.2771 18.3591C28.665 18.9927 29.7164 22.1738 28.6893 24.6928C27.7491 26.9974 24.6692 28.7217 22.5862 27.801C20.7873 27.0046 18.9592 22.9177 20.0862 20.7968C20.4678 20.079 21.3514 19.6405 22.0771 19.2802C22.235 19.2017 22.3854 19.1271 22.5216 19.0541Z" fill="#BDBDBD"/>
</svg>
