<svg width="92" height="92" viewBox="0 0 92 92" fill="none" xmlns="http://www.w3.org/2000/svg">
<path fill-rule="evenodd" clip-rule="evenodd" d="M44.9805 24.2932C44.6119 23.9502 44.2787 23.571 43.986 23.1613C43.3618 22.2088 43.1078 21.0607 43.2721 19.9337C43.3827 19.3883 43.5277 18.6546 43.0089 18.4463C42.7605 18.3764 42.4972 18.3823 42.2522 18.463C41.932 18.5902 41.5931 18.6156 41.4359 18.3292C41.3882 18.2031 41.3716 18.0675 41.388 17.9337C41.4546 16.4065 40.9317 14.9119 39.9275 13.7594C39.635 13.4144 39.2658 13.1427 38.8494 12.966C38.5787 12.883 38.2972 12.8404 38.0142 12.8396C37.5904 12.8477 37.1748 12.7229 36.8257 12.4825C36.5879 12.2426 36.414 11.947 36.3195 11.6227C36.2251 11.2983 36.2132 10.9555 36.285 10.6254C36.3464 10.1468 36.2882 9.6604 36.1157 9.20975C36.0494 9.04909 35.9376 8.91129 35.7941 8.81326C35.6507 8.71525 35.4816 8.66131 35.3078 8.65804C34.9003 8.77217 34.5281 8.98737 34.226 9.2837L34.2107 9.29588C33.4044 9.94114 32.5701 10.6088 32.0007 9.55624C31.8577 9.27946 31.7424 8.98916 31.6567 8.6896C31.6359 8.34014 31.5138 8.00431 31.3054 7.72303C31.0969 7.44177 30.8112 7.22724 30.4828 7.10557C30.0391 6.96136 29.5591 6.97469 29.124 7.14332C28.6995 7.33307 28.353 7.66305 28.1429 8.0779C28.0947 8.17143 28.0529 8.26815 28.0178 8.36738L27.9991 8.41092C27.8238 8.81824 27.6469 9.22897 27.2327 9.24604C27.0765 9.23846 26.9245 9.19422 26.7888 9.11686L26.4879 9.01818C26.1176 8.98152 25.746 9.07502 25.4371 9.28259L25.1545 9.39475C24.1854 9.63244 23.1711 9.61414 22.2112 9.34165L22.1886 9.33762C20.6008 9.05606 18.9913 8.77067 18.3023 10.0425C18.1521 10.3608 18.0982 10.7162 18.1475 11.0648C18.1967 11.4134 18.3467 11.74 18.5793 12.0043C18.8129 12.3228 18.9368 12.7086 18.9324 13.1037C18.9279 13.4987 18.7954 13.8816 18.5546 14.1948C18.3209 14.6006 18.0025 14.9512 17.6211 15.2229C17.2399 15.4945 16.8045 15.6811 16.3447 15.7697L16.0624 15.7727C15.8236 15.7195 15.574 15.7494 15.3546 15.8574C14.9814 16.0054 14.9801 16.4978 14.979 16.9313V16.9441C14.9913 17.1715 14.9718 17.3995 14.9208 17.6215L14.7577 18.035C14.6616 18.2142 14.5985 18.4091 14.5717 18.6105C14.5865 18.9786 14.7264 19.3308 14.968 19.609C15.0409 19.702 15.1085 19.7989 15.1706 19.8993C15.3872 20.4025 15.4611 20.9555 15.3839 21.4978C15.3067 22.0401 15.0816 22.5507 14.7332 22.9733L14.0534 23.7883C13.6928 24.1321 13.3781 24.5208 13.1169 24.9451C12.6596 25.9424 12.45 27.0357 12.506 28.1315C12.4535 28.5587 12.5269 28.9918 12.7172 29.3779C12.7529 29.4872 12.7953 29.5941 12.8443 29.6982C12.8835 29.7968 12.9377 29.8914 12.9899 29.9827C13.1172 30.2051 13.2334 30.4077 13.0941 30.6022C13.0194 30.7078 12.9141 30.7875 12.7924 30.8309C12.6725 30.8562 12.5578 30.9017 12.4532 30.9656C12.3775 31.1381 12.3548 31.3293 12.3878 31.5149C12.4513 32.0311 12.5354 32.3238 12.6023 32.5567C12.7172 32.9561 12.7814 33.1798 12.6046 34.0547C12.4827 34.4458 12.6986 35.0259 12.8659 35.4755C12.8983 35.5625 12.9289 35.6448 12.9548 35.7197C13.2539 36.4733 13.6141 36.6936 14.2774 37.0027C14.4786 37.056 14.6255 37.0185 14.7389 36.9896C14.8745 36.955 14.9622 36.9326 15.0376 37.0927C15.0767 37.2541 15.0839 37.4217 15.0589 37.5859C15.0393 37.8093 15.083 38.0338 15.1851 38.2336C15.3008 38.4214 15.4542 38.5832 15.6355 38.709C15.7755 38.7785 15.8977 38.8792 15.9923 39.0036C16.0414 39.1703 16.0357 39.3486 15.9759 39.5117C15.9223 39.7659 15.9437 40.0301 16.0378 40.2722C16.1208 40.5262 16.2711 40.7529 16.4727 40.9284C16.1042 40.7692 16.2444 41.4371 16.4692 41.7841C16.5492 41.8707 16.5957 41.9394 16.6327 41.994C16.7168 42.1182 16.7517 42.1698 17.0188 42.1944C17.4099 42.3009 17.8612 42.449 17.973 42.8407C17.994 42.9604 18.0293 43.0202 18.0554 43.0642C18.0963 43.1336 18.114 43.1634 18.0147 43.3277C17.8633 43.5732 17.7939 43.8603 17.8167 44.1478C17.8717 44.3604 17.997 44.5481 18.1722 44.6805C18.3476 44.8129 18.5625 44.8821 18.782 44.8768C18.9435 44.8747 19.0608 44.9459 19.1725 45.0138C19.3063 45.095 19.4321 45.1713 19.6155 45.1109L19.8604 45.0138C20.6023 44.8079 21.3766 44.7449 22.1419 44.828C22.2458 44.8184 22.3506 44.8325 22.4484 44.8691C22.5461 44.9059 22.6341 44.9644 22.706 45.0403C22.8031 45.2852 22.8062 45.5675 22.7262 45.8609L22.6542 46.064C22.5838 46.4422 22.6536 46.8332 22.8507 47.1635C23.0477 47.493 23.3551 47.7418 23.7184 47.866C23.9645 47.9176 24.2156 47.9422 24.4672 47.9395C24.8537 47.9087 25.2394 48.0092 25.5617 48.2247C25.8496 48.5075 26.0466 48.8697 26.1272 49.2652C26.1806 49.4256 26.2429 49.5828 26.3142 49.7361C26.4422 49.8075 26.5629 49.891 26.6749 49.9855C26.8067 50.1019 26.9298 50.228 27.0428 50.363C27.4303 50.3405 27.8003 50.1936 28.0977 49.9442L28.569 49.6481L28.6749 49.6051C29.1565 49.4093 29.3185 49.3435 29.8881 49.3894C30.3572 49.4177 30.828 49.3848 31.2886 49.2915C31.4343 49.2522 31.5771 49.2035 31.7162 49.1457C28.618 47.7262 29.6077 47.4457 32.1792 46.7169C33.9487 46.2155 36.4672 45.5018 38.9182 44.0587C40.9269 42.876 41.4357 40.3092 42.1305 36.8035C42.3368 35.7624 42.9385 32.9408 43.9206 33.8991C44.8094 34.7662 45.1586 35.5708 45.3722 36.0784C45.7252 36.9173 46.1825 35.4374 45.991 34.4579C45.9574 34.2861 45.8859 34.0287 45.804 33.7325C45.3628 32.1408 44.6119 29.4302 47.7405 32.8725C47.8904 32.4563 47.6499 31.8782 47.4327 31.3558C47.3766 31.2211 47.3222 31.0901 47.2763 30.9666C47.2072 30.745 47.1975 30.6399 47.1895 30.5528C47.179 30.4392 47.1712 30.3557 47.0388 30.084C46.8682 29.6952 46.6309 29.3391 46.3378 29.0319L46.2705 28.8624C46.0839 28.7079 45.933 28.5148 45.8279 28.2966C45.7403 27.8829 45.8201 27.4515 46.0494 27.0965C46.1749 26.9069 46.258 26.6924 46.2929 26.4677C46.328 26.243 46.3142 26.0135 46.2524 25.7947C45.9433 25.2073 45.5092 24.6947 44.9805 24.2932ZM15.4012 29.2723C15.4374 29.803 14.4658 29.9925 14.2864 29.5402C13.9947 28.8055 15.3165 28.5644 15.4012 29.2723ZM16.0225 19.4086C16.0006 19.3232 15.968 19.2408 15.9253 19.1636C15.7982 18.8433 15.7617 18.4217 15.977 18.14C16.1924 17.8582 16.9755 17.7437 17.0491 18.3687C17.0986 18.4933 16.9419 18.6999 16.7986 18.8886C16.7685 18.9282 16.7392 18.9668 16.7125 19.0039L16.5121 19.3233C16.3945 19.6317 16.1002 19.8794 16.0225 19.4086ZM24.6631 36.6745C24.2622 37.4225 23.2588 36.8176 23.2079 36.1399C23.1325 34.796 25.3781 35.344 24.6631 36.6745ZM24.1407 39.368C24.2248 40.294 22.7469 39.812 22.3827 39.4986C21.7292 38.9511 24.0533 38.2686 24.1407 39.368ZM29.1701 46.6153C28.9922 46.9912 28.1222 47.1621 27.9541 46.6835C27.6444 45.738 29.5674 45.8034 29.1701 46.6153ZM26.8491 45.6228C26.7015 45.6424 26.5514 45.6119 26.4231 45.5366C26.2945 45.4611 26.1949 45.345 26.14 45.2065C26.0851 45.0679 26.0779 44.9151 26.1197 44.7723C26.1614 44.6292 26.2497 44.5043 26.3706 44.4172C27.3428 44.0095 27.7601 45.6103 26.8491 45.6228ZM19.8729 26.4943C19.8494 26.538 19.8436 26.5406 19.8254 26.5489C19.8154 26.5534 19.8018 26.5596 19.7797 26.5749C19.4654 26.809 19.095 26.9559 18.7058 27.0012L18.4797 27.0909C17.8098 27.2096 17.1214 27.1691 16.4701 26.9726C15.955 26.719 15.3638 25.4489 16.2075 25.2668C16.4156 25.1842 16.5532 25.2961 16.6734 25.394L16.7038 25.4188C16.7718 25.4978 16.8565 25.5611 16.9518 25.6038C17.4969 25.8494 18.0845 25.9866 18.6821 26.0074L18.7951 25.9626C18.9077 26.002 19.0632 26.0242 19.2239 26.0472C19.6059 26.1019 20.0174 26.1608 19.9532 26.4625L19.8729 26.4943ZM25.7515 12.0364C25.3369 12.2009 24.2609 12.0174 24.4918 11.555C24.7226 11.0927 26.351 11.624 25.7515 12.0364ZM29.6396 8.55241C29.7318 7.90527 31.1846 9.31314 30.7611 10.0046C30.3377 10.696 29.5371 8.89844 29.6019 8.56738L29.6396 8.55241ZM39.6544 17.357C39.5174 17.891 38.4674 17.828 38.4991 17.2484C38.5308 16.6688 39.7991 16.7325 39.6544 17.357Z" fill="#BDBDBD"/>
<path fill-rule="evenodd" clip-rule="evenodd" d="M60.5178 31.8018L60.5885 31.7713C60.5961 31.6828 60.5943 31.5934 60.5828 31.5047L60.6321 31.3789C60.6285 31.0644 60.6798 30.7517 60.7837 30.455C60.8997 30.0765 61.044 29.7072 61.2157 29.3506C61.2505 29.2672 61.3065 29.1946 61.3786 29.1401C61.4319 29.1153 61.4898 29.1015 61.5487 29.0994C61.6077 29.0976 61.6663 29.1076 61.7213 29.1292L61.959 29.2221C62.1148 29.283 62.3227 29.3602 62.5409 29.4259V29.3891C62.5363 29.2747 62.5199 29.1611 62.492 29.0501C62.4138 28.7898 62.4229 28.5111 62.5179 28.2563C62.5761 28.1541 62.6484 28.0608 62.7327 27.9792C62.7262 27.8802 62.7363 27.7804 62.7627 27.6836C62.8094 27.5127 62.9056 27.3595 63.0391 27.2429C63.1721 27.103 63.317 26.9755 63.4721 26.8615C63.5477 26.7652 63.6402 26.682 63.7461 26.6163L63.7879 26.6307C63.8513 26.528 63.9137 26.4145 63.9752 26.3022C64.1048 26.0659 64.2313 25.8352 64.3572 25.7274C64.551 25.5615 64.6385 25.3378 64.715 25.142L65.7743 24.7826C65.7877 24.6872 65.8233 24.5962 65.8782 24.517C65.9343 24.4406 66.0037 24.375 66.0829 24.3231C66.3217 24.1941 66.5911 24.1323 66.862 24.1441L67.2414 24.1635C67.5139 24.0604 67.8106 24.0389 68.0953 24.1015C68.3799 24.1641 68.6401 24.3083 68.8442 24.5163C68.9537 24.5342 69.0659 24.5286 69.173 24.4999C69.4586 24.3981 69.7089 24.2161 69.8937 23.9758C70.2103 23.4548 70.5268 22.9339 71.2387 23.4217C71.293 23.4567 71.3401 23.503 71.3867 23.549C71.4507 23.6121 71.5141 23.6746 71.5949 23.7061C71.7429 23.8694 71.9197 24.0041 72.1164 24.1036C72.4428 24.2319 72.8039 24.242 73.137 24.1319L73.2208 24.1646C73.4438 24.0669 73.6952 24.056 73.9259 24.1342C74.0491 24.202 74.154 24.2989 74.2315 24.4162C74.3091 24.5337 74.3572 24.6681 74.3715 24.8081C74.396 24.8646 74.4105 24.9248 74.4147 24.9862C74.4492 25.2053 74.5256 25.4158 74.6398 25.606C74.822 25.8365 75.0874 25.9865 75.3789 26.0241C75.5563 26.0613 75.7265 26.1278 75.8822 26.2208C76.0583 26.3504 76.2153 26.5039 76.3484 26.6773C76.5136 26.9021 76.7287 27.0856 76.977 27.2132C77.1252 27.2868 77.2796 27.3471 77.4383 27.3936C77.4909 27.4233 77.5474 27.4455 77.6062 27.4591C77.7977 27.5359 78.0029 27.5722 78.2091 27.5659C78.3984 27.6159 78.5814 27.6874 78.7543 27.7792C79.0509 27.9614 79.3224 28.1813 79.5622 28.4336C79.8675 28.768 80.2465 29.0266 80.6692 29.1889L81.074 29.2666C81.3611 29.2817 81.6357 29.3891 81.8569 29.5727C81.85 29.7028 81.8529 29.8333 81.8655 29.9629C81.8784 30.0706 81.9016 30.1768 81.9348 30.2802C81.896 30.3992 81.8504 30.516 81.7981 30.6297C81.6421 30.8845 81.5658 31.1802 81.5789 31.4788C81.6446 31.7584 81.8027 32.0076 82.0277 32.1862C82.1652 32.3118 82.2887 32.452 82.3961 32.6042C82.5301 32.8549 82.5709 33.145 82.5111 33.4229C82.451 33.7015 82.2913 33.9484 82.062 34.1178L81.9204 34.1914C81.8524 34.2335 81.7908 34.28 81.7364 34.3309C81.7185 34.5458 81.6844 34.7587 81.6346 34.968C81.6585 34.9968 81.6855 35.0229 81.7153 35.0459C82.0877 35.4775 82.539 35.8344 83.0447 36.0978L83.2264 36.1688C83.4647 36.2789 83.685 36.4248 83.8793 36.6013C84.0009 36.7094 84.0823 36.8555 84.1105 37.0156C84.1385 37.1759 84.1115 37.3409 84.0338 37.4838C83.9834 37.5473 83.9257 37.6041 83.8623 37.6533L83.9029 37.6767C83.9447 37.9365 83.8882 38.2026 83.7446 38.4229C83.6624 38.5718 83.601 38.7314 83.5623 38.897C83.5462 39.0065 83.5389 39.1172 83.5401 39.2278C83.5449 39.3814 83.5214 39.5345 83.4705 39.6796L83.4633 39.6925L83.4476 39.7198C83.4512 39.7581 83.4529 39.7967 83.4528 39.8356C83.416 40.0431 83.1843 40.1823 83.0046 40.1597C82.9671 40.1817 82.9283 40.2017 82.8883 40.2197C82.8634 40.2323 82.8388 40.2455 82.8147 40.2593C82.8015 40.3756 82.7696 40.4896 82.72 40.5967C82.6485 40.7752 82.5268 40.9292 82.3694 41.0397C82.2545 41.098 82.1614 41.1915 82.1037 41.3067C82.0922 41.4218 82.1074 41.5381 82.1483 41.6464L82.153 41.6699L82.1573 41.6931C82.2845 42.0362 82.3609 42.3966 82.3833 42.7632C82.3566 42.9342 82.2945 43.0978 82.201 43.2436L82.1842 43.2692L82.1736 43.2845L82.1644 43.2975C82.214 43.313 82.2669 43.3281 82.3231 43.3428C82.8202 43.4727 83.4153 43.6409 83.1966 44.2001C83.0499 44.5313 82.8009 44.8067 82.4862 44.9861C82.4294 45.0268 82.3731 45.0681 82.3172 45.1097C82.2457 45.7696 82.0428 46.4101 81.7186 46.993C81.6825 47.0804 81.6395 47.1644 81.5902 47.2441C81.5948 47.3264 81.5774 47.4084 81.5393 47.4818C81.4988 47.5252 81.4489 47.5588 81.3936 47.5805C81.3612 47.5932 81.3275 47.6018 81.2931 47.6062C81.2641 47.6331 81.2342 47.6593 81.2034 47.6843C81.1808 47.7026 81.158 47.7202 81.1345 47.7373C81.0614 47.7891 80.9837 47.8341 80.9024 47.8718C80.8886 47.8821 80.8746 47.8922 80.8606 47.9022L80.8404 47.9166L80.7999 47.9452L80.7982 47.9464C80.6031 48.0832 80.4215 48.2107 80.4566 48.4399C80.4819 48.5339 80.5258 48.6221 80.5854 48.6992C80.6465 48.7683 80.6901 48.8513 80.7121 48.941C80.7129 49.0079 80.7027 49.0741 80.6827 49.137C80.701 49.2001 80.7126 49.2654 80.7172 49.3317C80.7299 49.5118 80.6899 49.6918 80.6024 49.8498C80.4152 50.3063 80.1093 50.7026 79.7186 50.9989C79.555 51.408 79.419 51.8286 79.3119 52.2576C79.2692 52.6092 79.1205 52.9395 78.8853 53.2044C78.8744 53.2122 78.8636 53.2194 78.8528 53.2263C78.8558 53.253 78.8571 53.2801 78.8564 53.3074C78.8529 53.4454 78.8018 53.5779 78.7118 53.6824C78.5279 53.892 78.2874 54.0439 78.0192 54.1198C77.5323 54.2938 77.0217 54.3923 76.5051 54.4118L76.4318 54.3977C76.166 54.3763 75.9002 54.4407 75.6738 54.5816C75.4498 54.8466 75.3154 55.1758 75.2901 55.522C75.1725 56.1334 75.0551 56.7446 74.1865 56.5141C74.0445 56.4739 73.9061 56.4219 73.7728 56.3586C73.557 56.2795 73.3301 56.2358 73.1004 56.2292C72.9356 56.2256 72.7726 56.2476 72.6168 56.2936C72.5965 56.3543 72.5709 56.4132 72.5402 56.4699C72.4302 56.5939 72.2827 56.6787 72.1201 56.7111C72.0142 56.7322 71.9058 56.7303 71.8019 56.7066C71.678 56.7679 71.5427 56.8052 71.403 56.8157C71.2612 56.7888 71.127 56.7315 71.0095 56.6475C70.8922 56.5637 70.7943 56.4553 70.723 56.33L70.6266 56.172C70.5261 55.9652 70.3783 55.7848 70.1955 55.6455C70.0733 55.5622 69.9354 55.505 69.7904 55.4771C69.6453 55.4492 69.4961 55.4513 69.3518 55.4832C69.1672 55.5121 68.979 55.5102 68.795 55.4776C68.7534 55.4674 68.712 55.4557 68.671 55.4429C68.6614 55.4777 68.6527 55.5138 68.6444 55.5503L68.6205 55.6567C68.619 55.6902 68.6156 55.7237 68.6106 55.7567C68.6069 55.7807 68.6023 55.8044 68.5968 55.828C68.5057 56.0994 68.3238 56.3312 68.0818 56.4842C67.8364 56.6422 67.5431 56.7089 67.2533 56.6727C67.0682 56.6322 66.8882 56.5705 66.717 56.4891C66.4634 56.3425 66.1706 56.2787 65.8792 56.3064C65.5907 56.4137 65.337 56.5975 65.1452 56.8382L65.1148 56.8699C64.8656 57.1301 64.6213 57.3853 64.2827 57.3324C64.1255 57.2776 63.982 57.1893 63.8624 57.0736C63.7428 56.9579 63.6499 56.8175 63.5901 56.6622C63.5253 56.5417 63.4521 56.4262 63.3711 56.3162C63.0639 55.9616 62.6712 55.6915 62.2301 55.5315C61.9048 55.3935 61.5975 55.2161 61.3153 55.0035C61.057 54.7582 60.835 54.4775 60.6561 54.1696C60.5125 53.9287 60.3456 53.7023 60.158 53.4937C59.9446 53.3042 59.6915 53.1651 59.4172 53.0864C59.1983 53.0259 58.9914 52.9277 58.8059 52.7966C58.6607 52.679 58.5358 52.5383 58.4366 52.38C58.366 52.2502 58.2697 52.1362 58.1535 52.045C58.0372 51.9538 57.9035 51.8874 57.7608 51.8497C57.5355 51.803 57.3025 51.8098 57.0804 51.8697L56.8979 51.9005C56.7564 51.9288 56.6105 51.9261 56.4702 51.8926C56.3299 51.8589 56.1987 51.7953 56.0852 51.7059C55.9403 51.5114 55.8649 51.2737 55.8711 51.0312L55.822 50.9929C55.797 50.6385 55.6536 50.3028 55.4145 50.0399C55.259 49.8709 55.0771 49.7281 54.8759 49.6172C54.7406 49.5581 54.6107 49.4876 54.487 49.407C53.7434 48.9026 54.1278 48.4128 54.512 47.9232C54.7567 47.677 54.9171 47.3597 54.9703 47.0167C54.9281 46.7534 54.8024 46.5106 54.6119 46.324L54.5532 46.2778C54.229 45.8751 53.9684 45.4251 53.7805 44.9434C53.6618 44.6913 53.6186 44.4101 53.6563 44.1338C53.6761 43.9973 53.7427 43.8718 53.8446 43.7786C53.9465 43.6855 54.0775 43.6306 54.2153 43.6231C54.3733 43.6402 54.524 43.6985 54.6525 43.7921L54.7799 43.892C54.9693 43.9932 55.2183 43.9987 55.349 43.8322C55.3875 43.7589 55.408 43.6774 55.4089 43.5945C55.4063 43.2304 55.3418 42.8694 55.2181 42.5268C55.1484 42.3066 55.0918 42.0825 55.0485 41.8557C54.9595 41.2877 55.0507 40.7062 55.3091 40.1928C55.371 40.023 55.4806 39.8748 55.6248 39.7661C55.6439 39.7517 55.6636 39.7381 55.6836 39.7253C55.6947 39.7115 55.7059 39.698 55.7174 39.6845C55.7285 39.6714 55.7398 39.6583 55.7515 39.6455C56.065 39.1976 56.34 38.7248 56.5737 38.2325C56.5432 38.1951 56.5192 38.1527 56.503 38.107C56.483 38.051 56.4758 37.9912 56.482 37.9322C56.5148 37.8495 56.5708 37.7781 56.6434 37.7266C56.7054 37.6524 56.7686 37.5794 56.8332 37.5077L56.872 37.4648L56.9167 37.4162C56.9939 37.2065 57.0639 36.9938 57.1267 36.7786C57.152 36.6361 57.2262 36.507 57.3364 36.4133C57.4187 36.3712 57.5098 36.3495 57.6021 36.3502C57.6994 36.3447 57.7947 36.32 57.8824 36.2773C58.0783 36.1535 58.0553 35.9329 58.0308 35.6958C58.0264 35.6537 58.022 35.611 58.0187 35.5683C57.9938 35.4822 57.9769 35.3941 57.9679 35.305C57.9413 34.9847 58.003 34.6633 58.1466 34.3758C58.4298 33.5949 58.9039 32.8972 59.5256 32.3463C59.8341 32.1271 60.167 31.9444 60.5178 31.8018ZM56.4578 42.2306C56.718 42.1938 56.8087 41.5219 56.6669 41.49C56.6354 41.4829 56.6032 41.4789 56.5707 41.4779C56.4816 41.4752 56.3933 41.4959 56.3147 41.5378C56.236 41.58 56.1698 41.6418 56.1225 41.7174C55.6763 42.2566 56.2104 42.3216 56.4578 42.2306ZM77.92 28.7585C78.2062 28.6448 78.7637 28.9918 78.613 29.3358C78.3032 30.0045 77.2947 28.9975 77.92 28.7585ZM77.9475 31.5377C78.0373 31.6017 78.1031 31.694 78.1346 31.7996C78.1661 31.9054 78.1614 32.0187 78.1211 32.1214C78.081 32.2241 78.0077 32.3105 77.9128 32.3669C77.8179 32.4232 77.707 32.4462 77.5976 32.4324C76.8652 32.1622 77.4478 31.0843 77.9475 31.5377ZM58.4425 43.5693C58.1212 43.9934 58.83 44.6844 59.2279 44.4046C59.8746 43.9501 58.9014 43.0238 58.4425 43.5693ZM80.8854 33.7191C80.8074 33.7602 80.7349 33.8111 80.6698 33.8706C80.3466 34.2217 80.2364 33.8533 80.3071 33.531L80.3147 33.1541C80.3126 33.1091 80.3094 33.0613 80.306 33.0127L80.3058 33.0104C80.2894 32.774 80.2716 32.5152 80.3813 32.4382C80.7855 31.9558 81.3778 32.481 81.4034 32.8346C81.4289 33.1883 81.1673 33.5209 80.8854 33.7191ZM74.4188 50.5721C74.3441 51.4175 75.5148 51.4616 75.9289 50.9228C76.7287 49.8403 74.5502 49.0675 74.4188 50.5721ZM72.767 54.4733C72.1888 55.2017 73.6892 55.609 74.1655 55.5466C75.0122 55.4469 73.4428 53.6018 72.767 54.4733ZM81.0145 39.3662C80.9572 39.7782 81.5911 40.3979 81.994 40.0898C82.7716 39.469 81.1272 38.4694 81.0145 39.3662ZM79.8624 39.0722C79.7136 39.0649 79.5716 39.0081 79.4587 38.911C78.7037 38.4009 79.9303 37.291 80.5199 38.1649C80.5732 38.304 80.5785 38.4568 80.5351 38.5994C80.4917 38.7419 80.4019 38.8658 80.28 38.9515C80.1582 39.0372 80.0111 39.0796 79.8624 39.0722ZM54.8997 44.9528C55.156 45.3176 56.1567 45.7539 56.2171 45.2407C56.2774 44.7275 54.6243 44.2792 54.8997 44.9528ZM64.1854 55.5757C64.2104 54.7654 66.1973 54.3845 65.9196 54.9762L65.9429 55.0094C65.8155 55.3217 64.1605 56.3862 64.1854 55.5757ZM72.3744 50.3352C72.1962 50.8569 73.1088 51.3798 73.4001 50.8777C73.6913 50.3757 72.5958 49.7336 72.3744 50.3352Z" fill="#BDBDBD"/>
<path fill-rule="evenodd" clip-rule="evenodd" d="M36.7014 68.0723C35.5666 68.0962 33.7634 68.2811 33.2807 68.3925C32.408 68.5939 30.4276 69.5002 31.9716 70.2052C33.5157 70.91 34.2542 71.3129 34.3213 71.6149C34.3437 71.7154 34.5995 72.62 34.9386 73.819C35.6198 76.2286 36.6374 79.8269 36.7718 80.4768C36.9732 81.4503 37.2082 82.3231 37.9803 82.7596C38.3327 82.9587 38.7967 83.2557 39.2643 83.5548C39.8213 83.9112 40.3831 84.2707 40.7665 84.4715C41.4713 84.8408 42.277 85.2099 44.2911 84.8408C46.3052 84.4715 60.6526 81.5611 61.8946 81.1247C62.0214 81.0801 62.1474 81.038 62.2718 80.9965C63.3651 80.6315 64.3218 80.3121 64.4122 78.775C64.4387 78.3252 64.4855 77.5692 64.5404 76.6858C64.6942 74.2066 64.9104 70.7248 64.9104 70.2052V70.1803C64.9106 69.4953 64.9107 69.2941 63.3184 69.4268C61.7073 69.561 53.1866 70.7086 50.6354 71.3129C48.3201 71.8612 42.8087 72.817 41.017 73.1277L41.0155 73.128L41.014 73.1283L40.5927 73.2015C39.0344 73.4742 36.6802 72.7853 35.9297 72.2182C35.4738 71.8738 35.5123 71.8855 35.9165 72.0076C36.268 72.1137 36.8959 72.3035 37.7158 72.4153C39.0977 72.6039 40.1622 72.5549 42.3776 72.0848C43.1713 71.9165 46.025 71.4259 49.4552 70.8361C55.6006 69.7794 63.5963 68.4047 64.9104 67.9953C66.958 67.3575 67.7951 66.5017 65.7474 65.8976C63.9352 65.3628 62.0918 65.2573 61.5289 65.3563C61.4859 64.7241 61.2701 63.9722 60.8042 63.4368C60.1937 62.7355 58.7808 62.3119 57.944 62.6422C57.6755 62.7483 57.3445 62.9306 56.9372 63.1547C56.0751 63.6292 54.8718 64.2916 53.1981 64.8168C49.4366 65.9972 45.0239 65.6444 43.7185 65.1889C42.6917 64.8305 43.4353 64.8664 43.9245 64.8902C44.0287 64.8953 44.1213 64.8998 44.1828 64.8998L44.2158 64.9001L44.292 64.9012C44.9939 64.9123 48.4906 64.9679 51.4195 64.2502C54.7801 63.4265 56.7105 62.2049 56.9885 61.5025C57.6082 59.9365 56.1391 54.9398 51.3614 54.8259C48.559 54.7591 47.9735 56.542 48.3499 56.9595C48.6952 57.3424 49.2007 57.0134 49.1583 56.6858C49.1159 56.358 51.1299 55.968 51.8012 57.3696C52.365 58.5468 52.0425 60.0878 50.0237 60.4675C49.1152 60.6385 48.1617 60.4572 47.3387 60.3006C46.9217 60.2214 46.5382 60.1484 46.2112 60.131C43.4175 59.9821 40.7579 61.3318 40.0956 63.828C40.0114 64.1451 39.6171 64.3747 39.1112 64.6691C38.4704 65.0421 37.6506 65.5192 37.055 66.4107C36.7395 66.883 36.656 67.4975 36.7014 68.0723ZM36.389 68.729L36.3857 68.7299L36.384 68.7303C35.9378 68.845 35.4624 68.9672 35.1121 69.1076C34.1656 69.4871 34.8331 69.9813 35.1727 70.2052C35.2361 70.2469 35.2919 70.2883 35.3497 70.3312C35.6015 70.5184 35.8936 70.7355 37.0403 71.145C38.4502 71.6486 41.2699 71.3129 43.2505 70.9771C43.9227 70.8633 44.7843 70.6913 45.8841 70.4718C48.0244 70.0447 51.067 69.4377 55.3685 68.7281C61.8806 67.6539 63.5254 67.0832 63.5254 66.6133C63.5254 66.3435 62.7397 66.0404 62.1151 65.7995C61.8845 65.7107 61.6759 65.6302 61.5369 65.563C61.5402 65.9293 61.4826 66.2372 61.3815 66.4107C60.8712 67.2872 59.4487 67.4943 56.3645 67.9433C54.5929 68.2011 52.2731 68.5388 49.2631 69.1291C48.5646 69.266 47.818 69.4348 47.0478 69.6089C43.476 70.4165 39.4009 71.3378 37.3123 69.721C37.1103 69.5646 36.9026 69.1428 36.7855 68.6255C36.6591 68.6596 36.5254 68.6939 36.389 68.729ZM62.7387 76.4239C62.7691 75.6214 62.8002 74.8026 62.8002 74.234C62.8002 73.5964 62.8272 73.1246 62.8492 72.7425C62.8693 72.3906 62.8852 72.1146 62.8715 71.8551C62.843 71.3138 62.3452 70.5172 61.6036 70.9292C61.16 71.1756 61.2145 72.2066 61.2806 73.4602C61.3099 74.0183 61.3417 74.6203 61.3329 75.217C61.3206 76.0592 61.2701 76.7711 61.2289 77.3547C61.1751 78.1134 61.1366 78.6557 61.2171 78.9857C61.3595 79.5698 62.5276 80.0683 62.6843 78.7293C62.6691 78.256 62.7035 77.3507 62.7387 76.4239ZM58.6084 74.8276C58.6214 75.8501 58.6335 76.8044 58.5734 77.1496C58.4594 77.8049 58.2885 79.6711 58.7729 80.1271C59.2887 80.6127 59.9558 80.1462 60.0122 79.5394C60.0459 79.1772 60.009 78.3585 59.9654 77.3941C59.917 76.32 59.8604 75.0644 59.8839 74.0584C59.9012 73.3253 59.9706 72.8272 60.0228 72.4534C60.0569 72.2099 60.0835 72.019 60.0835 71.8504C60.0835 71.1239 58.9631 70.8745 58.7016 71.7079C58.5739 72.1147 58.5919 73.5264 58.6084 74.8276ZM56.0034 75.7145C56.0191 76.1936 56.0339 76.6426 56.0378 77.0073C56.0432 77.5121 56.0155 77.9508 55.9902 78.3518C55.9491 79.0025 55.9143 79.5541 56.0378 80.1271C56.2371 81.053 57.2201 80.939 57.3199 80.2125C57.3664 79.8729 57.3601 79.0142 57.3532 78.085C57.3455 77.0267 57.337 75.8762 57.4053 75.2978C57.5335 74.2115 57.4766 72.9473 57.3199 72.292C57.1488 71.5771 56.1945 71.3376 56.0378 72.2921C55.9138 72.9837 55.962 74.4534 56.0034 75.7145ZM53.1089 76.4258V76.4298V76.4314C53.106 76.9601 53.1033 77.4548 53.1033 77.8335C53.1033 78.4714 53.0762 78.9432 53.0542 79.3254C53.0341 79.6771 53.0183 79.953 53.0319 80.2125C53.0604 80.7538 53.5582 81.5503 54.2998 81.1384C54.7434 80.892 54.6891 79.8609 54.6228 78.6072C54.5935 78.0493 54.5617 77.4471 54.5705 76.8506C54.5793 76.2473 54.5965 75.7059 54.6116 75.2291C54.6451 74.1751 54.6685 73.4349 54.5705 73.0329C54.4281 72.4488 53.2599 71.9501 53.1033 73.2893C53.1228 73.8982 53.1155 75.2463 53.1089 76.4258ZM50.3542 75.7579C50.4013 76.7435 50.4545 77.8555 50.4108 78.7737C50.3824 79.3728 50.357 79.7913 50.3381 80.1045C50.3004 80.73 50.2879 80.9364 50.3254 81.3237C50.4108 82.2069 51.6645 82.278 51.8496 81.1384C51.9777 80.3505 51.9287 79.0994 51.8863 78.0161C51.8673 77.5328 51.8496 77.0827 51.8496 76.7224C51.8496 76.2082 51.891 75.694 51.9301 75.209C51.9797 74.5924 52.0257 74.0223 51.9778 73.5599C51.8923 72.7337 50.4963 72.2862 50.3254 73.5599C50.2697 73.9913 50.3092 74.8171 50.3542 75.7579ZM47.7612 73.7025C47.5903 74.2437 47.5761 76.5087 47.6045 77.278C47.6202 77.7029 47.5838 78.8103 47.5505 79.8246C47.5235 80.6463 47.4984 81.4072 47.5048 81.694C47.5282 82.7433 49.0433 82.7624 49.1573 81.694C49.2436 80.8854 49.1991 78.7791 49.1726 77.5126V77.5105C49.1639 77.1046 49.1573 76.7852 49.1573 76.6227C49.1573 76.4218 49.1662 76.1566 49.1761 75.865C49.1991 75.1854 49.227 74.3618 49.1573 73.8734C49.0576 73.1753 48.1031 72.9759 47.7612 73.7025ZM44.8348 78.5092C44.8132 77.2836 44.7816 75.4932 44.8491 74.8336C45.0566 73.4046 46.4018 73.7575 46.5087 74.5609C46.5679 75.0063 46.5083 75.7581 46.4551 76.4282C46.4232 76.8316 46.3934 77.2054 46.3934 77.4651C46.3934 77.6327 46.4016 77.978 46.412 78.4173C46.4443 79.7897 46.4982 82.0799 46.3934 82.7433C46.2551 83.6192 45.0566 83.2735 44.8491 82.7433C44.7047 82.3742 44.7614 81.3564 44.8092 80.5C44.83 80.1269 44.8491 79.7844 44.8491 79.5396C44.8491 79.3247 44.8427 78.9538 44.8348 78.5092ZM41.5141 78.7425C41.4622 77.9488 41.3511 77.2038 41.2581 76.5803C41.168 75.976 41.095 75.486 41.1093 75.1769C41.1476 74.357 41.9389 74.4589 42.0998 75.0779C42.1719 75.3553 42.2652 76.5013 42.3508 77.5498C42.41 78.277 42.4655 78.9572 42.5073 79.2683C42.5214 79.3727 42.5404 79.5061 42.5624 79.6599L42.5626 79.662C42.7004 80.6298 42.9526 82.4022 42.8141 82.8178C42.6535 83.2999 42.2018 83.0852 41.9389 82.6667C41.7456 82.3592 41.6388 80.6874 41.5446 79.2161C41.5344 79.0554 41.5242 78.8963 41.5141 78.7425ZM39.3449 77.5663C39.1372 76.4544 38.9163 75.2712 38.9552 74.7931C39.0188 74.0144 39.7612 74.1707 39.922 74.7257C40.0395 75.1321 40.1117 76.0631 40.1701 76.818C40.1915 77.0938 40.211 77.3471 40.2304 77.5414C40.2901 78.1445 40.4292 79.0275 40.5599 79.8567C40.6983 80.7343 40.8271 81.5518 40.8421 81.9123C40.8713 82.6134 40.1994 82.4673 40.0825 82.1314C40.0033 81.9037 39.9023 81.165 39.7863 80.3168C39.7311 79.9139 39.6725 79.4858 39.6115 79.0766C39.5483 78.6545 39.4483 78.1192 39.3449 77.5663ZM37.3583 77.0711C37.0222 75.9902 36.7944 74.9846 36.6938 74.2437C36.6154 73.6667 37.4588 73.6914 37.6925 74.4218C37.8282 74.846 37.9421 75.3989 38.0853 76.094C38.1885 76.5954 38.3071 77.1714 38.46 77.8264C38.58 78.3401 38.7202 78.8264 38.8463 79.2641C39.1039 80.158 39.303 80.849 39.1533 81.1565C38.8897 81.6984 38.522 81.3669 38.3444 80.9482C38.2356 80.692 38.0671 79.9615 37.8834 79.165C37.7094 78.4106 37.5216 77.5969 37.3583 77.0711ZM53.1168 55.4074C53.7658 55.526 53.7142 55.9548 53.3036 55.8655C52.8931 55.7763 52.4676 55.2889 53.1168 55.4074ZM43.8389 60.866C43.2151 60.7805 42.0782 61.5138 41.7191 62.159C41.5154 62.5253 41.7989 62.3323 42.0654 62.1509C42.1016 62.1263 42.1376 62.1017 42.1719 62.079C42.4439 61.8983 43.0127 61.5276 43.3924 61.4593C44.0039 61.3492 44.1703 60.9116 43.8389 60.866ZM39.425 65.2975C38.7346 65.2944 37.7709 66.2282 37.737 66.8046C37.7132 67.207 38.0154 67.1194 38.4609 66.7271C38.9022 66.3386 39.8764 65.9217 40.4357 65.9957C42.4439 66.2617 39.8531 65.2996 39.425 65.2975ZM60.3434 63.8142C60.5893 63.7322 59.9361 63.2048 59.343 63.0839C58.6802 62.9489 58.3659 63.1117 58.539 63.3969C58.6329 63.5514 58.9976 63.5937 59.3127 63.6302L59.4166 63.6424C59.6588 63.6719 59.8484 63.7242 59.9963 63.765C60.1558 63.809 60.2669 63.8396 60.3434 63.8142ZM41.6572 66.2414C41.4906 66.1705 41.7319 66.1461 41.9251 66.1587L41.9679 66.1615C42.2316 66.1783 42.555 66.199 42.8465 66.3069C43.1542 66.4207 42.9173 66.6892 42.5808 66.6633C42.3631 66.6466 42.074 66.4776 41.8647 66.3551C41.7786 66.3048 41.7056 66.2621 41.6572 66.2414Z" fill="#BDBDBD"/>
<path fill-rule="evenodd" clip-rule="evenodd" d="M45.8033 37.622C46.5604 36.8933 46.9928 35.5635 46.8341 34.2312C46.4338 30.8696 51.1794 36.382 50.3218 40.7089C50.1801 41.4245 49.7668 41.3466 49.3851 41.2747C49.0069 41.2034 48.6598 41.138 48.6382 41.8557C48.538 45.1917 46.534 49.2248 44.2515 50.503C41.8427 51.8518 38.8474 51.3932 39.0002 50.622C39.012 50.5625 39.0265 50.4998 39.0414 50.4356C39.1671 49.8935 39.3193 49.2363 38.0831 49.4177C36.7003 49.6207 33.9724 49.4716 33.2275 49.1957C32.4827 48.9199 32.4817 48.4109 33.1376 48.1428C33.2086 48.1137 33.3156 48.0725 33.4529 48.0194C34.5832 47.5826 37.7737 46.3495 39.9819 44.6124C41.5089 43.4112 42.0412 41.319 42.4821 39.5859C42.7561 38.5085 42.9949 37.5698 43.4155 37.0707C44.0188 36.3548 44.4348 36.8296 44.8222 37.272C45.1393 37.6339 45.4373 37.9742 45.8033 37.622ZM43.3062 37.9506C43.2458 38.1536 43.3121 38.5707 43.5743 38.4823C43.8365 38.3941 44.1598 37.9539 44.0142 37.665C43.8686 37.3762 43.4804 37.364 43.3062 37.9506ZM49.9682 39.7597C50.0147 40.017 50.0153 40.5361 49.7293 40.5038C49.4968 40.4774 49.5931 39.8713 49.6486 39.5231C49.6613 39.4427 49.6719 39.3762 49.6758 39.3336C49.6965 39.1061 49.9013 39.3904 49.9682 39.7597ZM45.2486 48.622C45.522 48.3797 45.959 47.901 45.909 47.6005C45.84 47.1851 45.5983 47.5807 45.3962 47.9115C45.3341 48.0133 45.2756 48.1087 45.2271 48.1728C44.8333 48.693 44.5248 49.2639 45.2486 48.622ZM41.6557 50.3812C40.9193 50.4373 40.5415 50.2552 40.7606 49.8659C40.947 49.5344 41.2096 49.5589 41.5911 49.5945C41.7668 49.6109 41.9675 49.6296 42.1976 49.6171C42.4748 49.602 42.8698 49.5295 43.2408 49.4615C43.8473 49.3504 44.3897 49.2509 44.2486 49.4328C44.0215 49.7259 42.4436 50.3213 41.6557 50.3812Z" fill="#BDBDBD"/>
<path fill-rule="evenodd" clip-rule="evenodd" d="M34.9392 51.7166C35.2852 51.3247 35.6607 51.3615 36.1617 51.4108C36.4341 51.4375 36.7436 51.4679 37.1054 51.4349C37.3144 51.416 37.5106 51.3789 37.6857 51.3458C38.2255 51.2439 38.566 51.1795 38.466 51.796C38.3334 52.6128 37.5409 53.5933 36.2748 53.576C34.6664 53.554 34.4424 52.2792 34.9392 51.7166ZM35.523 52.1587C35.4317 52.0258 35.4566 51.8615 35.5986 51.7774C35.751 51.6872 35.8435 51.7048 36.0221 51.7385C36.1713 51.7667 36.3806 51.8063 36.7346 51.8037C36.9234 51.8024 36.7316 52.1038 36.3166 52.269C35.9667 52.4083 35.6144 52.2917 35.523 52.1587Z" fill="#BDBDBD"/>
<path d="M3.72608 45.5233C4.07776 45.7024 4.43117 45.8657 4.80047 46.0281C6.42609 46.7651 8.1201 47.3808 9.87542 47.8678C10.5562 48.0569 11.248 48.2018 11.9383 48.3464L11.9415 48.3471L11.9482 48.3485C12.35 48.4326 12.7524 48.517 13.1506 48.6097C13.2064 48.6227 13.29 48.6491 13.3913 48.6812C13.9465 48.8568 15.033 49.2007 15.0094 48.4313C14.9859 47.6534 13.8658 47.2286 13.1676 46.9638C13.0982 46.9376 13.033 46.9128 12.9734 46.8895C9.60619 45.5391 6.13195 44.3749 2.58423 43.3792C1.87961 43.1783 1.38554 43.6584 1.88159 44.2548C2.3564 44.8287 3.04391 45.1876 3.72608 45.5233Z" fill="#BDBDBD"/>
<path d="M6.03228 58.3116C6.74804 58.2264 7.48082 58.1091 8.20357 57.959C10.4579 57.5273 12.7092 56.9982 14.9556 56.4527C15.5168 56.3161 16.0765 56.1823 16.6364 56.0483L16.6597 56.0427C17.2206 55.9086 17.7815 55.7744 18.3438 55.6376L18.4243 55.6185C18.8426 55.5191 19.5083 55.361 19.7702 55.0127C20.0212 54.6945 19.9065 54.524 19.4571 54.5455C15.5806 54.7593 11.6712 55.2157 7.76092 55.9316C7.71085 55.9406 7.61761 55.9556 7.48988 55.976C6.14924 56.1905 1.0074 57.0129 2.04628 58.139C2.48015 58.6091 3.76224 58.5103 4.61577 58.4446C4.73635 58.4354 4.84841 58.4268 4.94826 58.4205C5.30482 58.3914 5.66815 58.3516 6.03037 58.3119L6.03228 58.3116Z" fill="#BDBDBD"/>
<path d="M20.6346 60.5687C19.3033 61.2215 18.1132 61.882 17.5439 63.3344C17.1682 64.3041 18.2252 64.3228 18.906 64.2068C19.7692 64.0637 20.588 63.6254 21.3052 63.1173C21.3572 63.0805 21.4128 63.0414 21.4712 63.0004C22.218 62.4762 23.4292 61.626 23.6246 60.771C24.016 59.0584 21.2868 60.2433 20.6346 60.5687Z" fill="#BDBDBD"/>
<path d="M25.5035 66.3307C25.3264 66.683 25.1066 67.5032 25.3184 68.0222C25.3902 68.1918 25.5123 68.3367 25.6901 68.4129C26.2123 68.6364 26.886 68.1379 27.2146 67.8619C27.9327 67.2507 28.2302 66.3226 28.5024 65.4732L28.5089 65.4531C28.5829 65.2186 28.6571 64.984 28.6561 64.7407C28.6411 63.8546 27.9822 63.9196 27.3852 64.3006C26.6101 64.7905 25.8844 65.533 25.5035 66.3307Z" fill="#BDBDBD"/>
<path d="M55.6016 9.84898C54.584 9.89763 54.0884 12.0722 54.004 12.5607C53.8221 13.5669 53.6504 14.588 53.5174 15.617C53.475 15.9039 53.4252 16.1912 53.3754 16.4793L53.3749 16.4813C53.2546 17.1759 53.1334 17.8748 53.1132 18.5838L53.1104 18.615L53.1088 18.6305L53.1028 18.6886C53.0728 18.9708 53.0112 19.5481 53.2418 19.6877C53.5481 19.872 53.793 19.3578 53.9025 19.1278C53.9213 19.0882 53.9361 19.0572 53.9466 19.0394C55.182 16.8719 55.7061 14.5097 56.2285 12.1549L56.2311 12.1426L56.3277 11.7086C56.4004 11.3962 56.7673 9.7903 55.6016 9.84898Z" fill="#BDBDBD"/>
<path d="M49.0175 17.3132C49.5309 17.6834 49.8291 17.058 49.9209 16.4608C49.9237 16.4255 49.9274 16.3856 49.931 16.3456C49.9347 16.3055 49.9385 16.2641 49.9412 16.2288C49.992 15.286 49.7285 14.152 49.4753 13.2646L49.4395 13.136C49.2281 12.3736 48.8059 10.8518 48.2212 10.6928L48.1899 10.6853C48.0223 10.6448 47.8404 10.6009 47.7168 10.7894C47.6408 10.9214 47.6069 11.0944 47.5826 11.2615C47.4354 12.484 47.6781 13.7658 47.9514 14.978C48.1412 15.8038 48.3949 16.8597 49.0175 17.3132Z" fill="#BDBDBD"/>
<path d="M56.5387 24.947C56.6829 25.5595 57.3425 25.2599 57.8114 24.8692C57.8789 24.815 57.9312 24.7562 57.9719 24.7045C58.6488 24.0245 59.2035 23.0068 59.6162 22.17L59.647 22.1092C59.9913 21.4291 60.7375 19.9544 60.3823 19.4495C60.2825 19.2901 60.1559 19.133 59.9272 19.2016C59.7758 19.2512 59.6409 19.3596 59.5093 19.4796C58.5696 20.3033 57.9036 21.4152 57.2879 22.5106C56.8791 23.2628 56.3616 24.217 56.5387 24.947Z" fill="#BDBDBD"/>
</svg>
