<svg width="84" height="71" viewBox="0 0 84 71" fill="none" xmlns="http://www.w3.org/2000/svg">
<path d="M19.7452 41.9516C18.5504 43.3279 17.6655 45.1165 17.3742 46.9259C17.082 48.7391 17.1805 50.6416 17.7 52.4052C18.0699 53.6591 18.9398 56.3024 20.6517 56.1378C21.2464 56.3996 21.7115 56.7495 21.0538 57.4292C20.5277 57.9729 19.378 57.3675 18.8689 56.9968C18.7404 56.8892 18.6123 56.7834 18.4851 56.6786C17.8537 56.1579 17.243 55.6541 16.7021 55.0027C14.493 52.3412 14.305 48.6807 15.4578 45.502C16.6839 42.1244 19.4555 38.9592 23.0101 38.0516C26.5578 37.1468 31.1244 38.5874 32.4067 42.2617C32.596 42.8055 32.7139 43.3683 32.8317 43.9308L32.8324 43.9342L32.8417 43.9784C32.8879 44.1986 32.9341 44.4188 32.985 44.6375C33.0046 44.7215 33.0203 44.802 33.0353 44.8785L33.0366 44.8855C33.1065 45.2447 33.1586 45.5121 33.5045 45.6204C33.6729 45.6741 33.9859 45.584 34.2406 45.5107L34.2424 45.5101C34.3463 45.4801 34.4402 45.453 34.5106 45.4398C36.3063 45.0955 37.7165 45.2751 39.2834 46.2924C40.5675 47.1255 41.6453 48.3189 42.3578 49.6793C42.4304 49.8182 42.4863 49.9796 42.5434 50.1445L42.5439 50.1461C42.6415 50.5438 42.7109 51.3798 42.2085 51.542C41.5804 51.7447 41.3032 51.9347 41.0282 51.6213C41.1237 50.2069 40.196 48.8661 38.9809 48.1478C37.778 47.4332 36.3075 47.0325 34.9086 47.2256C34.2738 47.3132 33.6734 47.5269 33.1394 47.8848C33.0008 47.9771 32.8652 48.0757 32.7295 48.1745L32.7261 48.177L32.7245 48.1781C32.3578 48.4452 31.9896 48.7133 31.5557 48.8584C30.6438 49.164 29.6168 48.8373 28.857 48.2478C28.2606 47.7829 27.7865 47.155 27.5352 46.4398C27.2143 45.5253 27.1803 43.8709 28.1741 43.3165C28.2341 43.2844 28.299 43.2555 28.3671 43.257C28.524 43.2588 28.5568 43.3732 28.5059 43.4955C28.1672 44.3248 28.0709 45.1574 28.7142 45.8699C28.9883 46.1764 29.3594 46.4059 29.7665 46.4588C30.1725 46.5104 30.6122 46.3693 30.8748 46.0523C31.1546 45.7108 31.1981 45.2193 31.092 44.7892C30.9277 44.1167 30.4815 43.394 30.0595 42.851C29.6311 42.3002 29.0805 41.8396 28.4158 41.6137C28.2638 41.5622 28.1092 41.5225 27.9518 41.4937C27.2509 41.3665 26.509 41.4692 25.8709 41.789C24.9623 42.2451 24.3207 43.0822 23.6974 43.8951L23.5927 44.0317C23.0679 44.7115 22.4968 45.4556 22.5065 46.3169C22.5164 47.0087 22.9163 47.6484 23.4371 48.1014C23.8591 48.4679 24.3522 48.7194 24.846 48.9711L24.8475 48.9719C25.1941 49.1485 25.541 49.3252 25.8637 49.5421C26.533 49.9916 27.2192 50.4305 27.9393 50.7955C28.5845 51.1216 29.0142 50.8953 29.5445 50.494C30.0798 50.0893 30.5229 49.9987 31.1394 49.8726L31.2792 49.8441C31.6596 49.7656 32.0229 49.5998 32.3337 49.3646C32.4879 49.2484 32.6286 49.1161 32.7692 48.9837C32.9305 48.8319 33.0919 48.68 33.2731 48.5534C33.6119 48.3162 34.0634 48.1743 34.4371 48.3507C34.7531 48.5002 34.93 48.8298 35.0978 49.1428L35.1498 49.2389C35.3358 49.5791 35.6083 49.9374 35.9939 49.9599C36.1937 49.9717 36.3793 49.8895 36.5655 49.8071C36.6474 49.7708 36.7295 49.7346 36.8129 49.7063C37.4102 49.5032 38.103 49.7275 38.5363 50.1861C38.9687 50.646 39.1544 51.3053 39.1196 51.9375C39.0772 52.3368 37.7756 52.7983 37.4606 51.7866C37.1456 50.7749 36.1629 51.6786 35.5362 51.8808C34.9094 52.0831 33.8288 51.7053 33.5361 50.7848C33.2434 49.8643 30.8922 50.9378 29.9912 51.9288C29.2704 52.7216 27.2229 52.5888 26.2893 52.4233C26.2575 52.3816 26.206 52.3626 26.157 52.3469C25.8304 52.2335 25.5134 52.123 25.2013 51.9793C24.7892 51.7888 24.384 51.5769 23.998 51.3355C23.2066 50.8419 22.4952 50.221 21.945 49.4612C20.8228 47.9103 20.4429 45.9622 21.02 44.1168C21.3124 43.182 21.8896 42.4222 22.6133 41.778C22.8375 41.5779 23.0849 41.4016 23.3326 41.2251L23.3345 41.2238C23.7161 40.9518 24.0982 40.6795 24.3965 40.3194C24.4891 40.2076 24.5787 40.0639 24.5316 39.9268C24.4845 39.7886 24.3239 39.7306 24.1808 39.7044C23.7698 39.6282 23.3503 39.6784 22.9482 39.7831C22.212 39.9772 21.5357 40.382 20.9342 40.8417C20.5038 41.1718 20.1004 41.5415 19.7452 41.9516Z" fill="#BDBDBD"/>
<path fill-rule="evenodd" clip-rule="evenodd" d="M50.14 52.2929C49.7661 52.9346 49.2854 53.0542 49.232 53.4784C49.1252 54.4246 49.2106 55.4904 49.2747 56.4475C49.4349 58.9924 48.9008 61.8854 47.683 62.8642C46.2729 63.9953 44.3608 63.8974 42.8439 64.7022C41.3697 65.4744 40.0237 66.4098 38.4961 67.0841C36.8831 67.791 35.2166 68.2696 33.5394 68.759C26.9377 70.684 20.3037 71.8151 13.499 70.2925C12.6017 70.0859 11.7043 69.8466 10.8604 69.4442C9.57852 68.8242 8.45686 67.8345 7.62363 66.6055C7.12156 65.866 6.68357 65.0611 6.5447 64.1476C6.49129 63.7778 6.48061 63.3971 6.38447 63.0273C6.35242 62.9077 6.30969 62.7772 6.22423 62.7011C6.04263 62.5488 5.35895 62.7881 5.13462 62.7989C3.44202 62.9367 0.0568196 62.8403 0.0568196 61.3525C0.0568196 59.4927 -0.562211 58.1332 2.2862 58.0245C5.13462 57.9157 14.0331 59.3405 15.5287 58.0245C17.0242 56.7085 20.5602 56.752 23.5513 55.9907C26.5424 55.2294 33.721 53.7285 34.3299 53.511C34.9388 53.2935 42.4441 51.191 44.2731 50.0561C46.102 48.9212 47.2166 47.0298 49.2747 47.0298C50.9212 47.0298 51.5805 48.2908 51.7044 48.9212C51.7762 49.65 51.5638 51.3445 50.14 52.2929ZM8.98031 62.6032C8.73461 62.1247 8.63641 62.4509 8.8287 61.9289C9.5311 61.8454 11.8544 61.6132 15.5287 61.3525C20.1214 61.0265 20.1214 59.5133 22.3508 59.135C24.5802 58.7568 30.7287 59.2578 34.6124 57.2436C38.4961 55.2294 45.8136 51.9299 46.102 52.7041C46.3904 53.4784 46.1661 54.0113 46.3905 55.2294C46.4225 55.2076 46.6361 57.1979 46.6148 57.3828C46.572 58.1224 46.4118 58.8402 46.102 59.4927C45.4611 60.8522 44.5851 61.3525 43.3353 62.0485C41.9679 62.8207 40.5578 63.495 39.105 64.0605C37.7483 64.5935 36.3489 65.0394 34.9388 65.3874C33.1976 65.8225 31.4243 66.1161 29.7151 66.6817C28.3798 67.1276 27.0872 67.7475 25.7199 68.0847C24.5341 68.3892 23.3056 68.4653 22.0878 68.4762C18.8617 68.4979 15.6568 68.0194 12.4628 67.53C12.185 67.4865 11.8966 67.4321 11.6616 67.269C11.0847 66.8666 10.9672 65.8986 10.6254 65.3004C10.102 64.3868 9.4717 63.5494 8.98031 62.6032Z" fill="#BDBDBD"/>
<path d="M8.70695 54.5303C8.54605 53.024 9.10686 51.153 10.6479 50.5647C11.8694 50.0981 13.2903 50.1134 14.4153 50.7812C14.7746 50.9947 15.0903 51.2783 15.3545 51.6009C15.4615 51.7321 15.5605 51.8713 15.6477 52.0165C16.6438 53.6764 16.3531 57.8237 13.6178 57.464C12.5955 57.3289 11.9214 56.4722 11.9771 55.4447C12.0329 54.4299 12.664 53.4559 13.7747 53.4376C13.9607 53.4344 14.0263 53.5412 13.9262 53.6952C13.8687 53.7841 13.7259 53.8286 13.5898 53.8711C13.5019 53.8984 13.417 53.925 13.3595 53.962C13.1719 54.0825 13.0434 54.2856 12.9887 54.5006C12.7447 55.449 13.5608 55.9403 14.3367 55.4918C14.8815 55.1769 15.5455 54.4551 15.471 53.7782C15.4263 53.3712 15.1391 53.0354 14.8152 52.7898C14.225 52.3431 13.2891 52.1769 12.555 52.1788C10.8751 52.1835 10.4661 53.5856 10.3801 55.0246C10.3111 56.1919 10.7628 56.9659 11.5504 57.7609C11.5759 57.7867 11.6096 57.8166 11.6468 57.8496C11.8008 57.986 12.0148 58.1755 11.9551 58.3579C11.924 58.4527 11.8726 58.5082 11.8065 58.5331C11.9121 58.6665 11.983 58.8299 12.0046 59.0078C11.815 60.0822 10.9262 59.0944 10.5055 58.4662C9.54029 57.8015 8.65146 54.7432 8.70695 54.5303Z" fill="#BDBDBD"/>
<path d="M21.9039 34.5267C22.0122 32.7341 22.9733 29.9094 24.6394 28.6755C24.8727 28.5302 25.7066 28.1813 27.175 27.948C26.9805 29.1279 26.5561 28.8125 27.2553 31.6068C27.329 32.983 26.2874 34.6808 24.9603 35.5748C24.129 36.1967 22.7229 37.2643 22.1996 37.1945C22.0194 36.6105 21.9303 35.6841 21.9082 35.2939C21.8887 35.0395 21.8885 34.7794 21.9039 34.5267Z" fill="#BDBDBD"/>
<path d="M14.8965 36.7477C15.8846 37.5786 17.8337 38.461 19.3035 38.1732C19.495 38.1192 20.0906 37.8418 20.9408 37.1642C20.2293 36.6839 20.1831 37.0697 19.0736 35.3054C18.3929 34.5828 16.9912 34.3031 15.8667 34.5764C15.1301 34.717 13.876 34.9469 13.6528 35.2643C13.8677 35.6513 14.3064 36.1592 14.4988 36.3647C14.6217 36.5015 14.7571 36.6306 14.8965 36.7477Z" fill="#BDBDBD"/>
<path fill-rule="evenodd" clip-rule="evenodd" d="M70.3048 0.341335C69.6639 0.109966 68.9955 0.0518627 68.3316 0.00128152C67.8857 -0.033156 67.5656 0.632954 67.7555 1.21728C68.083 2.2245 68.5877 3.10798 69.4168 3.14457C70.2966 3.18331 71.4287 0.74702 70.3048 0.341335ZM66.4843 43.3451C66.1791 41.8278 64.9367 42.0984 63.4627 42.4389C62.259 41.8385 64.2622 40.8218 65.0553 40.8886C66.2262 40.9867 67.0638 42.0247 67.4659 42.8365L67.4828 42.8704C67.6156 43.1367 67.8348 43.5765 67.587 43.8281C67.0625 44.3601 66.5596 43.7165 66.4843 43.3451ZM63.8425 39.3026C65.5848 39.1631 64.0885 37.4044 62.5341 37.7973C60.3441 38.3512 62.268 39.4287 63.8425 39.3026ZM77.1208 40.4311C76.5744 39.6705 77.291 38.6981 77.8382 38.1409C78.4755 37.493 79.5132 37.6522 79.8354 38.4644C80.2509 39.513 79.8651 40.1846 78.8805 40.6394C78.2599 40.9265 77.5851 41.0765 77.1208 40.4311ZM49.8133 39.3164C48.9142 39.3702 47.7532 39.5534 47.7122 40.1971C47.6797 40.6916 48.1665 40.973 48.9294 40.8608C49.36 40.797 50.2981 40.4579 50.5751 40.2223C51.0328 39.8321 50.7298 39.262 49.8133 39.3164ZM40.6683 35.4961C40.3267 35.6714 40.4309 36.1309 40.7565 36.2232C40.9841 36.2876 41.3879 36.0982 41.7156 35.9444C41.848 35.8824 41.9679 35.8261 42.0588 35.7946C42.5708 35.6176 43.0873 35.5496 43.6025 35.4817C44.0031 35.4289 44.4031 35.3761 44.7995 35.2724C45.1807 35.1727 45.5215 34.978 45.8652 34.7818C46.2157 34.5816 46.5695 34.3798 46.9723 34.275C47.8791 34.0398 48.8539 33.973 49.7862 34.0566C49.6658 34.6591 49.5502 35.2636 49.5811 35.8809C48.8807 35.0756 47.5704 35.0608 46.8599 35.8951C46.5734 36.2307 46.3931 36.8857 46.7651 37.2335C46.9968 37.4501 47.3744 37.4216 47.7463 37.3936C48.0029 37.3743 48.2567 37.3552 48.4583 37.4168C48.8 37.5212 49.0587 37.7332 49.3213 37.9486C49.4297 38.0375 49.5391 38.1274 49.6551 38.21C50.0971 38.5261 50.6527 38.7633 51.1741 38.915C51.6241 39.045 52.101 39.1172 52.5686 39.0572L52.5915 39.0543C53.1133 38.9883 53.3799 38.9545 53.2904 38.3792C53.0543 36.8662 57.3482 36.3163 57.2911 37.555C56.4078 36.8009 54.2348 37.243 54.4462 38.7155C54.5476 39.4177 54.9817 39.3564 55.469 39.2877C55.5826 39.2716 55.6992 39.2552 55.8151 39.2479C56.5017 39.2049 56.9477 39.4933 57.4658 39.8283C57.5635 39.8915 57.6637 39.9563 57.7686 40.0209C57.0629 40.6416 57.4995 41.2946 58.2852 40.9313C58.3421 40.9053 58.3957 40.8791 58.4471 40.8539C58.741 40.71 58.9662 40.5998 59.3361 40.7379C59.6698 40.8625 59.812 41.0972 59.9617 41.3441C60.0485 41.4874 60.1377 41.6347 60.2684 41.7671C60.701 42.2065 60.9425 41.9274 60.9229 41.4045C60.9 40.7831 60.5752 40.1672 60.0726 39.8019C59.8304 39.626 59.4982 39.4703 59.1921 39.4798C59.1111 39.4822 59.009 39.5205 58.9023 39.5604C58.7252 39.6267 58.5358 39.6976 58.4111 39.6172C58.1573 39.4538 58.3334 38.406 58.452 37.7007C58.4908 37.4695 58.5235 37.275 58.5328 37.1608C58.6122 36.1761 58.672 35.1861 58.6587 34.1981C58.6391 32.791 58.294 31.5812 57.3253 30.5258C56.0821 29.1733 55.3328 27.8261 55.3516 25.9181C55.3712 23.8776 55.5145 21.8301 55.6576 19.7842C55.7492 18.4746 55.8407 17.1656 55.8998 15.8597C55.9225 15.3605 55.9447 14.861 55.9668 14.3615L55.9669 14.3592L55.967 14.3575C56.0998 11.3664 56.2328 8.37063 56.4615 5.38675C56.4772 5.18197 56.5283 4.88395 56.5881 4.5346C56.8577 2.96157 57.3055 0.347601 55.5023 0.516895C54.7972 0.522288 54.0768 0.63147 53.3886 0.779735C51.8479 1.11284 51.9825 2.92474 52.0827 4.27454C52.0993 4.49775 52.115 4.70832 52.1219 4.89747C52.1905 6.78988 52.274 8.68089 52.3722 10.572C52.5094 13.2233 52.6748 15.8731 52.8679 18.5211C52.9361 19.4529 53.0388 20.3823 53.1417 21.3115C53.3046 22.7848 53.4674 24.2577 53.4922 25.7389C53.4925 25.9601 53.4975 26.1824 53.5026 26.4046C53.534 27.7969 53.5653 29.1799 52.4267 30.201C52.2142 30.3915 51.9814 30.568 51.7479 30.745C51.3924 31.0145 51.0349 31.2858 50.7442 31.6096C50.6215 31.746 50.5452 31.8587 50.4828 31.9508C50.3265 32.1815 50.258 32.2827 49.7694 32.3044C49.1842 32.33 48.6056 32.4284 48.0365 32.5638C45.4978 33.1697 42.9798 34.3093 40.6683 35.4961ZM34.0756 30.9277C33.344 30.0406 34.7717 29.7698 35.4006 29.9143C35.6808 29.9788 35.9751 30.2629 36.2129 30.4926C36.2796 30.557 36.3423 30.6174 36.3985 30.6672C36.8549 31.0704 37.296 31.4931 37.7135 31.9338C37.734 31.9554 37.7582 31.9807 37.7852 32.009C38.1493 32.3896 39.0223 33.3021 38.0169 32.9388C37.0958 32.6063 36.2092 32.1289 35.345 31.6634C35.2119 31.5918 35.0796 31.5205 34.9477 31.4501C34.8786 31.413 34.8001 31.3761 34.7182 31.3377C34.4832 31.2274 34.221 31.1042 34.0756 30.9277ZM81.1668 31.189C82.3652 30.7906 83.7304 29.7716 83.9789 28.4262C84.1187 27.6672 83.5443 26.4553 82.8503 27.315C82.7301 27.4633 82.6193 27.6123 82.5113 27.7573C82.0334 28.3993 81.6104 28.9673 80.6804 29.0944C80.5656 29.11 80.4526 29.1248 80.3415 29.1393C79.2206 29.286 78.2726 29.4099 77.3113 30.1812C76.723 30.654 76.2943 31.2482 75.8642 31.8443C75.5666 32.2569 75.2682 32.6704 74.9159 33.0452C74.4778 33.5116 73.9475 33.8406 73.4199 34.1679C72.7436 34.5876 72.0716 35.0044 71.6044 35.7045C71.2577 36.2245 71.0322 36.8234 70.9054 37.4342L70.8961 37.4787L70.8851 37.5308C70.8151 37.8584 70.7292 38.2599 70.9013 38.4973C71.0439 38.693 71.4535 38.8272 71.6832 38.8531C72.1212 38.9041 72.445 38.7154 72.7737 38.4511C72.8671 38.3762 72.9591 38.3013 73.0505 38.2269C73.5238 37.8416 73.981 37.4695 74.5277 37.1673C74.9047 36.9584 75.3101 36.7944 75.7113 36.6322C76.8079 36.1887 77.8722 35.7583 78.2323 34.459C78.689 32.8118 79.4992 31.7439 81.1668 31.189ZM74.7179 17.3442C75.1418 17.1435 75.56 17.6293 75.315 18.0457C75.3125 18.0504 75.3092 18.0551 75.306 18.0599C75.1181 18.3802 74.9719 18.6904 74.886 19.0581C74.7065 19.82 74.7867 20.6116 74.8647 21.3832L74.875 21.4848C75.0566 23.2791 74.4703 24.5145 72.9116 25.299L72.8771 25.3165C72.136 25.69 71.5388 25.9912 71.4472 26.9169C71.3658 27.7394 71.2637 28.4794 70.9148 29.2343C70.675 29.7541 70.3481 30.1905 70.0183 30.6308C69.8461 30.8607 69.6731 31.0916 69.5113 31.336C69.224 31.7686 68.9889 32.2352 68.7538 32.7019L68.7474 32.7146C68.4914 33.2208 67.7679 33.0707 67.7128 32.5004L67.7114 32.4849C67.6775 32.1199 67.7185 31.7151 67.8128 31.3624C67.9496 30.8493 68.2512 30.4258 68.5535 30.0011C68.7614 29.709 68.9697 29.4163 69.1252 29.0937C69.4045 28.5135 69.5336 27.8616 69.6622 27.2126C69.8682 26.1731 70.0728 25.1404 70.8911 24.4198C71.1414 24.1995 71.4489 24.0592 71.7541 23.9201C72.2536 23.6924 72.7464 23.4677 72.9706 22.8993C73.1687 22.3969 73.0946 21.8615 73.021 21.3295C72.9822 21.0488 72.9434 20.7689 72.9449 20.4955C72.9494 19.7089 73.1585 18.956 73.596 18.3153C73.9347 17.8199 74.2823 17.5503 74.7179 17.3442ZM45.3605 23.238C45.5197 23.4269 45.6887 23.6117 45.8587 23.7975C46.3115 24.2926 46.7707 24.7946 47.0645 25.4004C47.3873 26.066 47.189 26.5393 46.9765 27.0461C46.8321 27.3907 46.6812 27.7509 46.683 28.1976C46.6871 29.0544 47.8376 30.7555 48.3731 29.3256C48.484 29.0294 48.5419 28.7099 48.6 28.3894C48.6507 28.1087 48.7017 27.8273 48.7886 27.56C48.96 27.0327 49.1274 26.4777 49.2075 25.9249C49.4095 24.5269 48.8467 23.6715 47.8182 22.8987C46.9612 22.2548 46.4436 21.3856 46.2669 20.3033C46.1974 19.8779 46.2253 19.4339 46.2532 18.9927C46.2825 18.5287 46.3116 18.068 46.2269 17.6352C46.0733 16.8517 45.6433 17.6224 45.415 18.0315L45.3845 18.0861C44.5736 19.5326 44.2234 21.8865 45.3605 23.238ZM63.5779 19.3036C63.5919 19.1624 63.6055 19.0255 63.6695 18.9449C63.7016 18.9049 63.7467 18.8785 63.8103 18.8722C64.5316 18.807 64.6964 20.2763 64.5989 20.9642C64.5566 21.263 64.4035 21.5403 64.2546 21.8103C64.1716 21.9608 64.0897 22.109 64.0291 22.2574C63.832 22.739 63.6828 23.2526 63.5646 23.7776C63.3901 24.554 63.2881 25.353 63.1861 26.1514C63.1507 26.4288 63.1151 26.7069 63.0767 26.9833C63.0568 27.1263 63.0397 27.299 63.021 27.4879C62.9362 28.3438 62.8183 29.5333 62.2575 29.8035C61.3704 30.2312 61.5252 28.6966 61.6331 28.0921C61.7827 27.2547 61.8224 26.4196 61.8622 25.5788C61.8822 25.1583 61.9022 24.7363 61.936 24.3118C61.9808 23.7486 62.0745 23.1924 62.2792 22.6914C62.419 22.3492 62.6045 22.13 62.7952 21.9045C62.9118 21.7667 63.0303 21.6266 63.1416 21.4546C63.3882 21.074 63.4696 20.5931 63.5097 20.1057C63.5158 20.0291 63.5215 19.9522 63.527 19.8753L63.5271 19.8741C63.5391 19.7096 63.5509 19.5449 63.5698 19.3814C63.5728 19.3556 63.5753 19.3295 63.5779 19.3036ZM38.1076 19.2983C37.9767 18.8927 37.6308 18.705 37.3095 19.0511C37.091 19.2863 36.9909 19.8003 36.9587 20.0982C36.8689 20.9298 37.3192 21.3735 37.8548 21.9013C37.9421 21.9875 38.0318 22.0757 38.1215 22.1683C38.8574 22.9263 39.2446 23.8574 39.6143 24.793C40.0357 25.8578 40.7226 26.813 41.5124 27.6883C41.8379 28.049 42.2405 28.4818 42.7004 28.2302C43.0197 28.0559 43.136 27.6977 43.087 27.3904C42.9967 26.8232 42.469 26.2062 42.0125 25.6725C41.8492 25.4815 41.695 25.3013 41.5733 25.1377L41.4778 25.0097C40.1408 23.2169 38.7832 21.3964 38.1076 19.2983ZM64.8938 17.238C64.8831 17.2504 64.8724 17.2599 64.8623 17.2686C64.6412 17.451 64.6185 16.7202 64.6255 16.5998C64.6526 16.1163 64.7332 15.5714 64.8971 15.1221C64.9807 14.893 65.0691 14.6656 65.1578 14.4382C65.4022 13.8104 65.6471 13.1815 65.7905 12.5117C65.8937 12.0296 65.8772 11.545 65.8608 11.0645C65.845 10.6008 65.8293 10.1408 65.9215 9.69049C66.0664 8.98519 66.4886 8.39663 66.9951 7.96265C67.2743 7.72341 67.6788 7.93859 67.6933 8.34046C67.7431 9.74452 67.4974 11.1296 67.0682 12.4381C66.6335 13.7669 66.0306 15.012 65.4118 16.2359C65.3714 16.3157 65.3316 16.3961 65.2919 16.4764C65.2561 16.5488 65.22 16.6218 65.1837 16.6939C65.1592 16.7422 65.1349 16.7964 65.1099 16.8524C65.0479 16.9909 64.9809 17.1404 64.8938 17.238ZM46.6547 14.1086C46.7128 14.0692 46.7265 14.0081 46.7401 13.9473C46.7467 13.9178 46.7534 13.8883 46.7651 13.8614C46.8082 13.763 46.8618 13.6658 46.9166 13.5686C46.9794 13.4563 47.0452 13.3445 47.1109 13.2329C47.1816 13.1126 47.2523 12.9925 47.3193 12.8718L47.3265 12.8589C47.6291 12.3115 48.2556 11.1785 46.7041 11.0251C45.0046 10.8575 44.4872 11.9214 44.6702 12.6041C44.7659 12.961 45.0962 13.3322 45.4305 13.6396C45.6061 13.8005 45.8176 13.9785 46.112 14.0836C46.2172 14.1211 46.3444 14.1552 46.4759 14.1523C46.5611 14.1506 46.6168 14.1342 46.6547 14.1086ZM54.4414 43.3661C52.8499 42.1419 54.9102 39.8976 56.0955 41.3681C56.5317 41.909 57.3291 43.0572 56.7085 43.7878C56.198 44.3901 54.9077 43.7252 54.4414 43.3661Z" fill="#BDBDBD"/>
<path d="M66.8933 62.0441C68.1159 60.9347 69.1566 59.6217 69.945 58.1662C70.5716 57.0099 71.0395 55.779 71.5076 54.5473C71.8126 53.7449 72.1178 52.942 72.467 52.1594C72.9063 51.1749 73.3541 50.1661 73.6233 49.1181C73.6324 49.0822 73.6443 49.0393 73.6576 48.991L73.6621 48.9747C73.7855 48.5294 74.027 47.6575 73.6382 47.4152C72.9551 46.9887 72.2687 48.6804 72.1218 49.0769C71.5667 50.5724 70.814 51.9939 69.8885 53.2905C69.1988 54.2581 68.1536 55.2504 67.0019 54.979C66.3188 54.818 65.8587 54.2724 65.3913 53.7183C65.0551 53.3194 64.715 52.9162 64.2856 52.6488C62.8718 51.7682 61.0512 52.599 59.6264 53.4626C58.2023 54.3267 56.4701 55.2544 54.9725 54.5262C54.2279 54.1641 53.7454 53.479 53.2582 52.7873C52.9579 52.3609 52.6558 51.9319 52.2894 51.5746C51.3319 50.6404 49.8928 50.2368 48.5936 50.537C48.2792 50.6099 47.9627 50.7205 47.6466 50.8311C46.8618 51.1054 46.0793 51.379 45.3384 51.0721C44.4483 50.7034 44.1509 49.7542 43.8459 48.7801C43.6747 48.2335 43.5011 47.679 43.2188 47.2151C42.6072 46.2089 41.3663 45.6319 40.208 45.8137C40.1547 43.9421 40.2548 42.0652 40.5083 40.2101C40.5486 39.9169 40.676 39.5473 40.9698 39.5487C41.1323 39.5492 41.2649 39.6742 41.3806 39.7894C45.4417 43.8441 51.0888 45.8707 56.6917 47.0299C60.6794 47.8549 64.8199 48.299 68.8153 47.5127C69.9762 47.2844 71.1534 46.9338 72.0666 46.1762C72.9792 45.4193 73.5725 44.1724 73.273 43.0204C73.0818 42.2851 72.5671 41.6845 72.0406 41.1389C69.3158 38.3167 65.681 35.9657 61.8409 35.0707C61.6385 35.0234 61.4259 34.9498 61.2087 34.8743C60.7462 34.714 60.2619 34.5461 59.8064 34.6089C59.5244 34.6468 59.2423 34.847 59.2039 35.1309C59.1493 35.5391 59.5783 35.8282 59.9482 36.0055C60.1457 36.1 60.3443 36.1934 60.5438 36.286C60.102 36.5149 59.8208 37.229 60.1655 37.5199C60.513 37.8136 61.1826 37.748 61.7464 37.6928L61.748 37.6927C61.9545 37.6725 62.1468 37.6537 62.3037 37.6546C62.6244 37.6561 62.8473 37.5467 62.971 37.3909C65.6192 38.6045 68.2099 39.926 70.0899 42.115C71.1176 43.3115 71.4198 44.722 69.5947 45.0864C66.9206 45.6195 64.1627 45.5959 61.4489 45.3317C58.567 45.051 55.7116 44.4995 52.9309 43.6889L52.677 43.6151C50.1013 42.8653 47.1008 41.9918 44.8859 40.4808C44.2396 40.0398 43.6338 39.5113 43.0337 38.9876C42.7649 38.753 42.4972 38.5195 42.2276 38.2952C42.1516 38.232 42.0826 38.1707 42.0175 38.1129L42.0142 38.1099C41.6614 37.7965 41.4284 37.5894 40.8782 37.7744L40.8177 37.7947C40.48 37.908 40.1341 38.024 39.8011 38.1487C38.9679 38.4605 39.0076 38.8194 39.0669 39.3539C39.0924 39.5841 39.1216 39.8469 39.0861 40.1524C39.0588 40.3895 39.0312 40.6248 39.0039 40.8587L38.9973 40.9148C38.7827 42.8628 38.4822 46.8994 38.9973 47.4613C39.6412 48.1637 41.8901 50.0876 42.0588 50.8311C42.2276 51.5746 42.6479 52.0794 44.2565 52.0794C45.8652 52.0794 47.5132 51.9851 47.5132 54.3817C47.6731 54.2801 47.8293 54.1548 47.9874 54.028C48.3241 53.7577 48.6703 53.4799 49.083 53.407C50.6148 53.1367 51.6287 54.3924 52.5399 55.521C52.773 55.8097 53 56.0908 53.2266 56.3351C54.3869 57.5865 55.1831 58.3114 56.8855 57.5793C57.199 57.4444 57.5185 57.2972 57.8432 57.1475C59.1296 56.5543 60.495 55.9248 61.8767 55.8929C62.7951 55.8706 63.6401 56.1676 64.3759 56.7152C64.6205 56.8973 64.8548 57.116 65.0918 57.3371C65.5416 57.7569 66.0006 58.1852 66.5566 58.388C66.8303 58.4874 66.9102 58.8413 66.7119 59.0559C66.0249 59.7983 65.2501 60.4271 64.4182 61.0185C63.8492 61.4223 63.3583 61.8803 62.8651 62.3405C62.5442 62.6399 62.2222 62.9402 61.8773 63.227C60.9739 63.978 59.8468 64.3515 58.719 64.6053C58.4558 64.6649 58.1886 64.712 57.9216 64.7538C57.5348 64.814 57.3066 64.8938 57.1 65.0227C56.8562 65.1738 56.9081 65.5467 57.1845 65.6246C57.3058 65.6589 57.427 65.6953 57.548 65.7316C58.0076 65.8697 58.4675 66.0076 58.9408 66.0386C60.8238 66.1643 63.3411 64.5641 64.879 63.5841C65.592 63.1295 66.2668 62.6133 66.8933 62.0441Z" fill="#BDBDBD"/>
</svg>
