<svg width="66" height="86" viewBox="0 0 66 86" fill="none" xmlns="http://www.w3.org/2000/svg">
<path fill-rule="evenodd" clip-rule="evenodd" d="M47.7799 1.26886C46.9467 0.973421 46.0778 0.899231 45.2147 0.834644C44.6351 0.790671 44.2189 1.64123 44.4657 2.38735C44.8915 3.67346 45.5476 4.80158 46.6254 4.8483C47.7693 4.89777 49.241 1.78687 47.7799 1.26886ZM43.3449 80.057C44.9344 78.6403 46.2872 76.9638 47.3121 75.1052C48.1268 73.6288 48.735 72.057 49.3436 70.4842V70.4841L49.3438 70.4838C49.7402 69.4593 50.1368 68.4345 50.5908 67.4352C51.1619 66.1781 51.7441 64.8899 52.094 63.5518C52.1072 63.5007 52.1247 63.4388 52.1444 63.3686C52.3049 62.8001 52.6188 61.6867 52.1134 61.3774C51.2253 60.8327 50.333 62.9929 50.142 63.4991C49.4204 65.4087 48.4419 67.2238 47.2387 68.8794C46.3421 70.1149 44.9834 71.3821 43.4861 71.0355C42.5981 70.83 42 70.1332 41.3924 69.4257C40.9552 68.9164 40.5132 68.4016 39.9549 68.06C38.117 66.9356 35.7502 67.9965 33.898 69.0992C32.0466 70.2026 29.7948 71.3871 27.8478 70.4574C26.8798 69.9949 26.2526 69.1202 25.6193 68.237C25.2288 67.6925 24.8361 67.1446 24.3597 66.6884C23.115 65.4955 21.2442 64.9802 19.5552 65.3636C19.1465 65.4566 18.7351 65.5979 18.3241 65.739H18.3239C17.3037 66.0894 16.2866 66.4387 15.3234 66.0468C14.1663 65.576 13.7797 64.3639 13.3831 63.1202C13.1606 62.4222 12.9349 61.7142 12.5679 61.1218C11.7728 59.837 10.1597 59.1002 8.65388 59.3324C8.58459 56.9426 8.71468 54.546 9.0443 52.1771C9.09663 51.8028 9.26223 51.3308 9.64417 51.3326C9.85548 51.3333 10.0278 51.4929 10.1782 51.6399C15.4577 56.8173 22.799 59.4051 30.0828 60.8853C35.2669 61.9387 40.6495 62.5058 45.8436 61.5019C47.3527 61.2104 48.883 60.7626 50.0703 59.7953C51.2566 58.8287 52.028 57.2367 51.6386 55.7657C51.39 54.8267 50.7209 54.0598 50.0365 53.3632C46.4942 49.7595 41.769 46.7574 36.7768 45.6146C36.5136 45.5542 36.2373 45.4602 35.9549 45.3639C35.3537 45.1592 34.7241 44.9448 34.132 45.025C33.7653 45.0734 33.3986 45.329 33.3487 45.6915C33.2777 46.2128 33.8354 46.5819 34.3163 46.8083C34.573 46.9289 34.8312 47.0482 35.0905 47.1665C34.5162 47.4588 34.1507 48.3706 34.5987 48.7421C35.0505 49.1171 35.921 49.0333 36.6539 48.9628C36.9232 48.937 37.1739 48.9128 37.3784 48.914C37.7953 48.916 38.0851 48.7763 38.246 48.5773C41.6886 50.1269 45.0566 51.8144 47.5006 54.6095C48.8366 56.1373 49.2295 57.9383 46.8567 58.4036C43.3804 59.0844 39.7952 59.0542 36.2672 58.7169C32.5207 58.3585 28.8086 57.6543 25.1938 56.6193L24.8637 56.525C21.5152 55.5676 17.6145 54.4522 14.7352 52.5228C13.895 51.9598 13.1074 51.2848 12.3273 50.6161C11.9778 50.3165 11.6298 50.0184 11.2793 49.7321C11.1788 49.65 11.0877 49.5703 11.0019 49.4954L11.0017 49.4953C10.5432 49.0951 10.2404 48.8307 9.52515 49.0671L9.44652 49.0929L9.44637 49.0931C9.00736 49.2377 8.55785 49.3858 8.12488 49.5449C7.04172 49.9431 7.09333 50.4014 7.17038 51.0839C7.20358 51.3778 7.24153 51.7134 7.19539 52.1035C7.15701 52.4304 7.11834 52.7547 7.07996 53.077L7.07967 53.0788C6.47405 58.1611 5.93212 62.7087 7.11518 67.8862C7.7793 70.7924 8.81617 73.7027 10.795 75.9498C11.6299 76.8978 17.9268 82.274 18.7998 80.4195C19.117 79.7446 17.7662 78.9702 16.8391 78.4388C16.559 78.2782 16.3176 78.1398 16.1726 78.033C15.0531 77.2086 14.126 76.1486 13.3107 75.0351C11.7728 72.9383 10.7055 70.5426 9.95094 68.0717C9.7609 67.4494 9.59012 66.8221 9.433 66.1906C9.4113 66.1032 9.3699 65.9793 9.32246 65.8375V65.8372H9.32232C9.18072 65.4139 8.98637 64.8329 9.111 64.6001C9.74393 63.4163 11.0545 65.3853 11.2911 65.8213C11.5346 66.2711 11.7419 66.7567 11.9496 67.2431C12.6059 68.7805 13.2658 70.3264 15.0842 70.7756C16.1963 71.0496 17.1942 70.8718 18.1507 70.2728C18.3586 70.1431 18.5616 69.9831 18.7671 69.8211H18.7673C19.205 69.476 19.6549 69.1213 20.1914 69.0282C22.1828 68.6831 23.5008 70.2864 24.6855 71.7275C24.9888 72.0965 25.2833 72.4549 25.5781 72.7671C27.0865 74.3651 28.1217 75.2907 30.3347 74.3559C30.7422 74.1836 31.1577 73.9956 31.5797 73.8044C33.2521 73.047 35.0271 72.2432 36.8233 72.2025C38.0173 72.174 39.1158 72.5532 40.0723 73.2524C40.3903 73.485 40.6949 73.7642 41.0029 74.0465C41.5877 74.5826 42.1844 75.1295 42.9072 75.3884C43.263 75.5153 43.3669 75.9673 43.1092 76.2413C42.216 77.1893 41.2088 77.9922 40.1272 78.7473C39.3876 79.2629 38.7494 79.8478 38.1083 80.4353H38.1081C37.6909 80.8177 37.2725 81.2011 36.8241 81.5674C35.6497 82.5263 34.1845 83.0033 32.7183 83.3273C32.3761 83.4033 32.0288 83.4636 31.6816 83.5169C31.1788 83.5938 30.8822 83.6957 30.6136 83.8603C30.2966 84.0532 30.3642 84.5293 30.7234 84.6288C30.8811 84.6726 31.0386 84.7191 31.196 84.7655C31.7935 84.9417 32.3913 85.1178 33.0066 85.1575C35.4545 85.3179 38.7271 83.2747 40.7264 82.0233C41.6533 81.4429 42.5304 80.7838 43.3449 80.057ZM42.8132 56.1803C42.4164 54.2428 40.8014 54.5884 38.8851 55.0231C37.3204 54.2564 39.9245 52.9582 40.9555 53.0435C42.4777 53.1688 43.5666 54.4942 44.0893 55.5308L44.1113 55.5741C44.2839 55.9142 44.569 56.4757 44.2468 56.7969C43.5649 57.4763 42.9111 56.6545 42.8132 56.1803ZM39.3789 51.0183C41.6439 50.8402 39.6987 48.5946 37.678 49.0962C34.8309 49.8035 37.332 51.1793 39.3789 51.0183ZM56.6408 52.4593C55.9304 51.4881 56.862 50.2465 57.5734 49.535C58.4019 48.7077 59.751 48.911 60.1697 49.9481C60.7099 51.287 60.2084 52.1446 58.9284 52.7254C58.1216 53.0919 57.2444 53.2834 56.6408 52.4593ZM21.1409 51.036C19.972 51.1047 18.4627 51.3386 18.4093 52.1606C18.3671 52.7919 19 53.1513 19.9917 53.008C20.5515 52.9266 21.7711 52.4936 22.1312 52.1928C22.7261 51.6945 22.3323 50.9666 21.1409 51.036ZM9.25231 46.1579C8.80812 46.3817 8.94368 46.9685 9.36688 47.0863C9.66286 47.1686 10.1877 46.9266 10.6138 46.7303C10.7858 46.6511 10.9418 46.5792 11.06 46.5391C11.7255 46.313 12.397 46.2261 13.0667 46.1395C13.5875 46.072 14.1075 46.0046 14.6228 45.8722C15.1185 45.7449 15.5615 45.4963 16.0083 45.2458C16.464 44.9902 16.9238 44.7324 17.4475 44.5986C18.6264 44.2983 19.8935 44.2131 21.1056 44.3197C20.9491 45.0891 20.7987 45.861 20.839 46.6492C19.9285 45.6209 18.225 45.602 17.3014 46.6673C16.929 47.0958 16.6945 47.9323 17.1781 48.3763C17.4794 48.6529 17.9702 48.6166 18.4537 48.5808C18.7872 48.5562 19.1173 48.5317 19.3794 48.6104C19.8235 48.7438 20.1598 49.0145 20.5012 49.2894V49.2896H20.5013L20.5015 49.2897C20.6425 49.4033 20.7844 49.5177 20.9352 49.6232C21.5097 50.0269 22.2321 50.3298 22.9099 50.5234C23.4949 50.6894 24.1149 50.7816 24.7227 50.705L24.7524 50.7014C25.4308 50.617 25.7774 50.5739 25.6611 49.8393C25.3542 47.9073 30.9363 47.2052 30.862 48.7869C29.7137 47.8239 26.8889 48.3884 27.1636 50.2687C27.2954 51.1654 27.8597 51.087 28.4932 50.9994C28.641 50.9788 28.7925 50.9578 28.9432 50.9485C29.8357 50.8936 30.4156 51.2618 31.0891 51.6896C31.2162 51.7703 31.3464 51.8531 31.4828 51.9356C30.5654 52.7281 31.1329 53.562 32.1544 53.0981C32.2283 53.0649 32.298 53.0314 32.3649 52.9992C32.747 52.8155 33.0396 52.6748 33.5205 52.8511C33.9543 53.0103 34.1392 53.3098 34.3338 53.6251C34.4467 53.8081 34.5627 53.9963 34.7326 54.1653C35.2949 54.7264 35.6089 54.37 35.5834 53.7023C35.5537 52.9088 35.1313 52.1223 34.478 51.6559C34.1632 51.4313 33.7312 51.2325 33.3333 51.2446C33.2281 51.2478 33.0953 51.2966 32.9565 51.3475C32.7264 51.4322 32.4802 51.5227 32.318 51.4201C31.9881 51.2114 32.2169 49.8735 32.3712 48.9729V48.9728C32.4216 48.6775 32.4642 48.4294 32.4763 48.2835C32.5795 47.0261 32.6573 45.762 32.6399 44.5004C32.6144 42.7037 32.1658 41.1589 30.9065 39.8113C29.2903 38.0843 28.3161 36.364 28.3406 33.9277C28.3662 31.3223 28.5525 28.7078 28.7385 26.0954C28.8575 24.4231 28.9765 22.7518 29.0533 21.0843C29.0828 20.4467 29.1117 19.8089 29.1404 19.1711L29.1406 19.1682L29.1407 19.1661C29.3133 15.3468 29.4863 11.5214 29.7835 7.71133C29.804 7.44985 29.8704 7.06931 29.9481 6.62323V6.62315C30.2986 4.61455 30.8808 1.27686 28.5365 1.49303C27.62 1.49992 26.6834 1.63933 25.7887 1.82865C23.7859 2.25399 23.9608 4.5676 24.091 6.29115C24.1126 6.57616 24.133 6.84505 24.1421 7.08658C24.2312 9.50299 24.3397 11.9176 24.4674 14.3323C24.6458 17.7178 24.8608 21.1014 25.1118 24.4825C25.2005 25.6723 25.3341 26.8591 25.4677 28.0456C25.6795 29.9269 25.8912 31.8076 25.9234 33.6989C25.9239 33.9814 25.9303 34.2653 25.9369 34.5489V34.549V34.5492V34.5493V34.5495V34.5496V34.5498C25.9778 36.3277 26.0184 38.0928 24.5383 39.3966C24.262 39.6398 23.9594 39.8652 23.6558 40.0912V40.0913H23.6556V40.0915H23.6555V40.0916C23.1933 40.4357 22.7289 40.7817 22.351 41.1952C22.1915 41.3694 22.0923 41.5133 22.0111 41.6309C21.808 41.9254 21.7189 42.0547 21.0838 42.0824C20.3229 42.115 19.5708 42.2407 18.8309 42.4136C15.5306 43.1873 12.2573 44.6424 9.25231 46.1579ZM0.681661 40.3245C-0.269418 39.1917 1.5867 38.846 2.4042 39.0304C2.76847 39.1128 3.15113 39.4756 3.46019 39.7689H3.46033V39.769L3.46062 39.7692L3.46077 39.7693C3.54745 39.8515 3.62838 39.9283 3.70155 39.9918C4.2948 40.5068 4.86822 41.0464 5.41102 41.6092C5.43762 41.6368 5.4691 41.6691 5.50417 41.7052C5.97754 42.1912 7.11245 43.3563 5.80547 42.8924C4.60803 42.4679 3.45545 41.8583 2.3319 41.2639C2.15897 41.1725 1.9869 41.0815 1.8154 40.9915C1.72556 40.9442 1.6235 40.897 1.51712 40.848C1.21164 40.7071 0.870664 40.5499 0.681661 40.3245ZM61.9006 40.6581C63.4586 40.1494 65.2333 38.8483 65.5563 37.1304C65.738 36.1612 64.9914 34.6137 64.0892 35.7114C63.9329 35.9009 63.7889 36.091 63.6485 36.2762L63.6483 36.2763C63.027 37.0961 62.4773 37.8212 61.2682 37.9835C61.119 38.0035 60.9721 38.0223 60.8277 38.0409C59.3705 38.2282 58.1381 38.3864 56.8885 39.3713C56.1236 39.975 55.5663 40.7337 55.0072 41.4949V41.495C54.6202 42.0219 54.2324 42.5497 53.7744 43.0283C53.2049 43.6238 52.5155 44.044 51.8296 44.4619C50.9503 44.9978 50.0767 45.53 49.4694 46.4239C49.0187 47.0879 48.7255 47.8527 48.5607 48.6327L48.5487 48.6894L48.5343 48.756V48.7561L48.5342 48.7564C48.4432 49.1747 48.3316 49.6869 48.5554 49.9901C48.7407 50.2399 49.2732 50.4113 49.5719 50.4443C50.1413 50.5095 50.5622 50.2685 50.9895 49.9311C51.1109 49.8354 51.2305 49.7398 51.3494 49.6448L51.3495 49.6447L51.3496 49.6445L51.3498 49.6444C51.965 49.1525 52.559 48.6776 53.2697 48.2918C53.7598 48.025 54.2869 47.8157 54.8084 47.6086C56.234 47.0422 57.6176 46.4926 58.0858 44.8336C58.6795 42.7303 59.7327 41.3667 61.9006 40.6581ZM53.517 22.9797C54.0681 22.7234 54.6118 23.3439 54.2932 23.8755C54.2899 23.8815 54.2857 23.8875 54.2816 23.8936C54.0372 24.3027 53.8472 24.6987 53.7355 25.1682C53.5022 26.1411 53.6064 27.1519 53.7079 28.1372L53.7212 28.2669C53.9573 30.558 53.1951 32.1355 51.1688 33.1373L51.124 33.1595C50.1605 33.6365 49.3841 34.021 49.265 35.2031C49.1592 36.2533 49.0265 37.1982 48.573 38.1622C48.2612 38.8259 47.8362 39.3832 47.4074 39.9454C47.1836 40.2389 46.9587 40.5338 46.7483 40.8459C46.3749 41.3983 46.0693 41.994 45.7637 42.59L45.7553 42.6062C45.4225 43.2525 44.482 43.0609 44.4103 42.3327L44.4085 42.3128C44.3644 41.8468 44.4177 41.3299 44.5403 40.8795C44.7182 40.2244 45.1102 39.6836 45.5032 39.1413C45.7734 38.7684 46.0443 38.3946 46.2464 37.9826C46.6095 37.2418 46.7774 36.4095 46.9446 35.5807C47.2124 34.2533 47.4783 32.9347 48.5421 32.0146C48.8675 31.7333 49.2673 31.5541 49.664 31.3765C50.3133 31.0858 50.954 30.7989 51.2454 30.0731C51.503 29.4315 51.4067 28.7479 51.311 28.0686C51.2605 27.7101 51.2101 27.3528 51.2121 27.0036C51.218 25.9992 51.4898 25.0378 52.0585 24.2197C52.4988 23.5872 52.9507 23.243 53.517 22.9797ZM15.3522 30.5055C15.5591 30.7467 15.7788 30.9827 15.9998 31.2199C16.5884 31.8521 17.1854 32.4931 17.5674 33.2666C17.987 34.1166 17.7292 34.721 17.453 35.3681C17.2652 35.8081 17.069 36.268 17.0714 36.8384C17.0768 37.9325 18.5723 40.1045 19.2685 38.2788C19.4127 37.9006 19.488 37.4926 19.5635 37.0833C19.6295 36.725 19.6957 36.3656 19.8087 36.0243C20.0315 35.351 20.2492 34.6423 20.3533 33.9364C20.6159 32.1513 19.8842 31.0591 18.5472 30.0722C17.4331 29.2501 16.7602 28.1402 16.5305 26.7582C16.4401 26.215 16.4765 25.648 16.5127 25.0847C16.5508 24.4923 16.5886 23.9039 16.4785 23.3513C16.2788 22.3508 15.7198 23.335 15.4231 23.8573L15.3834 23.9271C14.3291 25.7741 13.8739 28.7798 15.3522 30.5055ZM39.0349 25.4817C39.0531 25.3015 39.0708 25.1267 39.154 25.0237C39.1957 24.9726 39.2544 24.9389 39.337 24.9309C40.2747 24.8476 40.4889 26.7237 40.3623 27.6022C40.3072 27.9837 40.1082 28.3377 39.9146 28.6825C39.8067 28.8746 39.7003 29.064 39.6215 29.2534C39.3652 29.8684 39.1713 30.5242 39.0176 31.1945C38.7908 32.1859 38.6581 33.2061 38.5256 34.2256V34.2259V34.2262L38.5254 34.2263V34.2266C38.4794 34.5808 38.4333 34.935 38.3834 35.2879C38.3575 35.4705 38.3352 35.691 38.3109 35.9322V35.9323C38.2007 37.0253 38.0475 38.544 37.3183 38.889C36.1652 39.4351 36.3664 37.4756 36.5066 36.7037C36.7011 35.6345 36.7527 34.5682 36.8044 33.4945V33.4943C36.8305 32.9574 36.8565 32.4187 36.9005 31.8767C36.9587 31.1575 37.0804 30.4473 37.3465 29.8076C37.5284 29.3706 37.7694 29.0907 38.0174 28.8028C38.1689 28.6268 38.323 28.448 38.4678 28.2283C38.7883 27.7423 38.8941 27.1282 38.9462 26.5059C38.9542 26.408 38.9616 26.3099 38.9687 26.2117V26.211L38.9689 26.2102C38.9844 26.0001 38.9998 25.7898 39.0244 25.581C39.0283 25.5481 39.0316 25.5148 39.0349 25.4817ZM5.92335 25.475C5.75315 24.957 5.3035 24.7174 4.88576 25.1593C4.60171 25.4596 4.47162 26.1159 4.42978 26.4963C4.31306 27.5582 4.89841 28.1247 5.59473 28.7987C5.70815 28.9087 5.82474 29.0214 5.94146 29.1396C6.89812 30.1076 7.40138 31.2964 7.88208 32.4911C8.42992 33.8507 9.32289 35.0704 10.3496 36.1881C10.7728 36.6486 11.2961 37.2014 11.894 36.8801C12.3092 36.6576 12.4602 36.2001 12.3966 35.8077C12.2793 35.0835 11.5931 34.2956 10.9997 33.6141C10.7874 33.3703 10.587 33.1401 10.4288 32.9313L10.3046 32.7678C8.56648 30.4786 6.80166 28.154 5.92335 25.475ZM40.7456 22.8442C40.7317 22.86 40.7177 22.8721 40.7047 22.8833C40.4172 23.1162 40.3877 22.1829 40.3968 22.0293C40.432 21.4119 40.5368 20.7161 40.7498 20.1424C40.8585 19.8499 40.9735 19.5595 41.0888 19.2691C41.4065 18.4674 41.7249 17.6644 41.9113 16.8091C42.0454 16.1936 42.024 15.5748 42.0027 14.9612V14.9611C41.9822 14.369 41.9618 13.7818 42.0816 13.2068C42.27 12.3062 42.8188 11.5546 43.4773 11.0005C43.8403 10.695 44.3661 10.9698 44.385 11.4829C44.4496 13.2758 44.1302 15.0443 43.5723 16.7151C43.0073 18.4119 42.2234 20.0018 41.419 21.5645C41.3665 21.6664 41.3147 21.7691 41.2631 21.8717L41.2628 21.8722V21.8723C41.2163 21.9647 41.1697 22.0573 41.1224 22.1494C41.0906 22.2111 41.059 22.2803 41.0265 22.3518C40.9459 22.5287 40.8588 22.7196 40.7456 22.8442ZM17.0346 18.8482C17.1101 18.7979 17.1279 18.7199 17.1456 18.6422C17.1542 18.6046 17.1629 18.5669 17.1781 18.5326C17.2342 18.4069 17.3039 18.2829 17.375 18.1587C17.4567 18.0153 17.5422 17.8726 17.6276 17.73C17.7196 17.5765 17.8115 17.4231 17.8986 17.269L17.9079 17.2525C18.3014 16.5535 19.1159 15.1068 17.0989 14.9109C14.8895 14.6969 14.2169 16.0555 14.4548 16.9272C14.5791 17.3828 15.0085 17.8568 15.4432 18.2494C15.6715 18.4548 15.9463 18.6821 16.3291 18.8163C16.4658 18.8642 16.6313 18.9077 16.8022 18.904C16.9129 18.9018 16.9853 18.8809 17.0346 18.8482ZM27.1574 56.207C25.0884 54.6438 27.7669 51.7782 29.3077 53.6559C29.8748 54.3464 30.9114 55.8125 30.1047 56.7455C29.441 57.5145 27.7636 56.6655 27.1574 56.207Z" fill="#BDBDBD"/>
</svg>
