<svg width="300" height="40" viewBox="0 0 300 40" fill="none" xmlns="http://www.w3.org/2000/svg">
<path fill-rule="evenodd" clip-rule="evenodd" d="M5.86496 0L6.52549 0.814509L1.99006 3.24563L5.91698 5.98217L1.91698 8.76962L5.91698 11.5571L1.91698 14.3445L5.91698 17.132L1.91698 19.9195L5.91698 22.7069L1.91698 25.4944L5.91698 28.2818L1.91698 31.0693L5.91698 33.8567L1.99006 36.5933L6.52549 39.0244L5.86496 39.8389L1.43051e-07 36.6951L4.07308 33.8567L0.0730739 31.0693L4.07307 28.2818L0.0730743 25.4944L4.07307 22.7069L0.0730743 19.9195L4.07307 17.132L0.0730741 14.3445L4.07307 11.5571L0.0730742 8.76962L4.07307 5.98217L0 3.14379L5.86496 0Z" fill="#FF7D01"/>
<rect x="6" width="288" height="1" fill="#FF7D01"/>
<path d="M35.4603 14.728V24.5H33.5003V18.144L30.8823 24.5H29.3983L26.7663 18.144V24.5H24.8063V14.728H27.0323L30.1403 21.994L33.2483 14.728H35.4603ZM44.7551 16.744V24.5H42.7811V23.52C42.5291 23.856 42.1978 24.122 41.7871 24.318C41.3858 24.5047 40.9471 24.598 40.4711 24.598C39.8644 24.598 39.3278 24.472 38.8611 24.22C38.3944 23.9587 38.0258 23.5807 37.7551 23.086C37.4938 22.582 37.3631 21.9847 37.3631 21.294V16.744H39.3231V21.014C39.3231 21.63 39.4771 22.106 39.7851 22.442C40.0931 22.7687 40.5131 22.932 41.0451 22.932C41.5864 22.932 42.0111 22.7687 42.3191 22.442C42.6271 22.106 42.7811 21.63 42.7811 21.014V16.744H44.7551ZM46.22 20.594C46.22 19.81 46.374 19.1147 46.682 18.508C46.9993 17.9013 47.424 17.4347 47.956 17.108C48.4973 16.7813 49.0993 16.618 49.762 16.618C50.3406 16.618 50.8446 16.7347 51.274 16.968C51.7126 17.2013 52.0626 17.4953 52.324 17.85V16.744H54.298V24.5H52.324V23.366C52.072 23.73 51.722 24.0333 51.274 24.276C50.8353 24.5093 50.3266 24.626 49.748 24.626C49.0946 24.626 48.4973 24.458 47.956 24.122C47.424 23.786 46.9993 23.3147 46.682 22.708C46.374 22.092 46.22 21.3873 46.22 20.594ZM52.324 20.622C52.324 20.146 52.2306 19.74 52.044 19.404C51.8573 19.0587 51.6053 18.7973 51.288 18.62C50.9706 18.4333 50.63 18.34 50.266 18.34C49.902 18.34 49.566 18.4287 49.258 18.606C48.95 18.7833 48.698 19.0447 48.502 19.39C48.3153 19.726 48.222 20.1273 48.222 20.594C48.222 21.0607 48.3153 21.4713 48.502 21.826C48.698 22.1713 48.95 22.4373 49.258 22.624C49.5753 22.8107 49.9113 22.904 50.266 22.904C50.63 22.904 50.9706 22.8153 51.288 22.638C51.6053 22.4513 51.8573 22.19 52.044 21.854C52.2306 21.5087 52.324 21.098 52.324 20.622ZM61.9002 18.354V22.106C61.9002 22.3673 61.9609 22.5587 62.0822 22.68C62.2129 22.792 62.4275 22.848 62.7262 22.848H63.6362V24.5H62.4042C60.7522 24.5 59.9262 23.6973 59.9262 22.092V18.354H59.0022V16.744H59.9262V14.826H61.9002V16.744H63.6362V18.354H61.9002ZM69.4489 16.632C70.0369 16.632 70.5596 16.7627 71.0169 17.024C71.4743 17.276 71.8289 17.654 72.0809 18.158C72.3423 18.6527 72.4729 19.25 72.4729 19.95V24.5H70.5129V20.216C70.5129 19.6 70.3589 19.1287 70.0509 18.802C69.7429 18.466 69.3229 18.298 68.7909 18.298C68.2496 18.298 67.8203 18.466 67.5029 18.802C67.1949 19.1287 67.0409 19.6 67.0409 20.216V24.5H65.0809V14.14H67.0409V17.71C67.2929 17.374 67.6289 17.1127 68.0489 16.926C68.4689 16.73 68.9356 16.632 69.4489 16.632ZM81.5818 20.454C81.5818 20.734 81.5631 20.986 81.5258 21.21H75.8558C75.9024 21.77 76.0984 22.2087 76.4438 22.526C76.7891 22.8433 77.2138 23.002 77.7178 23.002C78.4458 23.002 78.9638 22.6893 79.2718 22.064H81.3858C81.1618 22.8107 80.7324 23.4267 80.0978 23.912C79.4631 24.388 78.6838 24.626 77.7598 24.626C77.0131 24.626 76.3411 24.4627 75.7438 24.136C75.1558 23.8 74.6938 23.3287 74.3578 22.722C74.0311 22.1153 73.8678 21.4153 73.8678 20.622C73.8678 19.8193 74.0311 19.1147 74.3578 18.508C74.6844 17.9013 75.1418 17.4347 75.7298 17.108C76.3178 16.7813 76.9944 16.618 77.7598 16.618C78.4971 16.618 79.1551 16.7767 79.7338 17.094C80.3218 17.4113 80.7744 17.864 81.0918 18.452C81.4184 19.0307 81.5818 19.698 81.5818 20.454ZM79.5518 19.894C79.5424 19.39 79.3604 18.9887 79.0058 18.69C78.6511 18.382 78.2171 18.228 77.7038 18.228C77.2184 18.228 76.8078 18.3773 76.4718 18.676C76.1451 18.9653 75.9444 19.3713 75.8698 19.894H79.5518ZM86.4914 24.626C85.7447 24.626 85.0727 24.4627 84.4754 24.136C83.8781 23.8 83.4067 23.3287 83.0614 22.722C82.7254 22.1153 82.5574 21.4153 82.5574 20.622C82.5574 19.8287 82.7301 19.1287 83.0754 18.522C83.4301 17.9153 83.9107 17.4487 84.5174 17.122C85.1241 16.786 85.8007 16.618 86.5474 16.618C87.2941 16.618 87.9707 16.786 88.5774 17.122C89.1841 17.4487 89.6601 17.9153 90.0054 18.522C90.3601 19.1287 90.5374 19.8287 90.5374 20.622C90.5374 21.4153 90.3554 22.1153 89.9914 22.722C89.6367 23.3287 89.1514 23.8 88.5354 24.136C87.9287 24.4627 87.2474 24.626 86.4914 24.626ZM86.4914 22.918C86.8461 22.918 87.1774 22.834 87.4854 22.666C87.8027 22.4887 88.0547 22.2273 88.2414 21.882C88.4281 21.5367 88.5214 21.1167 88.5214 20.622C88.5214 19.8847 88.3254 19.32 87.9334 18.928C87.5507 18.5267 87.0794 18.326 86.5194 18.326C85.9594 18.326 85.4881 18.5267 85.1054 18.928C84.7321 19.32 84.5454 19.8847 84.5454 20.622C84.5454 21.3593 84.7274 21.9287 85.0914 22.33C85.4647 22.722 85.9314 22.918 86.4914 22.918ZM94.8771 20.622C94.8771 19.8193 95.0404 19.1193 95.3671 18.522C95.6937 17.9153 96.1464 17.4487 96.7251 17.122C97.3037 16.786 97.9664 16.618 98.7131 16.618C99.6744 16.618 100.468 16.8607 101.093 17.346C101.728 17.822 102.152 18.494 102.367 19.362H100.253C100.141 19.026 99.9497 18.7647 99.6791 18.578C99.4177 18.382 99.0911 18.284 98.6991 18.284C98.1391 18.284 97.6957 18.4893 97.3691 18.9C97.0424 19.3013 96.8791 19.8753 96.8791 20.622C96.8791 21.3593 97.0424 21.9333 97.3691 22.344C97.6957 22.7453 98.1391 22.946 98.6991 22.946C99.4924 22.946 100.01 22.5913 100.253 21.882H102.367C102.152 22.722 101.728 23.3893 101.093 23.884C100.458 24.3787 99.6651 24.626 98.7131 24.626C97.9664 24.626 97.3037 24.4627 96.7251 24.136C96.1464 23.8 95.6937 23.3333 95.3671 22.736C95.0404 22.1293 94.8771 21.4247 94.8771 20.622ZM108.206 16.632C108.794 16.632 109.317 16.7627 109.774 17.024C110.231 17.276 110.586 17.654 110.838 18.158C111.099 18.6527 111.23 19.25 111.23 19.95V24.5H109.27V20.216C109.27 19.6 109.116 19.1287 108.808 18.802C108.5 18.466 108.08 18.298 107.548 18.298C107.007 18.298 106.577 18.466 106.26 18.802C105.952 19.1287 105.798 19.6 105.798 20.216V24.5H103.838V14.14H105.798V17.71C106.05 17.374 106.386 17.1127 106.806 16.926C107.226 16.73 107.693 16.632 108.206 16.632ZM123.447 15.862C123.344 16.366 123.19 16.8327 122.985 17.262C122.789 17.682 122.476 18.0367 122.047 18.326C121.627 18.606 121.034 18.802 120.269 18.914V24.5H118.673L118.393 23.52H118.267C118.024 23.912 117.688 24.1967 117.259 24.374C116.839 24.5513 116.395 24.64 115.929 24.64C115.107 24.64 114.449 24.4207 113.955 23.982C113.46 23.534 113.213 22.82 113.213 21.84V16.856H115.299V21.322C115.299 21.8633 115.397 22.274 115.593 22.554C115.789 22.834 116.101 22.974 116.531 22.974C117.165 22.974 117.599 22.7593 117.833 22.33C118.066 21.8913 118.183 21.266 118.183 20.454V16.856H120.269V17.654C120.623 17.542 120.88 17.3133 121.039 16.968C121.207 16.6133 121.291 16.1933 121.291 15.708H123.349L123.447 15.862ZM130.871 20.664C130.871 21.9333 130.535 22.9133 129.863 23.604C129.2 24.2947 128.295 24.64 127.147 24.64C126.437 24.64 125.803 24.486 125.243 24.178C124.692 23.87 124.258 23.422 123.941 22.834C123.623 22.2367 123.465 21.5133 123.465 20.664C123.465 19.3947 123.796 18.4193 124.459 17.738C125.121 17.0567 126.031 16.716 127.189 16.716C127.702 16.716 128.187 16.7953 128.645 16.954C129.102 17.1127 129.489 17.346 129.807 17.654C130.18 17.542 130.441 17.3133 130.591 16.968C130.749 16.6133 130.829 16.1933 130.829 15.708H132.887L132.985 15.862C132.891 16.31 132.761 16.73 132.593 17.122C132.434 17.5047 132.191 17.836 131.865 18.116C131.538 18.396 131.09 18.6107 130.521 18.76C130.633 19.0307 130.717 19.3247 130.773 19.642C130.838 19.9593 130.871 20.3 130.871 20.664ZM125.593 20.664C125.593 21.42 125.714 21.994 125.957 22.386C126.209 22.7687 126.615 22.96 127.175 22.96C127.725 22.96 128.122 22.7687 128.365 22.386C128.617 21.994 128.743 21.42 128.743 20.664C128.743 19.908 128.617 19.3433 128.365 18.97C128.122 18.5873 127.721 18.396 127.161 18.396C126.61 18.396 126.209 18.5873 125.957 18.97C125.714 19.3433 125.593 19.908 125.593 20.664ZM137.635 16.632C138.559 16.632 139.306 16.926 139.875 17.514C140.445 18.0927 140.729 18.9047 140.729 19.95V24.5H138.769V20.216C138.769 19.6 138.615 19.1287 138.307 18.802C137.999 18.466 137.579 18.298 137.047 18.298C136.506 18.298 136.077 18.466 135.759 18.802C135.451 19.1287 135.297 19.6 135.297 20.216V24.5H133.337V16.744H135.297V17.71C135.559 17.374 135.89 17.1127 136.291 16.926C136.702 16.73 137.15 16.632 137.635 16.632ZM145.666 16.618C146.245 16.618 146.754 16.7347 147.192 16.968C147.631 17.192 147.976 17.486 148.228 17.85V16.744H150.202V24.556C150.202 25.2747 150.058 25.914 149.768 26.474C149.479 27.0433 149.045 27.4913 148.466 27.818C147.888 28.154 147.188 28.322 146.366 28.322C145.265 28.322 144.36 28.0653 143.65 27.552C142.95 27.0387 142.554 26.3387 142.46 25.452H144.406C144.509 25.8067 144.728 26.0867 145.064 26.292C145.41 26.5067 145.825 26.614 146.31 26.614C146.88 26.614 147.342 26.4413 147.696 26.096C148.051 25.76 148.228 25.2467 148.228 24.556V23.352C147.976 23.716 147.626 24.0193 147.178 24.262C146.74 24.5047 146.236 24.626 145.666 24.626C145.013 24.626 144.416 24.458 143.874 24.122C143.333 23.786 142.904 23.3147 142.586 22.708C142.278 22.092 142.124 21.3873 142.124 20.594C142.124 19.81 142.278 19.1147 142.586 18.508C142.904 17.9013 143.328 17.4347 143.86 17.108C144.402 16.7813 145.004 16.618 145.666 16.618ZM148.228 20.622C148.228 20.146 148.135 19.74 147.948 19.404C147.762 19.0587 147.51 18.7973 147.192 18.62C146.875 18.4333 146.534 18.34 146.17 18.34C145.806 18.34 145.47 18.4287 145.162 18.606C144.854 18.7833 144.602 19.0447 144.406 19.39C144.22 19.726 144.126 20.1273 144.126 20.594C144.126 21.0607 144.22 21.4713 144.406 21.826C144.602 22.1713 144.854 22.4373 145.162 22.624C145.48 22.8107 145.816 22.904 146.17 22.904C146.534 22.904 146.875 22.8153 147.192 22.638C147.51 22.4513 147.762 22.19 147.948 21.854C148.135 21.5087 148.228 21.098 148.228 20.622ZM157.805 18.354V22.106C157.805 22.3673 157.865 22.5587 157.987 22.68C158.117 22.792 158.332 22.848 158.631 22.848H159.541V24.5H158.309C156.657 24.5 155.831 23.6973 155.831 22.092V18.354H154.907V16.744H155.831V14.826H157.805V16.744H159.541V18.354H157.805ZM162.945 17.948C163.197 17.5373 163.524 17.2153 163.925 16.982C164.336 16.7487 164.803 16.632 165.325 16.632V18.69H164.807C164.191 18.69 163.725 18.8347 163.407 19.124C163.099 19.4133 162.945 19.9173 162.945 20.636V24.5H160.985V16.744H162.945V17.948ZM168.724 16.744V24.5H166.764V16.744H168.724ZM169.27 14.798V16.198L166.05 14.728V13.132L169.27 14.798ZM175.074 16.632C175.998 16.632 176.745 16.926 177.314 17.514C177.883 18.0927 178.168 18.9047 178.168 19.95V24.5H176.208V20.216C176.208 19.6 176.054 19.1287 175.746 18.802C175.438 18.466 175.018 18.298 174.486 18.298C173.945 18.298 173.515 18.466 173.198 18.802C172.89 19.1287 172.736 19.6 172.736 20.216V24.5H170.776V16.744H172.736V17.71C172.997 17.374 173.329 17.1127 173.73 16.926C174.141 16.73 174.589 16.632 175.074 16.632ZM184.435 16.632C185.023 16.632 185.546 16.7627 186.003 17.024C186.46 17.276 186.815 17.654 187.067 18.158C187.328 18.6527 187.459 19.25 187.459 19.95V24.5H185.499V20.216C185.499 19.6 185.345 19.1287 185.037 18.802C184.729 18.466 184.309 18.298 183.777 18.298C183.236 18.298 182.806 18.466 182.489 18.802C182.181 19.1287 182.027 19.6 182.027 20.216V24.5H180.067V14.14H182.027V17.71C182.279 17.374 182.615 17.1127 183.035 16.926C183.455 16.73 183.922 16.632 184.435 16.632ZM197.321 24.5L194.689 21.196V24.5H192.729V14.14H194.689V20.034L197.293 16.744H199.841L196.425 20.636L199.869 24.5H197.321ZM205.307 16.632C205.895 16.632 206.418 16.7627 206.875 17.024C207.333 17.276 207.687 17.654 207.939 18.158C208.201 18.6527 208.331 19.25 208.331 19.95V24.5H206.371V20.216C206.371 19.6 206.217 19.1287 205.909 18.802C205.601 18.466 205.181 18.298 204.649 18.298C204.108 18.298 203.679 18.466 203.361 18.802C203.053 19.1287 202.899 19.6 202.899 20.216V24.5H200.939V14.14H202.899V17.71C203.151 17.374 203.487 17.1127 203.907 16.926C204.327 16.73 204.794 16.632 205.307 16.632ZM217.552 16.744V24.5H215.578V23.52C215.326 23.856 214.995 24.122 214.584 24.318C214.183 24.5047 213.744 24.598 213.268 24.598C212.662 24.598 212.125 24.472 211.658 24.22C211.192 23.9587 210.823 23.5807 210.552 23.086C210.291 22.582 210.16 21.9847 210.16 21.294V16.744H212.12V21.014C212.12 21.63 212.274 22.106 212.582 22.442C212.89 22.7687 213.31 22.932 213.842 22.932C214.384 22.932 214.808 22.7687 215.116 22.442C215.424 22.106 215.578 21.63 215.578 21.014V16.744H217.552ZM226.941 16.744L222.139 28.168H220.053L221.733 24.304L218.625 16.744H220.823L222.825 22.162L224.855 16.744H226.941ZM233.255 14.504C233.441 14.308 233.605 14.1073 233.745 13.902C233.894 13.6873 234.043 13.4307 234.193 13.132H235.845V13.272C235.639 13.5427 235.397 13.7993 235.117 14.042C234.837 14.2753 234.561 14.49 234.291 14.686H233.255V14.504ZM232.751 16.016C232.517 15.8573 232.279 15.6847 232.037 15.498C231.794 15.302 231.551 15.0967 231.309 14.882C231.066 15.0967 230.823 15.302 230.581 15.498C230.338 15.6847 230.1 15.8573 229.867 16.016H228.761V15.834C228.994 15.5633 229.241 15.2553 229.503 14.91C229.773 14.5647 230.016 14.2333 230.231 13.916H232.387C232.601 14.2333 232.839 14.5647 233.101 14.91C233.371 15.2553 233.623 15.5633 233.857 15.834V16.016H232.751ZM231.309 16.716C232.363 16.716 233.199 17.0193 233.815 17.626C234.431 18.2233 234.739 19.0773 234.739 20.188V21.196H229.811C229.829 21.784 230.002 22.246 230.329 22.582C230.665 22.918 231.127 23.086 231.715 23.086C232.209 23.086 232.657 23.0393 233.059 22.946C233.46 22.8433 233.875 22.6893 234.305 22.484V24.094C233.931 24.2807 233.535 24.416 233.115 24.5C232.704 24.5933 232.205 24.64 231.617 24.64C230.851 24.64 230.175 24.5 229.587 24.22C228.999 23.9307 228.537 23.4967 228.201 22.918C227.865 22.3393 227.697 21.6113 227.697 20.734C227.697 19.838 227.846 19.096 228.145 18.508C228.453 17.9107 228.877 17.4627 229.419 17.164C229.96 16.8653 230.59 16.716 231.309 16.716ZM231.323 18.2C230.921 18.2 230.585 18.3307 230.315 18.592C230.053 18.8533 229.899 19.2593 229.853 19.81H232.779C232.769 19.3433 232.648 18.9607 232.415 18.662C232.181 18.354 231.817 18.2 231.323 18.2ZM240.637 16.632C241.561 16.632 242.308 16.926 242.877 17.514C243.447 18.0927 243.731 18.9047 243.731 19.95V24.5H241.771V20.216C241.771 19.6 241.617 19.1287 241.309 18.802C241.001 18.466 240.581 18.298 240.049 18.298C239.508 18.298 239.079 18.466 238.761 18.802C238.453 19.1287 238.299 19.6 238.299 20.216V24.5H236.339V16.744H238.299V17.71C238.561 17.374 238.892 17.1127 239.293 16.926C239.704 16.73 240.152 16.632 240.637 16.632ZM258.633 16.632C259.585 16.632 260.35 16.926 260.929 17.514C261.517 18.0927 261.811 18.9047 261.811 19.95V24.5H259.851V20.216C259.851 19.6093 259.697 19.1473 259.389 18.83C259.081 18.5033 258.661 18.34 258.129 18.34C257.597 18.34 257.172 18.5033 256.855 18.83C256.547 19.1473 256.393 19.6093 256.393 20.216V24.5H254.433V20.216C254.433 19.6093 254.279 19.1473 253.971 18.83C253.663 18.5033 253.243 18.34 252.711 18.34C252.17 18.34 251.74 18.5033 251.423 18.83C251.115 19.1473 250.961 19.6093 250.961 20.216V24.5H249.001V16.744H250.961V17.682C251.213 17.3553 251.535 17.0987 251.927 16.912C252.328 16.7253 252.767 16.632 253.243 16.632C253.85 16.632 254.391 16.7627 254.867 17.024C255.343 17.276 255.712 17.64 255.973 18.116C256.225 17.668 256.589 17.3087 257.065 17.038C257.55 16.7673 258.073 16.632 258.633 16.632ZM263.202 20.594C263.202 19.81 263.356 19.1147 263.664 18.508C263.981 17.9013 264.406 17.4347 264.938 17.108C265.479 16.7813 266.081 16.618 266.744 16.618C267.323 16.618 267.827 16.7347 268.256 16.968C268.695 17.2013 269.045 17.4953 269.306 17.85V16.744H271.28V24.5H269.306V23.366C269.054 23.73 268.704 24.0333 268.256 24.276C267.817 24.5093 267.309 24.626 266.73 24.626C266.077 24.626 265.479 24.458 264.938 24.122C264.406 23.786 263.981 23.3147 263.664 22.708C263.356 22.092 263.202 21.3873 263.202 20.594ZM269.306 20.622C269.306 20.146 269.213 19.74 269.026 19.404C268.839 19.0587 268.587 18.7973 268.27 18.62C267.953 18.4333 267.612 18.34 267.248 18.34C266.884 18.34 266.548 18.4287 266.24 18.606C265.932 18.7833 265.68 19.0447 265.484 19.39C265.297 19.726 265.204 20.1273 265.204 20.594C265.204 21.0607 265.297 21.4713 265.484 21.826C265.68 22.1713 265.932 22.4373 266.24 22.624C266.557 22.8107 266.893 22.904 267.248 22.904C267.612 22.904 267.953 22.8153 268.27 22.638C268.587 22.4513 268.839 22.19 269.026 21.854C269.213 21.5087 269.306 21.098 269.306 20.622ZM264.994 16.002C265.078 15.386 265.269 14.9287 265.568 14.63C265.876 14.322 266.263 14.168 266.73 14.168C266.926 14.168 267.099 14.2007 267.248 14.266C267.397 14.322 267.565 14.406 267.752 14.518C268.032 14.6953 268.265 14.784 268.452 14.784C268.797 14.784 268.998 14.5833 269.054 14.182H270.104C270.02 14.798 269.824 15.26 269.516 15.568C269.217 15.8667 268.835 16.016 268.368 16.016C268.172 16.016 267.999 15.988 267.85 15.932C267.701 15.8667 267.533 15.778 267.346 15.666C267.075 15.4793 266.842 15.386 266.646 15.386C266.301 15.386 266.095 15.5913 266.03 16.002H264.994ZM274.223 15.82C273.878 15.82 273.589 15.7127 273.355 15.498C273.131 15.274 273.019 14.9987 273.019 14.672C273.019 14.3453 273.131 14.0747 273.355 13.86C273.589 13.636 273.878 13.524 274.223 13.524C274.569 13.524 274.853 13.636 275.077 13.86C275.311 14.0747 275.427 14.3453 275.427 14.672C275.427 14.9987 275.311 15.274 275.077 15.498C274.853 15.7127 274.569 15.82 274.223 15.82ZM275.189 16.744V24.5H273.229V16.744H275.189Z" fill="#FF7D01"/>
<rect x="6" y="39" width="288" height="1" fill="#FF7D01"/>
<path fill-rule="evenodd" clip-rule="evenodd" d="M294.135 39.8389L293.475 39.0244L298.01 36.5933L294.083 33.8567L298.083 31.0693L294.083 28.2818L298.083 25.4944L294.083 22.7069L298.083 19.9194L294.083 17.132L298.083 14.3445L294.083 11.5571L298.083 8.76962L294.083 5.98217L298.01 3.24563L293.475 0.814507L294.135 0L300 3.14379L295.927 5.98217L299.927 8.76962L295.927 11.5571L299.927 14.3445L295.927 17.132L299.927 19.9194L295.927 22.7069L299.927 25.4944L295.927 28.2818L299.927 31.0693L295.927 33.8567L300 36.6951L294.135 39.8389Z" fill="#FF7D01"/>
</svg>
