<?xml version="1.0" standalone="no"?>
<!DOCTYPE svg PUBLIC "-//W3C//DTD SVG 1.1//EN" "http://www.w3.org/Graphics/SVG/1.1/DTD/svg11.dtd" >
<svg xmlns="http://www.w3.org/2000/svg" xmlns:xlink="http://www.w3.org/1999/xlink" version="1.1">
<metadata>
Created by FontForge 20170731 at Wed Nov 20 03:40:39 2019
 By Aleksey,,,
Copyright (c) 2019 by Colophon Foundry. All rights reserved.
</metadata>
<defs>
<font id="VN-ChickenSans-ExtraLight" horiz-adv-x="564" >
  <font-face 
    font-family="VN-Chicken Sans ExtraLight"
    font-weight="200"
    font-stretch="normal"
    units-per-em="1000"
    panose-1="0 0 0 0 0 0 0 0 0 0"
    ascent="800"
    descent="-200"
    x-height="515"
    cap-height="700"
    bbox="-476 -195 1070 1037"
    underline-thickness="50"
    underline-position="-150"
    unicode-range="U+000D-25CA"
  />
<missing-glyph horiz-adv-x="620" 
d="M90 700h440v-700h-440v700zM482 44v612h-344v-612h344z" />
    <glyph glyph-name=".notdef" horiz-adv-x="620" 
d="M90 700h440v-700h-440v700zM482 44v612h-344v-612h344z" />
    <glyph glyph-name=".null" horiz-adv-x="0" 
 />
    <glyph glyph-name="nonmarkingreturn" unicode="&#xd;" horiz-adv-x="225" 
 />
    <glyph glyph-name="NULL" horiz-adv-x="0" 
 />
    <glyph glyph-name="NULL" horiz-adv-x="0" 
 />
    <glyph glyph-name="space" unicode=" " horiz-adv-x="225" 
 />
    <glyph glyph-name="exclam" unicode="!" horiz-adv-x="228" 
d="M90 306v394h48v-394l-6 -116h-36zM114 -5q-17 0 -27.5 10t-10.5 26t10.5 26t27.5 10t27.5 -10t10.5 -26t-10.5 -26t-27.5 -10z" />
    <glyph glyph-name="quotedbl" unicode="&#x22;" horiz-adv-x="318" 
d="M62 625v75h46v-75l-10 -101h-26zM210 625v75h46v-75l-10 -101h-26z" />
    <glyph glyph-name="numbersign" unicode="#" horiz-adv-x="739" 
d="M565 453l-59 -206h143v-44h-156l-58 -203h-48l58 203h-236l-58 -203h-48l58 203h-113v44h126l59 206h-143v44h156l58 203h48l-58 -203h236l58 203h48l-58 -203h113v-44h-126zM517 453h-236l-59 -206h236z" />
    <glyph glyph-name="dollar" unicode="$" horiz-adv-x="568" 
d="M516 179q0 -45 -16.5 -79.5t-45 -58.5t-67 -37t-83.5 -14v-90h-48v92q-50 6 -88 24.5t-64.5 44.5t-42 57.5t-21.5 63.5l43 17q20 -75 72 -119t141 -44q37 0 68.5 9t54 27t35 45t12.5 64q0 29 -11 51t-29 38.5t-42 28t-51 19.5l-106 32q-77 23 -116.5 68t-39.5 117
q0 36 13 66.5t37.5 53t58.5 37t76 17.5v91h48v-91q74 -6 123 -48.5t66 -118.5l-42 -18q-9 40 -27 67t-41.5 43t-50 23t-51.5 7q-78 0 -119 -36t-41 -93q0 -51 29.5 -87t99.5 -57l106 -31q36 -11 65.5 -26t50.5 -37t32.5 -51t11.5 -67z" />
    <glyph glyph-name="percent" unicode="%" horiz-adv-x="740" 
d="M177 395q-32 0 -58.5 11t-46.5 31.5t-31 49t-11 63.5t11 63.5t31 49t46.5 31.5t58.5 11q31 0 58 -11t47 -31.5t31 -49t11 -63.5t-11 -63.5t-31 -49t-47 -31.5t-58 -11zM94 43l521 638l29 -24l-521 -638zM177 434q48 0 77.5 30t29.5 86t-29.5 86t-77.5 30t-77.5 -30
t-29.5 -86t29.5 -86t77.5 -30zM563 -5q-32 0 -58.5 11t-46.5 31.5t-31 49t-11 63.5t11 63.5t31 49t46.5 31.5t58.5 11q31 0 58 -11t47 -31.5t31 -49t11 -63.5t-11 -63.5t-31 -49t-47 -31.5t-58 -11zM563 34q48 0 77.5 30t29.5 86t-29.5 86t-77.5 30t-77.5 -30t-29.5 -86
t29.5 -86t77.5 -30z" />
    <glyph glyph-name="ampersand" unicode="&#x26;" horiz-adv-x="600" 
d="M524 0l-77 88q-39 -46 -91 -72t-115 -26q-46 0 -83 14t-63.5 39.5t-41 61t-14.5 77.5q0 70 36 123t105 95q-25 34 -41 70.5t-16 81.5q0 37 12.5 66.5t33.5 50t49 31t60 10.5q139 0 159 -165l-42 -18q-6 42 -17 68.5t-26.5 41.5t-34 21t-39.5 6q-46 0 -75.5 -28.5
t-29.5 -85.5q0 -48 26 -91t65 -88l181 -208q21 36 35 79.5t19 90.5l45 -10q-15 -113 -68 -196l110 -127h-62zM244 37q55 0 98 23t75 63l-195 225l-13 15q-64 -38 -92 -80t-28 -101q0 -36 12 -63t32.5 -45t49 -27.5t61.5 -9.5z" />
    <glyph glyph-name="quotesingle" unicode="'" horiz-adv-x="170" 
d="M62 625v75h46v-75l-10 -101h-26z" />
    <glyph glyph-name="parenleft" unicode="(" horiz-adv-x="403" 
d="M326 -195q-46 40 -85.5 88.5t-69 106.5t-46.5 125.5t-17 144.5t17 144.5t46.5 125.5t69 106.5t85.5 88.5l25 -26q-46 -50 -82 -98t-60.5 -100t-37 -110.5t-12.5 -130.5t12.5 -130.5t37 -110.5t60.5 -100t82 -98l-25 -26v0z" />
    <glyph glyph-name="parenright" unicode=")" horiz-adv-x="403" 
d="M52 -169q46 50 82 98t60.5 100t37 110.5t12.5 130.5t-12.5 130.5t-37 110.5t-60.5 100t-82 98l25 26q46 -40 85.5 -88.5t69 -106.5t46.5 -125.5t17 -144.5t-17 -144.5t-46.5 -125.5t-69 -106.5t-85.5 -88.5z" />
    <glyph glyph-name="asterisk" unicode="*" horiz-adv-x="382" 
d="M217 572l78 -96l-37 -27l-67 103l-67 -103l-37 27l78 96l-119 31l14 44l115 -45l-7 123h46l-7 -123l115 45l14 -44z" />
    <glyph glyph-name="plus" unicode="+" horiz-adv-x="508" 
d="M446 312h-170v-170h-44v170h-170v44h170v170h44v-170h170v-44z" />
    <glyph glyph-name="comma" unicode="," horiz-adv-x="200" 
d="M54 -81q29 17 46 37t19 51q-8 -12 -25 -12q-13 0 -23.5 9t-10.5 26t11.5 27.5t30.5 10.5q22 0 35 -13.5t13 -37.5q0 -44 -23 -71.5t-57 -48.5z" />
    <glyph glyph-name="hyphen" unicode="-" horiz-adv-x="449" 
d="M62 330h325v-44h-325v44z" />
    <glyph glyph-name="period" unicode="." horiz-adv-x="200" 
d="M100 -5q-17 0 -27.5 10t-10.5 26t10.5 26t27.5 10t27.5 -10t10.5 -26t-10.5 -26t-27.5 -10z" />
    <glyph glyph-name="slash" unicode="/" horiz-adv-x="421" 
d="M341 700h48l-309 -700h-48z" />
    <glyph glyph-name="zero" unicode="0" horiz-adv-x="641" 
d="M321 -10q-56 0 -103.5 21.5t-82.5 66t-55 112t-20 160.5q0 92 20 160t55 112.5t82.5 66t103.5 21.5q55 0 103 -21.5t82.5 -66t54.5 -112.5t20 -160q0 -93 -20 -160.5t-54.5 -112t-82.5 -66t-103 -21.5zM321 36q42 0 80.5 18t67 56t45.5 97.5t17 142.5t-17 142.5
t-45.5 97.5t-67 56t-80.5 18q-43 0 -81 -18t-67 -56t-46 -97.5t-17 -142.5t17 -142.5t46 -97.5t67 -56t81 -18z" />
    <glyph glyph-name="one" unicode="1" horiz-adv-x="282" 
d="M144 642l-116 -57v46l133 69h31v-700h-48v642z" />
    <glyph glyph-name="two" unicode="2" horiz-adv-x="535" 
d="M52 43l173 195q31 34 63.5 71t59.5 74t44 74t17 73q0 63 -35.5 98.5t-104.5 35.5q-32 0 -60 -11t-50 -33.5t-36 -58t-18 -84.5l-42 18q3 48 18.5 88t42 68t63.5 43.5t82 15.5q86 0 138 -47.5t52 -132.5q0 -35 -12.5 -68t-35 -67.5t-54 -72.5t-69.5 -81l-173 -197h370v-44
h-433v43z" />
    <glyph glyph-name="three" unicode="3" horiz-adv-x="534" 
d="M259 -10q-79 0 -142 38t-95 123l43 17q16 -38 37.5 -63.5t46.5 -40.5t53 -21.5t57 -6.5q37 0 68.5 11.5t54.5 32.5t35.5 50t12.5 65q0 33 -9.5 60t-32.5 46.5t-62.5 30.5t-100.5 11h-49v44h49q88 0 133 39.5t45 105.5q0 30 -11.5 54.5t-32 42t-48 26.5t-59.5 9
q-61 0 -102 -29t-63 -92l-42 18q24 73 79.5 110.5t127.5 37.5q45 0 81.5 -12.5t63 -36t40.5 -56t14 -72.5q0 -36 -11.5 -63t-29.5 -47t-40.5 -33t-44.5 -20q28 -4 55.5 -15.5t49.5 -32.5t35 -52t13 -74q0 -45 -16.5 -83t-46 -65t-69.5 -42t-87 -15z" />
    <glyph glyph-name="four" unicode="4" horiz-adv-x="570" 
d="M530 169h-109v-169h-48v169h-331v44l331 487h48v-487h109v-44zM373 213v409l-278 -409h278z" />
    <glyph glyph-name="five" unicode="5" horiz-adv-x="544" 
d="M275 -10q-80 0 -141 41t-86 126l43 17q12 -38 31.5 -64.5t43.5 -43t51.5 -23.5t57.5 -7q37 0 68.5 13t53.5 37.5t34.5 59.5t12.5 79q0 90 -45 138t-120 48q-31 0 -55.5 -5.5t-45 -15.5t-37.5 -25t-34 -34l-46 13l17 356h384v-44h-341l-14 -286q26 37 71 62t104 25
q46 0 85 -14.5t67 -43.5t44 -72.5t16 -101.5q0 -54 -16.5 -97.5t-46 -74t-69.5 -47t-87 -16.5z" />
    <glyph glyph-name="six" unicode="6" horiz-adv-x="585" 
d="M306 -10q-56 0 -101.5 21t-77.5 61.5t-49.5 101t-17.5 138.5q0 103 19.5 178.5t53 124t78.5 72t95 23.5q74 0 126.5 -37.5t76.5 -130.5l-45 -10q-12 39 -27.5 64.5t-35 40.5t-43.5 21t-52 6q-61 0 -101 -36.5t-63 -94.5t-30 -130t-2 -142q6 42 24 76.5t46 59t64 38
t78 13.5q43 0 81 -14t66 -42t44 -70.5t16 -99.5q0 -47 -16.5 -89t-45.5 -74t-70.5 -50.5t-90.5 -18.5zM306 36q37 0 69 13t55 37.5t36 59t13 76.5q0 47 -12.5 81t-35 55.5t-54 32t-68.5 10.5q-34 0 -66 -12.5t-57.5 -37t-41 -61.5t-15.5 -85q0 -40 14.5 -71.5t38.5 -53
t56 -33t68 -11.5z" />
    <glyph glyph-name="seven" unicode="7" horiz-adv-x="466" 
d="M376 657h-344v43h390v-42l-250 -658h-48z" />
    <glyph glyph-name="eight" unicode="8" horiz-adv-x="574" 
d="M287 -10q-54 0 -96.5 14.5t-72.5 40.5t-46 62.5t-16 80.5q0 67 35.5 114.5t92.5 64.5q-46 20 -75.5 60.5t-29.5 97.5q0 42 14.5 76t41.5 58t65.5 37.5t86.5 13.5t86.5 -13.5t65.5 -37.5t41.5 -58t14.5 -76q0 -57 -29.5 -97.5t-75.5 -60.5q57 -17 92.5 -64.5t35.5 -114.5
q0 -44 -16 -80.5t-46 -62.5t-72.5 -40.5t-96.5 -14.5zM287 384q42 0 72 11.5t49.5 31t29 45t9.5 53.5t-9.5 53.5t-29 45t-49.5 31t-72 11.5t-72 -11.5t-49.5 -31t-29 -45t-9.5 -53.5t9.5 -53.5t29 -45t49.5 -31t72 -11.5zM287 34q48 0 82.5 13t57 34.5t33 49t10.5 57.5
q0 31 -11.5 59t-34.5 49t-57 33.5t-80 12.5t-80 -12.5t-57 -33.5t-34.5 -49t-11.5 -59q0 -30 10.5 -57.5t33 -49t57 -34.5t82.5 -13z" />
    <glyph glyph-name="nine" unicode="9" horiz-adv-x="585" 
d="M279 -10q-74 0 -126.5 37.5t-76.5 130.5l45 10q12 -39 27.5 -64.5t35 -40.5t43 -21t52.5 -6q61 0 101 36.5t63 94.5t30 129.5t2 142.5q-6 -42 -24 -76.5t-46 -59t-64 -38t-78 -13.5q-44 0 -81.5 14t-65.5 42t-44 70.5t-16 99.5q0 47 16.5 89t45.5 74t70 50.5t91 18.5
q56 0 101.5 -21t77.5 -61.5t49.5 -101t17.5 -138.5q0 -104 -19.5 -179t-53 -123.5t-78.5 -72t-95 -23.5zM276 299q34 0 66 12.5t57.5 37t41 61.5t15.5 85q0 40 -14.5 71.5t-38.5 53t-56 33t-68 11.5q-38 0 -69.5 -13t-54.5 -37.5t-36 -59t-13 -76.5q0 -47 12.5 -81t35 -55.5
t54 -32t68.5 -10.5z" />
    <glyph glyph-name="colon" unicode=":" horiz-adv-x="200" 
d="M100 448q-17 0 -27.5 10t-10.5 26t10.5 26t27.5 10t27.5 -10t10.5 -26t-10.5 -26t-27.5 -10zM100 -5q-17 0 -27.5 10t-10.5 26t10.5 26t27.5 10t27.5 -10t10.5 -26t-10.5 -26t-27.5 -10z" />
    <glyph glyph-name="semicolon" unicode=";" horiz-adv-x="200" 
d="M100 448q-17 0 -27.5 10t-10.5 26t10.5 26t27.5 10t27.5 -10t10.5 -26t-10.5 -26t-27.5 -10zM54 -81q29 17 46 37t19 51q-8 -12 -25 -12q-13 0 -23.5 9t-10.5 26t11.5 27.5t30.5 10.5q22 0 35 -13.5t13 -37.5q0 -44 -23 -71.5t-57 -48.5z" />
    <glyph glyph-name="less" unicode="&#x3c;" horiz-adv-x="465" 
d="M52 314v40l351 253v-58l-299 -215l299 -215v-58z" />
    <glyph glyph-name="equal" unicode="=" horiz-adv-x="508" 
d="M62 465h384v-44h-384v44zM62 246h384v-44h-384v44z" />
    <glyph glyph-name="greater" unicode="&#x3e;" horiz-adv-x="465" 
d="M62 119l299 215l-299 215v58l351 -253v-40l-351 -253v58z" />
    <glyph glyph-name="question" unicode="?" horiz-adv-x="462" 
d="M289 165q-60 11 -93.5 41.5t-33.5 80.5q0 44 23 71t55 49l58 39q35 23 51.5 49t16.5 62q0 43 -31 75t-94 32q-29 0 -55 -7t-47.5 -23t-37.5 -43t-25 -67l-42 18q19 82 73 125t134 43q40 0 72.5 -11.5t55 -32t35 -48.5t12.5 -61q0 -49 -24.5 -83t-63.5 -60l-58 -39
q-30 -20 -44.5 -38.5t-14.5 -49.5q0 -61 92 -79zM235 -5q-17 0 -27.5 10t-10.5 26t10.5 26t27.5 10t27.5 -10t10.5 -26t-10.5 -26t-27.5 -10z" />
    <glyph glyph-name="at" unicode="@" horiz-adv-x="880" 
d="M430 -174q-76 0 -143 24.5t-117 72.5t-79 120t-29 167q0 96 29 168t80 120t120 72t149 24t149 -22.5t120 -68.5t80 -116.5t29 -166.5q0 -109 -37 -171t-101 -62q-45 0 -71 24.5t-33 69.5q-23 -45 -63 -69.5t-94 -24.5q-36 0 -67 14.5t-54.5 42t-37 67t-13.5 89.5
t13.5 89.5t38 67.5t57.5 42.5t72 14.5q52 0 87 -21t56 -68l8 79h39v-272q0 -56 14.5 -78.5t47.5 -22.5q18 0 35 11t29.5 34t20 58.5t7.5 85.5q0 81 -23.5 143t-67 103.5t-105 62.5t-136.5 21t-136.5 -22.5t-105 -66t-67 -107t-23.5 -144.5t23.5 -144.5t66 -107t101.5 -66
t131 -22.5q52 0 93 11t74 31l19 -40q-39 -23 -84.5 -34.5t-101.5 -11.5zM428 33q41 0 68 15t43.5 39t23.5 54t7 59q0 78 -32.5 123t-107.5 45q-33 0 -57.5 -13t-41.5 -35.5t-25.5 -53t-8.5 -66.5q0 -35 8.5 -65.5t25 -53t41 -35.5t56.5 -13z" />
    <glyph glyph-name="A" unicode="A" horiz-adv-x="616" 
d="M468 200h-320l-73 -200h-50l258 700h50l258 -700h-50zM452 244l-144 398l-144 -398h288z" />
    <glyph glyph-name="B" unicode="B" horiz-adv-x="618" 
d="M415 374q28 -4 54.5 -15.5t46.5 -33t32 -53.5t12 -78q0 -95 -60.5 -144.5t-186.5 -49.5h-223v700h186q125 0 181 -45.5t56 -127.5q0 -30 -8 -55t-21.5 -44.5t-31.5 -33t-37 -20.5zM138 656v-266h169q158 0 158 137q0 58 -45 93.5t-144 35.5h-138zM313 44q56 0 94 10.5
t61.5 30t33.5 47.5t10 62q0 39 -10.5 68t-35 47.5t-63.5 27.5t-96 9h-169v-302h175z" />
    <glyph glyph-name="C" unicode="C" horiz-adv-x="655" 
d="M353 -10q-59 0 -112.5 23t-94 68t-64.5 112.5t-24 156.5q0 88 24 155.5t64.5 113t94 68.5t112.5 23q213 0 240 -232l-45 -10q-12 100 -60.5 148t-134.5 48q-46 0 -90 -19.5t-78.5 -58.5t-55.5 -98t-21 -138q0 -80 21 -139t55.5 -98t78.5 -58t90 -19q84 0 141 42t87 138
l47 -11q-68 -215 -275 -215z" />
    <glyph glyph-name="D" unicode="D" horiz-adv-x="661" 
d="M266 700q171 0 254 -84.5t83 -265.5t-83 -265.5t-254 -84.5h-176v700h176zM266 44q146 0 217.5 73.5t71.5 232.5t-71.5 232.5t-217.5 73.5h-128v-612h128z" />
    <glyph glyph-name="E" unicode="E" horiz-adv-x="568" 
d="M90 700h429v-44h-381v-271h352v-44h-352v-297h386v-44h-434v700z" />
    <glyph glyph-name="F" unicode="F" horiz-adv-x="557" 
d="M138 656v-281h352v-44h-352v-331h-48v700h429v-44h-381z" />
    <glyph glyph-name="G" unicode="G" horiz-adv-x="680" 
d="M604 343v-343h-38l-9 126q-9 -31 -29 -56t-47.5 -43t-61.5 -27.5t-71 -9.5q-62 0 -115 23t-92 68t-61 112.5t-22 156.5q0 88 22 155.5t60.5 113t91 68.5t113.5 23q108 0 166 -54.5t72 -167.5l-45 -10q-12 95 -56.5 140.5t-136.5 45.5q-48 0 -91 -19.5t-75.5 -58.5
t-51.5 -98t-19 -138q0 -80 19 -139t52 -98t76.5 -58t92.5 -19q47 0 85.5 11.5t65.5 37t42 67t15 101.5v50h-174v40h222z" />
    <glyph glyph-name="H" unicode="H" horiz-adv-x="690" 
d="M90 700h48v-314h414v314h48v-700h-48v342h-414v-342h-48v700z" />
    <glyph glyph-name="I" unicode="I" horiz-adv-x="228" 
d="M90 700h48v-700h-48v700z" />
    <glyph glyph-name="J" unicode="J" horiz-adv-x="515" 
d="M238 -10q-43 0 -78.5 12.5t-61 38.5t-39.5 65t-14 92l43 10q2 -91 40.5 -131.5t109.5 -40.5q34 0 61 11.5t45.5 37t28 67t9.5 102.5v446h48l-1 -454q0 -69 -13.5 -118t-38 -79.5t-60 -44.5t-79.5 -14z" />
    <glyph glyph-name="K" unicode="K" horiz-adv-x="576" 
d="M276 394l-138 -170v-224h-48v700h48v-405l328 405h60l-217 -267l247 -433h-54z" />
    <glyph glyph-name="L" unicode="L" horiz-adv-x="541" 
d="M90 700h48v-656h371v-44h-419v700z" />
    <glyph glyph-name="M" unicode="M" horiz-adv-x="838" 
d="M90 700h69l260 -549l260 549h69v-700h-48v639l-255 -538h-52l-255 538v-639h-48v700z" />
    <glyph glyph-name="N" unicode="N" horiz-adv-x="700" 
d="M90 700h60l412 -632v632h48v-700h-60l-412 632v-632h-48v700z" />
    <glyph glyph-name="O" unicode="O" horiz-adv-x="741" 
d="M371 -10q-65 0 -122 23t-99.5 68t-67 112.5t-24.5 156.5q0 88 24.5 155.5t67 113t99.5 68.5t122 23t122 -23t99 -68.5t66.5 -113t24.5 -155.5q0 -89 -24.5 -156.5t-66.5 -112.5t-99 -68t-122 -23zM371 36q52 0 99.5 19t83.5 58t57.5 98t21.5 139q0 79 -21.5 138t-57.5 98
t-83.5 58.5t-99.5 19.5q-53 0 -100.5 -19.5t-83.5 -58.5t-57.5 -98t-21.5 -138q0 -80 21.5 -139t57.5 -98t83.5 -58t100.5 -19z" />
    <glyph glyph-name="P" unicode="P" horiz-adv-x="578" 
d="M321 700q53 0 95 -11t71.5 -35t45 -61t15.5 -89q0 -104 -60.5 -150t-166.5 -46h-183v-308h-48v700h231zM321 352q89 0 134 36.5t45 115.5t-45 115.5t-134 36.5h-183v-304h183z" />
    <glyph glyph-name="Q" unicode="Q" horiz-adv-x="741" 
d="M683 350q0 -84 -21.5 -148.5t-59.5 -109.5t-89.5 -70.5t-111.5 -30.5q16 -45 58.5 -71t97.5 -38l-19 -41q-32 8 -61 21t-53 31t-41.5 42t-26.5 55q-63 3 -117 27t-94.5 69.5t-63.5 111.5t-23 152q0 88 24.5 155.5t67 113t99.5 68.5t122 23t122 -23t99 -68.5t66.5 -113
t24.5 -155.5zM371 36q52 0 99.5 19t83.5 58t57.5 98t21.5 139q0 79 -21.5 138t-57.5 98t-83.5 58.5t-99.5 19.5q-53 0 -100.5 -19.5t-83.5 -58.5t-57.5 -98t-21.5 -138q0 -80 21.5 -139t57.5 -98t83.5 -58t100.5 -19z" />
    <glyph glyph-name="R" unicode="R" horiz-adv-x="587" 
d="M495 0l-128 331q-27 -3 -56 -3h-173v-328h-48v700h221q53 0 95 -9.5t71.5 -31.5t45 -57.5t15.5 -87.5q0 -76 -32.5 -117t-92.5 -58l132 -339h-50zM311 372q89 0 134 31.5t45 110.5t-45 110.5t-134 31.5h-173v-284h173z" />
    <glyph glyph-name="S" unicode="S" 
d="M296 -10q-60 0 -105 17t-76.5 44.5t-49.5 61.5t-25 69l43 17q20 -75 72 -119t141 -44q37 0 68.5 9t54 27t35 45t12.5 64q0 29 -11 51t-29 38.5t-42 28t-51 19.5l-106 32q-77 23 -116.5 68t-39.5 117q0 39 15 71t42.5 55t66.5 36t86 13q84 0 138.5 -43t73.5 -125l-42 -18
q-9 40 -27 67t-41.5 43t-50 23t-51.5 7q-78 0 -119 -36t-41 -93q0 -51 29.5 -87t99.5 -57l106 -31q36 -11 65.5 -26t50.5 -37t32.5 -51t11.5 -67q0 -46 -17 -81t-47 -59t-70 -36.5t-86 -12.5z" />
    <glyph glyph-name="T" unicode="T" horiz-adv-x="531" 
d="M506 656h-217v-656h-48v656h-216v44h481v-44z" />
    <glyph glyph-name="U" unicode="U" horiz-adv-x="686" 
d="M343 -10q-64 0 -112 16.5t-80.5 55t-49 100.5t-16.5 153v385h48v-385q0 -78 13 -131.5t39 -86t65.5 -47t92.5 -14.5q52 0 91 14.5t65.5 47t40 86t13.5 131.5v385h48l-1 -385q0 -91 -17 -153t-49.5 -100.5t-80 -55t-110.5 -16.5z" />
    <glyph glyph-name="V" unicode="V" horiz-adv-x="604" 
d="M25 700h52l225 -638l225 638h52l-251 -700h-52z" />
    <glyph glyph-name="W" unicode="W" horiz-adv-x="918" 
d="M30 700h51l176 -638l174 638h56l174 -638l176 638h51l-201 -700h-53l-175 635l-175 -635h-53z" />
    <glyph glyph-name="X" unicode="X" horiz-adv-x="568" 
d="M251 357l-219 343h56l196 -308l196 308h56l-219 -343l229 -357h-56l-206 324l-206 -324h-56z" />
    <glyph glyph-name="Y" unicode="Y" horiz-adv-x="554" 
d="M301 250v-250h-48v250l-233 450h53l204 -400l204 400h53z" />
    <glyph glyph-name="Z" unicode="Z" horiz-adv-x="529" 
d="M44 42l385 615h-363v43h415v-42l-385 -615h389v-43h-441v42z" />
    <glyph glyph-name="bracketleft" unicode="[" horiz-adv-x="401" 
d="M90 700h273v-44h-225v-777h225v-44h-273v865z" />
    <glyph glyph-name="backslash" unicode="\" horiz-adv-x="421" 
d="M341 0l-309 700h48l309 -700h-48z" />
    <glyph glyph-name="bracketright" unicode="]" horiz-adv-x="401" 
d="M38 -165v44h225v777h-225v44h273v-865h-273z" />
    <glyph glyph-name="asciicircum" unicode="^" horiz-adv-x="408" 
d="M179 700h50l141 -199h-50l-116 159l-116 -159h-50z" />
    <glyph glyph-name="underscore" unicode="_" horiz-adv-x="485" 
d="M0 -65h485v-44h-485v44z" />
    <glyph glyph-name="grave" unicode="`" horiz-adv-x="183" 
d="M24 700h62l63 -119h-42z" />
    <glyph glyph-name="a" unicode="a" horiz-adv-x="510" 
d="M256 525q40 0 73 -9.5t57 -31.5t37 -58.5t13 -89.5v-336h-36l-11 97q-27 -54 -75 -80.5t-108 -26.5q-34 0 -62.5 9.5t-49.5 28.5t-32.5 45.5t-11.5 61.5q0 45 19 76.5t52.5 52t79.5 29.5t100 9q20 0 43 -1t44 -3v30q0 43 -7.5 72t-23.5 46.5t-41 25t-60 7.5
q-41 0 -79 -21.5t-57 -76.5l-40 23q13 34 33.5 57t44.5 37.5t49 20.5t49 6zM213 36q35 0 66.5 8t55.5 29.5t38.5 58.5t14.5 95v26q-29 2 -52.5 3.5t-49.5 1.5q-85 0 -135.5 -28.5t-50.5 -88.5q0 -27 9 -47t24.5 -33t36 -19t43.5 -6z" />
    <glyph glyph-name="b" unicode="b" horiz-adv-x="577" 
d="M316 -10q-34 0 -64 9.5t-55 26.5t-43.5 39.5t-28.5 49.5l-8 -115h-37v700h48v-293q25 60 75 89t113 29q43 0 81 -17t65.5 -50.5t43.5 -84t16 -116.5t-16 -116t-43.5 -83.5t-65.5 -50.5t-81 -17zM303 36q85 0 127 58.5t42 162.5q0 106 -42 164t-127 58q-37 0 -69 -12.5
t-55.5 -39.5t-37 -69t-13.5 -101q0 -53 13.5 -94.5t37 -69.5t55.5 -42.5t69 -14.5z" />
    <glyph glyph-name="c" unicode="c" horiz-adv-x="501" 
d="M272 -10q-44 0 -84 16.5t-71 49.5t-49 83t-18 118t18 118.5t49 83.5t71 49.5t84 16.5q79 0 124.5 -37t56.5 -122l-45 -10q-8 63 -39 93t-97 30q-77 0 -124.5 -56.5t-47.5 -165.5q0 -107 47.5 -164t124.5 -57q69 0 107 30t56 87l46 -10q-26 -80 -80 -116.5t-129 -36.5z
" />
    <glyph glyph-name="d" unicode="d" horiz-adv-x="577" 
d="M261 -10q-44 0 -81.5 17t-65 50.5t-43.5 83.5t-16 116t16 116.5t43.5 84t65 50.5t81.5 17q63 0 113 -29t75 -89v293h48v-700h-37l-8 115q-11 -27 -29.5 -49.5t-43 -39.5t-54.5 -26.5t-64 -9.5zM274 36q37 0 69 14.5t55.5 42.5t37 69.5t13.5 94.5q0 59 -13.5 101t-37 69
t-55.5 39.5t-69 12.5q-85 0 -127 -58t-42 -164q0 -104 42 -162.5t127 -58.5z" />
    <glyph glyph-name="e" unicode="e" horiz-adv-x="533" 
d="M479 126q-27 -71 -81.5 -103.5t-120.5 -32.5q-45 0 -86 16.5t-72.5 49.5t-50 83t-18.5 118t18.5 118.5t50 83.5t71.5 49.5t84 16.5q46 0 83.5 -14t64 -41t41 -65.5t14.5 -86.5q0 -17 -1.5 -33.5t-4.5 -38.5h-372q3 -102 52 -156t126 -54q118 0 156 100zM274 479
q-71 0 -118.5 -48t-55.5 -141h329q1 12 1 16.5v10.5q0 77 -40.5 119.5t-115.5 42.5z" />
    <glyph glyph-name="f" unicode="f" horiz-adv-x="363" 
d="M262 666q-21 0 -39 -5.5t-31 -22t-20 -46t-5 -77.5h154v-44h-154v-471h-48v471h-97v44h97q-2 54 7.5 91.5t28.5 60.5t46.5 33t60.5 10q37 0 68.5 -13.5t52.5 -34.5l-22 -38q-21 20 -45.5 31t-53.5 11z" />
    <glyph glyph-name="g" unicode="g" horiz-adv-x="577" 
d="M285 -175q-36 0 -67 9t-56.5 23t-45.5 32.5t-34 36.5l37 30q26 -36 67 -60.5t99 -24.5q37 0 67.5 13t52 41t33 72t11.5 107v32q-25 -54 -71.5 -86t-115.5 -32q-44 0 -82 16.5t-66 49t-43.5 79.5t-15.5 108t15.5 108.5t43.5 79.5t66 49t82 17q62 0 113 -29.5t77 -95.5
l8 115h37v-391q0 -81 -15 -137.5t-42.5 -92.5t-66.5 -52.5t-88 -16.5zM274 64q40 0 72.5 15.5t55 43.5t35 66t12.5 82q0 54 -13.5 93t-36.5 64.5t-54.5 38t-67.5 12.5q-44 0 -76 -15t-53.5 -42t-32 -65.5t-10.5 -85.5q0 -93 42 -150t127 -57z" />
    <glyph glyph-name="h" unicode="h" 
d="M80 700h48v-312q15 65 63.5 101t122.5 36q40 0 73 -11t55.5 -37t35 -68.5t12.5 -105.5v-303h-48v279q0 60 -8 98.5t-25 61t-44 31t-65 8.5q-39 0 -71 -13t-54.5 -42t-34.5 -76.5t-12 -117.5v-229h-48v700z" />
    <glyph glyph-name="i" unicode="i" horiz-adv-x="208" 
d="M104 613q-17 0 -27.5 10t-10.5 26t10.5 26t27.5 10t27.5 -10t10.5 -26t-10.5 -26t-27.5 -10zM80 515h48v-515h-48v515z" />
    <glyph glyph-name="j" unicode="j" horiz-adv-x="208" 
d="M104 613q-17 0 -27.5 10t-10.5 26t10.5 26t27.5 10t27.5 -10t10.5 -26t-10.5 -26t-27.5 -10zM-7 -142q19 20 35 41t27.5 47t18 58t6.5 74v437h48v-419q0 -53 -6 -90t-19 -66.5t-34 -56t-51 -58.5z" />
    <glyph glyph-name="k" unicode="k" horiz-adv-x="475" 
d="M238 297l-110 -117v-180h-48v700h48v-457l255 272h62l-173 -183l191 -332h-52z" />
    <glyph glyph-name="l" unicode="l" horiz-adv-x="208" 
d="M80 700h48v-700h-48v700z" />
    <glyph glyph-name="m" unicode="m" horiz-adv-x="886" 
d="M80 515h37l8 -133q19 70 63 106.5t114 36.5q66 0 107.5 -35t53.5 -116q19 79 65 115t116 36q40 0 71.5 -12t53 -39.5t32.5 -72t11 -108.5v-293h-48v269q0 62 -8 102.5t-24.5 64t-41.5 33t-58 9.5q-35 0 -65 -11.5t-51.5 -41t-33.5 -79.5t-12 -127v-219h-48v269
q0 62 -8.5 102.5t-25 64t-41 33t-57.5 9.5q-38 0 -68 -13t-51 -43t-32 -80t-11 -123v-219h-48v515z" />
    <glyph glyph-name="n" unicode="n" 
d="M80 515h37l8 -133q19 70 67 106.5t122 36.5q40 0 73 -11t55.5 -37t35 -68.5t12.5 -105.5v-303h-48v279q0 60 -8 98.5t-25 61t-44 31t-65 8.5q-39 0 -71 -13t-54.5 -42t-34.5 -76.5t-12 -117.5v-229h-48v515z" />
    <glyph glyph-name="o" unicode="o" horiz-adv-x="560" 
d="M280 -10q-48 0 -89.5 16.5t-73 49.5t-49.5 83t-18 118t18 118.5t49.5 83.5t73 49.5t89.5 16.5t89.5 -16.5t73 -49.5t49.5 -83.5t18 -118.5t-18 -118t-49.5 -83t-73 -49.5t-89.5 -16.5zM280 36q84 0 132 57t48 164q0 109 -48 165.5t-132 56.5t-132 -56.5t-48 -165.5
q0 -107 48 -164t132 -57z" />
    <glyph glyph-name="p" unicode="p" horiz-adv-x="577" 
d="M80 515h37l8 -115q26 66 77.5 95.5t115.5 29.5q43 0 80 -17t64.5 -50.5t43.5 -84t16 -116.5t-16 -116t-43.5 -83.5t-65.5 -50.5t-82 -17q-69 0 -115.5 32t-71.5 86v-273h-48v680zM303 36q85 0 127 58.5t42 162.5q0 106 -42 164t-127 58q-37 0 -69 -12.5t-55.5 -39.5
t-37 -69t-13.5 -101q0 -50 12.5 -90.5t35 -69.5t55 -45t72.5 -16z" />
    <glyph glyph-name="q" unicode="q" horiz-adv-x="577" 
d="M449 108q-25 -54 -71.5 -86t-115.5 -32q-44 0 -82 17t-65.5 50.5t-43.5 83.5t-16 116t16 116.5t43.5 84t64.5 50.5t80 17q64 0 115.5 -29.5t77.5 -95.5l8 115h37v-680h-48v273zM274 36q40 0 72.5 16t55 45t35 69.5t12.5 90.5q0 59 -13.5 101t-37 69t-55.5 39.5t-69 12.5
q-85 0 -127 -58t-42 -164q0 -104 42 -162.5t127 -58.5z" />
    <glyph glyph-name="r" unicode="r" horiz-adv-x="413" 
d="M80 515h37l8 -133q19 75 60.5 109t96.5 34q36 0 67.5 -19.5t43.5 -69.5l-37 -23q-14 39 -35 52t-50 13q-27 0 -53 -12t-46 -41t-32 -78t-12 -124v-223h-48v515z" />
    <glyph glyph-name="s" unicode="s" horiz-adv-x="460" 
d="M240 -10q-74 0 -125.5 39t-74.5 105l40 17q25 -62 66.5 -88.5t93.5 -26.5t87.5 25t35.5 73q0 41 -24 62.5t-73 35.5l-85 24q-54 15 -83 48t-29 84q0 34 14 60t36.5 43t51 25.5t58.5 8.5q36 0 62.5 -8.5t45.5 -23.5t32 -36t21 -47l-40 -17q-12 39 -39.5 63t-81.5 24
q-53 0 -83 -25t-30 -63q0 -34 17.5 -56t67.5 -36l85 -24q57 -17 90.5 -48t33.5 -87q0 -36 -12.5 -64t-35 -47.5t-54 -29.5t-68.5 -10z" />
    <glyph glyph-name="t" unicode="t" horiz-adv-x="340" 
d="M325 471h-154v-471h-48v471h-101v44h103l9 152h37v-152h154v-44z" />
    <glyph glyph-name="u" unicode="u" 
d="M250 -10q-41 0 -73.5 11t-55 37t-35 68.5t-12.5 105.5v303h48v-279q0 -59 8 -97.5t25 -61t44 -31.5t65 -9q37 0 69 11.5t54.5 39.5t35.5 74.5t13 116.5v236h48v-515h-37l-8 115q-19 -55 -67 -90t-122 -35z" />
    <glyph glyph-name="v" unicode="v" horiz-adv-x="490" 
d="M27 515h52l166 -460l166 460h52l-194 -515h-48z" />
    <glyph glyph-name="w" unicode="w" horiz-adv-x="755" 
d="M30 515h50l136 -455l136 455h51l136 -455l136 455h50l-162 -515h-48l-137 454l-138 -454h-48z" />
    <glyph glyph-name="x" unicode="x" horiz-adv-x="470" 
d="M206 263l-167 252h55l141 -217l141 217h55l-167 -252l176 -263h-55l-150 229l-150 -229h-55z" />
    <glyph glyph-name="y" unicode="y" horiz-adv-x="464" 
d="M199 21l-179 494h52l155 -435l165 435h52l-269 -680h-46z" />
    <glyph glyph-name="z" unicode="z" horiz-adv-x="462" 
d="M48 42l301 430h-282v43h338v-42l-303 -430h312v-43h-366v42z" />
    <glyph glyph-name="braceleft" unicode="{" horiz-adv-x="436" 
d="M314 -165q-47 0 -79 8.5t-51.5 27.5t-28 50.5t-8.5 78.5v176q0 38 -19 54t-76 16v44q57 0 76 16t19 54v175q0 46 8.5 78t28 51t51.5 27.5t79 8.5h87v-44h-87q-35 0 -58 -5.5t-36.5 -20t-19 -39t-5.5 -63.5v-162q0 -88 -56 -98q56 -10 56 -98v-163q0 -39 5.5 -63.5t19 -39
t36.5 -20t58 -5.5h87v-44h-87v0z" />
    <glyph glyph-name="bar" unicode="|" horiz-adv-x="228" 
d="M90 700h48v-815h-48v815z" />
    <glyph glyph-name="braceright" unicode="}" horiz-adv-x="436" 
d="M35 -165v44h87q35 0 58 5.5t36.5 20t19 39t5.5 63.5v163q0 88 56 98q-56 10 -56 98v162q0 39 -5.5 63.5t-19 39t-36.5 20t-58 5.5h-87v44h87q47 0 79 -8.5t51.5 -27.5t28 -51t8.5 -78v-175q0 -38 19 -54t76 -16v-44q-57 0 -76 -16t-19 -54v-176q0 -47 -8.5 -78.5
t-28 -50.5t-51.5 -27.5t-79 -8.5h-87z" />
    <glyph glyph-name="asciitilde" unicode="~" horiz-adv-x="430" 
d="M290 333q-21 0 -41 8.5t-39 18t-36.5 18t-33.5 8.5q-21 0 -40.5 -14t-33.5 -38l-34 26q49 69 108 69q21 0 41.5 -8.5t39 -18t36 -18t33.5 -8.5q22 0 41 14t33 38l34 -26q-49 -69 -108 -69z" />
    <glyph glyph-name="space_" unicode="&#xa0;" horiz-adv-x="225" 
 />
    <glyph glyph-name="exclamdown" unicode="&#xa1;" horiz-adv-x="228" 
d="M114 520q17 0 27.5 -10t10.5 -26t-10.5 -26t-27.5 -10t-27.5 10t-10.5 26t10.5 26t27.5 10zM90 214l6 111h36l6 -111v-379h-48v379z" />
    <glyph glyph-name="cent" unicode="&#xa2;" horiz-adv-x="501" 
d="M481 143q-24 -75 -73.5 -111.5t-117.5 -40.5v-91h-48v92q-39 5 -74 24t-61 52t-41.5 80t-15.5 109t15.5 109.5t41.5 80.5t61 52t74 24v92h48v-90q71 -5 112 -42t51 -117l-45 -10q-8 63 -39 93t-97 30q-77 0 -124.5 -56.5t-47.5 -165.5q0 -107 47.5 -164t124.5 -57
q69 0 107 30t56 87l46 -10v0z" />
    <glyph glyph-name="sterling" unicode="&#xa3;" horiz-adv-x="572" 
d="M510 44v-44h-438v43q33 34 57.5 61t40 51.5t23 48.5t7.5 51q0 14 -2.5 27.5t-7.5 27.5h-118v44h100q-10 21 -20.5 42t-19.5 43.5t-14.5 46t-5.5 49.5q0 43 14 75.5t39.5 54.5t60.5 33.5t78 11.5q85 0 132 -46t57 -128l-42 -18q-10 75 -45.5 110.5t-101.5 35.5
q-69 0 -106 -33.5t-37 -95.5q0 -23 6.5 -45.5t16 -45t20.5 -45t21 -45.5h226v-44h-210q8 -29 8 -55q0 -50 -26 -98.5t-89 -112.5h376z" />
    <glyph glyph-name="currency" unicode="&#xa4;" horiz-adv-x="554" 
d="M460 310q0 -74 -42 -122l96 -88l-36 -35l-89 97q-23 -15 -51 -23.5t-61 -8.5q-73 0 -121 40l-89 -97l-35 36l97 89q-35 44 -35 112q0 74 42 122l-96 88l36 35l89 -97q23 15 51 23.5t61 8.5q73 0 122 -40l88 97l35 -36l-97 -88q35 -46 35 -113zM277 175q61 0 98 36t37 99
t-37 99t-98 36t-98 -36t-37 -99t37 -99t98 -36z" />
    <glyph glyph-name="yen" unicode="&#xa5;" horiz-adv-x="554" 
d="M379 401h131v-44h-154l-45 -87h199v-44h-209v-226h-48v226h-199v44h189l-45 87h-144v44h121l-155 299h53l204 -400l204 400h53z" />
    <glyph glyph-name="brokenbar" unicode="&#xa6;" horiz-adv-x="228" 
d="M90 700h48v-360h-48v360zM90 245h48v-360h-48v360z" />
    <glyph glyph-name="section" unicode="&#xa7;" horiz-adv-x="529" 
d="M264 -175q-48 0 -86.5 14t-67 36.5t-46 51.5t-24.5 60l43 17q20 -67 68 -100t113 -33q30 0 57.5 6.5t48.5 20.5t33.5 35.5t12.5 52.5q0 43 -28.5 73t-98.5 50l-98 29q-69 20 -106.5 56.5t-37.5 99.5q0 53 31 85.5t74 47.5q-48 21 -72 53.5t-24 80.5q0 32 14.5 59.5
t40.5 47.5t62.5 31t80.5 11q82 0 130.5 -39.5t68.5 -113.5l-42 -18q-9 36 -25 60t-36.5 38.5t-45 20.5t-51.5 6q-71 0 -109 -29.5t-38 -73.5q0 -40 27.5 -64.5t91.5 -44.5l97 -30q37 -11 66.5 -25.5t50 -33.5t31.5 -44.5t11 -59.5q0 -44 -24 -80.5t-66 -58.5
q36 -21 55.5 -52t19.5 -79q0 -40 -15.5 -70.5t-42.5 -51.5t-64 -31.5t-80 -10.5zM336 145q45 17 70 46.5t25 67.5q0 25 -10.5 44t-28.5 33.5t-42 25t-51 18.5l-76 23q-25 -2 -47.5 -10.5t-40 -22.5t-28 -33.5t-10.5 -42.5q0 -42 27.5 -67.5t89.5 -44.5z" />
    <glyph glyph-name="dieresis" unicode="&#xa8;" horiz-adv-x="312" 
d="M78 613q-17 0 -27.5 10t-10.5 26t10.5 26t27.5 10t27.5 -10t10.5 -26t-10.5 -26t-27.5 -10zM234 613q-17 0 -27.5 10t-10.5 26t10.5 26t27.5 10t27.5 -10t10.5 -26t-10.5 -26t-27.5 -10z" />
    <glyph glyph-name="copyright" unicode="&#xa9;" horiz-adv-x="848" 
d="M424 -10q-72 0 -136.5 23.5t-113 69t-76.5 112.5t-28 155t28 155.5t76.5 113t113 68.5t136.5 23t136.5 -23t113 -68.5t76.5 -113t28 -155.5t-28 -155t-76.5 -112.5t-113 -69t-136.5 -23.5zM424 34q68 0 124.5 22t97.5 62.5t63.5 99t22.5 132.5t-22.5 132.5t-63.5 99.5
t-97.5 62.5t-124.5 21.5t-124.5 -21.5t-97.5 -62.5t-63.5 -99.5t-22.5 -132.5t22.5 -132.5t63.5 -99t97.5 -62.5t124.5 -22zM427 150q-34 0 -64.5 13.5t-54 39t-37 63t-13.5 84.5q0 48 13.5 85t37 62.5t54 39t64.5 13.5q61 0 97.5 -33.5t41.5 -101.5l-42 -10q-5 56 -31 78.5
t-66 22.5q-23 0 -44.5 -8.5t-38.5 -27t-27.5 -48.5t-10.5 -72t10.5 -71.5t27.5 -48.5t38.5 -27.5t44.5 -8.5q47 0 72 20.5t42 71.5l44 -10q-17 -59 -56 -92.5t-102 -33.5z" />
    <glyph glyph-name="ordfeminine" unicode="&#xaa;" horiz-adv-x="402" 
d="M201 704q31 0 56 -7.5t43 -24.5t27.5 -45t9.5 -69v-258h-29l-8 73q-20 -41 -56.5 -61t-81.5 -20q-52 0 -86 29t-34 83q0 34 14.5 58.5t40.5 40t61.5 22.5t77.5 7q31 0 63 -3v23q0 67 -23.5 91.5t-74.5 24.5q-32 0 -60 -17t-43 -59l-32 19q10 26 25.5 44t33.5 29t38 15.5
t38 4.5zM168 329q27 0 50.5 6t41.5 22t28.5 44.5t10.5 73.5v19q-21 1 -38.5 1.5t-36.5 0.5q-66 0 -103.5 -21t-37.5 -67q0 -42 25 -60.5t60 -18.5z" />
    <glyph glyph-name="guillemotleft" unicode="&#xab;" horiz-adv-x="531" 
d="M56 257l149 238h52l-149 -238l149 -238h-52zM274 257l149 238h52l-149 -238l149 -238h-52z" />
    <glyph glyph-name="logicalnot" unicode="&#xac;" horiz-adv-x="514" 
d="M392 379h-330v44h374v-204h-44v160z" />
    <glyph glyph-name="dash" unicode="&#xad;" horiz-adv-x="449" 
d="M62 330h325v-44h-325v44z" />
    <glyph glyph-name="registered" unicode="&#xae;" horiz-adv-x="848" 
d="M424 710q72 0 136.5 -23t113 -68.5t76.5 -113t28 -155.5t-28 -155t-76.5 -112.5t-113 -69t-136.5 -23.5t-136.5 23.5t-113 69t-76.5 112.5t-28 155t28 155.5t76.5 113t113 68.5t136.5 23zM424 34q68 0 124.5 22t97.5 62.5t63.5 99t22.5 132.5t-22.5 132.5t-63.5 99.5
t-97.5 62.5t-124.5 21.5t-124.5 -21.5t-97.5 -62.5t-63.5 -99.5t-22.5 -132.5t22.5 -132.5t63.5 -99t97.5 -62.5t124.5 -22zM563 433q0 -39 -17.5 -63t-49.5 -35l75 -174h-50l-71 166q-5 -1 -8.5 -1h-8.5h-81v-165h-45v379h126q60 0 95 -25t35 -82zM433 369q46 0 64.5 16
t18.5 48t-18.5 48t-64.5 16h-81v-128h81z" />
    <glyph glyph-name="macron" unicode="&#xaf;" horiz-adv-x="349" 
d="M62 669h225v-42h-225v42z" />
    <glyph glyph-name="degree" unicode="&#xb0;" horiz-adv-x="390" 
d="M195 408q-33 0 -60.5 11t-47 30.5t-30.5 46.5t-11 58t11 58t30.5 46.5t47 30.5t60.5 11t60.5 -11t47 -30.5t30.5 -46.5t11 -58t-11 -58t-30.5 -46.5t-47 -30.5t-60.5 -11zM195 450q49 0 76.5 28t27.5 76t-27.5 76t-76.5 28t-76.5 -28t-27.5 -76t27.5 -76t76.5 -28z" />
    <glyph glyph-name="plusminus" unicode="&#xb1;" horiz-adv-x="508" 
d="M446 414v-44h-170v-170h-44v170h-170v44h170v170h44v-170h170zM62 44h384v-44h-384v44z" />
    <glyph glyph-name="two.sups" unicode="&#xb2;" horiz-adv-x="311" 
d="M32 451l88 102q17 20 35.5 40.5t33.5 41.5t25 42.5t10 42.5q0 29 -17 46t-51 17q-32 0 -54.5 -21.5t-27.5 -72.5l-35 16q5 52 36 84t82 32q48 0 77.5 -26.5t29.5 -74.5q0 -41 -25 -79.5t-68 -87.5l-87 -100h195v-38h-247v36z" />
    <glyph glyph-name="three.sups" unicode="&#xb3;" horiz-adv-x="333" 
d="M168 409q-45 0 -82 23t-54 72l33 14q17 -41 43 -57t60 -16q39 0 62 22t23 59q0 38 -23.5 58.5t-80.5 20.5h-25v37h25q42 0 65.5 19.5t23.5 57.5q0 32 -20.5 48.5t-53.5 16.5q-29 0 -49.5 -15t-37.5 -51l-32 15q13 43 45 65t74 22q52 0 83 -27.5t31 -73.5
q0 -35 -18.5 -58.5t-43.5 -34.5q32 -10 54.5 -31.5t22.5 -68.5q0 -52 -35.5 -84.5t-89.5 -32.5z" />
    <glyph glyph-name="acute" unicode="&#xb4;" horiz-adv-x="183" 
d="M97 700h62l-83 -119h-42z" />
    <glyph glyph-name="mu" unicode="&#xb5;" horiz-adv-x="570" 
d="M80 515h48v-279q0 -59 8 -97.5t25 -61t44 -31.5t65 -9q37 0 69 11.5t54.5 39.5t35.5 74.5t13 116.5v236h48v-515h-37l-8 115q-19 -55 -67 -90t-122 -35q-90 0 -128 71v-226h-48v680z" />
    <glyph glyph-name="paragraph" unicode="&#xb6;" horiz-adv-x="583" 
d="M493 -115h-48v771h-123v-771h-48v501h-55q-52 0 -88 11.5t-58.5 32t-32.5 49.5t-10 64t10 64t32.5 49.5t58.5 32t88 11.5h274v-815z" />
    <glyph glyph-name="periodcentered" unicode="&#xb7;" horiz-adv-x="200" 
d="M100 271q-17 0 -27.5 10t-10.5 26t10.5 26t27.5 10t27.5 -10t10.5 -26t-10.5 -26t-27.5 -10z" />
    <glyph glyph-name="cedilla" unicode="&#xb8;" horiz-adv-x="211" 
d="M100 0h35l-32 -130h-48z" />
    <glyph glyph-name="one.sups" unicode="&#xb9;" horiz-adv-x="188" 
d="M85 767l-61 -26v38l70 36h29v-400h-38v352z" />
    <glyph glyph-name="ordmasculine" unicode="&#xba;" horiz-adv-x="442" 
d="M221 294q-36 0 -68.5 12.5t-56.5 38t-38 64.5t-14 91t14 91t38 64.5t56.5 38t68.5 12.5q37 0 69 -12.5t56 -38t38 -64.5t14 -91t-14 -91t-38 -64.5t-56 -38t-69 -12.5zM221 331q63 0 100 43t37 126t-37 126t-100 43q-62 0 -99.5 -43t-37.5 -126t37.5 -126t99.5 -43z" />
    <glyph glyph-name="guillemotright" unicode="&#xbb;" horiz-adv-x="531" 
d="M56 19l149 238l-149 238h52l149 -238l-149 -238h-52zM274 19l149 238l-149 238h52l149 -238l-149 -238h-52z" />
    <glyph glyph-name="onequarter" unicode="&#xbc;" horiz-adv-x="712" 
d="M85 652l-61 -26v38l70 36h29v-400h-38v352zM588 657l-521 -638l-29 24l521 638zM680 89h-57v-89h-38v89h-184v36l186 275h36v-275h57v-36zM585 125v208l-140 -208h140z" />
    <glyph glyph-name="onehalf" unicode="&#xbd;" horiz-adv-x="749" 
d="M85 652l-61 -26v38l70 36h29v-400h-38v352zM38 43l521 638l29 -24l-521 -638zM470 36l88 102q17 20 35.5 40.5t33.5 41.5t25 42.5t10 42.5q0 29 -17 46t-51 17q-32 0 -54.5 -21.5t-27.5 -72.5l-35 16q5 52 36 84t82 32q48 0 77.5 -26.5t29.5 -74.5q0 -41 -25 -79.5
t-68 -87.5l-87 -100h195v-38h-247v36z" />
    <glyph glyph-name="threequarters" unicode="&#xbe;" horiz-adv-x="857" 
d="M293 411q0 -52 -35.5 -84.5t-89.5 -32.5q-45 0 -82 23t-54 72l33 14q17 -41 43 -57t60 -16q39 0 62 22t23 59q0 38 -23.5 58.5t-80.5 20.5h-25v37h25q42 0 65.5 19.5t23.5 57.5q0 32 -20.5 48.5t-53.5 16.5q-29 0 -49.5 -15t-37.5 -51l-32 15q13 43 45 65t74 22
q52 0 83 -27.5t31 -73.5q0 -35 -18.5 -58.5t-43.5 -34.5q32 -10 54.5 -31.5t22.5 -68.5zM733 657l-521 -638l-29 24l521 638zM825 89h-57v-89h-38v89h-184v36l186 275h36v-275h57v-36zM730 125v208l-140 -208h140z" />
    <glyph glyph-name="questiondown" unicode="&#xbf;" horiz-adv-x="438" 
d="M221 520q17 0 27.5 -10t10.5 -26t-10.5 -26t-27.5 -10t-27.5 10t-10.5 26t10.5 26t27.5 10zM215 -175q-40 0 -72.5 11.5t-55 32t-35 48.5t-12.5 61q0 49 24.5 79t64.5 56l57 37q30 20 44.5 36.5t14.5 46.5q0 56 -92 74l14 43q60 -11 93.5 -41t33.5 -76q0 -41 -22.5 -67.5
t-55.5 -47.5l-57 -37q-35 -23 -52 -45t-17 -58q0 -43 31 -75t94 -32q29 0 55 7t47.5 23t37.5 43t25 67l42 -18q-19 -82 -73 -125t-134 -43z" />
    <glyph glyph-name="Agrave" unicode="&#xc0;" horiz-adv-x="616" 
d="M284 766l-83 119h62l63 -119h-42zM468 200h-320l-73 -200h-50l258 700h50l258 -700h-50zM452 244l-144 398l-144 -398h288z" />
    <glyph glyph-name="Aacute" unicode="&#xc1;" horiz-adv-x="616" 
d="M330 766h-42l63 119h62zM468 200h-320l-73 -200h-50l258 700h50l258 -700h-50zM452 244l-144 398l-144 -398h288z" />
    <glyph glyph-name="Acircumflex" unicode="&#xc2;" horiz-adv-x="616" 
d="M236 730h-44l85 119h62l85 -119h-44l-72 81zM468 200h-320l-73 -200h-50l258 700h50l258 -700h-50zM452 244l-144 398l-144 -398h288z" />
    <glyph glyph-name="Atilde" unicode="&#xc3;" horiz-adv-x="616" 
d="M247 831q-17 0 -30.5 -11.5t-27.5 -35.5l-33 26q24 34 44.5 48t46.5 14q20 0 36 -6.5t30.5 -15t28 -15t27.5 -6.5q17 0 30.5 11.5t27.5 35.5l33 -26q-24 -34 -44.5 -48t-46.5 -14q-19 0 -35 6.5t-30.5 15t-28.5 15t-28 6.5zM468 200h-320l-73 -200h-50l258 700h50
l258 -700h-50zM452 244l-144 398l-144 -398h288z" />
    <glyph glyph-name="Adieresis" unicode="&#xc4;" horiz-adv-x="616" 
d="M230 798q-17 0 -27.5 10t-10.5 26t10.5 26t27.5 10t27.5 -10t10.5 -26t-10.5 -26t-27.5 -10zM386 798q-17 0 -27.5 10t-10.5 26t10.5 26t27.5 10t27.5 -10t10.5 -26t-10.5 -26t-27.5 -10zM468 200h-320l-73 -200h-50l258 700h50l258 -700h-50zM452 244l-144 398
l-144 -398h288z" />
    <glyph glyph-name="Aring" unicode="&#xc5;" horiz-adv-x="616" 
d="M308 751q-36 0 -60.5 21.5t-24.5 60.5t24.5 60.5t60.5 21.5t60.5 -21.5t24.5 -60.5t-24.5 -60.5t-60.5 -21.5zM308 880q-22 0 -34.5 -12t-12.5 -35t12.5 -35t34.5 -12t34.5 12t12.5 35t-12.5 35t-34.5 12zM468 200h-320l-73 -200h-50l258 700h50l258 -700h-50zM452 244
l-144 398l-144 -398h288z" />
    <glyph glyph-name="AE" unicode="&#xc6;" horiz-adv-x="952" 
d="M908 44v-44h-434v200h-303l-98 -200h-53l343 700h540v-44h-381v-271h352v-44h-352v-297h386zM474 244v412h-80l-202 -412h282z" />
    <glyph glyph-name="Ccedilla" unicode="&#xc7;" horiz-adv-x="655" 
d="M628 205q-65 -206 -259 -215l-30 -120h-48l42 121q-56 4 -106 28.5t-87.5 69.5t-59.5 110.5t-22 150.5q0 88 24 155.5t64.5 113t94 68.5t112.5 23q213 0 240 -232l-45 -10q-12 100 -60.5 148t-134.5 48q-46 0 -90 -19.5t-78.5 -58.5t-55.5 -98t-21 -138q0 -80 21 -139
t55.5 -98t78.5 -58t90 -19q84 0 141 42t87 138l47 -11v0z" />
    <glyph glyph-name="Egrave" unicode="&#xc8;" horiz-adv-x="568" 
d="M200 885h62l63 -119h-42zM90 700h429v-44h-381v-271h352v-44h-352v-297h386v-44h-434v700z" />
    <glyph glyph-name="Eacute" unicode="&#xc9;" horiz-adv-x="568" 
d="M350 885h62l-83 -119h-42zM90 700h429v-44h-381v-271h352v-44h-352v-297h386v-44h-434v700z" />
    <glyph glyph-name="Ecircumflex" unicode="&#xca;" horiz-adv-x="568" 
d="M277 863h62l85 -119h-44l-72 81l-72 -81h-44zM90 700h429v-44h-381v-271h352v-44h-352v-297h386v-44h-434v700z" />
    <glyph glyph-name="Edieresis" unicode="&#xcb;" horiz-adv-x="568" 
d="M229 798q-17 0 -27.5 10t-10.5 26t10.5 26t27.5 10t27.5 -10t10.5 -26t-10.5 -26t-27.5 -10zM385 798q-17 0 -27.5 10t-10.5 26t10.5 26t27.5 10t27.5 -10t10.5 -26t-10.5 -26t-27.5 -10zM90 700h429v-44h-381v-271h352v-44h-352v-297h386v-44h-434v700z" />
    <glyph glyph-name="Igrave" unicode="&#xcc;" horiz-adv-x="228" 
d="M7 885h62l63 -119h-42zM90 700h48v-700h-48v700z" />
    <glyph glyph-name="Iacute" unicode="&#xcd;" horiz-adv-x="228" 
d="M157 885h62l-83 -119h-42zM90 700h48v-700h-48v700z" />
    <glyph glyph-name="Icircumflex" unicode="&#xce;" horiz-adv-x="228" 
d="M83 885h62l85 -119h-44l-72 81l-72 -81h-44zM90 700h48v-700h-48v700z" />
    <glyph glyph-name="Idieresis" unicode="&#xcf;" horiz-adv-x="228" 
d="M36 798q-17 0 -27.5 10t-10.5 26t10.5 26t27.5 10t27.5 -10t10.5 -26t-10.5 -26t-27.5 -10zM192 798q-17 0 -27.5 10t-10.5 26t10.5 26t27.5 10t27.5 -10t10.5 -26t-10.5 -26t-27.5 -10zM90 700h48v-700h-48v700z" />
    <glyph glyph-name="Eth" unicode="&#xd0;" horiz-adv-x="691" 
d="M296 700q171 0 254 -84.5t83 -265.5t-83 -265.5t-254 -84.5h-176v328h-90v44h90v328h176zM296 44q146 0 217.5 73.5t71.5 232.5t-71.5 232.5t-217.5 73.5h-128v-284h186v-44h-186v-284h128z" />
    <glyph glyph-name="Ntilde" unicode="&#xd1;" horiz-adv-x="700" 
d="M198 810q24 34 44.5 48t46.5 14q20 0 36 -6.5t30.5 -15t28 -15t27.5 -6.5q17 0 30.5 11.5t27.5 35.5l33 -26q-24 -34 -44.5 -48t-46.5 -14q-19 0 -35 6.5t-30.5 15t-28.5 15t-28 6.5q-17 0 -30.5 -11.5t-27.5 -35.5zM90 700h60l412 -632v632h48v-700h-60l-412 632v-632
h-48v700z" />
    <glyph glyph-name="Ograve" unicode="&#xd2;" horiz-adv-x="741" 
d="M264 885h62l63 -119h-42zM371 -10q-65 0 -122 23t-99.5 68t-67 112.5t-24.5 156.5q0 88 24.5 155.5t67 113t99.5 68.5t122 23t122 -23t99 -68.5t66.5 -113t24.5 -155.5q0 -89 -24.5 -156.5t-66.5 -112.5t-99 -68t-122 -23zM371 36q52 0 99.5 19t83.5 58t57.5 98t21.5 139
q0 79 -21.5 138t-57.5 98t-83.5 58.5t-99.5 19.5q-53 0 -100.5 -19.5t-83.5 -58.5t-57.5 -98t-21.5 -138q0 -80 21.5 -139t57.5 -98t83.5 -58t100.5 -19z" />
    <glyph glyph-name="Oacute" unicode="&#xd3;" horiz-adv-x="741" 
d="M414 885h62l-83 -119h-42zM371 -10q-65 0 -122 23t-99.5 68t-67 112.5t-24.5 156.5q0 88 24.5 155.5t67 113t99.5 68.5t122 23t122 -23t99 -68.5t66.5 -113t24.5 -155.5q0 -89 -24.5 -156.5t-66.5 -112.5t-99 -68t-122 -23zM371 36q52 0 99.5 19t83.5 58t57.5 98
t21.5 139q0 79 -21.5 138t-57.5 98t-83.5 58.5t-99.5 19.5q-53 0 -100.5 -19.5t-83.5 -58.5t-57.5 -98t-21.5 -138q0 -80 21.5 -139t57.5 -98t83.5 -58t100.5 -19z" />
    <glyph glyph-name="Ocircumflex" unicode="&#xd4;" horiz-adv-x="741" 
d="M340 873h62l85 -119h-44l-72 81l-72 -81h-44zM371 -10q-65 0 -122 23t-99.5 68t-67 112.5t-24.5 156.5q0 88 24.5 155.5t67 113t99.5 68.5t122 23t122 -23t99 -68.5t66.5 -113t24.5 -155.5q0 -89 -24.5 -156.5t-66.5 -112.5t-99 -68t-122 -23zM371 36q52 0 99.5 19
t83.5 58t57.5 98t21.5 139q0 79 -21.5 138t-57.5 98t-83.5 58.5t-99.5 19.5q-53 0 -100.5 -19.5t-83.5 -58.5t-57.5 -98t-21.5 -138q0 -80 21.5 -139t57.5 -98t83.5 -58t100.5 -19z" />
    <glyph glyph-name="Otilde" unicode="&#xd5;" horiz-adv-x="741" 
d="M219 810q24 34 44.5 48t46.5 14q20 0 36 -6.5t30.5 -15t28 -15t27.5 -6.5q17 0 30.5 11.5t27.5 35.5l33 -26q-24 -34 -44.5 -48t-46.5 -14q-19 0 -35 6.5t-30.5 15t-28.5 15t-28 6.5q-17 0 -30.5 -11.5t-27.5 -35.5zM371 -10q-65 0 -122 23t-99.5 68t-67 112.5
t-24.5 156.5q0 88 24.5 155.5t67 113t99.5 68.5t122 23t122 -23t99 -68.5t66.5 -113t24.5 -155.5q0 -89 -24.5 -156.5t-66.5 -112.5t-99 -68t-122 -23zM371 36q52 0 99.5 19t83.5 58t57.5 98t21.5 139q0 79 -21.5 138t-57.5 98t-83.5 58.5t-99.5 19.5q-53 0 -100.5 -19.5
t-83.5 -58.5t-57.5 -98t-21.5 -138q0 -80 21.5 -139t57.5 -98t83.5 -58t100.5 -19z" />
    <glyph glyph-name="Odieresis" unicode="&#xd6;" horiz-adv-x="741" 
d="M293 798q-17 0 -27.5 10t-10.5 26t10.5 26t27.5 10t27.5 -10t10.5 -26t-10.5 -26t-27.5 -10zM449 798q-17 0 -27.5 10t-10.5 26t10.5 26t27.5 10t27.5 -10t10.5 -26t-10.5 -26t-27.5 -10zM371 -10q-65 0 -122 23t-99.5 68t-67 112.5t-24.5 156.5q0 88 24.5 155.5t67 113
t99.5 68.5t122 23t122 -23t99 -68.5t66.5 -113t24.5 -155.5q0 -89 -24.5 -156.5t-66.5 -112.5t-99 -68t-122 -23zM371 36q52 0 99.5 19t83.5 58t57.5 98t21.5 139q0 79 -21.5 138t-57.5 98t-83.5 58.5t-99.5 19.5q-53 0 -100.5 -19.5t-83.5 -58.5t-57.5 -98t-21.5 -138
q0 -80 21.5 -139t57.5 -98t83.5 -58t100.5 -19z" />
    <glyph glyph-name="multiply" unicode="&#xd7;" horiz-adv-x="406" 
d="M234 334l120 -120l-31 -31l-120 120l-120 -120l-31 31l120 120l-120 120l31 31l120 -120l120 120l31 -31z" />
    <glyph glyph-name="Oslash" unicode="&#xd8;" horiz-adv-x="741" 
d="M570 640q52 -45 82.5 -117.5t30.5 -172.5q0 -89 -24.5 -156.5t-66.5 -112.5t-99 -68t-122 -23q-45 0 -87 11t-77 33l-36 -59l-38 21l38 64q-52 45 -82.5 117.5t-30.5 172.5q0 88 24.5 155.5t67 113t99.5 68.5t122 23q93 0 164 -45l36 60l38 -21zM108 350q0 -85 24 -146.5
t65 -100.5l313 521q-31 20 -66 30t-73 10q-53 0 -100.5 -19.5t-83.5 -58.5t-57.5 -98t-21.5 -138zM371 36q52 0 99.5 19t83.5 58t57.5 98t21.5 139q0 85 -24 146.5t-65 99.5l-312 -520q31 -20 66 -30t73 -10z" />
    <glyph glyph-name="Ugrave" unicode="&#xd9;" horiz-adv-x="686" 
d="M236 885h62l63 -119h-42zM343 -10q-64 0 -112 16.5t-80.5 55t-49 100.5t-16.5 153v385h48v-385q0 -78 13 -131.5t39 -86t65.5 -47t92.5 -14.5q52 0 91 14.5t65.5 47t40 86t13.5 131.5v385h48l-1 -385q0 -91 -17 -153t-49.5 -100.5t-80 -55t-110.5 -16.5z" />
    <glyph glyph-name="Uacute" unicode="&#xda;" horiz-adv-x="686" 
d="M386 885h62l-83 -119h-42zM343 -10q-64 0 -112 16.5t-80.5 55t-49 100.5t-16.5 153v385h48v-385q0 -78 13 -131.5t39 -86t65.5 -47t92.5 -14.5q52 0 91 14.5t65.5 47t40 86t13.5 131.5v385h48l-1 -385q0 -91 -17 -153t-49.5 -100.5t-80 -55t-110.5 -16.5z" />
    <glyph glyph-name="Ucircumflex" unicode="&#xdb;" horiz-adv-x="686" 
d="M312 885h62l85 -119h-44l-72 81l-72 -81h-44zM343 -10q-64 0 -112 16.5t-80.5 55t-49 100.5t-16.5 153v385h48v-385q0 -78 13 -131.5t39 -86t65.5 -47t92.5 -14.5q52 0 91 14.5t65.5 47t40 86t13.5 131.5v385h48l-1 -385q0 -91 -17 -153t-49.5 -100.5t-80 -55
t-110.5 -16.5z" />
    <glyph glyph-name="Udieresis" unicode="&#xdc;" horiz-adv-x="686" 
d="M265 798q-17 0 -27.5 10t-10.5 26t10.5 26t27.5 10t27.5 -10t10.5 -26t-10.5 -26t-27.5 -10zM421 798q-17 0 -27.5 10t-10.5 26t10.5 26t27.5 10t27.5 -10t10.5 -26t-10.5 -26t-27.5 -10zM343 -10q-64 0 -112 16.5t-80.5 55t-49 100.5t-16.5 153v385h48v-385
q0 -78 13 -131.5t39 -86t65.5 -47t92.5 -14.5q52 0 91 14.5t65.5 47t40 86t13.5 131.5v385h48l-1 -385q0 -91 -17 -153t-49.5 -100.5t-80 -55t-110.5 -16.5z" />
    <glyph glyph-name="Yacute" unicode="&#xdd;" horiz-adv-x="554" 
d="M299 766h-42l63 119h62zM301 250v-250h-48v250l-233 450h53l204 -400l204 400h53z" />
    <glyph glyph-name="Thorn" unicode="&#xde;" horiz-adv-x="586" 
d="M321 546q53 0 95 -11t71.5 -35t45 -61t15.5 -89q0 -104 -60.5 -150t-166.5 -46h-183v-154h-48v700h48v-154h183zM321 198q89 0 134 36.5t45 115.5t-45 115.5t-134 36.5h-183v-304h183z" />
    <glyph glyph-name="germandbls" unicode="&#xdf;" horiz-adv-x="615" 
d="M336 367q0 -26 18 -41.5t45 -27t59 -23t59 -29t45 -44.5t18 -70q0 -34 -11.5 -60.5t-31 -44.5t-45.5 -27.5t-55 -9.5q-60 0 -103 28t-67 96l41 16q23 -57 56.5 -75.5t72.5 -18.5q41 0 68 24.5t27 70.5q0 34 -18 54.5t-45 34t-59 24.5t-59 25.5t-45 37t-18 60.5
q0 23 11 42t27 35t35 30.5t35 30.5t27 33.5t11 40.5q0 44 -33.5 64.5t-83.5 20.5q-32 0 -59.5 -7.5t-47.5 -26t-31.5 -51t-11.5 -81.5v-498h-48v471h-97v44h97q2 53 18 90t42.5 60.5t61.5 34t76 10.5q35 0 65.5 -8t52.5 -24t34.5 -40.5t12.5 -58.5q0 -29 -11 -51t-27 -40
t-35 -33t-35 -29t-27 -28.5t-11 -30.5z" />
    <glyph glyph-name="agrave" unicode="&#xe0;" horiz-adv-x="510" 
d="M235 581l-83 119h62l63 -119h-42zM256 525q40 0 73 -9.5t57 -31.5t37 -58.5t13 -89.5v-336h-36l-11 97q-27 -54 -75 -80.5t-108 -26.5q-34 0 -62.5 9.5t-49.5 28.5t-32.5 45.5t-11.5 61.5q0 45 19 76.5t52.5 52t79.5 29.5t100 9q20 0 43 -1t44 -3v30q0 43 -7.5 72
t-23.5 46.5t-41 25t-60 7.5q-41 0 -79 -21.5t-57 -76.5l-40 23q13 34 33.5 57t44.5 37.5t49 20.5t49 6zM213 36q35 0 66.5 8t55.5 29.5t38.5 58.5t14.5 95v26q-29 2 -52.5 3.5t-49.5 1.5q-85 0 -135.5 -28.5t-50.5 -88.5q0 -27 9 -47t24.5 -33t36 -19t43.5 -6z" />
    <glyph glyph-name="aacute" unicode="&#xe1;" horiz-adv-x="510" 
d="M283 581h-42l63 119h62zM256 525q40 0 73 -9.5t57 -31.5t37 -58.5t13 -89.5v-336h-36l-11 97q-27 -54 -75 -80.5t-108 -26.5q-34 0 -62.5 9.5t-49.5 28.5t-32.5 45.5t-11.5 61.5q0 45 19 76.5t52.5 52t79.5 29.5t100 9q20 0 43 -1t44 -3v30q0 43 -7.5 72t-23.5 46.5
t-41 25t-60 7.5q-41 0 -79 -21.5t-57 -76.5l-40 23q13 34 33.5 57t44.5 37.5t49 20.5t49 6zM213 36q35 0 66.5 8t55.5 29.5t38.5 58.5t14.5 95v26q-29 2 -52.5 3.5t-49.5 1.5q-85 0 -135.5 -28.5t-50.5 -88.5q0 -27 9 -47t24.5 -33t36 -19t43.5 -6z" />
    <glyph glyph-name="acircumflex" unicode="&#xe2;" horiz-adv-x="510" 
d="M187 581h-44l85 119h62l85 -119h-44l-72 81zM256 525q40 0 73 -9.5t57 -31.5t37 -58.5t13 -89.5v-336h-36l-11 97q-27 -54 -75 -80.5t-108 -26.5q-34 0 -62.5 9.5t-49.5 28.5t-32.5 45.5t-11.5 61.5q0 45 19 76.5t52.5 52t79.5 29.5t100 9q20 0 43 -1t44 -3v30
q0 43 -7.5 72t-23.5 46.5t-41 25t-60 7.5q-41 0 -79 -21.5t-57 -76.5l-40 23q13 34 33.5 57t44.5 37.5t49 20.5t49 6zM213 36q35 0 66.5 8t55.5 29.5t38.5 58.5t14.5 95v26q-29 2 -52.5 3.5t-49.5 1.5q-85 0 -135.5 -28.5t-50.5 -88.5q0 -27 9 -47t24.5 -33t36 -19t43.5 -6z
" />
    <glyph glyph-name="atilde" unicode="&#xe3;" horiz-adv-x="510" 
d="M198 646q-17 0 -30.5 -11.5t-27.5 -35.5l-33 26q24 34 44.5 48t46.5 14q20 0 36 -6.5t30.5 -15t28 -15t27.5 -6.5q17 0 30.5 11.5t27.5 35.5l33 -26q-24 -34 -44.5 -48t-46.5 -14q-19 0 -35 6.5t-30.5 15t-28.5 15t-28 6.5zM256 525q40 0 73 -9.5t57 -31.5t37 -58.5
t13 -89.5v-336h-36l-11 97q-27 -54 -75 -80.5t-108 -26.5q-34 0 -62.5 9.5t-49.5 28.5t-32.5 45.5t-11.5 61.5q0 45 19 76.5t52.5 52t79.5 29.5t100 9q20 0 43 -1t44 -3v30q0 43 -7.5 72t-23.5 46.5t-41 25t-60 7.5q-41 0 -79 -21.5t-57 -76.5l-40 23q13 34 33.5 57
t44.5 37.5t49 20.5t49 6zM213 36q35 0 66.5 8t55.5 29.5t38.5 58.5t14.5 95v26q-29 2 -52.5 3.5t-49.5 1.5q-85 0 -135.5 -28.5t-50.5 -88.5q0 -27 9 -47t24.5 -33t36 -19t43.5 -6z" />
    <glyph glyph-name="adieresis" unicode="&#xe4;" horiz-adv-x="510" 
d="M181 613q-17 0 -27.5 10t-10.5 26t10.5 26t27.5 10t27.5 -10t10.5 -26t-10.5 -26t-27.5 -10zM337 613q-17 0 -27.5 10t-10.5 26t10.5 26t27.5 10t27.5 -10t10.5 -26t-10.5 -26t-27.5 -10zM256 525q40 0 73 -9.5t57 -31.5t37 -58.5t13 -89.5v-336h-36l-11 97
q-27 -54 -75 -80.5t-108 -26.5q-34 0 -62.5 9.5t-49.5 28.5t-32.5 45.5t-11.5 61.5q0 45 19 76.5t52.5 52t79.5 29.5t100 9q20 0 43 -1t44 -3v30q0 43 -7.5 72t-23.5 46.5t-41 25t-60 7.5q-41 0 -79 -21.5t-57 -76.5l-40 23q13 34 33.5 57t44.5 37.5t49 20.5t49 6zM213 36
q35 0 66.5 8t55.5 29.5t38.5 58.5t14.5 95v26q-29 2 -52.5 3.5t-49.5 1.5q-85 0 -135.5 -28.5t-50.5 -88.5q0 -27 9 -47t24.5 -33t36 -19t43.5 -6z" />
    <glyph glyph-name="aring" unicode="&#xe5;" horiz-adv-x="510" 
d="M259 566q-36 0 -60.5 21.5t-24.5 60.5t24.5 60.5t60.5 21.5t60.5 -21.5t24.5 -60.5t-24.5 -60.5t-60.5 -21.5zM259 695q-22 0 -34.5 -12t-12.5 -35t12.5 -35t34.5 -12t34.5 12t12.5 35t-12.5 35t-34.5 12zM256 525q40 0 73 -9.5t57 -31.5t37 -58.5t13 -89.5v-336h-36
l-11 97q-27 -54 -75 -80.5t-108 -26.5q-34 0 -62.5 9.5t-49.5 28.5t-32.5 45.5t-11.5 61.5q0 45 19 76.5t52.5 52t79.5 29.5t100 9q20 0 43 -1t44 -3v30q0 43 -7.5 72t-23.5 46.5t-41 25t-60 7.5q-41 0 -79 -21.5t-57 -76.5l-40 23q13 34 33.5 57t44.5 37.5t49 20.5t49 6z
M213 36q35 0 66.5 8t55.5 29.5t38.5 58.5t14.5 95v26q-29 2 -52.5 3.5t-49.5 1.5q-85 0 -135.5 -28.5t-50.5 -88.5q0 -27 9 -47t24.5 -33t36 -19t43.5 -6z" />
    <glyph glyph-name="ae" unicode="&#xe6;" horiz-adv-x="872" 
d="M818 126q-27 -71 -81.5 -103.5t-120.5 -32.5q-30 0 -61 8t-58.5 25t-49 44t-32.5 66q-23 -75 -76 -109t-125 -34q-75 0 -119.5 38t-44.5 107q0 90 70.5 125.5t205.5 35.5h63v32q0 83 -34.5 117t-95.5 34q-43 0 -81.5 -21.5t-57.5 -76.5l-40 23q13 34 33.5 57t44.5 37.5
t50 20.5t51 6q29 0 56 -6t49 -20t37.5 -37.5t22.5 -59.5q26 62 77 92.5t114 30.5q45 0 82 -14t63.5 -40t41 -63.5t14.5 -84.5q0 -17 -1.5 -33t-4.5 -38h-372q3 -102 51 -159t127 -57q118 0 156 100zM613 479q-34 0 -63.5 -11.5t-53 -34t-38.5 -57t-19 -80.5h329q1 12 1 16.5
v9.5q0 74 -40.5 115.5t-115.5 41.5zM217 36q33 0 64 8.5t55 30t38.5 58.5t14.5 94v25h-78q-111 0 -161 -26t-50 -85q0 -55 34 -80t83 -25z" />
    <glyph glyph-name="ccedilla" unicode="&#xe7;" horiz-adv-x="501" 
d="M481 143q-24 -74 -72.5 -110.5t-115.5 -41.5l-30 -121h-48l42 120q-42 3 -79.5 21t-66 51t-45 81.5t-16.5 113.5q0 68 18 118.5t49 83.5t71 49.5t84 16.5q79 0 124.5 -37t56.5 -122l-45 -10q-8 63 -39 93t-97 30q-77 0 -124.5 -56.5t-47.5 -165.5q0 -107 47.5 -164
t124.5 -57q69 0 107 30t56 87l46 -10v0z" />
    <glyph glyph-name="egrave" unicode="&#xe8;" horiz-adv-x="533" 
d="M251 581l-83 119h62l63 -119h-42zM479 126q-27 -71 -81.5 -103.5t-120.5 -32.5q-45 0 -86 16.5t-72.5 49.5t-50 83t-18.5 118t18.5 118.5t50 83.5t71.5 49.5t84 16.5q46 0 83.5 -14t64 -41t41 -65.5t14.5 -86.5q0 -17 -1.5 -33.5t-4.5 -38.5h-372q3 -102 52 -156t126 -54
q118 0 156 100zM274 479q-71 0 -118.5 -48t-55.5 -141h329q1 12 1 16.5v10.5q0 77 -40.5 119.5t-115.5 42.5z" />
    <glyph glyph-name="eacute" unicode="&#xe9;" horiz-adv-x="533" 
d="M299 581h-42l63 119h62zM479 126q-27 -71 -81.5 -103.5t-120.5 -32.5q-45 0 -86 16.5t-72.5 49.5t-50 83t-18.5 118t18.5 118.5t50 83.5t71.5 49.5t84 16.5q46 0 83.5 -14t64 -41t41 -65.5t14.5 -86.5q0 -17 -1.5 -33.5t-4.5 -38.5h-372q3 -102 52 -156t126 -54
q118 0 156 100zM274 479q-71 0 -118.5 -48t-55.5 -141h329q1 12 1 16.5v10.5q0 77 -40.5 119.5t-115.5 42.5z" />
    <glyph glyph-name="ecircumflex" unicode="&#xea;" horiz-adv-x="533" 
d="M203 581h-44l85 119h62l85 -119h-44l-72 81zM479 126q-27 -71 -81.5 -103.5t-120.5 -32.5q-45 0 -86 16.5t-72.5 49.5t-50 83t-18.5 118t18.5 118.5t50 83.5t71.5 49.5t84 16.5q46 0 83.5 -14t64 -41t41 -65.5t14.5 -86.5q0 -17 -1.5 -33.5t-4.5 -38.5h-372
q3 -102 52 -156t126 -54q118 0 156 100zM274 479q-71 0 -118.5 -48t-55.5 -141h329q1 12 1 16.5v10.5q0 77 -40.5 119.5t-115.5 42.5z" />
    <glyph glyph-name="edieresis" unicode="&#xeb;" horiz-adv-x="533" 
d="M197 613q-17 0 -27.5 10t-10.5 26t10.5 26t27.5 10t27.5 -10t10.5 -26t-10.5 -26t-27.5 -10zM353 613q-17 0 -27.5 10t-10.5 26t10.5 26t27.5 10t27.5 -10t10.5 -26t-10.5 -26t-27.5 -10zM479 126q-27 -71 -81.5 -103.5t-120.5 -32.5q-45 0 -86 16.5t-72.5 49.5t-50 83
t-18.5 118t18.5 118.5t50 83.5t71.5 49.5t84 16.5q46 0 83.5 -14t64 -41t41 -65.5t14.5 -86.5q0 -17 -1.5 -33.5t-4.5 -38.5h-372q3 -102 52 -156t126 -54q118 0 156 100zM274 479q-71 0 -118.5 -48t-55.5 -141h329q1 12 1 16.5v10.5q0 77 -40.5 119.5t-115.5 42.5z" />
    <glyph glyph-name="igrave" unicode="&#xec;" horiz-adv-x="208" 
d="M-3 700h62l63 -119h-42zM80 515h48v-515h-48v515z" />
    <glyph glyph-name="iacute" unicode="&#xed;" horiz-adv-x="208" 
d="M149 700h62l-83 -119h-42zM80 515h48v-515h-48v515z" />
    <glyph glyph-name="icircumflex" unicode="&#xee;" horiz-adv-x="208" 
d="M73 700h62l85 -119h-44l-72 81l-72 -81h-44zM80 515h48v-515h-48v515z" />
    <glyph glyph-name="idieresis" unicode="&#xef;" horiz-adv-x="208" 
d="M26 613q-17 0 -27.5 10t-10.5 26t10.5 26t27.5 10t27.5 -10t10.5 -26t-10.5 -26t-27.5 -10zM182 613q-17 0 -27.5 10t-10.5 26t10.5 26t27.5 10t27.5 -10t10.5 -26t-10.5 -26t-27.5 -10zM80 515h48v-515h-48v515z" />
    <glyph glyph-name="eth" unicode="&#xf0;" horiz-adv-x="574" 
d="M428 601q44 -46 67.5 -112.5t23.5 -160.5q0 -84 -17.5 -147.5t-49.5 -106t-77.5 -63.5t-101.5 -21q-50 0 -91 18.5t-70 50.5t-45.5 74t-16.5 89q0 57 17.5 99.5t48 70.5t71.5 42t87 14q81 0 134 -42t66 -114q1 9 1 17.5v16.5q0 91 -23.5 151.5t-60.5 100.5l-108 -67
l-19 32l98 61q-37 29 -78 44.5t-81 22.5l11 39q54 -11 101 -31t85 -51l78 49l20 -33zM273 36q36 0 68 11.5t56 35t38.5 58t14.5 81.5t-14.5 81t-38.5 55.5t-56 32t-67 10.5t-66.5 -10.5t-55.5 -32t-38 -55.5t-14 -81q0 -42 13 -76.5t36 -59t54.5 -37.5t69.5 -13z" />
    <glyph glyph-name="ntilde" unicode="&#xf1;" 
d="M130 625q24 34 44.5 48t46.5 14q20 0 36 -6.5t30.5 -15t28 -15t27.5 -6.5q17 0 30.5 11.5t27.5 35.5l33 -26q-24 -34 -44.5 -48t-46.5 -14q-19 0 -35 6.5t-30.5 15t-28.5 15t-28 6.5q-17 0 -30.5 -11.5t-27.5 -35.5zM80 515h37l8 -133q19 70 67 106.5t122 36.5
q40 0 73 -11t55.5 -37t35 -68.5t12.5 -105.5v-303h-48v279q0 60 -8 98.5t-25 61t-44 31t-65 8.5q-39 0 -71 -13t-54.5 -42t-34.5 -76.5t-12 -117.5v-229h-48v515z" />
    <glyph glyph-name="ograve" unicode="&#xf2;" horiz-adv-x="560" 
d="M173 700h62l63 -119h-42zM280 -10q-48 0 -89.5 16.5t-73 49.5t-49.5 83t-18 118t18 118.5t49.5 83.5t73 49.5t89.5 16.5t89.5 -16.5t73 -49.5t49.5 -83.5t18 -118.5t-18 -118t-49.5 -83t-73 -49.5t-89.5 -16.5zM280 36q84 0 132 57t48 164q0 109 -48 165.5t-132 56.5
t-132 -56.5t-48 -165.5q0 -107 48 -164t132 -57z" />
    <glyph glyph-name="oacute" unicode="&#xf3;" horiz-adv-x="560" 
d="M325 700h62l-83 -119h-42zM280 -10q-48 0 -89.5 16.5t-73 49.5t-49.5 83t-18 118t18 118.5t49.5 83.5t73 49.5t89.5 16.5t89.5 -16.5t73 -49.5t49.5 -83.5t18 -118.5t-18 -118t-49.5 -83t-73 -49.5t-89.5 -16.5zM280 36q84 0 132 57t48 164q0 109 -48 165.5t-132 56.5
t-132 -56.5t-48 -165.5q0 -107 48 -164t132 -57z" />
    <glyph glyph-name="ocircumflex" unicode="&#xf4;" horiz-adv-x="560" 
d="M249 700h62l85 -119h-44l-72 81l-72 -81h-44zM280 -10q-48 0 -89.5 16.5t-73 49.5t-49.5 83t-18 118t18 118.5t49.5 83.5t73 49.5t89.5 16.5t89.5 -16.5t73 -49.5t49.5 -83.5t18 -118.5t-18 -118t-49.5 -83t-73 -49.5t-89.5 -16.5zM280 36q84 0 132 57t48 164
q0 109 -48 165.5t-132 56.5t-132 -56.5t-48 -165.5q0 -107 48 -164t132 -57z" />
    <glyph glyph-name="otilde" unicode="&#xf5;" horiz-adv-x="560" 
d="M128 625q24 34 44.5 48t46.5 14q20 0 36 -6.5t30.5 -15t28 -15t27.5 -6.5q17 0 30.5 11.5t27.5 35.5l33 -26q-24 -34 -44.5 -48t-46.5 -14q-19 0 -35 6.5t-30.5 15t-28.5 15t-28 6.5q-17 0 -30.5 -11.5t-27.5 -35.5zM280 -10q-48 0 -89.5 16.5t-73 49.5t-49.5 83t-18 118
t18 118.5t49.5 83.5t73 49.5t89.5 16.5t89.5 -16.5t73 -49.5t49.5 -83.5t18 -118.5t-18 -118t-49.5 -83t-73 -49.5t-89.5 -16.5zM280 36q84 0 132 57t48 164q0 109 -48 165.5t-132 56.5t-132 -56.5t-48 -165.5q0 -107 48 -164t132 -57z" />
    <glyph glyph-name="odieresis" unicode="&#xf6;" horiz-adv-x="560" 
d="M202 613q-17 0 -27.5 10t-10.5 26t10.5 26t27.5 10t27.5 -10t10.5 -26t-10.5 -26t-27.5 -10zM358 613q-17 0 -27.5 10t-10.5 26t10.5 26t27.5 10t27.5 -10t10.5 -26t-10.5 -26t-27.5 -10zM280 -10q-48 0 -89.5 16.5t-73 49.5t-49.5 83t-18 118t18 118.5t49.5 83.5
t73 49.5t89.5 16.5t89.5 -16.5t73 -49.5t49.5 -83.5t18 -118.5t-18 -118t-49.5 -83t-73 -49.5t-89.5 -16.5zM280 36q84 0 132 57t48 164q0 109 -48 165.5t-132 56.5t-132 -56.5t-48 -165.5q0 -107 48 -164t132 -57z" />
    <glyph glyph-name="divide" unicode="&#xf7;" horiz-adv-x="508" 
d="M254 476q-17 0 -27.5 10t-10.5 26t10.5 26t27.5 10t27.5 -10t10.5 -26t-10.5 -26t-27.5 -10zM62 356h384v-44h-384v44zM254 120q-17 0 -27.5 10t-10.5 26t10.5 26t27.5 10t27.5 -10t10.5 -26t-10.5 -26t-27.5 -10z" />
    <glyph glyph-name="oslash" unicode="&#xf8;" horiz-adv-x="560" 
d="M414 484q44 -32 70 -88t26 -139q0 -68 -18 -118t-49.5 -83t-73 -49.5t-89.5 -16.5q-52 0 -98 20l-22 -46l-40 17l25 50q-44 32 -69.5 88t-25.5 138q0 68 18 118.5t49.5 83.5t73 49.5t89.5 16.5q26 0 50 -4.5t46 -14.5l23 46l40 -17zM100 257q0 -63 17 -108.5t49 -73.5
l190 389q-33 15 -76 15q-84 0 -132 -56.5t-48 -165.5zM280 36q84 0 132 57t48 164q0 64 -17.5 110t-49.5 74l-190 -389q32 -16 77 -16z" />
    <glyph glyph-name="ugrave" unicode="&#xf9;" 
d="M172 700h62l63 -119h-42zM250 -10q-41 0 -73.5 11t-55 37t-35 68.5t-12.5 105.5v303h48v-279q0 -59 8 -97.5t25 -61t44 -31.5t65 -9q37 0 69 11.5t54.5 39.5t35.5 74.5t13 116.5v236h48v-515h-37l-8 115q-19 -55 -67 -90t-122 -35z" />
    <glyph glyph-name="uacute" unicode="&#xfa;" 
d="M324 700h62l-83 -119h-42zM250 -10q-41 0 -73.5 11t-55 37t-35 68.5t-12.5 105.5v303h48v-279q0 -59 8 -97.5t25 -61t44 -31.5t65 -9q37 0 69 11.5t54.5 39.5t35.5 74.5t13 116.5v236h48v-515h-37l-8 115q-19 -55 -67 -90t-122 -35z" />
    <glyph glyph-name="ucircumflex" unicode="&#xfb;" 
d="M248 700h62l85 -119h-44l-72 81l-72 -81h-44zM250 -10q-41 0 -73.5 11t-55 37t-35 68.5t-12.5 105.5v303h48v-279q0 -59 8 -97.5t25 -61t44 -31.5t65 -9q37 0 69 11.5t54.5 39.5t35.5 74.5t13 116.5v236h48v-515h-37l-8 115q-19 -55 -67 -90t-122 -35z" />
    <glyph glyph-name="udieresis" unicode="&#xfc;" 
d="M201 613q-17 0 -27.5 10t-10.5 26t10.5 26t27.5 10t27.5 -10t10.5 -26t-10.5 -26t-27.5 -10zM357 613q-17 0 -27.5 10t-10.5 26t10.5 26t27.5 10t27.5 -10t10.5 -26t-10.5 -26t-27.5 -10zM250 -10q-41 0 -73.5 11t-55 37t-35 68.5t-12.5 105.5v303h48v-279q0 -59 8 -97.5
t25 -61t44 -31.5t65 -9q37 0 69 11.5t54.5 39.5t35.5 74.5t13 116.5v236h48v-515h-37l-8 115q-19 -55 -67 -90t-122 -35z" />
    <glyph glyph-name="yacute" unicode="&#xfd;" horiz-adv-x="464" 
d="M277 700h62l-83 -119h-42zM199 21l-179 494h52l155 -435l165 435h52l-269 -680h-46z" />
    <glyph glyph-name="thorn" unicode="&#xfe;" horiz-adv-x="577" 
d="M80 700h48v-293q25 60 75.5 89t114.5 29q43 0 80 -17t64.5 -50.5t43.5 -84t16 -116.5t-16 -116t-43.5 -83.5t-65.5 -50.5t-82 -17q-69 0 -115.5 32t-71.5 86v-273h-48v865zM303 36q85 0 127 58.5t42 162.5q0 106 -42 164t-127 58q-37 0 -69 -12.5t-55.5 -39.5t-37 -69
t-13.5 -101q0 -50 12.5 -90.5t35 -69.5t55 -45t72.5 -16z" />
    <glyph glyph-name="ydieresis" unicode="&#xff;" horiz-adv-x="464" 
d="M154 613q-17 0 -27.5 10t-10.5 26t10.5 26t27.5 10t27.5 -10t10.5 -26t-10.5 -26t-27.5 -10zM310 613q-17 0 -27.5 10t-10.5 26t10.5 26t27.5 10t27.5 -10t10.5 -26t-10.5 -26t-27.5 -10zM199 21l-179 494h52l155 -435l165 435h52l-269 -680h-46z" />
    <glyph glyph-name="Abreve" unicode="&#x102;" horiz-adv-x="616" 
d="M468 200h-320l-73 -200h-50l258 700h50l258 -700h-50zM452 244l-144 398l-144 -398h288zM308 737q-51 0 -77 31.5t-26 83.5h42q0 -35 14 -55t47 -20t47 20t14 55h42q0 -52 -26 -83.5t-77 -31.5z" />
    <glyph glyph-name="abreve" unicode="&#x103;" horiz-adv-x="510" 
d="M256 525q40 0 73 -9.5t57 -31.5t37 -58.5t13 -89.5v-336h-36l-11 97q-27 -54 -75 -80.5t-108 -26.5q-34 0 -62.5 9.5t-49.5 28.5t-32.5 45.5t-11.5 61.5q0 45 19 76.5t52.5 52t79.5 29.5t100 9q20 0 43 -1t44 -3v30q0 43 -7.5 72t-23.5 46.5t-41 25t-60 7.5
q-41 0 -79 -21.5t-57 -76.5l-40 23q13 34 33.5 57t44.5 37.5t49 20.5t49 6zM213 36q35 0 66.5 8t55.5 29.5t38.5 58.5t14.5 95v26q-29 2 -52.5 3.5t-49.5 1.5q-85 0 -135.5 -28.5t-50.5 -88.5q0 -27 9 -47t24.5 -33t36 -19t43.5 -6zM255 585q-51 0 -77 31.5t-26 83.5h42
q0 -35 14 -55t47 -20t47 20t14 55h42q0 -52 -26 -83.5t-77 -31.5z" />
    <glyph glyph-name="Dcroat" unicode="&#x110;" horiz-adv-x="691" 
d="M296 700q171 0 254 -84.5t83 -265.5t-83 -265.5t-254 -84.5h-176v328h-90v44h90v328h176zM296 44q146 0 217.5 73.5t71.5 232.5t-71.5 232.5t-217.5 73.5h-128v-284h186v-44h-186v-284h128z" />
    <glyph glyph-name="dcroat" unicode="&#x111;" horiz-adv-x="577" 
d="M261 -10q-44 0 -81.5 17t-65 50.5t-43.5 83.5t-16 116t16 116.5t43.5 84t65 50.5t81.5 17q63 0 113 -29t75 -89v293h48v-700h-37l-8 115q-11 -27 -29.5 -49.5t-43 -39.5t-54.5 -26.5t-64 -9.5zM274 36q37 0 69 14.5t55.5 42.5t37 69.5t13.5 94.5q0 59 -13.5 101t-37 69
t-55.5 39.5t-69 12.5q-85 0 -127 -58t-42 -164q0 -104 42 -162.5t127 -58.5zM322 622h225v-42h-225v42z" />
    <glyph glyph-name="Itilde" unicode="&#x128;" horiz-adv-x="228" 
d="M90 700h48v-700h-48v700zM-38 810q24 34 44.5 48t46.5 14q20 0 36 -6.5t30.5 -15t28 -15t27.5 -6.5q17 0 30.5 11.5t27.5 35.5l33 -26q-24 -34 -44.5 -48t-46.5 -14q-19 0 -35 6.5t-30.5 15t-28.5 15t-28 6.5q-17 0 -30.5 -11.5t-27.5 -35.5z" />
    <glyph glyph-name="itilde" unicode="&#x129;" horiz-adv-x="208" 
d="M80 515h48v-515h-48v515zM-48 625q24 34 44.5 48t46.5 14q20 0 36 -6.5t30.5 -15t28 -15t27.5 -6.5q17 0 30.5 11.5t27.5 35.5l33 -26q-24 -34 -44.5 -48t-46.5 -14q-19 0 -35 6.5t-30.5 15t-28.5 15t-28 6.5q-17 0 -30.5 -11.5t-27.5 -35.5z" />
    <glyph glyph-name="dotlessi" unicode="&#x131;" horiz-adv-x="208" 
d="M80 515h48v-515h-48v515z" />
    <glyph glyph-name="Lslash" unicode="&#x141;" horiz-adv-x="562" 
d="M530 44v-44h-419v260l-95 -56v48l95 56v392h48v-364l187 109v-48l-187 -109v-244h371z" />
    <glyph glyph-name="lslash" unicode="&#x142;" horiz-adv-x="308" 
d="M290 419l-112 -65v-354h-48v326l-112 -65v50l112 65v324h48v-296l112 65v-50z" />
    <glyph glyph-name="OE" unicode="&#x152;" horiz-adv-x="1103" 
d="M366 -10q-63 0 -119 23t-98 68t-66.5 112.5t-24.5 156.5q0 88 24.5 155.5t66.5 113t98 68.5t119 23q85 0 153.5 -38t105.5 -123v151h429v-44h-381v-271h352v-44h-352v-297h386v-44h-434v150q-37 -81 -105.5 -120.5t-153.5 -39.5zM366 36q52 0 98.5 19t82 58t56 98
t20.5 139q0 79 -20.5 138t-56 98t-82 58.5t-98.5 19.5q-51 0 -97.5 -19.5t-82 -58.5t-57 -98t-21.5 -138q0 -80 21.5 -139t57 -98t82 -58t97.5 -19z" />
    <glyph glyph-name="oe" unicode="&#x153;" horiz-adv-x="944" 
d="M280 -10q-48 0 -89.5 16.5t-73 49.5t-49.5 83t-18 118t18 118.5t49.5 83.5t73 49.5t89.5 16.5q34 0 66.5 -9.5t60 -28t48 -46t31.5 -63.5q10 36 31 63.5t48 46t58 28t62 9.5q46 0 83.5 -14t64 -41t41 -65.5t14.5 -86.5q0 -17 -1.5 -33.5t-4.5 -38.5h-372q3 -102 52 -156
t126 -54q118 0 156 100l46 -10q-27 -71 -81.5 -103.5t-120.5 -32.5q-32 0 -63.5 8.5t-58.5 27t-48.5 46.5t-31.5 67q-12 -39 -33.5 -67.5t-48.5 -46.5t-58.5 -26.5t-65.5 -8.5zM280 36q84 0 132 55.5t48 165.5q0 109 -48 165.5t-132 56.5t-132 -56.5t-48 -165.5
q0 -107 48 -164t132 -57zM840 290q1 12 1 16.5v10.5q0 77 -40.5 119.5t-115.5 42.5q-71 0 -118.5 -48t-55.5 -141h329z" />
    <glyph glyph-name="Scaron" unicode="&#x160;" 
d="M209 885l72 -81l72 81h44l-85 -119h-62l-85 119h44zM296 -10q-60 0 -105 17t-76.5 44.5t-49.5 61.5t-25 69l43 17q20 -75 72 -119t141 -44q37 0 68.5 9t54 27t35 45t12.5 64q0 29 -11 51t-29 38.5t-42 28t-51 19.5l-106 32q-77 23 -116.5 68t-39.5 117q0 39 15 71
t42.5 55t66.5 36t86 13q84 0 138.5 -43t73.5 -125l-42 -18q-9 40 -27 67t-41.5 43t-50 23t-51.5 7q-78 0 -119 -36t-41 -93q0 -51 29.5 -87t99.5 -57l106 -31q36 -11 65.5 -26t50.5 -37t32.5 -51t11.5 -67q0 -46 -17 -81t-47 -59t-70 -36.5t-86 -12.5z" />
    <glyph glyph-name="scaron" unicode="&#x161;" horiz-adv-x="460" 
d="M157 700l72 -81l72 81h44l-85 -119h-62l-85 119h44zM240 -10q-74 0 -125.5 39t-74.5 105l40 17q25 -62 66.5 -88.5t93.5 -26.5t87.5 25t35.5 73q0 41 -24 62.5t-73 35.5l-85 24q-54 15 -83 48t-29 84q0 34 14 60t36.5 43t51 25.5t58.5 8.5q36 0 62.5 -8.5t45.5 -23.5
t32 -36t21 -47l-40 -17q-12 39 -39.5 63t-81.5 24q-53 0 -83 -25t-30 -63q0 -34 17.5 -56t67.5 -36l85 -24q57 -17 90.5 -48t33.5 -87q0 -36 -12.5 -64t-35 -47.5t-54 -29.5t-68.5 -10z" />
    <glyph glyph-name="Utilde" unicode="&#x168;" horiz-adv-x="686" 
d="M343 -10q-64 0 -112 16.5t-80.5 55t-49 100.5t-16.5 153v385h48v-385q0 -78 13 -131.5t39 -86t65.5 -47t92.5 -14.5q52 0 91 14.5t65.5 47t40 86t13.5 131.5v385h48l-1 -385q0 -91 -17 -153t-49.5 -100.5t-80 -55t-110.5 -16.5zM191 810q24 34 44.5 48t46.5 14
q20 0 36 -6.5t30.5 -15t28 -15t27.5 -6.5q17 0 30.5 11.5t27.5 35.5l33 -26q-24 -34 -44.5 -48t-46.5 -14q-19 0 -35 6.5t-30.5 15t-28.5 15t-28 6.5q-17 0 -30.5 -11.5t-27.5 -35.5z" />
    <glyph glyph-name="utilde" unicode="&#x169;" 
d="M250 -10q-41 0 -73.5 11t-55 37t-35 68.5t-12.5 105.5v303h48v-279q0 -59 8 -97.5t25 -61t44 -31.5t65 -9q37 0 69 11.5t54.5 39.5t35.5 74.5t13 116.5v236h48v-515h-37l-8 115q-19 -55 -67 -90t-122 -35zM130 625q24 34 44.5 48t46.5 14q20 0 36 -6.5t30.5 -15t28 -15
t27.5 -6.5q17 0 30.5 11.5t27.5 35.5l33 -26q-24 -34 -44.5 -48t-46.5 -14q-19 0 -35 6.5t-30.5 15t-28.5 15t-28 6.5q-17 0 -30.5 -11.5t-27.5 -35.5z" />
    <glyph glyph-name="Ydieresis" unicode="&#x178;" horiz-adv-x="554" 
d="M199 798q-17 0 -27.5 10t-10.5 26t10.5 26t27.5 10t27.5 -10t10.5 -26t-10.5 -26t-27.5 -10zM355 798q-17 0 -27.5 10t-10.5 26t10.5 26t27.5 10t27.5 -10t10.5 -26t-10.5 -26t-27.5 -10zM301 250v-250h-48v250l-233 450h53l204 -400l204 400h53z" />
    <glyph glyph-name="Zcaron" unicode="&#x17d;" horiz-adv-x="529" 
d="M201 885l72 -81l72 81h44l-85 -119h-62l-85 119h44zM44 42l385 615h-363v43h415v-42l-385 -615h389v-43h-441v42z" />
    <glyph glyph-name="zcaron" unicode="&#x17e;" horiz-adv-x="462" 
d="M159 700l72 -81l72 81h44l-85 -119h-62l-85 119h44zM48 42l301 430h-282v43h338v-42l-303 -430h312v-43h-366v42z" />
    <glyph glyph-name="florin" unicode="&#x192;" horiz-adv-x="524" 
d="M389 666q-21 0 -37.5 -5t-29.5 -19.5t-21.5 -40.5t-13.5 -67l-18 -151h178v-44h-183l-40 -347q-11 -91 -47.5 -129t-97.5 -38q-38 0 -68.5 13t-50.5 30l22 38q21 -18 45.5 -27.5t47.5 -9.5q21 0 37.5 5t29 19.5t21.5 40t14 66.5l39 339h-136v44h141l19 160
q11 91 47.5 129t97.5 38q38 0 68.5 -13t50.5 -30l-22 -38q-21 18 -45.5 27.5t-47.5 9.5z" />
    <glyph glyph-name="Ohorn" unicode="&#x1a0;" horiz-adv-x="741" 
d="M371 -10q-65 0 -122 23t-99.5 68t-67 112.5t-24.5 156.5q0 88 24.5 155.5t67 113t99.5 68.5t122 23t122 -23t99 -68.5t66.5 -113t24.5 -155.5q0 -89 -24.5 -156.5t-66.5 -112.5t-99 -68t-122 -23zM371 36q52 0 99.5 19t83.5 58t57.5 98t21.5 139q0 79 -21.5 138t-57.5 98
t-83.5 58.5t-99.5 19.5q-53 0 -100.5 -19.5t-83.5 -58.5t-57.5 -98t-21.5 -138q0 -80 21.5 -139t57.5 -98t83.5 -58t100.5 -19zM683 748q0 -76 -29.5 -108.5t-99.5 -32.5v44q28 -2 45 4.5t26.5 19t13 31.5t3.5 42h41v0z" />
    <glyph glyph-name="ohorn" unicode="&#x1a1;" horiz-adv-x="560" 
d="M280 -10q-48 0 -89.5 16.5t-73 49.5t-49.5 83t-18 118t18 118.5t49.5 83.5t73 49.5t89.5 16.5t89.5 -16.5t73 -49.5t49.5 -83.5t18 -118.5t-18 -118t-49.5 -83t-73 -49.5t-89.5 -16.5zM280 36q84 0 132 57t48 164q0 109 -48 165.5t-132 56.5t-132 -56.5t-48 -165.5
q0 -107 48 -164t132 -57zM547 574q0 -76 -29.5 -108.5t-99.5 -32.5v44q28 -2 45 4.5t26.5 19t13 31.5t3.5 42h41v0z" />
    <glyph glyph-name="Uhorn" unicode="&#x1af;" horiz-adv-x="686" 
d="M343 -10q-64 0 -112 16.5t-80.5 55t-49 100.5t-16.5 153v385h48v-385q0 -78 13 -131.5t39 -86t65.5 -47t92.5 -14.5q52 0 91 14.5t65.5 47t40 86t13.5 131.5v385h48l-1 -385q0 -91 -17 -153t-49.5 -100.5t-80 -55t-110.5 -16.5zM710 749q0 -76 -29.5 -108.5t-99.5 -32.5
v44q28 -2 45 4.5t26.5 19t13 31.5t3.5 42h41v0z" />
    <glyph glyph-name="uhorn" unicode="&#x1b0;" 
d="M250 -10q-41 0 -73.5 11t-55 37t-35 68.5t-12.5 105.5v303h48v-279q0 -59 8 -97.5t25 -61t44 -31.5t65 -9q37 0 69 11.5t54.5 39.5t35.5 74.5t13 116.5v236h48v-515h-37l-8 115q-19 -55 -67 -90t-122 -35zM589 574q0 -76 -29.5 -108.5t-99.5 -32.5v44q28 -2 45 4.5
t26.5 19t13 31.5t3.5 42h41v0z" />
    <glyph glyph-name="circumflex" unicode="&#x2c6;" horiz-adv-x="280" 
d="M109 700h62l85 -119h-44l-72 81l-72 -81h-44z" />
    <glyph glyph-name="caron" unicode="&#x2c7;" horiz-adv-x="280" 
d="M68 700l72 -81l72 81h44l-85 -119h-62l-85 119h44z" />
    <glyph glyph-name="macron_" unicode="&#x2c9;" horiz-adv-x="225" 
d="M0 660h225v-40h-225v40z" />
    <glyph glyph-name="breve" unicode="&#x2d8;" horiz-adv-x="314" 
d="M157 585q-51 0 -77 31.5t-26 83.5h42q0 -35 14 -55t47 -20t47 20t14 55h42q0 -52 -26 -83.5t-77 -31.5z" />
    <glyph glyph-name="dotaccent" unicode="&#x2d9;" horiz-adv-x="208" 
d="M104 613q-17 0 -27.5 10t-10.5 26t10.5 26t27.5 10t27.5 -10t10.5 -26t-10.5 -26t-27.5 -10z" />
    <glyph glyph-name="ring" unicode="&#x2da;" horiz-adv-x="302" 
d="M151 566q-36 0 -60.5 21.5t-24.5 60.5t24.5 60.5t60.5 21.5t60.5 -21.5t24.5 -60.5t-24.5 -60.5t-60.5 -21.5zM151 601q22 0 34.5 12t12.5 35t-12.5 35t-34.5 12t-34.5 -12t-12.5 -35t12.5 -35t34.5 -12z" />
    <glyph glyph-name="ogonek" unicode="&#x2db;" horiz-adv-x="253" 
d="M138 -175q-35 0 -56.5 20.5t-21.5 54.5q0 25 15 52.5t54 47.5h48q-38 -18 -58.5 -44t-20.5 -52q0 -23 12 -33.5t32 -10.5t41 16l14 -31q-25 -20 -59 -20z" />
    <glyph glyph-name="tilde" unicode="&#x2dc;" horiz-adv-x="435" 
d="M73 625q24 34 44.5 48t46.5 14q20 0 36 -6.5t30.5 -15t28 -15t27.5 -6.5q17 0 30.5 11.5t27.5 35.5l33 -26q-24 -34 -44.5 -48t-46.5 -14q-19 0 -35 6.5t-30.5 15t-28.5 15t-28 6.5q-17 0 -30.5 -11.5t-27.5 -35.5z" />
    <glyph glyph-name="hungarumlaut" unicode="&#x2dd;" horiz-adv-x="343" 
d="M97 700h62l-83 -119h-42zM257 700h62l-83 -119h-42z" />
    <glyph glyph-name="gravecomb" unicode="&#x300;" horiz-adv-x="0" 
d="M-125 700h62l63 -119h-42z" />
    <glyph glyph-name="acutecomb" unicode="&#x301;" horiz-adv-x="0" 
d="M-62 700h62l-83 -119h-42z" />
    <glyph glyph-name="circumflexcmb" unicode="&#x302;" horiz-adv-x="0" 
d="M-147 700h62l85 -119h-44l-72 81l-72 -81h-44z" />
    <glyph glyph-name="tildecomb" unicode="&#x303;" horiz-adv-x="0" 
d="M-304 625q24 34 44.5 48t46.5 14q20 0 36 -6.5t30.5 -15t28 -15t27.5 -6.5q17 0 30.5 11.5t27.5 35.5l33 -26q-24 -34 -44.5 -48t-46.5 -14q-19 0 -35 6.5t-30.5 15t-28.5 15t-28 6.5q-17 0 -30.5 -11.5t-27.5 -35.5z" />
    <glyph glyph-name="brevecmb" unicode="&#x306;" horiz-adv-x="314" 
d="M157 585q-51 0 -77 31.5t-26 83.5h42q0 -35 14 -55t47 -20t47 20t14 55h42q0 -52 -26 -83.5t-77 -31.5z" />
    <glyph glyph-name="dieresiscmb" unicode="&#x308;" horiz-adv-x="0" 
d="M-194 613q-17 0 -27.5 10t-10.5 26t10.5 26t27.5 10t27.5 -10t10.5 -26t-10.5 -26t-27.5 -10zM-38 613q-17 0 -27.5 10t-10.5 26t10.5 26t27.5 10t27.5 -10t10.5 -26t-10.5 -26t-27.5 -10z" />
    <glyph glyph-name="hookcmb" unicode="&#x309;" horiz-adv-x="333" 
d="M137 596l1 11q0 17 8.5 27t18.5 17l16 11q10 7 13 12.5t3 12.5q0 10 -10 23.5t-33 13.5q-33 0 -39 -33l-4 -13l-31 14l2 9q14 58 72 58q21 0 36 -6.5t25 -17t14.5 -23.5t4.5 -25q0 -21 -10 -33t-21 -18l-17 -13q-9 -5 -11.5 -8.5t-2.5 -8.5v-10h-35z" />
    <glyph glyph-name="ringcmb" unicode="&#x30a;" horiz-adv-x="0" 
d="M-85 566q-36 0 -60.5 21.5t-24.5 60.5t24.5 60.5t60.5 21.5t60.5 -21.5t24.5 -60.5t-24.5 -60.5t-60.5 -21.5zM-85 601q22 0 34.5 12t12.5 35t-12.5 35t-34.5 12t-34.5 -12t-12.5 -35t12.5 -35t34.5 -12z" />
    <glyph glyph-name="caroncmb" unicode="&#x30c;" horiz-adv-x="0" 
d="M-188 700l72 -81l72 81h44l-85 -119h-62l-85 119h44z" />
    <glyph glyph-name="horncmb" unicode="&#x31b;" horiz-adv-x="333" 
d="M269 671q0 -76 -29.5 -108.5t-99.5 -32.5v44q28 -2 45 4.5t26.5 19t13 31.5t3.5 42h41v0z" />
    <glyph glyph-name="dotsubnosp" unicode="&#x323;" horiz-adv-x="208" 
d="M104 -123q-17 0 -27.5 10t-10.5 26t10.5 26t27.5 10t27.5 -10t10.5 -26t-10.5 -26t-27.5 -10z" />
    <glyph glyph-name="cedillacmb" unicode="&#x327;" horiz-adv-x="0" 
d="M-37 0h35l-32 -130h-48z" />
    <glyph glyph-name="slashcomb" unicode="&#x337;" horiz-adv-x="0" 
d="M-272 294l272 158v-50l-272 -158v50z" />
    <glyph glyph-name="slashlongcomb" unicode="&#x338;" horiz-adv-x="0" 
d="M-319 -19l279 571l40 -17l-279 -571z" />
    <glyph glyph-name="pi" unicode="&#x3c0;" horiz-adv-x="711" 
d="M542 188q0 -39 5.5 -65.5t18 -43t33.5 -24.5t52 -11l-8 -44q-77 5 -112 44.5t-35 128.5v298h-287v-471h-48v471h-113v44h609v-44h-113z" />
    <glyph glyph-name="uni1EA0" unicode="&#x1ea0;" horiz-adv-x="616" 
d="M468 200h-320l-73 -200h-50l258 700h50l258 -700h-50zM452 244l-144 398l-144 -398h288zM308 -123q-17 0 -27.5 10t-10.5 26t10.5 26t27.5 10t27.5 -10t10.5 -26t-10.5 -26t-27.5 -10z" />
    <glyph glyph-name="uni1EA1" unicode="&#x1ea1;" horiz-adv-x="510" 
d="M256 525q40 0 73 -9.5t57 -31.5t37 -58.5t13 -89.5v-336h-36l-11 97q-27 -54 -75 -80.5t-108 -26.5q-34 0 -62.5 9.5t-49.5 28.5t-32.5 45.5t-11.5 61.5q0 45 19 76.5t52.5 52t79.5 29.5t100 9q20 0 43 -1t44 -3v30q0 43 -7.5 72t-23.5 46.5t-41 25t-60 7.5
q-41 0 -79 -21.5t-57 -76.5l-40 23q13 34 33.5 57t44.5 37.5t49 20.5t49 6zM213 36q35 0 66.5 8t55.5 29.5t38.5 58.5t14.5 95v26q-29 2 -52.5 3.5t-49.5 1.5q-85 0 -135.5 -28.5t-50.5 -88.5q0 -27 9 -47t24.5 -33t36 -19t43.5 -6zM255 -123q-17 0 -27.5 10t-10.5 26
t10.5 26t27.5 10t27.5 -10t10.5 -26t-10.5 -26t-27.5 -10z" />
    <glyph glyph-name="uni1EA2" unicode="&#x1ea2;" horiz-adv-x="616" 
d="M468 200h-320l-73 -200h-50l258 700h50l258 -700h-50zM452 244l-144 398l-144 -398h288zM288 755l1 11q0 17 8.5 27t18.5 17l16 11q10 7 13 12.5t3 12.5q0 10 -10 23.5t-33 13.5q-33 0 -39 -33l-4 -13l-31 14l2 9q14 58 72 58q21 0 36 -6.5t25 -17t14.5 -23.5t4.5 -25
q0 -21 -10 -33t-21 -18l-17 -13q-9 -5 -11.5 -8.5t-2.5 -8.5v-10h-35z" />
    <glyph glyph-name="uni1EA3" unicode="&#x1ea3;" horiz-adv-x="510" 
d="M256 525q40 0 73 -9.5t57 -31.5t37 -58.5t13 -89.5v-336h-36l-11 97q-27 -54 -75 -80.5t-108 -26.5q-34 0 -62.5 9.5t-49.5 28.5t-32.5 45.5t-11.5 61.5q0 45 19 76.5t52.5 52t79.5 29.5t100 9q20 0 43 -1t44 -3v30q0 43 -7.5 72t-23.5 46.5t-41 25t-60 7.5
q-41 0 -79 -21.5t-57 -76.5l-40 23q13 34 33.5 57t44.5 37.5t49 20.5t49 6zM213 36q35 0 66.5 8t55.5 29.5t38.5 58.5t14.5 95v26q-29 2 -52.5 3.5t-49.5 1.5q-85 0 -135.5 -28.5t-50.5 -88.5q0 -27 9 -47t24.5 -33t36 -19t43.5 -6zM235 596l1 11q0 17 8.5 27t18.5 17l16 11
q10 7 13 12.5t3 12.5q0 10 -10 23.5t-33 13.5q-33 0 -39 -33l-4 -13l-31 14l2 9q14 58 72 58q21 0 36 -6.5t25 -17t14.5 -23.5t4.5 -25q0 -21 -10 -33t-21 -18l-17 -13q-9 -5 -11.5 -8.5t-2.5 -8.5v-10h-35z" />
    <glyph glyph-name="uni1EA4" unicode="&#x1ea4;" horiz-adv-x="616" 
d="M236 730h-44l85 119h62l85 -119h-44l-72 81zM468 200h-320l-73 -200h-50l258 700h50l258 -700h-50zM452 244l-144 398l-144 -398h288zM439 966h62l-83 -119h-42z" />
    <glyph glyph-name="uni1EA5" unicode="&#x1ea5;" horiz-adv-x="510" 
d="M187 581h-44l85 119h62l85 -119h-44l-72 81zM256 525q40 0 73 -9.5t57 -31.5t37 -58.5t13 -89.5v-336h-36l-11 97q-27 -54 -75 -80.5t-108 -26.5q-34 0 -62.5 9.5t-49.5 28.5t-32.5 45.5t-11.5 61.5q0 45 19 76.5t52.5 52t79.5 29.5t100 9q20 0 43 -1t44 -3v30
q0 43 -7.5 72t-23.5 46.5t-41 25t-60 7.5q-41 0 -79 -21.5t-57 -76.5l-40 23q13 34 33.5 57t44.5 37.5t49 20.5t49 6zM213 36q35 0 66.5 8t55.5 29.5t38.5 58.5t14.5 95v26q-29 2 -52.5 3.5t-49.5 1.5q-85 0 -135.5 -28.5t-50.5 -88.5q0 -27 9 -47t24.5 -33t36 -19t43.5 -6z
M388 819h62l-83 -119h-42z" />
    <glyph glyph-name="uni1EA6" unicode="&#x1ea6;" horiz-adv-x="616" 
d="M236 730h-44l85 119h62l85 -119h-44l-72 81zM468 200h-320l-73 -200h-50l258 700h50l258 -700h-50zM452 244l-144 398l-144 -398h288zM321 968h62l63 -119h-42z" />
    <glyph glyph-name="uni1EA7" unicode="&#x1ea7;" horiz-adv-x="510" 
d="M187 581h-44l85 119h62l85 -119h-44l-72 81zM256 525q40 0 73 -9.5t57 -31.5t37 -58.5t13 -89.5v-336h-36l-11 97q-27 -54 -75 -80.5t-108 -26.5q-34 0 -62.5 9.5t-49.5 28.5t-32.5 45.5t-11.5 61.5q0 45 19 76.5t52.5 52t79.5 29.5t100 9q20 0 43 -1t44 -3v30
q0 43 -7.5 72t-23.5 46.5t-41 25t-60 7.5q-41 0 -79 -21.5t-57 -76.5l-40 23q13 34 33.5 57t44.5 37.5t49 20.5t49 6zM213 36q35 0 66.5 8t55.5 29.5t38.5 58.5t14.5 95v26q-29 2 -52.5 3.5t-49.5 1.5q-85 0 -135.5 -28.5t-50.5 -88.5q0 -27 9 -47t24.5 -33t36 -19t43.5 -6z
M269 819h62l63 -119h-42z" />
    <glyph glyph-name="uni1EA8" unicode="&#x1ea8;" horiz-adv-x="616" 
d="M236 730h-44l85 119h62l85 -119h-44l-72 81zM468 200h-320l-73 -200h-50l258 700h50l258 -700h-50zM452 244l-144 398l-144 -398h288zM380 848l1 11q0 17 8.5 27t18.5 17l16 11q10 7 13 12.5t3 12.5q0 10 -10 23.5t-33 13.5q-33 0 -39 -33l-4 -13l-31 14l2 9q14 58 72 58
q21 0 36 -6.5t25 -17t14.5 -23.5t4.5 -25q0 -21 -10 -33t-21 -18l-17 -13q-9 -5 -11.5 -8.5t-2.5 -8.5v-10h-35z" />
    <glyph glyph-name="uni1EA9" unicode="&#x1ea9;" horiz-adv-x="510" 
d="M187 581h-44l85 119h62l85 -119h-44l-72 81zM256 525q40 0 73 -9.5t57 -31.5t37 -58.5t13 -89.5v-336h-36l-11 97q-27 -54 -75 -80.5t-108 -26.5q-34 0 -62.5 9.5t-49.5 28.5t-32.5 45.5t-11.5 61.5q0 45 19 76.5t52.5 52t79.5 29.5t100 9q20 0 43 -1t44 -3v30
q0 43 -7.5 72t-23.5 46.5t-41 25t-60 7.5q-41 0 -79 -21.5t-57 -76.5l-40 23q13 34 33.5 57t44.5 37.5t49 20.5t49 6zM213 36q35 0 66.5 8t55.5 29.5t38.5 58.5t14.5 95v26q-29 2 -52.5 3.5t-49.5 1.5q-85 0 -135.5 -28.5t-50.5 -88.5q0 -27 9 -47t24.5 -33t36 -19t43.5 -6z
M339 700l1 11q0 17 8.5 27t18.5 17l16 11q10 7 13 12.5t3 12.5q0 10 -10 23.5t-33 13.5q-33 0 -39 -33l-4 -13l-31 14l2 9q14 58 72 58q21 0 36 -6.5t25 -17t14.5 -23.5t4.5 -25q0 -21 -10 -33t-21 -18l-17 -13q-9 -5 -11.5 -8.5t-2.5 -8.5v-10h-35z" />
    <glyph glyph-name="uni1EAA" unicode="&#x1eaa;" horiz-adv-x="616" 
d="M236 730h-44l85 119h62l85 -119h-44l-72 81zM468 200h-320l-73 -200h-50l258 700h50l258 -700h-50zM452 244l-144 398l-144 -398h288zM153 894q24 34 44.5 48t46.5 14q20 0 36 -6.5t30.5 -15t28 -15t27.5 -6.5q17 0 30.5 11.5t27.5 35.5l33 -26q-24 -34 -44.5 -48
t-46.5 -14q-19 0 -35 6.5t-30.5 15t-28.5 15t-28 6.5q-17 0 -30.5 -11.5t-27.5 -35.5z" />
    <glyph glyph-name="uni1EAB" unicode="&#x1eab;" horiz-adv-x="510" 
d="M187 581h-44l85 119h62l85 -119h-44l-72 81zM256 525q40 0 73 -9.5t57 -31.5t37 -58.5t13 -89.5v-336h-36l-11 97q-27 -54 -75 -80.5t-108 -26.5q-34 0 -62.5 9.5t-49.5 28.5t-32.5 45.5t-11.5 61.5q0 45 19 76.5t52.5 52t79.5 29.5t100 9q20 0 43 -1t44 -3v30
q0 43 -7.5 72t-23.5 46.5t-41 25t-60 7.5q-41 0 -79 -21.5t-57 -76.5l-40 23q13 34 33.5 57t44.5 37.5t49 20.5t49 6zM213 36q35 0 66.5 8t55.5 29.5t38.5 58.5t14.5 95v26q-29 2 -52.5 3.5t-49.5 1.5q-85 0 -135.5 -28.5t-50.5 -88.5q0 -27 9 -47t24.5 -33t36 -19t43.5 -6z
M104 756q24 34 44.5 48t46.5 14q20 0 36 -6.5t30.5 -15t28 -15t27.5 -6.5q17 0 30.5 11.5t27.5 35.5l33 -26q-24 -34 -44.5 -48t-46.5 -14q-19 0 -35 6.5t-30.5 15t-28.5 15t-28 6.5q-17 0 -30.5 -11.5t-27.5 -35.5z" />
    <glyph glyph-name="Acircumflexdotbelow" unicode="&#x1eac;" horiz-adv-x="616" 
d="M468 200h-320l-73 -200h-50l258 700h50l258 -700h-50zM452 244l-144 398l-144 -398h288zM308 -123q-17 0 -27.5 10t-10.5 26t10.5 26t27.5 10t27.5 -10t10.5 -26t-10.5 -26t-27.5 -10zM277 849h62l85 -119h-44l-72 81l-72 -81h-44z" />
    <glyph glyph-name="acircumflexdotbelow" unicode="&#x1ead;" horiz-adv-x="510" 
d="M256 525q40 0 73 -9.5t57 -31.5t37 -58.5t13 -89.5v-336h-36l-11 97q-27 -54 -75 -80.5t-108 -26.5q-34 0 -62.5 9.5t-49.5 28.5t-32.5 45.5t-11.5 61.5q0 45 19 76.5t52.5 52t79.5 29.5t100 9q20 0 43 -1t44 -3v30q0 43 -7.5 72t-23.5 46.5t-41 25t-60 7.5
q-41 0 -79 -21.5t-57 -76.5l-40 23q13 34 33.5 57t44.5 37.5t49 20.5t49 6zM213 36q35 0 66.5 8t55.5 29.5t38.5 58.5t14.5 95v26q-29 2 -52.5 3.5t-49.5 1.5q-85 0 -135.5 -28.5t-50.5 -88.5q0 -27 9 -47t24.5 -33t36 -19t43.5 -6zM255 -123q-17 0 -27.5 10t-10.5 26
t10.5 26t27.5 10t27.5 -10t10.5 -26t-10.5 -26t-27.5 -10zM224 700h62l85 -119h-44l-72 81l-72 -81h-44z" />
    <glyph glyph-name="uni1EAE" unicode="&#x1eae;" horiz-adv-x="616" 
d="M468 200h-320l-73 -200h-50l258 700h50l258 -700h-50zM452 244l-144 398l-144 -398h288zM308 737q-51 0 -77 31.5t-26 83.5h42q0 -35 14 -55t47 -20t47 20t14 55h42q0 -52 -26 -83.5t-77 -31.5zM349 974h62l-83 -119h-42z" />
    <glyph glyph-name="uni1EAF" unicode="&#x1eaf;" horiz-adv-x="510" 
d="M256 525q40 0 73 -9.5t57 -31.5t37 -58.5t13 -89.5v-336h-36l-11 97q-27 -54 -75 -80.5t-108 -26.5q-34 0 -62.5 9.5t-49.5 28.5t-32.5 45.5t-11.5 61.5q0 45 19 76.5t52.5 52t79.5 29.5t100 9q20 0 43 -1t44 -3v30q0 43 -7.5 72t-23.5 46.5t-41 25t-60 7.5
q-41 0 -79 -21.5t-57 -76.5l-40 23q13 34 33.5 57t44.5 37.5t49 20.5t49 6zM213 36q35 0 66.5 8t55.5 29.5t38.5 58.5t14.5 95v26q-29 2 -52.5 3.5t-49.5 1.5q-85 0 -135.5 -28.5t-50.5 -88.5q0 -27 9 -47t24.5 -33t36 -19t43.5 -6zM255 585q-51 0 -77 31.5t-26 83.5h42
q0 -35 14 -55t47 -20t47 20t14 55h42q0 -52 -26 -83.5t-77 -31.5zM286 819h62l-83 -119h-42z" />
    <glyph glyph-name="uni1EB0" unicode="&#x1eb0;" horiz-adv-x="616" 
d="M468 200h-320l-73 -200h-50l258 700h50l258 -700h-50zM452 244l-144 398l-144 -398h288zM308 737q-51 0 -77 31.5t-26 83.5h42q0 -35 14 -55t47 -20t47 20t14 55h42q0 -52 -26 -83.5t-77 -31.5zM221 969h62l63 -119h-42z" />
    <glyph glyph-name="uni1EB1" unicode="&#x1eb1;" horiz-adv-x="510" 
d="M256 525q40 0 73 -9.5t57 -31.5t37 -58.5t13 -89.5v-336h-36l-11 97q-27 -54 -75 -80.5t-108 -26.5q-34 0 -62.5 9.5t-49.5 28.5t-32.5 45.5t-11.5 61.5q0 45 19 76.5t52.5 52t79.5 29.5t100 9q20 0 43 -1t44 -3v30q0 43 -7.5 72t-23.5 46.5t-41 25t-60 7.5
q-41 0 -79 -21.5t-57 -76.5l-40 23q13 34 33.5 57t44.5 37.5t49 20.5t49 6zM213 36q35 0 66.5 8t55.5 29.5t38.5 58.5t14.5 95v26q-29 2 -52.5 3.5t-49.5 1.5q-85 0 -135.5 -28.5t-50.5 -88.5q0 -27 9 -47t24.5 -33t36 -19t43.5 -6zM255 585q-51 0 -77 31.5t-26 83.5h42
q0 -35 14 -55t47 -20t47 20t14 55h42q0 -52 -26 -83.5t-77 -31.5zM159 819h62l63 -119h-42z" />
    <glyph glyph-name="uni1EB2" unicode="&#x1eb2;" horiz-adv-x="616" 
d="M468 200h-320l-73 -200h-50l258 700h50l258 -700h-50zM452 244l-144 398l-144 -398h288zM308 737q-51 0 -77 31.5t-26 83.5h42q0 -35 14 -55t47 -20t47 20t14 55h42q0 -52 -26 -83.5t-77 -31.5zM288 857l1 11q0 17 8.5 27t18.5 17l16 11q10 7 13 12.5t3 12.5
q0 10 -10 23.5t-33 13.5q-33 0 -39 -33l-4 -13l-31 14l2 9q14 58 72 58q21 0 36 -6.5t25 -17t14.5 -23.5t4.5 -25q0 -21 -10 -33t-21 -18l-17 -13q-9 -5 -11.5 -8.5t-2.5 -8.5v-10h-35z" />
    <glyph glyph-name="uni1EB3" unicode="&#x1eb3;" horiz-adv-x="510" 
d="M256 525q40 0 73 -9.5t57 -31.5t37 -58.5t13 -89.5v-336h-36l-11 97q-27 -54 -75 -80.5t-108 -26.5q-34 0 -62.5 9.5t-49.5 28.5t-32.5 45.5t-11.5 61.5q0 45 19 76.5t52.5 52t79.5 29.5t100 9q20 0 43 -1t44 -3v30q0 43 -7.5 72t-23.5 46.5t-41 25t-60 7.5
q-41 0 -79 -21.5t-57 -76.5l-40 23q13 34 33.5 57t44.5 37.5t49 20.5t49 6zM213 36q35 0 66.5 8t55.5 29.5t38.5 58.5t14.5 95v26q-29 2 -52.5 3.5t-49.5 1.5q-85 0 -135.5 -28.5t-50.5 -88.5q0 -27 9 -47t24.5 -33t36 -19t43.5 -6zM255 585q-51 0 -77 31.5t-26 83.5h42
q0 -35 14 -55t47 -20t47 20t14 55h42q0 -52 -26 -83.5t-77 -31.5zM235 713l1 11q0 17 8.5 27t18.5 17l16 11q10 7 13 12.5t3 12.5q0 10 -10 23.5t-33 13.5q-33 0 -39 -33l-4 -13l-31 14l2 9q14 58 72 58q21 0 36 -6.5t25 -17t14.5 -23.5t4.5 -25q0 -21 -10 -33t-21 -18
l-17 -13q-9 -5 -11.5 -8.5t-2.5 -8.5v-10h-35z" />
    <glyph glyph-name="uni1EB4" unicode="&#x1eb4;" horiz-adv-x="616" 
d="M468 200h-320l-73 -200h-50l258 700h50l258 -700h-50zM452 244l-144 398l-144 -398h288zM308 737q-51 0 -77 31.5t-26 83.5h42q0 -35 14 -55t47 -20t47 20t14 55h42q0 -52 -26 -83.5t-77 -31.5zM156 917q24 34 44.5 48t46.5 14q20 0 36 -6.5t30.5 -15t28 -15t27.5 -6.5
q17 0 30.5 11.5t27.5 35.5l33 -26q-24 -34 -44.5 -48t-46.5 -14q-19 0 -35 6.5t-30.5 15t-28.5 15t-28 6.5q-17 0 -30.5 -11.5t-27.5 -35.5z" />
    <glyph glyph-name="uni1EB5" unicode="&#x1eb5;" horiz-adv-x="510" 
d="M256 525q40 0 73 -9.5t57 -31.5t37 -58.5t13 -89.5v-336h-36l-11 97q-27 -54 -75 -80.5t-108 -26.5q-34 0 -62.5 9.5t-49.5 28.5t-32.5 45.5t-11.5 61.5q0 45 19 76.5t52.5 52t79.5 29.5t100 9q20 0 43 -1t44 -3v30q0 43 -7.5 72t-23.5 46.5t-41 25t-60 7.5
q-41 0 -79 -21.5t-57 -76.5l-40 23q13 34 33.5 57t44.5 37.5t49 20.5t49 6zM213 36q35 0 66.5 8t55.5 29.5t38.5 58.5t14.5 95v26q-29 2 -52.5 3.5t-49.5 1.5q-85 0 -135.5 -28.5t-50.5 -88.5q0 -27 9 -47t24.5 -33t36 -19t43.5 -6zM255 585q-51 0 -77 31.5t-26 83.5h42
q0 -35 14 -55t47 -20t47 20t14 55h42q0 -52 -26 -83.5t-77 -31.5zM115 763q24 34 44.5 48t46.5 14q20 0 36 -6.5t30.5 -15t28 -15t27.5 -6.5q17 0 30.5 11.5t27.5 35.5l33 -26q-24 -34 -44.5 -48t-46.5 -14q-19 0 -35 6.5t-30.5 15t-28.5 15t-28 6.5q-17 0 -30.5 -11.5
t-27.5 -35.5z" />
    <glyph glyph-name="Abrevedotbelow" unicode="&#x1eb6;" horiz-adv-x="616" 
d="M468 200h-320l-73 -200h-50l258 700h50l258 -700h-50zM452 244l-144 398l-144 -398h288zM308 -123q-17 0 -27.5 10t-10.5 26t10.5 26t27.5 10t27.5 -10t10.5 -26t-10.5 -26t-27.5 -10zM308 737q-51 0 -77 31.5t-26 83.5h42q0 -35 14 -55t47 -20t47 20t14 55h42
q0 -52 -26 -83.5t-77 -31.5z" />
    <glyph glyph-name="abrevedotbelow" unicode="&#x1eb7;" horiz-adv-x="510" 
d="M256 525q40 0 73 -9.5t57 -31.5t37 -58.5t13 -89.5v-336h-36l-11 97q-27 -54 -75 -80.5t-108 -26.5q-34 0 -62.5 9.5t-49.5 28.5t-32.5 45.5t-11.5 61.5q0 45 19 76.5t52.5 52t79.5 29.5t100 9q20 0 43 -1t44 -3v30q0 43 -7.5 72t-23.5 46.5t-41 25t-60 7.5
q-41 0 -79 -21.5t-57 -76.5l-40 23q13 34 33.5 57t44.5 37.5t49 20.5t49 6zM213 36q35 0 66.5 8t55.5 29.5t38.5 58.5t14.5 95v26q-29 2 -52.5 3.5t-49.5 1.5q-85 0 -135.5 -28.5t-50.5 -88.5q0 -27 9 -47t24.5 -33t36 -19t43.5 -6zM255 -123q-17 0 -27.5 10t-10.5 26
t10.5 26t27.5 10t27.5 -10t10.5 -26t-10.5 -26t-27.5 -10zM255 585q-51 0 -77 31.5t-26 83.5h42q0 -35 14 -55t47 -20t47 20t14 55h42q0 -52 -26 -83.5t-77 -31.5z" />
    <glyph glyph-name="uni1EB8" unicode="&#x1eb8;" horiz-adv-x="568" 
d="M90 700h429v-44h-381v-271h352v-44h-352v-297h386v-44h-434v700zM284 -123q-17 0 -27.5 10t-10.5 26t10.5 26t27.5 10t27.5 -10t10.5 -26t-10.5 -26t-27.5 -10z" />
    <glyph glyph-name="uni1EB9" unicode="&#x1eb9;" horiz-adv-x="533" 
d="M479 126q-27 -71 -81.5 -103.5t-120.5 -32.5q-45 0 -86 16.5t-72.5 49.5t-50 83t-18.5 118t18.5 118.5t50 83.5t71.5 49.5t84 16.5q46 0 83.5 -14t64 -41t41 -65.5t14.5 -86.5q0 -17 -1.5 -33.5t-4.5 -38.5h-372q3 -102 52 -156t126 -54q118 0 156 100zM274 479
q-71 0 -118.5 -48t-55.5 -141h329q1 12 1 16.5v10.5q0 77 -40.5 119.5t-115.5 42.5zM266 -123q-17 0 -27.5 10t-10.5 26t10.5 26t27.5 10t27.5 -10t10.5 -26t-10.5 -26t-27.5 -10z" />
    <glyph glyph-name="uni1EBA" unicode="&#x1eba;" horiz-adv-x="568" 
d="M90 700h429v-44h-381v-271h352v-44h-352v-297h386v-44h-434v700zM264 743l1 11q0 17 8.5 27t18.5 17l16 11q10 7 13 12.5t3 12.5q0 10 -10 23.5t-33 13.5q-33 0 -39 -33l-4 -13l-31 14l2 9q14 58 72 58q21 0 36 -6.5t25 -17t14.5 -23.5t4.5 -25q0 -21 -10 -33t-21 -18
l-17 -13q-9 -5 -11.5 -8.5t-2.5 -8.5v-10h-35z" />
    <glyph glyph-name="uni1EBB" unicode="&#x1ebb;" horiz-adv-x="533" 
d="M479 126q-27 -71 -81.5 -103.5t-120.5 -32.5q-45 0 -86 16.5t-72.5 49.5t-50 83t-18.5 118t18.5 118.5t50 83.5t71.5 49.5t84 16.5q46 0 83.5 -14t64 -41t41 -65.5t14.5 -86.5q0 -17 -1.5 -33.5t-4.5 -38.5h-372q3 -102 52 -156t126 -54q118 0 156 100zM274 479
q-71 0 -118.5 -48t-55.5 -141h329q1 12 1 16.5v10.5q0 77 -40.5 119.5t-115.5 42.5zM246 596l1 11q0 17 8.5 27t18.5 17l16 11q10 7 13 12.5t3 12.5q0 10 -10 23.5t-33 13.5q-33 0 -39 -33l-4 -13l-31 14l2 9q14 58 72 58q21 0 36 -6.5t25 -17t14.5 -23.5t4.5 -25
q0 -21 -10 -33t-21 -18l-17 -13q-9 -5 -11.5 -8.5t-2.5 -8.5v-10h-35z" />
    <glyph glyph-name="uni1EBC" unicode="&#x1ebc;" horiz-adv-x="568" 
d="M90 700h429v-44h-381v-271h352v-44h-352v-297h386v-44h-434v700zM155 786q24 34 44.5 48t46.5 14q20 0 36 -6.5t30.5 -15t28 -15t27.5 -6.5q17 0 30.5 11.5t27.5 35.5l33 -26q-24 -34 -44.5 -48t-46.5 -14q-19 0 -35 6.5t-30.5 15t-28.5 15t-28 6.5q-17 0 -30.5 -11.5
t-27.5 -35.5z" />
    <glyph glyph-name="uni1EBD" unicode="&#x1ebd;" horiz-adv-x="533" 
d="M479 126q-27 -71 -81.5 -103.5t-120.5 -32.5q-45 0 -86 16.5t-72.5 49.5t-50 83t-18.5 118t18.5 118.5t50 83.5t71.5 49.5t84 16.5q46 0 83.5 -14t64 -41t41 -65.5t14.5 -86.5q0 -17 -1.5 -33.5t-4.5 -38.5h-372q3 -102 52 -156t126 -54q118 0 156 100zM274 479
q-71 0 -118.5 -48t-55.5 -141h329q1 12 1 16.5v10.5q0 77 -40.5 119.5t-115.5 42.5zM114 625q24 34 44.5 48t46.5 14q20 0 36 -6.5t30.5 -15t28 -15t27.5 -6.5q17 0 30.5 11.5t27.5 35.5l33 -26q-24 -34 -44.5 -48t-46.5 -14q-19 0 -35 6.5t-30.5 15t-28.5 15t-28 6.5
q-17 0 -30.5 -11.5t-27.5 -35.5z" />
    <glyph glyph-name="uni1EBE" unicode="&#x1ebe;" horiz-adv-x="568" 
d="M277 863h62l85 -119h-44l-72 81l-72 -81h-44zM90 700h429v-44h-381v-271h352v-44h-352v-297h386v-44h-434v700zM436 980h62l-83 -119h-42z" />
    <glyph glyph-name="uni1EBF" unicode="&#x1ebf;" horiz-adv-x="533" 
d="M203 581h-44l85 119h62l85 -119h-44l-72 81zM479 126q-27 -71 -81.5 -103.5t-120.5 -32.5q-45 0 -86 16.5t-72.5 49.5t-50 83t-18.5 118t18.5 118.5t50 83.5t71.5 49.5t84 16.5q46 0 83.5 -14t64 -41t41 -65.5t14.5 -86.5q0 -17 -1.5 -33.5t-4.5 -38.5h-372
q3 -102 52 -156t126 -54q118 0 156 100zM274 479q-71 0 -118.5 -48t-55.5 -141h329q1 12 1 16.5v10.5q0 77 -40.5 119.5t-115.5 42.5zM408 819h62l-83 -119h-42z" />
    <glyph glyph-name="uni1EC0" unicode="&#x1ec0;" horiz-adv-x="568" 
d="M277 863h62l85 -119h-44l-72 81l-72 -81h-44zM90 700h429v-44h-381v-271h352v-44h-352v-297h386v-44h-434v700zM316 982h62l63 -119h-42z" />
    <glyph glyph-name="uni1EC1" unicode="&#x1ec1;" horiz-adv-x="533" 
d="M203 581h-44l85 119h62l85 -119h-44l-72 81zM479 126q-27 -71 -81.5 -103.5t-120.5 -32.5q-45 0 -86 16.5t-72.5 49.5t-50 83t-18.5 118t18.5 118.5t50 83.5t71.5 49.5t84 16.5q46 0 83.5 -14t64 -41t41 -65.5t14.5 -86.5q0 -17 -1.5 -33.5t-4.5 -38.5h-372
q3 -102 52 -156t126 -54q118 0 156 100zM274 479q-71 0 -118.5 -48t-55.5 -141h329q1 12 1 16.5v10.5q0 77 -40.5 119.5t-115.5 42.5zM292 819h62l63 -119h-42z" />
    <glyph glyph-name="uni1EC2" unicode="&#x1ec2;" horiz-adv-x="568" 
d="M277 863h62l85 -119h-44l-72 81l-72 -81h-44zM90 700h429v-44h-381v-271h352v-44h-352v-297h386v-44h-434v700zM379 865l1 11q0 17 8.5 27t18.5 17l16 11q10 7 13 12.5t3 12.5q0 10 -10 23.5t-33 13.5q-33 0 -39 -33l-4 -13l-31 14l2 9q14 58 72 58q21 0 36 -6.5t25 -17
t14.5 -23.5t4.5 -25q0 -21 -10 -33t-21 -18l-17 -13q-9 -5 -11.5 -8.5t-2.5 -8.5v-10h-35z" />
    <glyph glyph-name="uni1EC3" unicode="&#x1ec3;" horiz-adv-x="533" 
d="M203 581h-44l85 119h62l85 -119h-44l-72 81zM479 126q-27 -71 -81.5 -103.5t-120.5 -32.5q-45 0 -86 16.5t-72.5 49.5t-50 83t-18.5 118t18.5 118.5t50 83.5t71.5 49.5t84 16.5q46 0 83.5 -14t64 -41t41 -65.5t14.5 -86.5q0 -17 -1.5 -33.5t-4.5 -38.5h-372
q3 -102 52 -156t126 -54q118 0 156 100zM274 479q-71 0 -118.5 -48t-55.5 -141h329q1 12 1 16.5v10.5q0 77 -40.5 119.5t-115.5 42.5zM340 700l1 11q0 17 8.5 27t18.5 17l16 11q10 7 13 12.5t3 12.5q0 10 -10 23.5t-33 13.5q-33 0 -39 -33l-4 -13l-31 14l2 9q14 58 72 58
q21 0 36 -6.5t25 -17t14.5 -23.5t4.5 -25q0 -21 -10 -33t-21 -18l-17 -13q-9 -5 -11.5 -8.5t-2.5 -8.5v-10h-35z" />
    <glyph glyph-name="uni1EC4" unicode="&#x1ec4;" horiz-adv-x="568" 
d="M277 863h62l85 -119h-44l-72 81l-72 -81h-44zM90 700h429v-44h-381v-271h352v-44h-352v-297h386v-44h-434v700zM155 922q24 34 44.5 48t46.5 14q20 0 36 -6.5t30.5 -15t28 -15t27.5 -6.5q17 0 30.5 11.5t27.5 35.5l33 -26q-24 -34 -44.5 -48t-46.5 -14q-19 0 -35 6.5
t-30.5 15t-28.5 15t-28 6.5q-17 0 -30.5 -11.5t-27.5 -35.5z" />
    <glyph glyph-name="uni1EC5" unicode="&#x1ec5;" horiz-adv-x="533" 
d="M203 581h-44l85 119h62l85 -119h-44l-72 81zM479 126q-27 -71 -81.5 -103.5t-120.5 -32.5q-45 0 -86 16.5t-72.5 49.5t-50 83t-18.5 118t18.5 118.5t50 83.5t71.5 49.5t84 16.5q46 0 83.5 -14t64 -41t41 -65.5t14.5 -86.5q0 -17 -1.5 -33.5t-4.5 -38.5h-372
q3 -102 52 -156t126 -54q118 0 156 100zM274 479q-71 0 -118.5 -48t-55.5 -141h329q1 12 1 16.5v10.5q0 77 -40.5 119.5t-115.5 42.5zM129 768q24 34 44.5 48t46.5 14q20 0 36 -6.5t30.5 -15t28 -15t27.5 -6.5q17 0 30.5 11.5t27.5 35.5l33 -26q-24 -34 -44.5 -48t-46.5 -14
q-19 0 -35 6.5t-30.5 15t-28.5 15t-28 6.5q-17 0 -30.5 -11.5t-27.5 -35.5z" />
    <glyph glyph-name="Ecircumflexdotbelow" unicode="&#x1ec6;" horiz-adv-x="568" 
d="M90 700h429v-44h-381v-271h352v-44h-352v-297h386v-44h-434v700zM284 -123q-17 0 -27.5 10t-10.5 26t10.5 26t27.5 10t27.5 -10t10.5 -26t-10.5 -26t-27.5 -10zM265 861h62l85 -119h-44l-72 81l-72 -81h-44z" />
    <glyph glyph-name="ecircumflexdotbelow" unicode="&#x1ec7;" horiz-adv-x="533" 
d="M479 126q-27 -71 -81.5 -103.5t-120.5 -32.5q-45 0 -86 16.5t-72.5 49.5t-50 83t-18.5 118t18.5 118.5t50 83.5t71.5 49.5t84 16.5q46 0 83.5 -14t64 -41t41 -65.5t14.5 -86.5q0 -17 -1.5 -33.5t-4.5 -38.5h-372q3 -102 52 -156t126 -54q118 0 156 100zM274 479
q-71 0 -118.5 -48t-55.5 -141h329q1 12 1 16.5v10.5q0 77 -40.5 119.5t-115.5 42.5zM266 -123q-17 0 -27.5 10t-10.5 26t10.5 26t27.5 10t27.5 -10t10.5 -26t-10.5 -26t-27.5 -10zM235 700h62l85 -119h-44l-72 81l-72 -81h-44z" />
    <glyph glyph-name="uni1EC8" unicode="&#x1ec8;" horiz-adv-x="228" 
d="M90 700h48v-700h-48v700zM94 753l1 11q0 17 8.5 27t18.5 17l16 11q10 7 13 12.5t3 12.5q0 10 -10 23.5t-33 13.5q-33 0 -39 -33l-4 -13l-31 14l2 9q14 58 72 58q21 0 36 -6.5t25 -17t14.5 -23.5t4.5 -25q0 -21 -10 -33t-21 -18l-17 -13q-9 -5 -11.5 -8.5t-2.5 -8.5v-10
h-35z" />
    <glyph glyph-name="ihook" unicode="&#x1ec9;" horiz-adv-x="208" 
d="M80 515h48v-515h-48v515zM84 579l1 11q0 17 8.5 27t18.5 17l16 11q10 7 13 12.5t3 12.5q0 10 -10 23.5t-33 13.5q-33 0 -39 -33l-4 -13l-31 14l2 9q14 58 72 58q21 0 36 -6.5t25 -17t14.5 -23.5t4.5 -25q0 -21 -10 -33t-21 -18l-17 -13q-9 -5 -11.5 -8.5t-2.5 -8.5v-10
h-35z" />
    <glyph glyph-name="uni1ECA" unicode="&#x1eca;" horiz-adv-x="228" 
d="M90 700h48v-700h-48v700zM114 -123q-17 0 -27.5 10t-10.5 26t10.5 26t27.5 10t27.5 -10t10.5 -26t-10.5 -26t-27.5 -10z" />
    <glyph glyph-name="idotbelow" unicode="&#x1ecb;" horiz-adv-x="208" 
d="M104 613q-17 0 -27.5 10t-10.5 26t10.5 26t27.5 10t27.5 -10t10.5 -26t-10.5 -26t-27.5 -10zM80 515h48v-515h-48v515zM104 -123q-17 0 -27.5 10t-10.5 26t10.5 26t27.5 10t27.5 -10t10.5 -26t-10.5 -26t-27.5 -10z" />
    <glyph glyph-name="uni1ECC" unicode="&#x1ecc;" horiz-adv-x="741" 
d="M371 -10q-65 0 -122 23t-99.5 68t-67 112.5t-24.5 156.5q0 88 24.5 155.5t67 113t99.5 68.5t122 23t122 -23t99 -68.5t66.5 -113t24.5 -155.5q0 -89 -24.5 -156.5t-66.5 -112.5t-99 -68t-122 -23zM371 36q52 0 99.5 19t83.5 58t57.5 98t21.5 139q0 79 -21.5 138t-57.5 98
t-83.5 58.5t-99.5 19.5q-53 0 -100.5 -19.5t-83.5 -58.5t-57.5 -98t-21.5 -138q0 -80 21.5 -139t57.5 -98t83.5 -58t100.5 -19zM370 -123q-17 0 -27.5 10t-10.5 26t10.5 26t27.5 10t27.5 -10t10.5 -26t-10.5 -26t-27.5 -10z" />
    <glyph glyph-name="uni1ECD" unicode="&#x1ecd;" horiz-adv-x="560" 
d="M280 -10q-48 0 -89.5 16.5t-73 49.5t-49.5 83t-18 118t18 118.5t49.5 83.5t73 49.5t89.5 16.5t89.5 -16.5t73 -49.5t49.5 -83.5t18 -118.5t-18 -118t-49.5 -83t-73 -49.5t-89.5 -16.5zM280 36q84 0 132 57t48 164q0 109 -48 165.5t-132 56.5t-132 -56.5t-48 -165.5
q0 -107 48 -164t132 -57zM280 -123q-17 0 -27.5 10t-10.5 26t10.5 26t27.5 10t27.5 -10t10.5 -26t-10.5 -26t-27.5 -10z" />
    <glyph glyph-name="uni1ECE" unicode="&#x1ece;" horiz-adv-x="741" 
d="M371 -10q-65 0 -122 23t-99.5 68t-67 112.5t-24.5 156.5q0 88 24.5 155.5t67 113t99.5 68.5t122 23t122 -23t99 -68.5t66.5 -113t24.5 -155.5q0 -89 -24.5 -156.5t-66.5 -112.5t-99 -68t-122 -23zM371 36q52 0 99.5 19t83.5 58t57.5 98t21.5 139q0 79 -21.5 138t-57.5 98
t-83.5 58.5t-99.5 19.5q-53 0 -100.5 -19.5t-83.5 -58.5t-57.5 -98t-21.5 -138q0 -80 21.5 -139t57.5 -98t83.5 -58t100.5 -19zM351 758l1 11q0 17 8.5 27t18.5 17l16 11q10 7 13 12.5t3 12.5q0 10 -10 23.5t-33 13.5q-33 0 -39 -33l-4 -13l-31 14l2 9q14 58 72 58
q21 0 36 -6.5t25 -17t14.5 -23.5t4.5 -25q0 -21 -10 -33t-21 -18l-17 -13q-9 -5 -11.5 -8.5t-2.5 -8.5v-10h-35z" />
    <glyph glyph-name="uni1ECF" unicode="&#x1ecf;" horiz-adv-x="560" 
d="M280 -10q-48 0 -89.5 16.5t-73 49.5t-49.5 83t-18 118t18 118.5t49.5 83.5t73 49.5t89.5 16.5t89.5 -16.5t73 -49.5t49.5 -83.5t18 -118.5t-18 -118t-49.5 -83t-73 -49.5t-89.5 -16.5zM280 36q84 0 132 57t48 164q0 109 -48 165.5t-132 56.5t-132 -56.5t-48 -165.5
q0 -107 48 -164t132 -57zM260 596l1 11q0 17 8.5 27t18.5 17l16 11q10 7 13 12.5t3 12.5q0 10 -10 23.5t-33 13.5q-33 0 -39 -33l-4 -13l-31 14l2 9q14 58 72 58q21 0 36 -6.5t25 -17t14.5 -23.5t4.5 -25q0 -21 -10 -33t-21 -18l-17 -13q-9 -5 -11.5 -8.5t-2.5 -8.5v-10h-35
z" />
    <glyph glyph-name="uni1ED0" unicode="&#x1ed0;" horiz-adv-x="741" 
d="M340 873h62l85 -119h-44l-72 81l-72 -81h-44zM371 -10q-65 0 -122 23t-99.5 68t-67 112.5t-24.5 156.5q0 88 24.5 155.5t67 113t99.5 68.5t122 23t122 -23t99 -68.5t66.5 -113t24.5 -155.5q0 -89 -24.5 -156.5t-66.5 -112.5t-99 -68t-122 -23zM371 36q52 0 99.5 19
t83.5 58t57.5 98t21.5 139q0 79 -21.5 138t-57.5 98t-83.5 58.5t-99.5 19.5q-53 0 -100.5 -19.5t-83.5 -58.5t-57.5 -98t-21.5 -138q0 -80 21.5 -139t57.5 -98t83.5 -58t100.5 -19zM495 992h62l-83 -119h-42z" />
    <glyph glyph-name="uni1ED1" unicode="&#x1ed1;" horiz-adv-x="560" 
d="M249 700h62l85 -119h-44l-72 81l-72 -81h-44zM280 -10q-48 0 -89.5 16.5t-73 49.5t-49.5 83t-18 118t18 118.5t49.5 83.5t73 49.5t89.5 16.5t89.5 -16.5t73 -49.5t49.5 -83.5t18 -118.5t-18 -118t-49.5 -83t-73 -49.5t-89.5 -16.5zM280 36q84 0 132 57t48 164
q0 109 -48 165.5t-132 56.5t-132 -56.5t-48 -165.5q0 -107 48 -164t132 -57zM411 819h62l-83 -119h-42z" />
    <glyph glyph-name="uni1ED2" unicode="&#x1ed2;" horiz-adv-x="741" 
d="M340 873h62l85 -119h-44l-72 81l-72 -81h-44zM371 -10q-65 0 -122 23t-99.5 68t-67 112.5t-24.5 156.5q0 88 24.5 155.5t67 113t99.5 68.5t122 23t122 -23t99 -68.5t66.5 -113t24.5 -155.5q0 -89 -24.5 -156.5t-66.5 -112.5t-99 -68t-122 -23zM371 36q52 0 99.5 19
t83.5 58t57.5 98t21.5 139q0 79 -21.5 138t-57.5 98t-83.5 58.5t-99.5 19.5q-53 0 -100.5 -19.5t-83.5 -58.5t-57.5 -98t-21.5 -138q0 -80 21.5 -139t57.5 -98t83.5 -58t100.5 -19zM377 992h62l63 -119h-42z" />
    <glyph glyph-name="uni1ED3" unicode="&#x1ed3;" horiz-adv-x="560" 
d="M249 700h62l85 -119h-44l-72 81l-72 -81h-44zM280 -10q-48 0 -89.5 16.5t-73 49.5t-49.5 83t-18 118t18 118.5t49.5 83.5t73 49.5t89.5 16.5t89.5 -16.5t73 -49.5t49.5 -83.5t18 -118.5t-18 -118t-49.5 -83t-73 -49.5t-89.5 -16.5zM280 36q84 0 132 57t48 164
q0 109 -48 165.5t-132 56.5t-132 -56.5t-48 -165.5q0 -107 48 -164t132 -57zM285 819h62l63 -119h-42z" />
    <glyph glyph-name="uni1ED4" unicode="&#x1ed4;" horiz-adv-x="741" 
d="M340 873h62l85 -119h-44l-72 81l-72 -81h-44zM371 -10q-65 0 -122 23t-99.5 68t-67 112.5t-24.5 156.5q0 88 24.5 155.5t67 113t99.5 68.5t122 23t122 -23t99 -68.5t66.5 -113t24.5 -155.5q0 -89 -24.5 -156.5t-66.5 -112.5t-99 -68t-122 -23zM371 36q52 0 99.5 19
t83.5 58t57.5 98t21.5 139q0 79 -21.5 138t-57.5 98t-83.5 58.5t-99.5 19.5q-53 0 -100.5 -19.5t-83.5 -58.5t-57.5 -98t-21.5 -138q0 -80 21.5 -139t57.5 -98t83.5 -58t100.5 -19zM437 874l1 11q0 17 8.5 27t18.5 17l16 11q10 7 13 12.5t3 12.5q0 10 -10 23.5t-33 13.5
q-33 0 -39 -33l-4 -13l-31 14l2 9q14 58 72 58q21 0 36 -6.5t25 -17t14.5 -23.5t4.5 -25q0 -21 -10 -33t-21 -18l-17 -13q-9 -5 -11.5 -8.5t-2.5 -8.5v-10h-35z" />
    <glyph glyph-name="uni1ED5" unicode="&#x1ed5;" horiz-adv-x="560" 
d="M249 700h62l85 -119h-44l-72 81l-72 -81h-44zM280 -10q-48 0 -89.5 16.5t-73 49.5t-49.5 83t-18 118t18 118.5t49.5 83.5t73 49.5t89.5 16.5t89.5 -16.5t73 -49.5t49.5 -83.5t18 -118.5t-18 -118t-49.5 -83t-73 -49.5t-89.5 -16.5zM280 36q84 0 132 57t48 164
q0 109 -48 165.5t-132 56.5t-132 -56.5t-48 -165.5q0 -107 48 -164t132 -57zM355 700l1 11q0 17 8.5 27t18.5 17l16 11q10 7 13 12.5t3 12.5q0 10 -10 23.5t-33 13.5q-33 0 -39 -33l-4 -13l-31 14l2 9q14 58 72 58q21 0 36 -6.5t25 -17t14.5 -23.5t4.5 -25q0 -21 -10 -33
t-21 -18l-17 -13q-9 -5 -11.5 -8.5t-2.5 -8.5v-10h-35z" />
    <glyph glyph-name="uni1ED6" unicode="&#x1ed6;" horiz-adv-x="741" 
d="M340 873h62l85 -119h-44l-72 81l-72 -81h-44zM371 -10q-65 0 -122 23t-99.5 68t-67 112.5t-24.5 156.5q0 88 24.5 155.5t67 113t99.5 68.5t122 23t122 -23t99 -68.5t66.5 -113t24.5 -155.5q0 -89 -24.5 -156.5t-66.5 -112.5t-99 -68t-122 -23zM371 36q52 0 99.5 19
t83.5 58t57.5 98t21.5 139q0 79 -21.5 138t-57.5 98t-83.5 58.5t-99.5 19.5q-53 0 -100.5 -19.5t-83.5 -58.5t-57.5 -98t-21.5 -138q0 -80 21.5 -139t57.5 -98t83.5 -58t100.5 -19zM219 934q24 34 44.5 48t46.5 14q20 0 36 -6.5t30.5 -15t28 -15t27.5 -6.5q17 0 30.5 11.5
t27.5 35.5l33 -26q-24 -34 -44.5 -48t-46.5 -14q-19 0 -35 6.5t-30.5 15t-28.5 15t-28 6.5q-17 0 -30.5 -11.5t-27.5 -35.5z" />
    <glyph glyph-name="uni1ED7" unicode="&#x1ed7;" horiz-adv-x="560" 
d="M249 700h62l85 -119h-44l-72 81l-72 -81h-44zM280 -10q-48 0 -89.5 16.5t-73 49.5t-49.5 83t-18 118t18 118.5t49.5 83.5t73 49.5t89.5 16.5t89.5 -16.5t73 -49.5t49.5 -83.5t18 -118.5t-18 -118t-49.5 -83t-73 -49.5t-89.5 -16.5zM280 36q84 0 132 57t48 164
q0 109 -48 165.5t-132 56.5t-132 -56.5t-48 -165.5q0 -107 48 -164t132 -57zM128 763q24 34 44.5 48t46.5 14q20 0 36 -6.5t30.5 -15t28 -15t27.5 -6.5q17 0 30.5 11.5t27.5 35.5l33 -26q-24 -34 -44.5 -48t-46.5 -14q-19 0 -35 6.5t-30.5 15t-28.5 15t-28 6.5
q-17 0 -30.5 -11.5t-27.5 -35.5z" />
    <glyph glyph-name="Ocircumflexdotbelow" unicode="&#x1ed8;" horiz-adv-x="741" 
d="M371 -10q-65 0 -122 23t-99.5 68t-67 112.5t-24.5 156.5q0 88 24.5 155.5t67 113t99.5 68.5t122 23t122 -23t99 -68.5t66.5 -113t24.5 -155.5q0 -89 -24.5 -156.5t-66.5 -112.5t-99 -68t-122 -23zM371 36q52 0 99.5 19t83.5 58t57.5 98t21.5 139q0 79 -21.5 138t-57.5 98
t-83.5 58.5t-99.5 19.5q-53 0 -100.5 -19.5t-83.5 -58.5t-57.5 -98t-21.5 -138q0 -80 21.5 -139t57.5 -98t83.5 -58t100.5 -19zM370 -123q-17 0 -27.5 10t-10.5 26t10.5 26t27.5 10t27.5 -10t10.5 -26t-10.5 -26t-27.5 -10zM339 882h62l85 -119h-44l-72 81l-72 -81h-44z" />
    <glyph glyph-name="ocircumflexdotbelow" unicode="&#x1ed9;" horiz-adv-x="560" 
d="M280 -10q-48 0 -89.5 16.5t-73 49.5t-49.5 83t-18 118t18 118.5t49.5 83.5t73 49.5t89.5 16.5t89.5 -16.5t73 -49.5t49.5 -83.5t18 -118.5t-18 -118t-49.5 -83t-73 -49.5t-89.5 -16.5zM280 36q84 0 132 57t48 164q0 109 -48 165.5t-132 56.5t-132 -56.5t-48 -165.5
q0 -107 48 -164t132 -57zM280 -123q-17 0 -27.5 10t-10.5 26t10.5 26t27.5 10t27.5 -10t10.5 -26t-10.5 -26t-27.5 -10zM249 700h62l85 -119h-44l-72 81l-72 -81h-44z" />
    <glyph glyph-name="uni1EDA" unicode="&#x1eda;" horiz-adv-x="741" 
d="M371 -10q-65 0 -122 23t-99.5 68t-67 112.5t-24.5 156.5q0 88 24.5 155.5t67 113t99.5 68.5t122 23t122 -23t99 -68.5t66.5 -113t24.5 -155.5q0 -89 -24.5 -156.5t-66.5 -112.5t-99 -68t-122 -23zM371 36q52 0 99.5 19t83.5 58t57.5 98t21.5 139q0 79 -21.5 138t-57.5 98
t-83.5 58.5t-99.5 19.5q-53 0 -100.5 -19.5t-83.5 -58.5t-57.5 -98t-21.5 -138q0 -80 21.5 -139t57.5 -98t83.5 -58t100.5 -19zM683 748q0 -76 -29.5 -108.5t-99.5 -32.5v44q28 -2 45 4.5t26.5 19t13 31.5t3.5 42h41v0zM385 885h62l-83 -119h-42z" />
    <glyph glyph-name="uni1EDB" unicode="&#x1edb;" horiz-adv-x="560" 
d="M280 -10q-48 0 -89.5 16.5t-73 49.5t-49.5 83t-18 118t18 118.5t49.5 83.5t73 49.5t89.5 16.5t89.5 -16.5t73 -49.5t49.5 -83.5t18 -118.5t-18 -118t-49.5 -83t-73 -49.5t-89.5 -16.5zM280 36q84 0 132 57t48 164q0 109 -48 165.5t-132 56.5t-132 -56.5t-48 -165.5
q0 -107 48 -164t132 -57zM547 574q0 -76 -29.5 -108.5t-99.5 -32.5v44q28 -2 45 4.5t26.5 19t13 31.5t3.5 42h41v0zM304 700h62l-83 -119h-42z" />
    <glyph glyph-name="uni1EDC" unicode="&#x1edc;" horiz-adv-x="741" 
d="M371 -10q-65 0 -122 23t-99.5 68t-67 112.5t-24.5 156.5q0 88 24.5 155.5t67 113t99.5 68.5t122 23t122 -23t99 -68.5t66.5 -113t24.5 -155.5q0 -89 -24.5 -156.5t-66.5 -112.5t-99 -68t-122 -23zM371 36q52 0 99.5 19t83.5 58t57.5 98t21.5 139q0 79 -21.5 138t-57.5 98
t-83.5 58.5t-99.5 19.5q-53 0 -100.5 -19.5t-83.5 -58.5t-57.5 -98t-21.5 -138q0 -80 21.5 -139t57.5 -98t83.5 -58t100.5 -19zM683 748q0 -76 -29.5 -108.5t-99.5 -32.5v44q28 -2 45 4.5t26.5 19t13 31.5t3.5 42h41v0zM278 885h62l63 -119h-42z" />
    <glyph glyph-name="uni1EDD" unicode="&#x1edd;" horiz-adv-x="560" 
d="M280 -10q-48 0 -89.5 16.5t-73 49.5t-49.5 83t-18 118t18 118.5t49.5 83.5t73 49.5t89.5 16.5t89.5 -16.5t73 -49.5t49.5 -83.5t18 -118.5t-18 -118t-49.5 -83t-73 -49.5t-89.5 -16.5zM280 36q84 0 132 57t48 164q0 109 -48 165.5t-132 56.5t-132 -56.5t-48 -165.5
q0 -107 48 -164t132 -57zM547 574q0 -76 -29.5 -108.5t-99.5 -32.5v44q28 -2 45 4.5t26.5 19t13 31.5t3.5 42h41v0zM195 700h62l63 -119h-42z" />
    <glyph glyph-name="uni1EDE" unicode="&#x1ede;" horiz-adv-x="741" 
d="M371 -10q-65 0 -122 23t-99.5 68t-67 112.5t-24.5 156.5q0 88 24.5 155.5t67 113t99.5 68.5t122 23t122 -23t99 -68.5t66.5 -113t24.5 -155.5q0 -89 -24.5 -156.5t-66.5 -112.5t-99 -68t-122 -23zM371 36q52 0 99.5 19t83.5 58t57.5 98t21.5 139q0 79 -21.5 138t-57.5 98
t-83.5 58.5t-99.5 19.5q-53 0 -100.5 -19.5t-83.5 -58.5t-57.5 -98t-21.5 -138q0 -80 21.5 -139t57.5 -98t83.5 -58t100.5 -19zM683 748q0 -76 -29.5 -108.5t-99.5 -32.5v44q28 -2 45 4.5t26.5 19t13 31.5t3.5 42h41v0zM350 759l1 11q0 17 8.5 27t18.5 17l16 11
q10 7 13 12.5t3 12.5q0 10 -10 23.5t-33 13.5q-33 0 -39 -33l-4 -13l-31 14l2 9q14 58 72 58q21 0 36 -6.5t25 -17t14.5 -23.5t4.5 -25q0 -21 -10 -33t-21 -18l-17 -13q-9 -5 -11.5 -8.5t-2.5 -8.5v-10h-35z" />
    <glyph glyph-name="uni1EDF" unicode="&#x1edf;" horiz-adv-x="560" 
d="M280 -10q-48 0 -89.5 16.5t-73 49.5t-49.5 83t-18 118t18 118.5t49.5 83.5t73 49.5t89.5 16.5t89.5 -16.5t73 -49.5t49.5 -83.5t18 -118.5t-18 -118t-49.5 -83t-73 -49.5t-89.5 -16.5zM280 36q84 0 132 57t48 164q0 109 -48 165.5t-132 56.5t-132 -56.5t-48 -165.5
q0 -107 48 -164t132 -57zM547 574q0 -76 -29.5 -108.5t-99.5 -32.5v44q28 -2 45 4.5t26.5 19t13 31.5t3.5 42h41v0zM260 596l1 11q0 17 8.5 27t18.5 17l16 11q10 7 13 12.5t3 12.5q0 10 -10 23.5t-33 13.5q-33 0 -39 -33l-4 -13l-31 14l2 9q14 58 72 58q21 0 36 -6.5t25 -17
t14.5 -23.5t4.5 -25q0 -21 -10 -33t-21 -18l-17 -13q-9 -5 -11.5 -8.5t-2.5 -8.5v-10h-35z" />
    <glyph glyph-name="uni1EE0" unicode="&#x1ee0;" horiz-adv-x="741" 
d="M371 -10q-65 0 -122 23t-99.5 68t-67 112.5t-24.5 156.5q0 88 24.5 155.5t67 113t99.5 68.5t122 23t122 -23t99 -68.5t66.5 -113t24.5 -155.5q0 -89 -24.5 -156.5t-66.5 -112.5t-99 -68t-122 -23zM371 36q52 0 99.5 19t83.5 58t57.5 98t21.5 139q0 79 -21.5 138t-57.5 98
t-83.5 58.5t-99.5 19.5q-53 0 -100.5 -19.5t-83.5 -58.5t-57.5 -98t-21.5 -138q0 -80 21.5 -139t57.5 -98t83.5 -58t100.5 -19zM683 748q0 -76 -29.5 -108.5t-99.5 -32.5v44q28 -2 45 4.5t26.5 19t13 31.5t3.5 42h41v0zM218 810q24 34 44.5 48t46.5 14q20 0 36 -6.5
t30.5 -15t28 -15t27.5 -6.5q17 0 30.5 11.5t27.5 35.5l33 -26q-24 -34 -44.5 -48t-46.5 -14q-19 0 -35 6.5t-30.5 15t-28.5 15t-28 6.5q-17 0 -30.5 -11.5t-27.5 -35.5z" />
    <glyph glyph-name="uni1EE1" unicode="&#x1ee1;" horiz-adv-x="560" 
d="M280 -10q-48 0 -89.5 16.5t-73 49.5t-49.5 83t-18 118t18 118.5t49.5 83.5t73 49.5t89.5 16.5t89.5 -16.5t73 -49.5t49.5 -83.5t18 -118.5t-18 -118t-49.5 -83t-73 -49.5t-89.5 -16.5zM280 36q84 0 132 57t48 164q0 109 -48 165.5t-132 56.5t-132 -56.5t-48 -165.5
q0 -107 48 -164t132 -57zM547 574q0 -76 -29.5 -108.5t-99.5 -32.5v44q28 -2 45 4.5t26.5 19t13 31.5t3.5 42h41v0zM128 625q24 34 44.5 48t46.5 14q20 0 36 -6.5t30.5 -15t28 -15t27.5 -6.5q17 0 30.5 11.5t27.5 35.5l33 -26q-24 -34 -44.5 -48t-46.5 -14q-19 0 -35 6.5
t-30.5 15t-28.5 15t-28 6.5q-17 0 -30.5 -11.5t-27.5 -35.5z" />
    <glyph glyph-name="uni1EE2" unicode="&#x1ee2;" horiz-adv-x="741" 
d="M371 -10q-65 0 -122 23t-99.5 68t-67 112.5t-24.5 156.5q0 88 24.5 155.5t67 113t99.5 68.5t122 23t122 -23t99 -68.5t66.5 -113t24.5 -155.5q0 -89 -24.5 -156.5t-66.5 -112.5t-99 -68t-122 -23zM371 36q52 0 99.5 19t83.5 58t57.5 98t21.5 139q0 79 -21.5 138t-57.5 98
t-83.5 58.5t-99.5 19.5q-53 0 -100.5 -19.5t-83.5 -58.5t-57.5 -98t-21.5 -138q0 -80 21.5 -139t57.5 -98t83.5 -58t100.5 -19zM683 748q0 -76 -29.5 -108.5t-99.5 -32.5v44q28 -2 45 4.5t26.5 19t13 31.5t3.5 42h41v0zM370 -123q-17 0 -27.5 10t-10.5 26t10.5 26t27.5 10
t27.5 -10t10.5 -26t-10.5 -26t-27.5 -10z" />
    <glyph glyph-name="uni1EE3" unicode="&#x1ee3;" horiz-adv-x="560" 
d="M280 -10q-48 0 -89.5 16.5t-73 49.5t-49.5 83t-18 118t18 118.5t49.5 83.5t73 49.5t89.5 16.5t89.5 -16.5t73 -49.5t49.5 -83.5t18 -118.5t-18 -118t-49.5 -83t-73 -49.5t-89.5 -16.5zM280 36q84 0 132 57t48 164q0 109 -48 165.5t-132 56.5t-132 -56.5t-48 -165.5
q0 -107 48 -164t132 -57zM547 574q0 -76 -29.5 -108.5t-99.5 -32.5v44q28 -2 45 4.5t26.5 19t13 31.5t3.5 42h41v0zM280 -123q-17 0 -27.5 10t-10.5 26t10.5 26t27.5 10t27.5 -10t10.5 -26t-10.5 -26t-27.5 -10z" />
    <glyph glyph-name="Udotbelow" unicode="&#x1ee4;" horiz-adv-x="686" 
d="M343 -10q-64 0 -112 16.5t-80.5 55t-49 100.5t-16.5 153v385h48v-385q0 -78 13 -131.5t39 -86t65.5 -47t92.5 -14.5q52 0 91 14.5t65.5 47t40 86t13.5 131.5v385h48l-1 -385q0 -91 -17 -153t-49.5 -100.5t-80 -55t-110.5 -16.5zM343 -123q-17 0 -27.5 10t-10.5 26
t10.5 26t27.5 10t27.5 -10t10.5 -26t-10.5 -26t-27.5 -10z" />
    <glyph glyph-name="uni1EE5" unicode="&#x1ee5;" 
d="M250 -10q-41 0 -73.5 11t-55 37t-35 68.5t-12.5 105.5v303h48v-279q0 -59 8 -97.5t25 -61t44 -31.5t65 -9q37 0 69 11.5t54.5 39.5t35.5 74.5t13 116.5v236h48v-515h-37l-8 115q-19 -55 -67 -90t-122 -35zM282 -123q-17 0 -27.5 10t-10.5 26t10.5 26t27.5 10t27.5 -10
t10.5 -26t-10.5 -26t-27.5 -10z" />
    <glyph glyph-name="uni1EE6" unicode="&#x1ee6;" horiz-adv-x="686" 
d="M343 -10q-64 0 -112 16.5t-80.5 55t-49 100.5t-16.5 153v385h48v-385q0 -78 13 -131.5t39 -86t65.5 -47t92.5 -14.5q52 0 91 14.5t65.5 47t40 86t13.5 131.5v385h48l-1 -385q0 -91 -17 -153t-49.5 -100.5t-80 -55t-110.5 -16.5zM323 760l1 11q0 17 8.5 27t18.5 17l16 11
q10 7 13 12.5t3 12.5q0 10 -10 23.5t-33 13.5q-33 0 -39 -33l-4 -13l-31 14l2 9q14 58 72 58q21 0 36 -6.5t25 -17t14.5 -23.5t4.5 -25q0 -21 -10 -33t-21 -18l-17 -13q-9 -5 -11.5 -8.5t-2.5 -8.5v-10h-35z" />
    <glyph glyph-name="uni1EE7" unicode="&#x1ee7;" 
d="M250 -10q-41 0 -73.5 11t-55 37t-35 68.5t-12.5 105.5v303h48v-279q0 -59 8 -97.5t25 -61t44 -31.5t65 -9q37 0 69 11.5t54.5 39.5t35.5 74.5t13 116.5v236h48v-515h-37l-8 115q-19 -55 -67 -90t-122 -35zM256 596l1 11q0 17 8.5 27t18.5 17l16 11q10 7 13 12.5t3 12.5
q0 10 -10 23.5t-33 13.5q-33 0 -39 -33l-4 -13l-31 14l2 9q14 58 72 58q21 0 36 -6.5t25 -17t14.5 -23.5t4.5 -25q0 -21 -10 -33t-21 -18l-17 -13q-9 -5 -11.5 -8.5t-2.5 -8.5v-10h-35z" />
    <glyph glyph-name="uni1EE8" unicode="&#x1ee8;" horiz-adv-x="686" 
d="M343 -10q-64 0 -112 16.5t-80.5 55t-49 100.5t-16.5 153v385h48v-385q0 -78 13 -131.5t39 -86t65.5 -47t92.5 -14.5q52 0 91 14.5t65.5 47t40 86t13.5 131.5v385h48l-1 -385q0 -91 -17 -153t-49.5 -100.5t-80 -55t-110.5 -16.5zM710 749q0 -76 -29.5 -108.5t-99.5 -32.5
v44q28 -2 45 4.5t26.5 19t13 31.5t3.5 42h41v0zM366 885h62l-83 -119h-42z" />
    <glyph glyph-name="uni1EE9" unicode="&#x1ee9;" 
d="M250 -10q-41 0 -73.5 11t-55 37t-35 68.5t-12.5 105.5v303h48v-279q0 -59 8 -97.5t25 -61t44 -31.5t65 -9q37 0 69 11.5t54.5 39.5t35.5 74.5t13 116.5v236h48v-515h-37l-8 115q-19 -55 -67 -90t-122 -35zM589 574q0 -76 -29.5 -108.5t-99.5 -32.5v44q28 -2 45 4.5
t26.5 19t13 31.5t3.5 42h41v0zM304 700h62l-83 -119h-42z" />
    <glyph glyph-name="uni1EEA" unicode="&#x1eea;" horiz-adv-x="686" 
d="M343 -10q-64 0 -112 16.5t-80.5 55t-49 100.5t-16.5 153v385h48v-385q0 -78 13 -131.5t39 -86t65.5 -47t92.5 -14.5q52 0 91 14.5t65.5 47t40 86t13.5 131.5v385h48l-1 -385q0 -91 -17 -153t-49.5 -100.5t-80 -55t-110.5 -16.5zM710 749q0 -76 -29.5 -108.5t-99.5 -32.5
v44q28 -2 45 4.5t26.5 19t13 31.5t3.5 42h41v0zM263 885h62l63 -119h-42z" />
    <glyph glyph-name="uni1EEB" unicode="&#x1eeb;" 
d="M250 -10q-41 0 -73.5 11t-55 37t-35 68.5t-12.5 105.5v303h48v-279q0 -59 8 -97.5t25 -61t44 -31.5t65 -9q37 0 69 11.5t54.5 39.5t35.5 74.5t13 116.5v236h48v-515h-37l-8 115q-19 -55 -67 -90t-122 -35zM589 574q0 -76 -29.5 -108.5t-99.5 -32.5v44q28 -2 45 4.5
t26.5 19t13 31.5t3.5 42h41v0zM203 700h62l63 -119h-42z" />
    <glyph glyph-name="uni1EEC" unicode="&#x1eec;" horiz-adv-x="686" 
d="M343 -10q-64 0 -112 16.5t-80.5 55t-49 100.5t-16.5 153v385h48v-385q0 -78 13 -131.5t39 -86t65.5 -47t92.5 -14.5q52 0 91 14.5t65.5 47t40 86t13.5 131.5v385h48l-1 -385q0 -91 -17 -153t-49.5 -100.5t-80 -55t-110.5 -16.5zM710 749q0 -76 -29.5 -108.5t-99.5 -32.5
v44q28 -2 45 4.5t26.5 19t13 31.5t3.5 42h41v0zM319 781l1 11q0 17 8.5 27t18.5 17l16 11q10 7 13 12.5t3 12.5q0 10 -10 23.5t-33 13.5q-33 0 -39 -33l-4 -13l-31 14l2 9q14 58 72 58q21 0 36 -6.5t25 -17t14.5 -23.5t4.5 -25q0 -21 -10 -33t-21 -18l-17 -13
q-9 -5 -11.5 -8.5t-2.5 -8.5v-10h-35z" />
    <glyph glyph-name="uni1EED" unicode="&#x1eed;" 
d="M250 -10q-41 0 -73.5 11t-55 37t-35 68.5t-12.5 105.5v303h48v-279q0 -59 8 -97.5t25 -61t44 -31.5t65 -9q37 0 69 11.5t54.5 39.5t35.5 74.5t13 116.5v236h48v-515h-37l-8 115q-19 -55 -67 -90t-122 -35zM589 574q0 -76 -29.5 -108.5t-99.5 -32.5v44q28 -2 45 4.5
t26.5 19t13 31.5t3.5 42h41v0zM262 596l1 11q0 17 8.5 27t18.5 17l16 11q10 7 13 12.5t3 12.5q0 10 -10 23.5t-33 13.5q-33 0 -39 -33l-4 -13l-31 14l2 9q14 58 72 58q21 0 36 -6.5t25 -17t14.5 -23.5t4.5 -25q0 -21 -10 -33t-21 -18l-17 -13q-9 -5 -11.5 -8.5t-2.5 -8.5
v-10h-35z" />
    <glyph glyph-name="uni1EEE" unicode="&#x1eee;" horiz-adv-x="686" 
d="M343 -10q-64 0 -112 16.5t-80.5 55t-49 100.5t-16.5 153v385h48v-385q0 -78 13 -131.5t39 -86t65.5 -47t92.5 -14.5q52 0 91 14.5t65.5 47t40 86t13.5 131.5v385h48l-1 -385q0 -91 -17 -153t-49.5 -100.5t-80 -55t-110.5 -16.5zM710 749q0 -76 -29.5 -108.5t-99.5 -32.5
v44q28 -2 45 4.5t26.5 19t13 31.5t3.5 42h41v0zM191 810q24 34 44.5 48t46.5 14q20 0 36 -6.5t30.5 -15t28 -15t27.5 -6.5q17 0 30.5 11.5t27.5 35.5l33 -26q-24 -34 -44.5 -48t-46.5 -14q-19 0 -35 6.5t-30.5 15t-28.5 15t-28 6.5q-17 0 -30.5 -11.5t-27.5 -35.5z" />
    <glyph glyph-name="uni1EEF" unicode="&#x1eef;" 
d="M250 -10q-41 0 -73.5 11t-55 37t-35 68.5t-12.5 105.5v303h48v-279q0 -59 8 -97.5t25 -61t44 -31.5t65 -9q37 0 69 11.5t54.5 39.5t35.5 74.5t13 116.5v236h48v-515h-37l-8 115q-19 -55 -67 -90t-122 -35zM589 574q0 -76 -29.5 -108.5t-99.5 -32.5v44q28 -2 45 4.5
t26.5 19t13 31.5t3.5 42h41v0zM130 625q24 34 44.5 48t46.5 14q20 0 36 -6.5t30.5 -15t28 -15t27.5 -6.5q17 0 30.5 11.5t27.5 35.5l33 -26q-24 -34 -44.5 -48t-46.5 -14q-19 0 -35 6.5t-30.5 15t-28.5 15t-28 6.5q-17 0 -30.5 -11.5t-27.5 -35.5z" />
    <glyph glyph-name="uni1EF0" unicode="&#x1ef0;" horiz-adv-x="686" 
d="M343 -10q-64 0 -112 16.5t-80.5 55t-49 100.5t-16.5 153v385h48v-385q0 -78 13 -131.5t39 -86t65.5 -47t92.5 -14.5q52 0 91 14.5t65.5 47t40 86t13.5 131.5v385h48l-1 -385q0 -91 -17 -153t-49.5 -100.5t-80 -55t-110.5 -16.5zM710 749q0 -76 -29.5 -108.5t-99.5 -32.5
v44q28 -2 45 4.5t26.5 19t13 31.5t3.5 42h41v0zM343 -123q-17 0 -27.5 10t-10.5 26t10.5 26t27.5 10t27.5 -10t10.5 -26t-10.5 -26t-27.5 -10z" />
    <glyph glyph-name="uni1EF1" unicode="&#x1ef1;" 
d="M250 -10q-41 0 -73.5 11t-55 37t-35 68.5t-12.5 105.5v303h48v-279q0 -59 8 -97.5t25 -61t44 -31.5t65 -9q37 0 69 11.5t54.5 39.5t35.5 74.5t13 116.5v236h48v-515h-37l-8 115q-19 -55 -67 -90t-122 -35zM589 574q0 -76 -29.5 -108.5t-99.5 -32.5v44q28 -2 45 4.5
t26.5 19t13 31.5t3.5 42h41v0zM282 -123q-17 0 -27.5 10t-10.5 26t10.5 26t27.5 10t27.5 -10t10.5 -26t-10.5 -26t-27.5 -10z" />
    <glyph glyph-name="Ygrave" unicode="&#x1ef2;" horiz-adv-x="554" 
d="M301 250v-250h-48v250l-233 450h53l204 -400l204 400h53zM214 885h62l63 -119h-42z" />
    <glyph glyph-name="ygrave" unicode="&#x1ef3;" horiz-adv-x="464" 
d="M199 21l-179 494h52l155 -435l165 435h52l-269 -680h-46zM169 700h62l63 -119h-42z" />
    <glyph glyph-name="uni1EF4" unicode="&#x1ef4;" horiz-adv-x="554" 
d="M301 250v-250h-48v250l-233 450h53l204 -400l204 400h53zM277 -123q-17 0 -27.5 10t-10.5 26t10.5 26t27.5 10t27.5 -10t10.5 -26t-10.5 -26t-27.5 -10z" />
    <glyph glyph-name="uni1EF5" unicode="&#x1ef5;" horiz-adv-x="464" 
d="M199 21l-179 494h52l155 -435l165 435h52l-269 -680h-46zM311 -123q-17 0 -27.5 10t-10.5 26t10.5 26t27.5 10t27.5 -10t10.5 -26t-10.5 -26t-27.5 -10z" />
    <glyph glyph-name="uni1EF6" unicode="&#x1ef6;" horiz-adv-x="554" 
d="M301 250v-250h-48v250l-233 450h53l204 -400l204 400h53zM257 762l1 11q0 17 8.5 27t18.5 17l16 11q10 7 13 12.5t3 12.5q0 10 -10 23.5t-33 13.5q-33 0 -39 -33l-4 -13l-31 14l2 9q14 58 72 58q21 0 36 -6.5t25 -17t14.5 -23.5t4.5 -25q0 -21 -10 -33t-21 -18l-17 -13
q-9 -5 -11.5 -8.5t-2.5 -8.5v-10h-35z" />
    <glyph glyph-name="uni1EF7" unicode="&#x1ef7;" horiz-adv-x="464" 
d="M199 21l-179 494h52l155 -435l165 435h52l-269 -680h-46zM212 596l1 11q0 17 8.5 27t18.5 17l16 11q10 7 13 12.5t3 12.5q0 10 -10 23.5t-33 13.5q-33 0 -39 -33l-4 -13l-31 14l2 9q14 58 72 58q21 0 36 -6.5t25 -17t14.5 -23.5t4.5 -25q0 -21 -10 -33t-21 -18l-17 -13
q-9 -5 -11.5 -8.5t-2.5 -8.5v-10h-35z" />
    <glyph glyph-name="uni1EF8" unicode="&#x1ef8;" horiz-adv-x="554" 
d="M301 250v-250h-48v250l-233 450h53l204 -400l204 400h53zM125 810q24 34 44.5 48t46.5 14q20 0 36 -6.5t30.5 -15t28 -15t27.5 -6.5q17 0 30.5 11.5t27.5 35.5l33 -26q-24 -34 -44.5 -48t-46.5 -14q-19 0 -35 6.5t-30.5 15t-28.5 15t-28 6.5q-17 0 -30.5 -11.5
t-27.5 -35.5z" />
    <glyph glyph-name="uni1EF9" unicode="&#x1ef9;" horiz-adv-x="464" 
d="M199 21l-179 494h52l155 -435l165 435h52l-269 -680h-46zM80 625q24 34 44.5 48t46.5 14q20 0 36 -6.5t30.5 -15t28 -15t27.5 -6.5q17 0 30.5 11.5t27.5 35.5l33 -26q-24 -34 -44.5 -48t-46.5 -14q-19 0 -35 6.5t-30.5 15t-28.5 15t-28 6.5q-17 0 -30.5 -11.5
t-27.5 -35.5z" />
    <glyph glyph-name="endash" unicode="&#x2013;" horiz-adv-x="579" 
d="M62 330h455v-44h-455v44z" />
    <glyph glyph-name="emdash" unicode="&#x2014;" horiz-adv-x="809" 
d="M62 330h685v-44h-685v44z" />
    <glyph glyph-name="quoteleft" unicode="&#x2018;" horiz-adv-x="192" 
d="M129 685q-24 -23 -37 -44.5t-13 -47.5q4 6 10.5 9t14.5 3q13 0 23.5 -9t10.5 -26t-11.5 -27.5t-30.5 -10.5q-21 0 -34.5 14.5t-13.5 40.5q0 39 17 65t46 53z" />
    <glyph glyph-name="quoteright" unicode="&#x2019;" horiz-adv-x="192" 
d="M63 552q24 23 37 44.5t13 47.5q-8 -12 -25 -12q-13 0 -23.5 9t-10.5 26t11.5 27.5t30.5 10.5q21 0 34.5 -14.5t13.5 -40.5q0 -39 -17 -65t-46 -53z" />
    <glyph glyph-name="quotesinglbase" unicode="&#x201a;" horiz-adv-x="192" 
d="M63 -85q24 23 37 44.5t13 47.5q-8 -12 -25 -12q-13 0 -23.5 9t-10.5 26t11.5 27.5t30.5 10.5q21 0 34.5 -14.5t13.5 -40.5q0 -39 -17 -65t-46 -53z" />
    <glyph glyph-name="quotedblleft" unicode="&#x201c;" horiz-adv-x="339" 
d="M129 685q-24 -23 -37 -44.5t-13 -47.5q4 6 10.5 9t14.5 3q13 0 23.5 -9t10.5 -26t-11.5 -27.5t-30.5 -10.5q-21 0 -34.5 14.5t-13.5 40.5q0 39 17 65t46 53zM276 685q-24 -23 -37 -44.5t-13 -47.5q4 6 10.5 9t14.5 3q13 0 23.5 -9t10.5 -26t-11.5 -27.5t-30.5 -10.5
q-21 0 -34.5 14.5t-13.5 40.5q0 39 17 65t46 53z" />
    <glyph glyph-name="quotedblright" unicode="&#x201d;" horiz-adv-x="339" 
d="M63 552q24 23 37 44.5t13 47.5q-8 -12 -25 -12q-13 0 -23.5 9t-10.5 26t11.5 27.5t30.5 10.5q21 0 34.5 -14.5t13.5 -40.5q0 -39 -17 -65t-46 -53zM210 552q24 23 37 44.5t13 47.5q-8 -12 -25 -12q-13 0 -23.5 9t-10.5 26t11.5 27.5t30.5 10.5q21 0 34.5 -14.5
t13.5 -40.5q0 -39 -17 -65t-46 -53z" />
    <glyph glyph-name="quotedblbase" unicode="&#x201e;" horiz-adv-x="339" 
d="M63 -85q24 23 37 44.5t13 47.5q-8 -12 -25 -12q-13 0 -23.5 9t-10.5 26t11.5 27.5t30.5 10.5q21 0 34.5 -14.5t13.5 -40.5q0 -39 -17 -65t-46 -53zM210 -85q24 23 37 44.5t13 47.5q-8 -12 -25 -12q-13 0 -23.5 9t-10.5 26t11.5 27.5t30.5 10.5q21 0 34.5 -14.5
t13.5 -40.5q0 -39 -17 -65t-46 -53z" />
    <glyph glyph-name="dagger" unicode="&#x2020;" horiz-adv-x="484" 
d="M436 451h-170v-566h-48v566h-170v44h170v205h48v-205h170v-44z" />
    <glyph glyph-name="daggerdbl" unicode="&#x2021;" horiz-adv-x="484" 
d="M266 451v-317h170v-44h-170v-205h-48v205h-170v44h170v317h-170v44h170v205h48v-205h170v-44h-170z" />
    <glyph glyph-name="bullet" unicode="&#x2022;" horiz-adv-x="286" 
d="M143 253q-26 0 -42.5 15.5t-16.5 39.5t16.5 39.5t42.5 15.5t42.5 -15.5t16.5 -39.5t-16.5 -39.5t-42.5 -15.5z" />
    <glyph glyph-name="ellipsis" unicode="&#x2026;" horiz-adv-x="586" 
d="M100 -5q-17 0 -27.5 10t-10.5 26t10.5 26t27.5 10t27.5 -10t10.5 -26t-10.5 -26t-27.5 -10zM293 -5q-17 0 -27.5 10t-10.5 26t10.5 26t27.5 10t27.5 -10t10.5 -26t-10.5 -26t-27.5 -10zM486 -5q-17 0 -27.5 10t-10.5 26t10.5 26t27.5 10t27.5 -10t10.5 -26t-10.5 -26
t-27.5 -10z" />
    <glyph glyph-name="perthousand" unicode="&#x2030;" horiz-adv-x="1100" 
d="M177 395q-32 0 -58.5 11t-46.5 31.5t-31 49t-11 63.5t11 63.5t31 49t46.5 31.5t58.5 11q31 0 58 -11t47 -31.5t31 -49t11 -63.5t-11 -63.5t-31 -49t-47 -31.5t-58 -11zM94 43l521 638l29 -24l-521 -638zM177 434q48 0 77.5 30t29.5 86t-29.5 86t-77.5 30t-77.5 -30
t-29.5 -86t29.5 -86t77.5 -30zM563 -5q-32 0 -58.5 11t-46.5 31.5t-31 49t-11 63.5t11 63.5t31 49t46.5 31.5t58.5 11q31 0 58 -11t47 -31.5t31 -49t11 -63.5t-11 -63.5t-31 -49t-47 -31.5t-58 -11zM923 -5q-32 0 -58.5 11t-46.5 31.5t-31 49t-11 63.5t11 63.5t31 49
t46.5 31.5t58.5 11q31 0 58 -11t47 -31.5t31 -49t11 -63.5t-11 -63.5t-31 -49t-47 -31.5t-58 -11zM563 34q48 0 77.5 30t29.5 86t-29.5 86t-77.5 30t-77.5 -30t-29.5 -86t29.5 -86t77.5 -30zM923 34q48 0 77.5 30t29.5 86t-29.5 86t-77.5 30t-77.5 -30t-29.5 -86t29.5 -86
t77.5 -30z" />
    <glyph glyph-name="guilsinglleft" unicode="&#x2039;" horiz-adv-x="313" 
d="M56 257l149 238h52l-149 -238l149 -238h-52z" />
    <glyph glyph-name="guilsinglright" unicode="&#x203a;" horiz-adv-x="313" 
d="M56 19l149 238l-149 238h52l149 -238l-149 -238h-52z" />
    <glyph glyph-name="fraction" unicode="&#x2044;" horiz-adv-x="250" 
d="M-150 43l521 638l29 -24l-521 -638z" />
    <glyph glyph-name="four.sups" unicode="&#x2074;" horiz-adv-x="339" 
d="M307 504h-57v-89h-38v89h-184v36l186 275h36v-275h57v-36zM212 540v208l-140 -208h140z" />
    <glyph glyph-name="Euro" unicode="&#x20ac;" horiz-adv-x="732" 
d="M704 200q-33 -107 -102.5 -158.5t-177.5 -51.5q-53 0 -100.5 16.5t-86 49.5t-65.5 82t-39 114h-97v44h90q-1 13 -1.5 26.5t-0.5 27.5q0 13 0.5 25t1.5 24h-90v44h96q12 66 39.5 115.5t66 83.5t86.5 51t100 17q51 0 92 -12t72 -39t51.5 -70t29.5 -104l-45 -10
q-8 53 -25.5 89.5t-43 58.5t-59 31.5t-72.5 9.5q-41 0 -79.5 -13.5t-70.5 -41t-56 -69t-35 -97.5h309v-44h-316q-1 -12 -1.5 -24t-0.5 -25q0 -29 3 -54h315v-44h-308q11 -55 34.5 -95.5t55.5 -67.5t70.5 -40t79.5 -13q90 0 148 40t85 135z" />
    <glyph glyph-name="litre" unicode="&#x2113;" horiz-adv-x="583" 
d="M319 40q51 0 86.5 37t46.5 103l46 -10q-20 -89 -66.5 -132.5t-112.5 -43.5q-77 0 -124 50t-58 144q-24 -8 -49 -14t-51 -11l-9 44q27 5 53.5 11.5t52.5 14.5v10q0 96 23 180.5t62 148.5t89.5 101t104.5 37q59 0 86 -35.5t27 -89.5q0 -65 -24.5 -122.5t-69 -105.5
t-107 -86.5t-139.5 -66.5q4 -45 16 -76.5t29.5 -51t40 -28t47.5 -8.5zM184 249q61 23 114.5 55.5t93 73.5t62 92t22.5 111q0 36 -14.5 60t-49.5 24q-34 0 -74 -27.5t-74 -80.5t-57 -130t-23 -176v-2z" />
    <glyph glyph-name="trademark" unicode="&#x2122;" horiz-adv-x="805" 
d="M296 663h-120v-363h-38v363h-120v37h278v-37zM740 700v-400h-38v336l-135 -272h-33l-135 272v-336h-38v400h51l138 -288l138 288h52z" />
    <glyph glyph-name="Ohm" unicode="&#x2126;" horiz-adv-x="740" 
d="M38 44h201q-41 27 -74.5 64.5t-57.5 82t-37 95t-13 104.5q0 73 22.5 132.5t64 101t98.5 64t126 22.5t126 -22.5t98 -64t63.5 -101t22.5 -132.5q0 -54 -13 -104.5t-37 -95t-57.5 -82t-74.5 -64.5h206v-44h-284v44q43 17 81.5 52t67 81.5t45 101.5t16.5 111q0 64 -19.5 115
t-54.5 86.5t-82.5 54t-103.5 18.5t-104 -18.5t-83 -54t-54.5 -86.5t-19.5 -115q0 -56 16.5 -111t45 -101.5t66.5 -81.5t82 -52v-44h-279v44z" />
    <glyph glyph-name="estimated" unicode="&#x212e;" horiz-adv-x="798" 
d="M208 107q40 -36 91.5 -54t111.5 -18q54 0 98 13t78 35t57 52t36 65l46 -10q-37 -95 -117.5 -147.5t-197.5 -52.5q-72 0 -135.5 23t-111 68.5t-75 113t-27.5 155.5t27.5 155.5t75 113t111 68.5t135.5 23q63 0 122 -18t104 -54.5t72 -91.5t27 -129q0 -27 -2.5 -47.5
t-4.5 -37.5h-521v-225zM609 597q-38 34 -88.5 51t-109.5 17q-60 0 -111.5 -18t-91.5 -54v-217h401v221z" />
    <glyph glyph-name="onethird" unicode="&#x2153;" horiz-adv-x="771" 
d="M85 652l-61 -26v38l70 36h29v-400h-38v352zM38 43l521 638l29 -24l-521 -638zM606 -5q-45 0 -82 23t-54 72l33 14q17 -41 43 -57t60 -16q39 0 62 22t23 59q0 38 -23.5 58.5t-80.5 20.5h-25v37h25q42 0 65.5 19.5t23.5 57.5q0 32 -20.5 48.5t-53.5 16.5q-29 0 -49.5 -15
t-37.5 -51l-32 15q13 43 45 65t74 22q52 0 83 -27.5t31 -73.5q0 -35 -18.5 -58.5t-43.5 -34.5q32 -10 54.5 -31.5t22.5 -68.5q0 -52 -35.5 -84.5t-89.5 -32.5z" />
    <glyph glyph-name="partialdiff" unicode="&#x2202;" horiz-adv-x="584" 
d="M275 -10q-52 0 -93.5 17.5t-71 48t-45 71.5t-15.5 88q0 58 19 102.5t51.5 75t74.5 46t88 15.5q77 0 129 -39t66 -101q1 11 1.5 26t0.5 26q0 79 -13.5 135.5t-38.5 92.5t-59 53t-76 17q-48 0 -84 -22t-65 -68l-37 29q44 62 91.5 84.5t95.5 22.5q52 0 95.5 -20t74.5 -60.5
t48 -102t17 -143.5q0 -110 -20 -185t-54.5 -121.5t-81 -67t-98.5 -20.5zM275 36q38 0 71.5 13.5t58.5 39t39.5 62t14.5 81.5q0 49 -14.5 82.5t-38.5 54t-56 29.5t-67 9q-38 0 -71 -12.5t-58 -36.5t-39.5 -60t-14.5 -83q0 -42 13 -75.5t36 -56.5t55 -35t71 -12z" />
    <glyph glyph-name="Delta" unicode="&#x2206;" horiz-adv-x="621" 
d="M44 42l242 658h50l241 -658v-42h-533v42zM528 44l-217 598l-217 -598h434z" />
    <glyph glyph-name="product" unicode="&#x220f;" horiz-adv-x="640" 
d="M90 700h460v-815h-48v771h-364v-771h-48v815z" />
    <glyph glyph-name="summation" unicode="&#x2211;" horiz-adv-x="570" 
d="M72 -73l243 366l-243 365v42h432v-43h-379l244 -364l-244 -365h379v-43h-432v42z" />
    <glyph glyph-name="minus" unicode="&#x2212;" horiz-adv-x="508" 
d="M62 356h384v-44h-384v44z" />
    <glyph glyph-name="slashmath" unicode="&#x2215;" horiz-adv-x="435" 
d="M361 750h50l-337 -800h-50z" />
    <glyph glyph-name="bulletmath" unicode="&#x2219;" horiz-adv-x="286" 
d="M143 308q-26 0 -42.5 15.5t-16.5 39.5t16.5 39.5t42.5 15.5t42.5 -15.5t16.5 -39.5t-16.5 -39.5t-42.5 -15.5z" />
    <glyph glyph-name="radical" unicode="&#x221a;" horiz-adv-x="586" 
d="M571 700l-263 -700h-48l-137 361h-101v42h137l125 -348l238 645h49z" />
    <glyph glyph-name="infinity" unicode="&#x221e;" horiz-adv-x="737" 
d="M526 484q34 0 64 -11.5t51.5 -34t34 -54.5t12.5 -72q0 -41 -13.5 -72.5t-37 -54t-54 -34t-64.5 -11.5q-44 0 -87 22t-71 75q-22 -42 -57.5 -69.5t-92.5 -27.5q-35 0 -64.5 11.5t-51 34t-34 54t-12.5 72.5q0 40 13.5 72t37 54.5t54 34t64.5 11.5q44 0 87 -22t71 -75
q22 42 57.5 69.5t92.5 27.5zM211 184q31 0 53 12t38.5 32.5t28 48t20.5 59.5q-22 54 -57.5 79t-72.5 25q-25 0 -47.5 -8.5t-39.5 -24.5t-27 -40t-10 -55t9 -55t25 -40t36.5 -24.5t43.5 -8.5zM516 184q25 0 47.5 8.5t39.5 24.5t27 40t10 55t-9 55t-25 40t-36.5 24.5
t-43.5 8.5q-31 0 -53 -12t-38.5 -32.5t-28 -48t-20.5 -59.5q22 -54 57.5 -79t72.5 -25z" />
    <glyph glyph-name="integral" unicode="&#x222b;" horiz-adv-x="524" 
d="M79 -175q-38 0 -68.5 13t-50.5 30l22 38q21 -18 45.5 -27.5t47.5 -9.5q21 0 37.5 5t29 19.5t21.5 40t14 66.5l63 543q11 91 47.5 129t97.5 38q38 0 68.5 -13t50.5 -30l-22 -38q-21 18 -45.5 27.5t-47.5 9.5q-21 0 -37.5 -5t-29.5 -19.5t-21.5 -40.5t-13.5 -67l-63 -542
q-11 -91 -47.5 -129t-97.5 -38z" />
    <glyph glyph-name="approxequal" unicode="&#x2248;" horiz-adv-x="430" 
d="M290 394q-21 0 -41 8.5t-39 18t-36.5 18t-33.5 8.5q-21 0 -40.5 -14t-33.5 -38l-34 26q49 69 108 69q21 0 41.5 -8.5t39 -18t36 -18t33.5 -8.5q22 0 41 14t33 38l34 -26q-49 -69 -108 -69zM290 172q-21 0 -41 8.5t-39 18t-36.5 18t-33.5 8.5q-21 0 -40.5 -14t-33.5 -38
l-34 26q49 69 108 69q21 0 41.5 -8.5t39 -18t36 -18t33.5 -8.5q22 0 41 14t33 38l34 -26q-49 -69 -108 -69z" />
    <glyph glyph-name="notequal" unicode="&#x2260;" horiz-adv-x="508" 
d="M308 421l-64 -175h202v-44h-218l-56 -153h-44l56 153h-122v44h138l64 175h-202v44h218l56 154h44l-56 -154h122v-44h-138z" />
    <glyph glyph-name="lessequal" unicode="&#x2264;" horiz-adv-x="508" 
d="M66 370v40l375 203v-53l-323 -170l323 -170v-53zM62 44h384v-44h-384v44z" />
    <glyph glyph-name="greaterequal" unicode="&#x2265;" horiz-adv-x="508" 
d="M67 220l323 170l-323 170v53l375 -203v-40l-375 -203v53zM62 0v44h384v-44h-384z" />
    <glyph glyph-name="lozenge" unicode="&#x25ca;" horiz-adv-x="516" 
d="M494 350l-213 -350h-46l-213 350l213 350h46zM440 350l-182 305l-182 -305l182 -305z" />
    <glyph glyph-name="f_i" horiz-adv-x="571" 
d="M119 515q-2 54 7.5 91.5t28.5 60.5t46 33t60 10q23 0 47 -6.5t44 -19.5l-15 -41q-37 23 -76 23q-21 0 -38.5 -5.5t-30.5 -22t-20 -46t-5 -77.5h154v-44h-154v-471h-48v471h-97v44h97zM467 685q17 0 27.5 -10t10.5 -26t-10.5 -26t-27.5 -10t-27.5 10t-10.5 26t10.5 26
t27.5 10zM443 515h48v-515h-48v515z" />
    <glyph glyph-name="f_j" horiz-adv-x="571" 
d="M119 515q-2 54 7.5 91.5t28.5 60.5t46 33t60 10q23 0 47 -6.5t44 -19.5l-15 -41q-37 23 -76 23q-21 0 -38.5 -5.5t-30.5 -22t-20 -46t-5 -77.5h154v-44h-154v-471h-48v471h-97v44h97zM467 685q17 0 27.5 -10t10.5 -26t-10.5 -26t-27.5 -10t-27.5 10t-10.5 26t10.5 26
t27.5 10zM443 515h48v-419q0 -53 -6 -90t-19 -66.5t-34 -56t-51 -58.5l-25 33q19 20 35 41t27.5 47t18 58t6.5 74v437z" />
    <glyph glyph-name="f_l" horiz-adv-x="587" 
d="M119 515q-2 54 7.5 91.5t28.5 60.5t46.5 33t60.5 10q37 0 68.5 -13.5t52.5 -34.5l-22 -38q-21 20 -45.5 31t-53.5 11q-21 0 -39 -5.5t-31 -22t-20 -46t-5 -77.5h154v-44h-154v-471h-48v471h-97v44h97zM507 700v-700h-48v700h48z" />
    <glyph glyph-name="two.dnom" horiz-adv-x="311" 
d="M32 36l88 102q17 20 35.5 40.5t33.5 41.5t25 42.5t10 42.5q0 29 -17 46t-51 17q-32 0 -54.5 -21.5t-27.5 -72.5l-35 16q5 52 36 84t82 32q48 0 77.5 -26.5t29.5 -74.5q0 -41 -25 -79.5t-68 -87.5l-87 -100h195v-38h-247v36z" />
    <glyph glyph-name="three.dnom" horiz-adv-x="333" 
d="M168 -5q-45 0 -82 23t-54 72l33 14q17 -41 43 -57t60 -16q39 0 62 22t23 59q0 38 -23.5 58.5t-80.5 20.5h-25v37h25q42 0 65.5 19.5t23.5 57.5q0 32 -20.5 48.5t-53.5 16.5q-29 0 -49.5 -15t-37.5 -51l-32 15q13 43 45 65t74 22q52 0 83 -27.5t31 -73.5
q0 -35 -18.5 -58.5t-43.5 -34.5q32 -10 54.5 -31.5t22.5 -68.5q0 -52 -35.5 -84.5t-89.5 -32.5z" />
    <glyph glyph-name="four.dnom" horiz-adv-x="339" 
d="M307 89h-57v-89h-38v89h-184v36l186 275h36v-275h57v-36zM212 125v208l-140 -208h140z" />
    <glyph glyph-name="one.numr" horiz-adv-x="188" 
d="M85 652l-61 -26v38l70 36h29v-400h-38v352z" />
    <glyph glyph-name="two.numr" horiz-adv-x="311" 
d="M32 335l88 102q17 20 35.5 40.5t33.5 41.5t25 42.5t10 42.5q0 29 -17 46t-51 17q-32 0 -54.5 -21.5t-27.5 -72.5l-35 16q5 52 36 84t82 32q48 0 77.5 -26.5t29.5 -74.5q0 -41 -25 -79.5t-68 -87.5l-87 -100h195v-38h-247v36z" />
    <glyph glyph-name="three.numr" horiz-adv-x="333" 
d="M168 294q-45 0 -82 23t-54 72l33 14q17 -41 43 -57t60 -16q39 0 62 22t23 59q0 38 -23.5 58.5t-80.5 20.5h-25v37h25q42 0 65.5 19.5t23.5 57.5q0 32 -20.5 48.5t-53.5 16.5q-29 0 -49.5 -15t-37.5 -51l-32 15q13 43 45 65t74 22q52 0 83 -27.5t31 -73.5
q0 -35 -18.5 -58.5t-43.5 -34.5q32 -10 54.5 -31.5t22.5 -68.5q0 -52 -35.5 -84.5t-89.5 -32.5z" />
    <glyph glyph-name="bullet.case" horiz-adv-x="286" 
d="M143 308q-26 0 -42.5 15.5t-16.5 39.5t16.5 39.5t42.5 15.5t42.5 -15.5t16.5 -39.5t-16.5 -39.5t-42.5 -15.5z" />
    <glyph glyph-name="parenleft.case" horiz-adv-x="403" 
d="M326 -115q-46 40 -85.5 88.5t-69 106.5t-46.5 125.5t-17 144.5t17 144.5t46.5 125.5t69 106.5t85.5 88.5l25 -26q-46 -50 -82 -98t-60.5 -100t-37 -110.5t-12.5 -130.5t12.5 -130.5t37 -110.5t60.5 -100t82 -98l-25 -26v0z" />
    <glyph glyph-name="parenright.case" horiz-adv-x="403" 
d="M52 -89q46 50 82 98t60.5 100t37 110.5t12.5 130.5t-12.5 130.5t-37 110.5t-60.5 100t-82 98l25 26q46 -40 85.5 -88.5t69 -106.5t46.5 -125.5t17 -144.5t-17 -144.5t-46.5 -125.5t-69 -106.5t-85.5 -88.5z" />
    <glyph glyph-name="braceleft.case" horiz-adv-x="436" 
d="M314 -85q-47 0 -79 8.5t-51.5 27.5t-28 50.5t-8.5 78.5v176q0 38 -19 54t-76 16v44q57 0 76 16t19 54v175q0 46 8.5 78t28 51t51.5 27.5t79 8.5h87v-44h-87q-35 0 -58 -5.5t-36.5 -20t-19 -39t-5.5 -63.5v-162q0 -88 -56 -98q56 -10 56 -98v-163q0 -39 5.5 -63.5t19 -39
t36.5 -20t58 -5.5h87v-44h-87v0z" />
    <glyph glyph-name="braceright.case" horiz-adv-x="436" 
d="M35 -85v44h87q35 0 58 5.5t36.5 20t19 39t5.5 63.5v163q0 88 56 98q-56 10 -56 98v162q0 39 -5.5 63.5t-19 39t-36.5 20t-58 5.5h-87v44h87q47 0 79 -8.5t51.5 -27.5t28 -51t8.5 -78v-175q0 -38 19 -54t76 -16v-44q-57 0 -76 -16t-19 -54v-176q0 -47 -8.5 -78.5
t-28 -50.5t-51.5 -27.5t-79 -8.5h-87z" />
    <glyph glyph-name="bracketleft.case" horiz-adv-x="401" 
d="M90 780h273v-44h-225v-777h225v-44h-273v865z" />
    <glyph glyph-name="bracketright.case" horiz-adv-x="401" 
d="M38 -85v44h225v777h-225v44h273v-865h-273z" />
    <glyph glyph-name="hyphen.case" horiz-adv-x="449" 
d="M62 385h325v-44h-325v44z" />
    <glyph glyph-name="uni00AD.case" horiz-adv-x="449" 
d="M62 385h325v-44h-325v44z" />
    <glyph glyph-name="endash.case" horiz-adv-x="579" 
d="M62 385h455v-44h-455v44z" />
    <glyph glyph-name="emdash.case" horiz-adv-x="809" 
d="M62 385h685v-44h-685v44z" />
    <glyph glyph-name="at.case" horiz-adv-x="880" 
d="M430 -41q-76 0 -143 24.5t-117 72.5t-79 120t-29 167q0 96 29 168t80 120t120 72t149 24t149 -22.5t120 -68.5t80 -116.5t29 -166.5q0 -109 -37 -171t-101 -62q-45 0 -71 24.5t-33 69.5q-23 -45 -63 -69.5t-94 -24.5q-36 0 -67 14.5t-54.5 42t-37 67t-13.5 89.5
t13.5 89.5t38 67.5t57.5 42.5t72 14.5q52 0 87 -21t56 -68l8 79h39v-272q0 -56 14.5 -78.5t47.5 -22.5q18 0 35 11t29.5 34t20 58.5t7.5 85.5q0 81 -23.5 143t-67 103.5t-105 62.5t-136.5 21t-136.5 -22.5t-105 -66t-67 -107t-23.5 -144.5t23.5 -144.5t66 -107t101.5 -66
t131 -22.5q52 0 93 11t74 31l19 -40q-39 -23 -84.5 -34.5t-101.5 -11.5zM428 166q41 0 68 15t43.5 39t23.5 54t7 59q0 78 -32.5 123t-107.5 45q-33 0 -57.5 -13t-41.5 -35.5t-25.5 -53t-8.5 -66.5q0 -35 8.5 -65.5t25 -53t41 -35.5t56.5 -13z" />
    <glyph glyph-name="uni0308.case" horiz-adv-x="0" 
d="M-194 798q-17 0 -27.5 10t-10.5 26t10.5 26t27.5 10t27.5 -10t10.5 -26t-10.5 -26t-27.5 -10zM-38 798q-17 0 -27.5 10t-10.5 26t10.5 26t27.5 10t27.5 -10t10.5 -26t-10.5 -26t-27.5 -10z" />
    <glyph glyph-name="gravecomb.case" horiz-adv-x="0" 
d="M-125 885h62l63 -119h-42z" />
    <glyph glyph-name="acutecomb.case" horiz-adv-x="0" 
d="M-62 885h62l-83 -119h-42z" />
    <glyph glyph-name="uni0302.case" horiz-adv-x="0" 
d="M-147 885h62l85 -119h-44l-72 81l-72 -81h-44z" />
    <glyph glyph-name="uni030C.case" horiz-adv-x="0" 
d="M-188 885l72 -81l72 81h44l-85 -119h-62l-85 119h44z" />
    <glyph glyph-name="uni030A.case" horiz-adv-x="0" 
d="M-85 751q-36 0 -60.5 21.5t-24.5 60.5t24.5 60.5t60.5 21.5t60.5 -21.5t24.5 -60.5t-24.5 -60.5t-60.5 -21.5zM-85 786q22 0 34.5 12t12.5 35t-12.5 35t-34.5 12t-34.5 -12t-12.5 -35t12.5 -35t34.5 -12z" />
    <glyph glyph-name="tildecomb.case" horiz-adv-x="0" 
d="M-304 810q24 34 44.5 48t46.5 14q20 0 36 -6.5t30.5 -15t28 -15t27.5 -6.5q17 0 30.5 11.5t27.5 35.5l33 -26q-24 -34 -44.5 -48t-46.5 -14q-19 0 -35 6.5t-30.5 15t-28.5 15t-28 6.5q-17 0 -30.5 -11.5t-27.5 -35.5z" />
    <glyph glyph-name="uni0337.case" horiz-adv-x="0" 
d="M-330 252l330 193v-48l-330 -193v48z" />
    <glyph glyph-name="uni0338.case" horiz-adv-x="0" 
d="M-476 -4l438 729l38 -21l-438 -729z" />
    <glyph glyph-name="uni1ECC1" horiz-adv-x="741" 
d="M371 -10q-65 0 -122 23t-99.5 68t-67 112.5t-24.5 156.5q0 88 24.5 155.5t67 113t99.5 68.5t122 23t122 -23t99 -68.5t66.5 -113t24.5 -155.5q0 -89 -24.5 -156.5t-66.5 -112.5t-99 -68t-122 -23zM371 36q52 0 99.5 19t83.5 58t57.5 98t21.5 139q0 79 -21.5 138t-57.5 98
t-83.5 58.5t-99.5 19.5q-53 0 -100.5 -19.5t-83.5 -58.5t-57.5 -98t-21.5 -138q0 -80 21.5 -139t57.5 -98t83.5 -58t100.5 -19zM370 -123q-17 0 -27.5 10t-10.5 26t10.5 26t27.5 10t27.5 -10t10.5 -26t-10.5 -26t-27.5 -10z" />
    <glyph glyph-name="uni1EE10" 
d="M250 -10q-41 0 -73.5 11t-55 37t-35 68.5t-12.5 105.5v303h48v-279q0 -59 8 -97.5t25 -61t44 -31.5t65 -9q37 0 69 11.5t54.5 39.5t35.5 74.5t13 116.5v236h48v-515h-37l-8 115q-19 -55 -67 -90t-122 -35zM282 -123q-17 0 -27.5 10t-10.5 26t10.5 26t27.5 10t27.5 -10
t10.5 -26t-10.5 -26t-27.5 -10z" />
    <glyph glyph-name="uni1EE11" 
d="M250 -10q-41 0 -73.5 11t-55 37t-35 68.5t-12.5 105.5v303h48v-279q0 -59 8 -97.5t25 -61t44 -31.5t65 -9q37 0 69 11.5t54.5 39.5t35.5 74.5t13 116.5v236h48v-515h-37l-8 115q-19 -55 -67 -90t-122 -35zM262 596l1 11q0 17 8.5 27t18.5 17l16 11q10 7 13 12.5t3 12.5
q0 10 -10 23.5t-33 13.5q-33 0 -39 -33l-4 -13l-31 14l2 9q14 58 72 58q21 0 36 -6.5t25 -17t14.5 -23.5t4.5 -25q0 -21 -10 -33t-21 -18l-17 -13q-9 -5 -11.5 -8.5t-2.5 -8.5v-10h-35z" />
    <glyph glyph-name="uni1EE12" 
d="M250 -10q-41 0 -73.5 11t-55 37t-35 68.5t-12.5 105.5v303h48v-279q0 -59 8 -97.5t25 -61t44 -31.5t65 -9q37 0 69 11.5t54.5 39.5t35.5 74.5t13 116.5v236h48v-515h-37l-8 115q-19 -55 -67 -90t-122 -35zM589 574q0 -76 -29.5 -108.5t-99.5 -32.5v44q28 -2 45 4.5
t26.5 19t13 31.5t3.5 42h41v0zM282 700h62l-83 -119h-42z" />
    <glyph glyph-name="uni1EEB1" 
d="M250 -10q-41 0 -73.5 11t-55 37t-35 68.5t-12.5 105.5v303h48v-279q0 -59 8 -97.5t25 -61t44 -31.5t65 -9q37 0 69 11.5t54.5 39.5t35.5 74.5t13 116.5v236h48v-515h-37l-8 115q-19 -55 -67 -90t-122 -35zM589 574q0 -76 -29.5 -108.5t-99.5 -32.5v44q28 -2 45 4.5
t26.5 19t13 31.5t3.5 42h41v0zM219 700h62l63 -119h-42z" />
    <glyph glyph-name="uni1EED1" 
d="M250 -10q-41 0 -73.5 11t-55 37t-35 68.5t-12.5 105.5v303h48v-279q0 -59 8 -97.5t25 -61t44 -31.5t65 -9q37 0 69 11.5t54.5 39.5t35.5 74.5t13 116.5v236h48v-515h-37l-8 115q-19 -55 -67 -90t-122 -35zM589 574q0 -76 -29.5 -108.5t-99.5 -32.5v44q28 -2 45 4.5
t26.5 19t13 31.5t3.5 42h41v0zM262 596l1 11q0 17 8.5 27t18.5 17l16 11q10 7 13 12.5t3 12.5q0 10 -10 23.5t-33 13.5q-33 0 -39 -33l-4 -13l-31 14l2 9q14 58 72 58q21 0 36 -6.5t25 -17t14.5 -23.5t4.5 -25q0 -21 -10 -33t-21 -18l-17 -13q-9 -5 -11.5 -8.5t-2.5 -8.5
v-10h-35z" />
    <glyph glyph-name="uni1EEF1" 
d="M250 -10q-41 0 -73.5 11t-55 37t-35 68.5t-12.5 105.5v303h48v-279q0 -59 8 -97.5t25 -61t44 -31.5t65 -9q37 0 69 11.5t54.5 39.5t35.5 74.5t13 116.5v236h48v-515h-37l-8 115q-19 -55 -67 -90t-122 -35zM589 574q0 -76 -29.5 -108.5t-99.5 -32.5v44q28 -2 45 4.5
t26.5 19t13 31.5t3.5 42h41v0zM130 625q24 34 44.5 48t46.5 14q20 0 36 -6.5t30.5 -15t28 -15t27.5 -6.5q17 0 30.5 11.5t27.5 35.5l33 -26q-24 -34 -44.5 -48t-46.5 -14q-19 0 -35 6.5t-30.5 15t-28.5 15t-28 6.5q-17 0 -30.5 -11.5t-27.5 -35.5z" />
    </font>
</defs>
</svg>
