<?xml version="1.0" standalone="no"?>
<!DOCTYPE svg PUBLIC "-//W3C//DTD SVG 1.1//EN" "http://www.w3.org/Graphics/SVG/1.1/DTD/svg11.dtd" >
<svg xmlns="http://www.w3.org/2000/svg" xmlns:xlink="http://www.w3.org/1999/xlink" version="1.1">
<metadata>
Created by FontForge 20170731 at Wed Nov 20 03:41:23 2019
 By Aleksey,,,
Copyright (c) 2019 by Colophon Foundry. All rights reserved.
</metadata>
<defs>
<font id="VN-ChickenSans-Regular" horiz-adv-x="741" >
  <font-face 
    font-family="VN-Chicken Sans"
    font-weight="400"
    font-stretch="normal"
    units-per-em="1000"
    panose-1="2 11 5 3 4 2 1 0 0 3"
    ascent="800"
    descent="-200"
    x-height="515"
    cap-height="700"
    bbox="-506 -195 1083 1118"
    underline-thickness="50"
    underline-position="-150"
    unicode-range="U+000D-25CA"
  />
<missing-glyph horiz-adv-x="602" 
d="M81 700h440v-700h-440v700zM473 44v612h-344v-612h344z" />
    <glyph glyph-name=".notdef" horiz-adv-x="602" 
d="M81 700h440v-700h-440v700zM473 44v612h-344v-612h344z" />
    <glyph glyph-name=".null" horiz-adv-x="0" 
 />
    <glyph glyph-name="nonmarkingreturn" unicode="&#xd;" horiz-adv-x="211" 
 />
    <glyph glyph-name="NULL" horiz-adv-x="0" 
 />
    <glyph glyph-name="NULL" horiz-adv-x="0" 
 />
    <glyph glyph-name="space" unicode=" " horiz-adv-x="211" 
 />
    <glyph glyph-name="exclam" unicode="!" horiz-adv-x="255" 
d="M80 337v363h94v-363l-9 -130h-76zM127 -7q-26 0 -43 16t-17 41q0 26 17 42t43 16q27 0 44 -16t17 -42q0 -25 -17 -41t-44 -16z" />
    <glyph glyph-name="quotedbl" unicode="&#x22;" horiz-adv-x="379" 
d="M59 610v90h87v-90l-16 -117h-55zM232 610v90h88v-90l-17 -117h-54z" />
    <glyph glyph-name="numbersign" unicode="#" horiz-adv-x="742" 
d="M577 432l-47 -164h131v-80h-154l-54 -188h-89l54 188h-188l-54 -188h-88l54 188h-104v80h127l47 164h-131v80h154l54 188h88l-54 -188h188l54 188h89l-54 -188h104v-80h-127zM488 432h-188l-47 -164h188z" />
    <glyph glyph-name="dollar" unicode="$" horiz-adv-x="576" 
d="M529 192q0 -43 -15 -78t-41.5 -61t-63.5 -41.5t-81 -19.5v-92h-85v94q-78 12 -129 56.5t-80 108.5l78 50q26 -60 71.5 -95t115.5 -35q59 0 96 28t37 82q0 44 -31.5 69t-80.5 39l-90 26q-168 48 -168 198q0 76 49.5 125.5t131.5 60.5v93h85v-93q66 -10 111 -50t67 -109
l-73 -47q-8 33 -24 55.5t-36 37t-43 21t-45 6.5q-62 0 -95 -27.5t-33 -71.5q0 -39 23 -67t79 -44l93 -27q84 -24 130.5 -68.5t46.5 -123.5z" />
    <glyph glyph-name="percent" unicode="%" 
d="M178 392q-34 0 -62.5 11t-49 32t-32 50t-11.5 64t11.5 64t32 50t49 32.5t62.5 11.5q33 0 61.5 -11.5t49 -32.5t32 -50t11.5 -64t-11.5 -64t-32 -49.5t-49 -32t-61.5 -11.5zM84 52l521 637l49 -40l-521 -638zM178 455q38 -1 62 23.5t24 70.5t-24 70.5t-62 24.5
q-39 0 -63.5 -24.5t-24.5 -70.5t24.5 -70t63.5 -24zM563 -7q-33 0 -61.5 11t-49.5 32t-32.5 50t-11.5 64q0 36 11.5 65t32.5 49.5t49.5 32t61.5 11.5t61.5 -11.5t49.5 -32t32.5 -49.5t11.5 -65q0 -35 -11.5 -64t-32.5 -49.5t-49.5 -32t-61.5 -11.5zM563 56q39 0 63 24t24 70
t-24 70.5t-63 24.5t-63 -24.5t-24 -70.5t24 -69.5t63 -24.5z" />
    <glyph glyph-name="ampersand" unicode="&#x26;" horiz-adv-x="610" 
d="M498 0l-59 71q-38 -38 -86.5 -59.5t-108.5 -21.5q-46 0 -85 14.5t-67 41t-43.5 63.5t-15.5 83q0 67 34 118.5t98 90.5q-24 34 -39 68.5t-15 77.5q0 36 12.5 66t35.5 51.5t54.5 33.5t69.5 12q67 0 110.5 -36.5t61.5 -117.5l-71 -46q-6 33 -16 54t-22.5 34t-28 18t-32.5 5
q-37 0 -59 -21.5t-22 -61.5q0 -38 23 -73t61 -80l143 -172q14 29 24 63t15 70l87 -20q-15 -106 -65 -187l115 -139h-109zM251 80q39 0 71.5 16t58.5 44l-164 197q-45 -29 -67 -62.5t-22 -78.5q0 -57 34.5 -86.5t88.5 -29.5z" />
    <glyph glyph-name="quotesingle" unicode="'" horiz-adv-x="205" 
d="M59 610v90h87v-90l-16 -117h-55z" />
    <glyph glyph-name="parenleft" unicode="(" horiz-adv-x="396" 
d="M303 -195q-47 40 -87 88t-69 106t-45.5 125.5t-16.5 145.5t16.5 145.5t45.5 125t69 106t87 88.5l54 -52q-39 -41 -72 -84.5t-56.5 -93t-36.5 -107.5t-13 -128q0 -71 13 -128.5t36.5 -107t56.5 -93t72 -84.5l-54 -52v0z" />
    <glyph glyph-name="parenright" unicode=")" horiz-adv-x="397" 
d="M39 -143q39 41 72 84.5t57 93t37 107t13 128.5q0 70 -13 128t-37 107.5t-57 93t-72 84.5l55 52q46 -40 86 -88.5t69.5 -106t46 -125t16.5 -145.5t-16.5 -145.5t-46 -125.5t-69.5 -106t-86 -88z" />
    <glyph glyph-name="asterisk" unicode="*" horiz-adv-x="407" 
d="M253 556l77 -90l-65 -47l-62 101l-61 -101l-65 47l76 90l-114 27l25 76l109 -45l-10 117h80l-10 -117l109 46l25 -77z" />
    <glyph glyph-name="plus" unicode="+" horiz-adv-x="521" 
d="M466 293h-164v-164h-83v164h-164v82h164v164h83v-164h164v-82z" />
    <glyph glyph-name="comma" unicode="," horiz-adv-x="236" 
d="M50 -91q39 19 61 40.5t27 54.5q-7 -6 -16.5 -8.5t-18.5 -2.5q-20 0 -35 14.5t-15 38.5t17 41.5t48 17.5q35 0 53 -22.5t18 -57.5q0 -31 -9 -55t-24.5 -42.5t-36.5 -32.5t-46 -25z" />
    <glyph glyph-name="hyphen" unicode="-" horiz-adv-x="452" 
d="M55 348h342v-82h-342v82z" />
    <glyph glyph-name="period" unicode="." horiz-adv-x="229" 
d="M115 -7q-27 0 -44 16t-17 41q0 26 17 42t44 16q26 0 43 -16t17 -42q0 -25 -17 -41t-43 -16z" />
    <glyph glyph-name="slash" unicode="/" horiz-adv-x="454" 
d="M336 700h96l-314 -700h-95z" />
    <glyph glyph-name="zero" unicode="0" horiz-adv-x="640" 
d="M320 -10q-57 0 -106.5 22t-85.5 66.5t-56.5 112t-20.5 159.5q0 91 20.5 158.5t56.5 112.5t85.5 67t106.5 22q58 0 107 -22t85 -67t56.5 -112.5t20.5 -158.5q0 -92 -20.5 -159.5t-56.5 -112t-85 -66.5t-107 -22zM320 79q36 0 67 14.5t54 47t36 84t13 125.5q0 73 -13 125
t-36 84t-54 47t-67 15t-67.5 -15t-54 -47t-35.5 -84t-13 -125q0 -74 13 -125.5t35.5 -84t54 -47t67.5 -14.5z" />
    <glyph glyph-name="one" unicode="1" horiz-adv-x="312" 
d="M137 585l-113 -33v72l147 76h60v-700h-94v585z" />
    <glyph glyph-name="two" unicode="2" horiz-adv-x="538" 
d="M50 84l157 174q27 30 57.5 62.5t56 65.5t42.5 66t17 65q0 50 -28 77t-82 27t-95 -37.5t-52 -117.5l-74 48q7 44 26.5 80.5t48.5 62t67 39.5t82 14q48 0 85.5 -14t63 -39t39 -59t13.5 -74q0 -35 -10.5 -66.5t-29.5 -63t-45.5 -63.5t-59.5 -68l-158 -175h320v-88h-441v84z
" />
    <glyph glyph-name="three" unicode="3" horiz-adv-x="542" 
d="M263 -10q-170 0 -247 150l77 49q30 -60 73 -85t97 -25q29 0 54 9t43 25t28.5 39t10.5 52q0 26 -8 47t-27 36t-50 23t-77 8h-55v83h48q70 0 107 31t37 84q0 48 -33.5 76.5t-87.5 28.5q-51 0 -86 -25t-54 -80l-72 48q31 74 87 109.5t128 35.5q48 0 87 -13t66.5 -37t42 -57
t14.5 -73q0 -31 -9 -56.5t-23.5 -45.5t-33.5 -34.5t-39 -22.5q57 -14 95 -55t38 -114q0 -47 -17 -85.5t-47.5 -66.5t-73 -43.5t-93.5 -15.5z" />
    <glyph glyph-name="four" unicode="4" horiz-adv-x="572" 
d="M540 156h-99v-156h-92v156h-313v82l310 462h95v-462h99v-82zM349 238v321l-211 -321h211z" />
    <glyph glyph-name="five" unicode="5" horiz-adv-x="544" 
d="M270 -10q-79 0 -140.5 39t-92.5 115l75 49q24 -61 65.5 -87.5t92.5 -26.5q59 0 97 39t38 110q0 72 -37 110t-97 38q-47 0 -77.5 -15.5t-59.5 -44.5l-81 26l17 358h396v-87h-313l-11 -228q26 34 65.5 55t91.5 21q45 0 82.5 -15t64.5 -44t41.5 -71t14.5 -96
q0 -59 -17 -104.5t-48 -77t-73.5 -47.5t-93.5 -16z" />
    <glyph glyph-name="six" unicode="6" horiz-adv-x="586" 
d="M305 -10q-58 0 -105 20.5t-80 61.5t-51 104t-18 147q0 103 21 176.5t56.5 120t82 68.5t97.5 22q79 0 133 -39.5t77 -133.5l-85 -18q-17 59 -47.5 80.5t-77.5 21.5q-45 0 -77 -26t-51.5 -69t-27.5 -99.5t-5 -117.5q18 67 68.5 105.5t119.5 38.5q43 0 80 -14t64.5 -42.5
t43 -70.5t15.5 -99q0 -49 -16 -92t-46 -75.5t-73.5 -51t-97.5 -18.5zM305 79q61 0 99.5 39.5t38.5 106.5q0 72 -37.5 107t-98.5 35q-28 0 -54 -10t-45.5 -29t-31 -47.5t-11.5 -65.5q0 -32 11 -57.5t30 -43t44.5 -26.5t54.5 -9z" />
    <glyph glyph-name="seven" unicode="7" horiz-adv-x="466" 
d="M338 614h-313v86h409v-82l-237 -618h-98z" />
    <glyph glyph-name="eight" unicode="8" horiz-adv-x="574" 
d="M287 -10q-55 0 -99.5 15t-75.5 42t-47.5 65t-16.5 85q0 64 32 109.5t81 62.5q-40 20 -65 58.5t-25 90.5q0 42 15 77t42.5 60.5t67.5 40t91 14.5t91 -14.5t68.5 -40t43.5 -60.5t15 -77q0 -52 -25.5 -91t-66.5 -59q49 -17 81 -62t32 -109q0 -47 -17 -85t-48 -65t-75 -42
t-99 -15zM287 403q64 0 95 32t31 80q0 47 -31 80t-95 33t-95.5 -33t-31.5 -80q0 -48 31.5 -80t95.5 -32zM287 72q36 0 63.5 10t45.5 27t27 39.5t9 48.5q0 54 -37 89.5t-108 35.5q-72 0 -109 -35.5t-37 -89.5q0 -26 9 -48.5t27 -39.5t45.5 -27t64.5 -10z" />
    <glyph glyph-name="nine" unicode="9" horiz-adv-x="586" 
d="M278 -10q-40 0 -73.5 9.5t-60 30t-45.5 53.5t-31 80l84 18q18 -59 48.5 -80.5t77.5 -21.5q45 0 77 26t51.5 69t27.5 99.5t5 117.5q-18 -67 -68.5 -105.5t-119.5 -38.5q-43 0 -80 14t-64.5 42.5t-43 70.5t-15.5 99q0 49 16 92t46 75t73.5 51t97.5 19q58 0 105 -20.5
t80 -61.5t51 -104t18 -147q0 -103 -21 -176.5t-56.5 -120t-82 -68.5t-97.5 -22zM279 333q28 0 54 10t45.5 29t31 47.5t11.5 65.5q0 32 -11 57.5t-30 43t-44.5 26.5t-54.5 9q-62 0 -100.5 -39.5t-38.5 -106.5q0 -72 38 -107t99 -35z" />
    <glyph glyph-name="colon" unicode=":" horiz-adv-x="229" 
d="M115 407q-27 0 -44 16t-17 42q0 25 17 41t44 16q26 0 43 -16t17 -41q0 -26 -17 -42t-43 -16zM115 -7q-27 0 -44 16t-17 41q0 26 17 42t44 16q26 0 43 -16t17 -42q0 -25 -17 -41t-43 -16z" />
    <glyph glyph-name="semicolon" unicode=";" horiz-adv-x="236" 
d="M117 407q-26 0 -43 16t-17 42q0 25 17 41t43 16q27 0 44 -16t17 -41q0 -26 -17 -42t-44 -16zM50 -91q39 19 61 40.5t27 54.5q-7 -6 -16.5 -8.5t-18.5 -2.5q-20 0 -35 14.5t-15 38.5t17 41.5t48 17.5q35 0 53 -22.5t18 -57.5q0 -31 -9 -55t-24.5 -42.5t-36.5 -32.5
t-46 -25z" />
    <glyph glyph-name="less" unicode="&#x3c;" horiz-adv-x="472" 
d="M47 293v82l366 233v-102l-272 -172l272 -172v-102z" />
    <glyph glyph-name="equal" unicode="=" horiz-adv-x="521" 
d="M55 486h411v-83h-411v83zM55 264h411v-82h-411v82z" />
    <glyph glyph-name="greater" unicode="&#x3e;" horiz-adv-x="472" 
d="M59 162l272 172l-272 172v102l366 -233v-82l-366 -233v102z" />
    <glyph glyph-name="question" unicode="?" horiz-adv-x="466" 
d="M290 178q-75 13 -108.5 48t-33.5 82q0 42 21.5 70t56.5 52l52 36q26 18 39.5 37t13.5 45q0 30 -22.5 52.5t-70.5 22.5t-85 -25.5t-56 -89.5l-71 45q21 73 75.5 115t139.5 42q43 0 77 -11.5t58 -32.5t37 -49.5t13 -62.5q0 -48 -23 -83t-65 -61l-50 -33q-24 -16 -36 -29.5
t-12 -36.5q0 -22 17 -36.5t59 -24.5zM233 -7q-27 0 -44 16t-17 41q0 26 17 42t44 16q26 0 43 -16t17 -42q0 -25 -17 -41t-43 -16z" />
    <glyph glyph-name="at" unicode="@" horiz-adv-x="881" 
d="M423 -174q-72 0 -138.5 22.5t-117.5 70t-82 120t-31 173.5q0 97 30.5 170t83.5 121.5t124.5 72.5t152.5 24q84 0 154.5 -23.5t121.5 -69.5t79 -115.5t28 -160.5q0 -61 -12 -106t-33 -74.5t-49.5 -44t-61.5 -14.5q-47 0 -75 22.5t-41 65.5q-24 -46 -60 -67t-84 -21
q-34 0 -64.5 14t-53.5 41.5t-36.5 67.5t-13.5 91t13.5 90.5t36.5 66.5t55 41t69 14q42 0 74 -17.5t52 -56.5l10 66h70v-262q0 -48 13 -66.5t40 -18.5q32 0 53 38.5t21 129.5q0 141 -77 218.5t-229 77.5q-74 0 -132 -21t-98.5 -61.5t-62 -99t-21.5 -133.5t21.5 -133
t60.5 -98.5t92.5 -61.5t117.5 -21q50 0 92 10.5t74 29.5l32 -64q-45 -25 -93 -36.5t-105 -11.5zM434 70q30 0 51.5 11t34.5 29.5t19 43t6 52.5q0 66 -26.5 101t-83.5 35q-52 0 -79 -36.5t-27 -99.5t26.5 -99.5t78.5 -36.5z" />
    <glyph glyph-name="A" unicode="A" horiz-adv-x="636" 
d="M459 181h-281l-62 -181h-98l248 700h104l248 -700h-97zM430 267l-112 326l-111 -326h223z" />
    <glyph glyph-name="B" unicode="B" horiz-adv-x="621" 
d="M438 377q27 -6 51 -18.5t42.5 -34t29.5 -52t11 -71.5q0 -96 -59.5 -148.5t-186.5 -52.5h-245v700h213q61 0 106 -12.5t73.5 -35.5t42.5 -54.5t14 -70.5q0 -60 -27 -97.5t-65 -52.5zM175 615v-207h137q125 0 125 106q0 46 -34 73.5t-109 27.5h-119zM323 85q85 0 119 31.5
t34 86.5q0 61 -35.5 90.5t-121.5 29.5h-144v-238h148z" />
    <glyph glyph-name="C" unicode="C" horiz-adv-x="661" 
d="M356 -10q-64 0 -120 23.5t-97.5 69t-65.5 112.5t-24 155q0 87 24.5 154.5t66.5 113t97.5 69t118.5 23.5q116 0 177 -60t74 -180l-89 -19q-18 170 -162 170q-42 0 -79.5 -17t-66 -51t-45.5 -85t-17 -118q0 -68 17 -119t45.5 -84.5t66 -50.5t79.5 -17q73 0 119 38t71 117
l91 -20q-32 -110 -102.5 -167t-178.5 -57z" />
    <glyph glyph-name="D" unicode="D" horiz-adv-x="662" 
d="M281 700q168 0 250 -85t82 -265t-82 -265t-250 -85h-200v700h200zM281 88q118 0 177.5 61.5t59.5 200.5t-59.5 200.5t-177.5 61.5h-106v-524h106z" />
    <glyph glyph-name="E" unicode="E" horiz-adv-x="570" 
d="M81 700h444v-88h-350v-207h319v-89h-319v-228h356v-88h-450v700z" />
    <glyph glyph-name="F" unicode="F" horiz-adv-x="557" 
d="M175 612v-217h319v-89h-319v-306h-94v700h444v-88h-350z" />
    <glyph glyph-name="G" unicode="G" horiz-adv-x="683" 
d="M617 359v-359h-70l-11 110q-12 -27 -31.5 -49t-45.5 -38t-56.5 -24.5t-64.5 -8.5q-60 0 -113 22.5t-92 67.5t-61.5 112.5t-22.5 157.5t23.5 157.5t64 112.5t95.5 67.5t118 22.5q115 0 174.5 -54.5t73.5 -169.5l-89 -20q-10 79 -47 117t-112 38q-42 0 -79 -16t-64 -49.5
t-43 -84.5t-16 -121q0 -68 15 -119t42.5 -84.5t65 -50.5t82.5 -17q75 0 122.5 40t49.5 131v30h-148v79h240z" />
    <glyph glyph-name="H" unicode="H" horiz-adv-x="694" 
d="M81 700h94v-293h344v293h94v-700h-94v319h-344v-319h-94v700z" />
    <glyph glyph-name="I" unicode="I" horiz-adv-x="256" 
d="M81 700h94v-700h-94v700z" />
    <glyph glyph-name="J" unicode="J" horiz-adv-x="530" 
d="M243 -10q-96 0 -151.5 55.5t-56.5 163.5l85 19q2 -77 33.5 -113t89.5 -36t87.5 39t29.5 137v445h94l-1 -449q0 -139 -54.5 -200t-155.5 -61z" />
    <glyph glyph-name="K" unicode="K" horiz-adv-x="600" 
d="M283 353l-108 -132v-221h-94v700h94v-345l279 345h114l-222 -270l242 -430h-109z" />
    <glyph glyph-name="L" unicode="L" horiz-adv-x="551" 
d="M81 700h94v-612h348v-88h-442v700z" />
    <glyph glyph-name="M" unicode="M" horiz-adv-x="840" 
d="M81 700h120l219 -502l218 502h121v-700h-90v562l-205 -467h-88l-205 467v-562h-90v700z" />
    <glyph glyph-name="N" unicode="N" horiz-adv-x="704" 
d="M81 700h107l344 -566v566h91v-700h-107l-344 553v-553h-91v700z" />
    <glyph glyph-name="O" unicode="O" 
d="M371 -10q-69 0 -127.5 23.5t-102 69t-68 112.5t-24.5 155q0 87 24.5 154.5t68 113t102 69t127.5 23.5q68 0 126.5 -23.5t101.5 -69t67.5 -113t24.5 -154.5q0 -88 -24.5 -155t-67.5 -112.5t-101.5 -69t-126.5 -23.5zM371 79q46 0 86.5 17t70.5 50.5t47.5 84.5t17.5 119
q0 67 -17.5 118t-47.5 85t-70.5 51t-86.5 17q-47 0 -87.5 -17t-70.5 -51t-47.5 -85t-17.5 -118q0 -68 17.5 -119t47.5 -84.5t70.5 -50.5t87.5 -17z" />
    <glyph glyph-name="P" unicode="P" horiz-adv-x="590" 
d="M332 700q115 0 174 -52.5t59 -156.5q0 -103 -59 -155.5t-174 -52.5h-157v-283h-94v700h251zM332 371q138 0 138 120q0 121 -138 121h-157v-241h157z" />
    <glyph glyph-name="Q" unicode="Q" 
d="M691 350q0 -80 -20 -142.5t-56 -107.5t-85.5 -72t-108.5 -35q23 -31 64 -47.5t86 -24.5l-41 -87q-72 21 -123.5 60.5t-68.5 96.5q-63 6 -116 31.5t-91.5 71t-60 109.5t-21.5 147q0 87 24.5 154.5t68 113t102 69t127.5 23.5q68 0 126.5 -23.5t101.5 -69t67.5 -113
t24.5 -154.5zM371 79q46 0 86.5 17t70.5 50.5t47.5 84.5t17.5 119q0 67 -17.5 118t-47.5 85t-70.5 51t-86.5 17q-47 0 -87.5 -17t-70.5 -51t-47.5 -85t-17.5 -118q0 -68 17.5 -119t47.5 -84.5t70.5 -50.5t87.5 -17z" />
    <glyph glyph-name="R" unicode="R" horiz-adv-x="599" 
d="M462 0l-121 305h-14h-152v-305h-94v700h246q112 0 170.5 -46.5t58.5 -150.5q0 -75 -31.5 -120t-91.5 -64l132 -319h-103zM325 390q69 0 103 26.5t34 86.5q0 59 -34 85.5t-103 26.5h-150v-225h150z" />
    <glyph glyph-name="S" unicode="S" horiz-adv-x="567" 
d="M295 -10q-50 0 -90.5 12.5t-73 35t-56.5 53.5t-41 68l78 50q26 -60 71.5 -95t115.5 -35q59 0 96 28t37 82q0 44 -31.5 69t-80.5 39l-90 26q-168 48 -168 198q0 43 16.5 77.5t45.5 59.5t70 38.5t91 13.5q83 0 139.5 -41t81.5 -121l-73 -47q-8 33 -24 55.5t-36 37t-43 21
t-45 6.5q-62 0 -95 -27.5t-33 -71.5q0 -39 23 -67t79 -44l93 -27q84 -24 130.5 -68.5t46.5 -123.5q0 -47 -17.5 -84.5t-49 -63.5t-74 -40t-93.5 -14z" />
    <glyph glyph-name="T" unicode="T" horiz-adv-x="541" 
d="M523 612h-206v-612h-94v612h-205v88h505v-88z" />
    <glyph glyph-name="U" unicode="U" horiz-adv-x="695" 
d="M348 -10q-64 0 -114.5 17t-85 54.5t-53 97t-18.5 144.5v397h94v-386q0 -66 11 -110.5t33 -72.5t55 -40t78 -12q43 0 76 12t55.5 40t34 73t11.5 111v385h94l-1 -397q0 -85 -18.5 -144.5t-53.5 -97t-85 -54.5t-113 -17z" />
    <glyph glyph-name="V" unicode="V" horiz-adv-x="625" 
d="M18 700h102l192 -587l193 587h102l-240 -700h-109z" />
    <glyph glyph-name="W" unicode="W" horiz-adv-x="941" 
d="M24 700h101l142 -587l151 587h105l151 -587l143 587h100l-185 -700h-112l-149 579l-150 -579h-111z" />
    <glyph glyph-name="X" unicode="X" horiz-adv-x="588" 
d="M235 360l-211 340h109l161 -268l161 268h109l-211 -340l221 -360h-108l-172 286l-172 -286h-108z" />
    <glyph glyph-name="Y" unicode="Y" horiz-adv-x="576" 
d="M335 244v-244h-94v244l-228 456h102l173 -358l173 358h101z" />
    <glyph glyph-name="Z" unicode="Z" horiz-adv-x="530" 
d="M35 81l343 533h-322v86h432v-82l-343 -532h350v-86h-460v81z" />
    <glyph glyph-name="bracketleft" unicode="[" horiz-adv-x="395" 
d="M81 700h285v-82h-195v-701h195v-82h-285v865z" />
    <glyph glyph-name="backslash" unicode="\" horiz-adv-x="454" 
d="M336 0l-313 700h95l314 -700h-96z" />
    <glyph glyph-name="bracketright" unicode="]" horiz-adv-x="395" 
d="M30 -165v82h194v701h-194v82h284v-865h-284z" />
    <glyph glyph-name="asciicircum" unicode="^" horiz-adv-x="440" 
d="M171 700h98l139 -207h-90l-98 137l-98 -137h-90z" />
    <glyph glyph-name="underscore" unicode="_" horiz-adv-x="504" 
d="M0 -46h504v-83h-504v83z" />
    <glyph glyph-name="grave" unicode="`" horiz-adv-x="224" 
d="M18 700h116l64 -127h-86z" />
    <glyph glyph-name="a" unicode="a" horiz-adv-x="518" 
d="M258 525q45 0 81 -11t61.5 -36.5t39 -66t13.5 -99.5v-312h-75l-13 87q-27 -48 -71 -72.5t-100 -24.5q-33 0 -60.5 10t-47.5 29t-31.5 47t-11.5 63q0 88 69 130.5t203 42.5q11 0 23 -0.5t24 -1.5v9q0 70 -25.5 96t-82.5 26q-36 0 -67.5 -17t-48.5 -61l-72 42
q15 32 35.5 54.5t45.5 37t53.5 21.5t57.5 7zM225 69q27 0 52 7t44 24t30 47t11 76v16q-19 1 -35.5 1.5t-33.5 0.5q-77 0 -117 -22t-40 -69q0 -42 26 -61.5t63 -19.5z" />
    <glyph glyph-name="b" unicode="b" horiz-adv-x="584" 
d="M336 -10q-63 0 -109 30t-70 81l-11 -101h-76v700h93v-278q23 53 69 78t104 25q44 0 81 -16.5t63.5 -50t41.5 -84t15 -117.5q0 -68 -16 -118t-43 -83t-63.5 -49.5t-78.5 -16.5zM304 75q70 0 104 47.5t34 134.5q0 88 -34 135.5t-104 47.5q-65 0 -104 -44t-39 -141
q0 -87 39 -133.5t104 -46.5z" />
    <glyph glyph-name="c" unicode="c" horiz-adv-x="507" 
d="M276 -10q-47 0 -89.5 17t-74.5 50.5t-51 83.5t-19 116q0 67 19 117t51 83.5t74.5 50.5t89.5 17q38 0 70.5 -9t57.5 -29t41 -52.5t22 -79.5l-85 -18q-7 54 -32 78.5t-74 24.5q-62 0 -100 -46.5t-38 -136.5q0 -89 38 -135.5t100 -46.5q54 0 84 24.5t47 75.5l84 -19
q-27 -89 -83.5 -127.5t-131.5 -38.5z" />
    <glyph glyph-name="d" unicode="d" horiz-adv-x="584" 
d="M248 -10q-42 0 -78.5 16.5t-63.5 49.5t-43 83t-16 118q0 67 15 117.5t41.5 84t63.5 50t81 16.5q58 0 104 -25t69 -78v278h92v-700h-76l-10 101q-25 -51 -70.5 -81t-108.5 -30zM280 75q64 0 103 46.5t39 133.5q0 97 -39 141t-103 44q-70 0 -104 -47.5t-34 -135.5
q0 -87 34 -134.5t104 -47.5z" />
    <glyph glyph-name="e" unicode="e" horiz-adv-x="537" 
d="M282 72q48 0 78.5 21t45.5 59l85 -19q-14 -38 -36.5 -65.5t-50.5 -44.5t-59.5 -25t-64.5 -8q-50 0 -93.5 17.5t-75.5 51t-50.5 83.5t-18.5 115t18.5 115t50 84t74.5 51.5t93 17.5q45 0 84.5 -14t68 -41.5t45 -68t16.5 -94.5q0 -39 -10 -83h-347q7 -76 46 -114t101 -38z
M278 443q-57 0 -94.5 -34.5t-47.5 -106.5h264q1 7 1 10.5v7.5q0 57 -32 90t-91 33z" />
    <glyph glyph-name="f" unicode="f" horiz-adv-x="378" 
d="M280 633q-18 0 -33.5 -5t-27 -18t-17 -36t-3.5 -59h142v-82h-142v-433h-92v433h-90v82h90q-1 57 10.5 95t33.5 61t52 33t66 10q42 0 76 -13t60 -35l-39 -67q-39 34 -86 34z" />
    <glyph glyph-name="g" unicode="g" horiz-adv-x="584" 
d="M283 -175q-37 0 -69 8t-59 20.5t-48 29t-36 34.5l58 62q26 -30 64.5 -50t89.5 -20q62 0 100 44t38 145v28q-27 -47 -69 -73t-103 -26q-42 0 -79 16t-64.5 47.5t-43 77.5t-15.5 106q0 62 15.5 109t42.5 78.5t64 47.5t80 16q57 0 103.5 -25t70.5 -82l10 97h80v-385
q0 -85 -17 -143.5t-47.5 -94.5t-72.5 -51.5t-93 -15.5zM280 110q66 0 104 46t38 118q0 84 -39.5 125t-100.5 41q-70 0 -105 -45t-35 -121q0 -75 34.5 -119.5t103.5 -44.5z" />
    <glyph glyph-name="h" unicode="h" horiz-adv-x="573" 
d="M70 700h93v-297q16 58 59 90t115 32q39 0 70.5 -11t54 -36t34.5 -65t12 -98v-315h-92v282q0 46 -6.5 76.5t-21 48.5t-36.5 25t-52 7q-31 0 -56.5 -9.5t-43.5 -32t-27.5 -59t-9.5 -90.5v-248h-93v700z" />
    <glyph glyph-name="i" unicode="i" horiz-adv-x="234" 
d="M117 587q-27 0 -44 16t-17 41q0 26 17 42t44 16t44 -16t17 -42q0 -25 -17 -41t-44 -16zM71 515h92v-515h-92v515z" />
    <glyph glyph-name="j" unicode="j" horiz-adv-x="235" 
d="M118 587q-26 0 -43 16t-17 41q0 26 17 42t43 16q27 0 44 -16t17 -42q0 -25 -17 -41t-44 -16zM-15 -112q20 19 36 39.5t27.5 44.5t17.5 53.5t6 67.5v422h92v-407q0 -55 -7 -94.5t-23 -71t-40.5 -59t-60.5 -58.5z" />
    <glyph glyph-name="k" unicode="k" horiz-adv-x="509" 
d="M247 262l-84 -90v-172h-93v700h93v-411l210 226h112l-176 -187l193 -328h-103z" />
    <glyph glyph-name="l" unicode="l" horiz-adv-x="233" 
d="M70 700h93v-700h-93v700z" />
    <glyph glyph-name="m" unicode="m" horiz-adv-x="878" 
d="M70 515h77l10 -116q17 60 58.5 93t110.5 33q62 0 100.5 -31t52.5 -102q32 133 172 133q37 0 67 -11.5t51 -37.5t32.5 -67t11.5 -100v-309h-92v280q0 46 -6.5 77t-20 49t-33.5 25.5t-47 7.5q-28 0 -51 -9t-39.5 -31t-26 -59t-9.5 -93v-247h-92v280q0 46 -7 77t-20.5 49
t-33.5 25.5t-47 7.5q-29 0 -52 -9.5t-39.5 -32t-25 -59.5t-8.5 -91v-247h-93v515z" />
    <glyph glyph-name="n" unicode="n" horiz-adv-x="573" 
d="M70 515h77l10 -116q17 60 61 93t119 33q39 0 70.5 -11t54 -36t34.5 -65t12 -98v-315h-92v282q0 46 -6.5 76.5t-21 48.5t-36.5 25t-52 7q-31 0 -56.5 -9.5t-43.5 -32t-27.5 -59t-9.5 -90.5v-248h-93v515z" />
    <glyph glyph-name="o" unicode="o" horiz-adv-x="565" 
d="M283 -10q-51 0 -95 17t-76.5 50.5t-51 83.5t-18.5 116q0 67 18.5 117t51 83.5t76.5 50.5t95 17q50 0 94 -17t76.5 -50.5t51 -83.5t18.5 -117q0 -66 -18.5 -116t-51 -83.5t-76.5 -50.5t-94 -17zM283 75q67 0 105.5 46.5t38.5 135.5q0 90 -38.5 136.5t-105.5 46.5
q-68 0 -106.5 -46.5t-38.5 -136.5q0 -89 38.5 -135.5t106.5 -46.5z" />
    <glyph glyph-name="p" unicode="p" horiz-adv-x="584" 
d="M70 515h80l11 -97q24 57 70.5 82t105.5 25q44 0 80.5 -16.5t63 -50t41.5 -84t15 -117.5q0 -68 -16 -118t-43 -83t-64 -49.5t-79 -16.5q-61 0 -103.5 26.5t-68.5 74.5v-256h-93v680zM304 75q70 0 104 47.5t34 134.5q0 88 -34 135.5t-104 47.5q-65 0 -104 -44t-39 -141
q0 -82 37.5 -131t105.5 -49z" />
    <glyph glyph-name="q" unicode="q" horiz-adv-x="584" 
d="M421 91q-28 -49 -69.5 -75t-102.5 -26q-42 0 -79 16.5t-64 49.5t-43 83t-16 118q0 67 15 117.5t41.5 84t63 50t80.5 16.5q59 0 105.5 -25t70.5 -82l10 97h80v-680h-92v256zM280 75q68 0 105 49t37 131q0 97 -39 141t-103 44q-70 0 -104 -47.5t-34 -135.5q0 -87 34 -134.5
t104 -47.5z" />
    <glyph glyph-name="r" unicode="r" horiz-adv-x="424" 
d="M70 515h77l10 -116q17 63 55.5 94.5t92.5 31.5q42 0 72 -22.5t41 -70.5l-68 -48q-13 32 -32 43.5t-42 11.5t-43.5 -9.5t-36 -32t-24.5 -60t-9 -94.5v-243h-93v515z" />
    <glyph glyph-name="s" unicode="s" horiz-adv-x="458" 
d="M236 -10q-70 0 -125 35t-81 95l67 41q24 -46 61 -68.5t82 -22.5q40 0 66.5 18.5t26.5 51.5q0 29 -17 44.5t-54 26.5l-78 22q-72 19 -101 56.5t-29 88.5q0 36 14.5 63.5t38.5 46t54.5 28t62.5 9.5q69 0 110 -28t65 -82l-67 -42q-14 35 -39 53.5t-67 18.5
q-41 0 -63.5 -17.5t-22.5 -45.5q0 -25 14 -41t49 -26l78 -21q30 -8 55 -20t43.5 -29.5t29 -41.5t10.5 -56q0 -37 -13.5 -66t-38 -49.5t-58 -31t-73.5 -10.5z" />
    <glyph glyph-name="t" unicode="t" horiz-adv-x="360" 
d="M346 433h-142v-433h-93v433h-94v82h98l12 152h77v-152h142v-82z" />
    <glyph glyph-name="u" unicode="u" horiz-adv-x="573" 
d="M236 -10q-39 0 -70.5 11t-54 36t-34.5 65t-12 98v315h92v-282q0 -46 6.5 -76t20.5 -48t36 -25.5t53 -7.5q30 0 55 9t43.5 30.5t28.5 57.5t10 90v252h92v-515h-76l-10 101q-21 -52 -68 -81.5t-112 -29.5z" />
    <glyph glyph-name="v" unicode="v" horiz-adv-x="511" 
d="M17 515h98l140 -410l141 410h98l-189 -515h-99z" />
    <glyph glyph-name="w" unicode="w" horiz-adv-x="777" 
d="M21 515h97l110 -407l113 407h95l113 -407l111 407h96l-159 -515h-98l-110 403l-111 -403h-98z" />
    <glyph glyph-name="x" unicode="x" horiz-adv-x="493" 
d="M194 265l-164 250h103l113 -185l114 185h103l-164 -250l171 -265h-103l-121 198l-120 -198h-104z" />
    <glyph glyph-name="y" unicode="y" horiz-adv-x="492" 
d="M193 19l-180 496h99l130 -394l138 394h99l-262 -680h-92z" />
    <glyph glyph-name="z" unicode="z" horiz-adv-x="450" 
d="M36 77l266 358h-249v80h351v-77l-267 -358h277v-80h-378v77z" />
    <glyph glyph-name="braceleft" unicode="{" horiz-adv-x="438" 
d="M326 -165q-99 0 -142 42.5t-43 139.5v128q0 45 -20 63t-75 18v83q56 0 75.5 18.5t19.5 63.5v127q0 97 42.5 139.5t141.5 42.5h85v-82h-70q-32 0 -53 -5t-33.5 -18t-17.5 -35t-5 -56v-129q0 -49 -18.5 -74t-55.5 -33q37 -8 55.5 -33.5t18.5 -73.5v-130q0 -34 5 -56
t17.5 -35t33.5 -18t53 -5h70v-82h-84v0z" />
    <glyph glyph-name="bar" unicode="|" horiz-adv-x="253" 
d="M81 700h91v-815h-91v815z" />
    <glyph glyph-name="braceright" unicode="}" horiz-adv-x="438" 
d="M28 -165v82h70q32 0 53 5t33.5 18t17.5 35t5 56v130q0 48 18.5 73.5t55.5 33.5q-37 8 -55.5 33t-18.5 74v129q0 34 -5 56t-17.5 35t-33.5 18t-53 5h-70v82h85q99 0 141.5 -42.5t42.5 -139.5v-127q0 -45 19.5 -63.5t75.5 -18.5v-83q-55 0 -75 -18t-20 -63v-128
q0 -97 -43 -139.5t-142 -42.5h-84z" />
    <glyph glyph-name="asciitilde" unicode="~" horiz-adv-x="457" 
d="M306 310q-21 0 -41.5 7.5t-39.5 16.5t-36.5 16.5t-32.5 7.5q-42 0 -73 -52l-59 52q26 39 57 61t70 22q22 0 42.5 -7.5t39 -16.5t36 -16.5t32.5 -7.5q42 0 73 52l59 -53q-26 -38 -56.5 -60t-70.5 -22z" />
    <glyph glyph-name="space_" unicode="&#xa0;" horiz-adv-x="211" 
 />
    <glyph glyph-name="exclamdown" unicode="&#xa1;" horiz-adv-x="255" 
d="M127 522q27 0 44 -16t17 -41q0 -26 -17 -42t-44 -16q-26 0 -43 16t-17 42q0 25 17 41t43 16zM82 183l9 125h76l9 -125v-348h-94v348z" />
    <glyph glyph-name="cent" unicode="&#xa2;" horiz-adv-x="507" 
d="M491 156q-24 -79 -70.5 -117.5t-109.5 -46.5v-92h-85v95q-39 8 -72.5 28.5t-58 53t-39 78t-14.5 102.5q0 58 14.5 103t39 78t58 53.5t72.5 28.5v95h85v-92q63 -8 104.5 -46.5t51.5 -121.5l-85 -18q-7 54 -32 78.5t-74 24.5q-62 0 -100 -46.5t-38 -136.5q0 -89 38 -135.5
t100 -46.5q54 0 84 24.5t47 75.5l84 -19v0z" />
    <glyph glyph-name="sterling" unicode="&#xa3;" horiz-adv-x="578" 
d="M522 87v-87h-456v82q26 24 47 45.5t35.5 42.5t22.5 43t8 48q0 15 -3 30h-110v82h79q-15 35 -29 73t-14 84q0 84 55 132t150 48q86 0 135 -43.5t66 -123.5l-73 -48q-11 65 -41.5 95.5t-84.5 30.5t-83 -26.5t-29 -75.5q0 -36 16 -72t33 -74h215v-82h-188q1 -8 1.5 -15
t0.5 -15q0 -46 -23 -86.5t-68 -87.5h338z" />
    <glyph glyph-name="currency" unicode="&#xa4;" horiz-adv-x="572" 
d="M481 311q0 -34 -9.5 -63.5t-26.5 -52.5l94 -86l-60 -60l-89 98q-45 -25 -103 -25q-69 0 -116 32l-87 -96l-60 60l96 88q-28 45 -28 105q0 35 9 64t26 52l-94 87l60 59l89 -98q47 25 105 25q66 0 114 -31l88 95l59 -60l-95 -87q28 -45 28 -106zM173 311q0 -54 30.5 -84
t83.5 -30q51 0 82 30t31 84q0 53 -31 83.5t-82 30.5q-53 0 -83.5 -30.5t-30.5 -83.5z" />
    <glyph glyph-name="yen" unicode="&#xa5;" horiz-adv-x="576" 
d="M421 419h110v-82h-151l-28 -57h179v-82h-197v-198h-94v198h-190v82h173l-29 57h-144v82h103l-140 281h102l172 -358l173 358h102z" />
    <glyph glyph-name="brokenbar" unicode="&#xa6;" horiz-adv-x="253" 
d="M81 700h91v-360h-91v360zM81 245h91v-360h-91v360z" />
    <glyph glyph-name="section" unicode="&#xa7;" horiz-adv-x="540" 
d="M279 -175q-91 0 -150.5 42t-92.5 108l78 50q26 -56 69 -83.5t96 -27.5q48 0 80.5 19.5t32.5 62.5q0 31 -22.5 52.5t-81.5 39.5l-86 27q-86 27 -122 69.5t-36 100.5q0 48 24.5 78.5t60.5 50.5q-39 24 -58.5 55.5t-19.5 75.5q0 39 16.5 69.5t45 51.5t67 32.5t83.5 11.5
q76 0 130 -36.5t78 -114.5l-72 -43q-18 58 -54.5 81.5t-84.5 23.5q-54 0 -84 -21.5t-30 -53.5q0 -30 21.5 -48.5t70.5 -33.5l85 -27q42 -14 74.5 -29t55 -35t34.5 -46t12 -60q0 -44 -20.5 -79t-56.5 -60q32 -23 49.5 -53t17.5 -76q0 -42 -16 -74.5t-44.5 -54.5t-67 -33.5
t-82.5 -11.5zM339 170q31 16 47.5 37.5t16.5 48.5q0 37 -29 58t-78 35l-75 22q-33 -6 -57.5 -28t-24.5 -54q0 -33 21 -52.5t69 -33.5z" />
    <glyph glyph-name="dieresis" unicode="&#xa8;" horiz-adv-x="356" 
d="M91 590q-25 0 -41 15t-16 39q0 23 16 38.5t41 15.5t41 -15.5t16 -38.5q0 -24 -16 -39t-41 -15zM266 590q-26 0 -41.5 15t-15.5 39q0 23 15.5 38.5t41.5 15.5q25 0 41 -15.5t16 -38.5q0 -24 -16 -39t-41 -15z" />
    <glyph glyph-name="copyright" unicode="&#xa9;" horiz-adv-x="833" 
d="M416 -10q-72 0 -136.5 23.5t-113 69t-76.5 112.5t-28 155t28 155.5t76.5 113t113 68.5t136.5 23t136.5 -23t113 -68.5t76.5 -113t28 -155.5t-28 -155t-76.5 -112.5t-113 -69t-136.5 -23.5zM416 57q65 0 117.5 21t89 59.5t56.5 92.5t20 120t-20 120t-56.5 92.5t-89 59.5
t-117.5 21t-117 -21t-88.5 -59.5t-56.5 -92.5t-20 -120t20 -120t56.5 -92.5t88.5 -59.5t117 -21zM421 149q-37 0 -69 13.5t-56 39t-37.5 63t-13.5 85.5t14 85.5t38 63t56 39t68 13.5q133 0 144 -138l-63 -13q-5 48 -26 67.5t-55 19.5q-21 0 -39.5 -7.5t-33 -24t-23 -42.5
t-8.5 -63q0 -36 8.5 -62t23 -42.5t33 -24.5t39.5 -8q39 0 60 18t35 61l65 -14q-16 -61 -56.5 -95t-103.5 -34z" />
    <glyph glyph-name="ordfeminine" unicode="&#xaa;" horiz-adv-x="405" 
d="M201 704q34 0 62 -8.5t48 -28t30.5 -51t10.5 -76.5v-240h-60l-10 66q-42 -74 -130 -74q-51 0 -83.5 30t-32.5 85q0 67 54.5 99t154.5 33q8 0 17 -0.5t17 -1.5v8q0 53 -19 73t-60 20q-28 0 -51 -13.5t-37 -46.5l-58 34q23 49 62.5 70.5t84.5 21.5zM176 356q21 0 39.5 5
t33 17.5t22.5 35t8 58.5v12q-14 1 -26 1h-25q-57 0 -87 -17.5t-30 -52.5q0 -32 18.5 -45.5t46.5 -13.5z" />
    <glyph glyph-name="guillemotleft" unicode="&#xab;" horiz-adv-x="588" 
d="M48 257l149 238h99l-149 -238l149 -238h-99zM292 257l149 238h99l-149 -238l149 -238h-99z" />
    <glyph glyph-name="logicalnot" unicode="&#xac;" horiz-adv-x="520" 
d="M367 353h-312v82h396v-235h-84v153z" />
    <glyph glyph-name="dash" unicode="&#xad;" horiz-adv-x="452" 
d="M55 348h342v-82h-342v82z" />
    <glyph glyph-name="registered" unicode="&#xae;" horiz-adv-x="833" 
d="M416 710q72 0 136.5 -23t113 -68.5t76.5 -113t28 -155.5t-28 -155t-76.5 -112.5t-113 -69t-136.5 -23.5t-136.5 23.5t-113 69t-76.5 112.5t-28 155t28 155.5t76.5 113t113 68.5t136.5 23zM416 57q65 0 117.5 21t89 59.5t56.5 92.5t20 120t-20 120t-56.5 92.5t-89 59.5
t-117.5 21t-117 -21t-88.5 -59.5t-56.5 -92.5t-20 -120t20 -120t56.5 -92.5t88.5 -59.5t117 -21zM558 429q0 -77 -66 -102l72 -166h-74l-63 156h-4h-66v-156h-67v379h133q66 0 100.5 -27t34.5 -84zM357 377h71q34 0 48.5 13t14.5 39t-14.5 38t-48.5 12h-71v-102z" />
    <glyph glyph-name="macron" unicode="&#xaf;" horiz-adv-x="352" 
d="M55 681h242v-77h-242v77z" />
    <glyph glyph-name="degree" unicode="&#xb0;" horiz-adv-x="387" 
d="M193 404q-34 0 -62.5 11t-49.5 31t-32.5 47.5t-11.5 60.5t11.5 60.5t32.5 47.5t49.5 31t62.5 11t63 -11t49.5 -31t32 -47.5t11.5 -60.5t-11.5 -60.5t-32 -47.5t-49.5 -31t-63 -11zM193 469q41 0 64 22.5t23 62.5t-23 62.5t-64 22.5t-63.5 -22.5t-22.5 -62.5t22.5 -62.5
t63.5 -22.5z" />
    <glyph glyph-name="plusminus" unicode="&#xb1;" horiz-adv-x="521" 
d="M466 456v-82h-164v-164h-83v164h-164v82h164v164h83v-164h164zM55 82h411v-82h-411v82z" />
    <glyph glyph-name="two.sups" unicode="&#xb2;" horiz-adv-x="317" 
d="M34 469l81 94q15 17 32 35.5t31 37t23.5 37.5t9.5 37q0 23 -13.5 36.5t-39.5 13.5q-27 0 -46.5 -19t-26.5 -61l-51 33q10 48 43 78t85 30q55 0 84.5 -30t29.5 -76q0 -40 -20.5 -74t-57.5 -76l-78 -89h166v-61h-252v54z" />
    <glyph glyph-name="three.sups" unicode="&#xb3;" horiz-adv-x="339" 
d="M168 409q-48 0 -84 21t-57 64l50 32q17 -32 40 -44.5t51 -12.5q32 0 50.5 16.5t18.5 44.5q0 30 -18.5 46t-62.5 16h-30v56h26q71 0 71 60q0 26 -16 39.5t-42 13.5q-23 0 -42.5 -12t-33.5 -42l-48 32q18 42 51.5 61.5t74.5 19.5q56 0 87.5 -27.5t31.5 -75.5
q0 -32 -15.5 -55.5t-38.5 -35.5q32 -11 51.5 -33.5t19.5 -62.5q0 -27 -10 -49t-27.5 -38t-42.5 -25t-55 -9z" />
    <glyph glyph-name="acute" unicode="&#xb4;" horiz-adv-x="224" 
d="M90 700h116l-94 -127h-86z" />
    <glyph glyph-name="mu" unicode="&#xb5;" horiz-adv-x="579" 
d="M70 515h92v-282q0 -46 6.5 -76t20.5 -48t36 -25.5t53 -7.5q30 0 55 9t43.5 30.5t28.5 57.5t10 90v252h93v-515h-77l-10 101q-21 -52 -68 -81.5t-110 -29.5q-28 0 -49 5.5t-32 12.5v-173h-92v680z" />
    <glyph glyph-name="paragraph" unicode="&#xb6;" horiz-adv-x="602" 
d="M521 -115h-83v731h-94v-731h-83v475h-31q-57 0 -96 12t-63 34.5t-35 54t-11 69.5t11 69.5t35 54t63 34.5t96 12h291v-815z" />
    <glyph glyph-name="periodcentered" unicode="&#xb7;" horiz-adv-x="229" 
d="M115 250q-27 0 -44 15.5t-17 41.5t17 41.5t44 15.5q26 0 43 -15.5t17 -41.5t-17 -41.5t-43 -15.5z" />
    <glyph glyph-name="cedilla" unicode="&#xb8;" horiz-adv-x="238" 
d="M92 0h80l-31 -130h-96z" />
    <glyph glyph-name="one.sups" unicode="&#xb9;" horiz-adv-x="210" 
d="M84 739l-63 -16v51l80 41h47v-400h-64v324z" />
    <glyph glyph-name="ordmasculine" unicode="&#xba;" horiz-adv-x="443" 
d="M221 294q-38 0 -71.5 13t-58.5 39t-39.5 64.5t-14.5 89.5t14.5 89.5t39.5 64.5t58.5 39t71.5 13q39 0 73 -13t58.5 -39t39 -64.5t14.5 -89.5t-14.5 -89.5t-39 -64.5t-58.5 -39t-73 -13zM221 362q51 0 80 34.5t29 103.5t-29 103.5t-80 34.5q-49 0 -78.5 -34.5
t-29.5 -103.5t29.5 -103.5t78.5 -34.5z" />
    <glyph glyph-name="guillemotright" unicode="&#xbb;" horiz-adv-x="588" 
d="M48 19l149 238l-149 238h99l149 -238l-149 -238h-99zM292 19l149 238l-149 238h99l149 -238l-149 -238h-99z" />
    <glyph glyph-name="onequarter" unicode="&#xbc;" horiz-adv-x="759" 
d="M84 624l-63 -16v51l80 41h47v-400h-64v324zM628 649l-521 -638l-49 41l522 637zM729 84h-54v-84h-62v84h-176v55l175 261h63v-261h54v-55zM613 139v169l-110 -169h110z" />
    <glyph glyph-name="onehalf" unicode="&#xbd;" horiz-adv-x="794" 
d="M84 624l-63 -16v51l80 41h47v-400h-64v324zM58 52l522 637l48 -40l-521 -638zM511 54l81 94q15 17 32 35.5t31 37t23.5 37.5t9.5 37q0 23 -13.5 36.5t-39.5 13.5q-27 0 -46.5 -19t-26.5 -61l-51 33q10 48 43 78t85 30q55 0 84.5 -30t29.5 -76q0 -40 -20.5 -74t-57.5 -76
l-78 -89h166v-61h-252v54z" />
    <glyph glyph-name="threequarters" unicode="&#xbe;" horiz-adv-x="888" 
d="M303 415q0 -27 -10 -49t-27.5 -38t-42.5 -25t-55 -9q-48 0 -84 21t-57 64l50 32q17 -32 40 -44.5t51 -12.5q32 0 50.5 16.5t18.5 44.5q0 30 -18.5 46t-62.5 16h-30v56h26q71 0 71 60q0 26 -16 39.5t-42 13.5q-23 0 -42.5 -12t-33.5 -42l-48 32q18 42 51.5 61.5t74.5 19.5
q56 0 87.5 -27.5t31.5 -75.5q0 -32 -15.5 -55.5t-38.5 -35.5q32 -11 51.5 -33.5t19.5 -62.5zM757 649l-521 -638l-49 41l522 637zM858 84h-54v-84h-62v84h-176v55l175 261h63v-261h54v-55zM742 139v169l-110 -169h110z" />
    <glyph glyph-name="questiondown" unicode="&#xbf;" horiz-adv-x="449" 
d="M230 522q27 0 44 -16t17 -41q0 -26 -17 -42t-44 -16q-26 0 -43 16t-17 42q0 25 17 41t43 16zM222 -175q-43 0 -77 11.5t-58 32.5t-37 49.5t-13 62.5q0 48 23.5 78.5t65.5 56.5l48 30q26 17 37.5 29.5t11.5 33.5q0 20 -17.5 34t-58.5 22l26 72q76 -13 109 -46.5t33 -78.5
q0 -39 -21.5 -66.5t-56.5 -50.5l-51 -33q-27 -17 -40.5 -33.5t-13.5 -41.5q0 -30 22.5 -52.5t70.5 -22.5t85 25.5t56 89.5l71 -45q-21 -73 -76.5 -115t-138.5 -42z" />
    <glyph glyph-name="Agrave" unicode="&#xc0;" horiz-adv-x="636" 
d="M280 758l-94 127h116l64 -127h-86zM459 181h-281l-62 -181h-98l248 700h104l248 -700h-97zM430 267l-112 326l-111 -326h223z" />
    <glyph glyph-name="Aacute" unicode="&#xc1;" horiz-adv-x="636" 
d="M356 758h-86l64 127h116zM459 181h-281l-62 -181h-98l248 700h104l248 -700h-97zM430 267l-112 326l-111 -326h223z" />
    <glyph glyph-name="Acircumflex" unicode="&#xc2;" horiz-adv-x="636" 
d="M263 758h-87l87 127h111l86 -127h-87l-55 62zM459 181h-281l-62 -181h-98l248 700h104l248 -700h-97zM430 267l-112 326l-111 -326h223z" />
    <glyph glyph-name="Atilde" unicode="&#xc3;" horiz-adv-x="636" 
d="M258 809q-17 0 -29 -10t-26 -34l-56 50q22 35 48 54.5t60 19.5q20 0 37 -6.5t32 -14t28 -13.5t26 -6q16 0 28 10.5t26 33.5l56 -50q-23 -37 -48.5 -55.5t-58.5 -18.5q-19 0 -35.5 6t-31.5 13.5t-29 14t-27 6.5zM459 181h-281l-62 -181h-98l248 700h104l248 -700h-97z
M430 267l-112 326l-111 -326h223z" />
    <glyph glyph-name="Adieresis" unicode="&#xc4;" horiz-adv-x="636" 
d="M231 775q-25 0 -41 15t-16 39q0 23 16 38.5t41 15.5q26 0 41.5 -15.5t15.5 -38.5q0 -24 -15.5 -39t-41.5 -15zM406 775q-25 0 -41 15t-16 39q0 23 16 38.5t41 15.5q26 0 41.5 -15.5t15.5 -38.5q0 -24 -15.5 -39t-41.5 -15zM459 181h-281l-62 -181h-98l248 700h104
l248 -700h-97zM430 267l-112 326l-111 -326h223z" />
    <glyph glyph-name="Aring" unicode="&#xc5;" horiz-adv-x="636" 
d="M318 743q-39 0 -64.5 23t-25.5 63q0 41 25.5 63.5t64.5 22.5q38 0 64 -22.5t26 -63.5q0 -40 -26 -63t-64 -23zM318 860q-14 0 -22.5 -7.5t-8.5 -23.5t8.5 -24t22.5 -8q13 0 22 8t9 24t-9 23.5t-22 7.5zM459 181h-281l-62 -181h-98l248 700h104l248 -700h-97zM430 267
l-112 326l-111 -326h223z" />
    <glyph glyph-name="AE" unicode="&#xc6;" horiz-adv-x="967" 
d="M928 88v-88h-450v181h-275l-86 -181h-102l335 700h572v-88h-350v-207h319v-89h-319v-228h356zM478 267v345h-69l-165 -345h234z" />
    <glyph glyph-name="Ccedilla" unicode="&#xc7;" horiz-adv-x="661" 
d="M637 214q-58 -202 -243 -222l-29 -122h-96l44 123q-56 7 -104.5 33.5t-84 71.5t-55.5 108.5t-20 143.5q0 87 24.5 154.5t66.5 113t97.5 69t118.5 23.5q116 0 177 -60t74 -180l-89 -19q-18 170 -162 170q-42 0 -79.5 -17t-66 -51t-45.5 -85t-17 -118q0 -68 17 -119
t45.5 -84.5t66 -50.5t79.5 -17q73 0 119 38t71 117l91 -20v0z" />
    <glyph glyph-name="Egrave" unicode="&#xc8;" horiz-adv-x="570" 
d="M175 885h116l64 -127h-86zM81 700h444v-88h-350v-207h319v-89h-319v-228h356v-88h-450v700z" />
    <glyph glyph-name="Eacute" unicode="&#xc9;" horiz-adv-x="570" 
d="M323 885h116l-94 -127h-86zM81 700h444v-88h-350v-207h319v-89h-319v-228h356v-88h-450v700z" />
    <glyph glyph-name="Ecircumflex" unicode="&#xca;" horiz-adv-x="570" 
d="M252 885h111l86 -127h-87l-55 62l-55 -62h-87zM81 700h444v-88h-350v-207h319v-89h-319v-228h356v-88h-450v700z" />
    <glyph glyph-name="Edieresis" unicode="&#xcb;" horiz-adv-x="570" 
d="M219 775q-25 0 -41 15t-16 39q0 23 16 38.5t41 15.5q26 0 41.5 -15.5t15.5 -38.5q0 -24 -15.5 -39t-41.5 -15zM394 775q-25 0 -41 15t-16 39q0 23 16 38.5t41 15.5q26 0 41.5 -15.5t15.5 -38.5q0 -24 -15.5 -39t-41.5 -15zM81 700h444v-88h-350v-207h319v-89h-319v-228
h356v-88h-450v700z" />
    <glyph glyph-name="Igrave" unicode="&#xcc;" horiz-adv-x="256" 
d="M-4 885h116l64 -127h-86zM81 700h94v-700h-94v700z" />
    <glyph glyph-name="Iacute" unicode="&#xcd;" horiz-adv-x="256" 
d="M144 885h116l-94 -127h-86zM81 700h94v-700h-94v700z" />
    <glyph glyph-name="Icircumflex" unicode="&#xce;" horiz-adv-x="256" 
d="M73 885h111l86 -127h-87l-55 62l-55 -62h-87zM81 700h94v-700h-94v700z" />
    <glyph glyph-name="Idieresis" unicode="&#xcf;" horiz-adv-x="256" 
d="M40 775q-25 0 -41 15t-16 39q0 23 16 38.5t41 15.5q26 0 41.5 -15.5t15.5 -38.5q0 -24 -15.5 -39t-41.5 -15zM215 775q-25 0 -41 15t-16 39q0 23 16 38.5t41 15.5q26 0 41.5 -15.5t15.5 -38.5q0 -24 -15.5 -39t-41.5 -15zM81 700h94v-700h-94v700z" />
    <glyph glyph-name="Eth" unicode="&#xd0;" horiz-adv-x="690" 
d="M309 700q168 0 250 -85t82 -265t-82 -265t-250 -85h-201v309h-82v82h82v309h201zM309 88q117 0 177 61.5t60 200.5t-60 200.5t-177 61.5h-107v-221h161v-82h-161v-221h107z" />
    <glyph glyph-name="Ntilde" unicode="&#xd1;" horiz-adv-x="704" 
d="M181 815q22 35 48 54.5t60 19.5q20 0 37 -6.5t32 -14t28 -13.5t26 -6q16 0 28 10.5t26 33.5l56 -50q-23 -37 -48.5 -55.5t-58.5 -18.5q-19 0 -35.5 6t-31.5 13.5t-29 14t-27 6.5q-17 0 -29 -10t-26 -34zM81 700h107l344 -566v566h91v-700h-107l-344 553v-553h-91v700z
" />
    <glyph glyph-name="Ograve" unicode="&#xd2;" 
d="M239 885h116l64 -127h-86zM371 -10q-69 0 -127.5 23.5t-102 69t-68 112.5t-24.5 155q0 87 24.5 154.5t68 113t102 69t127.5 23.5q68 0 126.5 -23.5t101.5 -69t67.5 -113t24.5 -154.5q0 -88 -24.5 -155t-67.5 -112.5t-101.5 -69t-126.5 -23.5zM371 79q46 0 86.5 17
t70.5 50.5t47.5 84.5t17.5 119q0 67 -17.5 118t-47.5 85t-70.5 51t-86.5 17q-47 0 -87.5 -17t-70.5 -51t-47.5 -85t-17.5 -118q0 -68 17.5 -119t47.5 -84.5t70.5 -50.5t87.5 -17z" />
    <glyph glyph-name="Oacute" unicode="&#xd3;" 
d="M387 885h116l-94 -127h-86zM371 -10q-69 0 -127.5 23.5t-102 69t-68 112.5t-24.5 155q0 87 24.5 154.5t68 113t102 69t127.5 23.5q68 0 126.5 -23.5t101.5 -69t67.5 -113t24.5 -154.5q0 -88 -24.5 -155t-67.5 -112.5t-101.5 -69t-126.5 -23.5zM371 79q46 0 86.5 17
t70.5 50.5t47.5 84.5t17.5 119q0 67 -17.5 118t-47.5 85t-70.5 51t-86.5 17q-47 0 -87.5 -17t-70.5 -51t-47.5 -85t-17.5 -118q0 -68 17.5 -119t47.5 -84.5t70.5 -50.5t87.5 -17z" />
    <glyph glyph-name="Ocircumflex" unicode="&#xd4;" 
d="M316 885h111l86 -127h-87l-55 62l-55 -62h-87zM371 -10q-69 0 -127.5 23.5t-102 69t-68 112.5t-24.5 155q0 87 24.5 154.5t68 113t102 69t127.5 23.5q68 0 126.5 -23.5t101.5 -69t67.5 -113t24.5 -154.5q0 -88 -24.5 -155t-67.5 -112.5t-101.5 -69t-126.5 -23.5zM371 79
q46 0 86.5 17t70.5 50.5t47.5 84.5t17.5 119q0 67 -17.5 118t-47.5 85t-70.5 51t-86.5 17q-47 0 -87.5 -17t-70.5 -51t-47.5 -85t-17.5 -118q0 -68 17.5 -119t47.5 -84.5t70.5 -50.5t87.5 -17z" />
    <glyph glyph-name="Otilde" unicode="&#xd5;" 
d="M200 815q22 35 48 54.5t60 19.5q20 0 37 -6.5t32 -14t28 -13.5t26 -6q16 0 28 10.5t26 33.5l56 -50q-23 -37 -48.5 -55.5t-58.5 -18.5q-19 0 -35.5 6t-31.5 13.5t-29 14t-27 6.5q-17 0 -29 -10t-26 -34zM371 -10q-69 0 -127.5 23.5t-102 69t-68 112.5t-24.5 155
q0 87 24.5 154.5t68 113t102 69t127.5 23.5q68 0 126.5 -23.5t101.5 -69t67.5 -113t24.5 -154.5q0 -88 -24.5 -155t-67.5 -112.5t-101.5 -69t-126.5 -23.5zM371 79q46 0 86.5 17t70.5 50.5t47.5 84.5t17.5 119q0 67 -17.5 118t-47.5 85t-70.5 51t-86.5 17q-47 0 -87.5 -17
t-70.5 -51t-47.5 -85t-17.5 -118q0 -68 17.5 -119t47.5 -84.5t70.5 -50.5t87.5 -17z" />
    <glyph glyph-name="Odieresis" unicode="&#xd6;" 
d="M283 775q-25 0 -41 15t-16 39q0 23 16 38.5t41 15.5q26 0 41.5 -15.5t15.5 -38.5q0 -24 -15.5 -39t-41.5 -15zM458 775q-25 0 -41 15t-16 39q0 23 16 38.5t41 15.5q26 0 41.5 -15.5t15.5 -38.5q0 -24 -15.5 -39t-41.5 -15zM371 -10q-69 0 -127.5 23.5t-102 69t-68 112.5
t-24.5 155q0 87 24.5 154.5t68 113t102 69t127.5 23.5q68 0 126.5 -23.5t101.5 -69t67.5 -113t24.5 -154.5q0 -88 -24.5 -155t-67.5 -112.5t-101.5 -69t-126.5 -23.5zM371 79q46 0 86.5 17t70.5 50.5t47.5 84.5t17.5 119q0 67 -17.5 118t-47.5 85t-70.5 51t-86.5 17
q-47 0 -87.5 -17t-70.5 -51t-47.5 -85t-17.5 -118q0 -68 17.5 -119t47.5 -84.5t70.5 -50.5t87.5 -17z" />
    <glyph glyph-name="multiply" unicode="&#xd7;" horiz-adv-x="439" 
d="M277 334l116 -116l-58 -58l-116 116l-116 -116l-58 58l116 116l-116 116l58 58l116 -116l116 116l58 -58z" />
    <glyph glyph-name="Oslash" unicode="&#xd8;" 
d="M587 630q49 -46 76.5 -116t27.5 -164q0 -88 -24.5 -155t-67.5 -112.5t-101.5 -69t-126.5 -23.5q-83 0 -149 33l-32 -53l-72 39l36 60q-49 46 -77 116t-28 165q0 87 24.5 154.5t68 113t102 69t127.5 23.5q83 0 149 -33l32 53l72 -39zM148 350q0 -64 15.5 -112.5
t42.5 -82.5l266 442q-45 24 -101 24q-47 0 -87.5 -17t-70.5 -51t-47.5 -85t-17.5 -118zM371 79q46 0 86.5 17t70.5 50.5t47.5 84.5t17.5 119q0 63 -15.5 111.5t-41.5 82.5l-266 -442q46 -23 101 -23z" />
    <glyph glyph-name="Ugrave" unicode="&#xd9;" horiz-adv-x="695" 
d="M216 885h116l64 -127h-86zM348 -10q-64 0 -114.5 17t-85 54.5t-53 97t-18.5 144.5v397h94v-386q0 -66 11 -110.5t33 -72.5t55 -40t78 -12q43 0 76 12t55.5 40t34 73t11.5 111v385h94l-1 -397q0 -85 -18.5 -144.5t-53.5 -97t-85 -54.5t-113 -17z" />
    <glyph glyph-name="Uacute" unicode="&#xda;" horiz-adv-x="695" 
d="M364 885h116l-94 -127h-86zM348 -10q-64 0 -114.5 17t-85 54.5t-53 97t-18.5 144.5v397h94v-386q0 -66 11 -110.5t33 -72.5t55 -40t78 -12q43 0 76 12t55.5 40t34 73t11.5 111v385h94l-1 -397q0 -85 -18.5 -144.5t-53.5 -97t-85 -54.5t-113 -17z" />
    <glyph glyph-name="Ucircumflex" unicode="&#xdb;" horiz-adv-x="695" 
d="M293 885h111l86 -127h-87l-55 62l-55 -62h-87zM348 -10q-64 0 -114.5 17t-85 54.5t-53 97t-18.5 144.5v397h94v-386q0 -66 11 -110.5t33 -72.5t55 -40t78 -12q43 0 76 12t55.5 40t34 73t11.5 111v385h94l-1 -397q0 -85 -18.5 -144.5t-53.5 -97t-85 -54.5t-113 -17z" />
    <glyph glyph-name="Udieresis" unicode="&#xdc;" horiz-adv-x="695" 
d="M260 775q-25 0 -41 15t-16 39q0 23 16 38.5t41 15.5q26 0 41.5 -15.5t15.5 -38.5q0 -24 -15.5 -39t-41.5 -15zM435 775q-25 0 -41 15t-16 39q0 23 16 38.5t41 15.5q26 0 41.5 -15.5t15.5 -38.5q0 -24 -15.5 -39t-41.5 -15zM348 -10q-64 0 -114.5 17t-85 54.5t-53 97
t-18.5 144.5v397h94v-386q0 -66 11 -110.5t33 -72.5t55 -40t78 -12q43 0 76 12t55.5 40t34 73t11.5 111v385h94l-1 -397q0 -85 -18.5 -144.5t-53.5 -97t-85 -54.5t-113 -17z" />
    <glyph glyph-name="Yacute" unicode="&#xdd;" horiz-adv-x="576" 
d="M326 758h-86l64 127h116zM335 244v-244h-94v244l-228 456h102l173 -358l173 358h101z" />
    <glyph glyph-name="Thorn" unicode="&#xde;" horiz-adv-x="596" 
d="M332 559q115 0 174 -53t59 -156t-59 -156t-174 -53h-157v-141h-94v700h94v-141h157zM332 230q69 0 103.5 29t34.5 91t-34.5 91t-103.5 29h-157v-240h157z" />
    <glyph glyph-name="germandbls" unicode="&#xdf;" horiz-adv-x="632" 
d="M379 372q0 -21 16.5 -34t41.5 -24t54 -22.5t54 -29.5t41.5 -45.5t16.5 -70.5q0 -36 -12.5 -65t-34 -49.5t-50.5 -31t-62 -10.5q-61 0 -106 28t-72 86l70 42q20 -42 47 -56.5t59 -14.5q31 0 50.5 18t19.5 50q0 26 -16.5 42.5t-41.5 29t-54.5 24t-54.5 27.5t-41.5 40
t-16.5 61q0 35 19.5 60.5t43.5 47t43.5 42t19.5 47.5q0 32 -25.5 48.5t-67.5 16.5q-26 0 -48.5 -6.5t-38.5 -22.5t-25 -43t-9 -67v-490h-92v433h-90v82h90q3 100 60 149.5t156 49.5q83 0 133.5 -37.5t50.5 -106.5q0 -42 -20 -70.5t-44 -50.5t-44 -40t-20 -37z" />
    <glyph glyph-name="agrave" unicode="&#xe0;" horiz-adv-x="518" 
d="M223 573l-94 127h116l64 -127h-86zM258 525q45 0 81 -11t61.5 -36.5t39 -66t13.5 -99.5v-312h-75l-13 87q-27 -48 -71 -72.5t-100 -24.5q-33 0 -60.5 10t-47.5 29t-31.5 47t-11.5 63q0 88 69 130.5t203 42.5q11 0 23 -0.5t24 -1.5v9q0 70 -25.5 96t-82.5 26
q-36 0 -67.5 -17t-48.5 -61l-72 42q15 32 35.5 54.5t45.5 37t53.5 21.5t57.5 7zM225 69q27 0 52 7t44 24t30 47t11 76v16q-19 1 -35.5 1.5t-33.5 0.5q-77 0 -117 -22t-40 -69q0 -42 26 -61.5t63 -19.5z" />
    <glyph glyph-name="aacute" unicode="&#xe1;" horiz-adv-x="518" 
d="M299 573h-86l64 127h116zM258 525q45 0 81 -11t61.5 -36.5t39 -66t13.5 -99.5v-312h-75l-13 87q-27 -48 -71 -72.5t-100 -24.5q-33 0 -60.5 10t-47.5 29t-31.5 47t-11.5 63q0 88 69 130.5t203 42.5q11 0 23 -0.5t24 -1.5v9q0 70 -25.5 96t-82.5 26q-36 0 -67.5 -17
t-48.5 -61l-72 42q15 32 35.5 54.5t45.5 37t53.5 21.5t57.5 7zM225 69q27 0 52 7t44 24t30 47t11 76v16q-19 1 -35.5 1.5t-33.5 0.5q-77 0 -117 -22t-40 -69q0 -42 26 -61.5t63 -19.5z" />
    <glyph glyph-name="acircumflex" unicode="&#xe2;" horiz-adv-x="518" 
d="M206 573h-87l87 127h111l86 -127h-87l-55 62zM258 525q45 0 81 -11t61.5 -36.5t39 -66t13.5 -99.5v-312h-75l-13 87q-27 -48 -71 -72.5t-100 -24.5q-33 0 -60.5 10t-47.5 29t-31.5 47t-11.5 63q0 88 69 130.5t203 42.5q11 0 23 -0.5t24 -1.5v9q0 70 -25.5 96t-82.5 26
q-36 0 -67.5 -17t-48.5 -61l-72 42q15 32 35.5 54.5t45.5 37t53.5 21.5t57.5 7zM225 69q27 0 52 7t44 24t30 47t11 76v16q-19 1 -35.5 1.5t-33.5 0.5q-77 0 -117 -22t-40 -69q0 -42 26 -61.5t63 -19.5z" />
    <glyph glyph-name="atilde" unicode="&#xe3;" horiz-adv-x="518" 
d="M201 624q-17 0 -29 -10t-26 -34l-56 50q22 35 48 54.5t60 19.5q20 0 37 -6.5t32 -14t28 -13.5t26 -6q16 0 28 10.5t26 33.5l56 -50q-23 -37 -48.5 -55.5t-58.5 -18.5q-19 0 -35.5 6t-31.5 13.5t-29 14t-27 6.5zM258 525q45 0 81 -11t61.5 -36.5t39 -66t13.5 -99.5v-312
h-75l-13 87q-27 -48 -71 -72.5t-100 -24.5q-33 0 -60.5 10t-47.5 29t-31.5 47t-11.5 63q0 88 69 130.5t203 42.5q11 0 23 -0.5t24 -1.5v9q0 70 -25.5 96t-82.5 26q-36 0 -67.5 -17t-48.5 -61l-72 42q15 32 35.5 54.5t45.5 37t53.5 21.5t57.5 7zM225 69q27 0 52 7t44 24
t30 47t11 76v16q-19 1 -35.5 1.5t-33.5 0.5q-77 0 -117 -22t-40 -69q0 -42 26 -61.5t63 -19.5z" />
    <glyph glyph-name="adieresis" unicode="&#xe4;" horiz-adv-x="518" 
d="M174 590q-25 0 -41 15t-16 39q0 23 16 38.5t41 15.5q26 0 41.5 -15.5t15.5 -38.5q0 -24 -15.5 -39t-41.5 -15zM349 590q-25 0 -41 15t-16 39q0 23 16 38.5t41 15.5q26 0 41.5 -15.5t15.5 -38.5q0 -24 -15.5 -39t-41.5 -15zM258 525q45 0 81 -11t61.5 -36.5t39 -66
t13.5 -99.5v-312h-75l-13 87q-27 -48 -71 -72.5t-100 -24.5q-33 0 -60.5 10t-47.5 29t-31.5 47t-11.5 63q0 88 69 130.5t203 42.5q11 0 23 -0.5t24 -1.5v9q0 70 -25.5 96t-82.5 26q-36 0 -67.5 -17t-48.5 -61l-72 42q15 32 35.5 54.5t45.5 37t53.5 21.5t57.5 7zM225 69
q27 0 52 7t44 24t30 47t11 76v16q-19 1 -35.5 1.5t-33.5 0.5q-77 0 -117 -22t-40 -69q0 -42 26 -61.5t63 -19.5z" />
    <glyph glyph-name="aring" unicode="&#xe5;" horiz-adv-x="518" 
d="M261 558q-39 0 -64.5 23t-25.5 63q0 41 25.5 63.5t64.5 22.5q38 0 64 -22.5t26 -63.5q0 -40 -26 -63t-64 -23zM261 675q-14 0 -22.5 -7.5t-8.5 -23.5t8.5 -24t22.5 -8q13 0 22 8t9 24t-9 23.5t-22 7.5zM258 525q45 0 81 -11t61.5 -36.5t39 -66t13.5 -99.5v-312h-75
l-13 87q-27 -48 -71 -72.5t-100 -24.5q-33 0 -60.5 10t-47.5 29t-31.5 47t-11.5 63q0 88 69 130.5t203 42.5q11 0 23 -0.5t24 -1.5v9q0 70 -25.5 96t-82.5 26q-36 0 -67.5 -17t-48.5 -61l-72 42q15 32 35.5 54.5t45.5 37t53.5 21.5t57.5 7zM225 69q27 0 52 7t44 24t30 47
t11 76v16q-19 1 -35.5 1.5t-33.5 0.5q-77 0 -117 -22t-40 -69q0 -42 26 -61.5t63 -19.5z" />
    <glyph glyph-name="ae" unicode="&#xe6;" horiz-adv-x="859" 
d="M604 72q48 0 78.5 21t46.5 59l85 -19q-15 -38 -37.5 -65.5t-50 -44.5t-59.5 -25t-65 -8q-32 0 -63 7.5t-57.5 22.5t-47.5 38t-33 55q-27 -66 -77.5 -94.5t-116.5 -28.5q-77 0 -120.5 39t-43.5 110q0 84 67 126.5t211 42.5h41v13q-1 66 -28.5 93t-78.5 27q-37 0 -68.5 -17
t-48.5 -61l-72 42q29 64 81.5 92t111.5 28q55 0 98.5 -22t62.5 -78q26 50 75.5 75t105.5 25q45 0 84 -13t67.5 -39.5t45 -66t16.5 -93.5q0 -20 -2 -39t-7 -42h-348q5 -80 44 -120t103 -40zM600 443q-28 0 -52 -7.5t-42.5 -24t-31 -42.5t-16.5 -62h264q1 8 1 11.5v7.5
q0 58 -32.5 87.5t-90.5 29.5zM227 69q27 0 51 7t43 24.5t30 47.5t11 75v11h-55q-92 0 -131.5 -20t-39.5 -64q0 -42 26.5 -61.5t64.5 -19.5z" />
    <glyph glyph-name="ccedilla" unicode="&#xe7;" horiz-adv-x="507" 
d="M491 156q-23 -76 -67.5 -114.5t-104.5 -48.5l-29 -123h-96l44 123q-41 6 -76.5 25.5t-62 52.5t-42 79.5t-15.5 106.5q0 67 19 117t51 83.5t74.5 50.5t89.5 17q38 0 70.5 -9t57.5 -29t41 -52.5t22 -79.5l-85 -18q-7 54 -32 78.5t-74 24.5q-62 0 -100 -46.5t-38 -136.5
q0 -89 38 -135.5t100 -46.5q54 0 84 24.5t47 75.5l84 -19v0z" />
    <glyph glyph-name="egrave" unicode="&#xe8;" horiz-adv-x="537" 
d="M240 573l-94 127h116l64 -127h-86zM282 72q48 0 78.5 21t45.5 59l85 -19q-14 -38 -36.5 -65.5t-50.5 -44.5t-59.5 -25t-64.5 -8q-50 0 -93.5 17.5t-75.5 51t-50.5 83.5t-18.5 115t18.5 115t50 84t74.5 51.5t93 17.5q45 0 84.5 -14t68 -41.5t45 -68t16.5 -94.5
q0 -39 -10 -83h-347q7 -76 46 -114t101 -38zM278 443q-57 0 -94.5 -34.5t-47.5 -106.5h264q1 7 1 10.5v7.5q0 57 -32 90t-91 33z" />
    <glyph glyph-name="eacute" unicode="&#xe9;" horiz-adv-x="537" 
d="M316 573h-86l64 127h116zM282 72q48 0 78.5 21t45.5 59l85 -19q-14 -38 -36.5 -65.5t-50.5 -44.5t-59.5 -25t-64.5 -8q-50 0 -93.5 17.5t-75.5 51t-50.5 83.5t-18.5 115t18.5 115t50 84t74.5 51.5t93 17.5q45 0 84.5 -14t68 -41.5t45 -68t16.5 -94.5q0 -39 -10 -83h-347
q7 -76 46 -114t101 -38zM278 443q-57 0 -94.5 -34.5t-47.5 -106.5h264q1 7 1 10.5v7.5q0 57 -32 90t-91 33z" />
    <glyph glyph-name="ecircumflex" unicode="&#xea;" horiz-adv-x="537" 
d="M223 573h-87l87 127h111l86 -127h-87l-55 62zM282 72q48 0 78.5 21t45.5 59l85 -19q-14 -38 -36.5 -65.5t-50.5 -44.5t-59.5 -25t-64.5 -8q-50 0 -93.5 17.5t-75.5 51t-50.5 83.5t-18.5 115t18.5 115t50 84t74.5 51.5t93 17.5q45 0 84.5 -14t68 -41.5t45 -68t16.5 -94.5
q0 -39 -10 -83h-347q7 -76 46 -114t101 -38zM278 443q-57 0 -94.5 -34.5t-47.5 -106.5h264q1 7 1 10.5v7.5q0 57 -32 90t-91 33z" />
    <glyph glyph-name="edieresis" unicode="&#xeb;" horiz-adv-x="537" 
d="M191 590q-25 0 -41 15t-16 39q0 23 16 38.5t41 15.5q26 0 41.5 -15.5t15.5 -38.5q0 -24 -15.5 -39t-41.5 -15zM366 590q-25 0 -41 15t-16 39q0 23 16 38.5t41 15.5q26 0 41.5 -15.5t15.5 -38.5q0 -24 -15.5 -39t-41.5 -15zM282 72q48 0 78.5 21t45.5 59l85 -19
q-14 -38 -36.5 -65.5t-50.5 -44.5t-59.5 -25t-64.5 -8q-50 0 -93.5 17.5t-75.5 51t-50.5 83.5t-18.5 115t18.5 115t50 84t74.5 51.5t93 17.5q45 0 84.5 -14t68 -41.5t45 -68t16.5 -94.5q0 -39 -10 -83h-347q7 -76 46 -114t101 -38zM278 443q-57 0 -94.5 -34.5t-47.5 -106.5
h264q1 7 1 10.5v7.5q0 57 -32 90t-91 33z" />
    <glyph glyph-name="igrave" unicode="&#xec;" horiz-adv-x="233" 
d="M-15 700h116l64 -127h-86zM70 515h93v-515h-93v515z" />
    <glyph glyph-name="iacute" unicode="&#xed;" horiz-adv-x="233" 
d="M133 700h116l-94 -127h-86zM70 515h93v-515h-93v515z" />
    <glyph glyph-name="icircumflex" unicode="&#xee;" horiz-adv-x="233" 
d="M62 700h111l86 -127h-87l-55 62l-55 -62h-87zM70 515h93v-515h-93v515z" />
    <glyph glyph-name="idieresis" unicode="&#xef;" horiz-adv-x="233" 
d="M29 590q-25 0 -41 15t-16 39q0 23 16 38.5t41 15.5q26 0 41.5 -15.5t15.5 -38.5q0 -24 -15.5 -39t-41.5 -15zM204 590q-25 0 -41 15t-16 39q0 23 16 38.5t41 15.5q26 0 41.5 -15.5t15.5 -38.5q0 -24 -15.5 -39t-41.5 -15zM70 515h93v-515h-93v515z" />
    <glyph glyph-name="eth" unicode="&#xf0;" horiz-adv-x="571" 
d="M441 592q40 -47 61.5 -111.5t21.5 -149.5q0 -86 -17.5 -150t-50 -106.5t-78.5 -63.5t-103 -21q-53 0 -96 18t-73.5 49.5t-47 74.5t-16.5 92q0 57 17.5 99t47.5 70t69 42t82 14q64 0 109 -30t65 -85v25q-3 64 -20.5 110.5t-46.5 79.5l-103 -58l-28 52l83 47
q-29 20 -63 31.5t-69 18.5l25 74q54 -11 101 -30t85 -49l83 47l29 -53zM273 79q30 0 55.5 9.5t44.5 27.5t30 45t11 63t-11 62.5t-30 44t-44.5 26t-54.5 8.5t-53.5 -8.5t-43.5 -26t-29.5 -44t-10.5 -62.5q0 -66 38 -105.5t98 -39.5z" />
    <glyph glyph-name="ntilde" unicode="&#xf1;" horiz-adv-x="573" 
d="M116 630q22 35 48 54.5t60 19.5q20 0 37 -6.5t32 -14t28 -13.5t26 -6q16 0 28 10.5t26 33.5l56 -50q-23 -37 -48.5 -55.5t-58.5 -18.5q-19 0 -35.5 6t-31.5 13.5t-29 14t-27 6.5q-17 0 -29 -10t-26 -34zM70 515h77l10 -116q17 60 61 93t119 33q39 0 70.5 -11t54 -36
t34.5 -65t12 -98v-315h-92v282q0 46 -6.5 76.5t-21 48.5t-36.5 25t-52 7q-31 0 -56.5 -9.5t-43.5 -32t-27.5 -59t-9.5 -90.5v-248h-93v515z" />
    <glyph glyph-name="ograve" unicode="&#xf2;" horiz-adv-x="565" 
d="M151 700h116l64 -127h-86zM283 -10q-51 0 -95 17t-76.5 50.5t-51 83.5t-18.5 116q0 67 18.5 117t51 83.5t76.5 50.5t95 17q50 0 94 -17t76.5 -50.5t51 -83.5t18.5 -117q0 -66 -18.5 -116t-51 -83.5t-76.5 -50.5t-94 -17zM283 75q67 0 105.5 46.5t38.5 135.5
q0 90 -38.5 136.5t-105.5 46.5q-68 0 -106.5 -46.5t-38.5 -136.5q0 -89 38.5 -135.5t106.5 -46.5z" />
    <glyph glyph-name="oacute" unicode="&#xf3;" horiz-adv-x="565" 
d="M299 700h116l-94 -127h-86zM283 -10q-51 0 -95 17t-76.5 50.5t-51 83.5t-18.5 116q0 67 18.5 117t51 83.5t76.5 50.5t95 17q50 0 94 -17t76.5 -50.5t51 -83.5t18.5 -117q0 -66 -18.5 -116t-51 -83.5t-76.5 -50.5t-94 -17zM283 75q67 0 105.5 46.5t38.5 135.5
q0 90 -38.5 136.5t-105.5 46.5q-68 0 -106.5 -46.5t-38.5 -136.5q0 -89 38.5 -135.5t106.5 -46.5z" />
    <glyph glyph-name="ocircumflex" unicode="&#xf4;" horiz-adv-x="565" 
d="M228 700h111l86 -127h-87l-55 62l-55 -62h-87zM283 -10q-51 0 -95 17t-76.5 50.5t-51 83.5t-18.5 116q0 67 18.5 117t51 83.5t76.5 50.5t95 17q50 0 94 -17t76.5 -50.5t51 -83.5t18.5 -117q0 -66 -18.5 -116t-51 -83.5t-76.5 -50.5t-94 -17zM283 75q67 0 105.5 46.5
t38.5 135.5q0 90 -38.5 136.5t-105.5 46.5q-68 0 -106.5 -46.5t-38.5 -136.5q0 -89 38.5 -135.5t106.5 -46.5z" />
    <glyph glyph-name="otilde" unicode="&#xf5;" horiz-adv-x="565" 
d="M112 630q22 35 48 54.5t60 19.5q20 0 37 -6.5t32 -14t28 -13.5t26 -6q16 0 28 10.5t26 33.5l56 -50q-23 -37 -48.5 -55.5t-58.5 -18.5q-19 0 -35.5 6t-31.5 13.5t-29 14t-27 6.5q-17 0 -29 -10t-26 -34zM283 -10q-51 0 -95 17t-76.5 50.5t-51 83.5t-18.5 116
q0 67 18.5 117t51 83.5t76.5 50.5t95 17q50 0 94 -17t76.5 -50.5t51 -83.5t18.5 -117q0 -66 -18.5 -116t-51 -83.5t-76.5 -50.5t-94 -17zM283 75q67 0 105.5 46.5t38.5 135.5q0 90 -38.5 136.5t-105.5 46.5q-68 0 -106.5 -46.5t-38.5 -136.5q0 -89 38.5 -135.5t106.5 -46.5z
" />
    <glyph glyph-name="odieresis" unicode="&#xf6;" horiz-adv-x="565" 
d="M195 590q-25 0 -41 15t-16 39q0 23 16 38.5t41 15.5q26 0 41.5 -15.5t15.5 -38.5q0 -24 -15.5 -39t-41.5 -15zM370 590q-25 0 -41 15t-16 39q0 23 16 38.5t41 15.5q26 0 41.5 -15.5t15.5 -38.5q0 -24 -15.5 -39t-41.5 -15zM283 -10q-51 0 -95 17t-76.5 50.5t-51 83.5
t-18.5 116q0 67 18.5 117t51 83.5t76.5 50.5t95 17q50 0 94 -17t76.5 -50.5t51 -83.5t18.5 -117q0 -66 -18.5 -116t-51 -83.5t-76.5 -50.5t-94 -17zM283 75q67 0 105.5 46.5t38.5 135.5q0 90 -38.5 136.5t-105.5 46.5q-68 0 -106.5 -46.5t-38.5 -136.5q0 -89 38.5 -135.5
t106.5 -46.5z" />
    <glyph glyph-name="divide" unicode="&#xf7;" horiz-adv-x="521" 
d="M261 468q-27 0 -44 16t-17 41q0 26 17 42t44 16q26 0 43 -16t17 -42q0 -25 -17 -41t-43 -16zM55 375h411v-82h-411v82zM261 85q-27 0 -44 16t-17 42q0 25 17 41t44 16q26 0 43 -16t17 -41q0 -26 -17 -42t-43 -16z" />
    <glyph glyph-name="oslash" unicode="&#xf8;" horiz-adv-x="568" 
d="M429 480q44 -32 69.5 -88t25.5 -135q0 -66 -18.5 -116t-51 -83.5t-76.5 -50.5t-94 -17q-48 0 -88 15l-23 -48l-60 27l25 52q-43 32 -68.5 87.5t-25.5 133.5q0 67 18.5 117t51 83.5t76.5 50.5t94 17q45 0 87 -14l23 47l60 -26zM137 257q0 -47 10.5 -81.5t30.5 -57.5
l156 317q-21 7 -50 7q-69 0 -108 -47t-39 -138zM284 73q69 0 108 46.5t39 137.5q0 93 -42 141l-156 -317q26 -8 51 -8z" />
    <glyph glyph-name="ugrave" unicode="&#xf9;" horiz-adv-x="573" 
d="M152 700h116l64 -127h-86zM236 -10q-39 0 -70.5 11t-54 36t-34.5 65t-12 98v315h92v-282q0 -46 6.5 -76t20.5 -48t36 -25.5t53 -7.5q30 0 55 9t43.5 30.5t28.5 57.5t10 90v252h92v-515h-76l-10 101q-21 -52 -68 -81.5t-112 -29.5z" />
    <glyph glyph-name="uacute" unicode="&#xfa;" horiz-adv-x="573" 
d="M300 700h116l-94 -127h-86zM236 -10q-39 0 -70.5 11t-54 36t-34.5 65t-12 98v315h92v-282q0 -46 6.5 -76t20.5 -48t36 -25.5t53 -7.5q30 0 55 9t43.5 30.5t28.5 57.5t10 90v252h92v-515h-76l-10 101q-21 -52 -68 -81.5t-112 -29.5z" />
    <glyph glyph-name="ucircumflex" unicode="&#xfb;" horiz-adv-x="573" 
d="M229 700h111l86 -127h-87l-55 62l-55 -62h-87zM236 -10q-39 0 -70.5 11t-54 36t-34.5 65t-12 98v315h92v-282q0 -46 6.5 -76t20.5 -48t36 -25.5t53 -7.5q30 0 55 9t43.5 30.5t28.5 57.5t10 90v252h92v-515h-76l-10 101q-21 -52 -68 -81.5t-112 -29.5z" />
    <glyph glyph-name="udieresis" unicode="&#xfc;" horiz-adv-x="573" 
d="M196 590q-25 0 -41 15t-16 39q0 23 16 38.5t41 15.5q26 0 41.5 -15.5t15.5 -38.5q0 -24 -15.5 -39t-41.5 -15zM371 590q-25 0 -41 15t-16 39q0 23 16 38.5t41 15.5q26 0 41.5 -15.5t15.5 -38.5q0 -24 -15.5 -39t-41.5 -15zM236 -10q-39 0 -70.5 11t-54 36t-34.5 65
t-12 98v315h92v-282q0 -46 6.5 -76t20.5 -48t36 -25.5t53 -7.5q30 0 55 9t43.5 30.5t28.5 57.5t10 90v252h92v-515h-76l-10 101q-21 -52 -68 -81.5t-112 -29.5z" />
    <glyph glyph-name="yacute" unicode="&#xfd;" horiz-adv-x="492" 
d="M261 700h116l-94 -127h-86zM193 19l-180 496h99l130 -394l138 394h99l-262 -680h-92z" />
    <glyph glyph-name="thorn" unicode="&#xfe;" horiz-adv-x="584" 
d="M70 700h93v-278q23 53 69 78t105 25q44 0 80.5 -16.5t63 -50t41.5 -84t15 -117.5q0 -68 -16 -118t-43 -83t-64 -49.5t-79 -16.5q-61 0 -103.5 26.5t-68.5 74.5v-256h-93v865zM304 75q70 0 104 47.5t34 134.5q0 88 -34 135.5t-104 47.5q-65 0 -104 -44t-39 -141
q0 -82 37.5 -131t105.5 -49z" />
    <glyph glyph-name="ydieresis" unicode="&#xff;" horiz-adv-x="492" 
d="M158 590q-25 0 -41 15t-16 39q0 23 16 38.5t41 15.5q26 0 41.5 -15.5t15.5 -38.5q0 -24 -15.5 -39t-41.5 -15zM333 590q-25 0 -41 15t-16 39q0 23 16 38.5t41 15.5q26 0 41.5 -15.5t15.5 -38.5q0 -24 -15.5 -39t-41.5 -15zM193 19l-180 496h99l130 -394l138 394h99
l-262 -680h-92z" />
    <glyph glyph-name="Abreve" unicode="&#x102;" horiz-adv-x="636" 
d="M459 181h-281l-62 -181h-98l248 700h104l248 -700h-97zM430 267l-112 326l-111 -326h223zM318 761q-63 0 -93 33t-30 91h77q0 -27 10.5 -41.5t35.5 -14.5q26 0 35.5 15t9.5 41h78q0 -58 -30 -91t-93 -33z" />
    <glyph glyph-name="abreve" unicode="&#x103;" horiz-adv-x="518" 
d="M258 525q45 0 81 -11t61.5 -36.5t39 -66t13.5 -99.5v-312h-75l-13 87q-27 -48 -71 -72.5t-100 -24.5q-33 0 -60.5 10t-47.5 29t-31.5 47t-11.5 63q0 88 69 130.5t203 42.5q11 0 23 -0.5t24 -1.5v9q0 70 -25.5 96t-82.5 26q-36 0 -67.5 -17t-48.5 -61l-72 42
q15 32 35.5 54.5t45.5 37t53.5 21.5t57.5 7zM225 69q27 0 52 7t44 24t30 47t11 76v16q-19 1 -35.5 1.5t-33.5 0.5q-77 0 -117 -22t-40 -69q0 -42 26 -61.5t63 -19.5zM259 576q-63 0 -93 33t-30 91h77q0 -27 10.5 -41.5t35.5 -14.5q26 0 35.5 15t9.5 41h78q0 -58 -30 -91
t-93 -33z" />
    <glyph glyph-name="Dcroat" unicode="&#x110;" horiz-adv-x="690" 
d="M309 700q168 0 250 -85t82 -265t-82 -265t-250 -85h-201v309h-82v82h82v309h201zM309 88q117 0 177 61.5t60 200.5t-60 200.5t-177 61.5h-107v-221h161v-82h-161v-221h107z" />
    <glyph glyph-name="dcroat" unicode="&#x111;" horiz-adv-x="584" 
d="M248 -10q-42 0 -78.5 16.5t-63.5 49.5t-43 83t-16 118q0 67 15 117.5t41.5 84t63.5 50t81 16.5q58 0 104 -25t69 -78v278h92v-700h-76l-10 101q-25 -51 -70.5 -81t-108.5 -30zM280 75q64 0 103 46.5t39 133.5q0 97 -39 141t-103 44q-70 0 -104 -47.5t-34 -135.5
q0 -87 34 -134.5t104 -47.5zM321 639h242v-77h-242v77z" />
    <glyph glyph-name="Itilde" unicode="&#x128;" horiz-adv-x="256" 
d="M81 700h94v-700h-94v700zM-43 815q22 35 48 54.5t60 19.5q20 0 37 -6.5t32 -14t28 -13.5t26 -6q16 0 28 10.5t26 33.5l56 -50q-23 -37 -48.5 -55.5t-58.5 -18.5q-19 0 -35.5 6t-31.5 13.5t-29 14t-27 6.5q-17 0 -29 -10t-26 -34z" />
    <glyph glyph-name="itilde" unicode="&#x129;" horiz-adv-x="233" 
d="M70 515h93v-515h-93v515zM-54 630q22 35 48 54.5t60 19.5q20 0 37 -6.5t32 -14t28 -13.5t26 -6q16 0 28 10.5t26 33.5l56 -50q-23 -37 -48.5 -55.5t-58.5 -18.5q-19 0 -35.5 6t-31.5 13.5t-29 14t-27 6.5q-17 0 -29 -10t-26 -34z" />
    <glyph glyph-name="dotlessi" unicode="&#x131;" horiz-adv-x="233" 
d="M70 515h93v-515h-93v515z" />
    <glyph glyph-name="Lslash" unicode="&#x141;" horiz-adv-x="571" 
d="M543 88v-88h-442v233l-89 -52v91l89 52v376h94v-322l166 96v-90l-166 -97v-199h348z" />
    <glyph glyph-name="lslash" unicode="&#x142;" horiz-adv-x="324" 
d="M308 399l-102 -60v-339h-92v286l-99 -58v92l99 57v323h92v-269l102 59v-91z" />
    <glyph glyph-name="OE" unicode="&#x152;" horiz-adv-x="1075" 
d="M365 -10q-65 0 -122.5 23.5t-100.5 69t-68 112.5t-25 155q0 87 25 154.5t68 113t100.5 69t122.5 23.5q69 0 127.5 -27.5t94.5 -88.5v106h444v-88h-350v-207h319v-89h-319v-228h355v-88h-449v106q-36 -60 -94.5 -88t-127.5 -28zM365 79q46 0 86 17t69 50.5t45.5 84.5
t16.5 119q0 67 -16.5 118t-45.5 85t-69 51t-86 17q-45 0 -84.5 -17t-69 -51t-46.5 -85t-17 -118q0 -68 17 -119t46.5 -84.5t69 -50.5t84.5 -17z" />
    <glyph glyph-name="oe" unicode="&#x153;" horiz-adv-x="926" 
d="M282 -10q-50 0 -94 17t-76.5 50.5t-51 83.5t-18.5 116q0 67 18.5 117t51 83.5t76.5 50.5t94 17q62 0 115.5 -30.5t78.5 -88.5q12 29 32.5 51t46 37t54 23t58.5 8q45 0 84 -14t68 -41t45.5 -68t16.5 -95q0 -39 -10 -83h-348q8 -73 46 -112.5t102 -39.5q48 0 78 21t46 59
l85 -19q-14 -38 -36.5 -65.5t-50.5 -44.5t-60 -25t-65 -8q-30 0 -59 7.5t-54.5 22.5t-46 37.5t-32.5 52.5q-13 -31 -33.5 -53.5t-46 -37.5t-54.5 -22t-60 -7zM789 302q1 7 1 10.5v7.5q0 59 -33 91t-90 32q-54 0 -93 -33.5t-50 -107.5h265zM282 75q67 0 106 45.5t39 136.5
q0 90 -39 136.5t-106 46.5t-106 -46.5t-39 -136.5q0 -89 39 -135.5t106 -46.5z" />
    <glyph glyph-name="Scaron" unicode="&#x160;" horiz-adv-x="567" 
d="M230 885l55 -62l55 62h87l-86 -127h-111l-87 127h87zM295 -10q-50 0 -90.5 12.5t-73 35t-56.5 53.5t-41 68l78 50q26 -60 71.5 -95t115.5 -35q59 0 96 28t37 82q0 44 -31.5 69t-80.5 39l-90 26q-168 48 -168 198q0 43 16.5 77.5t45.5 59.5t70 38.5t91 13.5
q83 0 139.5 -41t81.5 -121l-73 -47q-8 33 -24 55.5t-36 37t-43 21t-45 6.5q-62 0 -95 -27.5t-33 -71.5q0 -39 23 -67t79 -44l93 -27q84 -24 130.5 -68.5t46.5 -123.5q0 -47 -17.5 -84.5t-49 -63.5t-74 -40t-93.5 -14z" />
    <glyph glyph-name="scaron" unicode="&#x161;" horiz-adv-x="458" 
d="M172 700l55 -62l55 62h87l-86 -127h-111l-87 127h87zM236 -10q-70 0 -125 35t-81 95l67 41q24 -46 61 -68.5t82 -22.5q40 0 66.5 18.5t26.5 51.5q0 29 -17 44.5t-54 26.5l-78 22q-72 19 -101 56.5t-29 88.5q0 36 14.5 63.5t38.5 46t54.5 28t62.5 9.5q69 0 110 -28t65 -82
l-67 -42q-14 35 -39 53.5t-67 18.5q-41 0 -63.5 -17.5t-22.5 -45.5q0 -25 14 -41t49 -26l78 -21q30 -8 55 -20t43.5 -29.5t29 -41.5t10.5 -56q0 -37 -13.5 -66t-38 -49.5t-58 -31t-73.5 -10.5z" />
    <glyph glyph-name="Utilde" unicode="&#x168;" horiz-adv-x="695" 
d="M348 -10q-64 0 -114.5 17t-85 54.5t-53 97t-18.5 144.5v397h94v-386q0 -66 11 -110.5t33 -72.5t55 -40t78 -12q43 0 76 12t55.5 40t34 73t11.5 111v385h94l-1 -397q0 -85 -18.5 -144.5t-53.5 -97t-85 -54.5t-113 -17zM177 815q22 35 48 54.5t60 19.5q20 0 37 -6.5t32 -14
t28 -13.5t26 -6q16 0 28 10.5t26 33.5l56 -50q-23 -37 -48.5 -55.5t-58.5 -18.5q-19 0 -35.5 6t-31.5 13.5t-29 14t-27 6.5q-17 0 -29 -10t-26 -34z" />
    <glyph glyph-name="utilde" unicode="&#x169;" horiz-adv-x="573" 
d="M236 -10q-39 0 -70.5 11t-54 36t-34.5 65t-12 98v315h92v-282q0 -46 6.5 -76t20.5 -48t36 -25.5t53 -7.5q30 0 55 9t43.5 30.5t28.5 57.5t10 90v252h92v-515h-76l-10 101q-21 -52 -68 -81.5t-112 -29.5zM116 630q22 35 48 54.5t60 19.5q20 0 37 -6.5t32 -14t28 -13.5
t26 -6q16 0 28 10.5t26 33.5l56 -50q-23 -37 -48.5 -55.5t-58.5 -18.5q-19 0 -35.5 6t-31.5 13.5t-29 14t-27 6.5q-17 0 -29 -10t-26 -34z" />
    <glyph glyph-name="Ydieresis" unicode="&#x178;" horiz-adv-x="576" 
d="M200 775q-25 0 -41 15t-16 39q0 23 16 38.5t41 15.5q26 0 41.5 -15.5t15.5 -38.5q0 -24 -15.5 -39t-41.5 -15zM375 775q-25 0 -41 15t-16 39q0 23 16 38.5t41 15.5q26 0 41.5 -15.5t15.5 -38.5q0 -24 -15.5 -39t-41.5 -15zM335 244v-244h-94v244l-228 456h102l173 -358
l173 358h101z" />
    <glyph glyph-name="Zcaron" unicode="&#x17d;" horiz-adv-x="530" 
d="M215 885l55 -62l55 62h87l-86 -127h-111l-87 127h87zM35 81l343 533h-322v86h432v-82l-343 -532h350v-86h-460v81z" />
    <glyph glyph-name="zcaron" unicode="&#x17e;" horiz-adv-x="450" 
d="M170 700l55 -62l55 62h87l-86 -127h-111l-87 127h87zM36 77l266 358h-249v80h351v-77l-267 -358h277v-80h-378v77z" />
    <glyph glyph-name="florin" unicode="&#x192;" horiz-adv-x="532" 
d="M409 633q-18 0 -32.5 -4.5t-26.5 -17t-20 -34.5t-12 -56l-13 -119h161v-82h-170l-34 -309q-6 -53 -20.5 -88.5t-37 -57.5t-51.5 -31.5t-62 -9.5q-41 0 -74.5 13t-59.5 33l39 66q40 -31 83 -31q18 0 33 4.5t26.5 17t19.5 34t12 56.5l33 303h-121v82h130l14 125
q6 53 20.5 89t37 57.5t51.5 31t63 9.5q40 0 73.5 -12.5t59.5 -32.5l-39 -67q-20 17 -41.5 24t-41.5 7z" />
    <glyph glyph-name="Ohorn" unicode="&#x1a0;" 
d="M371 -10q-69 0 -127.5 23.5t-102 69t-68 112.5t-24.5 155q0 87 24.5 154.5t68 113t102 69t127.5 23.5q68 0 126.5 -23.5t101.5 -69t67.5 -113t24.5 -154.5q0 -88 -24.5 -155t-67.5 -112.5t-101.5 -69t-126.5 -23.5zM371 79q46 0 86.5 17t70.5 50.5t47.5 84.5t17.5 119
q0 67 -17.5 118t-47.5 85t-70.5 51t-86.5 17q-47 0 -87.5 -17t-70.5 -51t-47.5 -85t-17.5 -118q0 -68 17.5 -119t47.5 -84.5t70.5 -50.5t87.5 -17zM524 581v83l20 -1h11q33 0 45 16.5t12 61.5v36h79v-36q0 -83 -34 -121q-19 -20 -46.5 -29.5t-67.5 -9.5h-19z" />
    <glyph glyph-name="ohorn" unicode="&#x1a1;" horiz-adv-x="565" 
d="M283 -10q-51 0 -95 17t-76.5 50.5t-51 83.5t-18.5 116q0 67 18.5 117t51 83.5t76.5 50.5t95 17q50 0 94 -17t76.5 -50.5t51 -83.5t18.5 -117q0 -66 -18.5 -116t-51 -83.5t-76.5 -50.5t-94 -17zM283 75q67 0 105.5 46.5t38.5 135.5q0 90 -38.5 136.5t-105.5 46.5
q-68 0 -106.5 -46.5t-38.5 -136.5q0 -89 38.5 -135.5t106.5 -46.5zM427 385v83l20 -1h11q33 0 45 16.5t12 61.5v36h79v-36q0 -83 -34 -121q-19 -20 -46.5 -29.5t-67.5 -9.5h-19z" />
    <glyph glyph-name="Uhorn" unicode="&#x1af;" horiz-adv-x="695" 
d="M348 -10q-64 0 -114.5 17t-85 54.5t-53 97t-18.5 144.5v397h94v-386q0 -66 11 -110.5t33 -72.5t55 -40t78 -12q43 0 76 12t55.5 40t34 73t11.5 111v385h94l-1 -397q0 -85 -18.5 -144.5t-53.5 -97t-85 -54.5t-113 -17zM611 581v83l20 -1h11q33 0 45 16.5t12 61.5v36h79
v-36q0 -83 -34 -121q-19 -20 -46.5 -29.5t-67.5 -9.5h-19z" />
    <glyph glyph-name="uhorn" unicode="&#x1b0;" horiz-adv-x="573" 
d="M236 -10q-39 0 -70.5 11t-54 36t-34.5 65t-12 98v315h92v-282q0 -46 6.5 -76t20.5 -48t36 -25.5t53 -7.5q30 0 55 9t43.5 30.5t28.5 57.5t10 90v252h92v-515h-76l-10 101q-21 -52 -68 -81.5t-112 -29.5zM467 385v83l20 -1h11q33 0 45 16.5t12 61.5v36h79v-36
q0 -83 -34 -121q-19 -20 -46.5 -29.5t-67.5 -9.5h-19z" />
    <glyph glyph-name="circumflex" unicode="&#x2c6;" horiz-adv-x="324" 
d="M107 700h111l86 -127h-87l-55 62l-55 -62h-87z" />
    <glyph glyph-name="caron" unicode="&#x2c7;" horiz-adv-x="324" 
d="M107 700l55 -62l55 62h87l-86 -127h-111l-87 127h87z" />
    <glyph glyph-name="macron_" unicode="&#x2c9;" horiz-adv-x="242" 
d="M0 673h242v-70h-242v70z" />
    <glyph glyph-name="breve" unicode="&#x2d8;" horiz-adv-x="346" 
d="M173 576q-63 0 -93 33t-30 91h77q0 -27 10.5 -41.5t35.5 -14.5q26 0 35.5 15t9.5 41h78q0 -58 -30 -91t-93 -33z" />
    <glyph glyph-name="dotaccent" unicode="&#x2d9;" horiz-adv-x="236" 
d="M118 587q-26 0 -43 16t-17 41q0 26 17 42t43 16q27 0 44 -16t17 -42q0 -25 -17 -41t-44 -16z" />
    <glyph glyph-name="ring" unicode="&#x2da;" horiz-adv-x="296" 
d="M148 558q-39 0 -64.5 23t-25.5 63q0 41 25.5 63.5t64.5 22.5q38 0 64 -22.5t26 -63.5q0 -40 -26 -63t-64 -23zM148 612q13 0 22 8t9 24t-9 23.5t-22 7.5q-14 0 -22.5 -7.5t-8.5 -23.5t8.5 -24t22.5 -8z" />
    <glyph glyph-name="ogonek" unicode="&#x2db;" horiz-adv-x="266" 
d="M145 -175q-42 0 -66 22.5t-24 59.5q0 26 13.5 50.5t44.5 42.5h78q-35 -15 -49.5 -36.5t-14.5 -41.5q0 -31 30 -31q19 0 37 14l24 -57q-32 -23 -73 -23z" />
    <glyph glyph-name="tilde" unicode="&#x2dc;" horiz-adv-x="455" 
d="M61 630q22 35 48 54.5t60 19.5q20 0 37 -6.5t32 -14t28 -13.5t26 -6q16 0 28 10.5t26 33.5l56 -50q-23 -37 -48.5 -55.5t-58.5 -18.5q-19 0 -35.5 6t-31.5 13.5t-29 14t-27 6.5q-17 0 -29 -10t-26 -34z" />
    <glyph glyph-name="hungarumlaut" unicode="&#x2dd;" horiz-adv-x="408" 
d="M90 700h116l-94 -127h-86zM274 700h116l-94 -127h-86z" />
    <glyph glyph-name="gravecomb" unicode="&#x300;" horiz-adv-x="0" 
d="M-180 700h116l64 -127h-86z" />
    <glyph glyph-name="acutecomb" unicode="&#x301;" horiz-adv-x="0" 
d="M-116 700h116l-94 -127h-86z" />
    <glyph glyph-name="circumflexcmb" unicode="&#x302;" horiz-adv-x="0" 
d="M-197 700h111l86 -127h-87l-55 62l-55 -62h-87z" />
    <glyph glyph-name="tildecomb" unicode="&#x303;" horiz-adv-x="0" 
d="M-341 630q22 35 48 54.5t60 19.5q20 0 37 -6.5t32 -14t28 -13.5t26 -6q16 0 28 10.5t26 33.5l56 -50q-23 -37 -48.5 -55.5t-58.5 -18.5q-19 0 -35.5 6t-31.5 13.5t-29 14t-27 6.5q-17 0 -29 -10t-26 -34z" />
    <glyph glyph-name="brevecmb" unicode="&#x306;" horiz-adv-x="346" 
d="M173 576q-63 0 -93 33t-30 91h77q0 -27 10.5 -41.5t35.5 -14.5q26 0 35.5 15t9.5 41h78q0 -58 -30 -91t-93 -33z" />
    <glyph glyph-name="dieresiscmb" unicode="&#x308;" horiz-adv-x="0" 
d="M-232 590q-25 0 -41 15t-16 39q0 23 16 38.5t41 15.5q26 0 41.5 -15.5t15.5 -38.5q0 -24 -15.5 -39t-41.5 -15zM-57 590q-25 0 -41 15t-16 39q0 23 16 38.5t41 15.5q26 0 41.5 -15.5t15.5 -38.5q0 -24 -15.5 -39t-41.5 -15z" />
    <glyph glyph-name="hookcmb" unicode="&#x309;" horiz-adv-x="333" 
d="M133 574v27q0 19 12.5 28.5t22.5 16.5q2 1 4 2.5t4 3.5l22 14q9 6 10.5 9.5t1.5 8.5t-7 16.5t-28 11.5q-8 0 -18.5 -1.5t-18.5 -12.5l-10 -13l-58 40l10 14q15 21 40.5 32.5t54.5 11.5q31 0 50 -11t30 -22q27 -29 27 -66q0 -46 -44 -75l-22 -14q-2 -2 -5.5 -3t-4.5 -3
q-8 -7 -3 -15h-70z" />
    <glyph glyph-name="ringcmb" unicode="&#x30a;" horiz-adv-x="0" 
d="M-90 558q-39 0 -64.5 23t-25.5 63q0 41 25.5 63.5t64.5 22.5q38 0 64 -22.5t26 -63.5q0 -40 -26 -63t-64 -23zM-90 612q13 0 22 8t9 24t-9 23.5t-22 7.5q-14 0 -22.5 -7.5t-8.5 -23.5t8.5 -24t22.5 -8z" />
    <glyph glyph-name="caroncmb" unicode="&#x30c;" horiz-adv-x="0" 
d="M-197 700l55 -62l55 62h87l-86 -127h-111l-87 127h87z" />
    <glyph glyph-name="horncmb" unicode="&#x31b;" horiz-adv-x="333" 
d="M123 536v83l20 -1h11q33 0 45 16.5t12 61.5v36h79v-36q0 -83 -34 -121q-19 -20 -46.5 -29.5t-67.5 -9.5h-19z" />
    <glyph glyph-name="dotsubnosp" unicode="&#x323;" horiz-adv-x="236" 
d="M118 -160q-26 0 -43 16t-17 41q0 26 17 42t43 16q27 0 44 -16t17 -42q0 -25 -17 -41t-44 -16z" />
    <glyph glyph-name="cedillacmb" unicode="&#x327;" horiz-adv-x="0" 
d="M-80 0h80l-31 -130h-96z" />
    <glyph glyph-name="slashcomb" unicode="&#x337;" horiz-adv-x="0" 
d="M-293 310l293 170v-92l-293 -170v92z" />
    <glyph glyph-name="slashlongcomb" unicode="&#x338;" horiz-adv-x="0" 
d="M-338 -16l281 574l60 -26l-280 -575z" />
    <glyph glyph-name="pi" unicode="&#x3c0;" horiz-adv-x="716" 
d="M564 433l-1 -232q0 -65 23.5 -91.5t78.5 -29.5l-15 -82q-48 1 -81.5 12.5t-55 35t-31.5 60.5t-10 91v236h-232v-433h-92v433h-104v82h624v-82h-104z" />
    <glyph glyph-name="uni1EA0" unicode="&#x1ea0;" horiz-adv-x="636" 
d="M459 181h-281l-62 -181h-98l248 700h104l248 -700h-97zM430 267l-112 326l-111 -326h223zM317 -160q-26 0 -43 16t-17 41q0 26 17 42t43 16q27 0 44 -16t17 -42q0 -25 -17 -41t-44 -16z" />
    <glyph glyph-name="uni1EA1" unicode="&#x1ea1;" horiz-adv-x="518" 
d="M258 525q45 0 81 -11t61.5 -36.5t39 -66t13.5 -99.5v-312h-75l-13 87q-27 -48 -71 -72.5t-100 -24.5q-33 0 -60.5 10t-47.5 29t-31.5 47t-11.5 63q0 88 69 130.5t203 42.5q11 0 23 -0.5t24 -1.5v9q0 70 -25.5 96t-82.5 26q-36 0 -67.5 -17t-48.5 -61l-72 42
q15 32 35.5 54.5t45.5 37t53.5 21.5t57.5 7zM225 69q27 0 52 7t44 24t30 47t11 76v16q-19 1 -35.5 1.5t-33.5 0.5q-77 0 -117 -22t-40 -69q0 -42 26 -61.5t63 -19.5zM258 -160q-26 0 -43 16t-17 41q0 26 17 42t43 16q27 0 44 -16t17 -42q0 -25 -17 -41t-44 -16z" />
    <glyph glyph-name="uni1EA2" unicode="&#x1ea2;" horiz-adv-x="636" 
d="M459 181h-281l-62 -181h-98l248 700h104l248 -700h-97zM430 267l-112 326l-111 -326h223zM275 757v27q0 19 12.5 28.5t22.5 16.5q2 1 4 2.5t4 3.5l22 14q9 6 10.5 9.5t1.5 8.5t-7 16.5t-28 11.5q-8 0 -18.5 -1.5t-18.5 -12.5l-10 -13l-58 40l10 14q15 21 40.5 32.5
t54.5 11.5q31 0 50 -11t30 -22q27 -29 27 -66q0 -46 -44 -75l-22 -14q-2 -2 -5.5 -3t-4.5 -3q-8 -7 -3 -15h-70z" />
    <glyph glyph-name="uni1EA3" unicode="&#x1ea3;" horiz-adv-x="518" 
d="M258 525q45 0 81 -11t61.5 -36.5t39 -66t13.5 -99.5v-312h-75l-13 87q-27 -48 -71 -72.5t-100 -24.5q-33 0 -60.5 10t-47.5 29t-31.5 47t-11.5 63q0 88 69 130.5t203 42.5q11 0 23 -0.5t24 -1.5v9q0 70 -25.5 96t-82.5 26q-36 0 -67.5 -17t-48.5 -61l-72 42
q15 32 35.5 54.5t45.5 37t53.5 21.5t57.5 7zM225 69q27 0 52 7t44 24t30 47t11 76v16q-19 1 -35.5 1.5t-33.5 0.5q-77 0 -117 -22t-40 -69q0 -42 26 -61.5t63 -19.5zM215 574v27q0 19 12.5 28.5t22.5 16.5q2 1 4 2.5t4 3.5l22 14q9 6 10.5 9.5t1.5 8.5t-7 16.5t-28 11.5
q-8 0 -18.5 -1.5t-18.5 -12.5l-10 -13l-58 40l10 14q15 21 40.5 32.5t54.5 11.5q31 0 50 -11t30 -22q27 -29 27 -66q0 -46 -44 -75l-22 -14q-2 -2 -5.5 -3t-4.5 -3q-8 -7 -3 -15h-70z" />
    <glyph glyph-name="uni1EA4" unicode="&#x1ea4;" horiz-adv-x="636" 
d="M263 758h-87l87 127h111l86 -127h-87l-55 62zM459 181h-281l-62 -181h-98l248 700h104l248 -700h-97zM430 267l-112 326l-111 -326h223zM479 1012h116l-94 -127h-86z" />
    <glyph glyph-name="uni1EA5" unicode="&#x1ea5;" horiz-adv-x="518" 
d="M206 573h-87l87 127h111l86 -127h-87l-55 62zM258 525q45 0 81 -11t61.5 -36.5t39 -66t13.5 -99.5v-312h-75l-13 87q-27 -48 -71 -72.5t-100 -24.5q-33 0 -60.5 10t-47.5 29t-31.5 47t-11.5 63q0 88 69 130.5t203 42.5q11 0 23 -0.5t24 -1.5v9q0 70 -25.5 96t-82.5 26
q-36 0 -67.5 -17t-48.5 -61l-72 42q15 32 35.5 54.5t45.5 37t53.5 21.5t57.5 7zM225 69q27 0 52 7t44 24t30 47t11 76v16q-19 1 -35.5 1.5t-33.5 0.5q-77 0 -117 -22t-40 -69q0 -42 26 -61.5t63 -19.5zM431 827h116l-94 -127h-86z" />
    <glyph glyph-name="uni1EA6" unicode="&#x1ea6;" horiz-adv-x="636" 
d="M263 758h-87l87 127h111l86 -127h-87l-55 62zM459 181h-281l-62 -181h-98l248 700h104l248 -700h-97zM430 267l-112 326l-111 -326h223zM349 1012h116l64 -127h-86z" />
    <glyph glyph-name="uni1EA7" unicode="&#x1ea7;" horiz-adv-x="518" 
d="M206 573h-87l87 127h111l86 -127h-87l-55 62zM258 525q45 0 81 -11t61.5 -36.5t39 -66t13.5 -99.5v-312h-75l-13 87q-27 -48 -71 -72.5t-100 -24.5q-33 0 -60.5 10t-47.5 29t-31.5 47t-11.5 63q0 88 69 130.5t203 42.5q11 0 23 -0.5t24 -1.5v9q0 70 -25.5 96t-82.5 26
q-36 0 -67.5 -17t-48.5 -61l-72 42q15 32 35.5 54.5t45.5 37t53.5 21.5t57.5 7zM225 69q27 0 52 7t44 24t30 47t11 76v16q-19 1 -35.5 1.5t-33.5 0.5q-77 0 -117 -22t-40 -69q0 -42 26 -61.5t63 -19.5zM282 827h116l64 -127h-86z" />
    <glyph glyph-name="uni1EA8" unicode="&#x1ea8;" horiz-adv-x="636" 
d="M263 758h-87l87 127h111l86 -127h-87l-55 62zM459 181h-281l-62 -181h-98l248 700h104l248 -700h-97zM430 267l-112 326l-111 -326h223zM416 882v27q0 19 12.5 28.5t22.5 16.5q2 1 4 2.5t4 3.5l22 14q9 6 10.5 9.5t1.5 8.5t-7 16.5t-28 11.5q-8 0 -18.5 -1.5t-18.5 -12.5
l-10 -13l-58 40l10 14q15 21 40.5 32.5t54.5 11.5q31 0 50 -11t30 -22q27 -29 27 -66q0 -46 -44 -75l-22 -14q-2 -2 -5.5 -3t-4.5 -3q-8 -7 -3 -15h-70z" />
    <glyph glyph-name="uni1EA9" unicode="&#x1ea9;" horiz-adv-x="518" 
d="M206 573h-87l87 127h111l86 -127h-87l-55 62zM258 525q45 0 81 -11t61.5 -36.5t39 -66t13.5 -99.5v-312h-75l-13 87q-27 -48 -71 -72.5t-100 -24.5q-33 0 -60.5 10t-47.5 29t-31.5 47t-11.5 63q0 88 69 130.5t203 42.5q11 0 23 -0.5t24 -1.5v9q0 70 -25.5 96t-82.5 26
q-36 0 -67.5 -17t-48.5 -61l-72 42q15 32 35.5 54.5t45.5 37t53.5 21.5t57.5 7zM225 69q27 0 52 7t44 24t30 47t11 76v16q-19 1 -35.5 1.5t-33.5 0.5q-77 0 -117 -22t-40 -69q0 -42 26 -61.5t63 -19.5zM360 697v27q0 19 12.5 28.5t22.5 16.5q2 1 4 2.5t4 3.5l22 14
q9 6 10.5 9.5t1.5 8.5t-7 16.5t-28 11.5q-8 0 -18.5 -1.5t-18.5 -12.5l-10 -13l-58 40l10 14q15 21 40.5 32.5t54.5 11.5q31 0 50 -11t30 -22q27 -29 27 -66q0 -46 -44 -75l-22 -14q-2 -2 -5.5 -3t-4.5 -3q-8 -7 -3 -15h-70z" />
    <glyph glyph-name="uni1EAA" unicode="&#x1eaa;" horiz-adv-x="636" 
d="M263 758h-87l87 127h111l86 -127h-87l-55 62zM459 181h-281l-62 -181h-98l248 700h104l248 -700h-97zM430 267l-112 326l-111 -326h223zM147 973q22 35 48 54.5t60 19.5q20 0 37 -6.5t32 -14t28 -13.5t26 -6q16 0 28 10.5t26 33.5l56 -50q-23 -37 -48.5 -55.5
t-58.5 -18.5q-19 0 -35.5 6t-31.5 13.5t-29 14t-27 6.5q-17 0 -29 -10t-26 -34z" />
    <glyph glyph-name="uni1EAB" unicode="&#x1eab;" horiz-adv-x="518" 
d="M206 573h-87l87 127h111l86 -127h-87l-55 62zM258 525q45 0 81 -11t61.5 -36.5t39 -66t13.5 -99.5v-312h-75l-13 87q-27 -48 -71 -72.5t-100 -24.5q-33 0 -60.5 10t-47.5 29t-31.5 47t-11.5 63q0 88 69 130.5t203 42.5q11 0 23 -0.5t24 -1.5v9q0 70 -25.5 96t-82.5 26
q-36 0 -67.5 -17t-48.5 -61l-72 42q15 32 35.5 54.5t45.5 37t53.5 21.5t57.5 7zM225 69q27 0 52 7t44 24t30 47t11 76v16q-19 1 -35.5 1.5t-33.5 0.5q-77 0 -117 -22t-40 -69q0 -42 26 -61.5t63 -19.5zM93 798q22 35 48 54.5t60 19.5q20 0 37 -6.5t32 -14t28 -13.5t26 -6
q16 0 28 10.5t26 33.5l56 -50q-23 -37 -48.5 -55.5t-58.5 -18.5q-19 0 -35.5 6t-31.5 13.5t-29 14t-27 6.5q-17 0 -29 -10t-26 -34z" />
    <glyph glyph-name="Acircumflexdotbelow" unicode="&#x1eac;" horiz-adv-x="636" 
d="M459 181h-281l-62 -181h-98l248 700h104l248 -700h-97zM430 267l-112 326l-111 -326h223zM317 -160q-26 0 -43 16t-17 41q0 26 17 42t43 16q27 0 44 -16t17 -42q0 -25 -17 -41t-44 -16zM263 885h111l86 -127h-87l-55 62l-55 -62h-87z" />
    <glyph glyph-name="acircumflexdotbelow" unicode="&#x1ead;" horiz-adv-x="518" 
d="M258 525q45 0 81 -11t61.5 -36.5t39 -66t13.5 -99.5v-312h-75l-13 87q-27 -48 -71 -72.5t-100 -24.5q-33 0 -60.5 10t-47.5 29t-31.5 47t-11.5 63q0 88 69 130.5t203 42.5q11 0 23 -0.5t24 -1.5v9q0 70 -25.5 96t-82.5 26q-36 0 -67.5 -17t-48.5 -61l-72 42
q15 32 35.5 54.5t45.5 37t53.5 21.5t57.5 7zM225 69q27 0 52 7t44 24t30 47t11 76v16q-19 1 -35.5 1.5t-33.5 0.5q-77 0 -117 -22t-40 -69q0 -42 26 -61.5t63 -19.5zM258 -160q-26 0 -43 16t-17 41q0 26 17 42t43 16q27 0 44 -16t17 -42q0 -25 -17 -41t-44 -16zM204 700h111
l86 -127h-87l-55 62l-55 -62h-87z" />
    <glyph glyph-name="uni1EAE" unicode="&#x1eae;" horiz-adv-x="636" 
d="M459 181h-281l-62 -181h-98l248 700h104l248 -700h-97zM430 267l-112 326l-111 -326h223zM318 761q-63 0 -93 33t-30 91h77q0 -27 10.5 -41.5t35.5 -14.5q26 0 35.5 15t9.5 41h78q0 -58 -30 -91t-93 -33zM348 1034h116l-94 -127h-86z" />
    <glyph glyph-name="uni1EAF" unicode="&#x1eaf;" horiz-adv-x="518" 
d="M258 525q45 0 81 -11t61.5 -36.5t39 -66t13.5 -99.5v-312h-75l-13 87q-27 -48 -71 -72.5t-100 -24.5q-33 0 -60.5 10t-47.5 29t-31.5 47t-11.5 63q0 88 69 130.5t203 42.5q11 0 23 -0.5t24 -1.5v9q0 70 -25.5 96t-82.5 26q-36 0 -67.5 -17t-48.5 -61l-72 42
q15 32 35.5 54.5t45.5 37t53.5 21.5t57.5 7zM225 69q27 0 52 7t44 24t30 47t11 76v16q-19 1 -35.5 1.5t-33.5 0.5q-77 0 -117 -22t-40 -69q0 -42 26 -61.5t63 -19.5zM259 576q-63 0 -93 33t-30 91h77q0 -27 10.5 -41.5t35.5 -14.5q26 0 35.5 15t9.5 41h78q0 -58 -30 -91
t-93 -33zM281 856h116l-94 -127h-86z" />
    <glyph glyph-name="uni1EB0" unicode="&#x1eb0;" horiz-adv-x="636" 
d="M459 181h-281l-62 -181h-98l248 700h104l248 -700h-97zM430 267l-112 326l-111 -326h223zM318 761q-63 0 -93 33t-30 91h77q0 -27 10.5 -41.5t35.5 -14.5q26 0 35.5 15t9.5 41h78q0 -58 -30 -91t-93 -33zM202 1038h116l64 -127h-86z" />
    <glyph glyph-name="uni1EB1" unicode="&#x1eb1;" horiz-adv-x="518" 
d="M258 525q45 0 81 -11t61.5 -36.5t39 -66t13.5 -99.5v-312h-75l-13 87q-27 -48 -71 -72.5t-100 -24.5q-33 0 -60.5 10t-47.5 29t-31.5 47t-11.5 63q0 88 69 130.5t203 42.5q11 0 23 -0.5t24 -1.5v9q0 70 -25.5 96t-82.5 26q-36 0 -67.5 -17t-48.5 -61l-72 42
q15 32 35.5 54.5t45.5 37t53.5 21.5t57.5 7zM225 69q27 0 52 7t44 24t30 47t11 76v16q-19 1 -35.5 1.5t-33.5 0.5q-77 0 -117 -22t-40 -69q0 -42 26 -61.5t63 -19.5zM259 576q-63 0 -93 33t-30 91h77q0 -27 10.5 -41.5t35.5 -14.5q26 0 35.5 15t9.5 41h78q0 -58 -30 -91
t-93 -33zM136 854h116l64 -127h-86z" />
    <glyph glyph-name="uni1EB2" unicode="&#x1eb2;" horiz-adv-x="636" 
d="M459 181h-281l-62 -181h-98l248 700h104l248 -700h-97zM430 267l-112 326l-111 -326h223zM318 761q-63 0 -93 33t-30 91h77q0 -27 10.5 -41.5t35.5 -14.5q26 0 35.5 15t9.5 41h78q0 -58 -30 -91t-93 -33zM285 909v27q0 19 12.5 28.5t22.5 16.5q2 1 4 2.5t4 3.5l22 14
q9 6 10.5 9.5t1.5 8.5t-7 16.5t-28 11.5q-8 0 -18.5 -1.5t-18.5 -12.5l-10 -13l-58 40l10 14q15 21 40.5 32.5t54.5 11.5q31 0 50 -11t30 -22q27 -29 27 -66q0 -46 -44 -75l-22 -14q-2 -2 -5.5 -3t-4.5 -3q-8 -7 -3 -15h-70z" />
    <glyph glyph-name="uni1EB3" unicode="&#x1eb3;" horiz-adv-x="518" 
d="M258 525q45 0 81 -11t61.5 -36.5t39 -66t13.5 -99.5v-312h-75l-13 87q-27 -48 -71 -72.5t-100 -24.5q-33 0 -60.5 10t-47.5 29t-31.5 47t-11.5 63q0 88 69 130.5t203 42.5q11 0 23 -0.5t24 -1.5v9q0 70 -25.5 96t-82.5 26q-36 0 -67.5 -17t-48.5 -61l-72 42
q15 32 35.5 54.5t45.5 37t53.5 21.5t57.5 7zM225 69q27 0 52 7t44 24t30 47t11 76v16q-19 1 -35.5 1.5t-33.5 0.5q-77 0 -117 -22t-40 -69q0 -42 26 -61.5t63 -19.5zM259 576q-63 0 -93 33t-30 91h77q0 -27 10.5 -41.5t35.5 -14.5q26 0 35.5 15t9.5 41h78q0 -58 -30 -91
t-93 -33zM227 726v27q0 19 12.5 28.5t22.5 16.5q2 1 4 2.5t4 3.5l22 14q9 6 10.5 9.5t1.5 8.5t-7 16.5t-28 11.5q-8 0 -18.5 -1.5t-18.5 -12.5l-10 -13l-58 40l10 14q15 21 40.5 32.5t54.5 11.5q31 0 50 -11t30 -22q27 -29 27 -66q0 -46 -44 -75l-22 -14q-2 -2 -5.5 -3
t-4.5 -3q-8 -7 -3 -15h-70z" />
    <glyph glyph-name="uni1EB4" unicode="&#x1eb4;" horiz-adv-x="636" 
d="M459 181h-281l-62 -181h-98l248 700h104l248 -700h-97zM430 267l-112 326l-111 -326h223zM318 761q-63 0 -93 33t-30 91h77q0 -27 10.5 -41.5t35.5 -14.5q26 0 35.5 15t9.5 41h78q0 -58 -30 -91t-93 -33zM148 975q22 35 48 54.5t60 19.5q20 0 37 -6.5t32 -14t28 -13.5
t26 -6q16 0 28 10.5t26 33.5l56 -50q-23 -37 -48.5 -55.5t-58.5 -18.5q-19 0 -35.5 6t-31.5 13.5t-29 14t-27 6.5q-17 0 -29 -10t-26 -34z" />
    <glyph glyph-name="uni1EB5" unicode="&#x1eb5;" horiz-adv-x="518" 
d="M258 525q45 0 81 -11t61.5 -36.5t39 -66t13.5 -99.5v-312h-75l-13 87q-27 -48 -71 -72.5t-100 -24.5q-33 0 -60.5 10t-47.5 29t-31.5 47t-11.5 63q0 88 69 130.5t203 42.5q11 0 23 -0.5t24 -1.5v9q0 70 -25.5 96t-82.5 26q-36 0 -67.5 -17t-48.5 -61l-72 42
q15 32 35.5 54.5t45.5 37t53.5 21.5t57.5 7zM225 69q27 0 52 7t44 24t30 47t11 76v16q-19 1 -35.5 1.5t-33.5 0.5q-77 0 -117 -22t-40 -69q0 -42 26 -61.5t63 -19.5zM259 576q-63 0 -93 33t-30 91h77q0 -27 10.5 -41.5t35.5 -14.5q26 0 35.5 15t9.5 41h78q0 -58 -30 -91
t-93 -33zM88 789q22 35 48 54.5t60 19.5q20 0 37 -6.5t32 -14t28 -13.5t26 -6q16 0 28 10.5t26 33.5l56 -50q-23 -37 -48.5 -55.5t-58.5 -18.5q-19 0 -35.5 6t-31.5 13.5t-29 14t-27 6.5q-17 0 -29 -10t-26 -34z" />
    <glyph glyph-name="Abrevedotbelow" unicode="&#x1eb6;" horiz-adv-x="636" 
d="M459 181h-281l-62 -181h-98l248 700h104l248 -700h-97zM430 267l-112 326l-111 -326h223zM317 -160q-26 0 -43 16t-17 41q0 26 17 42t43 16q27 0 44 -16t17 -42q0 -25 -17 -41t-44 -16zM318 761q-63 0 -93 33t-30 91h77q0 -27 10.5 -41.5t35.5 -14.5q26 0 35.5 15t9.5 41
h78q0 -58 -30 -91t-93 -33z" />
    <glyph glyph-name="abrevedotbelow" unicode="&#x1eb7;" horiz-adv-x="518" 
d="M258 525q45 0 81 -11t61.5 -36.5t39 -66t13.5 -99.5v-312h-75l-13 87q-27 -48 -71 -72.5t-100 -24.5q-33 0 -60.5 10t-47.5 29t-31.5 47t-11.5 63q0 88 69 130.5t203 42.5q11 0 23 -0.5t24 -1.5v9q0 70 -25.5 96t-82.5 26q-36 0 -67.5 -17t-48.5 -61l-72 42
q15 32 35.5 54.5t45.5 37t53.5 21.5t57.5 7zM225 69q27 0 52 7t44 24t30 47t11 76v16q-19 1 -35.5 1.5t-33.5 0.5q-77 0 -117 -22t-40 -69q0 -42 26 -61.5t63 -19.5zM258 -160q-26 0 -43 16t-17 41q0 26 17 42t43 16q27 0 44 -16t17 -42q0 -25 -17 -41t-44 -16zM259 576
q-63 0 -93 33t-30 91h77q0 -27 10.5 -41.5t35.5 -14.5q26 0 35.5 15t9.5 41h78q0 -58 -30 -91t-93 -33z" />
    <glyph glyph-name="uni1EB8" unicode="&#x1eb8;" horiz-adv-x="570" 
d="M81 700h444v-88h-350v-207h319v-89h-319v-228h356v-88h-450v700zM284 -160q-26 0 -43 16t-17 41q0 26 17 42t43 16q27 0 44 -16t17 -42q0 -25 -17 -41t-44 -16z" />
    <glyph glyph-name="uni1EB9" unicode="&#x1eb9;" horiz-adv-x="537" 
d="M282 72q48 0 78.5 21t45.5 59l85 -19q-14 -38 -36.5 -65.5t-50.5 -44.5t-59.5 -25t-64.5 -8q-50 0 -93.5 17.5t-75.5 51t-50.5 83.5t-18.5 115t18.5 115t50 84t74.5 51.5t93 17.5q45 0 84.5 -14t68 -41.5t45 -68t16.5 -94.5q0 -39 -10 -83h-347q7 -76 46 -114t101 -38z
M278 443q-57 0 -94.5 -34.5t-47.5 -106.5h264q1 7 1 10.5v7.5q0 57 -32 90t-91 33zM268 -160q-26 0 -43 16t-17 41q0 26 17 42t43 16q27 0 44 -16t17 -42q0 -25 -17 -41t-44 -16z" />
    <glyph glyph-name="uni1EBA" unicode="&#x1eba;" horiz-adv-x="570" 
d="M81 700h444v-88h-350v-207h319v-89h-319v-228h356v-88h-450v700zM241 759v27q0 19 12.5 28.5t22.5 16.5q2 1 4 2.5t4 3.5l22 14q9 6 10.5 9.5t1.5 8.5t-7 16.5t-28 11.5q-8 0 -18.5 -1.5t-18.5 -12.5l-10 -13l-58 40l10 14q15 21 40.5 32.5t54.5 11.5q31 0 50 -11t30 -22
q27 -29 27 -66q0 -46 -44 -75l-22 -14q-2 -2 -5.5 -3t-4.5 -3q-8 -7 -3 -15h-70z" />
    <glyph glyph-name="uni1EBB" unicode="&#x1ebb;" horiz-adv-x="537" 
d="M282 72q48 0 78.5 21t45.5 59l85 -19q-14 -38 -36.5 -65.5t-50.5 -44.5t-59.5 -25t-64.5 -8q-50 0 -93.5 17.5t-75.5 51t-50.5 83.5t-18.5 115t18.5 115t50 84t74.5 51.5t93 17.5q45 0 84.5 -14t68 -41.5t45 -68t16.5 -94.5q0 -39 -10 -83h-347q7 -76 46 -114t101 -38z
M278 443q-57 0 -94.5 -34.5t-47.5 -106.5h264q1 7 1 10.5v7.5q0 57 -32 90t-91 33zM225 574v27q0 19 12.5 28.5t22.5 16.5q2 1 4 2.5t4 3.5l22 14q9 6 10.5 9.5t1.5 8.5t-7 16.5t-28 11.5q-8 0 -18.5 -1.5t-18.5 -12.5l-10 -13l-58 40l10 14q15 21 40.5 32.5t54.5 11.5
q31 0 50 -11t30 -22q27 -29 27 -66q0 -46 -44 -75l-22 -14q-2 -2 -5.5 -3t-4.5 -3q-8 -7 -3 -15h-70z" />
    <glyph glyph-name="uni1EBC" unicode="&#x1ebc;" horiz-adv-x="570" 
d="M81 700h444v-88h-350v-207h319v-89h-319v-228h356v-88h-450v700zM114 815q22 35 48 54.5t60 19.5q20 0 37 -6.5t32 -14t28 -13.5t26 -6q16 0 28 10.5t26 33.5l56 -50q-23 -37 -48.5 -55.5t-58.5 -18.5q-19 0 -35.5 6t-31.5 13.5t-29 14t-27 6.5q-17 0 -29 -10t-26 -34z
" />
    <glyph glyph-name="uni1EBD" unicode="&#x1ebd;" horiz-adv-x="537" 
d="M282 72q48 0 78.5 21t45.5 59l85 -19q-14 -38 -36.5 -65.5t-50.5 -44.5t-59.5 -25t-64.5 -8q-50 0 -93.5 17.5t-75.5 51t-50.5 83.5t-18.5 115t18.5 115t50 84t74.5 51.5t93 17.5q45 0 84.5 -14t68 -41.5t45 -68t16.5 -94.5q0 -39 -10 -83h-347q7 -76 46 -114t101 -38z
M278 443q-57 0 -94.5 -34.5t-47.5 -106.5h264q1 7 1 10.5v7.5q0 57 -32 90t-91 33zM98 630q22 35 48 54.5t60 19.5q20 0 37 -6.5t32 -14t28 -13.5t26 -6q16 0 28 10.5t26 33.5l56 -50q-23 -37 -48.5 -55.5t-58.5 -18.5q-19 0 -35.5 6t-31.5 13.5t-29 14t-27 6.5
q-17 0 -29 -10t-26 -34z" />
    <glyph glyph-name="uni1EBE" unicode="&#x1ebe;" horiz-adv-x="570" 
d="M252 885h111l86 -127h-87l-55 62l-55 -62h-87zM81 700h444v-88h-350v-207h319v-89h-319v-228h356v-88h-450v700zM463 1012h116l-94 -127h-86z" />
    <glyph glyph-name="uni1EBF" unicode="&#x1ebf;" horiz-adv-x="537" 
d="M223 573h-87l87 127h111l86 -127h-87l-55 62zM282 72q48 0 78.5 21t45.5 59l85 -19q-14 -38 -36.5 -65.5t-50.5 -44.5t-59.5 -25t-64.5 -8q-50 0 -93.5 17.5t-75.5 51t-50.5 83.5t-18.5 115t18.5 115t50 84t74.5 51.5t93 17.5q45 0 84.5 -14t68 -41.5t45 -68t16.5 -94.5
q0 -39 -10 -83h-347q7 -76 46 -114t101 -38zM278 443q-57 0 -94.5 -34.5t-47.5 -106.5h264q1 7 1 10.5v7.5q0 57 -32 90t-91 33zM437 827h116l-94 -127h-86z" />
    <glyph glyph-name="uni1EC0" unicode="&#x1ec0;" horiz-adv-x="570" 
d="M252 885h111l86 -127h-87l-55 62l-55 -62h-87zM81 700h444v-88h-350v-207h319v-89h-319v-228h356v-88h-450v700zM320 1012h116l64 -127h-86z" />
    <glyph glyph-name="uni1EC1" unicode="&#x1ec1;" horiz-adv-x="537" 
d="M223 573h-87l87 127h111l86 -127h-87l-55 62zM282 72q48 0 78.5 21t45.5 59l85 -19q-14 -38 -36.5 -65.5t-50.5 -44.5t-59.5 -25t-64.5 -8q-50 0 -93.5 17.5t-75.5 51t-50.5 83.5t-18.5 115t18.5 115t50 84t74.5 51.5t93 17.5q45 0 84.5 -14t68 -41.5t45 -68t16.5 -94.5
q0 -39 -10 -83h-347q7 -76 46 -114t101 -38zM278 443q-57 0 -94.5 -34.5t-47.5 -106.5h264q1 7 1 10.5v7.5q0 57 -32 90t-91 33zM293 827h116l64 -127h-86z" />
    <glyph glyph-name="uni1EC2" unicode="&#x1ec2;" horiz-adv-x="570" 
d="M252 885h111l86 -127h-87l-55 62l-55 -62h-87zM81 700h444v-88h-350v-207h319v-89h-319v-228h356v-88h-450v700zM409 887v27q0 19 12.5 28.5t22.5 16.5q2 1 4 2.5t4 3.5l22 14q9 6 10.5 9.5t1.5 8.5t-7 16.5t-28 11.5q-8 0 -18.5 -1.5t-18.5 -12.5l-10 -13l-58 40l10 14
q15 21 40.5 32.5t54.5 11.5q31 0 50 -11t30 -22q27 -29 27 -66q0 -46 -44 -75l-22 -14q-2 -2 -5.5 -3t-4.5 -3q-8 -7 -3 -15h-70z" />
    <glyph glyph-name="uni1EC3" unicode="&#x1ec3;" horiz-adv-x="537" 
d="M223 573h-87l87 127h111l86 -127h-87l-55 62zM282 72q48 0 78.5 21t45.5 59l85 -19q-14 -38 -36.5 -65.5t-50.5 -44.5t-59.5 -25t-64.5 -8q-50 0 -93.5 17.5t-75.5 51t-50.5 83.5t-18.5 115t18.5 115t50 84t74.5 51.5t93 17.5q45 0 84.5 -14t68 -41.5t45 -68t16.5 -94.5
q0 -39 -10 -83h-347q7 -76 46 -114t101 -38zM278 443q-57 0 -94.5 -34.5t-47.5 -106.5h264q1 7 1 10.5v7.5q0 57 -32 90t-91 33zM378 700v27q0 19 12.5 28.5t22.5 16.5q2 1 4 2.5t4 3.5l22 14q9 6 10.5 9.5t1.5 8.5t-7 16.5t-28 11.5q-8 0 -18.5 -1.5t-18.5 -12.5l-10 -13
l-58 40l10 14q15 21 40.5 32.5t54.5 11.5q31 0 50 -11t30 -22q27 -29 27 -66q0 -46 -44 -75l-22 -14q-2 -2 -5.5 -3t-4.5 -3q-8 -7 -3 -15h-70z" />
    <glyph glyph-name="uni1EC4" unicode="&#x1ec4;" horiz-adv-x="570" 
d="M252 885h111l86 -127h-87l-55 62l-55 -62h-87zM81 700h444v-88h-350v-207h319v-89h-319v-228h356v-88h-450v700zM136 973q22 35 48 54.5t60 19.5q20 0 37 -6.5t32 -14t28 -13.5t26 -6q16 0 28 10.5t26 33.5l56 -50q-23 -37 -48.5 -55.5t-58.5 -18.5q-19 0 -35.5 6
t-31.5 13.5t-29 14t-27 6.5q-17 0 -29 -10t-26 -34z" />
    <glyph glyph-name="uni1EC5" unicode="&#x1ec5;" horiz-adv-x="537" 
d="M223 573h-87l87 127h111l86 -127h-87l-55 62zM282 72q48 0 78.5 21t45.5 59l85 -19q-14 -38 -36.5 -65.5t-50.5 -44.5t-59.5 -25t-64.5 -8q-50 0 -93.5 17.5t-75.5 51t-50.5 83.5t-18.5 115t18.5 115t50 84t74.5 51.5t93 17.5q45 0 84.5 -14t68 -41.5t45 -68t16.5 -94.5
q0 -39 -10 -83h-347q7 -76 46 -114t101 -38zM278 443q-57 0 -94.5 -34.5t-47.5 -106.5h264q1 7 1 10.5v7.5q0 57 -32 90t-91 33zM110 781q22 35 48 54.5t60 19.5q20 0 37 -6.5t32 -14t28 -13.5t26 -6q16 0 28 10.5t26 33.5l56 -50q-23 -37 -48.5 -55.5t-58.5 -18.5
q-19 0 -35.5 6t-31.5 13.5t-29 14t-27 6.5q-17 0 -29 -10t-26 -34z" />
    <glyph glyph-name="Ecircumflexdotbelow" unicode="&#x1ec6;" horiz-adv-x="570" 
d="M81 700h444v-88h-350v-207h319v-89h-319v-228h356v-88h-450v700zM284 -160q-26 0 -43 16t-17 41q0 26 17 42t43 16q27 0 44 -16t17 -42q0 -25 -17 -41t-44 -16zM230 885h111l86 -127h-87l-55 62l-55 -62h-87z" />
    <glyph glyph-name="ecircumflexdotbelow" unicode="&#x1ec7;" horiz-adv-x="537" 
d="M282 72q48 0 78.5 21t45.5 59l85 -19q-14 -38 -36.5 -65.5t-50.5 -44.5t-59.5 -25t-64.5 -8q-50 0 -93.5 17.5t-75.5 51t-50.5 83.5t-18.5 115t18.5 115t50 84t74.5 51.5t93 17.5q45 0 84.5 -14t68 -41.5t45 -68t16.5 -94.5q0 -39 -10 -83h-347q7 -76 46 -114t101 -38z
M278 443q-57 0 -94.5 -34.5t-47.5 -106.5h264q1 7 1 10.5v7.5q0 57 -32 90t-91 33zM268 -160q-26 0 -43 16t-17 41q0 26 17 42t43 16q27 0 44 -16t17 -42q0 -25 -17 -41t-44 -16zM213 700h111l86 -127h-87l-55 62l-55 -62h-87z" />
    <glyph glyph-name="uni1EC8" unicode="&#x1ec8;" horiz-adv-x="256" 
d="M81 700h94v-700h-94v700zM85 759v27q0 19 12.5 28.5t22.5 16.5q2 1 4 2.5t4 3.5l22 14q9 6 10.5 9.5t1.5 8.5t-7 16.5t-28 11.5q-8 0 -18.5 -1.5t-18.5 -12.5l-10 -13l-58 40l10 14q15 21 40.5 32.5t54.5 11.5q31 0 50 -11t30 -22q27 -29 27 -66q0 -46 -44 -75l-22 -14
q-2 -2 -5.5 -3t-4.5 -3q-8 -7 -3 -15h-70z" />
    <glyph glyph-name="ihook" unicode="&#x1ec9;" horiz-adv-x="233" 
d="M70 515h93v-515h-93v515zM74 574v27q0 19 12.5 28.5t22.5 16.5q2 1 4 2.5t4 3.5l22 14q9 6 10.5 9.5t1.5 8.5t-7 16.5t-28 11.5q-8 0 -18.5 -1.5t-18.5 -12.5l-10 -13l-58 40l10 14q15 21 40.5 32.5t54.5 11.5q31 0 50 -11t30 -22q27 -29 27 -66q0 -46 -44 -75l-22 -14
q-2 -2 -5.5 -3t-4.5 -3q-8 -7 -3 -15h-70z" />
    <glyph glyph-name="uni1ECA" unicode="&#x1eca;" horiz-adv-x="256" 
d="M81 700h94v-700h-94v700zM127 -160q-26 0 -43 16t-17 41q0 26 17 42t43 16q27 0 44 -16t17 -42q0 -25 -17 -41t-44 -16z" />
    <glyph glyph-name="idotbelow" unicode="&#x1ecb;" horiz-adv-x="234" 
d="M117 587q-27 0 -44 16t-17 41q0 26 17 42t44 16t44 -16t17 -42q0 -25 -17 -41t-44 -16zM71 515h92v-515h-92v515zM117 -160q-26 0 -43 16t-17 41q0 26 17 42t43 16q27 0 44 -16t17 -42q0 -25 -17 -41t-44 -16z" />
    <glyph glyph-name="uni1ECC" unicode="&#x1ecc;" 
d="M371 -10q-69 0 -127.5 23.5t-102 69t-68 112.5t-24.5 155q0 87 24.5 154.5t68 113t102 69t127.5 23.5q68 0 126.5 -23.5t101.5 -69t67.5 -113t24.5 -154.5q0 -88 -24.5 -155t-67.5 -112.5t-101.5 -69t-126.5 -23.5zM371 79q46 0 86.5 17t70.5 50.5t47.5 84.5t17.5 119
q0 67 -17.5 118t-47.5 85t-70.5 51t-86.5 17q-47 0 -87.5 -17t-70.5 -51t-47.5 -85t-17.5 -118q0 -68 17.5 -119t47.5 -84.5t70.5 -50.5t87.5 -17zM370 -160q-26 0 -43 16t-17 41q0 26 17 42t43 16q27 0 44 -16t17 -42q0 -25 -17 -41t-44 -16z" />
    <glyph glyph-name="uni1ECD" unicode="&#x1ecd;" horiz-adv-x="565" 
d="M283 -10q-51 0 -95 17t-76.5 50.5t-51 83.5t-18.5 116q0 67 18.5 117t51 83.5t76.5 50.5t95 17q50 0 94 -17t76.5 -50.5t51 -83.5t18.5 -117q0 -66 -18.5 -116t-51 -83.5t-76.5 -50.5t-94 -17zM283 75q67 0 105.5 46.5t38.5 135.5q0 90 -38.5 136.5t-105.5 46.5
q-68 0 -106.5 -46.5t-38.5 -136.5q0 -89 38.5 -135.5t106.5 -46.5zM282 -160q-26 0 -43 16t-17 41q0 26 17 42t43 16q27 0 44 -16t17 -42q0 -25 -17 -41t-44 -16z" />
    <glyph glyph-name="uni1ECE" unicode="&#x1ece;" 
d="M371 -10q-69 0 -127.5 23.5t-102 69t-68 112.5t-24.5 155q0 87 24.5 154.5t68 113t102 69t127.5 23.5q68 0 126.5 -23.5t101.5 -69t67.5 -113t24.5 -154.5q0 -88 -24.5 -155t-67.5 -112.5t-101.5 -69t-126.5 -23.5zM371 79q46 0 86.5 17t70.5 50.5t47.5 84.5t17.5 119
q0 67 -17.5 118t-47.5 85t-70.5 51t-86.5 17q-47 0 -87.5 -17t-70.5 -51t-47.5 -85t-17.5 -118q0 -68 17.5 -119t47.5 -84.5t70.5 -50.5t87.5 -17zM327 759v27q0 19 12.5 28.5t22.5 16.5q2 1 4 2.5t4 3.5l22 14q9 6 10.5 9.5t1.5 8.5t-7 16.5t-28 11.5q-8 0 -18.5 -1.5
t-18.5 -12.5l-10 -13l-58 40l10 14q15 21 40.5 32.5t54.5 11.5q31 0 50 -11t30 -22q27 -29 27 -66q0 -46 -44 -75l-22 -14q-2 -2 -5.5 -3t-4.5 -3q-8 -7 -3 -15h-70z" />
    <glyph glyph-name="uni1ECF" unicode="&#x1ecf;" horiz-adv-x="565" 
d="M283 -10q-51 0 -95 17t-76.5 50.5t-51 83.5t-18.5 116q0 67 18.5 117t51 83.5t76.5 50.5t95 17q50 0 94 -17t76.5 -50.5t51 -83.5t18.5 -117q0 -66 -18.5 -116t-51 -83.5t-76.5 -50.5t-94 -17zM283 75q67 0 105.5 46.5t38.5 135.5q0 90 -38.5 136.5t-105.5 46.5
q-68 0 -106.5 -46.5t-38.5 -136.5q0 -89 38.5 -135.5t106.5 -46.5zM239 574v27q0 19 12.5 28.5t22.5 16.5q2 1 4 2.5t4 3.5l22 14q9 6 10.5 9.5t1.5 8.5t-7 16.5t-28 11.5q-8 0 -18.5 -1.5t-18.5 -12.5l-10 -13l-58 40l10 14q15 21 40.5 32.5t54.5 11.5q31 0 50 -11t30 -22
q27 -29 27 -66q0 -46 -44 -75l-22 -14q-2 -2 -5.5 -3t-4.5 -3q-8 -7 -3 -15h-70z" />
    <glyph glyph-name="uni1ED0" unicode="&#x1ed0;" 
d="M316 885h111l86 -127h-87l-55 62l-55 -62h-87zM371 -10q-69 0 -127.5 23.5t-102 69t-68 112.5t-24.5 155q0 87 24.5 154.5t68 113t102 69t127.5 23.5q68 0 126.5 -23.5t101.5 -69t67.5 -113t24.5 -154.5q0 -88 -24.5 -155t-67.5 -112.5t-101.5 -69t-126.5 -23.5zM371 79
q46 0 86.5 17t70.5 50.5t47.5 84.5t17.5 119q0 67 -17.5 118t-47.5 85t-70.5 51t-86.5 17q-47 0 -87.5 -17t-70.5 -51t-47.5 -85t-17.5 -118q0 -68 17.5 -119t47.5 -84.5t70.5 -50.5t87.5 -17zM527 1012h116l-94 -127h-86z" />
    <glyph glyph-name="uni1ED1" unicode="&#x1ed1;" horiz-adv-x="565" 
d="M228 700h111l86 -127h-87l-55 62l-55 -62h-87zM283 -10q-51 0 -95 17t-76.5 50.5t-51 83.5t-18.5 116q0 67 18.5 117t51 83.5t76.5 50.5t95 17q50 0 94 -17t76.5 -50.5t51 -83.5t18.5 -117q0 -66 -18.5 -116t-51 -83.5t-76.5 -50.5t-94 -17zM283 75q67 0 105.5 46.5
t38.5 135.5q0 90 -38.5 136.5t-105.5 46.5q-68 0 -106.5 -46.5t-38.5 -136.5q0 -89 38.5 -135.5t106.5 -46.5zM446 827h116l-94 -127h-86z" />
    <glyph glyph-name="uni1ED2" unicode="&#x1ed2;" 
d="M316 885h111l86 -127h-87l-55 62l-55 -62h-87zM371 -10q-69 0 -127.5 23.5t-102 69t-68 112.5t-24.5 155q0 87 24.5 154.5t68 113t102 69t127.5 23.5q68 0 126.5 -23.5t101.5 -69t67.5 -113t24.5 -154.5q0 -88 -24.5 -155t-67.5 -112.5t-101.5 -69t-126.5 -23.5zM371 79
q46 0 86.5 17t70.5 50.5t47.5 84.5t17.5 119q0 67 -17.5 118t-47.5 85t-70.5 51t-86.5 17q-47 0 -87.5 -17t-70.5 -51t-47.5 -85t-17.5 -118q0 -68 17.5 -119t47.5 -84.5t70.5 -50.5t87.5 -17zM391 1012h116l64 -127h-86z" />
    <glyph glyph-name="uni1ED3" unicode="&#x1ed3;" horiz-adv-x="565" 
d="M228 700h111l86 -127h-87l-55 62l-55 -62h-87zM283 -10q-51 0 -95 17t-76.5 50.5t-51 83.5t-18.5 116q0 67 18.5 117t51 83.5t76.5 50.5t95 17q50 0 94 -17t76.5 -50.5t51 -83.5t18.5 -117q0 -66 -18.5 -116t-51 -83.5t-76.5 -50.5t-94 -17zM283 75q67 0 105.5 46.5
t38.5 135.5q0 90 -38.5 136.5t-105.5 46.5q-68 0 -106.5 -46.5t-38.5 -136.5q0 -89 38.5 -135.5t106.5 -46.5zM294 827h116l64 -127h-86z" />
    <glyph glyph-name="uni1ED4" unicode="&#x1ed4;" 
d="M316 885h111l86 -127h-87l-55 62l-55 -62h-87zM371 -10q-69 0 -127.5 23.5t-102 69t-68 112.5t-24.5 155q0 87 24.5 154.5t68 113t102 69t127.5 23.5q68 0 126.5 -23.5t101.5 -69t67.5 -113t24.5 -154.5q0 -88 -24.5 -155t-67.5 -112.5t-101.5 -69t-126.5 -23.5zM371 79
q46 0 86.5 17t70.5 50.5t47.5 84.5t17.5 119q0 67 -17.5 118t-47.5 85t-70.5 51t-86.5 17q-47 0 -87.5 -17t-70.5 -51t-47.5 -85t-17.5 -118q0 -68 17.5 -119t47.5 -84.5t70.5 -50.5t87.5 -17zM470 885v27q0 19 12.5 28.5t22.5 16.5q2 1 4 2.5t4 3.5l22 14q9 6 10.5 9.5
t1.5 8.5t-7 16.5t-28 11.5q-8 0 -18.5 -1.5t-18.5 -12.5l-10 -13l-58 40l10 14q15 21 40.5 32.5t54.5 11.5q31 0 50 -11t30 -22q27 -29 27 -66q0 -46 -44 -75l-22 -14q-2 -2 -5.5 -3t-4.5 -3q-8 -7 -3 -15h-70z" />
    <glyph glyph-name="uni1ED5" unicode="&#x1ed5;" horiz-adv-x="565" 
d="M228 700h111l86 -127h-87l-55 62l-55 -62h-87zM283 -10q-51 0 -95 17t-76.5 50.5t-51 83.5t-18.5 116q0 67 18.5 117t51 83.5t76.5 50.5t95 17q50 0 94 -17t76.5 -50.5t51 -83.5t18.5 -117q0 -66 -18.5 -116t-51 -83.5t-76.5 -50.5t-94 -17zM283 75q67 0 105.5 46.5
t38.5 135.5q0 90 -38.5 136.5t-105.5 46.5q-68 0 -106.5 -46.5t-38.5 -136.5q0 -89 38.5 -135.5t106.5 -46.5zM374 700v27q0 19 12.5 28.5t22.5 16.5q2 1 4 2.5t4 3.5l22 14q9 6 10.5 9.5t1.5 8.5t-7 16.5t-28 11.5q-8 0 -18.5 -1.5t-18.5 -12.5l-10 -13l-58 40l10 14
q15 21 40.5 32.5t54.5 11.5q31 0 50 -11t30 -22q27 -29 27 -66q0 -46 -44 -75l-22 -14q-2 -2 -5.5 -3t-4.5 -3q-8 -7 -3 -15h-70z" />
    <glyph glyph-name="uni1ED6" unicode="&#x1ed6;" 
d="M316 885h111l86 -127h-87l-55 62l-55 -62h-87zM371 -10q-69 0 -127.5 23.5t-102 69t-68 112.5t-24.5 155q0 87 24.5 154.5t68 113t102 69t127.5 23.5q68 0 126.5 -23.5t101.5 -69t67.5 -113t24.5 -154.5q0 -88 -24.5 -155t-67.5 -112.5t-101.5 -69t-126.5 -23.5zM371 79
q46 0 86.5 17t70.5 50.5t47.5 84.5t17.5 119q0 67 -17.5 118t-47.5 85t-70.5 51t-86.5 17q-47 0 -87.5 -17t-70.5 -51t-47.5 -85t-17.5 -118q0 -68 17.5 -119t47.5 -84.5t70.5 -50.5t87.5 -17zM198 968q22 35 48 54.5t60 19.5q20 0 37 -6.5t32 -14t28 -13.5t26 -6
q16 0 28 10.5t26 33.5l56 -50q-23 -37 -48.5 -55.5t-58.5 -18.5q-19 0 -35.5 6t-31.5 13.5t-29 14t-27 6.5q-17 0 -29 -10t-26 -34z" />
    <glyph glyph-name="uni1ED7" unicode="&#x1ed7;" horiz-adv-x="565" 
d="M228 700h111l86 -127h-87l-55 62l-55 -62h-87zM283 -10q-51 0 -95 17t-76.5 50.5t-51 83.5t-18.5 116q0 67 18.5 117t51 83.5t76.5 50.5t95 17q50 0 94 -17t76.5 -50.5t51 -83.5t18.5 -117q0 -66 -18.5 -116t-51 -83.5t-76.5 -50.5t-94 -17zM283 75q67 0 105.5 46.5
t38.5 135.5q0 90 -38.5 136.5t-105.5 46.5q-68 0 -106.5 -46.5t-38.5 -136.5q0 -89 38.5 -135.5t106.5 -46.5zM112 782q22 35 48 54.5t60 19.5q20 0 37 -6.5t32 -14t28 -13.5t26 -6q16 0 28 10.5t26 33.5l56 -50q-23 -37 -48.5 -55.5t-58.5 -18.5q-19 0 -35.5 6t-31.5 13.5
t-29 14t-27 6.5q-17 0 -29 -10t-26 -34z" />
    <glyph glyph-name="Ocircumflexdotbelow" unicode="&#x1ed8;" 
d="M371 -10q-69 0 -127.5 23.5t-102 69t-68 112.5t-24.5 155q0 87 24.5 154.5t68 113t102 69t127.5 23.5q68 0 126.5 -23.5t101.5 -69t67.5 -113t24.5 -154.5q0 -88 -24.5 -155t-67.5 -112.5t-101.5 -69t-126.5 -23.5zM371 79q46 0 86.5 17t70.5 50.5t47.5 84.5t17.5 119
q0 67 -17.5 118t-47.5 85t-70.5 51t-86.5 17q-47 0 -87.5 -17t-70.5 -51t-47.5 -85t-17.5 -118q0 -68 17.5 -119t47.5 -84.5t70.5 -50.5t87.5 -17zM370 -160q-26 0 -43 16t-17 41q0 26 17 42t43 16q27 0 44 -16t17 -42q0 -25 -17 -41t-44 -16zM315 885h111l86 -127h-87
l-55 62l-55 -62h-87z" />
    <glyph glyph-name="ocircumflexdotbelow" unicode="&#x1ed9;" horiz-adv-x="565" 
d="M283 -10q-51 0 -95 17t-76.5 50.5t-51 83.5t-18.5 116q0 67 18.5 117t51 83.5t76.5 50.5t95 17q50 0 94 -17t76.5 -50.5t51 -83.5t18.5 -117q0 -66 -18.5 -116t-51 -83.5t-76.5 -50.5t-94 -17zM283 75q67 0 105.5 46.5t38.5 135.5q0 90 -38.5 136.5t-105.5 46.5
q-68 0 -106.5 -46.5t-38.5 -136.5q0 -89 38.5 -135.5t106.5 -46.5zM282 -160q-26 0 -43 16t-17 41q0 26 17 42t43 16q27 0 44 -16t17 -42q0 -25 -17 -41t-44 -16zM227 700h111l86 -127h-87l-55 62l-55 -62h-87z" />
    <glyph glyph-name="uni1EDA" unicode="&#x1eda;" 
d="M371 -10q-69 0 -127.5 23.5t-102 69t-68 112.5t-24.5 155q0 87 24.5 154.5t68 113t102 69t127.5 23.5q68 0 126.5 -23.5t101.5 -69t67.5 -113t24.5 -154.5q0 -88 -24.5 -155t-67.5 -112.5t-101.5 -69t-126.5 -23.5zM371 79q46 0 86.5 17t70.5 50.5t47.5 84.5t17.5 119
q0 67 -17.5 118t-47.5 85t-70.5 51t-86.5 17q-47 0 -87.5 -17t-70.5 -51t-47.5 -85t-17.5 -118q0 -68 17.5 -119t47.5 -84.5t70.5 -50.5t87.5 -17zM524 581v83l20 -1h11q33 0 45 16.5t12 61.5v36h79v-36q0 -83 -34 -121q-19 -20 -46.5 -29.5t-67.5 -9.5h-19zM344 885h116
l-94 -127h-86z" />
    <glyph glyph-name="uni1EDB" unicode="&#x1edb;" horiz-adv-x="565" 
d="M283 -10q-51 0 -95 17t-76.5 50.5t-51 83.5t-18.5 116q0 67 18.5 117t51 83.5t76.5 50.5t95 17q50 0 94 -17t76.5 -50.5t51 -83.5t18.5 -117q0 -66 -18.5 -116t-51 -83.5t-76.5 -50.5t-94 -17zM283 75q67 0 105.5 46.5t38.5 135.5q0 90 -38.5 136.5t-105.5 46.5
q-68 0 -106.5 -46.5t-38.5 -136.5q0 -89 38.5 -135.5t106.5 -46.5zM427 385v83l20 -1h11q33 0 45 16.5t12 61.5v36h79v-36q0 -83 -34 -121q-19 -20 -46.5 -29.5t-67.5 -9.5h-19zM294 700h116l-94 -127h-86z" />
    <glyph glyph-name="uni1EDC" unicode="&#x1edc;" 
d="M371 -10q-69 0 -127.5 23.5t-102 69t-68 112.5t-24.5 155q0 87 24.5 154.5t68 113t102 69t127.5 23.5q68 0 126.5 -23.5t101.5 -69t67.5 -113t24.5 -154.5q0 -88 -24.5 -155t-67.5 -112.5t-101.5 -69t-126.5 -23.5zM371 79q46 0 86.5 17t70.5 50.5t47.5 84.5t17.5 119
q0 67 -17.5 118t-47.5 85t-70.5 51t-86.5 17q-47 0 -87.5 -17t-70.5 -51t-47.5 -85t-17.5 -118q0 -68 17.5 -119t47.5 -84.5t70.5 -50.5t87.5 -17zM524 581v83l20 -1h11q33 0 45 16.5t12 61.5v36h79v-36q0 -83 -34 -121q-19 -20 -46.5 -29.5t-67.5 -9.5h-19zM280 885h116
l64 -127h-86z" />
    <glyph glyph-name="uni1EDD" unicode="&#x1edd;" horiz-adv-x="565" 
d="M283 -10q-51 0 -95 17t-76.5 50.5t-51 83.5t-18.5 116q0 67 18.5 117t51 83.5t76.5 50.5t95 17q50 0 94 -17t76.5 -50.5t51 -83.5t18.5 -117q0 -66 -18.5 -116t-51 -83.5t-76.5 -50.5t-94 -17zM283 75q67 0 105.5 46.5t38.5 135.5q0 90 -38.5 136.5t-105.5 46.5
q-68 0 -106.5 -46.5t-38.5 -136.5q0 -89 38.5 -135.5t106.5 -46.5zM427 385v83l20 -1h11q33 0 45 16.5t12 61.5v36h79v-36q0 -83 -34 -121q-19 -20 -46.5 -29.5t-67.5 -9.5h-19zM192 700h116l64 -127h-86z" />
    <glyph glyph-name="uni1EDE" unicode="&#x1ede;" 
d="M371 -10q-69 0 -127.5 23.5t-102 69t-68 112.5t-24.5 155q0 87 24.5 154.5t68 113t102 69t127.5 23.5q68 0 126.5 -23.5t101.5 -69t67.5 -113t24.5 -154.5q0 -88 -24.5 -155t-67.5 -112.5t-101.5 -69t-126.5 -23.5zM371 79q46 0 86.5 17t70.5 50.5t47.5 84.5t17.5 119
q0 67 -17.5 118t-47.5 85t-70.5 51t-86.5 17q-47 0 -87.5 -17t-70.5 -51t-47.5 -85t-17.5 -118q0 -68 17.5 -119t47.5 -84.5t70.5 -50.5t87.5 -17zM524 581v83l20 -1h11q33 0 45 16.5t12 61.5v36h79v-36q0 -83 -34 -121q-19 -20 -46.5 -29.5t-67.5 -9.5h-19zM327 759v27
q0 19 12.5 28.5t22.5 16.5q2 1 4 2.5t4 3.5l22 14q9 6 10.5 9.5t1.5 8.5t-7 16.5t-28 11.5q-8 0 -18.5 -1.5t-18.5 -12.5l-10 -13l-58 40l10 14q15 21 40.5 32.5t54.5 11.5q31 0 50 -11t30 -22q27 -29 27 -66q0 -46 -44 -75l-22 -14q-2 -2 -5.5 -3t-4.5 -3q-8 -7 -3 -15h-70
z" />
    <glyph glyph-name="uni1EDF" unicode="&#x1edf;" horiz-adv-x="565" 
d="M283 -10q-51 0 -95 17t-76.5 50.5t-51 83.5t-18.5 116q0 67 18.5 117t51 83.5t76.5 50.5t95 17q50 0 94 -17t76.5 -50.5t51 -83.5t18.5 -117q0 -66 -18.5 -116t-51 -83.5t-76.5 -50.5t-94 -17zM283 75q67 0 105.5 46.5t38.5 135.5q0 90 -38.5 136.5t-105.5 46.5
q-68 0 -106.5 -46.5t-38.5 -136.5q0 -89 38.5 -135.5t106.5 -46.5zM427 385v83l20 -1h11q33 0 45 16.5t12 61.5v36h79v-36q0 -83 -34 -121q-19 -20 -46.5 -29.5t-67.5 -9.5h-19zM239 574v27q0 19 12.5 28.5t22.5 16.5q2 1 4 2.5t4 3.5l22 14q9 6 10.5 9.5t1.5 8.5t-7 16.5
t-28 11.5q-8 0 -18.5 -1.5t-18.5 -12.5l-10 -13l-58 40l10 14q15 21 40.5 32.5t54.5 11.5q31 0 50 -11t30 -22q27 -29 27 -66q0 -46 -44 -75l-22 -14q-2 -2 -5.5 -3t-4.5 -3q-8 -7 -3 -15h-70z" />
    <glyph glyph-name="uni1EE0" unicode="&#x1ee0;" 
d="M371 -10q-69 0 -127.5 23.5t-102 69t-68 112.5t-24.5 155q0 87 24.5 154.5t68 113t102 69t127.5 23.5q68 0 126.5 -23.5t101.5 -69t67.5 -113t24.5 -154.5q0 -88 -24.5 -155t-67.5 -112.5t-101.5 -69t-126.5 -23.5zM371 79q46 0 86.5 17t70.5 50.5t47.5 84.5t17.5 119
q0 67 -17.5 118t-47.5 85t-70.5 51t-86.5 17q-47 0 -87.5 -17t-70.5 -51t-47.5 -85t-17.5 -118q0 -68 17.5 -119t47.5 -84.5t70.5 -50.5t87.5 -17zM524 581v83l20 -1h11q33 0 45 16.5t12 61.5v36h79v-36q0 -83 -34 -121q-19 -20 -46.5 -29.5t-67.5 -9.5h-19zM200 815
q22 35 48 54.5t60 19.5q20 0 37 -6.5t32 -14t28 -13.5t26 -6q16 0 28 10.5t26 33.5l56 -50q-23 -37 -48.5 -55.5t-58.5 -18.5q-19 0 -35.5 6t-31.5 13.5t-29 14t-27 6.5q-17 0 -29 -10t-26 -34z" />
    <glyph glyph-name="uni1EE1" unicode="&#x1ee1;" horiz-adv-x="565" 
d="M283 -10q-51 0 -95 17t-76.5 50.5t-51 83.5t-18.5 116q0 67 18.5 117t51 83.5t76.5 50.5t95 17q50 0 94 -17t76.5 -50.5t51 -83.5t18.5 -117q0 -66 -18.5 -116t-51 -83.5t-76.5 -50.5t-94 -17zM283 75q67 0 105.5 46.5t38.5 135.5q0 90 -38.5 136.5t-105.5 46.5
q-68 0 -106.5 -46.5t-38.5 -136.5q0 -89 38.5 -135.5t106.5 -46.5zM427 385v83l20 -1h11q33 0 45 16.5t12 61.5v36h79v-36q0 -83 -34 -121q-19 -20 -46.5 -29.5t-67.5 -9.5h-19zM112 630q22 35 48 54.5t60 19.5q20 0 37 -6.5t32 -14t28 -13.5t26 -6q16 0 28 10.5t26 33.5
l56 -50q-23 -37 -48.5 -55.5t-58.5 -18.5q-19 0 -35.5 6t-31.5 13.5t-29 14t-27 6.5q-17 0 -29 -10t-26 -34z" />
    <glyph glyph-name="uni1EE2" unicode="&#x1ee2;" 
d="M371 -10q-69 0 -127.5 23.5t-102 69t-68 112.5t-24.5 155q0 87 24.5 154.5t68 113t102 69t127.5 23.5q68 0 126.5 -23.5t101.5 -69t67.5 -113t24.5 -154.5q0 -88 -24.5 -155t-67.5 -112.5t-101.5 -69t-126.5 -23.5zM371 79q46 0 86.5 17t70.5 50.5t47.5 84.5t17.5 119
q0 67 -17.5 118t-47.5 85t-70.5 51t-86.5 17q-47 0 -87.5 -17t-70.5 -51t-47.5 -85t-17.5 -118q0 -68 17.5 -119t47.5 -84.5t70.5 -50.5t87.5 -17zM524 581v83l20 -1h11q33 0 45 16.5t12 61.5v36h79v-36q0 -83 -34 -121q-19 -20 -46.5 -29.5t-67.5 -9.5h-19zM370 -160
q-26 0 -43 16t-17 41q0 26 17 42t43 16q27 0 44 -16t17 -42q0 -25 -17 -41t-44 -16z" />
    <glyph glyph-name="uni1EE3" unicode="&#x1ee3;" horiz-adv-x="565" 
d="M283 -10q-51 0 -95 17t-76.5 50.5t-51 83.5t-18.5 116q0 67 18.5 117t51 83.5t76.5 50.5t95 17q50 0 94 -17t76.5 -50.5t51 -83.5t18.5 -117q0 -66 -18.5 -116t-51 -83.5t-76.5 -50.5t-94 -17zM283 75q67 0 105.5 46.5t38.5 135.5q0 90 -38.5 136.5t-105.5 46.5
q-68 0 -106.5 -46.5t-38.5 -136.5q0 -89 38.5 -135.5t106.5 -46.5zM427 385v83l20 -1h11q33 0 45 16.5t12 61.5v36h79v-36q0 -83 -34 -121q-19 -20 -46.5 -29.5t-67.5 -9.5h-19zM282 -160q-26 0 -43 16t-17 41q0 26 17 42t43 16q27 0 44 -16t17 -42q0 -25 -17 -41t-44 -16z
" />
    <glyph glyph-name="Udotbelow" unicode="&#x1ee4;" horiz-adv-x="695" 
d="M348 -10q-64 0 -114.5 17t-85 54.5t-53 97t-18.5 144.5v397h94v-386q0 -66 11 -110.5t33 -72.5t55 -40t78 -12q43 0 76 12t55.5 40t34 73t11.5 111v385h94l-1 -397q0 -85 -18.5 -144.5t-53.5 -97t-85 -54.5t-113 -17zM347 -160q-26 0 -43 16t-17 41q0 26 17 42t43 16
q27 0 44 -16t17 -42q0 -25 -17 -41t-44 -16z" />
    <glyph glyph-name="uni1EE5" unicode="&#x1ee5;" horiz-adv-x="573" 
d="M236 -10q-39 0 -70.5 11t-54 36t-34.5 65t-12 98v315h92v-282q0 -46 6.5 -76t20.5 -48t36 -25.5t53 -7.5q30 0 55 9t43.5 30.5t28.5 57.5t10 90v252h92v-515h-76l-10 101q-21 -52 -68 -81.5t-112 -29.5zM286 -160q-26 0 -43 16t-17 41q0 26 17 42t43 16q27 0 44 -16
t17 -42q0 -25 -17 -41t-44 -16z" />
    <glyph glyph-name="uni1EE6" unicode="&#x1ee6;" horiz-adv-x="695" 
d="M348 -10q-64 0 -114.5 17t-85 54.5t-53 97t-18.5 144.5v397h94v-386q0 -66 11 -110.5t33 -72.5t55 -40t78 -12q43 0 76 12t55.5 40t34 73t11.5 111v385h94l-1 -397q0 -85 -18.5 -144.5t-53.5 -97t-85 -54.5t-113 -17zM304 759v27q0 19 12.5 28.5t22.5 16.5q2 1 4 2.5
t4 3.5l22 14q9 6 10.5 9.5t1.5 8.5t-7 16.5t-28 11.5q-8 0 -18.5 -1.5t-18.5 -12.5l-10 -13l-58 40l10 14q15 21 40.5 32.5t54.5 11.5q31 0 50 -11t30 -22q27 -29 27 -66q0 -46 -44 -75l-22 -14q-2 -2 -5.5 -3t-4.5 -3q-8 -7 -3 -15h-70z" />
    <glyph glyph-name="uni1EE7" unicode="&#x1ee7;" horiz-adv-x="573" 
d="M236 -10q-39 0 -70.5 11t-54 36t-34.5 65t-12 98v315h92v-282q0 -46 6.5 -76t20.5 -48t36 -25.5t53 -7.5q30 0 55 9t43.5 30.5t28.5 57.5t10 90v252h92v-515h-76l-10 101q-21 -52 -68 -81.5t-112 -29.5zM243 574v27q0 19 12.5 28.5t22.5 16.5q2 1 4 2.5t4 3.5l22 14
q9 6 10.5 9.5t1.5 8.5t-7 16.5t-28 11.5q-8 0 -18.5 -1.5t-18.5 -12.5l-10 -13l-58 40l10 14q15 21 40.5 32.5t54.5 11.5q31 0 50 -11t30 -22q27 -29 27 -66q0 -46 -44 -75l-22 -14q-2 -2 -5.5 -3t-4.5 -3q-8 -7 -3 -15h-70z" />
    <glyph glyph-name="uni1EE8" unicode="&#x1ee8;" horiz-adv-x="695" 
d="M348 -10q-64 0 -114.5 17t-85 54.5t-53 97t-18.5 144.5v397h94v-386q0 -66 11 -110.5t33 -72.5t55 -40t78 -12q43 0 76 12t55.5 40t34 73t11.5 111v385h94l-1 -397q0 -85 -18.5 -144.5t-53.5 -97t-85 -54.5t-113 -17zM611 581v83l20 -1h11q33 0 45 16.5t12 61.5v36h79
v-36q0 -83 -34 -121q-19 -20 -46.5 -29.5t-67.5 -9.5h-19zM346 885h116l-94 -127h-86z" />
    <glyph glyph-name="uni1EE9" unicode="&#x1ee9;" horiz-adv-x="573" 
d="M236 -10q-39 0 -70.5 11t-54 36t-34.5 65t-12 98v315h92v-282q0 -46 6.5 -76t20.5 -48t36 -25.5t53 -7.5q30 0 55 9t43.5 30.5t28.5 57.5t10 90v252h92v-515h-76l-10 101q-21 -52 -68 -81.5t-112 -29.5zM467 385v83l20 -1h11q33 0 45 16.5t12 61.5v36h79v-36
q0 -83 -34 -121q-19 -20 -46.5 -29.5t-67.5 -9.5h-19zM282 700h116l-94 -127h-86z" />
    <glyph glyph-name="uni1EEA" unicode="&#x1eea;" horiz-adv-x="695" 
d="M348 -10q-64 0 -114.5 17t-85 54.5t-53 97t-18.5 144.5v397h94v-386q0 -66 11 -110.5t33 -72.5t55 -40t78 -12q43 0 76 12t55.5 40t34 73t11.5 111v385h94l-1 -397q0 -85 -18.5 -144.5t-53.5 -97t-85 -54.5t-113 -17zM611 581v83l20 -1h11q33 0 45 16.5t12 61.5v36h79
v-36q0 -83 -34 -121q-19 -20 -46.5 -29.5t-67.5 -9.5h-19zM225 885h116l64 -127h-86z" />
    <glyph glyph-name="uni1EEB" unicode="&#x1eeb;" horiz-adv-x="573" 
d="M236 -10q-39 0 -70.5 11t-54 36t-34.5 65t-12 98v315h92v-282q0 -46 6.5 -76t20.5 -48t36 -25.5t53 -7.5q30 0 55 9t43.5 30.5t28.5 57.5t10 90v252h92v-515h-76l-10 101q-21 -52 -68 -81.5t-112 -29.5zM467 385v83l20 -1h11q33 0 45 16.5t12 61.5v36h79v-36
q0 -83 -34 -121q-19 -20 -46.5 -29.5t-67.5 -9.5h-19zM175 700h116l64 -127h-86z" />
    <glyph glyph-name="uni1EEC" unicode="&#x1eec;" horiz-adv-x="695" 
d="M348 -10q-64 0 -114.5 17t-85 54.5t-53 97t-18.5 144.5v397h94v-386q0 -66 11 -110.5t33 -72.5t55 -40t78 -12q43 0 76 12t55.5 40t34 73t11.5 111v385h94l-1 -397q0 -85 -18.5 -144.5t-53.5 -97t-85 -54.5t-113 -17zM611 581v83l20 -1h11q33 0 45 16.5t12 61.5v36h79
v-36q0 -83 -34 -121q-19 -20 -46.5 -29.5t-67.5 -9.5h-19zM304 759v27q0 19 12.5 28.5t22.5 16.5q2 1 4 2.5t4 3.5l22 14q9 6 10.5 9.5t1.5 8.5t-7 16.5t-28 11.5q-8 0 -18.5 -1.5t-18.5 -12.5l-10 -13l-58 40l10 14q15 21 40.5 32.5t54.5 11.5q31 0 50 -11t30 -22
q27 -29 27 -66q0 -46 -44 -75l-22 -14q-2 -2 -5.5 -3t-4.5 -3q-8 -7 -3 -15h-70z" />
    <glyph glyph-name="uni1EED" unicode="&#x1eed;" horiz-adv-x="573" 
d="M236 -10q-39 0 -70.5 11t-54 36t-34.5 65t-12 98v315h92v-282q0 -46 6.5 -76t20.5 -48t36 -25.5t53 -7.5q30 0 55 9t43.5 30.5t28.5 57.5t10 90v252h92v-515h-76l-10 101q-21 -52 -68 -81.5t-112 -29.5zM467 385v83l20 -1h11q33 0 45 16.5t12 61.5v36h79v-36
q0 -83 -34 -121q-19 -20 -46.5 -29.5t-67.5 -9.5h-19zM243 574v27q0 19 12.5 28.5t22.5 16.5q2 1 4 2.5t4 3.5l22 14q9 6 10.5 9.5t1.5 8.5t-7 16.5t-28 11.5q-8 0 -18.5 -1.5t-18.5 -12.5l-10 -13l-58 40l10 14q15 21 40.5 32.5t54.5 11.5q31 0 50 -11t30 -22
q27 -29 27 -66q0 -46 -44 -75l-22 -14q-2 -2 -5.5 -3t-4.5 -3q-8 -7 -3 -15h-70z" />
    <glyph glyph-name="uni1EEE" unicode="&#x1eee;" horiz-adv-x="695" 
d="M348 -10q-64 0 -114.5 17t-85 54.5t-53 97t-18.5 144.5v397h94v-386q0 -66 11 -110.5t33 -72.5t55 -40t78 -12q43 0 76 12t55.5 40t34 73t11.5 111v385h94l-1 -397q0 -85 -18.5 -144.5t-53.5 -97t-85 -54.5t-113 -17zM611 581v83l20 -1h11q33 0 45 16.5t12 61.5v36h79
v-36q0 -83 -34 -121q-19 -20 -46.5 -29.5t-67.5 -9.5h-19zM177 815q22 35 48 54.5t60 19.5q20 0 37 -6.5t32 -14t28 -13.5t26 -6q16 0 28 10.5t26 33.5l56 -50q-23 -37 -48.5 -55.5t-58.5 -18.5q-19 0 -35.5 6t-31.5 13.5t-29 14t-27 6.5q-17 0 -29 -10t-26 -34z" />
    <glyph glyph-name="uni1EEF" unicode="&#x1eef;" horiz-adv-x="573" 
d="M236 -10q-39 0 -70.5 11t-54 36t-34.5 65t-12 98v315h92v-282q0 -46 6.5 -76t20.5 -48t36 -25.5t53 -7.5q30 0 55 9t43.5 30.5t28.5 57.5t10 90v252h92v-515h-76l-10 101q-21 -52 -68 -81.5t-112 -29.5zM467 385v83l20 -1h11q33 0 45 16.5t12 61.5v36h79v-36
q0 -83 -34 -121q-19 -20 -46.5 -29.5t-67.5 -9.5h-19zM116 630q22 35 48 54.5t60 19.5q20 0 37 -6.5t32 -14t28 -13.5t26 -6q16 0 28 10.5t26 33.5l56 -50q-23 -37 -48.5 -55.5t-58.5 -18.5q-19 0 -35.5 6t-31.5 13.5t-29 14t-27 6.5q-17 0 -29 -10t-26 -34z" />
    <glyph glyph-name="uni1EF0" unicode="&#x1ef0;" horiz-adv-x="695" 
d="M348 -10q-64 0 -114.5 17t-85 54.5t-53 97t-18.5 144.5v397h94v-386q0 -66 11 -110.5t33 -72.5t55 -40t78 -12q43 0 76 12t55.5 40t34 73t11.5 111v385h94l-1 -397q0 -85 -18.5 -144.5t-53.5 -97t-85 -54.5t-113 -17zM611 581v83l20 -1h11q33 0 45 16.5t12 61.5v36h79
v-36q0 -83 -34 -121q-19 -20 -46.5 -29.5t-67.5 -9.5h-19zM347 -160q-26 0 -43 16t-17 41q0 26 17 42t43 16q27 0 44 -16t17 -42q0 -25 -17 -41t-44 -16z" />
    <glyph glyph-name="uni1EF1" unicode="&#x1ef1;" horiz-adv-x="573" 
d="M236 -10q-39 0 -70.5 11t-54 36t-34.5 65t-12 98v315h92v-282q0 -46 6.5 -76t20.5 -48t36 -25.5t53 -7.5q30 0 55 9t43.5 30.5t28.5 57.5t10 90v252h92v-515h-76l-10 101q-21 -52 -68 -81.5t-112 -29.5zM467 385v83l20 -1h11q33 0 45 16.5t12 61.5v36h79v-36
q0 -83 -34 -121q-19 -20 -46.5 -29.5t-67.5 -9.5h-19zM286 -160q-26 0 -43 16t-17 41q0 26 17 42t43 16q27 0 44 -16t17 -42q0 -25 -17 -41t-44 -16z" />
    <glyph glyph-name="Ygrave" unicode="&#x1ef2;" horiz-adv-x="576" 
d="M335 244v-244h-94v244l-228 456h102l173 -358l173 358h101zM180 885h116l64 -127h-86z" />
    <glyph glyph-name="ygrave" unicode="&#x1ef3;" horiz-adv-x="492" 
d="M193 19l-180 496h99l130 -394l138 394h99l-262 -680h-92zM142 700h116l64 -127h-86z" />
    <glyph glyph-name="uni1EF4" unicode="&#x1ef4;" horiz-adv-x="576" 
d="M335 244v-244h-94v244l-228 456h102l173 -358l173 358h101zM287 -160q-26 0 -43 16t-17 41q0 26 17 42t43 16q27 0 44 -16t17 -42q0 -25 -17 -41t-44 -16z" />
    <glyph glyph-name="uni1EF5" unicode="&#x1ef5;" horiz-adv-x="492" 
d="M193 19l-180 496h99l130 -394l138 394h99l-262 -680h-92zM359 -160q-26 0 -43 16t-17 41q0 26 17 42t43 16q27 0 44 -16t17 -42q0 -25 -17 -41t-44 -16z" />
    <glyph glyph-name="uni1EF6" unicode="&#x1ef6;" horiz-adv-x="576" 
d="M335 244v-244h-94v244l-228 456h102l173 -358l173 358h101zM244 759v27q0 19 12.5 28.5t22.5 16.5q2 1 4 2.5t4 3.5l22 14q9 6 10.5 9.5t1.5 8.5t-7 16.5t-28 11.5q-8 0 -18.5 -1.5t-18.5 -12.5l-10 -13l-58 40l10 14q15 21 40.5 32.5t54.5 11.5q31 0 50 -11t30 -22
q27 -29 27 -66q0 -46 -44 -75l-22 -14q-2 -2 -5.5 -3t-4.5 -3q-8 -7 -3 -15h-70z" />
    <glyph glyph-name="uni1EF7" unicode="&#x1ef7;" horiz-adv-x="492" 
d="M193 19l-180 496h99l130 -394l138 394h99l-262 -680h-92zM202 574v27q0 19 12.5 28.5t22.5 16.5q2 1 4 2.5t4 3.5l22 14q9 6 10.5 9.5t1.5 8.5t-7 16.5t-28 11.5q-8 0 -18.5 -1.5t-18.5 -12.5l-10 -13l-58 40l10 14q15 21 40.5 32.5t54.5 11.5q31 0 50 -11t30 -22
q27 -29 27 -66q0 -46 -44 -75l-22 -14q-2 -2 -5.5 -3t-4.5 -3q-8 -7 -3 -15h-70z" />
    <glyph glyph-name="uni1EF8" unicode="&#x1ef8;" horiz-adv-x="576" 
d="M335 244v-244h-94v244l-228 456h102l173 -358l173 358h101zM117 815q22 35 48 54.5t60 19.5q20 0 37 -6.5t32 -14t28 -13.5t26 -6q16 0 28 10.5t26 33.5l56 -50q-23 -37 -48.5 -55.5t-58.5 -18.5q-19 0 -35.5 6t-31.5 13.5t-29 14t-27 6.5q-17 0 -29 -10t-26 -34z" />
    <glyph glyph-name="uni1EF9" unicode="&#x1ef9;" horiz-adv-x="492" 
d="M193 19l-180 496h99l130 -394l138 394h99l-262 -680h-92zM75 630q22 35 48 54.5t60 19.5q20 0 37 -6.5t32 -14t28 -13.5t26 -6q16 0 28 10.5t26 33.5l56 -50q-23 -37 -48.5 -55.5t-58.5 -18.5q-19 0 -35.5 6t-31.5 13.5t-29 14t-27 6.5q-17 0 -29 -10t-26 -34z" />
    <glyph glyph-name="endash" unicode="&#x2013;" horiz-adv-x="588" 
d="M55 348h478v-82h-478v82z" />
    <glyph glyph-name="emdash" unicode="&#x2014;" horiz-adv-x="822" 
d="M55 348h712v-82h-712v82z" />
    <glyph glyph-name="quoteleft" unicode="&#x2018;" horiz-adv-x="232" 
d="M162 674q-26 -23 -45 -49t-19 -59q7 11 17 15t21 4q18 0 33 -13.5t15 -37.5q0 -26 -17.5 -43.5t-48.5 -17.5q-35 0 -53 24.5t-18 58.5q0 48 23 83.5t61 67.5z" />
    <glyph glyph-name="quoteright" unicode="&#x2019;" horiz-adv-x="232" 
d="M69 506q27 23 46 49t19 59q-7 -11 -17 -15t-21 -4q-19 0 -33.5 13.5t-14.5 37.5q0 26 17.5 43.5t48.5 17.5q35 0 53 -24.5t18 -58.5q0 -48 -23 -83.5t-61 -67.5z" />
    <glyph glyph-name="quotesinglbase" unicode="&#x201a;" horiz-adv-x="232" 
d="M69 -96q27 23 46 48.5t19 59.5q-7 -11 -17 -15t-21 -4q-19 0 -33.5 13.5t-14.5 36.5q0 26 17.5 44t48.5 18q35 0 53 -24.5t18 -58.5q0 -48 -23 -83.5t-61 -67.5z" />
    <glyph glyph-name="quotedblleft" unicode="&#x201c;" horiz-adv-x="418" 
d="M162 673q-26 -23 -45 -48.5t-19 -59.5q7 11 17 15t21 4q18 0 33 -13.5t15 -36.5q0 -26 -17.5 -44t-48.5 -18q-35 0 -53 24.5t-18 58.5q0 48 23 83.5t61 67.5zM349 673q-26 -23 -45 -48.5t-19 -59.5q7 11 17 15t21 4q18 0 32.5 -13.5t14.5 -36.5q0 -26 -17 -44t-48 -18
q-35 0 -53 24.5t-18 58.5q0 48 22.5 83.5t61.5 67.5z" />
    <glyph glyph-name="quotedblright" unicode="&#x201d;" horiz-adv-x="418" 
d="M69 506q27 23 46 49t19 59q-7 -11 -17 -15t-21 -4q-19 0 -33.5 13.5t-14.5 37.5q0 26 17.5 43.5t48.5 17.5q35 0 53 -24.5t18 -58.5q0 -48 -23 -83.5t-61 -67.5zM256 506q26 23 45.5 49t19.5 59q-14 -19 -39 -19q-18 0 -32.5 13.5t-14.5 37.5q0 26 17 43.5t48 17.5
q35 0 53 -24.5t18 -58.5q0 -48 -22.5 -83.5t-61.5 -67.5z" />
    <glyph glyph-name="quotedblbase" unicode="&#x201e;" horiz-adv-x="418" 
d="M69 -96q27 23 46 48.5t19 59.5q-7 -11 -17 -15t-21 -4q-19 0 -33.5 13.5t-14.5 36.5q0 26 17.5 44t48.5 18q35 0 53 -24.5t18 -58.5q0 -48 -23 -83.5t-61 -67.5zM256 -96q26 23 45.5 48.5t19.5 59.5q-14 -19 -39 -19q-18 0 -32.5 13.5t-14.5 36.5q0 26 17 44t48 18
q35 0 53 -24.5t18 -58.5q0 -48 -22.5 -83.5t-61.5 -67.5z" />
    <glyph glyph-name="dagger" unicode="&#x2020;" horiz-adv-x="501" 
d="M460 418h-163l-1 -533h-91l-1 533h-164v85h164v197h93v-197h163v-85z" />
    <glyph glyph-name="daggerdbl" unicode="&#x2021;" horiz-adv-x="501" 
d="M297 418l-1 -251h164v-85h-164v-197h-91v197h-165v85h165l-1 251h-164v85h164v197h93v-197h163v-85h-163z" />
    <glyph glyph-name="bullet" unicode="&#x2022;" horiz-adv-x="332" 
d="M166 221q-41 0 -66.5 24t-25.5 62t25.5 62.5t66.5 24.5t66.5 -24.5t25.5 -62.5t-25.5 -62t-66.5 -24z" />
    <glyph glyph-name="ellipsis" unicode="&#x2026;" horiz-adv-x="657" 
d="M115 -7q-27 0 -44 16t-17 41q0 26 17 42t44 16q26 0 43 -16t17 -42q0 -25 -17 -41t-43 -16zM329 -7q-27 0 -44 16t-17 41q0 26 17 42t44 16q26 0 43 -16t17 -42q0 -25 -17 -41t-43 -16zM542 -7q-26 0 -43 16t-17 41q0 26 17 42t43 16q27 0 44 -16t17 -42q0 -25 -17 -41
t-44 -16z" />
    <glyph glyph-name="perthousand" unicode="&#x2030;" horiz-adv-x="1106" 
d="M178 392q-34 0 -62.5 11t-49 32t-32 50t-11.5 64t11.5 64t32 50t49 32.5t62.5 11.5q33 0 61.5 -11.5t49 -32.5t32 -50t11.5 -64t-11.5 -64t-32 -49.5t-49 -32t-61.5 -11.5zM84 52l521 637l49 -40l-521 -638zM178 455q38 -1 62 23.5t24 70.5t-24 70.5t-62 24.5
q-39 0 -63.5 -24.5t-24.5 -70.5t24.5 -70t63.5 -24zM563 -7q-33 0 -61.5 11t-49.5 32t-32.5 50t-11.5 64q0 36 11.5 65t32.5 49.5t49.5 32t61.5 11.5t61.5 -11.5t49.5 -32t32.5 -49.5t11.5 -65q0 -35 -11.5 -64t-32.5 -49.5t-49.5 -32t-61.5 -11.5zM928 -7q-33 0 -61.5 11
t-49 32t-32 50t-11.5 64q0 36 11.5 65t32 49.5t49 32t61.5 11.5t61.5 -11.5t49.5 -32t32.5 -49.5t11.5 -65q0 -35 -11.5 -64t-32.5 -49.5t-49.5 -32t-61.5 -11.5zM563 56q39 0 63 24t24 70t-24 70.5t-63 24.5t-63 -24.5t-24 -70.5t24 -69.5t63 -24.5zM929 56q38 0 62 24
t24 70t-24 70.5t-62 24.5q-39 0 -63 -24.5t-24 -70.5t24 -69.5t63 -24.5z" />
    <glyph glyph-name="guilsinglleft" unicode="&#x2039;" horiz-adv-x="345" 
d="M48 257l149 238h99l-149 -238l149 -238h-99z" />
    <glyph glyph-name="guilsinglright" unicode="&#x203a;" horiz-adv-x="345" 
d="M48 19l149 238l-149 238h99l149 -238l-149 -238h-99z" />
    <glyph glyph-name="fraction" unicode="&#x2044;" horiz-adv-x="267" 
d="M-152 52l522 637l48 -40l-521 -638z" />
    <glyph glyph-name="four.sups" unicode="&#x2074;" horiz-adv-x="347" 
d="M317 499h-54v-84h-62v84h-176v55l175 261h63v-261h54v-55zM201 554v169l-110 -169h110z" />
    <glyph glyph-name="Euro" unicode="&#x20ac;" horiz-adv-x="732" 
d="M706 203q-35 -109 -103.5 -161t-177.5 -52q-57 0 -105.5 16t-87.5 47t-66.5 77.5t-40.5 106.5h-93v81h83q-1 8 -1 16v16v14.5t1 13.5h-83v82h93q13 61 41 108t67 78.5t88 47.5t104 16q107 0 172.5 -52.5t83.5 -174.5l-89 -19q-14 83 -56 120t-111 37q-34 0 -65 -9.5
t-57.5 -29.5t-46.5 -50.5t-32 -71.5h258v-82h-271q-1 -7 -1 -13.5v-14.5v-16t1 -16h271v-81h-258q23 -81 77.5 -119.5t123.5 -38.5q74 0 120.5 34t69.5 110z" />
    <glyph glyph-name="litre" unicode="&#x2113;" horiz-adv-x="597" 
d="M331 76q39 0 67.5 28t38.5 84l83 -18q-19 -92 -70 -135t-118 -43q-83 0 -131.5 48t-64.5 133q-46 -14 -94 -24l-18 78q28 5 54 11.5t51 14.5v4q0 96 23.5 179t63 144t91.5 95.5t109 34.5q66 0 98 -37.5t32 -97.5q0 -128 -85.5 -221.5t-238.5 -151.5q11 -72 40.5 -99
t68.5 -27zM407 628q-28 0 -60.5 -22.5t-61 -66.5t-48 -108t-20.5 -146q113 48 178 118.5t65 158.5q0 31 -12.5 48.5t-40.5 17.5z" />
    <glyph glyph-name="trademark" unicode="&#x2122;" horiz-adv-x="805" 
d="M302 639h-113v-336h-64v336h-113v61h290v-61zM748 700v-397h-60v295l-107 -237h-55l-108 237v-295h-60v397h81l114 -262l114 262h81z" />
    <glyph glyph-name="Ohm" unicode="&#x2126;" horiz-adv-x="743" 
d="M30 82h177q-72 51 -116 131.5t-44 176.5q0 74 24.5 133.5t67.5 101t102 63.5t129 22t128.5 -22t101.5 -63.5t67 -101t24 -133.5q0 -48 -11.5 -92.5t-32 -84t-50 -73t-65.5 -58.5h180v-82h-291v82q36 18 67 48.5t54.5 70.5t37 87t13.5 98q0 56 -17 100t-46.5 74.5
t-70.5 46.5t-89 16t-89 -16t-71 -46.5t-47 -74.5t-17 -100q0 -51 13.5 -98.5t37 -87t55.5 -70t68 -48.5v-82h-290v82z" />
    <glyph glyph-name="estimated" unicode="&#x212e;" horiz-adv-x="790" 
d="M214 98q39 -32 88 -47.5t105 -15.5q54 0 98 13t78 35t57 52t36 65l46 -10q-37 -95 -117.5 -147.5t-197.5 -52.5q-72 0 -135.5 23t-111 68.5t-75 113t-27.5 155.5t27.5 155.5t75 113t111 68.5t135.5 23q63 0 122 -18t104 -54.5t72 -91.5t27 -129q0 -27 -2.5 -47.5
t-4.5 -37.5h-511v-234zM594 607q-37 29 -85 43.5t-102 14.5q-56 0 -105 -15.5t-88 -47.5v-226h380v231z" />
    <glyph glyph-name="onethird" unicode="&#x2153;" horiz-adv-x="816" 
d="M84 624l-63 -16v51l80 41h47v-400h-64v324zM58 52l522 637l48 -40l-521 -638zM645 -5q-48 0 -84 21t-57 64l50 32q17 -32 40 -44.5t51 -12.5q32 0 50.5 16.5t18.5 44.5q0 30 -18.5 46t-62.5 16h-30v56h26q71 0 71 60q0 26 -16 39.5t-42 13.5q-23 0 -42.5 -12t-33.5 -42
l-48 32q18 42 51.5 61.5t74.5 19.5q56 0 87.5 -27.5t31.5 -75.5q0 -32 -15.5 -55.5t-38.5 -35.5q32 -11 51.5 -33.5t19.5 -62.5q0 -27 -10 -49t-27.5 -38t-42.5 -25t-55 -9z" />
    <glyph glyph-name="partialdiff" unicode="&#x2202;" horiz-adv-x="581" 
d="M270 -10q-53 0 -95 17.5t-71.5 48t-45.5 71.5t-16 88q0 59 18.5 103.5t50 74.5t72.5 45.5t86 15.5q63 0 108 -27.5t65 -76.5l1 32q0 64 -12 110t-32.5 74.5t-48.5 42t-62 13.5q-78 0 -128 -76l-67 53q43 61 93 86t105 25t99.5 -21t76.5 -60.5t49.5 -98t17.5 -133.5
q0 -113 -21 -190.5t-57 -125.5t-84 -69.5t-102 -21.5zM272 79q30 0 56 11t45.5 31t31 47.5t11.5 61.5q0 37 -11 63.5t-30 43t-43.5 24t-52.5 7.5q-30 0 -56 -10t-45 -29.5t-30 -47t-11 -63.5q0 -66 37 -102.5t98 -36.5z" />
    <glyph glyph-name="Delta" unicode="&#x2206;" horiz-adv-x="625" 
d="M38 81l222 619h105l222 -619v-81h-549v81zM490 87l-177 506l-178 -506h355z" />
    <glyph glyph-name="product" unicode="&#x220f;" horiz-adv-x="648" 
d="M81 700h487v-815h-94v727h-299v-727h-94v815z" />
    <glyph glyph-name="summation" unicode="&#x2211;" horiz-adv-x="581" 
d="M65 -33l218 326l-218 325v82h454v-86h-343l213 -321l-213 -322h343v-86h-454v82z" />
    <glyph glyph-name="minus" unicode="&#x2212;" horiz-adv-x="521" 
d="M55 375h411v-82h-411v82z" />
    <glyph glyph-name="slashmath" unicode="&#x2215;" horiz-adv-x="463" 
d="M355 750h89l-337 -800h-89z" />
    <glyph glyph-name="bulletmath" unicode="&#x2219;" horiz-adv-x="332" 
d="M166 276q-41 0 -66.5 24t-25.5 62t25.5 62.5t66.5 24.5t66.5 -24.5t25.5 -62.5t-25.5 -62t-66.5 -24z" />
    <glyph glyph-name="radical" unicode="&#x221a;" horiz-adv-x="604" 
d="M597 700l-256 -700h-102l-118 322h-103v81h170l102 -297l208 594h99z" />
    <glyph glyph-name="infinity" unicode="&#x221e;" horiz-adv-x="755" 
d="M538 492q35 0 66.5 -11.5t55.5 -34t38.5 -56t14.5 -78.5t-15 -78.5t-40 -56t-57.5 -34t-66.5 -11.5q-48 0 -89 19t-73 64q-24 -35 -61.5 -59t-92.5 -24q-35 0 -67 11.5t-56 34t-38 56t-14 78.5t15 78.5t39.5 56t57 34t67.5 11.5q48 0 89 -19.5t73 -64.5q24 36 61.5 60
t92.5 24zM220 207q27 0 47 10.5t35 28t25.5 41t18.5 49.5q-22 41 -53.5 61t-66.5 20q-21 0 -39.5 -7t-32.5 -20t-22 -33t-8 -45q0 -51 28.5 -78t67.5 -27zM530 207q21 0 39.5 7t32.5 20t22 32.5t8 45.5q0 25 -8 45t-21 33t-30.5 20t-36.5 7q-28 0 -48 -10.5t-35 -28
t-25.5 -41t-18.5 -49.5q23 -41 54.5 -61t66.5 -20z" />
    <glyph glyph-name="integral" unicode="&#x222b;" horiz-adv-x="527" 
d="M92 -175q-40 0 -73.5 12.5t-59.5 32.5l39 67q20 -17 41.5 -24t41.5 -7q18 0 32.5 4.5t26.5 17t20 34t12 56.5l55 509q6 53 21 89t37.5 57.5t51 31t62.5 9.5q41 0 74 -12.5t59 -32.5l-38 -67q-20 17 -41.5 24t-41.5 7q-18 0 -33 -4.5t-26.5 -17t-19.5 -34.5t-12 -56
l-56 -509q-6 -53 -20.5 -89t-37 -57.5t-51.5 -31t-63 -9.5z" />
    <glyph glyph-name="approxequal" unicode="&#x2248;" horiz-adv-x="457" 
d="M306 379q-21 0 -41.5 7.5t-39.5 16.5t-36.5 16.5t-32.5 7.5q-43 0 -73 -51l-59 52q26 38 57 60.5t70 22.5q22 0 42.5 -7.5t39 -16.5t36 -16.5t32.5 -7.5q43 0 73 52l59 -53q-26 -38 -56.5 -60.5t-70.5 -22.5zM306 154q-21 0 -41.5 7.5t-39.5 16.5t-36.5 16.5t-32.5 7.5
q-43 0 -73 -52l-59 53q26 38 57 60.5t70 22.5q22 0 42.5 -7.5t39 -16.5t36 -16.5t32.5 -7.5q43 0 73 51l59 -52q-26 -38 -56.5 -60.5t-70.5 -22.5z" />
    <glyph glyph-name="notequal" unicode="&#x2260;" horiz-adv-x="521" 
d="M327 403l-51 -139h190v-82h-219l-49 -133h-84l49 133h-108v82h137l51 139h-188v83h218l49 133h84l-49 -133h109v-83h-139z" />
    <glyph glyph-name="lessequal" unicode="&#x2264;" horiz-adv-x="525" 
d="M64 368v83l391 191v-98l-291 -134l291 -135v-98zM55 82h411v-82h-411v82z" />
    <glyph glyph-name="greaterequal" unicode="&#x2265;" horiz-adv-x="525" 
d="M70 275l291 135l-291 134v98l391 -191v-83l-391 -191v98zM59 0v82h411v-82h-411z" />
    <glyph glyph-name="lozenge" unicode="&#x25ca;" horiz-adv-x="541" 
d="M522 350l-200 -350h-102l-201 350l201 350h102zM425 350l-154 265l-155 -265l155 -265z" />
    <glyph glyph-name="f_i" horiz-adv-x="615" 
d="M107 515q-1 57 10.5 95t33 61t51 33t64.5 10q31 0 60 -7.5t49 -19.5l-28 -74q-17 10 -33 15t-35 5q-17 0 -32.5 -5t-26.5 -18t-17 -36t-4 -59h137v-82h-137v-433h-92v433h-90v82h90zM495 587q-26 0 -43 16t-17 41q0 26 17 42t43 16q27 0 44 -16t17 -42q0 -25 -17 -41
t-44 -16zM449 515h93v-515h-93v515z" />
    <glyph glyph-name="f_j" horiz-adv-x="612" 
d="M279 633q-17 0 -32.5 -5t-26.5 -18t-17 -36t-4 -59h137v-82h-137v-433h-92v433h-90v82h90q-1 57 10.5 95t33 61t51 33t64.5 10q31 0 60 -7.5t49 -19.5l-28 -74q-17 10 -33 15t-35 5zM495 587q-26 0 -43 16t-17 41q0 26 17 42t43 16q27 0 44 -16t17 -42q0 -25 -17 -41
t-44 -16zM449 515h93v-407q0 -55 -7.5 -94.5t-23 -71t-40.5 -59t-61 -58.5l-47 63q19 19 35 39.5t27.5 44.5t17.5 53.5t6 67.5v422z" />
    <glyph glyph-name="f_l" horiz-adv-x="628" 
d="M107 515q-1 57 10.5 95t33.5 61t52 33t66 10q42 0 76 -13t60 -35l-39 -67q-39 34 -86 34q-18 0 -33.5 -5t-27 -18t-17 -36t-3.5 -59h142v-82h-142v-433h-92v433h-90v82h90zM557 700v-700h-93v700h93z" />
    <glyph glyph-name="two.dnom" horiz-adv-x="317" 
d="M34 54l81 94q15 17 32 35.5t31 37t23.5 37.5t9.5 37q0 23 -13.5 36.5t-39.5 13.5q-27 0 -46.5 -19t-26.5 -61l-51 33q10 48 43 78t85 30q55 0 84.5 -30t29.5 -76q0 -40 -20.5 -74t-57.5 -76l-78 -89h166v-61h-252v54z" />
    <glyph glyph-name="three.dnom" horiz-adv-x="339" 
d="M168 -5q-48 0 -84 21t-57 64l50 32q17 -32 40 -44.5t51 -12.5q32 0 50.5 16.5t18.5 44.5q0 30 -18.5 46t-62.5 16h-30v56h26q71 0 71 60q0 26 -16 39.5t-42 13.5q-23 0 -42.5 -12t-33.5 -42l-48 32q18 42 51.5 61.5t74.5 19.5q56 0 87.5 -27.5t31.5 -75.5
q0 -32 -15.5 -55.5t-38.5 -35.5q32 -11 51.5 -33.5t19.5 -62.5q0 -27 -10 -49t-27.5 -38t-42.5 -25t-55 -9z" />
    <glyph glyph-name="four.dnom" horiz-adv-x="347" 
d="M317 84h-54v-84h-62v84h-176v55l175 261h63v-261h54v-55zM201 139v169l-110 -169h110z" />
    <glyph glyph-name="one.numr" horiz-adv-x="210" 
d="M84 624l-63 -16v51l80 41h47v-400h-64v324z" />
    <glyph glyph-name="two.numr" horiz-adv-x="317" 
d="M34 353l81 94q15 17 32 35.5t31 37t23.5 37.5t9.5 37q0 23 -13.5 36.5t-39.5 13.5q-27 0 -46.5 -19t-26.5 -61l-51 33q10 48 43 78t85 30q55 0 84.5 -30t29.5 -76q0 -40 -20.5 -74t-57.5 -76l-78 -89h166v-61h-252v54z" />
    <glyph glyph-name="three.numr" horiz-adv-x="339" 
d="M168 294q-48 0 -84 21t-57 64l50 32q17 -32 40 -44.5t51 -12.5q32 0 50.5 16.5t18.5 44.5q0 30 -18.5 46t-62.5 16h-30v56h26q71 0 71 60q0 26 -16 39.5t-42 13.5q-23 0 -42.5 -12t-33.5 -42l-48 32q18 42 51.5 61.5t74.5 19.5q56 0 87.5 -27.5t31.5 -75.5
q0 -32 -15.5 -55.5t-38.5 -35.5q32 -11 51.5 -33.5t19.5 -62.5q0 -27 -10 -49t-27.5 -38t-42.5 -25t-55 -9z" />
    <glyph glyph-name="bullet.case" horiz-adv-x="332" 
d="M166 276q-41 0 -66.5 24t-25.5 62t25.5 62.5t66.5 24.5t66.5 -24.5t25.5 -62.5t-25.5 -62t-66.5 -24z" />
    <glyph glyph-name="parenleft.case" horiz-adv-x="396" 
d="M303 -115q-47 40 -87 88t-69 106t-45.5 125.5t-16.5 145.5t16.5 145.5t45.5 125t69 106t87 88.5l54 -52q-39 -41 -72 -84.5t-56.5 -93t-36.5 -107.5t-13 -128q0 -71 13 -128.5t36.5 -107t56.5 -93t72 -84.5l-54 -52v0z" />
    <glyph glyph-name="parenright.case" horiz-adv-x="397" 
d="M39 -63q39 41 72 84.5t57 93t37 107t13 128.5q0 70 -13 128t-37 107.5t-57 93t-72 84.5l55 52q46 -40 86 -88.5t69.5 -106t46 -125t16.5 -145.5t-16.5 -145.5t-46 -125.5t-69.5 -106t-86 -88z" />
    <glyph glyph-name="braceleft.case" horiz-adv-x="438" 
d="M326 -85q-99 0 -142 42.5t-43 139.5v128q0 45 -20 63t-75 18v83q56 0 75.5 18.5t19.5 63.5v127q0 97 42.5 139.5t141.5 42.5h85v-82h-70q-32 0 -53 -5t-33.5 -18t-17.5 -35t-5 -56v-129q0 -49 -18.5 -74t-55.5 -33q37 -8 55.5 -33.5t18.5 -73.5v-130q0 -34 5 -56
t17.5 -35t33.5 -18t53 -5h70v-82h-84v0z" />
    <glyph glyph-name="braceright.case" horiz-adv-x="438" 
d="M28 -85v82h70q32 0 53 5t33.5 18t17.5 35t5 56v130q0 48 18.5 73.5t55.5 33.5q-37 8 -55.5 33t-18.5 74v129q0 34 -5 56t-17.5 35t-33.5 18t-53 5h-70v82h85q99 0 141.5 -42.5t42.5 -139.5v-127q0 -45 19.5 -63.5t75.5 -18.5v-83q-55 0 -75 -18t-20 -63v-128
q0 -97 -43 -139.5t-142 -42.5h-84z" />
    <glyph glyph-name="bracketleft.case" horiz-adv-x="395" 
d="M81 780h285v-82h-195v-701h195v-82h-285v865z" />
    <glyph glyph-name="bracketright.case" horiz-adv-x="395" 
d="M30 -85v82h194v701h-194v82h284v-865h-284z" />
    <glyph glyph-name="hyphen.case" horiz-adv-x="452" 
d="M55 403h342v-82h-342v82z" />
    <glyph glyph-name="uni00AD.case" horiz-adv-x="452" 
d="M55 403h342v-82h-342v82z" />
    <glyph glyph-name="endash.case" horiz-adv-x="588" 
d="M55 403h478v-82h-478v82z" />
    <glyph glyph-name="emdash.case" horiz-adv-x="822" 
d="M55 403h712v-82h-712v82z" />
    <glyph glyph-name="at.case" horiz-adv-x="881" 
d="M423 -44q-72 0 -138.5 22.5t-117.5 70t-82 120t-31 173.5q0 97 30.5 170t83.5 121.5t124.5 72.5t152.5 24q84 0 154.5 -23.5t121.5 -69.5t79 -115.5t28 -160.5q0 -61 -12 -105.5t-33 -74t-49.5 -44t-61.5 -14.5q-47 0 -75 22t-41 65q-24 -46 -60 -66.5t-84 -20.5
q-34 0 -64.5 14t-53.5 41t-36.5 67t-13.5 91t13.5 90.5t36.5 66.5t55 41t69 14q42 0 74 -17.5t52 -56.5l10 66h70v-262q0 -48 13 -66.5t40 -18.5q32 0 53 38.5t21 129.5q0 141 -77 218.5t-229 77.5q-74 0 -132 -21t-98.5 -61.5t-62 -99t-21.5 -133.5t21.5 -133t60.5 -98.5
t92.5 -61.5t117.5 -21q50 0 92 10.5t74 29.5l32 -64q-45 -25 -93 -36.5t-105 -11.5zM434 200q30 0 51.5 11t34.5 29.5t19 43.5t6 52q0 66 -26.5 101t-83.5 35q-52 0 -79 -36.5t-27 -99.5t26.5 -99.5t78.5 -36.5z" />
    <glyph glyph-name="uni0308.case" horiz-adv-x="0" 
d="M-232 775q-25 0 -41 15t-16 39q0 23 16 38.5t41 15.5q26 0 41.5 -15.5t15.5 -38.5q0 -24 -15.5 -39t-41.5 -15zM-57 775q-25 0 -41 15t-16 39q0 23 16 38.5t41 15.5q26 0 41.5 -15.5t15.5 -38.5q0 -24 -15.5 -39t-41.5 -15z" />
    <glyph glyph-name="gravecomb.case" horiz-adv-x="0" 
d="M-180 885h116l64 -127h-86z" />
    <glyph glyph-name="acutecomb.case" horiz-adv-x="0" 
d="M-116 885h116l-94 -127h-86z" />
    <glyph glyph-name="uni0302.case" horiz-adv-x="0" 
d="M-197 885h111l86 -127h-87l-55 62l-55 -62h-87z" />
    <glyph glyph-name="uni030C.case" horiz-adv-x="0" 
d="M-197 885l55 -62l55 62h87l-86 -127h-111l-87 127h87z" />
    <glyph glyph-name="uni030A.case" horiz-adv-x="0" 
d="M-90 743q-39 0 -64.5 23t-25.5 63q0 41 25.5 63.5t64.5 22.5q38 0 64 -22.5t26 -63.5q0 -40 -26 -63t-64 -23zM-90 797q13 0 22 8t9 24t-9 23.5t-22 7.5q-14 0 -22.5 -7.5t-8.5 -23.5t8.5 -24t22.5 -8z" />
    <glyph glyph-name="tildecomb.case" horiz-adv-x="0" 
d="M-341 815q22 35 48 54.5t60 19.5q20 0 37 -6.5t32 -14t28 -13.5t26 -6q16 0 28 10.5t26 33.5l56 -50q-23 -37 -48.5 -55.5t-58.5 -18.5q-19 0 -35.5 6t-31.5 13.5t-29 14t-27 6.5q-17 0 -29 -10t-26 -34z" />
    <glyph glyph-name="uni0337.case" horiz-adv-x="0" 
d="M-349 272l349 202v-90l-349 -203v91z" />
    <glyph glyph-name="uni0338.case" horiz-adv-x="0" 
d="M-506 9l434 721l72 -39l-434 -721z" />
    </font>
</defs>
</svg>
