<?xml version="1.0" standalone="no"?>
<!DOCTYPE svg PUBLIC "-//W3C//DTD SVG 1.1//EN" "http://www.w3.org/Graphics/SVG/1.1/DTD/svg11.dtd" >
<svg xmlns="http://www.w3.org/2000/svg">
<metadata>Generated by IcoMoon</metadata>
<defs>
<font id="icomoon" horiz-adv-x="1024">
<font-face units-per-em="1024" ascent="870.850439882698" descent="-153.14956011730206" />
<missing-glyph horiz-adv-x="1024" />
<glyph unicode="&#x20;" d="" />
<glyph unicode="&#xe800;" glyph-name="back" d="M818.976-142.407c22.55 27.675 17.425 68.675-11.275 90.2l-511.475 397.7 511.475 397.7c28.7 21.525 33.825 62.525 11.275 90.2-21.525 27.675-61.5 32.8-89.175 11.275l-641.651-499.175 641.651-499.175c27.675-21.525 67.65-16.4 89.175 11.275z" />
<glyph unicode="&#xe801;" glyph-name="user" d="M512.5 260.077c-235.872 0-427.084-162.531-427.084-363.022 0-10.028 0.478-19.961 1.417-29.785 1.922-20.12 19.688-34.277 39.901-34.277h771.533c20.21 0 37.976 14.158 39.898 34.277 0.94 9.823 1.418 19.757 1.418 29.785 0 200.49-191.214 363.022-427.084 363.022zM768.751 601.744c0-141.523-114.727-256.25-256.25-256.25s-256.25 114.727-256.25 256.25c0 141.523 114.727 256.25 256.25 256.25s256.25-114.727 256.25-256.25z" />
<glyph unicode="&#xe802;" glyph-name="down" d="M1000.401 651.969c-27.675 22.55-68.675 17.425-90.2-11.275l-397.7-511.475-397.7 511.475c-21.525 28.7-62.525 33.825-90.2 11.275-27.675-21.525-32.8-61.5-11.275-89.175l499.175-641.651 499.175 641.651c21.525 27.675 16.4 67.65-11.275 89.175z" />
<glyph unicode="&#xe803;" glyph-name="next" d="M206.025 833.394c-21.525-27.675-17.425-68.675 11.275-90.2l511.475-397.7-511.475-397.7c-28.7-21.525-32.8-62.525-11.275-90.2s61.5-32.8 89.175-11.275l641.651 499.175-641.651 499.175c-27.675 21.525-67.65 16.4-89.175-11.275z" />
<glyph unicode="&#xe804;" glyph-name="up" d="M24.6 39.018c27.675-21.525 68.675-17.425 90.2 11.275l397.7 511.475 397.7-511.475c21.525-28.7 62.525-32.8 90.2-11.275s32.8 61.5 11.275 89.175l-499.175 641.651-499.175-641.651c-21.525-27.675-16.4-67.65 11.275-89.175z" />
<glyph unicode="&#xe805;" glyph-name="calendar" d="M928.651 729.869h-159.9v96.35c0 19.475-12.3 31.775-31.775 31.775s-31.775-12.3-31.775-31.775v-96.35h-384.375v96.35c0 19.475-13.325 31.775-32.8 31.775s-31.775-12.3-31.775-31.775v-96.35h-159.9c-51.25 0-96.35-45.1-96.35-96.35v-704.176c0-51.25 45.1-96.35 96.35-96.35h832.301c51.25 0 96.35 45.1 96.35 96.35v704.176c0 51.25-45.1 96.35-96.35 96.35zM961.451-70.657c0-19.475-13.325-32.8-32.8-32.8h-832.301c-19.475 0-31.775 13.325-31.775 32.8v544.276h896.876v-544.276zM961.451 538.194h-896.876v95.325c0 19.475 12.3 32.8 31.775 32.8h832.301c19.475 0 32.8-13.325 32.8-32.8v-95.325zM159.9 153.818h160.925v-160.925c0-19.475 12.3-31.775 31.775-31.775s31.775 12.3 31.775 31.775v160.925h256.25v-160.925c0-19.475 13.325-31.775 31.775-31.775s32.8 12.3 32.8 31.775v160.925h159.9c19.475 0 31.775 12.3 31.775 31.775s-12.3 31.775-31.775 31.775h-159.9v159.9c0 19.475-13.325 32.8-32.8 32.8s-31.775-13.325-31.775-32.8v-159.9h-256.25v159.9c0 19.475-12.3 32.8-31.775 32.8s-31.775-13.325-31.775-32.8v-159.9h-160.925c-18.45 0-31.775-12.3-31.775-31.775s13.325-31.775 31.775-31.775z" />
<glyph unicode="&#xe806;" glyph-name="cart" d="M990.151-19.407l-67.65 527.876c-9.225 67.65-63.55 115.825-131.2 115.825h-48.175c0 153.75-118.9 233.7-230.625 233.7s-230.625-79.95-230.625-230.625h-48.175c-66.625 0-121.975-51.25-131.2-114.8l-67.65-531.976c-3.075-38.95 7.175-76.875 32.8-102.5 25.625-28.7 60.475-45.1 99.425-45.1h691.876c37.925 0 72.775 16.4 98.4 45.1s38.95 66.625 32.8 102.5zM512.5 790.344c83.025 0 167.075-57.4 167.075-166.050h-333.125c0 111.725 83.025 166.050 166.050 166.050zM910.201-77.832c-13.325-15.375-29.725-21.525-48.175-21.525h-694.951c-19.475 0-38.95 6.15-48.175 21.525-13.325 16.4-19.475 32.8-16.4 51.25l67.65 528.901c3.075 31.775 31.775 57.4 63.55 57.4h48.175v-98.4c0-19.475 16.4-32.8 31.775-32.8 19.475 0 32.8 16.4 32.8 32.8v98.4h329.025v-98.4c0-19.475 16.4-32.8 32.8-32.8 18.45 0 31.775 16.4 31.775 32.8v98.4h48.175c31.775 0 60.475-25.625 63.55-57.4l67.65-528.901c6.15-18.45 3.075-37.925-9.225-51.25z" />
<glyph unicode="&#xe807;" glyph-name="close" d="M884.576 33.893c16.4-17.425 16.4-43.050 0-60.475-17.425-16.4-43.050-16.4-60.475 0l-311.6 312.625-311.6-312.625c-17.425-16.4-43.050-16.4-59.45 0-17.425 17.425-17.425 43.050 0 60.475l311.6 311.6-311.6 311.6c-17.425 17.425-17.425 43.050 0 60.475 16.4 16.4 42.025 16.4 59.45 0l311.6-312.625 311.6 312.625c17.425 16.4 43.050 16.4 60.475 0 16.4-17.425 16.4-43.050 0-60.475l-312.625-311.6 312.625-311.6z" />
<glyph unicode="&#xe808;" glyph-name="edit" d="M683.676 802.644c16.4 17.425 42.025 17.425 59.45 0l183.475-183.475c17.425-17.425 17.425-43.050 0-60.475l-426.4-426.4c-9.225-9.225-17.425-13.325-25.625-13.325l-214.225-29.725c-12.3 0-25.625 4.1-33.825 13.325-8.2 8.2-13.325 20.5-13.325 33.825l30.75 213.2c0 9.225 4.1 17.425 12.3 25.625l427.425 427.425zM329.025 323.969l-21.525-144.525 145.55 20.5 388.475 389.5-124.025 123-388.475-388.475zM85.075-38.882c0 25.625 17.425 43.050 43.050 43.050h768.751c25.625 0 43.050-17.425 43.050-43.050s-17.425-43.050-43.050-43.050h-768.751c-25.625 0-43.050 17.425-43.050 43.050z" />
<glyph unicode="&#xe80a;" glyph-name="check" d="M932.751 783.169c28.7-19.475 36.9-59.45 17.425-89.175l-512.5-768.751c-10.25-15.375-27.675-25.625-47.15-27.675-18.45-2.050-37.925 5.125-51.25 18.45l-256.25 256.25c-25.625 24.6-25.625 65.6 0 90.2 24.6 25.625 65.6 25.625 90.2 0l200.9-200.9 469.45 704.176c19.475 28.7 59.45 36.9 89.175 17.425z" />
<glyph unicode="&#xe900;" glyph-name="map-pin" d="M512.5 740.546c-81.885 0-160.567-33.261-218.693-92.709-58.15-59.471-90.943-140.283-90.943-224.691 0-123.286 78.211-241.742 162.3-332.519 41.432-44.729 82.969-81.316 114.177-106.732 13.223-10.767 24.545-19.492 33.158-25.945 8.614 6.453 19.936 15.179 33.158 25.945 31.207 25.416 72.745 62.004 114.177 106.732 84.088 90.777 162.3 209.232 162.3 332.519 0 84.408-32.791 165.219-90.943 224.691-58.126 59.447-136.808 92.709-218.693 92.709zM512.5-81.59c-18.045-26.467-18.053-26.458-18.062-26.454l-0.102 0.068-0.243 0.166-0.846 0.59c-0.726 0.503-1.764 1.23-3.101 2.174-2.665 1.888-6.508 4.647-11.36 8.23-9.699 7.166-23.447 17.634-39.898 31.036-32.854 26.752-76.735 65.391-120.72 112.874-86.745 93.642-179.366 227.554-179.366 376.051 0 100.941 39.2 197.888 109.201 269.479 70.023 71.615 165.151 111.984 264.497 111.984 99.348 0 194.473-40.368 264.497-111.984 69.999-71.591 109.201-168.539 109.201-269.479 0-148.497-92.621-282.409-179.366-376.051-43.985-47.483-87.864-86.121-120.72-112.874-16.451-13.402-30.199-23.869-39.898-31.036-4.852-3.583-8.695-6.342-11.36-8.23-1.336-0.944-2.374-1.67-3.101-2.174l-0.846-0.59-0.243-0.166-0.102-0.068c-0.009-0.004-0.017-0.013-18.062 26.454zM512.5-81.59l18.045-26.467c-10.887-7.418-25.203-7.418-36.088 0l18.045 26.467zM512.5 527.004c-53.070 0-96.094-43.023-96.094-96.094s43.024-96.094 96.094-96.094 96.094 43.024 96.094 96.094c0 53.071-43.024 96.094-96.094 96.094zM352.344 430.91c0 88.452 71.704 160.156 160.156 160.156s160.156-71.704 160.156-160.156c0-88.453-71.703-160.156-160.156-160.156s-160.156 71.703-160.156 160.156z" />
<glyph unicode="&#xe901;" glyph-name="toggle-full-screen" d="M170.834 687.16v-213.542h71.181v142.361h142.361v71.181h-213.542zM597.917 687.16v-71.181h142.36v-142.361h71.183v213.542h-213.542zM740.277 117.717h-142.36v-71.183h213.542v213.542h-71.183v-142.36zM242.014 260.077h-71.181v-213.542h213.542v71.183h-142.361v142.36z" />
<glyph unicode="&#xe902;" glyph-name="search" d="M768.751 409.556c0-176.903-143.41-320.313-320.313-320.313s-320.313 143.41-320.313 320.313c0 176.904 143.409 320.313 320.313 320.313s320.313-143.409 320.313-320.313zM448.438 153.306c141.524 0 256.25 114.726 256.25 256.25s-114.726 256.25-256.25 256.25c-141.523 0-256.25-114.727-256.25-256.25s114.727-256.25 256.25-256.25zM650.008 207.986c12.508 12.508 32.79 12.508 45.298 0l192.188-192.188c12.508-12.508 12.508-32.79 0-45.298s-32.79-12.508-45.298 0l-192.188 192.188c-12.508 12.508-12.508 32.79 0 45.298z" />
<glyph unicode="&#xe903;" glyph-name="long-arrow-right" d="M42.709 345.494c0 23.588 19.122 42.709 42.709 42.709h854.167c23.588 0 42.709-19.121 42.709-42.709s-19.121-42.709-42.709-42.709h-854.167c-23.587 0-42.709 19.121-42.709 42.709zM738.551 546.527c-16.677-16.679-16.677-43.72 0-60.399l140.634-140.634-140.634-140.634c-16.677-16.677-16.677-43.721 0-60.398s43.721-16.677 60.398 0l201.032 201.032-201.032 201.033c-16.677 16.678-43.721 16.678-60.398 0z" />
<glyph unicode="&#xe904;" glyph-name="uniE904" d="M896.876 345.494c0-212.284-172.091-384.375-384.375-384.375s-384.375 172.091-384.375 384.375c0 212.284 172.091 384.375 384.375 384.375s384.375-172.091 384.375-384.375z" />
<glyph unicode="&#xe905;" glyph-name="uniE905" d="M512.5 25.181c-176.904 0-320.313 143.41-320.313 320.313s143.409 320.313 320.313 320.313c176.903 0 320.313-143.409 320.313-320.313s-143.41-320.313-320.313-320.313zM512.5-38.882c212.284 0 384.375 172.091 384.375 384.375s-172.091 384.375-384.375 384.375c-212.284 0-384.375-172.091-384.375-384.375s172.091-384.375 384.375-384.375z" />
<glyph unicode="&#xe906;" glyph-name="uniE906" d="M704.688 345.494c0-106.142-86.046-192.188-192.188-192.188s-192.188 86.046-192.188 192.188c0 106.142 86.046 192.188 192.188 192.188s192.188-86.046 192.188-192.188z" />
<glyph unicode="&#xe907;" glyph-name="minus" d="M0 345.494c0 35.381 28.682 64.063 64.063 64.063h896.876c35.382 0 64.063-28.682 64.063-64.063s-28.681-64.063-64.063-64.063h-896.876c-35.381 0-64.063 28.682-64.063 64.063z" />
<glyph unicode="&#xe908;" glyph-name="plus" d="M512.5 857.994c35.381 0 64.063-28.682 64.063-64.063v-896.876c0-35.382-28.682-64.063-64.063-64.063s-64.063 28.681-64.063 64.063v896.876c0 35.381 28.682 64.063 64.063 64.063zM0 345.494c0 35.381 28.682 64.063 64.063 64.063h896.876c35.382 0 64.063-28.682 64.063-64.063s-28.681-64.063-64.063-64.063h-896.876c-35.381 0-64.063 28.682-64.063 64.063z" />
<glyph unicode="&#xe909;" glyph-name="dropdown-down" d="M563.751 157.579c-25.625-34.171-76.875-34.171-102.5 0l-256.25 341.665c-31.675 42.232-1.541 102.5 51.25 102.5h512.5c52.788 0 82.923-60.268 51.25-102.5l-256.25-341.665z" />
<glyph unicode="&#xe90a;" glyph-name="dropdown-up" d="M461.25 533.41c25.625 34.167 76.875 34.167 102.5 0l256.25-341.667c31.673-42.23 1.538-102.5-51.25-102.5h-512.5c-52.791 0-82.925 60.27-51.25 102.5l256.25 341.667z" />
<glyph unicode="&#xe90b;" glyph-name="hamburger-menu" d="M160.156 601.744c0 17.69 14.341 32.031 32.031 32.031h640.626c17.691 0 32.031-14.341 32.031-32.031s-14.34-32.031-32.031-32.031h-640.626c-17.69 0-32.031 14.341-32.031 32.031zM160.156 345.494c0 17.691 14.341 32.031 32.031 32.031h640.626c17.691 0 32.031-14.34 32.031-32.031s-14.34-32.031-32.031-32.031h-640.626c-17.69 0-32.031 14.34-32.031 32.031zM160.156 89.243c0 17.691 14.341 32.031 32.031 32.031h640.626c17.691 0 32.031-14.34 32.031-32.031s-14.34-32.031-32.031-32.031h-640.626c-17.69 0-32.031 14.34-32.031 32.031z" />
<glyph unicode="&#xe90c;" glyph-name="stopwatch" d="M626.907 578.987c-36.272 15.024-75.145 22.757-114.407 22.757v-298.959h298.959c0 39.261-7.735 78.135-22.755 114.407-15.025 36.27-37.045 69.228-64.81 96.989-27.76 27.761-60.714 49.782-96.987 64.806zM469.792 727.76v44.818h-85.416c-23.587 0-42.709 19.122-42.709 42.709s19.122 42.709 42.709 42.709h256.25c23.588 0 42.709-19.122 42.709-42.709s-19.121-42.709-42.709-42.709h-85.416v-44.818c215.818-21.428 384.375-203.517 384.375-424.975 0-235.869-191.214-427.084-427.084-427.084-235.872 0-427.084 191.214-427.084 427.084 0 221.458 168.557 403.547 384.375 424.975zM512.5-38.882c188.698 0 341.667 152.968 341.667 341.667s-152.968 341.667-341.667 341.667c-188.697 0-341.667-152.969-341.667-341.667s152.969-341.667 341.667-341.667zM935.617 623.404c16.677-16.679 16.677-43.72 0-60.399-16.682-16.678-43.721-16.678-60.402 0l-93.954 93.957c-16.677 16.679-16.677 43.72 0 60.399s43.721 16.678 60.398 0l93.959-93.957z" />
<glyph unicode="&#xe90d;" glyph-name="phone" d="M939.58 135.368v-128.125c0.051-11.895-2.387-23.665-7.154-34.564-4.762-10.9-11.753-20.683-20.517-28.721-8.764-8.042-19.112-14.167-30.379-17.976s-23.208-5.223-35.055-4.155c-131.418 14.282-257.66 59.19-368.573 131.115-103.19 65.574-190.677 153.062-256.249 256.25-72.178 111.418-117.095 238.272-131.115 370.283-1.067 11.811 0.336 23.713 4.121 34.951s9.869 21.565 17.863 30.323c7.995 8.759 17.725 15.756 28.573 20.547s22.573 7.271 34.432 7.283h128.125c20.727 0.204 40.82-7.136 56.535-20.651s25.98-32.284 28.881-52.808c5.408-41.003 15.437-81.262 29.896-120.010 5.747-15.287 6.99-31.9 3.583-47.872s-11.319-30.632-22.802-42.243l-54.24-54.239c60.798-106.921 149.329-195.452 256.249-256.251l54.24 54.24c11.612 11.484 26.275 19.398 42.247 22.802 15.969 3.408 32.582 2.165 47.868-3.583 38.749-14.457 79.010-24.489 120.010-29.896 20.747-2.926 39.693-13.376 53.24-29.362 13.543-15.986 20.739-36.392 20.218-57.336z" />
<glyph unicode="&#xe90e;" glyph-name="scooter" horiz-adv-x="1281" d="M807 693.544h-118.793c-17.732 0-32.104-14.372-32.104-32.101s14.371-32.101 32.104-32.101h54.124l114.146-259.028c22.14-50.234 11.040-108.915-27.918-147.591l-72.792-57.81c-22.661-17.998-50.747-27.794-79.685-27.794h-63.499l-21.555 192.61c68.982 85.605 28.743 143.895 0 143.895h-409.985c-23.587 0-42.709-19.122-42.709-42.709v-79.785l-86.040-154.044c-6.37-11.407-11.709-23.502-14.328-36.302-20.909-102.184 52.883-114.245 100.368-114.245h720.689c19.992 0 37.007 14.043 43.259 33.035 41.871 127.254 142.428 162.932 242.075 143.15 88.855-17.643 89.812-64.374 115.791-44.276 14.67 11.352 14.423 33.684 1.815 47.287-72.070 77.729-186.897 74.222-239.393 61.193l-150.897 342.416c86.224-17.121 107.783 7.134 107.783 21.401v85.699c0 23.587-19.112 42.709-42.7 42.709h-65.084c-51.737 0-64.673-57.070-64.673-85.605zM1110.417-81.59c-47.176 0-85.416 38.241-85.416 85.416s38.241 85.416 85.416 85.416c47.176 0 85.416-38.241 85.416-85.416s-38.241-85.416-85.416-85.416zM1110.417-167.007c94.351 0 170.834 76.487 170.834 170.834s-76.482 170.834-170.834 170.834c-94.347 0-170.834-76.487-170.834-170.834s76.487-170.834 170.834-170.834zM0 815.285c0 23.587 19.122 42.709 42.709 42.709h341.667c23.587 0 42.709-19.122 42.709-42.709v-256.25c0-23.587-19.122-42.709-42.709-42.709h-341.667c-23.587 0-42.709 19.122-42.709 42.709v256.25zM129.3 3.831c10.622-96.094 92.090-170.834 191.015-170.834s180.394 74.74 191.016 170.834h-86.38c-9.893-48.739-52.98-85.416-104.635-85.416s-94.743 36.678-104.635 85.416h-86.379z" />
<glyph unicode="&#xe90f;" glyph-name="basket" d="M304.791 729.869c-19.349 0-36.28-13.008-41.266-31.704l-51.425-192.842c-6.077-22.791-29.48-36.339-52.271-30.263s-36.339 29.481-30.262 52.271l51.425 192.842c14.957 56.087 65.751 95.112 123.799 95.112h415.418c58.050 0 108.842-39.025 123.803-95.112l51.421-192.842c6.077-22.79-7.469-46.193-30.259-52.271-22.793-6.077-46.193 7.471-52.271 30.263l-51.425 192.842c-4.988 18.696-21.918 31.704-41.269 31.704h-415.418zM0.816 376.645l64.158-469.792c5.779-42.315 41.923-73.86 84.632-73.86h725.785c42.709 0 78.852 31.545 84.631 73.86l64.161 469.792c7.004 51.293-32.864 96.974-84.631 96.974h-854.103c-51.769 0-91.635-45.681-84.631-96.974zM425.010 324.14c24.158 0 43.744-19.121 43.744-42.709v-256.25c0-23.588-19.586-42.709-43.744-42.709s-43.744 19.121-43.744 42.709v256.25c0 23.588 19.585 42.709 43.744 42.709zM643.731 281.431v-256.25c0-23.588-19.586-42.709-43.746-42.709s-43.742 19.121-43.742 42.709v256.25c0 23.588 19.582 42.709 43.742 42.709s43.746-19.121 43.746-42.709zM250.035 324.14c24.159 0 43.744-19.121 43.744-42.709v-256.25c0-23.588-19.585-42.709-43.744-42.709s-43.744 19.121-43.744 42.709v256.25c0 23.588 19.585 42.709 43.744 42.709zM818.703 281.431v-256.25c0-23.588-19.582-42.709-43.742-42.709s-43.742 19.121-43.742 42.709v256.25c0 23.588 19.582 42.709 43.742 42.709s43.742-19.121 43.742-42.709zM427.084 857.994h170.834c47.174 0 85.416-38.242 85.416-85.416s-38.242-85.416-85.416-85.416h-170.834c-47.174 0-85.416 38.242-85.416 85.416s38.242 85.416 85.416 85.416z" />
<glyph unicode="&#xe910;" glyph-name="back-to-top" d="M677.872 231.832l-152.917 152.917-152.917-152.917-70.501 70.004 223.419 223.418 223.418-223.418-70.501-70.004zM524.955-145c-274.060 0-496.485 222.425-496.485 496.485s222.425 496.485 496.485 496.485c274.060 0 496.485-222.425 496.485-496.485s-222.425-496.485-496.485-496.485zM524.955 748.673c-219.447 0-397.188-177.742-397.188-397.188s177.742-397.188 397.188-397.188c219.446 0 397.188 177.742 397.188 397.188s-177.742 397.188-397.188 397.188z" />
<glyph unicode="&#xe911;" glyph-name="long-search" horiz-adv-x="970" d="M350.316 827.474c92.91 0 182.014-36.908 247.711-102.605s102.605-154.801 102.605-247.71c0-86.771-31.798-166.533-84.076-227.973l14.552-14.552h42.577l269.474-269.474-80.842-80.842-269.474 269.474v42.577l-14.552 14.552c-61.44-52.278-141.204-84.076-227.975-84.076-92.91 0-182.014 36.907-247.71 102.605s-102.605 154.8-102.605 247.709c0 92.909 36.908 182.013 102.605 247.71s154.801 102.605 247.71 102.605zM350.316 719.684c-134.737 0-242.526-107.789-242.526-242.526s107.789-242.525 242.526-242.525c134.737 0 242.526 107.788 242.526 242.525s-107.789 242.526-242.526 242.526z" />
<glyph unicode="&#xe912;" glyph-name="label-promotion" horiz-adv-x="1302" d="M797.099 4.652c-3.765-5.92-7.392-7.649-12.143-6.574-2.386 0.423-4.532 1.719-6.024 3.637s-2.222 4.321-2.052 6.748c-0.064 4.762 0.497 9.51 1.674 14.122 3.9 15.211 7.461 30.594 12.559 45.42 5.749 16.699 12.948 33.053 19.816 49.418 0.936 2.67 2.788 4.92 5.224 6.346 2.436 1.425 5.296 1.935 8.071 1.438 4.997-0.938 8.638-4.539 8.868-11.412 0.32-7.602-0.238-15.217-1.665-22.69-4.263-21.7-12.339-42.467-23.849-61.327-4.011-6.306-5.806-13.988-8.638-21.029-0.633-1.812-1.551-3.467-1.839-4.097zM603.215 132.364c-1.374-2.183-2.984-4.245-4.039-6.574-1.706-3.762-3.011-7.711-4.555-11.552-1.409-3.506-2.721-7.076-4.444-10.424-1.157-2.104-2.61-4.030-4.314-5.717-4.116-4.274-8.751-4.952-13.638-1.573-3.498 2.42-6.574 5.449-9.735 8.351-0.696 0.812-1.084 1.845-1.094 2.915-0.135 3.622-0.158 7.265-0.054 10.885 0.145 6.627-0.701 12.976-4.561 18.602-1.22 1.785-1.169 1.799-2.791 0.361-7.202-6.347-13.15-13.828-19.14-21.283-4.899-6.097-9.795-12.189-14.839-18.16-4.668-5.521-9.74-10.647-15.952-14.45-4.492-2.753-9.27-4.4-14.712-3.479-4.545 0.769-6.663 3.536-5.932 8.131 0.955 5.977 3.61 11.287 6.644 16.397 10.091 17.035 22.080 32.862 35.738 47.174 8.346 8.583 15.402 18.34 20.947 28.965 2.082 3.942 3.319 8.28 3.632 12.731 0.095 2.528 0.822 4.99 2.117 7.161s3.114 3.978 5.29 5.255c3.681 2.307 7.402 2.048 9.678-0.803 0.764-1.078 1.355-2.269 1.753-3.531 0.331-0.917 0.513-1.883 0.543-2.858 0.315-6.195 1.706-12.285 4.112-17.998 2.149-5.342 2.847-11.086 3.36-16.805 0.66-7.349 1.261-14.68 1.932-22.035 0.101-1.119 0.339-2.224 0.711-3.284 0.993-2.829 3.682-3.59 5.764-1.412 1.761 1.899 3.309 3.986 4.618 6.223 3.173 5.297 6.080 10.762 9.272 16.053 4.495 7.444 10.841 12.712 19.14 15.419 5.388 1.76 9.048 0.252 11.776-4.748 2.247-4.118 3.016-8.679 3.615-13.255 1.482-10.963 2.161-22.020 2.029-33.084-0.25-15.708-0.493-31.419-0.979-47.119-0.176-3.623-0.821-7.207-1.918-10.664-1.584-5.236-5.772-8.428-10.12-11.302-3.534-2.338-7.175-4.51-10.793-6.742-0.654-0.395-1.344-0.726-2.064-0.985-2.722-0.983-5.047-0.157-6.279 2.461-0.759 1.618-1.308 3.327-1.634 5.085-1.416 7.793-0.948 15.638 0.095 23.394 1.102 8.198 2.746 16.323 4.212 24.474 1.052 5.843 2.126 11.677 1.477 17.649-0.323 3.789-1.502 7.453-3.448 10.717-0.257 0.423-0.559 0.835-0.876 1.241l-0.541 0.195zM681.921 106.884c8.258 11.431 16.522 22.876 24.857 34.253 1.995 2.841 4.247 5.48 6.722 7.877 9.184 8.52 17.603 7.627 23.77-3.002 3.272-5.562 5.832-11.565 7.614-17.863 7.267-26.582 12.676-53.656 15.024-81.404 0.528-6.742 0.588-13.533 0.176-20.319-0.132-4.032-1.065-8.021-2.743-11.71-1.119-2.257-4.257-4.352-6.729-4.827-3.265-0.622-4.438 2.79-5.067 5.616-1.551 6.975-2.815 14.038-4.355 20.999s-3.492 14.139-5.079 21.254c-0.55 2.456-1.72 3.344-4.119 3.758-13.948 2.409-27.841 5.138-41.808 7.494-1.859 0.313-4.517-0.255-5.938-1.507-9.1-8.035-18.040-16.255-26.817-24.661-2.948-2.812-5.838-4.914-9.605-3.038s-3.678 5.768-2.93 9.402c2.017 10.148 6.798 19.196 12.481 27.538 7.306 10.726 15.398 20.868 23.154 31.247l1.394-1.107zM697.879 95.816l28.434-0.451c-0.373 4.030-0.658 8.17-1.185 12.265-0.316 2.42-0.834 4.798-1.549 7.111-1.404 4.541-3.509 5.227-7.396 2.478-1.536-1.011-2.94-2.231-4.172-3.626-4.696-5.75-9.267-11.64-14.124-17.778l-0.007 0.001zM739.063 179.959c1.226-1.659 2.446-3.31 3.704-4.86 9.010-11.069 26.841-6.864 38.344 1.725l0.434 0.323c3.252 2.417 9.38 6.972 3.692 8.294-3.141 0.729-6.596 0.303-10.073-0.126-3.308-0.407-6.636-0.816-9.737-0.238-7.888 1.469-13.878 6.435-17.882 14.886-4.804 10.141-10.651 15.566-21.235 13.129-4.185-0.967-8.468-2.813-12.547-4.691-2.068-0.954-4.209-1.548-6.343-2.14-2.437-0.677-4.867-1.353-7.172-2.556-11.126-5.808 0.471-16.911 6.84-16.706 3.321 0.11 6.138 1.735 8.834 3.289 3.964 2.288 7.667 4.422 12.323 1.36 4.234-2.785 7.55-7.272 10.816-11.69zM787.567 289.444c-1.644-6.005-3.284-12.012-4.918-18.021-0.938-6.055-0.901-12.152-0.745-18.183 0.799-4.081 4.642-12.304 13.625-12.538 8.985-0.236 11.189 12.889 11.17 19.481 0.369 10.948 0.87 21.886 1.504 32.813 0.236 4.327 1.592 8.511 3.953 12.191 3.056 4.738 7.762 7.591 12.955 9.861 6.897 3.011 14.245 4.876 21.649 6.533 11.217 2.49 21.57 6.576 30.192 13.795 1.884 1.554 3.581 3.294 5.061 5.192 1.536 1.989 0.663 3.705-1.989 4.090-1.95 0.334-3.935 0.38-5.884 0.14-4.655-0.114-14.239 0.854-20.018-0.562-11.124-2.721-21.266-7.506-30.996-13.057-2.557-1.458-5.111-2.962-7.81-4.178-5.025-2.263-1.871-2.528-5.253 1.776-3.514 4.476-5.878 9.49-8.117 14.545-2.913 6.789-7.067 13.076-12.275 18.578-1.947 2.058-3.754 4.226-5.411 6.492-2.638 3.564-4.258 7.424-4.045 11.836 0.12 2.725-1.353 4.93-3.689 6.573-0.727 0.572-4.427-0.869-5.364-0.825-0.939 0.044-1.859-0.203-2.616-0.707-0.799-0.483-1.518-1.072-2.134-1.751-2.029-2.203-3.104-4.868-3.894-7.648-1.769-6.232-1.83-12.406 1.611-18.347 1.246-2.15 2.709-4.194 4.1-6.274 2.234-3.348 4.908-6.507 6.657-10.051 5.129-10.394 9.933-20.926 14.782-31.438 1.416-2.899 1.766-6.131 0.995-9.185-0.971-3.727-2.077-7.417-3.095-11.131zM962.458 316.249c6.767-5.366 12.908-9.846 18.529-14.89 2.39-2.305 4.238-5.117 5.41-8.231 2.076-5.196-0.249-10.010-5.726-10.932-5.089-1.085-10.347-1.093-15.439-0.025-15.596 4.165-30.846 9.446-46.323 14.068-2.796 0.829-7.67 1.817-8.561 0.652-2.724-4.032-4.128-9.023-5.753-13.742-0.19-0.351 1.736-1.989 2.858-2.232 6.772-1.523 13.735-2.607 20.398-4.288 7.943-2.032 15.89-4.217 23.594-7.010 7.118-2.56 12.763-7.117 14.22-15.255 1.132-6.419-1.865-10.237-8.335-10.399-2.853-0.067-5.704 0.192-8.498 0.769-12.739 2.607-25.364 5.5-38.074 8.243-2.714 0.846-5.535 1.287-8.376 1.312-1.937-0.181-3.713-2.102-5.547-3.252 0.908-1.804 2.014-3.501 3.297-5.059 1.189-0.774 2.542-1.258 3.95-1.416 15.691-4.348 31.457-8.476 47.002-13.093 7.806-2.326 14.939-6.175 19.803-13.217 4.213-6.124 2.892-10.399-4.383-11.731-5.111-1.077-10.361-1.33-15.55-0.748-18.811 2.662-37.679 5.138-56.223 9.131-23.028 4.94-30.452 16.162-26.783 39.6 1.687 10.746 5.462 21.156 8.189 31.747 1.918 7.537 3.825 15.054 5.563 22.622 0.944 4.179 1.034 8.583 2.279 12.639 3.52 11.375 10.54 18.147 22.619 11.403 10.221-5.578 21.312-7.589 32.516-9.794 8.196-1.605 16.037-4.667 23.344-6.874zM1085.583 213.28c6.717 9.355 9.332 19.882 13.16 29.889 3.31 8.651 7.070 17.137 11.198 25.423 2.342 4.729 5.998 9.276 11.963 8.275 5.967-1.001 7.49-6.384 8.651-11.589 1.593-7.165-0.319-13.893-3.12-20.462-5.193-12.092-10.806-24.038-15.56-36.308-3.942-10.149-6.842-20.686-10.306-31.015-1.044-3.255-2.298-6.441-3.751-9.536-1.927-4.035-5.612-5.693-9.702-6.229-4.092-0.535-6.965 1.545-7.257 5.784-0.683 10.277-5.423 18.357-12.411 25.226-9.514 9.294-19.567 18.038-28.85 27.575-7.322 7.502-13.812 15.841-20.656 23.82l-2.523 2.875c-1.634-5.259-3.289-9.748-4.411-14.282-2.699-10.83-4.984-21.884-7.914-32.588-1.14-4.176-3.113-8.084-5.796-11.476-1.006-1.090-2.235-1.943-3.594-2.496s-2.817-0.791-4.266-0.699c-1.391 0.433-2.667 1.17-3.738 2.162s-1.913 2.213-2.466 3.581c-1.224 3.487-1.448 7.278-0.647 10.933 3.024 12.456 6.6 24.795 10.143 37.111 3.348 11.622 6.829 23.194 10.386 34.763 1.359 4.577 2.973 9.078 4.832 13.48 0.873 2.238 2.43 4.144 4.434 5.433 2.528 1.286 6.179 2.554 8.378 1.58s4.080-4.523 4.456-7.209c0.089-1.276 0.47-2.507 1.109-3.596s1.521-2.007 2.576-2.681c18.275-13.132 33.934-29.643 46.188-48.701 3.628-5.835 6.17-12.349 9.492-19.042zM583.36 388.851c1.668 6.238 3.28 12.332 4.918 18.433 0.275 1.068 0.541 2.159 0.85 3.208 2.48 8.575 6.883 12.711 13.742 13.031 6.391 0.335 11.829-3.849 14.775-11.953 3.704-10.102 3.907-20.034-1.122-30.041-1.352-3.145-1.729-6.627-1.081-9.99 1.27-7.246 0.174-14.709-3.128-21.279-3.879-7.651-6.157-16.020-6.694-24.589-0.306-6.198-1.128-12.311-6.094-17.010-7.779-7.333-17.646-6.337-23.524 2.627-3.698 5.465-5.278 12.099-4.44 18.651 1.299 10.154 2.97 20.43 4.915 30.536 0.632 3.327 0.313 5.174-3.078 6.024-13.262 3.48-26.596 7.064-39.899 10.587-4.013 1.059-6.422-0.711-8.46-4.074-6.267-10.686-10.898-22.256-13.738-34.323-1.693-6.681-5.556-11.698-12.532-13.714-8.514-2.458-13.798 1.012-13.308 9.868 0.313 6.963 1.542 13.853 3.654 20.492 3.978 11.864 8.915 23.378 13.575 35.022 2.174 5.158 2.594 10.892 1.197 16.314-0.838 2.996-1.023 6.137-0.538 9.21s1.624 6.005 3.341 8.596c5.854 9.254 16.858 9.874 22.307 0.319 3.114-5.436 4.255-12.121 5.458-18.491 0.685-3.85 1.84-5.632 5.721-6.577 13.053-3.147 25.994-6.777 38.995-10.179 1.213-0.357 2.469-0.434 4.187-0.699zM419.034 399.266c-2.677-9.86-4.743-18.79-7.61-27.481-1.669-4.952-4.062-9.627-7.101-13.874-2.007-2.060-4.74-3.245-7.608-3.3-3.58-0.219-5.638 2.772-6.125 6.189-0.396 3.15-0.508 6.33-0.331 9.5 0.803 21.462 6.454 41.928 13.060 62.199 3.369 10.22 6.185 20.653 9.706 30.833 1.442 4.2 3.517 8.153 6.151 11.72 3.951 5.297 8.863 4.94 13.078-0.184 1.27-1.641 2.126-3.566 2.499-5.612s0.25-4.15-0.357-6.137c-0.815-3.662-1.95-7.237-3.174-11.696 2.771 0.622 5.508 1.384 8.202 2.282 10.508 4.020 20.882 8.157 31.427 12.244 3.21 1.328 6.54 2.341 9.946 3.024 2.452 0.382 4.958 0.222 7.342-0.465 4.339-1.217 8.368-4.089 8.35-8.555-0.094-1.824-0.559-3.61-1.366-5.246-0.809-1.637-1.943-3.090-3.331-4.27-6.517-4.475-13.359-8.454-20.467-11.903-6.33-3.259-13.059-5.736-19.414-8.96-9.719-4.884-12.32-10.765-8.822-20.929 4.155-11.827 9.403-23.273 13.429-35.136 2.933-9.042 5.339-18.248 7.206-27.57 0.54-3.28 0.211-6.643-0.955-9.754-2.75-7.798-10.36-9.425-15.5-3.013-3.95 4.953-7.184 10.44-9.608 16.301-5.174 12.623-9.563 25.577-14.339 38.372-1.087 3.547-2.548 7.039-4.288 11.422zM644.171 367.673c3.321 15.942 8.774 28.846 18.589 39.534 5.231 5.6 12.308 5.287 16.078-0.829 0.547-0.973 0.87-2.057 0.945-3.17 0.075-1.115-0.101-2.232-0.513-3.269-12.481-20.313-14.56-42.986-15.325-65.972-0.148-4.595-0.222-9.207 0.089-13.754 0.63-11.214 7.668-16.403 18.431-13.357 15.56 4.413 25.442 15.222 30.726 30.050 4.726 13.293 8.34 27.009 12.686 40.43 1.562 4.819 3.787 9.392 6.612 13.59 4.507 6.498 11.634 5.408 14.814-1.883 1.125-2.803 1.684-5.802 1.64-8.824-0.044-3.021-0.688-6.004-1.893-8.771-6.726-17.623-13.632-35.183-20.835-52.594-5.265-13.218-14.171-24.659-25.676-32.98-24.953-17.948-57.247-3.897-61.409 26.678-1.64 11.985-0.009 23.76 1.701 35.536 1.137 7.124 2.449 14.326 3.341 19.586zM964.187 337.521c-2.15 1.401-4.627 2.515-6.382 4.263-8.994 8.937-14.007 19.759-17.382 31.381-0.458 1.178-0.513 2.447-0.158 3.629 0.98 2.006 2.092 4.446 3.935 5.423 1.267 0.664 4.324-0.338 5.819-1.48 10.932-8.347 17.44-19.468 21.966-31.646 0.617-2.095 0.746-4.276 0.374-6.39-0.467-4.095-3.643-5.897-8.173-5.18zM909.559 352.623c1.396 2.158 2.506 4.643 4.245 6.407 8.901 9.027 19.683 14.061 31.261 17.449 1.172 0.459 2.437 0.515 3.613 0.158 1.998-0.985 4.428-2.101 5.404-3.95 0.661-1.273-0.338-4.34-1.476-5.843-8.315-10.973-19.392-17.507-31.523-22.053-2.086-0.619-4.258-0.748-6.365-0.376-4.078 0.47-5.873 3.657-5.159 8.207zM974.643 371.188c1.312 2.029 2.355 4.364 3.991 6.021 8.365 8.483 18.495 13.213 29.374 16.397 1.102 0.432 2.289 0.484 3.397 0.148 1.877-0.925 4.16-1.973 5.076-3.711 0.622-1.195-0.317-4.078-1.387-5.49-7.813-10.312-18.221-16.451-29.621-20.721-1.96-0.582-4.001-0.704-5.98-0.354-3.833 0.442-5.519 3.438-4.849 7.711zM586.082 630.616c20.55 0.65 41.099 2.158 61.629 1.719 20.208-0.439 40.452-2.12 60.526-4.544 24.714-2.996 49.14-7.118 73.624-11.147 19.92-3.008 39.109-9.706 56.591-19.754 5.19-3.035 11.406-4.449 17.45-5.727 14.675-3.397 29.046-7.139 42.373-14.735 16.062-9.143 33.341-14.239 52.199-13.36 4.912-0.016 9.762-1.097 14.219-3.169 17.66-7.521 36.118-11.453 55.128-13.629 16.564-1.878 32.617-6.918 47.296-14.849 32.316-17.579 64.328-35.559 96.377-53.579 9.576-5.073 17.768-12.427 23.856-21.416 2.616-3.597 5.61-6.9 8.935-9.849 25.283-24.412 47.828-50.963 62.351-83.411 4.437-9.977 9.555-19.633 15.321-28.899 12.547-20.119 19.010-42.622 22.032-65.89 2.775-20.748 4.334-41.687 5.913-62.568 0.233-4.909-0.518-9.817-2.206-14.431-6.9-19.946-10.189-40.54-12.070-61.479-1.331-14.83-1.502-29.795-6.217-44.208-4.22-12.864-10.037-24.813-19.124-34.796-14.238-15.594-25.452-33.232-36.288-51.212-23.42-38.862-51.079-74.326-84.859-104.694-16.519-14.849-35.262-24.049-58.359-21.473-7.959 0.802-15.939-1.314-22.468-5.955-9.56-6.056-20.441-9.691-31.709-10.594-31.365-3.188-62.73-7.025-94.057-9.544-18.725-1.451-37.62-0.726-56.44-1.164-5.512 0.060-11.015-0.452-16.423-1.526-22.886-5.473-46.643-6.207-69.822-2.158-16.519 2.863-32.98 6.451-49.158 10.9-50.147 13.742-100.56 26.092-152.266 32.543-9.099 1.292-18.112 3.128-26.993 5.497-10.012 2.535-19.345 7.254-27.336 13.82-23.856 19.087-51.117 32.295-78.908 44.455-7.262 3.169-14.58 6.222-21.69 9.696-5.045 2.365-9.523 5.794-13.132 10.053-3.607 4.258-6.261 9.248-7.778 14.627-1.312 4.181-5.456 8.151-9.296 10.765-17.488 11.93-37.067 19.203-57.389 24.623-5.214 1.339-10.337 3.009-15.34 5.002-4.191 1.577-7.914 4.201-10.813 7.624-2.901 3.423-4.884 7.532-5.764 11.94-1.804 8.464-6.684 15.95-13.686 20.996-11.824 9.067-23.457 18.457-35.719 26.893-19.447 13.362-31.65 32.124-41.059 53.197-1.216 3.274-2.948 6.328-5.133 9.048-11.729 12.674-16.785 28.192-19.656 44.703-2.661 15.269-5.094 30.692-7.698 46.019-2.168 12.79-5.095 25.501-6.559 38.385-2.205 19.564 1.236 38.652 7.148 57.262 1.972 5.717 2.289 11.88 0.913 17.771-3.003 12.54-2.281 25.233-0.551 37.907 2.225 16.491 3.897 33.116 6.805 49.494 1.464 8.169 4.867 16.033 7.927 23.82 3.65 9.315 7.737 18.458 11.919 27.544 2.186 4.715 4.258 9.83 7.604 13.59 17.812 19.68 36.118 38.69 60.621 50.524 30.414 14.716 61.743 27.066 93.146 39.168 26.242 9.787 53.514 16.523 81.284 20.079 18.154 2.54 36.118 6.662 54.329 8.417 22.641 2.215 45.471 2.711 68.207 3.951l0.246-2.272zM919.223-98.522v1.356c14.561 0 29.123-0.325 43.722 0.152 6.315 0.455 12.57 1.549 18.668 3.264 49.861 12.083 99.229 25.577 144.699 50.524 16.159 8.875 32.107 17.942 45.624 30.54 39.254 36.514 53.226 84.081 56.61 135.387 1.084 16.797-3.593 33.975-5.704 50.982-1.9 15.499-2.528 30.73 6.388 44.761 1.529 2.779 2.436 5.86 2.661 9.027 1.9 16.397 3.669 32.812 5.607 49.208 0.288 2.172 0.127 4.381-0.471 6.491-0.598 2.108-1.622 4.070-3.008 5.764-15.929 21.631-31.694 43.328-47.296 65.088-6.976 9.715-13.896 19.583-24.503 25.558-8.217 4.447-15.816 9.959-22.601 16.396-1.675 1.442-3.483 2.719-5.399 3.818-34.425 22.351-68.795 44.856-103.373 66.996-15.74 10.060-31.612 20.024-48.018 28.937-13.211 6.896-26.763 13.115-40.603 18.629-13.859 5.726-27.622 12.731-42.145 15.805-33.894 7.177-68.168 12.693-102.403 18.172-15.521 2.463-31.362 2.030-46.725-1.28-12.112-2.403-24.472-3.309-36.803-2.692-26.405 1.126-52.752 3.685-79.136 5.421-24.484 1.603-48.893 4.409-73.51 3.111-15.815-0.821-31.688-1.679-47.524-1.012-28.514 1.183-56.781 0-84.515-6.375-44.426-10.23-86.873-26.53-128.998-43.9-16.691-6.871-27.298-19.087-33.419-35.101-10.189-26.723-19.485-53.674-28.514-80.72-3.935-11.682-6.273-23.916-9.675-35.808-5.209-18.229-2.834-36.267 1.558-54.057 6.919-28.020 14.637-55.83 21.633-83.83 2.855-10.388 4.827-21.001 5.894-31.724 0.142-4.823 1.624-9.51 4.277-13.533 2.654-4.152 5.676-8.056 9.029-11.663 11.007-10.955 21.88-22.121 33.628-32.257 33.437-28.88 70.486-52.91 106.338-78.544 25.492-18.248 50.945-36.267 80.429-48.235 22.658-9.219 44.006-21.722 65.943-32.715 1.407-0.707 3.062-1.909 4.353-1.584 6.805 1.336 12.471-1.738 18.021-4.582 12.984-6.622 25.663-13.799 38.646-20.423 4.169-2.238 8.659-3.817 13.308-4.677 14.504-2.386 29.275-3.416 43.627-6.413 17.774-3.702 35.091-9.544 52.846-13.227 20.244-4.276 40.738-7.291 61.115-10.917 1.358-0.369 2.788-0.37 4.147-0.006 1.359 0.366 2.597 1.085 3.59 2.086 1.789 1.567 3.888 2.737 6.159 3.435 11.14 3.783 22.998 4.94 34.654 3.379 2.602-0.49 5.149-1.238 7.604-2.234 2.434-0.821 4.753-2.519 7.224-2.692 22.108-1.298 44.235-2.595 66.343-3.989v-0.095zM320.712 643.994c-12.604 0.211-22.355 1.012-28.915 9.162-3.707 4.528-6.422 9.789-7.964 15.443-12.813 52.744-25.366 105.553-37.658 158.426-0.553 2.495-0.471 5.090 0.236 7.546 0.705 2.456 2.014 4.694 3.806 6.51 1.791 1.816 4.008 3.151 6.447 3.884 2.44 0.732 5.022 0.838 7.513 0.307 6.004-1.366 11.871-3.283 17.526-5.726 1.197-0.623 2.232-1.517 3.027-2.61 0.796-1.093 1.328-2.355 1.555-3.689 0-30.216 11.083-57.034 24.409-83.241 10.778-21.225 21.69-42.374 31.764-63.925 3.327-7.139 4.789-15.269 5.987-23.248 0.647-4.181-0.837-8.799-1.9-13.056-0.342-1.279-2.643-2.597-4.201-2.863-8.098-1.241-16.349-2.253-21.633-2.921zM107.328 493.875c-6.729-0.097-14.067 2.768-19.827 11.242-27.583 40.58-55.679 80.798-83.642 121.129-2.927 4.219-4.942 8.571-3.232 13.782 0.59 2.003 1.654 3.831 3.1 5.331 1.447 1.501 3.233 2.627 5.207 3.283 1.974 0.657 4.077 0.824 6.129 0.487s3.993-1.167 5.656-2.42c12.468-8.694 24.438-18.087 35.852-28.135 19.009-17.427 33.438-38.957 48.626-59.726 8.041-11.031 16.519-21.721 25.035-32.448 2.566-3.226 4.049-6.337 2.719-10.442-0.874-2.709-1.369-5.554-2.433-8.188-4.315-10.803-8.859-13.896-23.192-13.896zM557.413 864c0.742-2.042 1.293-3.302 1.635-4.6 10.797-40.274 21.652-80.53 32.183-120.862 1.173-4.751 1.394-9.688 0.647-14.525-2.434-16.11-14.904-23.42-29.94-17.427-12.793 5.097-22.565 13.647-28.039 26.875-11.786 28.536-11.102 57.167 0.114 85.378 5.702 14.239 13.515 27.581 20.435 41.305 0.884 1.364 1.875 2.653 2.965 3.856v0zM786.669 806.049c-1.674-19.316-3.441-40.981-5.475-62.645-1.103-11.681-2.376-23.363-4.125-34.969-0.468-3.398-2.117-6.521-4.658-8.818-4.372-3.092-9.134-5.59-14.162-7.425-2.326-0.873-4.849-1.081-7.286-0.598-2.436 0.481-4.691 1.634-6.514 3.329-2.554 2.13-4.966 4.425-7.224 6.871-2.425 2.295-4.122 5.258-4.88 8.517-0.756 3.259-0.541 6.671 0.622 9.807 9.942 31.151 19.58 62.397 29.218 93.662 0.875 2.863 2.224 3.817 5.076 3.397 5.474-0.821 10.988-1.336 16.462-2.138 3.25-0.496 3.25-0.649 2.948-8.99z" />
<glyph unicode="&#xf09a;" glyph-name="facebook-1" horiz-adv-x="586" d="M548.376 850.819v-150.675h-89.175q-49.2 0-66.625-20.5t-17.425-61.5v-108.65h168.1l-22.55-169.125h-145.55v-434.6h-175.275v434.6h-145.55v169.125h145.55v125.050q0 106.6 59.45 165.025t158.875 58.425q84.050 0 130.175-7.175z" />
<glyph unicode="&#xf16d;" glyph-name="instagram" horiz-adv-x="879" d="M585.276 345.494q0 60.475-42.025 103.525t-103.525 43.050-103.525-43.050-43.050-103.525 43.050-103.525 103.525-43.050 103.525 43.050 42.025 103.525zM664.201 345.494q0-93.275-65.6-159.9t-158.875-65.6-159.9 65.6-65.6 159.9 65.6 159.9 159.9 65.6 158.875-65.6 65.6-159.9zM726.726 580.219q0-21.525-15.375-36.9t-37.925-15.375-36.9 15.375-15.375 36.9 15.375 36.9 36.9 15.375 37.925-15.375 15.375-36.9zM439.725 706.294q-4.1 0-44.075 0t-60.475 0-55.35-2.050-58.425-5.125-41-11.275q-28.7-11.275-50.225-32.8t-33.825-50.225q-6.15-16.4-10.25-41t-6.15-59.45-1.025-54.325 0-60.475 0-44.075 0-44.075 0-60.475 1.025-54.325 6.15-59.45 10.25-41q12.3-28.7 33.825-50.225t50.225-32.8q16.4-6.15 41-11.275t58.425-5.125 55.35-2.050 60.475 0 44.075 0 43.050 0 60.475 0 55.35 2.050 59.45 5.125 39.975 11.275q28.7 11.275 51.25 32.8t32.8 50.225q6.15 16.4 10.25 41t6.15 59.45 1.025 54.325 0 60.475 0 44.075 0 44.075 0 60.475-1.025 54.325-6.15 59.45-10.25 41q-11.275 28.7-32.8 50.225t-51.25 32.8q-16.4 6.15-39.975 11.275t-59.45 5.125-55.35 2.050-60.475 0-43.050 0zM878.426 345.494q0-131.2-3.075-181.425-5.125-118.9-70.725-184.5t-183.475-70.725q-51.25-3.075-181.425-3.075t-181.425 3.075q-118.9 6.15-184.5 70.725t-70.725 184.5q-3.075 50.225-3.075 181.425t3.075 181.425q5.125 118.9 70.725 184.5t184.5 70.725q50.225 3.075 181.425 3.075t181.425-3.075q118.9-6.15 183.475-70.725t70.725-184.5q3.075-50.225 3.075-181.425z" />
<glyph unicode="&#xe1314;" glyph-name="person" horiz-adv-x="1056" d="M529.258 346.563c141.44 0 256 114.56 256 255.999s-114.56 256-256 256c-141.44 0-256.001-114.56-256.001-256s114.561-255.999 256.001-255.999zM529.258 218.563c-170.88 0-512.001-85.76-512.001-256v-128h1024.001v128c0 170.24-341.12 256-512 256z" />
</font>
</defs>
</svg>
