<svg width="191" height="90" viewBox="0 0 191 90" fill="none" xmlns="http://www.w3.org/2000/svg">
<path d="M181.544 71.9895C180.592 71.9895 179.787 72.7308 179.787 73.7262C179.787 74.7217 180.592 75.463 181.544 75.463C182.497 75.463 183.28 74.7217 183.28 73.7262C183.301 72.7308 182.497 71.9895 181.544 71.9895ZM181.544 75.2088C180.719 75.2088 180.105 74.5734 180.105 73.7262C180.105 72.9002 180.719 72.2648 181.544 72.2648C182.349 72.2648 182.962 72.9002 182.962 73.7262C182.984 74.5734 182.349 75.2088 181.544 75.2088Z" fill="white"/>
<path d="M182.391 73.3234C182.391 72.8787 182.094 72.7092 181.586 72.7092H180.824V74.7637H181.226V73.8953H181.48L181.988 74.7637H182.412L181.861 73.8741C182.158 73.8529 182.391 73.7047 182.391 73.3234ZM181.226 73.5776V73.0481H181.565C181.756 73.0481 181.988 73.0905 181.988 73.3023C181.988 73.5564 181.819 73.5776 181.586 73.5776H181.226Z" fill="white"/>
<path d="M116.218 75.2512H125.067V67.7748L135.439 48.1201H126.019L120.685 59.6207L115.583 48.1201H106.354L116.218 67.7537V75.2512Z" fill="white"/>
<path d="M10.9019 46.7644C7.7266 46.6161 2.3074 46.9126 0 47.0821L0.190519 53.9655L2.39207 53.8172V75.2299H10.9019V69.8926C23.328 69.2996 26.2493 62.6703 26.2493 57.9896C26.2493 51.3392 20.8301 47.2303 10.9019 46.7644ZM10.9019 63.1998V53.8384C16.3211 54.0925 17.6336 56.4223 17.6336 58.3073C17.6336 60.9971 15.8342 63.1151 10.9019 63.1998Z" fill="white"/>
<path d="M145.916 47.1033C137.702 47.1033 132.008 53.0759 132.008 61.2725C132.008 69.4902 137.491 75.5899 146.699 75.5899C150.53 75.5899 153.875 74.7639 156.669 72.8577L153.6 66.5674C151.589 67.8593 149.493 68.5583 147.059 68.5583C143.672 68.5583 141.534 66.9274 140.708 64.1317H158.807C158.956 63.3269 159.104 61.7172 159.083 60.3194C159.061 54.4738 155.971 47.1033 145.916 47.1033ZM140.645 58.392C141.301 55.6599 143.058 53.796 145.958 53.796C148.731 53.796 150.742 55.4481 150.954 58.392H140.645Z" fill="white"/>
<path d="M66.1108 47.0615C62.9567 46.9132 57.601 47.2098 55.3359 47.3792L55.5265 54.1779L57.7068 54.0508V75.2517H66.132V69.9567C78.4522 69.3637 81.31 62.798 81.31 58.1597C81.31 51.5728 75.9543 47.5063 66.1108 47.0615ZM66.1108 63.3275V54.072C71.4877 54.3261 72.7578 56.6135 72.7578 58.4985C72.779 61.146 71.0008 63.2216 66.1108 63.3275Z" fill="white"/>
<path d="M173.966 59.1124C172.442 58.4982 170.622 57.8204 169.436 57.2909C168.272 56.7614 167.87 56.232 167.87 55.4271C167.87 54.3681 168.97 53.7751 170.368 53.7751C172.506 53.7751 174.178 54.7706 175.681 56.3802L180.402 51.4665C178.369 48.7344 174.898 47.0188 170.473 47.0188C164.461 47.0188 159.783 49.9204 159.783 55.6389C159.783 60.1502 161.964 62.3317 166.176 64.1532C167.383 64.6826 168.97 65.1274 170.177 65.6357C171.236 66.0805 171.892 66.5465 171.892 67.4148C171.892 68.2197 171.193 68.855 169.161 68.855C167.298 68.855 164.61 68.1138 162.641 66.8218L159.783 72.6886C162.514 74.6583 165.816 75.4843 169.182 75.4843C174.411 75.4843 180.021 73.2181 180.021 67.1183C180.021 62.5435 177.078 60.362 173.966 59.1124Z" fill="white"/>
<path d="M41.3003 47.2729C33.489 47.2729 26.9902 53.0762 26.9902 61.3151C26.9902 69.554 33.489 75.3572 41.3003 75.3572C49.1116 75.3572 55.6104 69.554 55.6104 61.3151C55.6104 53.0974 49.1116 47.2729 41.3003 47.2729ZM41.3638 67.8384C37.5746 67.8384 35.1614 64.9156 35.1614 61.2727C35.1614 57.6298 37.5746 54.707 41.3638 54.707C45.153 54.707 47.5663 57.6298 47.5663 61.2727C47.5663 64.9156 45.153 67.8384 41.3638 67.8384Z" fill="white"/>
<path d="M95.8962 47.1033C87.6827 47.1033 81.9883 53.0759 81.9883 61.2725C81.9883 69.4902 87.344 75.5899 96.7641 75.5899C100.977 75.5899 104.66 74.5733 107.603 72.2647L104.279 66.1861C102.12 67.6899 99.7701 68.5371 97.1028 68.5371C93.5676 68.5371 91.4719 66.9062 90.6675 64.1105H108.788C108.936 63.3057 109.084 61.6961 109.063 60.2982C109.021 54.4738 105.951 47.1033 95.8962 47.1033ZM90.6251 58.392C91.2814 55.6599 93.0384 53.796 95.9385 53.796C98.7116 53.796 100.701 55.4057 100.934 58.392H90.6251Z" fill="white"/>
<path d="M107.958 23.5095C107.958 16.9438 102.603 12.8773 92.7593 12.4114C89.6051 12.2631 84.2494 12.5596 81.9844 12.729L82.1749 19.5277L84.3553 19.4006V40.6015H92.7804V34.7983C93.7119 34.7559 94.5798 34.6712 95.4054 34.5653L96.485 40.5803H105.778L102.095 32.6803C106.646 30.3929 107.958 26.6229 107.958 23.5095ZM92.7593 19.443C98.1362 19.6972 99.4063 21.9846 99.4063 23.8695C99.4063 26.5382 97.6281 28.1055 92.7593 28.2114V19.443Z" fill="white"/>
<path d="M153.155 13.4915V25.6062L146.868 13.4915H136.686V40.6014H145.195V28.4867L151.482 40.6014H161.665V13.4915H153.155Z" fill="white"/>
<path d="M66.5755 8.78956L64.0776 11.2676L51.9902 5.80323L57.7905 0L66.5755 8.78956Z" fill="white"/>
<path d="M114.438 8.78956L116.935 11.2676L129.023 5.80323L123.223 0L114.438 8.78956Z" fill="white"/>
<path d="M65.0715 40.6014H74.3011L64.0554 13.4915H55.4608L45.2363 40.6226H54.4659L55.8631 36.1325H63.6743L65.0715 40.6014ZM57.6412 30.3716L59.7581 23.5306L61.875 30.3716H57.6412Z" fill="white"/>
<path d="M47.798 24.0604H33.869L34.6099 29.8212H39.4999C39.4152 30.859 38.7589 34.2478 34.4617 34.2478C29.6987 34.2478 28.8308 29.8424 28.7885 26.5596C28.7461 23.2979 30.482 19.1255 35.0121 19.1467C38.6319 19.1679 39.3728 21.7094 39.521 21.9212L46.0833 18.363C44.1993 14.6142 40.9393 12.1362 34.8851 12.1362C27.3066 12.1362 20.3633 16.0121 20.3633 26.6443C20.3633 37.2765 28.2592 41.0041 34.4405 41.0041C40.1137 41.0041 47.4805 38.5049 47.798 27.6186C47.8192 26.1995 47.798 24.0604 47.798 24.0604Z" fill="white"/>
<path d="M126.525 40.6014H135.754L125.509 13.4915H116.914L106.689 40.6014H115.919L117.316 36.1113H125.127L126.525 40.6014ZM119.094 30.3716L121.211 23.5306L123.328 30.3716H119.094Z" fill="white"/>
</svg>
