<svg width="180" height="90" viewBox="0 0 180 90" fill="none" xmlns="http://www.w3.org/2000/svg">
<path d="M160.636 72.7612C159.888 72.7612 159.256 73.3437 159.256 74.1258C159.256 74.9079 159.888 75.4903 160.636 75.4903C161.385 75.4903 162 74.9079 162 74.1258C162.017 73.3437 161.385 72.7612 160.636 72.7612ZM160.636 75.2906C159.988 75.2906 159.505 74.7914 159.505 74.1258C159.505 73.4768 159.988 72.9776 160.636 72.9776C161.268 72.9776 161.751 73.4768 161.751 74.1258C161.767 74.7914 161.268 75.2906 160.636 75.2906Z" fill="white"/>
<path d="M161.301 73.8095C161.301 73.46 161.068 73.3269 160.669 73.3269H160.07V74.941H160.386V74.2588H160.585L160.985 74.941H161.317L160.885 74.2421C161.118 74.2255 161.301 74.109 161.301 73.8095ZM160.386 74.0092V73.5932H160.652C160.802 73.5932 160.985 73.6264 160.985 73.7928C160.985 73.9925 160.852 74.0092 160.669 74.0092H160.386Z" fill="white"/>
<path d="M109.31 75.3239H116.262V69.4498L124.411 54.0074H117.01L112.819 63.0432L108.811 54.0074H101.559L109.31 69.4332V75.3239Z" fill="white"/>
<path d="M26.5655 52.9423C24.0707 52.8258 19.8129 53.0588 18 53.1919L18.1497 58.6001L19.8794 58.4836V75.3072H26.5655V71.1137C36.3284 70.6478 38.6236 65.4393 38.6236 61.7618C38.6236 56.5366 34.3659 53.3084 26.5655 52.9423ZM26.5655 65.8553V58.5002C30.8232 58.6999 31.8544 60.5304 31.8544 62.0114C31.8544 64.1247 30.4407 65.7888 26.5655 65.8553Z" fill="white"/>
<path d="M132.644 53.2086C126.191 53.2086 121.717 57.9012 121.717 64.3411C121.717 70.7976 126.024 75.5901 133.259 75.5901C136.27 75.5901 138.897 74.9411 141.093 73.4435L138.681 68.5013C137.101 69.5163 135.455 70.0655 133.542 70.0655C130.881 70.0655 129.201 68.7841 128.552 66.5876H142.773C142.889 65.9553 143.006 64.6906 142.989 63.5923C142.972 58.9995 140.544 53.2086 132.644 53.2086ZM128.502 62.078C129.018 59.9314 130.398 58.467 132.677 58.467C134.856 58.467 136.436 59.765 136.602 62.078H128.502Z" fill="white"/>
<path d="M69.9418 53.1756C67.4636 53.0591 63.2558 53.292 61.4761 53.4252L61.6258 58.7668L63.3389 58.6669V75.3241H69.9584V71.164C79.6382 70.698 81.8835 65.5395 81.8835 61.8952C81.8835 56.72 77.6757 53.525 69.9418 53.1756ZM69.9418 65.9555V58.6836C74.1663 58.8833 75.1642 60.6804 75.1642 62.1615C75.1809 64.2415 73.7838 65.8723 69.9418 65.9555Z" fill="white"/>
<path d="M154.683 62.644C153.485 62.1614 152.055 61.6289 151.123 61.2129C150.209 60.7969 149.893 60.3808 149.893 59.7485C149.893 58.9165 150.757 58.4505 151.855 58.4505C153.535 58.4505 154.849 59.2327 156.03 60.4973L159.739 56.6367C158.142 54.4901 155.414 53.1422 151.938 53.1422C147.215 53.1422 143.539 55.422 143.539 59.9149C143.539 63.4593 145.252 65.1733 148.562 66.6044C149.51 67.0204 150.757 67.3699 151.705 67.7692C152.537 68.1187 153.053 68.4848 153.053 69.167C153.053 69.7994 152.504 70.2986 150.907 70.2986C149.443 70.2986 147.331 69.7162 145.784 68.7011L143.539 73.3105C145.685 74.8581 148.279 75.5071 150.924 75.5071C155.032 75.5071 159.439 73.7266 159.439 68.9341C159.439 65.3397 157.127 63.6258 154.683 62.644Z" fill="white"/>
<path d="M50.4492 53.3418C44.312 53.3418 39.206 57.9013 39.206 64.3745C39.206 70.8476 44.312 75.4072 50.4492 75.4072C56.5864 75.4072 61.6924 70.8476 61.6924 64.3745C61.6924 57.9179 56.5864 53.3418 50.4492 53.3418ZM50.4991 69.4998C47.522 69.4998 45.626 67.2034 45.626 64.3412C45.626 61.479 47.522 59.1826 50.4991 59.1826C53.4762 59.1826 55.3723 61.479 55.3723 64.3412C55.3723 67.2034 53.4762 69.4998 50.4991 69.4998Z" fill="white"/>
<path d="M93.3438 53.2086C86.8906 53.2086 82.4166 57.9012 82.4166 64.3411C82.4166 70.7976 86.6245 75.5901 94.0257 75.5901C97.3355 75.5901 100.229 74.7914 102.541 72.9776L99.93 68.2017C98.2336 69.3832 96.3874 70.0488 94.2918 70.0488C91.5143 70.0488 89.8677 68.7675 89.2357 66.571H103.473C103.589 65.9386 103.705 64.6739 103.689 63.5757C103.656 58.9995 101.244 53.2086 93.3438 53.2086ZM89.2024 62.078C89.718 59.9314 91.0985 58.467 93.377 58.467C95.5558 58.467 97.1192 59.7317 97.3022 62.078H89.2024Z" fill="white"/>
<path d="M102.822 34.6709C102.822 29.5124 98.6144 26.3174 90.8805 25.9513C88.4023 25.8348 84.1944 26.0678 82.4148 26.2009L82.5645 31.5425L84.2776 31.4427V48.0998H90.8971V43.5403C91.6289 43.5071 92.3109 43.4405 92.9595 43.3573L93.8077 48.0832H101.109L98.2152 41.8763C101.791 40.0791 102.822 37.1171 102.822 34.6709ZM90.8805 31.476C95.105 31.6757 96.1029 33.4728 96.1029 34.9538C96.1029 37.0505 94.7059 38.2819 90.8805 38.3651V31.476Z" fill="white"/>
<path d="M138.331 26.8V36.3184L133.392 26.8H125.392V48.0999H132.078V38.5815L137.017 48.0999H145.017V26.8H138.331Z" fill="white"/>
<path d="M70.3071 23.1058L68.3446 25.0527L58.8477 20.7595L63.4049 16.2L70.3071 23.1058Z" fill="white"/>
<path d="M107.912 23.1058L109.874 25.0527L119.371 20.7595L114.814 16.2L107.912 23.1058Z" fill="white"/>
<path d="M69.1253 48.0999H76.3768L68.327 26.8H61.5744L53.5411 48.1166H60.7927L61.8904 44.5888H68.0276L69.1253 48.0999ZM63.2875 40.0625L64.9507 34.6877L66.6139 40.0625H63.2875Z" fill="white"/>
<path d="M55.5543 35.1037H44.6105L45.1926 39.6299H49.0346C48.9681 40.4453 48.4525 43.1078 45.0762 43.1078C41.334 43.1078 40.6521 39.6466 40.6188 37.0673C40.5856 34.5047 41.9494 31.2265 45.5086 31.2431C48.3527 31.2598 48.9348 33.2566 49.0512 33.423L54.2071 30.6274C52.7269 27.682 50.1656 25.7351 45.4088 25.7351C39.4546 25.7351 33.9993 28.7803 33.9993 37.1339C33.9993 45.4874 40.203 48.4161 45.0596 48.4161C49.5169 48.4161 55.3049 46.4526 55.5543 37.8993C55.571 36.7844 55.5543 35.1037 55.5543 35.1037Z" fill="white"/>
<path d="M117.409 48.0999H124.66L116.61 26.8H109.858L101.825 48.0999H109.076L110.174 44.5721H116.311L117.409 48.0999ZM111.571 40.0625L113.234 34.6877L114.897 40.0625H111.571Z" fill="white"/>
</svg>
