<svg width="31" height="31" viewBox="0 0 31 31" fill="none" xmlns="http://www.w3.org/2000/svg">
<path fill-rule="evenodd" clip-rule="evenodd" d="M29.5752 15.5C29.5752 23.232 23.3072 29.5 15.5752 29.5C7.84321 29.5 1.5752 23.232 1.5752 15.5C1.5752 7.76801 7.84321 1.5 15.5752 1.5C23.3072 1.5 29.5752 7.76801 29.5752 15.5ZM30.5752 15.5C30.5752 23.7843 23.8595 30.5 15.5752 30.5C7.29092 30.5 0.575195 23.7843 0.575195 15.5C0.575195 7.21573 7.29092 0.5 15.5752 0.5C23.8595 0.5 30.5752 7.21573 30.5752 15.5ZM13.0408 12.3438C13.0408 13.2662 13.7496 13.8585 15.9537 14.4314C18.1578 15.0043 20.5173 15.9461 20.5173 18.7037C20.5173 20.6941 19.0123 21.7913 17.1189 22.1506V24.2382H14.206V22.1312C12.3417 21.7331 10.7493 20.5388 10.6328 18.4124H12.7689C12.8758 19.5581 13.6622 20.4514 15.6624 20.4514C17.8083 20.4514 18.284 19.3833 18.284 18.7134C18.284 17.8104 17.7986 16.9559 15.3711 16.3733C12.6621 15.7228 10.8076 14.6062 10.8076 12.3632C10.8076 10.4893 12.3223 9.26584 14.206 8.85803V6.76074H17.1189V8.88716C19.1482 9.38236 20.1677 10.9165 20.2357 12.5866H18.0899C18.0316 11.3728 17.3908 10.5475 15.6624 10.5475C14.0215 10.5475 13.0408 11.2855 13.0408 12.3438Z" fill="#0379AE"/>
</svg>
