<svg width="232" height="251" viewBox="0 0 232 251" fill="none" xmlns="http://www.w3.org/2000/svg">
<path d="M113.462 27.5605L110.981 32.4785L105.077 31.704L117.85 7.56504L124.36 8.41479L130.481 35.0278L124.36 34.2307L123.209 28.8389L113.462 27.5605ZM122.095 23.4471L120.204 14.2803L115.974 22.65L122.095 23.4471ZM116.512 0L119.643 0.406076C119.569 1.27087 120.122 2.32366 121.721 2.53421C123.358 2.74477 124.12 1.86494 124.307 1.01519L127.439 1.42127C126.983 4.09084 124.898 6.25657 121.303 5.79034C117.738 5.33162 116.235 2.69213 116.512 0Z" fill="white"/>
<path d="M139.861 21.0483L133.971 36.7875L128.702 34.7947L137.663 10.8438L144.106 13.2877L147.589 31.2303L153.037 16.6717L158.344 18.6795L149.383 42.6305L143.777 40.5098L139.861 21.0483Z" fill="white"/>
<path d="M168.785 35.3138L158.695 48.7293L154.203 45.3077L169.547 24.8987L175.041 29.0798L173.322 47.278L182.649 34.8701L187.171 38.3142L171.827 58.7233L167.051 55.0836L168.785 35.3138Z" fill="white"/>
<path d="M199.847 51.7669C204.346 57.3466 204.122 65.3779 197.859 70.499C191.618 75.59 183.755 74.1537 179.264 68.5739C174.742 62.964 174.966 54.9327 181.207 49.8418C187.463 44.7207 195.325 46.157 199.847 51.7669ZM183.606 65.0245C185.818 67.7693 190.056 69.2432 194.182 65.8742C198.307 62.5053 197.777 58.0159 195.557 55.2636C193.322 52.4888 189.055 51.0374 184.936 54.4064C180.811 57.7753 181.364 62.2496 183.606 65.0245Z" fill="white"/>
<path d="M207.395 81.1176L191.917 87.4719L189.787 82.223L213.337 72.5599L215.938 78.9744L205.22 93.7436L219.541 87.8705L221.678 93.1495L198.128 102.813L195.863 97.2328L207.395 81.1176Z" fill="white"/>
<path d="M223.016 98.9622L225.939 114.897L220.685 115.874L218.786 105.55L214.025 106.437L215.744 115.807L210.841 116.717L209.122 107.347L204.324 108.242L206.222 118.604L200.931 119.589L198.001 103.617L223.016 98.9622ZM231.148 102.918L232 107.565L227.837 112.114L227.157 108.385L228.988 105.655L226.312 103.805L225.647 100.188L231.148 102.918Z" fill="white"/>
<path d="M207.888 130.704L201.087 130.298L201.423 124.605L226.813 126.132L226.476 131.824L215.803 131.185L225.923 141.157L225.475 148.646L215.071 138.043L200.078 147.157L200.497 140.059L210.9 133.78L207.888 130.704Z" fill="white"/>
<path d="M205.49 163.521L208.33 153.715L198.614 150.872L200.198 145.398L224.616 152.549L223.031 158.024L213.457 155.219L210.617 165.025L220.191 167.83L218.599 173.342L194.182 166.19L195.774 160.678L205.49 163.521Z" fill="white"/>
<path d="M210.662 190.073C207.082 196.292 199.541 198.947 192.56 194.879C185.602 190.825 184.137 182.922 187.717 176.711C191.312 170.461 198.853 167.807 205.811 171.853C212.792 175.921 214.257 183.824 210.662 190.073ZM192.553 179.53C190.789 182.591 190.938 187.096 195.535 189.773C200.131 192.45 204.115 190.352 205.879 187.284C207.657 184.193 207.486 179.666 202.889 176.989C198.293 174.319 194.331 176.44 192.553 179.53ZM217.688 191.412L215.333 195.503L209.227 196.247L211.118 192.969L214.272 192.096L213.435 188.938L215.266 185.749L217.688 191.412Z" fill="white"/>
<path d="M190.018 203.346L177.978 191.675L181.886 187.592L200.198 205.354L195.414 210.347L177.656 206.467L188.792 217.265L184.861 221.371L166.55 203.609L170.705 199.27L190.018 203.346Z" fill="white"/>
<path d="M151.886 216.183C151.961 214.213 153.179 211.633 156.236 209.678C162.201 205.866 169.899 207.144 174.204 213.972C178.494 220.762 176.207 228.516 170.153 232.388C164.009 236.321 158.852 234.479 156.005 232.065L159.585 227.508C160.766 228.636 163.725 230.162 167.298 227.876C170.205 226.019 172.395 221.883 169.353 217.07C166.506 212.558 162.059 212.115 158.576 214.34C155.033 216.604 155.011 219.868 155.511 221.266L161.961 217.145L164.54 221.229L153.613 228.215L146.318 216.672L150.197 214.198L151.886 216.183Z" fill="white"/>
<path d="M149.353 242.6L143.956 244.337L137.85 225.154L127.394 228.523L125.742 223.334L141.595 218.221L149.353 242.6Z" fill="white"/>
<path d="M118.582 250.481C111.482 251.255 104.897 246.713 104.023 238.637C103.156 230.598 108.619 224.74 115.712 223.958C122.842 223.176 129.434 227.718 130.301 235.757C131.176 243.841 125.712 249.699 118.582 250.481ZM116.317 229.56C112.82 229.944 109.299 232.726 109.875 238.035C110.45 243.344 114.486 245.337 117.984 244.954C121.512 244.57 125.032 241.75 124.464 236.441C123.889 231.132 119.853 229.177 116.317 229.56Z" fill="white"/>
<path d="M72.4307 246.744L85.9436 223.131L91.7061 224.139L96.5343 250.962L90.3832 249.887L87.4085 231.087L78.3725 247.789L72.4307 246.744Z" fill="white"/>
<path d="M51.3687 249.165L52.2431 244.939L55.6961 246.263L56.167 251L51.3687 249.165ZM69.366 245.45L54.3134 239.675L56.2193 234.652L65.9728 238.397L67.6993 233.847L58.8501 230.448L60.6289 225.763L69.4781 229.162L71.2196 224.575L61.4286 220.823L63.3495 215.762L78.432 221.552L69.366 245.45ZM61.8023 249.692L57.8112 248.158L56.2566 242.736L59.4406 243.954L60.6663 246.706L63.4018 245.473L66.5184 246.669L61.8023 249.692Z" fill="white"/>
<path d="M42.2656 204.955C44.1117 204.286 46.9443 204.467 49.8816 206.595C55.6216 210.746 57.3108 218.409 52.6171 224.973C47.9533 231.508 39.9487 232.26 34.119 228.049C28.207 223.778 27.9753 218.281 29.1413 214.724L34.6795 216.371C34.0816 217.89 33.7752 221.228 37.2132 223.71C40.0085 225.733 44.6423 226.237 47.9533 221.605C51.0476 217.266 49.8069 212.942 46.4585 210.52C43.0504 208.054 40.0309 209.257 38.9322 210.234L45.1356 214.716L42.3329 218.642L31.817 211.039L39.7469 199.925L43.4764 202.617L42.2656 204.955Z" fill="white"/>
<path d="M22.1228 217.401L18.042 213.333L35.9422 195.149L40.023 199.218L22.1228 217.401Z" fill="white"/>
<path d="M7.83274 204.301L3.31098 205.993L0 201.534L5.47096 201.121L7.83274 204.301ZM27.5043 193.525L32.7361 191.886L36.3012 196.684L10.1945 204.279L6.2632 198.985L20.972 176.034L24.6642 181.005L21.6222 185.592L27.5043 193.525ZM18.5504 190.156L13.3336 197.909L22.2426 195.135L18.5504 190.156Z" fill="white"/>
<path d="M193.607 128.997C193.607 178.078 154.012 217.862 105.174 217.862C56.3355 217.862 16.7402 178.078 16.7402 128.997C16.7402 79.9157 56.3355 40.1316 105.174 40.1316C154.012 40.1316 193.607 79.9157 193.607 128.997Z" stroke="white"/>
</svg>
