<svg width="163" height="220" viewBox="0 0 163 220" fill="none" xmlns="http://www.w3.org/2000/svg">
<path d="M84.5023 22.5696C87.1454 23.4043 90.8318 25.1432 98.622 21.8741C98.622 29.6642 98.5524 47.6094 98.5524 56.6515C98.5524 66.3196 99.248 80.9957 96.6744 91.6376C103.56 92.4723 108.221 99.706 115.593 96.8542C118.167 95.8804 123.383 91.3594 126.096 90.8029C132.286 89.4814 138.755 95.6718 144.528 93.0982C151.136 90.1074 154.196 87.3947 152.11 80.3697C143.346 61.1726 132.634 41.419 132.634 41.419L132.843 41.3494C139.938 39.541 141.329 30.2902 133.052 25.2823L139.033 19.7874L130.339 16.2401L133.608 4.34627L114.898 11.7886L114.967 11.7191C114.967 11.7191 110.238 1.8423 103.004 1.77274C96.9527 1.70319 94.0313 6.08514 94.0313 6.08514C94.0313 6.08514 92.4316 1.56408 88.2583 0.312088C84.085 -0.939899 77.3382 1.49452 76.434 9.076C75.3907 17.4921 82.207 21.8741 84.5023 22.5696ZM116.358 18.9528C118.236 17.979 120.671 18.9528 121.784 21.0394C122.897 23.1261 122.201 25.6996 120.323 26.6734C118.445 27.6471 116.011 26.6734 114.898 24.5867C113.785 22.4305 114.48 19.9266 116.358 18.9528Z" fill="#FF7D01"/>
<path d="M37.3453 82.1784C41.2404 85.3083 42.8401 89.6207 43.1183 94.3505C43.1879 95.5329 43.8834 96.5762 44.9268 97.0631C48.1958 98.6629 51.3954 99.8453 53.482 99.9149C58.4204 100.124 62.1764 94.6982 66.6279 95.3242C66.767 93.0289 67.1148 90.525 67.6712 87.7428C70.5925 72.9971 73.0965 58.3211 60.7157 47.4009C48.4045 36.4808 26.2165 35.2984 0.550781 66.2503L17.3135 86.4908C17.3135 86.4908 26.2861 73.3449 37.3453 82.1784Z" fill="#FF7D01"/>
<path d="M160.11 193.329C160.458 189.156 160.875 184.983 161.293 180.81C162.475 168.777 161.849 156.535 161.64 144.432C161.571 140.05 162.266 135.669 162.197 131.565C162.127 120.992 162.266 111.463 162.406 104.717C162.475 101.239 161.988 95.5354 159.484 92.7532C156.076 88.8581 151.903 93.3792 150.233 96.7178C148.912 99.4304 147.173 102.7 143.974 103.117C139.522 103.743 136.809 98.7349 132.636 97.2047C128.254 95.6049 123.524 98.1089 119.56 100.404C115.595 102.7 110.587 104.995 106.414 102.978C104.188 101.934 102.797 99.8478 101.197 98.1089C99.5976 96.37 97.3023 94.7702 94.8678 95.118C89.7903 95.8136 87.7037 103.256 82.974 105.412C80.8178 106.386 78.4529 106.664 76.1576 105.899C74.0014 105.203 72.3321 103.743 70.4541 102.63C68.5761 101.517 66.1417 100.682 64.055 101.517C63.4986 101.726 62.9422 102.074 62.4553 102.352C60.8555 103.395 59.1166 104.925 57.3082 105.621C55.7085 106.247 53.7609 106.316 52.0916 106.038C48.5443 105.482 45.4144 103.395 43.119 101.03C34.9811 92.614 33.2423 97.4133 32.6858 102.074C32.4076 104.16 29.6254 112.646 30.5296 123.288C31.1556 130.104 32.1989 139.703 32.964 147.215C35.1898 168.081 35.0507 188.669 37.0678 209.536C38.1806 221.569 44.8579 220.039 56.5431 219.83C60.16 219.76 65.4461 218.856 76.9227 218.995C82.0697 219.065 93.3376 218.091 99.1802 218.161C107.666 218.23 118.447 218.926 127.002 218.995C139.731 219.134 143.487 219.552 151.346 219.552C156.076 219.552 159.484 216.143 159.415 211.275C159.276 205.293 159.623 199.311 160.11 193.329ZM151.277 212.666C147.66 213.222 138.479 214.822 132.01 214.474C123.524 213.987 115.526 212.248 110.865 212.666C107.318 213.013 97.5109 212.318 87.7732 213.57C82.6957 214.196 76.4358 213.013 71.567 213.639C63.3595 214.613 56.2649 215.309 53.1349 215.378C46.5968 215.517 43.8841 208.075 43.119 202.093C41.4497 188.182 39.9891 159.039 38.1111 144.154C37.4155 138.312 35.3985 122.314 34.842 116.471C34.1465 109.516 36.8591 108.264 39.9891 108.125C42.7713 110.698 46.5272 113.063 51.1178 113.133C51.6743 113.133 52.2307 113.133 52.7872 113.063C52.9263 113.063 53.0654 113.063 53.2045 112.994C53.4132 112.994 53.6914 112.924 53.9 112.855C54.1087 112.785 54.3174 112.785 54.526 112.715C54.7347 112.646 54.9434 112.646 55.152 112.576C55.5694 112.437 55.9867 112.368 56.3345 112.159C56.4736 112.089 56.6127 112.02 56.7518 111.95C57.0996 111.811 57.3778 111.672 57.7256 111.533C57.8647 111.463 58.0038 111.394 58.1429 111.324C58.6298 111.116 59.0471 110.837 59.534 110.559C59.7426 110.42 59.8818 110.281 60.0904 110.142C60.7164 109.655 61.2033 109.029 61.7597 108.333C62.1771 107.707 62.6639 107.151 63.1508 106.595C63.9855 105.76 65.0288 105.482 66.1417 105.621C67.185 105.76 68.2283 106.316 68.9239 107.221C69.4108 107.847 69.8977 108.473 70.3845 109.029C70.3845 109.029 70.3845 109.029 70.3845 109.099C70.8714 109.655 71.3583 110.211 71.8452 110.768C71.8452 110.768 71.8452 110.768 71.8452 110.837C72.3321 111.324 72.8885 111.881 73.3754 112.298C73.9318 112.785 74.4883 113.202 75.0447 113.55C77.4791 115.219 80.1222 116.124 83.2522 115.915C86.6604 115.706 89.6512 113.481 91.1119 110.281C92.0856 108.194 93.0594 106.108 94.1027 104.091C94.9374 102.421 97.5109 102.352 98.5542 103.951C99.3193 105.203 99.8758 106.595 100.571 107.847C101.128 108.82 101.684 109.655 102.31 110.49C102.31 110.559 102.38 110.559 102.38 110.629C102.658 111.046 103.006 111.394 103.284 111.742C103.354 111.811 103.423 111.881 103.423 111.95C103.701 112.298 104.049 112.576 104.327 112.855C104.397 112.924 104.466 112.994 104.536 113.063C104.814 113.341 105.162 113.62 105.44 113.828C105.51 113.898 105.649 113.967 105.718 114.037C105.997 114.246 106.344 114.454 106.623 114.663C106.762 114.732 106.831 114.802 106.97 114.872C107.249 115.08 107.596 115.219 107.875 115.358C108.014 115.428 108.153 115.498 108.292 115.567C108.57 115.706 108.848 115.845 109.196 115.915C109.335 115.984 109.544 116.054 109.683 116.054C109.961 116.124 110.239 116.263 110.587 116.332C110.796 116.402 110.935 116.402 111.144 116.471C111.422 116.541 111.7 116.61 111.978 116.61C112.187 116.61 112.396 116.68 112.604 116.68C112.883 116.68 113.161 116.75 113.439 116.75C113.648 116.75 113.856 116.75 114.065 116.75C114.343 116.75 114.621 116.75 114.9 116.68C115.108 116.68 115.387 116.61 115.595 116.61C115.873 116.541 116.082 116.541 116.36 116.471C116.638 116.402 116.917 116.332 117.125 116.263C117.404 116.193 117.612 116.124 117.89 116.054C118.169 115.984 118.447 115.845 118.795 115.776C119.003 115.706 119.282 115.637 119.49 115.498C119.838 115.358 120.186 115.219 120.534 115.011C120.742 114.941 120.881 114.872 121.09 114.732C121.646 114.454 122.133 114.176 122.69 113.828C124.498 112.715 126.307 111.533 128.045 110.351C128.115 110.281 128.254 110.211 128.324 110.211C130.132 109.099 132.497 109.099 134.375 110.211C135.279 110.698 136.044 111.185 136.74 111.463C136.949 111.533 137.088 111.603 137.296 111.672C137.575 111.811 137.853 111.881 138.131 112.02C138.409 112.089 138.687 112.159 138.966 112.229C139.452 112.368 140.009 112.368 140.496 112.368C141.191 112.368 141.887 112.229 142.652 111.95C143.904 111.533 145.365 110.837 147.312 109.933C147.59 110.003 147.869 110.072 148.147 110.142C148.216 110.142 148.286 110.142 148.355 110.211C148.425 110.211 148.564 110.281 148.634 110.281C148.842 110.351 149.051 110.42 149.26 110.49H149.329C149.886 110.698 150.373 110.907 150.79 111.185C151.346 111.533 151.764 111.881 152.111 112.298C152.32 112.507 152.459 112.715 152.598 112.924C153.224 113.828 153.503 114.872 153.711 116.054C153.711 116.124 153.711 116.124 153.711 116.193C153.711 116.471 153.781 116.68 153.781 116.958C153.781 117.028 153.781 117.097 153.781 117.167C153.781 117.445 153.781 117.654 153.85 117.932C153.85 118.002 153.85 118.071 153.85 118.141C153.85 118.488 153.85 118.767 153.85 119.114C153.85 122.244 154.407 129.061 153.711 135.808C153.155 141.094 152.807 146.31 153.224 149.719C153.294 150.066 153.294 150.484 153.363 150.901C153.363 150.901 153.363 150.971 153.363 151.04C153.433 151.457 153.433 151.805 153.503 152.223C155.241 165.716 153.781 191.104 154.615 200.772V200.841C155.172 205.223 155.937 211.901 151.277 212.666Z" fill="#FF7D01"/>
<path d="M126.44 142.828C124.284 143.036 122.058 143.176 119.902 143.176C117.467 143.176 115.242 142.897 112.946 142.41C110.79 141.993 108.356 142.341 106.199 142.41C101.331 142.55 96.5314 142.758 91.6625 142.967C81.5771 143.384 71.4916 143.871 61.4062 144.497C39.4964 145.819 44.1566 149.575 59.876 149.505C75.5954 149.436 103 149.157 125.605 148.74C131.935 148.601 138.125 147.766 144.455 147.001C144.594 145.54 144.594 143.802 143.272 142.967C142.785 142.619 142.229 142.48 141.672 142.341C139.516 141.924 137.291 141.924 135.134 142.063C132.213 142.271 129.361 142.619 126.44 142.828Z" fill="#FF7D01"/>
<path d="M20.1016 213.219H21.7013V218.088H22.4664V213.219H24.1357V212.524H20.1016V213.219Z" fill="#FF7D01"/>
<path d="M27.6052 216.488L25.8663 212.523H24.8926V218.088H25.6577V213.636L27.2574 217.323H27.953L29.6223 213.636V218.088H30.3179V212.523H29.4136L27.6052 216.488Z" fill="#FF7D01"/>
</svg>
