<svg width="119" height="160" viewBox="0 0 119 160" fill="none" xmlns="http://www.w3.org/2000/svg">
<path d="M61.8565 16.4143C63.7787 17.0213 66.4597 18.2859 72.1253 15.9084C72.1253 21.574 72.0747 34.625 72.0747 41.2011C72.0747 48.2325 72.5805 58.906 70.7089 66.6455C75.7168 67.2525 79.106 72.5134 84.4681 70.4394C86.3397 69.7312 90.1336 66.4432 92.1065 66.0385C96.6086 65.0774 101.313 69.5795 105.512 67.7078C110.317 65.5326 112.543 63.5598 111.025 58.4507C104.652 44.4891 96.8615 30.1229 96.8615 30.1229L97.0132 30.0723C102.173 28.7571 103.185 22.0293 97.165 18.3871L101.515 14.3909L95.1922 11.811L97.5697 3.16092L83.9622 8.57355L84.0128 8.52297C84.0128 8.52297 80.573 1.33985 75.3122 1.28927C70.9112 1.23868 68.7866 4.42556 68.7866 4.42556C68.7866 4.42556 67.6232 1.13751 64.5881 0.226973C61.5529 -0.683563 56.6462 1.08692 55.9886 6.60073C55.2298 12.7216 60.1871 15.9084 61.8565 16.4143ZM85.0245 13.7838C86.3903 13.0757 88.1608 13.7838 88.9702 15.3014C89.7796 16.819 89.2737 18.6906 87.9079 19.3988C86.5421 20.107 84.7716 19.3988 83.9622 17.8813C83.1529 16.3131 83.6587 14.492 85.0245 13.7838Z" fill="#E0E0E0"/>
<path d="M27.5604 59.7661C30.3932 62.0424 31.5567 65.1787 31.759 68.6185C31.8096 69.4785 32.3154 70.2373 33.0742 70.5913C35.4517 71.7548 37.7787 72.6148 39.2962 72.6653C42.8878 72.8171 45.6194 68.8714 48.8568 69.3267C48.958 67.6574 49.2109 65.8363 49.6156 63.8129C51.7402 53.0888 53.5613 42.4153 44.5571 34.4734C35.6035 26.5315 19.4668 25.6716 0.800781 48.182L12.9918 62.9024C12.9918 62.9024 19.5174 53.3417 27.5604 59.7661Z" fill="#E0E0E0"/>
<path d="M116.844 140.603C117.097 137.568 117.4 134.533 117.704 131.498C118.564 122.747 118.109 113.844 117.957 105.042C117.906 101.855 118.412 98.668 118.362 95.6835C118.311 87.9945 118.412 81.0643 118.513 76.1575C118.564 73.6283 118.21 69.4803 116.389 67.4568C113.91 64.6241 110.875 67.9121 109.661 70.3402C108.7 72.313 107.435 74.6905 105.108 74.9941C101.871 75.4493 99.898 71.8072 96.8628 70.6943C93.676 69.5308 90.2362 71.3519 87.3528 73.0212C84.4694 74.6905 80.8273 76.3599 77.7922 74.8929C76.1734 74.1341 75.1617 72.6165 73.9983 71.3519C72.8348 70.0873 71.1655 68.9238 69.395 69.1767C65.7023 69.6826 64.1847 75.0952 60.7449 76.6634C59.1768 77.3716 57.4569 77.5739 55.7875 77.0175C54.2194 76.5116 53.0054 75.4493 51.6396 74.64C50.2737 73.8306 48.5033 73.2236 46.9857 73.8306C46.581 73.9824 46.1763 74.2353 45.8222 74.4376C44.6588 75.1964 43.3941 76.3093 42.0789 76.8151C40.9155 77.2704 39.4991 77.321 38.285 77.1186C35.7052 76.714 33.4288 75.1964 31.7595 73.4765C25.841 67.3557 24.5764 70.8461 24.1717 74.2353C23.9694 75.7528 21.946 81.9243 22.6036 89.6638C23.0588 94.6212 23.8176 101.602 24.3741 107.065C25.9928 122.241 25.8916 137.214 27.3586 152.39C28.168 161.141 33.0241 160.028 41.5225 159.876C44.1529 159.826 47.9974 159.168 56.344 159.269C60.0873 159.32 68.2821 158.612 72.5313 158.662C78.7027 158.713 86.5434 159.219 92.7654 159.269C102.023 159.37 104.754 159.674 110.47 159.674C113.91 159.674 116.389 157.195 116.338 153.654C116.237 149.304 116.49 144.954 116.844 140.603ZM110.42 154.666C107.789 155.071 101.112 156.234 96.4076 155.981C90.2362 155.627 84.4189 154.362 81.0296 154.666C78.4498 154.919 71.3172 154.413 64.2353 155.324C60.5426 155.779 55.9899 154.919 52.4489 155.374C46.4798 156.082 41.3201 156.588 39.0438 156.639C34.2888 156.74 32.316 151.327 31.7595 146.977C30.5455 136.86 29.4832 115.665 28.1174 104.839C27.6115 100.59 26.1445 88.9556 25.7399 84.7064C25.234 79.6479 27.2068 78.7374 29.4832 78.6362C31.5066 80.5079 34.2382 82.2278 37.5768 82.2784C37.9815 82.2784 38.3862 82.2783 38.7909 82.2278C38.892 82.2278 38.9932 82.2278 39.0944 82.1772C39.2461 82.1772 39.4485 82.1266 39.6002 82.076C39.752 82.0254 39.9038 82.0254 40.0555 81.9748C40.2073 81.9243 40.359 81.9243 40.5108 81.8737C40.8143 81.7725 41.1178 81.7219 41.3707 81.5702C41.4719 81.5196 41.5731 81.469 41.6742 81.4184C41.9272 81.3172 42.1295 81.2161 42.3824 81.1149C42.4836 81.0643 42.5848 81.0137 42.6859 80.9631C43.04 80.8114 43.3436 80.609 43.6977 80.4067C43.8494 80.3055 43.9506 80.2044 44.1023 80.1032C44.5576 79.7491 44.9117 79.2938 45.3164 78.788C45.6199 78.3327 45.974 77.928 46.3281 77.5233C46.9351 76.9163 47.6939 76.714 48.5033 76.8151C49.262 76.9163 50.0208 77.321 50.5267 77.9786C50.8808 78.4339 51.2349 78.8891 51.589 79.2938C51.589 79.2938 51.589 79.2938 51.589 79.3444C51.9431 79.7491 52.2972 80.1538 52.6513 80.5584C52.6513 80.5584 52.6513 80.5584 52.6513 80.609C53.0054 80.9631 53.41 81.3678 53.7641 81.6713C54.1688 82.0254 54.5735 82.3289 54.9782 82.5819C56.7487 83.7959 58.6709 84.4535 60.9473 84.3018C63.4259 84.15 65.6011 82.5313 66.6634 80.2044C67.3716 78.6868 68.0798 77.1692 68.8386 75.7023C69.4456 74.4882 71.3172 74.4376 72.076 75.6011C72.6325 76.5116 73.0372 77.5233 73.543 78.4339C73.9477 79.1421 74.3524 79.7491 74.8076 80.3561C74.8076 80.4067 74.8582 80.4067 74.8582 80.4573C75.0606 80.7608 75.3135 81.0137 75.5158 81.2666C75.5664 81.3172 75.617 81.3678 75.617 81.4184C75.8193 81.6713 76.0723 81.8737 76.2746 82.076C76.3252 82.1266 76.3758 82.1772 76.4264 82.2278C76.6287 82.4301 76.8816 82.6325 77.084 82.7842C77.1346 82.8348 77.2357 82.8854 77.2863 82.936C77.4887 83.0877 77.7416 83.2395 77.9439 83.3912C78.0451 83.4418 78.0957 83.4924 78.1969 83.543C78.3992 83.6947 78.6521 83.7959 78.8545 83.8971C78.9556 83.9477 79.0568 83.9983 79.158 84.0488C79.3603 84.15 79.5627 84.2512 79.8156 84.3018C79.9168 84.3524 80.0685 84.4029 80.1697 84.4029C80.372 84.4535 80.5744 84.5547 80.8273 84.6053C80.979 84.6559 81.0802 84.6559 81.232 84.7064C81.4343 84.757 81.6367 84.8076 81.839 84.8076C81.9908 84.8076 82.1425 84.8582 82.2943 84.8582C82.4966 84.8582 82.699 84.9088 82.9013 84.9088C83.053 84.9088 83.2048 84.9088 83.3566 84.9088C83.5589 84.9088 83.7612 84.9088 83.9636 84.8582C84.1153 84.8582 84.3177 84.8076 84.4694 84.8076C84.6718 84.757 84.8235 84.757 85.0259 84.7064C85.2282 84.6559 85.4306 84.6053 85.5823 84.5547C85.7847 84.5041 85.9364 84.4535 86.1387 84.4029C86.3411 84.3524 86.5434 84.2512 86.7964 84.2006C86.9481 84.15 87.1505 84.0994 87.3022 83.9983C87.5551 83.8971 87.8081 83.7959 88.061 83.6442C88.2128 83.5936 88.3139 83.543 88.4657 83.4418C88.8704 83.2395 89.2245 83.0371 89.6291 82.7842C90.9444 81.9748 92.2596 81.1149 93.5242 80.2549C93.5748 80.2044 93.676 80.1538 93.7265 80.1538C95.0418 79.3444 96.7617 79.3444 98.1275 80.1538C98.7851 80.5079 99.3415 80.862 99.8474 81.0643C99.9991 81.1149 100.1 81.1655 100.252 81.2161C100.454 81.3172 100.657 81.3678 100.859 81.469C101.061 81.5196 101.264 81.5702 101.466 81.6207C101.82 81.7219 102.225 81.7219 102.579 81.7219C103.085 81.7219 103.591 81.6207 104.147 81.4184C105.058 81.1149 106.12 80.609 107.536 79.9514C107.739 80.002 107.941 80.0526 108.143 80.1032C108.194 80.1032 108.245 80.1032 108.295 80.1538C108.346 80.1538 108.447 80.2044 108.497 80.2044C108.649 80.2549 108.801 80.3055 108.953 80.3561H109.003C109.408 80.5079 109.762 80.6596 110.066 80.862C110.47 81.1149 110.774 81.3678 111.027 81.6713C111.178 81.8231 111.28 81.9748 111.381 82.1266C111.836 82.7842 112.038 83.543 112.19 84.4029C112.19 84.4535 112.19 84.4535 112.19 84.5041C112.19 84.7064 112.241 84.8582 112.241 85.0605C112.241 85.1111 112.241 85.1617 112.241 85.2123C112.241 85.4146 112.241 85.5664 112.291 85.7687C112.291 85.8193 112.291 85.8699 112.291 85.9205C112.291 86.1734 112.291 86.3758 112.291 86.6287C112.291 88.905 112.696 93.8624 112.19 98.7692C111.786 102.614 111.533 106.408 111.836 108.886C111.887 109.139 111.887 109.443 111.937 109.746C111.937 109.746 111.937 109.797 111.937 109.847C111.988 110.151 111.988 110.404 112.038 110.707C113.303 120.521 112.241 138.985 112.848 146.016V146.066C113.252 149.253 113.809 154.11 110.42 154.666Z" fill="#E0E0E0"/>
<path d="M92.3565 103.875C90.7884 104.027 89.1697 104.128 87.6015 104.128C85.831 104.128 84.2123 103.925 82.543 103.571C80.9748 103.268 79.2043 103.521 77.6362 103.571C74.0952 103.672 70.6048 103.824 67.0639 103.976C59.729 104.279 52.3941 104.634 45.0592 105.089C29.1249 106.05 32.5141 108.782 43.9464 108.731C55.3787 108.68 75.3093 108.478 91.7495 108.175C96.3528 108.073 100.855 107.466 105.458 106.91C105.559 105.848 105.559 104.583 104.598 103.976C104.244 103.723 103.839 103.622 103.435 103.521C101.867 103.217 100.248 103.217 98.6797 103.318C96.5551 103.47 94.4811 103.723 92.3565 103.875Z" fill="#E0E0E0"/>
</svg>
