<svg width="56" height="56" viewBox="0 0 56 56" fill="none" xmlns="http://www.w3.org/2000/svg">
<path d="M0 56C6.42909e-07 48.646 1.44848 41.364 4.26275 34.5697C7.07701 27.7755 11.2019 21.6021 16.402 16.402C21.6021 11.2019 27.7755 7.07701 34.5697 4.26274C41.364 1.44848 48.646 -9.64363e-07 56 0L56 49C56 52.866 52.866 56 49 56L0 56Z" fill="#FDEDEF"/>
<path d="M24 26L25.2041 21.4847C25.4376 20.6092 26.2305 20 27.1366 20H36.8634C37.7695 20 38.5624 20.6092 38.7959 21.4847L40 26" stroke="#E31837" stroke-width="2" stroke-linecap="round"/>
<mask id="path-3-inside-1" fill="white">
<path fill-rule="evenodd" clip-rule="evenodd" d="M20.0192 29.2706C19.8552 28.0696 20.7887 27 22.0008 27H41.9993C43.2114 27 44.1449 28.0696 43.9809 29.2706L42.4787 40.2706C42.3434 41.2614 41.4971 42 40.4971 42H23.5031C22.5031 42 21.6568 41.2614 21.5215 40.2706L20.0192 29.2706ZM29.9516 30.5C30.5172 30.5 30.9758 30.9477 30.9758 31.5V37.5C30.9758 38.0523 30.5172 38.5 29.9516 38.5C29.3859 38.5 28.9273 38.0523 28.9273 37.5V31.5C28.9273 30.9477 29.3859 30.5 29.9516 30.5ZM35.0728 31.5C35.0728 30.9477 34.6142 30.5 34.0485 30.5C33.4829 30.5 33.0243 30.9477 33.0243 31.5V37.5C33.0243 38.0523 33.4829 38.5 34.0485 38.5C34.6142 38.5 35.0728 38.0523 35.0728 37.5V31.5ZM25.8546 30.5C26.4203 30.5 26.8788 30.9477 26.8788 31.5V37.5C26.8788 38.0523 26.4203 38.5 25.8546 38.5C25.2889 38.5 24.8304 38.0523 24.8304 37.5V31.5C24.8304 30.9477 25.2889 30.5 25.8546 30.5ZM39.1698 31.5C39.1698 30.9477 38.7112 30.5 38.1455 30.5C37.5798 30.5 37.1213 30.9477 37.1213 31.5V37.5C37.1213 38.0523 37.5798 38.5 38.1455 38.5C38.7112 38.5 39.1698 38.0523 39.1698 37.5V31.5Z"/>
</mask>
<path fill-rule="evenodd" clip-rule="evenodd" d="M20.0192 29.2706C19.8552 28.0696 20.7887 27 22.0008 27H41.9993C43.2114 27 44.1449 28.0696 43.9809 29.2706L42.4787 40.2706C42.3434 41.2614 41.4971 42 40.4971 42H23.5031C22.5031 42 21.6568 41.2614 21.5215 40.2706L20.0192 29.2706ZM29.9516 30.5C30.5172 30.5 30.9758 30.9477 30.9758 31.5V37.5C30.9758 38.0523 30.5172 38.5 29.9516 38.5C29.3859 38.5 28.9273 38.0523 28.9273 37.5V31.5C28.9273 30.9477 29.3859 30.5 29.9516 30.5ZM35.0728 31.5C35.0728 30.9477 34.6142 30.5 34.0485 30.5C33.4829 30.5 33.0243 30.9477 33.0243 31.5V37.5C33.0243 38.0523 33.4829 38.5 34.0485 38.5C34.6142 38.5 35.0728 38.0523 35.0728 37.5V31.5ZM25.8546 30.5C26.4203 30.5 26.8788 30.9477 26.8788 31.5V37.5C26.8788 38.0523 26.4203 38.5 25.8546 38.5C25.2889 38.5 24.8304 38.0523 24.8304 37.5V31.5C24.8304 30.9477 25.2889 30.5 25.8546 30.5ZM39.1698 31.5C39.1698 30.9477 38.7112 30.5 38.1455 30.5C37.5798 30.5 37.1213 30.9477 37.1213 31.5V37.5C37.1213 38.0523 37.5798 38.5 38.1455 38.5C38.7112 38.5 39.1698 38.0523 39.1698 37.5V31.5Z" fill="#E31837"/>
<path d="M20.0192 29.2706L22.0008 29L20.0192 29.2706ZM43.9809 29.2706L45.9625 29.5412V29.5412L43.9809 29.2706ZM42.4787 40.2706L40.4971 40V40L42.4787 40.2706ZM21.5215 40.2706L19.5398 40.5412L21.5215 40.2706ZM22.0008 25C19.5766 25 17.7096 27.1393 18.0376 29.5412L22.0008 29L22.0008 29V25ZM41.9993 25H22.0008V29H41.9993V25ZM45.9625 29.5412C46.2905 27.1393 44.4235 25 41.9993 25V29V29L45.9625 29.5412ZM44.4603 40.5412L45.9625 29.5412L41.9993 29L40.4971 40L44.4603 40.5412ZM40.4971 44C42.497 44 44.1897 42.5228 44.4603 40.5412L40.4971 40L40.4971 40V44ZM23.5031 44H40.4971V40H23.5031V44ZM19.5398 40.5412C19.8105 42.5228 21.5031 44 23.5031 44V40H23.5031L19.5398 40.5412ZM18.0376 29.5412L19.5398 40.5412L23.5031 40L22.0008 29L18.0376 29.5412ZM32.9758 31.5C32.9758 29.7983 31.5764 28.5 29.9516 28.5V32.5C29.4581 32.5 28.9758 32.0972 28.9758 31.5H32.9758ZM32.9758 37.5V31.5H28.9758V37.5H32.9758ZM29.9516 40.5C31.5764 40.5 32.9758 39.2017 32.9758 37.5H28.9758C28.9758 36.9028 29.4581 36.5 29.9516 36.5V40.5ZM26.9273 37.5C26.9273 39.2017 28.3268 40.5 29.9516 40.5V36.5C30.445 36.5 30.9273 36.9028 30.9273 37.5H26.9273ZM26.9273 31.5V37.5H30.9273V31.5H26.9273ZM29.9516 28.5C28.3268 28.5 26.9273 29.7983 26.9273 31.5H30.9273C30.9273 32.0972 30.445 32.5 29.9516 32.5V28.5ZM34.0485 32.5C33.5551 32.5 33.0728 32.0972 33.0728 31.5H37.0728C37.0728 29.7983 35.6734 28.5 34.0485 28.5V32.5ZM35.0243 31.5C35.0243 32.0972 34.542 32.5 34.0485 32.5V28.5C32.4237 28.5 31.0243 29.7983 31.0243 31.5H35.0243ZM35.0243 37.5V31.5H31.0243V37.5H35.0243ZM34.0485 36.5C34.542 36.5 35.0243 36.9028 35.0243 37.5H31.0243C31.0243 39.2017 32.4237 40.5 34.0485 40.5V36.5ZM33.0728 37.5C33.0728 36.9028 33.5551 36.5 34.0485 36.5V40.5C35.6734 40.5 37.0728 39.2017 37.0728 37.5H33.0728ZM33.0728 31.5V37.5H37.0728V31.5H33.0728ZM28.8788 31.5C28.8788 29.7983 27.4794 28.5 25.8546 28.5V32.5C25.3611 32.5 24.8788 32.0972 24.8788 31.5H28.8788ZM28.8788 37.5V31.5H24.8788V37.5H28.8788ZM25.8546 40.5C27.4794 40.5 28.8788 39.2017 28.8788 37.5H24.8788C24.8788 36.9028 25.3611 36.5 25.8546 36.5V40.5ZM22.8304 37.5C22.8304 39.2017 24.2298 40.5 25.8546 40.5V36.5C26.3481 36.5 26.8304 36.9028 26.8304 37.5H22.8304ZM22.8304 31.5V37.5H26.8304V31.5H22.8304ZM25.8546 28.5C24.2298 28.5 22.8304 29.7983 22.8304 31.5H26.8304C26.8304 32.0972 26.3481 32.5 25.8546 32.5V28.5ZM38.1455 32.5C37.6521 32.5 37.1698 32.0972 37.1698 31.5H41.1698C41.1698 29.7983 39.7703 28.5 38.1455 28.5V32.5ZM39.1213 31.5C39.1213 32.0972 38.639 32.5 38.1455 32.5V28.5C36.5207 28.5 35.1213 29.7983 35.1213 31.5H39.1213ZM39.1213 37.5V31.5H35.1213V37.5H39.1213ZM38.1455 36.5C38.639 36.5 39.1213 36.9028 39.1213 37.5H35.1213C35.1213 39.2017 36.5207 40.5 38.1455 40.5V36.5ZM37.1698 37.5C37.1698 36.9028 37.6521 36.5 38.1455 36.5V40.5C39.7703 40.5 41.1698 39.2017 41.1698 37.5H37.1698ZM37.1698 31.5V37.5H41.1698V31.5H37.1698Z" fill="#E31837" mask="url(#path-3-inside-1)"/>
<rect x="28" y="18" width="8" height="4" rx="2" fill="#E31837"/>
<circle cx="44" cy="44" r="7" fill="#FDEDEF" stroke="#E31837" stroke-width="2"/>
<rect x="40" y="43" width="8" height="2" rx="1" fill="#E31837"/>
<rect x="45" y="40" width="8" height="2" rx="1" transform="rotate(90 45 40)" fill="#E31837"/>
</svg>
