<svg width="33" height="31" viewBox="0 0 33 31" fill="none" xmlns="http://www.w3.org/2000/svg">
<path d="M21.8455 19.1096L16.9175 14.4806L11.9895 19.1096L9.71748 16.9905L16.9175 10.2273L24.1175 16.9905L21.8455 19.1096ZM16.9175 30.5168C8.08548 30.5168 0.91748 23.7837 0.91748 15.4875C0.91748 7.19138 8.08548 0.458252 16.9175 0.458252C25.7495 0.458252 32.9175 7.19138 32.9175 15.4875C32.9175 23.7837 25.7495 30.5168 16.9175 30.5168ZM16.9175 3.46411C9.84548 3.46411 4.11748 8.8446 4.11748 15.4875C4.11748 22.1305 9.84548 27.511 16.9175 27.511C23.9895 27.511 29.7175 22.1305 29.7175 15.4875C29.7175 8.8446 23.9895 3.46411 16.9175 3.46411Z" fill="white"/>
</svg>
