<svg width="89" height="70" viewBox="0 0 89 70" fill="none" xmlns="http://www.w3.org/2000/svg">
<path d="M54.4888 58.7447C54.2314 59.1494 53.9836 59.2676 53.6588 59.1941C53.4956 59.1652 53.3489 59.0766 53.247 58.9455C53.145 58.8144 53.095 58.6501 53.1066 58.4842C53.1022 58.1587 53.1407 57.8341 53.2211 57.5187C53.4877 56.479 53.731 55.4274 54.0796 54.4139C54.4725 53.2724 54.9647 52.1544 55.4341 51.0357C55.4981 50.8532 55.6247 50.6994 55.7912 50.6019C55.9577 50.5044 56.1533 50.4696 56.343 50.5036C56.6846 50.5677 56.9335 50.8139 56.9492 51.2837C56.971 51.8034 56.9328 52.3239 56.8353 52.8348C56.5439 54.3182 55.9919 55.7378 55.205 57.0271C54.9308 57.4582 54.8081 57.9833 54.6146 58.4645C54.5712 58.5885 54.5085 58.7016 54.4888 58.7447Z" fill="#FF7D01"/>
<path d="M41.2351 50.0142C41.1412 50.1634 41.0311 50.3045 40.959 50.4637C40.8424 50.7208 40.7532 50.9908 40.6476 51.2534C40.5513 51.493 40.4616 51.7371 40.3438 51.9659C40.2647 52.1098 40.1654 52.2414 40.0489 52.3568C39.7675 52.6489 39.4507 52.6953 39.1166 52.4643C38.8775 52.2989 38.6672 52.0918 38.4511 51.8933C38.4035 51.8379 38.377 51.7673 38.3763 51.6941C38.3671 51.4465 38.3655 51.1974 38.3726 50.9499C38.3825 50.497 38.3247 50.0629 38.0608 49.6783C37.9774 49.5564 37.9809 49.5553 37.87 49.6536C37.3777 50.0875 36.9711 50.599 36.5616 51.1085C36.2267 51.5254 35.892 51.9418 35.5472 52.35C35.2281 52.7273 34.8814 53.0777 34.4567 53.3377C34.1496 53.526 33.823 53.6386 33.451 53.5756C33.1403 53.523 32.9955 53.3339 33.0455 53.0198C33.1108 52.6111 33.2923 52.2482 33.4997 51.8988C34.1895 50.7343 35.0091 49.6524 35.9427 48.6741C36.5132 48.0874 36.9956 47.4204 37.3746 46.6941C37.5169 46.4245 37.6015 46.1281 37.6229 45.8238C37.6294 45.651 37.6791 45.4826 37.7676 45.3342C37.8561 45.1859 37.9805 45.0623 38.1292 44.9751C38.3808 44.8173 38.6352 44.835 38.7907 45.0299C38.843 45.1036 38.8834 45.1851 38.9105 45.2713C38.9332 45.3341 38.9457 45.4001 38.9477 45.4668C38.9692 45.8902 39.0643 46.3066 39.2288 46.6971C39.3757 47.0623 39.4234 47.4549 39.4585 47.8458C39.5036 48.3483 39.5447 48.8494 39.5906 49.3521C39.5975 49.4287 39.6138 49.5041 39.6392 49.5767C39.7071 49.77 39.8909 49.8221 40.0332 49.6732C40.1536 49.5433 40.2594 49.4007 40.3489 49.2477C40.5658 48.8856 40.7645 48.5121 40.9827 48.1503C41.29 47.6414 41.7238 47.2813 42.2911 47.0963C42.6594 46.976 42.9096 47.0792 43.0961 47.4209C43.2497 47.7025 43.3023 48.0143 43.3432 48.327C43.4445 49.0765 43.4909 49.8324 43.4819 50.5886C43.4648 51.6624 43.4482 52.7364 43.415 53.8097C43.403 54.0574 43.3589 54.3024 43.2839 54.5386C43.1756 54.8965 42.8893 55.1148 42.5921 55.3113C42.3505 55.4711 42.1016 55.6195 41.8543 55.7721C41.8096 55.7992 41.7624 55.8217 41.7132 55.8394C41.5271 55.9067 41.3682 55.8501 41.284 55.6712C41.2321 55.5606 41.1946 55.4438 41.1723 55.3236C41.0755 54.7909 41.1075 54.2546 41.1788 53.7244C41.2541 53.1641 41.3665 52.6087 41.4667 52.0514C41.5386 51.6521 41.612 51.2533 41.5677 50.845C41.5456 50.586 41.465 50.3354 41.332 50.1124C41.3144 50.0834 41.2938 50.0552 41.2721 50.0276L41.2351 50.0142Z" fill="#FF7D01"/>
<path d="M46.6153 51.7562C47.1799 50.9748 47.7447 50.1924 48.3145 49.4147C48.4509 49.2205 48.6048 49.0401 48.774 48.8761C49.4018 48.2937 49.9773 48.3547 50.3989 49.0814C50.6226 49.4616 50.7976 49.872 50.9195 50.3025C51.4163 52.1196 51.7859 53.9704 51.9464 55.8671C51.9825 56.3281 51.9866 56.7923 51.9585 57.2561C51.9494 57.5318 51.8856 57.8044 51.7709 58.0567C51.6945 58.2109 51.4799 58.3541 51.3109 58.3867C51.0877 58.4291 51.0075 58.1959 50.9646 58.0028C50.8585 57.526 50.7721 57.0432 50.6668 56.5672C50.5615 56.0913 50.4281 55.6008 50.3196 55.1143C50.282 54.9465 50.202 54.8857 50.038 54.8575C49.0845 54.6928 48.1348 54.5063 47.18 54.3452C47.0529 54.3238 46.8712 54.3625 46.7741 54.4481C46.152 54.9974 45.5409 55.5594 44.9409 56.134C44.7394 56.3262 44.5418 56.4699 44.2843 56.3416C44.0268 56.2133 44.0329 55.9474 44.084 55.6989C44.222 55.0052 44.5487 54.3868 44.9372 53.8164C45.4366 53.0832 45.9898 52.3899 46.52 51.6804L46.6153 51.7562ZM47.7062 52.5127L49.6499 52.5435C49.6244 52.2681 49.6049 51.9851 49.5689 51.7051C49.5473 51.5397 49.5119 51.3771 49.463 51.2191C49.367 50.9086 49.2231 50.8617 48.9574 51.0496C48.8524 51.1187 48.7564 51.2021 48.6722 51.2976C48.3512 51.6906 48.0387 52.0932 47.7067 52.5129L47.7062 52.5127Z" fill="#FF7D01"/>
<path d="M50.5215 46.7607C50.6053 46.8742 50.6887 46.987 50.7747 47.0929C51.3906 47.8496 52.6095 47.5621 53.3959 46.975L53.4256 46.953C53.6479 46.7877 54.0668 46.4763 53.678 46.3859C53.4633 46.3361 53.2271 46.3652 52.9894 46.3945C52.7633 46.4224 52.5358 46.4504 52.3238 46.4108C51.7846 46.3104 51.3751 45.9709 51.1014 45.3933C50.773 44.7 50.3733 44.3291 49.6498 44.4958C49.3637 44.5618 49.0709 44.688 48.7921 44.8164C48.6507 44.8816 48.5044 44.9222 48.3585 44.9627C48.1919 45.009 48.0258 45.0552 47.8682 45.1374C47.1076 45.5344 47.9004 46.2934 48.3358 46.2794C48.5628 46.2719 48.7554 46.1609 48.9397 46.0546C49.2107 45.8982 49.4638 45.7524 49.7821 45.9616C50.0715 46.152 50.2982 46.4587 50.5215 46.7607Z" fill="#FF7D01"/>
<path d="M53.8376 39.2762C53.7252 39.6867 53.6132 40.0974 53.5014 40.5082C53.4373 40.9221 53.4399 41.3388 53.4505 41.7512C53.5051 42.0302 53.7678 42.5923 54.3819 42.6083C54.9961 42.6244 55.1469 41.7272 55.1455 41.2766C55.1707 40.5281 55.205 39.7804 55.2483 39.0335C55.2644 38.7376 55.3571 38.4517 55.5185 38.2C55.7274 37.8762 56.0492 37.6812 56.4041 37.526C56.8757 37.3202 57.3779 37.1926 57.884 37.0794C58.6509 36.9092 59.3585 36.6298 59.9479 36.1364C60.0767 36.0301 60.1927 35.9111 60.2939 35.7814C60.3989 35.6455 60.3392 35.5281 60.1579 35.5018C60.0247 35.4791 59.889 35.4759 59.7557 35.4923C59.4375 35.5001 58.7823 35.4338 58.3874 35.5306C57.627 35.7166 56.9336 36.0438 56.2685 36.4232C56.0936 36.523 55.919 36.6258 55.7346 36.7088C55.391 36.8636 55.6066 36.8816 55.3755 36.5874C55.1353 36.2814 54.9736 35.9388 54.8206 35.5931C54.6215 35.1291 54.3374 34.6992 53.9814 34.3232C53.8483 34.1825 53.7248 34.0342 53.6116 33.8793C53.4312 33.6358 53.3205 33.3718 53.335 33.0703C53.3432 32.884 53.2425 32.7333 53.0829 32.621C53.0332 32.5819 52.7802 32.6804 52.7161 32.6773C52.6519 32.6743 52.589 32.6913 52.5374 32.7256C52.4827 32.7587 52.4336 32.799 52.3915 32.8453C52.2528 32.9959 52.1792 33.1782 52.1252 33.3682C52.0043 33.7942 52.0001 34.2162 52.2354 34.6224C52.3205 34.7694 52.4205 34.909 52.5156 35.0513C52.6683 35.2801 52.8511 35.4961 52.9707 35.7384C53.3213 36.4489 53.6497 37.1689 53.9813 37.8874C54.078 38.0856 54.1019 38.3066 54.0493 38.5154C53.9828 38.7701 53.9072 39.0223 53.8376 39.2762Z" fill="#FF7D01"/>
<path d="M65.793 37.444C66.2555 37.8108 66.6754 38.1171 67.0596 38.4619C67.223 38.6195 67.3493 38.8118 67.4293 39.0246C67.5713 39.3798 67.4123 39.7089 67.038 39.7719C66.6901 39.8461 66.3306 39.8467 65.9825 39.7736C64.9165 39.4889 63.874 39.1279 62.816 38.8119C62.6249 38.7552 62.2916 38.6877 62.2308 38.7673C62.0445 39.0429 61.9486 39.3841 61.8375 39.7067C61.8245 39.7308 61.9561 39.8427 62.0329 39.8594C62.4957 39.9634 62.9718 40.0375 63.4272 40.1524C63.9702 40.2913 64.5135 40.4408 65.0402 40.6317C65.5267 40.8066 65.9127 41.1181 66.0123 41.6745C66.0897 42.1133 65.8848 42.3743 65.4424 42.3853C65.2475 42.3899 65.0526 42.3723 64.8616 42.3327C63.9908 42.1545 63.1276 41.9567 62.2589 41.7693C62.0734 41.7115 61.8805 41.6812 61.6863 41.6795C61.5538 41.6919 61.4324 41.8232 61.3071 41.9018C61.3691 42.0252 61.4447 42.1411 61.5325 42.2476C61.6137 42.3005 61.7062 42.3336 61.8025 42.3444C62.8751 42.6416 63.9528 42.9239 65.0155 43.2394C65.5491 43.3984 66.0367 43.6615 66.3691 44.143C66.6572 44.5615 66.5669 44.8539 66.0695 44.9448C65.7201 45.0185 65.3613 45.0357 65.0065 44.9959C63.7206 44.814 62.4308 44.6447 61.1632 44.3718C59.589 44.034 59.0814 43.2669 59.3322 41.6647C59.4475 40.9301 59.7056 40.2185 59.8921 39.4945C60.0231 38.9794 60.1535 38.4654 60.2724 37.9481C60.3368 37.6625 60.3431 37.3615 60.4282 37.0841C60.6688 36.3065 61.1486 35.8437 61.9743 36.3046C62.673 36.6859 63.4313 36.8235 64.1972 36.9741C64.7575 37.0838 65.2934 37.2932 65.793 37.444Z" fill="#FF7D01"/>
<path d="M74.2097 44.4828C74.6689 43.8434 74.8477 43.1238 75.1093 42.4396C75.3356 41.8483 75.5926 41.2681 75.8749 40.7017C76.0349 40.3784 76.2849 40.0677 76.6927 40.136C77.1005 40.2044 77.2046 40.5724 77.284 40.9283C77.393 41.418 77.2623 41.8779 77.0708 42.3271C76.7157 43.1537 76.3321 43.9702 76.0071 44.809C75.7375 45.5029 75.5393 46.2231 75.3025 46.9292C75.2311 47.1518 75.1455 47.3695 75.0461 47.5812C74.9145 47.857 74.6626 47.9704 74.3829 48.007C74.1032 48.0436 73.9068 47.9013 73.8869 47.6115C73.8401 46.909 73.5162 46.3566 73.0385 45.8871C72.388 45.2518 71.7009 44.6541 71.0662 44.0022C70.5657 43.4893 70.1221 42.9193 69.6542 42.3738L69.4817 42.1774C69.37 42.5369 69.2569 42.8437 69.1802 43.1537C68.9957 43.894 68.8395 44.6497 68.6392 45.3814C68.5614 45.6668 68.4265 45.934 68.243 46.1659C68.1742 46.2404 68.0903 46.2986 67.9973 46.3364C67.9044 46.3742 67.8048 46.3905 67.7058 46.3843C67.6107 46.3547 67.5235 46.3042 67.4503 46.2364C67.377 46.1686 67.3195 46.0851 67.2816 45.9917C67.1979 45.7533 67.1826 45.4942 67.2374 45.2443C67.4441 44.3928 67.6886 43.5493 67.9309 42.7074C68.1598 41.9128 68.3976 41.1218 68.6409 40.3309C68.7338 40.018 68.8441 39.7103 68.9711 39.4094C69.0309 39.2565 69.1372 39.1262 69.2743 39.038C69.447 38.9501 69.6966 38.8635 69.847 38.9301C69.9973 38.9967 70.1258 39.2392 70.1515 39.4229C70.1577 39.5101 70.1836 39.5942 70.2273 39.6687C70.2711 39.7431 70.3314 39.8058 70.4035 39.8519C71.6527 40.7496 72.7232 41.8783 73.5609 43.1812C73.8088 43.58 73.9827 44.0253 74.2097 44.4828Z" fill="#FF7D01"/>
<path d="M39.8785 32.4809C39.9925 32.0545 40.1027 31.6379 40.2147 31.2208C40.2335 31.1479 40.2517 31.0732 40.2728 31.0016C40.4423 30.4154 40.7433 30.1326 41.2122 30.1108C41.6491 30.0878 42.0207 30.3738 42.2222 30.9278C42.4753 31.6184 42.4893 32.2973 42.1455 32.9815C42.0531 33.1965 42.0273 33.4345 42.0715 33.6644C42.1584 34.1597 42.0834 34.6699 41.8578 35.1189C41.5926 35.642 41.4368 36.2141 41.4002 36.7999C41.3793 37.2236 41.3231 37.6415 40.9836 37.9626C40.4518 38.464 39.7772 38.3958 39.3755 37.783C39.1227 37.4095 39.0147 36.956 39.0719 36.508C39.1608 35.814 39.275 35.1114 39.4079 34.4206C39.4512 34.1933 39.4293 34.067 39.1976 34.0088C38.291 33.771 37.3794 33.526 36.47 33.2852C36.1957 33.2127 36.0311 33.3338 35.8918 33.5637C35.4634 34.2941 35.1468 35.0851 34.9526 35.91C34.837 36.3667 34.5729 36.7097 34.096 36.8474C33.5139 37.0154 33.1528 36.7783 33.1863 36.1728C33.2077 35.6969 33.2917 35.2259 33.436 34.772C33.708 33.961 34.0455 33.1739 34.3641 32.378C34.5127 32.0253 34.5414 31.6334 34.4459 31.2627C34.3886 31.058 34.376 30.8432 34.4091 30.6332C34.4422 30.4231 34.5201 30.2226 34.6375 30.0456C35.0377 29.413 35.7899 29.3705 36.1624 30.0238C36.3753 30.3954 36.4533 30.8523 36.5355 31.2878C36.5823 31.551 36.6613 31.6728 36.9266 31.7373C37.8188 31.9525 38.7035 32.2006 39.5922 32.4331C39.6751 32.4576 39.761 32.4629 39.8785 32.4809Z" fill="#FF7D01"/>
<path d="M28.6449 31.769C28.4619 32.4429 28.3207 33.0534 28.1247 33.6475C28.0106 33.986 27.847 34.3057 27.6393 34.5959C27.5021 34.7367 27.3153 34.8178 27.1192 34.8215C26.8745 34.8365 26.7338 34.632 26.7005 34.3985C26.6734 34.1831 26.6659 33.9657 26.6779 33.749C26.7328 32.2819 27.1191 30.8828 27.5707 29.4971C27.8011 28.7986 27.9935 28.0853 28.2343 27.3894C28.3328 27.1023 28.4746 26.8321 28.6548 26.5882C28.9248 26.2262 29.2607 26.2505 29.5487 26.6008C29.6355 26.7131 29.6941 26.8447 29.7195 26.9844C29.745 27.1242 29.7367 27.2681 29.6951 27.404C29.6394 27.6543 29.5619 27.8986 29.4782 28.2034C29.6675 28.1609 29.8547 28.1088 30.0389 28.0475C30.7571 27.7726 31.4664 27.4899 32.1871 27.2104C32.4066 27.1196 32.6343 27.0504 32.867 27.0037C33.0346 26.9777 33.2059 26.9885 33.3689 27.0356C33.6656 27.1187 33.9409 27.315 33.9397 27.6203C33.9333 27.745 33.9015 27.8671 33.8463 27.979C33.7911 28.0908 33.7135 28.1902 33.6186 28.2708C33.1731 28.5767 32.7054 28.8487 32.2195 29.0845C31.7868 29.3073 31.3268 29.4766 30.8925 29.697C30.228 30.0309 30.0502 30.4329 30.2893 31.1277C30.5733 31.9362 30.9321 32.7186 31.2073 33.5297C31.4078 34.1477 31.5723 34.777 31.6999 35.4143C31.7368 35.6385 31.7143 35.8685 31.6346 36.0812C31.4466 36.6142 30.9264 36.7254 30.575 36.2871C30.305 35.9485 30.0839 35.5734 29.9182 35.1728C29.5646 34.31 29.2646 33.4245 28.938 32.5497C28.8638 32.3072 28.7638 32.0685 28.6449 31.769Z" fill="#FF7D01"/>
<path d="M44.0352 33.9285C44.2622 32.8387 44.635 31.9566 45.306 31.226C45.6636 30.8432 46.1473 30.8646 46.4051 31.2828C46.4425 31.3492 46.4645 31.4233 46.4696 31.4995C46.4747 31.5757 46.4627 31.652 46.4345 31.7229C45.5814 33.1115 45.4393 34.6614 45.387 36.2327C45.3768 36.5468 45.3717 36.8621 45.393 37.1729C45.4362 37.9395 45.9172 38.2942 46.653 38.086C47.7166 37.7843 48.3922 37.0454 48.7534 36.0318C49.0764 35.1231 49.3235 34.1855 49.6206 33.268C49.7273 32.9387 49.8795 32.626 50.0726 32.339C50.3806 31.8948 50.8679 31.9694 51.0852 32.4677C51.1622 32.6593 51.2003 32.8643 51.1973 33.0709C51.1944 33.2774 51.1504 33.4813 51.068 33.6706C50.6082 34.8752 50.136 36.0756 49.6436 37.2658C49.2838 38.1694 48.675 38.9515 47.8885 39.5203C46.1827 40.7473 43.975 39.7867 43.6906 37.6966C43.5784 36.8773 43.6899 36.0724 43.8068 35.2674C43.8846 34.7804 43.9743 34.2882 44.0352 33.9285Z" fill="#FF7D01"/>
<path d="M65.9114 35.9897C65.7644 35.8939 65.5951 35.8178 65.475 35.6984C64.8603 35.0875 64.5176 34.3476 64.2869 33.5531C64.2556 33.4726 64.2518 33.3858 64.2761 33.305C64.3431 33.168 64.4191 33.0012 64.5451 32.9343C64.6317 32.8889 64.8406 32.9575 64.9429 33.0356C65.6901 33.6061 66.1351 34.3663 66.4445 35.1989C66.4867 35.342 66.4954 35.4911 66.4701 35.6356C66.4381 35.9155 66.2211 36.0387 65.9114 35.9897Z" fill="#FF7D01"/>
<path d="M62.1771 34.9575C62.2725 34.8099 62.3484 34.64 62.4673 34.5194C63.0758 33.9023 63.8128 33.5583 64.6043 33.3266C64.6844 33.2952 64.7709 33.2914 64.8513 33.3158C64.9879 33.3831 65.154 33.4594 65.2207 33.5858C65.2659 33.6728 65.1976 33.8826 65.1198 33.9852C64.5514 34.7354 63.7942 35.1821 62.9649 35.4927C62.8223 35.535 62.6738 35.5438 62.5298 35.5184C62.251 35.4863 62.1283 35.2684 62.1771 34.9575Z" fill="#FF7D01"/>
<path d="M66.6261 33.6882C66.7157 33.5495 66.787 33.3899 66.8988 33.2766C67.4706 32.6967 68.1631 32.3734 68.9068 32.1557C68.9821 32.1262 69.0634 32.1227 69.139 32.1456C69.2673 32.2088 69.4234 32.2805 69.486 32.3993C69.5285 32.481 69.4644 32.6781 69.3913 32.7746C68.8572 33.4795 68.1456 33.8993 67.3664 34.1912C67.2324 34.2309 67.0928 34.2392 66.9576 34.2153C66.6956 34.1851 66.5803 33.9804 66.6261 33.6882Z" fill="#FF7D01"/>
<path d="M40.0643 15.9539C41.469 15.9095 42.8737 15.8064 44.2771 15.8364C45.6585 15.8664 47.0424 15.9813 48.4147 16.147C50.104 16.3518 51.7738 16.6337 53.4475 16.909C54.8092 17.1146 56.121 17.5726 57.3161 18.2595C57.6708 18.4669 58.0957 18.5635 58.509 18.6509C59.5122 18.8832 60.4946 19.1389 61.4055 19.6582C62.5035 20.2832 63.6848 20.6316 64.9738 20.5716C65.3096 20.5726 65.6412 20.6465 65.9458 20.7881C67.153 21.3022 68.4148 21.571 69.7143 21.7198C70.8466 21.8482 71.944 22.1927 72.9474 22.7349C75.1565 23.9367 77.3448 25.1658 79.5357 26.3975C80.1903 26.7443 80.7503 27.247 81.1666 27.8615C81.3453 28.1075 81.5501 28.3332 81.7773 28.5348C83.5056 30.2036 85.0468 32.0186 86.0396 34.2368C86.3429 34.9187 86.6928 35.5788 87.087 36.2122C87.9446 37.5875 88.3864 39.1258 88.593 40.7164C88.7828 42.1347 88.8893 43.5661 88.9972 44.9935C89.0132 45.3292 88.9619 45.6646 88.8464 45.98C88.3747 47.3435 88.1499 48.7514 88.0213 50.1827C87.9303 51.1966 87.9186 52.2196 87.5964 53.2047C87.3079 54.0841 86.9102 54.9009 86.2891 55.5833C85.3158 56.6493 84.5491 57.855 83.8084 59.0841C82.2075 61.7407 80.3167 64.165 78.0075 66.2409C76.8783 67.256 75.597 67.885 74.0182 67.7088C73.474 67.654 72.9285 67.7986 72.4822 68.1159C71.8287 68.5299 71.0849 68.7785 70.3147 68.8401C68.1705 69.058 66.0264 69.3203 63.8849 69.4925C62.6049 69.5917 61.3132 69.5421 60.0268 69.5721C59.6499 69.568 59.2737 69.603 58.904 69.6765C57.3395 70.0505 55.7155 70.1007 54.131 69.824C53.0018 69.6282 51.8765 69.3829 50.7706 69.0789C47.3426 68.1394 43.8964 67.2952 40.3618 66.8542C39.7399 66.7659 39.1237 66.6404 38.5166 66.4784C37.8322 66.3051 37.1942 65.9825 36.6479 65.5337C35.0171 64.2289 33.1537 63.326 31.2538 62.4948C30.7574 62.2782 30.2572 62.0695 29.7712 61.832C29.4263 61.6703 29.1201 61.4359 28.8734 61.1448C28.6268 60.8537 28.4455 60.5126 28.3417 60.1449C28.2521 59.8592 27.9688 59.5877 27.7063 59.409C26.5108 58.5935 25.1723 58.0964 23.7832 57.7258C23.4267 57.6343 23.0765 57.5201 22.7345 57.3839C22.448 57.2761 22.1936 57.0967 21.9953 56.8627C21.797 56.6287 21.6614 56.3478 21.6014 56.0465C21.478 55.4679 21.1445 54.9562 20.6657 54.6112C19.8575 53.9914 19.0622 53.3495 18.224 52.7728C16.8947 51.8594 16.0604 50.5768 15.4172 49.1363C15.3342 48.9125 15.2157 48.7037 15.0663 48.5178C14.2646 47.6514 13.9189 46.5906 13.7227 45.4619C13.5407 44.4181 13.3744 43.3638 13.1964 42.3161C13.0482 41.4419 12.8481 40.5729 12.7481 39.6921C12.5973 38.3547 12.8325 37.0499 13.2367 35.7777C13.3715 35.3869 13.3931 34.9657 13.299 34.563C13.0937 33.7057 13.1431 32.838 13.2614 31.9716C13.4134 30.8443 13.5278 29.7078 13.7266 28.5883C13.8266 28.0298 14.0592 27.4922 14.2684 26.9599C14.5179 26.3231 14.7973 25.6981 15.0832 25.077C15.2327 24.7548 15.3743 24.4051 15.603 24.148C16.8206 22.8028 18.072 21.5032 19.747 20.6942C21.8262 19.6882 23.9677 18.844 26.1144 18.0167C27.9083 17.3477 29.7727 16.8872 31.671 16.6441C32.912 16.4706 34.14 16.1887 35.3849 16.0687C36.9325 15.9173 38.4932 15.8834 40.0474 15.7986L40.0643 15.9539ZM62.8375 65.7973V65.7047C63.8329 65.7047 64.8283 65.7268 65.8263 65.6942C66.258 65.6631 66.6856 65.5884 67.1024 65.4711C70.5109 64.6451 73.8856 63.7227 76.9939 62.0173C78.0985 61.4106 79.1888 60.7908 80.1127 59.9296C82.7961 57.4335 83.7512 54.182 83.9825 50.6746C84.0566 49.5264 83.7369 48.3521 83.5927 47.1895C83.4627 46.13 83.4199 45.0888 84.0293 44.1297C84.1338 43.9397 84.1959 43.7291 84.2112 43.5126C84.3412 42.3917 84.462 41.2696 84.5946 40.1488C84.6142 40.0003 84.6032 39.8493 84.5623 39.7052C84.5214 39.5611 84.4515 39.427 84.3568 39.3111C83.2678 37.8324 82.1901 36.3492 81.1237 34.8618C80.6468 34.1976 80.1738 33.523 79.4487 33.1146C78.8869 32.8106 78.3674 32.4338 77.9036 31.9938C77.7891 31.8953 77.6655 31.8079 77.5345 31.7328C75.1812 30.2049 72.8317 28.6665 70.468 27.153C69.392 26.4653 68.307 25.7842 67.1855 25.1749C66.2824 24.7035 65.356 24.2784 64.4099 23.9014C63.4626 23.51 62.5217 23.0311 61.5289 22.821C59.212 22.3304 56.869 21.9533 54.5287 21.5789C53.4677 21.4104 52.3849 21.44 51.3346 21.6663C50.5066 21.8307 49.6618 21.8925 48.8188 21.8503C47.0139 21.7733 45.2128 21.5984 43.4091 21.4797C41.7354 21.3701 40.0669 21.1783 38.3841 21.267C37.3029 21.3231 36.2178 21.3819 35.1354 21.3362C33.1862 21.2553 31.2539 21.3362 29.3579 21.772C26.3211 22.4713 23.4193 23.5856 20.5397 24.773C19.3988 25.2427 18.6736 26.0778 18.2552 27.1726C17.5587 28.9993 16.9233 30.8416 16.306 32.6905C16.037 33.4891 15.8772 34.3255 15.6446 35.1384C15.2885 36.3844 15.451 37.6175 15.7511 38.8336C16.2241 40.749 16.7517 42.6501 17.2299 44.5642C17.4252 45.2743 17.5599 45.9998 17.6328 46.7328C17.6425 47.0625 17.7438 47.3829 17.9252 47.6579C18.1066 47.9418 18.3132 48.2086 18.5424 48.4552C19.2948 49.2042 20.0381 49.9675 20.8412 50.6603C23.127 52.6345 25.6596 54.2772 28.1104 56.0296C29.853 57.277 31.593 58.5087 33.6085 59.3268C35.1575 59.957 36.6168 60.8117 38.1164 61.5632C38.2125 61.6115 38.3256 61.6937 38.4139 61.6716C38.8792 61.5802 39.2664 61.7903 39.6458 61.9847C40.5334 62.4375 41.4001 62.928 42.2877 63.3808C42.5726 63.5339 42.8795 63.6417 43.1973 63.7005C44.1888 63.8636 45.1985 63.934 46.1796 64.1389C47.3946 64.392 48.5784 64.7913 49.7921 65.0431C51.1761 65.3354 52.5769 65.5415 53.9699 65.7895C54.0627 65.8146 54.1605 65.8147 54.2534 65.7898C54.3463 65.7648 54.4309 65.7156 54.4988 65.6473C54.6211 65.5401 54.7646 65.4601 54.9198 65.4124C55.6813 65.1538 56.4919 65.0748 57.2888 65.1815C57.4666 65.2149 57.6408 65.266 57.8086 65.3341C57.9749 65.3902 58.1334 65.5064 58.3024 65.5181C59.8136 65.6068 61.3262 65.6955 62.8375 65.7908V65.7973Z" fill="#FF7D01"/>
<path d="M21.9237 15.0395C21.0622 15.0252 20.3955 14.9704 19.9472 14.4132C19.6937 14.1038 19.5082 13.7441 19.4027 13.3576C18.5269 9.752 17.6688 6.14202 16.8284 2.5277C16.7907 2.35711 16.7962 2.17974 16.8445 2.01186C16.8928 1.84398 16.9823 1.69095 17.1047 1.5668C17.2272 1.44266 17.3788 1.35138 17.5455 1.30132C17.7122 1.25126 17.8888 1.24403 18.059 1.28029C18.4695 1.3737 18.8706 1.50473 19.2572 1.67174C19.339 1.71435 19.4098 1.77542 19.4641 1.85013C19.5184 1.92483 19.5548 2.01115 19.5704 2.10233C19.5704 4.16784 20.328 6.00112 21.2389 7.79262C21.9757 9.24357 22.7216 10.6893 23.4103 12.1624C23.6378 12.6504 23.7378 13.2063 23.8197 13.7517C23.8639 14.0374 23.7625 14.3532 23.6897 14.6442C23.6663 14.7316 23.5091 14.8216 23.4025 14.8399C22.849 14.9247 22.285 14.9939 21.9237 15.0395Z" fill="#FF7D01"/>
<path d="M7.3369 25.3016C6.87689 25.3081 6.3753 25.1124 5.98156 24.5331C4.09603 21.759 2.1754 19.0098 0.263879 16.2527C0.0637597 15.9644 -0.0739782 15.6669 0.0429744 15.3107C0.0833039 15.1738 0.156011 15.0488 0.2549 14.9462C0.353789 14.8437 0.475915 14.7667 0.61086 14.7218C0.745804 14.677 0.889567 14.6656 1.02986 14.6886C1.17015 14.7116 1.30282 14.7683 1.41653 14.854C2.26885 15.4483 3.08707 16.0904 3.86732 16.7773C5.16679 17.9686 6.1531 19.4404 7.19138 20.86C7.74106 21.6142 8.32061 22.3449 8.90277 23.0782C9.0782 23.2987 9.17959 23.5114 9.08862 23.7919C9.02885 23.9772 8.99506 24.1716 8.92229 24.3517C8.62731 25.0902 8.31671 25.3016 7.3369 25.3016Z" fill="#FF7D01"/>
<path d="M38.1045 0C38.1552 0.139614 38.1929 0.22572 38.2162 0.314446C38.9544 3.06758 39.6963 5.81942 40.4163 8.57647C40.4965 8.90123 40.5115 9.23876 40.4604 9.56941C40.2941 10.6707 39.4417 11.1704 38.4138 10.7607C37.5392 10.4123 36.8713 9.82777 36.497 8.92354C35.6914 6.97286 35.7382 5.01565 36.5048 3.08715C36.8947 2.11377 37.4288 1.20173 37.9018 0.263573C37.9621 0.170354 38.0299 0.0822056 38.1045 0Z" fill="#FF7D01"/>
<path d="M53.7761 3.96147C53.6617 5.28193 53.5409 6.76289 53.4018 8.24384C53.3265 9.04239 53.2394 9.84093 53.1198 10.6343C53.0878 10.8666 52.9751 11.0801 52.8015 11.2371C52.5025 11.4485 52.177 11.6192 51.8333 11.7446C51.6743 11.8044 51.5019 11.8186 51.3353 11.7856C51.1687 11.7527 51.0145 11.6739 50.8899 11.558C50.7153 11.4124 50.5504 11.2555 50.3961 11.0883C50.2303 10.9314 50.1143 10.7288 50.0625 10.5061C50.0108 10.2833 50.0255 10.0501 50.105 9.8357C50.7846 7.70626 51.4435 5.57029 52.1023 3.43302C52.1621 3.2373 52.2544 3.17209 52.4493 3.20079C52.8236 3.2569 53.2004 3.29211 53.5747 3.34691C53.7969 3.38084 53.7969 3.39127 53.7761 3.96147Z" fill="#FF7D01"/>
</svg>
