<svg width="25" height="25" viewBox="0 0 25 25" fill="none" xmlns="http://www.w3.org/2000/svg">
<path d="M20.0137 10.3596C20.0137 16.7232 12.0137 22.1777 12.0137 22.1777C12.0137 22.1777 4.01367 16.7232 4.01367 10.3596C4.01367 8.1896 4.85653 6.10852 6.35682 4.57413C7.85711 3.03974 9.89194 2.17773 12.0137 2.17773C14.1354 2.17773 16.1702 3.03974 17.6705 4.57413C19.1708 6.10852 20.0137 8.1896 20.0137 10.3596Z" stroke="#FF7D01" stroke-width="1.5" stroke-linecap="round" stroke-linejoin="round"/>
<path d="M12.0137 13.1777C13.6705 13.1777 15.0137 11.8346 15.0137 10.1777C15.0137 8.52088 13.6705 7.17773 12.0137 7.17773C10.3568 7.17773 9.01367 8.52088 9.01367 10.1777C9.01367 11.8346 10.3568 13.1777 12.0137 13.1777Z" stroke="#FF7D01" stroke-width="1.5" stroke-linecap="round" stroke-linejoin="round"/>
</svg>
