<svg width="32" height="32" viewBox="0 0 32 32" fill="none" xmlns="http://www.w3.org/2000/svg">
<path d="M23.5 3.00951C25.7806 4.32623 27.6744 6.22016 28.9909 8.50088C30.3075 10.7816 31.0004 13.3687 31 16.0022L16 15.9999L23.5 3.00951Z" fill="#F4EFE1"/>
<path d="M8.49998 3.00962C10.7806 1.69291 13.3677 0.999803 16.0011 1C18.6345 1.0002 21.2215 1.69369 23.5019 3.01075L16 15.9999L8.49998 3.00962Z" fill="#F4EFE1"/>
<path d="M1.00002 16C1.00002 13.3666 1.69332 10.7795 3.0102 8.49901C4.32708 6.21848 6.22114 4.32484 8.50195 3.00846L16 15.9999L1.00002 16Z" fill="#F4EFE1"/>
<path d="M8.49999 28.9904C6.21938 27.6737 4.3256 25.7797 3.00906 23.499C1.69251 21.2183 0.999607 18.6312 1 15.9977L16 15.9999L8.49999 28.9904Z" fill="#F4EFE1"/>
<path d="M23.5 28.9904C21.2194 30.3071 18.6323 31.0002 15.9989 31C13.3655 30.9998 10.7785 30.3063 8.49808 28.9893L16 15.9999L23.5 28.9904Z" fill="#F4EFE1"/>
<path d="M31 16C31 18.6334 30.3067 21.2205 28.9898 23.501C27.6729 25.7815 25.7789 27.6752 23.4981 28.9915L16 15.9999L31 16Z" fill="#F4EFE1"/>
<path d="M16 15.9999L31 16.0022C31.0004 13.3687 30.3075 10.7816 28.9909 8.50088C27.6744 6.22016 25.7806 4.32623 23.5 3.00951L16 15.9999ZM16 15.9999L23.5019 3.01075C21.2215 1.69369 18.6345 1.0002 16.0011 1C13.3677 0.999803 10.7806 1.69291 8.49998 3.00962L16 15.9999ZM16 15.9999L8.50195 3.00846C6.22114 4.32484 4.32708 6.21848 3.0102 8.49901C1.69332 10.7795 1.00002 13.3666 1.00002 16L16 15.9999ZM16 15.9999L1 15.9977C0.999607 18.6312 1.69251 21.2183 3.00906 23.499C4.3256 25.7797 6.21937 27.6737 8.49999 28.9904L16 15.9999ZM16 15.9999L8.49808 28.9893C10.7785 30.3063 13.3655 30.9998 15.9989 31C18.6323 31.0002 21.2194 30.3071 23.5 28.9904L16 15.9999ZM16 15.9999L23.498 28.9915C25.7789 27.6752 27.6729 25.7815 28.9898 23.501C30.3067 21.2205 31 18.6334 31 16L16 15.9999Z" stroke="#D9C38E"/>
</svg>
