<svg width="24" height="24" viewBox="0 0 24 24" fill="none" xmlns="http://www.w3.org/2000/svg">
<path d="M12 1C10.5555 1 9.12507 1.28452 7.79048 1.83732C6.4559 2.39013 5.24327 3.20038 4.22183 4.22182C3.20038 5.24327 2.39013 6.4559 1.83733 7.79048C1.28452 9.12506 1 10.5555 1 12L12 12L12 1Z" fill="#F4EFE1"/>
<path d="M1 12C1 13.4445 1.28452 14.8749 1.83732 16.2095C2.39013 17.5441 3.20038 18.7567 4.22182 19.7782C5.24327 20.7996 6.4559 21.6099 7.79048 22.1627C9.12506 22.7155 10.5555 23 12 23L12 12L1 12Z" fill="#F4EFE1"/>
<path d="M12 23C13.4445 23 14.8749 22.7155 16.2095 22.1627C17.5441 21.6099 18.7567 20.7996 19.7782 19.7782C20.7996 18.7567 21.6099 17.5441 22.1627 16.2095C22.7155 14.8749 23 13.4445 23 12L12 12L12 23Z" fill="#F4EFE1"/>
<path d="M23 12C23 10.5555 22.7155 9.12506 22.1627 7.79048C21.6099 6.4559 20.7996 5.24327 19.7782 4.22182C18.7567 3.20038 17.5441 2.39013 16.2095 1.83732C14.8749 1.28452 13.4445 1 12 1L12 12L23 12Z" fill="#F4EFE1"/>
<path d="M12 1C10.5555 1 9.12507 1.28452 7.79048 1.83732C6.4559 2.39013 5.24327 3.20038 4.22183 4.22182C3.20038 5.24327 2.39013 6.4559 1.83733 7.79048C1.28452 9.12506 1 10.5555 1 12M12 1L12 12M12 1C13.4445 1 14.8749 1.28452 16.2095 1.83732C17.5441 2.39013 18.7567 3.20038 19.7782 4.22182C20.7996 5.24327 21.6099 6.4559 22.1627 7.79048C22.7155 9.12506 23 10.5555 23 12M1 12L12 12M1 12C1 13.4445 1.28452 14.8749 1.83732 16.2095C2.39013 17.5441 3.20038 18.7567 4.22182 19.7782C5.24327 20.7996 6.4559 21.6099 7.79048 22.1627C9.12506 22.7155 10.5555 23 12 23M12 12L12 23M12 12L23 12M12 23C13.4445 23 14.8749 22.7155 16.2095 22.1627C17.5441 21.6099 18.7567 20.7996 19.7782 19.7782C20.7996 18.7567 21.6099 17.5441 22.1627 16.2095C22.7155 14.8749 23 13.4445 23 12" stroke="#D9C38E"/>
</svg>
