<svg width="21" height="22" viewBox="0 0 21 22" fill="none" xmlns="http://www.w3.org/2000/svg">
<path d="M4.59375 8.24316C4.59375 8.24316 5.78125 9.54499 10.5312 9.54499C15.2812 9.54499 16.4688 8.24316 16.4688 8.24316L14.7072 17.4696C14.6941 17.5383 14.6731 17.6052 14.6324 17.662C14.4221 17.9556 13.5248 18.8748 10.5312 18.8748C7.53774 18.8748 6.64039 17.9556 6.43011 17.662C6.38944 17.6052 6.36838 17.5383 6.35528 17.4696L4.59375 8.24316Z" fill="#F47A53"/>
<path fill-rule="evenodd" clip-rule="evenodd" d="M4.39796 7.85195C4.57065 7.76551 4.77926 7.80263 4.91154 7.94246C4.91179 7.9427 4.91209 7.94299 4.91245 7.94334C4.91573 7.94652 4.92403 7.95435 4.93794 7.96621C4.96574 7.98991 5.01616 8.02989 5.09397 8.08108C5.24946 8.18335 5.51575 8.33127 5.93144 8.48317C6.76354 8.78724 8.1951 9.10751 10.5313 9.10751C12.8675 9.10751 14.299 8.78724 15.1311 8.48317C15.5468 8.33127 15.8131 8.18335 15.9686 8.08108C16.0464 8.02989 16.0968 7.98991 16.1246 7.96621C16.1385 7.95435 16.1468 7.94652 16.1501 7.94334C16.1505 7.94299 16.1508 7.9427 16.151 7.94246C16.2833 7.80263 16.4919 7.76551 16.6646 7.85195C16.8397 7.93959 16.9352 8.1329 16.8985 8.32523L15.137 17.5517C15.1184 17.6494 15.0813 17.7866 14.9881 17.9167C14.6703 18.3605 13.6158 19.3123 10.5313 19.3123C7.44678 19.3123 6.39226 18.3605 6.07445 17.9167C5.98127 17.7866 5.94422 17.6494 5.92557 17.5517L4.16404 8.32523C4.12732 8.1329 4.22286 7.93959 4.39796 7.85195ZM15.9559 8.59646C16.3296 8.39577 16.4688 8.24318 16.4688 8.24318L14.7073 17.4696C14.6942 17.5383 14.6731 17.6052 14.6324 17.662C14.4221 17.9556 13.5248 18.8748 10.5313 18.8748C7.53777 18.8748 6.64043 17.9556 6.43015 17.662C6.38947 17.6052 6.36841 17.5383 6.35531 17.4696L4.59378 8.24318C4.59378 8.24318 4.73296 8.39577 5.10663 8.59646C5.82442 8.98197 7.40747 9.54501 10.5313 9.54501C13.6551 9.54501 15.2381 8.98197 15.9559 8.59646Z" fill="#C1461E"/>
<path d="M9.63195 18.8443C9.90837 18.8638 10.2075 18.8746 10.5312 18.8746C10.8548 18.8746 11.1539 18.8638 11.4304 18.8443L11.9573 9.50195C11.522 9.52939 11.0477 9.54478 10.5312 9.54478C10.0147 9.54478 9.54029 9.52939 9.10498 9.50195L9.63195 18.8443Z" fill="#FFE4C4"/>
<path d="M14.7074 17.4696L16.4689 8.24316C16.4689 8.24316 15.8167 8.95815 13.5456 9.32838L12.9458 18.6082C14.0639 18.3132 14.495 17.854 14.6325 17.662C14.6732 17.6052 14.6943 17.5383 14.7074 17.4696Z" fill="#E25F35"/>
<path d="M6.35425 17.4711L4.59272 8.24463C4.59272 8.24463 4.94963 8.6359 6.05478 8.98943L7.33789 18.3365C6.78198 18.0813 6.52875 17.8025 6.4292 17.6636C6.38851 17.6068 6.36735 17.5397 6.35425 17.4711Z" fill="#FFAA8F"/>
<path d="M14.7073 17.4696L16.4688 8.24316C16.4688 8.24316 16.1119 8.63443 15.0067 8.98796L13.7236 18.3351C14.2795 18.0798 14.5328 17.8011 14.6323 17.6621C14.673 17.6053 14.6942 17.5383 14.7073 17.4696Z" fill="#EE8E59"/>
<path fill-rule="evenodd" clip-rule="evenodd" d="M7.00586 10.4898C7.12707 10.4842 7.23804 10.5763 7.25372 10.6955L7.6707 13.8674C7.68638 13.9866 7.60082 14.0879 7.47961 14.0936C7.35839 14.0992 7.24742 14.0071 7.23174 13.8879L6.81476 10.716C6.79909 10.5967 6.88464 10.4955 7.00586 10.4898Z" fill="#FFE6DF"/>
<path d="M13.3149 17.8597C13.3149 18.0794 13.1208 18.2575 12.8813 18.2575C12.6419 18.2575 12.4478 18.0794 12.4478 17.8597C12.4478 17.64 12.6419 17.4619 12.8813 17.4619C13.1208 17.4619 13.3149 17.64 13.3149 17.8597Z" fill="#C04923"/>
<path d="M14.3828 17.3457C14.3828 17.5105 14.2372 17.644 14.0576 17.644C13.878 17.644 13.7324 17.5105 13.7324 17.3457C13.7324 17.1809 13.878 17.0474 14.0576 17.0474C14.2372 17.0474 14.3828 17.1809 14.3828 17.3457Z" fill="#C04923"/>
<path d="M13.5015 16.7656C13.5015 16.9304 13.3559 17.064 13.1763 17.064C12.9967 17.064 12.8511 16.9304 12.8511 16.7656C12.8511 16.6009 12.9967 16.4673 13.1763 16.4673C13.3559 16.4673 13.5015 16.6009 13.5015 16.7656Z" fill="#C04923"/>
<path d="M14.8022 15.3735C14.8022 15.5383 14.6567 15.6719 14.4771 15.6719C14.2975 15.6719 14.1519 15.5383 14.1519 15.3735C14.1519 15.2088 14.2975 15.0752 14.4771 15.0752C14.6567 15.0752 14.8022 15.2088 14.8022 15.3735Z" fill="#C04923"/>
<path d="M13.9351 15.6715C13.9351 15.7814 13.838 15.8704 13.7183 15.8704C13.5985 15.8704 13.5015 15.7814 13.5015 15.6715C13.5015 15.5617 13.5985 15.4727 13.7183 15.4727C13.838 15.4727 13.9351 15.5617 13.9351 15.6715Z" fill="#C04923"/>
<path d="M14.8022 14.4782C14.8022 14.588 14.7052 14.6771 14.5854 14.6771C14.4657 14.6771 14.3687 14.588 14.3687 14.4782C14.3687 14.3683 14.4657 14.2793 14.5854 14.2793C14.7052 14.2793 14.8022 14.3683 14.8022 14.4782Z" fill="#C04923"/>
<path d="M14.5674 16.3511C14.5674 16.5158 14.4218 16.6494 14.2422 16.6494C14.0626 16.6494 13.917 16.5158 13.917 16.3511C13.917 16.1863 14.0626 16.0527 14.2422 16.0527C14.4218 16.0527 14.5674 16.1863 14.5674 16.3511Z" fill="#C04923"/>
<path d="M14.1519 14.5776C14.1519 14.7424 14.0063 14.876 13.8267 14.876C13.6471 14.876 13.5015 14.7424 13.5015 14.5776C13.5015 14.4129 13.6471 14.2793 13.8267 14.2793C14.0063 14.2793 14.1519 14.4129 14.1519 14.5776Z" fill="#C04923"/>
<path d="M14.5854 13.6828C14.5854 13.7926 14.4884 13.8817 14.3687 13.8817C14.2489 13.8817 14.1519 13.7926 14.1519 13.6828C14.1519 13.5729 14.2489 13.4839 14.3687 13.4839C14.4884 13.4839 14.5854 13.5729 14.5854 13.6828Z" fill="#C04923"/>
<path d="M11.9961 18.0417C11.9961 18.1515 11.899 18.2405 11.7793 18.2405C11.6596 18.2405 11.5625 18.1515 11.5625 18.0417C11.5625 17.9318 11.6596 17.8428 11.7793 17.8428C11.899 17.8428 11.9961 17.9318 11.9961 18.0417Z" fill="#C04923"/>
<path d="M16.4688 8.2431C16.4688 9.20174 13.8104 9.97887 10.5312 9.97887C7.25206 9.97887 4.59375 9.20174 4.59375 8.2431C4.59375 7.28446 7.25206 6.50732 10.5312 6.50732C13.8104 6.50732 16.4688 7.28446 16.4688 8.2431Z" fill="#952C0A"/>
<path fill-rule="evenodd" clip-rule="evenodd" d="M14.8525 9.8904C13.728 10.2191 12.2003 10.4164 10.5312 10.4164C8.86217 10.4164 7.33452 10.2191 6.21004 9.8904C5.65069 9.72688 5.16619 9.52372 4.8116 9.27864C4.47036 9.04279 4.15625 8.7001 4.15625 8.2431C4.15625 7.7861 4.47036 7.44341 4.8116 7.20756C5.16619 6.96247 5.65069 6.75932 6.21004 6.5958C7.33452 6.26707 8.86217 6.06982 10.5312 6.06982C12.2003 6.06982 13.728 6.26707 14.8525 6.5958C15.4118 6.75932 15.8963 6.96247 16.2509 7.20756C16.5921 7.44341 16.9062 7.7861 16.9062 8.2431C16.9062 8.7001 16.5921 9.04279 16.2509 9.27864C15.8963 9.52372 15.4118 9.72688 14.8525 9.8904ZM10.5312 9.97887C13.8104 9.97887 16.4688 9.20174 16.4688 8.2431C16.4688 7.28446 13.8104 6.50732 10.5312 6.50732C7.25206 6.50732 4.59375 7.28446 4.59375 8.2431C4.59375 9.20174 7.25206 9.97887 10.5312 9.97887Z" fill="#C1461E"/>
<path d="M16.4687 8.02435C16.4687 8.98299 13.8104 9.76012 10.5312 9.76012C7.25206 9.76012 4.59375 8.98299 4.59375 8.02435C4.59375 7.06571 7.25206 6.28857 10.5312 6.28857C13.8104 6.28857 16.4687 7.06571 16.4687 8.02435Z" fill="#E09C35"/>
<path d="M9.55664 6.13281C9.55664 6.87279 8.95677 7.47266 8.2168 7.47266C7.47682 7.47266 6.87695 6.87279 6.87695 6.13281C6.87695 5.39284 7.47682 4.79297 8.2168 4.79297C8.95677 4.79297 9.55664 5.39284 9.55664 6.13281Z" fill="#FFF8BB"/>
<path d="M6.31835 8.28369C6.31835 8.52639 6.1216 8.72314 5.8789 8.72314C5.6362 8.72314 5.43945 8.52639 5.43945 8.28369C5.43945 8.04099 5.6362 7.84424 5.8789 7.84424C6.1216 7.84424 6.31835 8.04099 6.31835 8.28369Z" fill="#FFF8BB"/>
<path d="M10.1035 9.11084C10.1035 9.35354 9.90676 9.55029 9.66406 9.55029C9.42136 9.55029 9.22461 9.35354 9.22461 9.11084C9.22461 8.86813 9.42136 8.67139 9.66406 8.67139C9.90676 8.67139 10.1035 8.86813 10.1035 9.11084Z" fill="#FFF8BB"/>
<path d="M15.1138 8.55078C15.1138 8.79348 14.917 8.99023 14.6743 8.99023C14.4316 8.99023 14.2349 8.79348 14.2349 8.55078C14.2349 8.30808 14.4316 8.11133 14.6743 8.11133C14.917 8.11133 15.1138 8.30808 15.1138 8.55078Z" fill="#FFF8BB"/>
<path d="M11.6533 9.11084C11.6533 9.35354 11.4566 9.55029 11.2139 9.55029C10.9712 9.55029 10.7744 9.35354 10.7744 9.11084C10.7744 8.86813 10.9712 8.67139 11.2139 8.67139C11.4566 8.67139 11.6533 8.86813 11.6533 9.11084Z" fill="#FFF8BB"/>
<path d="M7.17285 6.90332C7.17285 7.6433 6.57298 8.24316 5.83301 8.24316C5.09303 8.24316 4.49316 7.6433 4.49316 6.90332C4.49316 6.16335 5.09303 5.56348 5.83301 5.56348C6.57298 5.56348 7.17285 6.16335 7.17285 6.90332Z" fill="#FFF8BB"/>
<path d="M13.3359 5.72754C13.3359 6.46751 12.7361 7.06738 11.9961 7.06738C11.2561 7.06738 10.6562 6.46751 10.6562 5.72754C10.6562 4.98756 11.2561 4.3877 11.9961 4.3877C12.7361 4.3877 13.3359 4.98756 13.3359 5.72754Z" fill="#FFF8BB"/>
<path d="M16.1812 7.25879C16.1812 7.99876 15.5813 8.59863 14.8413 8.59863C14.1013 8.59863 13.5015 7.99876 13.5015 7.25879C13.5015 6.51881 14.1013 5.91895 14.8413 5.91895C15.5813 5.91895 16.1812 6.51881 16.1812 7.25879Z" fill="#FFF8BB"/>
<path d="M11.5625 6.28857C11.5625 7.02855 10.9626 7.62842 10.2227 7.62842C9.48268 7.62842 8.88281 7.02855 8.88281 6.28857C8.88281 5.5486 9.48268 4.94873 10.2227 4.94873C10.9626 4.94873 11.5625 5.5486 11.5625 6.28857Z" fill="#FFF8BB"/>
<path d="M10.2227 4.9209C10.2227 5.4721 9.77582 5.91895 9.22461 5.91895C8.6734 5.91895 8.22656 5.4721 8.22656 4.9209C8.22656 4.36969 8.6734 3.92285 9.22461 3.92285C9.77582 3.92285 10.2227 4.36969 10.2227 4.9209Z" fill="#FFF8BB"/>
<path d="M7.99805 7.96289C7.99805 8.54808 7.52366 9.02246 6.93848 9.02246C6.35329 9.02246 5.87891 8.54808 5.87891 7.96289C5.87891 7.37771 6.35329 6.90332 6.93848 6.90332C7.52366 6.90332 7.99805 7.37771 7.99805 7.96289Z" fill="#FFF8BB"/>
<path d="M9.83935 8.09472C9.83935 8.78103 9.28298 9.33739 8.59668 9.33739C7.91037 9.33739 7.354 8.78103 7.354 8.09472C7.354 7.40841 7.91037 6.85205 8.59668 6.85205C9.28298 6.85205 9.83935 7.40841 9.83935 8.09472Z" fill="#FFF8BB"/>
<path d="M14.6743 7.96826C14.6743 8.65457 14.1179 9.21093 13.4316 9.21093C12.7453 9.21093 12.189 8.65457 12.189 7.96826C12.189 7.28195 12.7453 6.72559 13.4316 6.72559C14.1179 6.72559 14.6743 7.28195 14.6743 7.96826Z" fill="#FFF8BB"/>
<path d="M11.7739 8.17724C11.7739 8.86355 11.2176 9.41991 10.5312 9.41991C9.84494 9.41991 9.28857 8.86355 9.28857 8.17724C9.28857 7.49093 9.84494 6.93457 10.5312 6.93457C11.2176 6.93457 11.7739 7.49093 11.7739 8.17724Z" fill="#FFF8BB"/>
<path d="M13.6167 7.92236C13.6167 8.78989 12.9134 9.49316 12.0459 9.49316C11.1784 9.49316 10.4751 8.78989 10.4751 7.92236C10.4751 7.05483 11.1784 6.35156 12.0459 6.35156C12.9134 6.35156 13.6167 7.05483 13.6167 7.92236Z" fill="#FFF8BB"/>
<path d="M7.66602 5.72754C7.66602 6.27875 7.21917 6.72559 6.66797 6.72559C6.11676 6.72559 5.66992 6.27875 5.66992 5.72754C5.66992 5.17633 6.11676 4.72949 6.66797 4.72949C7.21917 4.72949 7.66602 5.17633 7.66602 5.72754Z" fill="#FFF8BB"/>
<path d="M11.582 5.13477C11.582 5.68597 11.1352 6.13281 10.584 6.13281C10.0328 6.13281 9.58594 5.68597 9.58594 5.13477C9.58594 4.58356 10.0328 4.13672 10.584 4.13672C11.1352 4.13672 11.582 4.58356 11.582 5.13477Z" fill="#FFF8BB"/>
<path d="M14.4268 5.79102C14.4268 6.34222 13.9799 6.78906 13.4287 6.78906C12.8775 6.78906 12.4307 6.34222 12.4307 5.79102C12.4307 5.23981 12.8775 4.79297 13.4287 4.79297C13.9799 4.79297 14.4268 5.23981 14.4268 5.79102Z" fill="#FFF8BB"/>
<path d="M15.4976 6.50732C15.4976 7.05853 15.0507 7.50537 14.4995 7.50537C13.9483 7.50537 13.5015 7.05853 13.5015 6.50732C13.5015 5.95612 13.9483 5.50928 14.4995 5.50928C15.0507 5.50928 15.4976 5.95612 15.4976 6.50732Z" fill="#FFF8BB"/>
<path d="M16.2601 6.49018C16.2601 6.91138 15.9187 7.25282 15.4975 7.25282C15.0763 7.25282 14.7349 6.91138 14.7349 6.49018C14.7349 6.06899 15.0763 5.72754 15.4975 5.72754C15.9187 5.72754 16.2601 6.06899 16.2601 6.49018Z" fill="#FFF8BB"/>
<path d="M12.4003 4.68549C12.4003 5.10669 12.0588 5.44813 11.6376 5.44813C11.2164 5.44813 10.875 5.10669 10.875 4.68549C10.875 4.2643 11.2164 3.92285 11.6376 3.92285C12.0588 3.92285 12.4003 4.2643 12.4003 4.68549Z" fill="#FFF8BB"/>
<path d="M8.37229 7.6256C8.37229 7.84598 8.19364 8.02464 7.97326 8.02464C7.75287 8.02464 7.57422 7.84598 7.57422 7.6256C7.57422 7.40522 7.75287 7.22656 7.97326 7.22656C8.19364 7.22656 8.37229 7.40522 8.37229 7.6256Z" fill="#FDD27F"/>
<path d="M11.6731 5.84728C11.6731 6.06766 11.4944 6.24632 11.274 6.24632C11.0537 6.24632 10.875 6.06766 10.875 5.84728C10.875 5.6269 11.0537 5.44824 11.274 5.44824C11.4944 5.44824 11.6731 5.6269 11.6731 5.84728Z" fill="#FDD27F"/>
<path d="M14.1521 7.90441C14.1521 8.12479 13.9734 8.30344 13.753 8.30344C13.5327 8.30344 13.354 8.12479 13.354 7.90441C13.354 7.68403 13.5327 7.50537 13.753 7.50537C13.9734 7.50537 14.1521 7.68403 14.1521 7.90441Z" fill="#EEAC2B"/>
<path d="M15.0849 6.24654C15.0849 6.34305 15.0066 6.4213 14.9101 6.4213C14.8136 6.4213 14.7354 6.34305 14.7354 6.24654C14.7354 6.15002 14.8136 6.07178 14.9101 6.07178C15.0066 6.07178 15.0849 6.15002 15.0849 6.24654Z" fill="#EEAC2B"/>
<path d="M15.6181 6.96382C15.6181 7.06034 15.5398 7.13858 15.4433 7.13858C15.3468 7.13858 15.2686 7.06034 15.2686 6.96382C15.2686 6.8673 15.3468 6.78906 15.4433 6.78906C15.5398 6.78906 15.6181 6.8673 15.6181 6.96382Z" fill="#FDD27F"/>
<path d="M15.8476 8.24312C15.8476 8.33964 15.7693 8.41788 15.6728 8.41788C15.5763 8.41788 15.498 8.33964 15.498 8.24312C15.498 8.1466 15.5763 8.06836 15.6728 8.06836C15.7693 8.06836 15.8476 8.1466 15.8476 8.24312Z" fill="#EEAC2B"/>
<path d="M14.8495 8.55074C14.8495 8.64725 14.7713 8.72549 14.6748 8.72549C14.5782 8.72549 14.5 8.64725 14.5 8.55074C14.5 8.45422 14.5782 8.37598 14.6748 8.37598C14.7713 8.37598 14.8495 8.45422 14.8495 8.55074Z" fill="#FDD27F"/>
<path d="M14.9794 7.50581C14.9794 7.60233 14.9012 7.68057 14.8046 7.68057C14.7081 7.68057 14.6299 7.60233 14.6299 7.50581C14.6299 7.4093 14.7081 7.33105 14.8046 7.33105C14.9012 7.33105 14.9794 7.4093 14.9794 7.50581Z" fill="#EEAC2B"/>
<path d="M14.1024 6.61421C14.1024 6.71073 14.0242 6.78897 13.9277 6.78897C13.8312 6.78897 13.7529 6.71073 13.7529 6.61421C13.7529 6.5177 13.8312 6.43945 13.9277 6.43945C14.0242 6.43945 14.1024 6.5177 14.1024 6.61421Z" fill="#FDD27F"/>
<path d="M12.0458 8.97896C12.0458 9.07547 11.9676 9.15372 11.871 9.15372C11.7745 9.15372 11.6963 9.07547 11.6963 8.97896C11.6963 8.88244 11.7745 8.8042 11.871 8.8042C11.9676 8.8042 12.0458 8.88244 12.0458 8.97896Z" fill="#EEAC2B"/>
<path d="M10.2364 4.86675C10.2364 4.94256 10.175 5.00401 10.0992 5.00401C10.0234 5.00401 9.96191 4.94256 9.96191 4.86675C9.96191 4.79095 10.0234 4.72949 10.0992 4.72949C10.175 4.72949 10.2364 4.79095 10.2364 4.86675Z" fill="#FDD27F"/>
<path d="M13.3363 5.4482C13.3363 5.54471 13.2581 5.62296 13.1616 5.62296C13.0651 5.62296 12.9868 5.54471 12.9868 5.4482C12.9868 5.35168 13.0651 5.27344 13.1616 5.27344C13.2581 5.27344 13.3363 5.35168 13.3363 5.4482Z" fill="#FDD27F"/>
<path d="M11.912 4.79292C11.912 4.88944 11.8338 4.96768 11.7373 4.96768C11.6407 4.96768 11.5625 4.88944 11.5625 4.79292C11.5625 4.69641 11.6407 4.61816 11.7373 4.61816C11.8338 4.61816 11.912 4.69641 11.912 4.79292Z" fill="#FDD27F"/>
<path d="M12.5751 6.50777C12.5751 6.60428 12.4969 6.68253 12.4003 6.68253C12.3038 6.68253 12.2256 6.60428 12.2256 6.50777C12.2256 6.41125 12.3038 6.33301 12.4003 6.33301C12.4969 6.33301 12.5751 6.41125 12.5751 6.50777Z" fill="#EEAC2B"/>
<path d="M13.3539 7.0273C13.3539 7.12382 13.2757 7.20206 13.1792 7.20206C13.0826 7.20206 13.0044 7.12382 13.0044 7.0273C13.0044 6.93078 13.0826 6.85254 13.1792 6.85254C13.2757 6.85254 13.3539 6.93078 13.3539 7.0273Z" fill="#EEAC2B"/>
<path d="M11.8481 6.96382C11.8481 7.06034 11.7698 7.13858 11.6733 7.13858C11.5768 7.13858 11.4985 7.06034 11.4985 6.96382C11.4985 6.8673 11.5768 6.78906 11.6733 6.78906C11.7698 6.78906 11.8481 6.8673 11.8481 6.96382Z" fill="#FDD27F"/>
<path d="M12.4309 7.88194C12.4309 8.02195 12.3174 8.13545 12.1773 8.13545C12.0373 8.13545 11.9238 8.02195 11.9238 7.88194C11.9238 7.74192 12.0373 7.62842 12.1773 7.62842C12.3174 7.62842 12.4309 7.74192 12.4309 7.88194Z" fill="#FDD27F"/>
<path d="M13.3542 8.8043C13.3542 8.94431 13.2407 9.05782 13.1007 9.05782C12.9607 9.05782 12.8472 8.94431 12.8472 8.8043C12.8472 8.66428 12.9607 8.55078 13.1007 8.55078C13.2407 8.55078 13.3542 8.66428 13.3542 8.8043Z" fill="#FDD27F"/>
<path d="M10.093 8.60606C10.093 8.74607 9.97947 8.85957 9.83945 8.85957C9.69944 8.85957 9.58594 8.74607 9.58594 8.60606C9.58594 8.46604 9.69944 8.35254 9.83945 8.35254C9.97947 8.35254 10.093 8.46604 10.093 8.60606Z" fill="#FDD27F"/>
<path d="M10.5002 7.20176C10.5002 7.34177 10.3867 7.45528 10.2467 7.45528C10.1067 7.45528 9.99316 7.34177 9.99316 7.20176C9.99316 7.06175 10.1067 6.94824 10.2467 6.94824C10.3867 6.94824 10.5002 7.06175 10.5002 7.20176Z" fill="#FDD27F"/>
<path d="M6.86201 8.02451C6.86201 8.16453 6.74851 8.27803 6.6085 8.27803C6.46848 8.27803 6.35498 8.16453 6.35498 8.02451C6.35498 7.8845 6.46848 7.771 6.6085 7.771C6.74851 7.771 6.86201 7.8845 6.86201 8.02451Z" fill="#FDD27F"/>
<path d="M6.35518 6.33262C6.35518 6.47263 6.24168 6.58614 6.10166 6.58614C5.96165 6.58614 5.84814 6.47263 5.84814 6.33262C5.84814 6.19261 5.96165 6.0791 6.10166 6.0791C6.24168 6.0791 6.35518 6.19261 6.35518 6.33262Z" fill="#FDD27F"/>
<path d="M8.72383 5.98106C8.72383 6.12107 8.61033 6.23457 8.47031 6.23457C8.3303 6.23457 8.2168 6.12107 8.2168 5.98106C8.2168 5.84104 8.3303 5.72754 8.47031 5.72754C8.61033 5.72754 8.72383 5.84104 8.72383 5.98106Z" fill="#FDD27F"/>
<path d="M9.30808 4.72973C9.30808 4.89112 9.17725 5.02195 9.01586 5.02195C8.85447 5.02195 8.72363 4.89112 8.72363 4.72973C8.72363 4.56833 8.85447 4.4375 9.01586 4.4375C9.17725 4.4375 9.30808 4.56833 9.30808 4.72973Z" fill="#FFFFFE"/>
<path d="M11.2878 8.16101C11.2878 8.30278 11.1729 8.41772 11.0311 8.41772C10.8893 8.41772 10.7744 8.30278 10.7744 8.16101C10.7744 8.01923 10.8893 7.9043 11.0311 7.9043C11.1729 7.9043 11.2878 8.01923 11.2878 8.16101Z" fill="#FFFFFE"/>
<path d="M8.37231 8.59851C8.37231 8.74028 8.25737 8.85522 8.1156 8.85522C7.97382 8.85522 7.85889 8.74028 7.85889 8.59851C7.85889 8.45673 7.97382 8.3418 8.1156 8.3418C8.25737 8.3418 8.37231 8.45673 8.37231 8.59851Z" fill="#FFFFFE"/>
<path d="M9.48119 7.58728C9.48119 7.72905 9.36626 7.84399 9.22448 7.84399C9.08271 7.84399 8.96777 7.72905 8.96777 7.58728C8.96777 7.4455 9.08271 7.33057 9.22448 7.33057C9.36626 7.33057 9.48119 7.4455 9.48119 7.58728Z" fill="#FFFFFE"/>
<path d="M10.0994 5.91882C10.0994 6.0606 9.98442 6.17553 9.84265 6.17553C9.70087 6.17553 9.58594 6.0606 9.58594 5.91882C9.58594 5.77704 9.70087 5.66211 9.84265 5.66211C9.98442 5.66211 10.0994 5.77704 10.0994 5.91882Z" fill="#FFFFFE"/>
<path d="M7.37524 6.67761C7.37524 6.81939 7.2603 6.93432 7.11853 6.93432C6.97675 6.93432 6.86182 6.81939 6.86182 6.67761C6.86182 6.53583 6.97675 6.4209 7.11853 6.4209C7.2603 6.4209 7.37524 6.53583 7.37524 6.67761Z" fill="#FFFFFE"/>
<path d="M6.8684 5.40564C6.8684 5.54741 6.75347 5.66235 6.61169 5.66235C6.46991 5.66235 6.35498 5.54741 6.35498 5.40564C6.35498 5.26386 6.46991 5.14893 6.61169 5.14893C6.75347 5.14893 6.8684 5.26386 6.8684 5.40564Z" fill="#FFFFFE"/>
<path d="M5.7816 7.33929C5.7816 7.51184 5.64172 7.65172 5.46917 7.65172C5.29662 7.65172 5.15674 7.51184 5.15674 7.33929C5.15674 7.16674 5.29662 7.02686 5.46917 7.02686C5.64172 7.02686 5.7816 7.16674 5.7816 7.33929Z" fill="#FFFFFE"/>
</svg>
